<?xml version="1.0" encoding="utf-8"?>
<!-- Generator: Adobe Illustrator 22.1.0, SVG Export Plug-In . SVG Version: 6.00 Build 0)  -->
<svg version="1.1" id="Layer_1" xmlns="http://www.w3.org/2000/svg" xmlns:xlink="http://www.w3.org/1999/xlink" x="0px" y="0px"
	 viewBox="0 0 612 792" style="enable-background:new 0 0 612 792;" xml:space="preserve">
<style type="text/css">
	.st0{fill:#FFFFFF;}
</style>
<g>
	<path class="st0" d="M275,793c-21.3,0-42.7,0-64,0c1.2-4.3,2.8-8.6,3.4-13c0.5-4,0.4-8.4-3.7-11.1c-0.4-0.6-0.8-1.3-1.2-1.9
		c-0.5-0.6-1-1.2-1.5-2c-0.8,0.9-1.4,1.6-2.7,3.2c-1.2-4.5-2.6-8-3.1-11.7c-1.9-14.6,4.1-26.2,15.1-35c5.6-4.4,7.2-10.5,9.5-16.5
		c0.4-1,0.2-2.3-0.1-3.4c-1.1-4.3-2.3-8.6-3.5-12.9c-0.1,3.3,0.1,6.6,1,9.7c2,6.8-1.6,17.1-7.3,21.3c-8,5.7-13.7,13.2-16,22.8
		c-2.3,9.5-1.8,18.8,3.5,27.2c-5.6,6.2-16,5.4-20.9-1.5c1.4-3.7,3-7.3,4.1-11.2c1.7-6.3,1.3-12.3-4.5-16.6c-3.2-2.4-6.4-4.7-9.8-6.9
		c-4.1-2.6-7.2-5.9-6-11c0.5-2.2,2.5-4.1,3.8-6.2c0.6-0.9,2.2-1.7,0-2.6c1.4-1.5,2.7-3,4.1-4.3c8.7-7.9,11.2-17.5,9.3-29
		c-1.6-9.4-5-18.3-8.3-27.1c-2.8-7.6-7.4-14.1-13.7-19.4c-6.9-5.8-13.6-11.8-20.3-17.7c-4.1-3.6-8.1-7.5-10.1-12.8
		c-1.5-3.7-1.2-4.1,1.5-6.1c5.2,0.6,9.4,1.2,13.6,1.7c1.3,0.2,2.8-0.2,4,0.2c5.5,2.1,10.4,0.8,15.2-2.1c2.6-1.6,4.5-1,5.5,1.8
		c0.6,1.7,0.4,3.8,0.4,5.8c0,1.2-0.2,2.4-0.4,3.9c5.3-2,9.8-7.7,10.4-12.4c1.1-9.2-5.3-13.7-11.8-18.4c-0.2-4.3-3-8.8,0-13.4
		c0.3-0.4-0.1-1.3-0.2-1.9c-0.5-4-1-7.9-1.3-11.9c-0.3-3.8-0.2-7.7-0.8-11.4c-1.7-10.9-6.8-17.5-19.9-15c-0.8,0.2-1.8-0.3-2.7-0.4
		c8.2-4.2,9.6-11.5,10-19c2.4-0.6,4.3-0.9,6.2-1.6c1.9-0.6,3.7-1.5,5.5-2.4c5.4-2.6,7.8-7.6,6-13.3c-1.8-5.7-3.7-11.3-5.6-17
		c3.5-7.1,3.6-8.6,2.5-17.3c-0.2-1.3,0.6-2.8,1.1-4.1c2.6-6,0.3-13.1-5.4-16.3l0,0c0.4-2.3,0.8-4.6,1.4-6.8
		c1.5-5.4,0.2-10.1-3.4-14.3l0,0c2.6,0,3.9-1.8,4.8-3.8c2.4-4.8,0.2-12-4.9-14.7c-4.2-2.2-8.8-3.7-13.2-5.5c-1-0.4-2-0.7-3.8-1.2
		c2.1-2.5,3.7-4.4,5.6-6.6c3.4,4,6.4,7.5,9.4,11.1c0.3-0.2,0.6-0.5,0.9-0.7c-2.8-3.8-5.7-7.6-8.8-11.9c2.5-1.9,4.6-3.6,6.8-5.3
		c7.5,4.5,8.2,10.8,5.6,18.2c1.4-1.4,2.8-2.8,3.1-4.3c1-4.9-0.4-9.1-3.9-12.7c-4.5-4.6-10.3-6.3-16.7-7.5c1.6-1.5,3.4-2.4,5-3.5
		c1.7-1.2,3-2.9,4.8-3.9c2.1-1.2,3.8,0.2,4.3,2c0.9,3,1.2,6.3,1.8,9.1c2.4-2.9,2.3-6.1-0.8-11.7l0,0c5.1-2.3,8.1-6.7,6.6-11.8
		c-1.5-5-2.4-10-3.6-15.1c-0.1-0.6-0.4-1.4-0.8-1.8c-4.4-4.3-4.8-9.5-4-15.1c0.2-1.3-0.3-2.6-0.6-3.9c-0.5-2.1-1.7-3.4-4.6-3.3
		c3,3.2,3.6,6.7,2.4,11.3c-2.6-3.3-4.8-6.1-6.9-8.8c1-1.7,1.7-3.1,2.5-4.5l0,0c1.6-0.2,1.7-1.2,0.6-1.9c-2-1.4-4.2-2.8-6.5-3.7
		c-5-1.8-10.1-3.4-15.2-4.8c-2.5-0.7-3.8-2-4.9-4.4c-2.1-4.4-1.9-9.3-4.5-13.7c-2.9-4.9-4-10.9-5.9-16.4
		c-4.9-14.5-7.1-29.4-6.4-44.7c0.4-8,0.9-15.9,0.9-23.9c0-3.4,0.7-5.5,4.1-6.2c6.8-1.6,8.8-6.4,8.8-12.7c0-2.3,0-4.6,0-7
		c-4.9-3.1-10-0.5-15-0.5c3-11.7,3-11.7-1.5-19.7c2.3-5.7,2.3-11.5-0.7-17.2c-0.5-0.9-0.6-2.4-0.2-3.3c3.1-6.3,1.6-12.4-1-18.3
		c-1-2.2-1.3-4.2-0.7-6.6c1.7-6.3,1.3-12.5-1.9-18.4c-0.6-1-0.8-2.7-0.4-3.7c3-7.8,0.5-15.1-2.4-22.2c-0.8-2.1-1-3.7,0-5.6
		c2.4-4.4,2.3-9,0-13.4c-1.1-2.1-1.1-4-0.3-6.2c2.1-5.7,1.3-11.2-1.6-16.4C99.3,13,99.1,11,100,8.6c0.9-2.5,1.8-5.1,0-7.6
		c171,0,342,0,513,0c0,131,0,262,0,393c-4.1-0.2-8.2-0.4-12.5-0.6c-0.5-2.1-1.1-3.8-1.3-5.6c-0.8-7.6-1.7-15.2-2.2-22.8
		c-1.1-17.4-3.2-34.8-2.1-52.3c0.4-7-0.2-14.1-0.3-21.5c1.5,0,3.1,0,4.8,0c3,0,6,0.1,9-0.2c0.8-0.1,1.4-1.4,2.1-2.2
		c-0.7-0.6-1.3-1.6-2.1-1.7c-1.6-0.3-3.3-0.2-5-0.2c-34.7,0-69.3,0-104,0c-1.3,0-2.7-0.1-4,0c-2.4,0.1-3.6-1-4.3-3.2
		c-0.7-2.4-1.5-4.8-2.9-6.9c-2.8-4.3-2-9.1-3.1-14c1.7,0.2,2.8,0.4,4,0.6c2.3,0.4,3.7-0.6,4.6-2.8c2.1-5.2,4.1-10.6,6.7-15.5
		c3.6-6.9,7.3-13.6,13.7-18.7c6.3-5,11.7-11.3,17.1-17.3c3.2-3.6,2.5-7-1.6-9.6c-6.6-4.3-12.6-9.1-18-14.9
		c-6.1-6.6-13-12.4-19.3-18.8c-5-5.1-10.9-8.1-17.6-9.8c-6.7-1.6-13.4-2.1-19.9-0.1c-3.4-4.7,0.7-8.7,0.1-13c-2.1-0.9-4.1-1.9-6.5-3
		c0-1.7-0.1-3.4,0-5c0.3-3.3,0.8-6.6,1.3-9.9c0.6-4.7,2.6-8.5,6.4-11.4c1.3-1,2.4-2.3,3.5-3.5c4-4,3.5-9.2,1.4-13.9
		c-0.8-1.8-1.5-3.6-1.9-5.5c-1.1-5.8-3.4-10.8-8.6-14c-0.8-0.5-1.5-1.2-2.5-1.9c1-2.7,1.9-5.1,2.8-7.6c3.4-9.2,9.6-15.4,19.2-18
		c5.4-1.5,5.9-3.1,2.9-8.7c-4.9,0.5-10.1,1-15.1,1.5c1.9-7.1,3.7-14.1,5.6-20.9c0.6-2.4,0.7-4.3-2.2-5.1c-3.1-0.8-5.3,0.3-6.2,3.1
		c-0.9,3-1.9,5.9-2.8,8.9c-0.5-2.5-0.1-4.8,0.2-7c0.3-2.2,0.5-4.5,0.8-6.6c-5.8-2.1-8-1.1-9.4,4c-0.7,2.6-1,5.3-1.6,8.4
		c-5-8.1-5-8.1-8.9-7.2c4.8,1.3,5,5.5,6.2,8.9c1.2,3.5,0.6,7.4,3.3,11.9c0.7-3.5,1.2-5.9,1.5-8.3c0.4-4.1,0.7-8.3,1-12.4
		c0.3-3.5,1.3-4.2,5.5-3.7c-1.3,8.1-2.5,16.2-3.8,24.2c0.5,0.3,1,0.6,1.4,1c0.3-0.8,0.6-1.5,0.9-2.3c2.4-5.8,4.9-11.6,7-17.5
		c1-2.9,2.4-3.6,5.2-2.5c-2,6.9-4.1,13.6-5.8,20.3c-0.8,3.2-2.1,5.8-5,7.5c-0.1,0.1,0,0.6,0,1.7c1.7-0.7,3.1-1.3,4.6-1.7
		c4.5-1.2,8.9-2.4,13.5-3.2c1.1-0.2,2.4,0.7,3.6,1.1c0.1,0.4,0.2,0.9,0.3,1.3c-15.3,3.6-23.5,14-26.8,28.2c-4.8-1-9.2-1.9-13.8-2.8
		c3.2-4.1,2.3-10,6.4-14c-1.1,0.4-2.3,0.8-4.2,1.5c-1.1-5.6-1.9-10.9-3.3-16.2c-1.4-5.3-3.4-10.3-5.2-15.6c2.6-1.5,4-0.5,5.1,1.9
		c1.4,3.1,2.9,6.2,4.4,9.3c0.3-0.1,0.7-0.2,1-0.3c0.1-5.3-0.7-10.4-3-15.4c0.2,2.1,0.4,4.2,0.7,6.9c-4-5.7-6-6.2-11-3.3
		c0.8,2.1,1.7,4.3,2.4,6.5c1.3,4,2.5,7.9,3.5,11.9c1.2,4.8,2.3,9.7,3.2,14.5c0.4,2,0.4,4.2,0,6.2c-1,5.5-4.9,7.8-9.9,9.2
		c-10,2.8-17,8.8-19.7,19.2c-0.3,1.1-0.9,2.1-1.3,2.9c-2.3,0.4-4.3,0.8-6.3,1.2c0,0.3,0,0.7,0,1c1.6,0.7,3.1,1.4,4.5,2
		c-1.4,5.9-3.3,11.5-3.8,17.2c-1.3,13.1,7.3,23,20.2,23.3c3.9,0.1,7.8-0.8,13.1-1.3c-1.7,1.8-2.5,3.2-3.7,3.8
		c-1.6,0.8-3.6,0.8-5.3,1.4c-2.4,0.8-3.9,2.1-3.4,5.2c0.3,1.9-0.5,4.1-0.8,6c-6.7,0.1-12.8-2.6-19.1,0c-3.4,8.1-8.4,15.2-13.8,22.3
		c-8.6,11.4-16.2,23.6-24.1,35.5c-4.2,6.4-3.7,9.3,1.9,14.5c2.1,1.9,4,4,6,6c4.2,4,8.1,8.4,12.6,12c5.4,4.3,10.4,8.8,14.3,14.5
		c2.6,3.8,2.7,3.7,7.3,2.4c0.4-0.1,0.9,0.1,1.4,0.2c0.2,2.7,0.4,5.3,0.5,7.9c0,0.9-0.4,1.9-0.9,2.8c-1.5,2.6-3.4,4.9-4.8,7.6
		c-2,3.9-4.8,5.1-9.2,5c-36.8-0.2-73.6-0.1-110.5-0.1c-6.2,0-8.1,2.1-7,8.3c1.6,9.2,1.7,18.5,1.5,27.9c-0.3,14.8-0.7,29.6-0.7,44.5
		c0,10.3,0.5,20.6,0.5,30.9c0,109.3,0,218.6,0,327.9c0,1.9,0,3.9,0,6c-2.9,0.3-5.1,0.5-8.4,0.9c1.4,2.7,2.1,4.9,3.5,6.6
		c5.4,6.6,4.9,18.3-4.5,23.7c-1.7,1-3.4,2.1-5.1,3.2c-2.9-3.4-6.1-6.6-8.6-10.3c-4.4-6.3-7.3-13.1-3.4-20.9c1.7-3.4,3.1-7,4.6-10.5
		c0.8-1.9,2.2-3.7,0.6-6.5c-3.7,7.6-7.3,14.7-9,22.5c-0.6,2.7,0.7,5.8,1.5,8.6c0.6,2,1.6,4.1,2.8,5.8c3.2,4.4,5.8,9.4,11.1,11.8
		c1.1,0,2.4,0.5,3.1,0c5.9-4.1,11.7-7.8,11.5-16.6c-0.1-4.6-0.4-8.4-3-12.1c-0.7-1-1.3-2.2-2-3.4c7.9,0.4,10.1,1.6,16.9,8.7
		c10.4,10.7,14.1,33-3.8,45.4C277.9,790.3,276.5,791.7,275,793z M444.2,47.5c-3.4-0.3-6.5-0.3-8.9,3.5c2-0.2,3.3-0.3,5-0.5
		c-0.3,1.2-0.5,1.9-0.6,2.6c-1.1-0.3-1.9-0.6-3.1-0.9c1.4,5.9,7.9,3.9,9.8,7.9c0.5-1.9,0.6-3.6,1.5-4.9c2.1-3.2,2.2-3.1-0.8-5.9
		c-0.2-0.2-0.3-0.6-0.3-0.7c0.2-1.4,0.5-2.7,0.7-3.9c-0.3-0.1-0.6-0.2-0.8-0.2C445.9,45.2,445.1,46.2,444.2,47.5z M227.2,679.5
		c0.5,1.2,0.7,1.7,1,2.2c2.8,4.6,7,8,11.3,11c3,2.1,5.6,4.5,6.9,8.2c1,3.1,2.5,6,3.7,9c0.8-1.4,1.2-2.9,0.8-3.9
		c-1.9-4-3.4-8.6-6.3-11.7C239.5,689.1,233.4,684.8,227.2,679.5z"/>
	<path class="st0" d="M613,397c0,131.9,0,263.8,0,396c-112,0-224,0-336,0c1.5-1,3.1-1.9,4.6-2.9c6.9-4.6,11.3-11.1,12.4-19.1
		c1.9-13.8-3.2-25.2-14.1-33.7c-2.8-2.2-3.9-4.3-3.9-7.8c0.1-108.8,0.1-217.5,0.1-326.3c0-1.8,0.2-3.5,0.4-5.8c2.6,0,4.7,0,6.9,0
		c107.6,0,215.2,0,322.8,0C608.4,397.3,610.7,397.1,613,397z"/>
	<path class="st0" d="M209.5,767c0.4,0.6,0.8,1.3,1.2,1.9c3,6.4,2.7,12.8,0.4,19.3c-0.5,1.5-0.7,3.2-1.1,4.8c-21.7,0-43.3,0-65,0
		c-0.7-0.7-1.4-1.4-2.2-2c-2.4-1.8-4.9-3.4-7.2-5.4c-3.7-3.2-4-4.8-1.8-9.1c1.4-2.8,3.3-5.4,4.7-8.2c1.2-2.7,2.3-5.5,2.8-8.4
		c0.8-4.8-0.9-9.1-3.6-13.2c5.1-0.8,7.6,0.3,9.7,4.2c1.5,2.7,2.9,5.4,4.9,9.2c1.7-3.1,3.1-5.1,3.9-7.3c2.8-7.3-0.2-17.6-9.1-21.9
		c-6.3-3.1-6.4-6.4-1.1-11.3c0.8-0.7,1.3-1.6,1.9-2.4c-2.1,0.5-3.8,1.5-5.2,2.8c-4.2,4.2-3.4,9,1.8,11.9c1.5,0.8,3,1.4,4.4,2.3
		c6.5,4.2,8.2,15.5,3.3,21.3c-6.6-11.3-12-14.1-19.4-10.4c0.1,0.3,0.1,0.7,0.3,0.9c7.2,7.3,7.9,14.3,2.5,22.8
		c-1.5,2.4-2.8,4.9-4,7.5c-2,4.5-1.7,6.5,1.8,9.8c2.7,2.5,5.7,4.6,8.6,6.8c-19.7,0-39.3,0-59,0c2.4-2.6,3.3-5.6,3.3-9.1
		c0-11.7-7.4-21.4-18.7-24.3c-1.1-0.3-2.1-0.9-3-1.3c-0.2-4.6,0.9-6.2,4.7-6.9c1.8-0.3,3.6-0.1,5.5-0.1c2.1,1.6,3.3,4.4,6.3,4.9
		c0.3-0.6,0.5-0.9,0.6-1.2c0-0.5-0.1-1-0.2-1.5c-1.6-6.9-6.2-10.9-12.7-12.7c-4.2-1.1-8.5-1.6-12.8-2.3c3,3,6.9,2.8,10.6,3.6
		c5.7,1.1,9.9,4.1,12.5,10.1c-1.6-0.7-2.6-1.2-3.6-1.6c-3.4-1.5-6.8-1.3-10,0.6c-2.2,1.3-3,3.4-2.7,6c0.3,2.6,1.9,3.8,4.3,4
		c5.7,0.4,9.3,4.2,12.7,8c6.3,7,6.7,16.6,1.4,23.8c-26.7,0-53.3,0-80,0C1,529,1,265,1,1c26.7,0,53.3,0,80,0
		c-1.3,5.3-1.7,10.8-4.2,15.8c-0.2,0.4-0.1,1,0,1.5c0.8,3.5,1.4,7.2,2.5,10.6c0.9,2.6,1.1,4.9,0.3,7.6c-1.1,3.6-2.5,7.8-1.5,11.2
		c1.9,6.7,1.2,13.5,2.6,20.1c0.5,2.4,0.5,5.3,1.9,7.2c2.4,3.4,1.8,6.5,0.8,9.9c-1.9,6.2-1.4,12.1,1.7,17.4c-2.3,8.1-2,15.5,1.4,22.3
		c-2.8,6.8-1.8,13.1,0,19.4c0.4,1.3,1.2,2.8,0.8,3.8c-2.6,5.6-1.6,11.4-0.8,17.4c-2,0.7-4,1.4-6.1,2.1c-5.8,1.9-6.4,2.7-6.6,8.9
		c-0.1,4.2,0,8.3,0,12.5c0,3.4-1.5,5.8-5,7.8c-1-4-1.9-7.5-2.6-11.1c-0.9-4.6-1.5-9.2-2.2-13.8c-0.3-2.1-1.4-3.6-3.6-3.2
		c-1.8,0.4-2.6,2-2.2,3.9c0.1,0.3,0.2,0.6,0.2,1c0.4,6,1.2,11.9,1.1,17.9c-0.1,5.3-0.8,10.5,1.9,15.5c0.6,1.1,0.2,2.6,0.2,3.9
		c-0.2,5.4,2.2,8.7,7.2,10.6c5.6,2.1,6.3,2.8,5.8,8.9c-0.8,9.6-2.3,19.1-3.2,28.7c-1.1,11.9-2,23.9,1.9,35.6
		c0.3,0.9,0.1,1.9,0.2,3.3c-2.5,0.8-4.8,1.5-7.1,2.2c-4.8,1.4-7.1,4.2-6.6,9.1c0.3,2.9,1.6,5.7,2.8,8.4c0.6,1.5,1.9,2.7,2.3,3.3
		c-0.4,3.6-1.5,6.5-0.9,9.1c1.3,5.3,2.4,10.1,1.2,15.8c-0.7,3.1,2.1,7.1,3.8,10.5c1.2,2.4,1.8,4.3,1.1,7c-1.3,4.7-1.6,9.5,1.5,13.9
		c0.6,0.8,0.9,2.2,0.7,3.2c-1.8,7.8,0.5,14.4,6,20.2c-2.8,4.8-3.3,10.1-0.2,14.6c2.4,3.5,2.8,6.7,2.6,10.6c-0.2,5.8,1.5,10.8,6.6,14
		c3.2-1.6,5.5-5,9.6-3.6c1.6,2,3.2,4,4.8,5.9c-1.7,3.5-2.5,7.4-5.9,10c-6.5,5-8,12-4.4,19.4c1,2,1.7,4.5,4.6,4.7l0,0
		c-0.6,2.4-1.3,4.7-1.8,7.1c-0.8,4.1-0.3,7.8,2.8,10.9l0,0c-1.3,3.5-1.8,7,1.2,9.7c3.3,3.1,4.7,7,5.8,11.2c0.5,1.7,1.4,3.4,2.2,5
		c1.5,2.9,3.6,5.1,7,5.8c3.1,0.6,6.1,1.5,9.4,2.3c0,4.5,0.5,9.1-0.2,13.4c-0.4,2.9-1.6,6.6-3.8,8.3c-6.6,5.2-7.5,11.8-6.6,19.2
		c0.4,3.6,2.4,6.4,5.8,7.5c3.2,1,4.4,3.1,5.2,6c0.5,1.9,1.3,3.7,2.1,6c-2,1.4-4,2.7-5.9,4.2c-4.3,3.3-8.9,6.3-11.7,11.4
		c-8.9,16.2-3.3,38.4,11.6,47.9c3.8,2.4,7.7,4.7,11.6,6.7c7.1,3.6,14.3,6.8,19.8,13.1c3.8,4.4,5.8,12.1,2.4,17
		c-4.2,6.1-6.9,6.5-14.1,3.6c-2.7-1.1-5.4-2.1-8.1-3.2c1.3,2.4,3.9,3.6,4.5,5.4c2,6.3,6.7,10.2,10.9,14.6c6.4,6.6,13.9,8.9,22.7,5.7
		c-0.7,1.1-1.4,2.3-2.1,3.4c-2.9,4.2-2.9,9,0.5,12.8c1.5,1.7,3.5,3,5.4,4.4c3.3,2.5,6.6,5.1,9.9,7.5c3.9,2.9,4.6,6.8,3.6,11.1
		c-0.9,3.5-2.3,6.9-3.6,10.3c-1.7,4.5-1,6.8,3.3,9.1c7.1,3.9,16.3,2,21.4-4.4C208,768.4,208.8,767.7,209.5,767z M25.8,743.8
		c-0.1-0.9-0.4-1.9-0.2-2.8c0.6-2.9,1.5-5.8,2.1-8.7c1.7-8.4-0.1-17.5-9.2-19.9c-4.1-1.1-4.7-2.8-4.4-7.3c0.2-2.3,0.8-4.6,1.2-6.9
		c0.1-0.8,0-1.7,0-2.5c-2.9,2.9-5.2,5.9-6.8,9.3c-1.8,3.5-3.4,7.3-4.2,11.1c-1.4,6.2-0.5,11.8,5.6,15.7c4.7,3,5.2,7.6,1.7,12.5
		c-1.9,2.7-4.4,5-6.6,7.4c-0.9,1-1.7,1.9-2.6,2.9c5.1-2,7.5-4.3,10.6-8.9c4.3-6.4,3.4-11.6-2.7-16.3c-2.4-1.8-4-3.9-4.2-7
		c-0.4-6.7,1.4-12.6,5.5-18.5c0.4,7.1,1.1,8.1,6.8,10.8c0.9,0.4,1.8,0.9,2.7,1.3c2.9,1.2,4.4,3.5,4.6,6.5c0.6,7.2,0.2,14.4-3.1,20.9
		c-1.5,3-2,5.8-1.2,9c1.3,5.2,4,9.6,7.7,13.5c-2.4,1.6-4.5,0.3-6.4-1c-3.8-2.5-5-6.2-4.3-10.8c-3,3.3-3.5,6.9-2.9,10.9
		c0.3,1.9,0.8,3.9,0.8,5.8c0,4.8,2.6,7.7,7.6,8c2.8,0.1,4.4-1.7,2.9-4c-1.2-2-3.2-3.7-5.3-5c-2.7-1.6-4.2-3.5-4.1-7.4
		c4.2,5.6,8.9,6.8,14.9,5.1c4.7-1.3,8.6,2.3,8.4,7.2c-0.2,4.9-1.5,9.5-5.1,13.2c-0.7,0.7-1.2,1.6-1.9,2.4c7.3-3.7,9.3-10.1,8.7-17.5
		c-0.4-4.6-5.3-8-10.1-7.5c-1.2,0.1-2.3,0.4-3.4,0.6c-0.6-1.8-0.7-3.9-1.8-5.4c-3.6-5-5.2-9.9-1.3-15.5c0.2-0.3,0.2-0.6,0.4-0.9
		c6.3-3.5,10.8-8.8,14.5-14.8c5.3-8.6,6.2-17.4,1.4-26.6c-0.5-1-0.9-2-1.7-3.6c4,0.1,6.5,1.7,8.3,4.5c1.1,1.8,2,3.8,3,5.7
		c2.8,5.3,3.7,10.6,0.9,16.2c-0.6,1.2-0.9,2.5-1.3,3.8c-0.8,2.6-0.1,4.8,1.3,6.5c0.6-3.6,0.7-7.4,2-10.8c1.8-4.5,1.9-8.9,0.1-13.1
		c-1.6-3.8-3.6-7.5-6-10.9c-2.8-4-8.1-4.8-12.3-2.3c4.5,4.4,6.5,9.7,6.4,16.1c0,8.3-4.2,14.5-9.2,20.4
		C31.3,738.4,28.5,741,25.8,743.8z M123.2,754.5c-6.8,0.5-9.9,0-13-1.8c-5.6-3.3-6.1-5.2-2.9-10.8c0.5-0.9,1.1-1.7,1.5-2.6
		c3.5-7,4.4-14,1.8-21.7c-2.3-6.7-6.3-11.9-10.9-17.1c-4.5-5.1-10.3-7.1-16.4-8.6c-2.1-0.5-4.5-0.1-6.7-0.1
		c-0.1,0.4-0.3,0.8-0.4,1.2c1.4,1,2.8,2,4.2,2.9c6.7,3.8,10.1,11.6,8.7,19.1c-1,5.3-4.7,8.3-8.4,11.3c-3.7,3.1-7.6,5.9-11.4,9
		c-0.9,0.7-1.6,1.7-2.3,2.6c0.3,0.3,0.5,0.5,0.8,0.8c6.8-5.1,14-9.9,19.9-16.2c2.3-2.5,3.4-5.6,3.5-9.1c0.4-8.5-2.6-15.2-11.3-19.8
		c1.7,0.1,2.3,0.1,2.9,0.2c10.4,1.6,17.3,8.2,22.5,16.7c4.1,6.7,6.8,14.3,4.2,22.3c-1.2,3.8-3.2,7.3-5,10.8c-1,2-1.6,4-0.4,6.1
		C107.2,755,116.1,757.6,123.2,754.5z M86.4,443.2c-2.9,3.9-1.3,11,3.2,13.5C88.5,452.2,87.4,447.6,86.4,443.2z"/>
	<path d="M613,397c-2.3,0.1-4.6,0.3-7,0.3c-107.6,0-215.2,0-322.8,0c-2.1,0-4.3,0-6.9,0c-0.2,2.2-0.4,4-0.4,5.8
		c0,108.8,0,217.5-0.1,326.3c0,3.5,1.1,5.6,3.9,7.8c11,8.5,16,19.9,14.1,33.7c-1.1,8.1-5.5,14.6-12.4,19.1c-1.5,1-3.1,2-4.6,2.9
		c-0.7,0-1.3,0-2,0c1.5-1.3,2.9-2.7,4.5-3.8c18-12.5,14.2-34.7,3.8-45.4c-6.8-7-9-8.2-16.9-8.7c0.8,1.3,1.3,2.4,2,3.4
		c2.5,3.7,2.9,7.5,3,12.1c0.1,8.8-5.6,12.6-11.5,16.6c-0.7,0.5-2.1,0-3.1,0c0.1-0.2,0.3-0.3,0.4-0.5c1.7-1.1,3.4-2.2,5.1-3.2
		c9.4-5.5,9.9-17.1,4.5-23.7c-1.4-1.7-2.1-3.9-3.5-6.6c3.3-0.3,5.5-0.6,8.4-0.9c0-2.1,0-4,0-6c0-109.3,0-218.6,0-327.9
		c0-10.3-0.6-20.6-0.5-30.9c0.1-14.8,0.5-29.6,0.7-44.5c0.2-9.3,0.1-18.6-1.5-27.9c-1.1-6.2,0.8-8.3,7-8.3
		c36.8,0,73.6-0.1,110.5,0.1c4.4,0,7.2-1.1,9.2-5c1.3-2.7,3.2-5,4.8-7.6c0.5-0.8,0.9-1.8,0.9-2.8c0-2.6-0.3-5.2-0.5-7.9
		c-0.4-0.1-0.9-0.3-1.4-0.2c-4.6,1.3-4.7,1.4-7.3-2.4c-3.9-5.7-8.9-10.2-14.3-14.5c-4.5-3.6-8.4-7.9-12.6-12c-2-2-3.9-4.1-6-6
		c-5.7-5.3-6.2-8.1-1.9-14.5c7.9-11.9,15.4-24.2,24.1-35.5c5.4-7.1,10.4-14.2,13.8-22.3c6.3-2.6,12.4,0.1,19.1,0
		c0.3-1.9,1.1-4.1,0.8-6c-0.6-3.1,0.9-4.4,3.4-5.2c1.7-0.6,3.7-0.6,5.3-1.4c1.2-0.6,2-2,3.7-3.8c-5.3,0.6-9.2,1.4-13.1,1.3
		c-12.9-0.3-21.5-10.2-20.2-23.3c0.6-5.7,2.5-11.3,3.8-17.2c-1.3-0.6-2.9-1.3-4.5-2c0-0.3,0-0.7,0-1c2-0.4,4-0.8,6.3-1.2
		c0.4-0.9,1-1.9,1.3-2.9C405,83.2,412,77.2,422,74.4c5-1.4,9-3.8,9.9-9.2c0.4-2,0.4-4.2,0-6.2c-0.9-4.9-2-9.7-3.2-14.5
		c-1-4-2.3-8-3.5-11.9c-0.7-2.2-1.6-4.4-2.4-6.5c5-2.9,7-2.3,11,3.3c-0.3-2.7-0.5-4.8-0.7-6.9c2.3,5,3.1,10.1,3,15.4
		c-0.3,0.1-0.7,0.2-1,0.3c-1.5-3.1-3-6.2-4.4-9.3c-1.1-2.3-2.6-3.4-5.1-1.9c1.8,5.3,3.8,10.4,5.2,15.6c1.4,5.2,2.2,10.6,3.3,16.2
		c2-0.7,3.1-1.1,4.2-1.5c-4,4-3.2,9.9-6.4,14c4.7,1,9,1.8,13.8,2.8c3.4-14.2,11.5-24.5,26.8-28.2c-0.1-0.4-0.2-0.9-0.3-1.3
		c-1.2-0.4-2.5-1.3-3.6-1.1c-4.5,0.9-9,2.1-13.5,3.2c-1.5,0.4-2.9,1.1-4.6,1.7c0-1.1-0.1-1.6,0-1.7c2.9-1.7,4.2-4.3,5-7.5
		c1.7-6.7,3.8-13.4,5.8-20.3c-2.9-1.2-4.2-0.4-5.2,2.5c-2.1,5.9-4.7,11.7-7,17.5c-0.3,0.8-0.6,1.5-0.9,2.3c-0.5-0.3-1-0.6-1.4-1
		c1.3-8.1,2.5-16.2,3.8-24.2c-4.2-0.5-5.2,0.2-5.5,3.7c-0.4,4.1-0.6,8.3-1,12.4c-0.3,2.4-0.8,4.8-1.5,8.3c-2.7-4.4-2.1-8.4-3.3-11.9
		c-1.2-3.4-1.4-7.6-6.2-8.9c3.9-0.9,3.9-0.9,8.9,7.2c0.6-3.1,0.9-5.8,1.6-8.4c1.3-5.2,3.5-6.1,9.4-4c-0.2,2.1-0.5,4.4-0.8,6.6
		c-0.3,2.3-0.7,4.5-0.2,7c0.9-3,1.9-5.9,2.8-8.9c0.9-2.8,3.2-4,6.2-3.1c2.9,0.8,2.9,2.7,2.2,5.1c-1.9,6.9-3.7,13.8-5.6,20.9
		c5.1-0.5,10.2-1,15.1-1.5c3.1,5.6,2.5,7.2-2.9,8.7c-9.6,2.7-15.8,8.8-19.2,18c-0.9,2.5-1.8,5-2.8,7.6c0.9,0.7,1.6,1.4,2.5,1.9
		c5.2,3.2,7.6,8.2,8.6,14c0.3,1.9,1.1,3.7,1.9,5.5c2,4.7,2.5,10-1.4,13.9c-1.2,1.2-2.2,2.5-3.5,3.5c-3.9,2.9-5.8,6.7-6.4,11.4
		c-0.4,3.3-0.9,6.6-1.3,9.9c-0.2,1.6,0,3.3,0,5c2.4,1.1,4.5,2,6.5,3c0.7,4.3-3.4,8.4-0.1,13c6.6-2,13.3-1.6,19.9,0.1
		c6.7,1.7,12.7,4.7,17.6,9.8c6.3,6.4,13.2,12.2,19.3,18.8c5.4,5.8,11.4,10.6,18,14.9c4,2.6,4.8,6.1,1.6,9.6
		c-5.5,6-10.8,12.3-17.1,17.3c-6.4,5.1-10.1,11.8-13.7,18.7c-2.6,5-4.6,10.3-6.7,15.5c-0.9,2.2-2.3,3.2-4.6,2.8
		c-1.1-0.2-2.3-0.3-4-0.6c1.1,4.8,0.3,9.7,3.1,14c1.3,2,2.1,4.5,2.9,6.9c0.7,2.3,1.9,3.4,4.3,3.2c1.3-0.1,2.7,0,4,0
		c34.7,0,69.3,0,104,0c1.7,0,3.4-0.1,5,0.2c0.8,0.1,1.4,1.1,2.1,1.7c-0.7,0.8-1.3,2.1-2.1,2.2c-3,0.3-6,0.2-9,0.2
		c-1.6,0-3.3,0-4.8,0c0.1,7.4,0.8,14.5,0.3,21.5c-1,17.5,1.1,34.9,2.1,52.3c0.5,7.6,1.4,15.2,2.2,22.8c0.2,1.8,0.8,3.5,1.3,5.6
		c4.3,0.2,8.4,0.4,12.5,0.6C613,395,613,396,613,397z M431,256L431,256c-1.9-5.7-3.9-11.6-5.9-17.3c-0.8-2.3-2-4.4-3-6.3
		c-1.7,2.8-3.2,5.3-4.7,7.9c-0.5,0.8-1.1,1.7-1.1,2.6c0.1,6.6-0.1,13.3,4.1,18.9c-4.9,11.3-8,14.3-16.2,13.3
		c-2.2,3.6-4.4,7.4-7.1,11.9c6.6,0,12.4,0,18.2,0c5.3,0,7.3-1.5,9.2-6.9c5.1-0.8,7.1,2.5,8.4,6.9c1.7-0.2,3.2-0.3,5-0.5
		C438.2,275.2,434.2,265.7,431,256z M418,228c-3,2.9-2.1,6.3-1.3,9.7C418.8,234.6,419.8,231.5,418,228c-0.6-0.9-1.8-2.2-1.6-2.7
		c1.9-3.1,0.2-5.7-1.1-8.2c-2.2-4.5-4.5-8.9-7-13.2c-3.7-6.5-2.6-12.4,1.6-18.1c2-2.7,4.1-5.3,5.6-8.2c2.4-4.6,4.2-9.4,6.3-13.9
		c-2.3,0.3-3.9,0.4-5.6,0.6c-1.6,2.1-3.4,4.6-5.2,7.2c2.6,3.6,2.6,6.8-0.3,10.8c-0.9,1.3-2.8,1.9-4.3,2.8c-0.7-1.6-2-3.1-1.9-4.7
		c0.2-3.9,1.8-7.3,4.6-10.2c2.9-2.9,4.6-6.3,5.3-11.2c-4.2-0.3-8.2-0.5-12.1-0.9c-2.7-0.2-4.2,0.8-5.5,3.3
		c-2.3,4.4-4.4,9.1-7.6,12.9c-11.1,13.2-20.5,27.4-29.1,42.3c-2.5,4.4-2.4,5.9,1.3,9.6c5.7,5.8,11.5,11.5,17.4,17.1
		c4.9,4.6,10.1,8.8,15.5,13.5c2.9-6.4,9.7-7.5,15.2-10.8c-2.7-3.3-5.5-6.1-7.5-9.3c-2.7-4.4-5.4-8.7-9.4-12.1
		c-4.8-4.1-9.5-7.9-16.4-5.3c-0.4,0.1-0.9-0.2-1.4-0.3c3.7-4.4,5.4-4.6,12.6-1.6c5.6-3,6-4,3.5-9.7c-0.6-1.4-1.2-2.7-1.7-4.2
		c-3-8.5,2.6-19.9,11.7-23.4c-0.6,3.6-3.5,5.3-5.6,7.5c-6.2,6.4-5.9,17.2,0.8,23.5c1.9-9.4,1.9-9.4,5.2-12.2c3.1,1,5.4,2.9,5.4,6.3
		c0,4.8-2.9,7.9-7.1,9.8c5,5.3,9.7,10.4,14.8,15.7C415.3,230.3,414.6,225.7,418,228z M475,194c-0.8,2.2-1.1,4.6-2.4,6.4
		c-5.9,8.7-6.7,19-9.1,28.8c-0.1,0.6,0,1.3,0.1,2c1.1,6.5,5,11.3,10.3,15.5c6.1-14.6,12-29,18.1-43.7C486.1,201.1,479.7,199,475,194
		c-2.8-1.9-5.6-3.8-8.9-6c1.3-0.2,2.4-0.7,3-0.4c2.6,1.4,5.2,2.9,7.6,4.5c2.9,1.9,5.4,4.6,8.5,6c4.3,2.1,8.7,4.6,14.1,2
		c1.9-0.9,4.6-2.2,7.5-0.5c-1,0.3-1.6,0.5-2.3,0.6c-7.4,1.5-11.9,6-14.3,13.1c-1.4,4.2-3.5,8.2-5.3,12.4c-2.7,6.2-5.2,12.5-6.2,18.7
		c5,3.5,9.4,6.7,13.4,9.5c4-7,8-14.4,12.5-21.6c1.6-2.6,4.3-4.6,6.6-6.7c2.2-2,4.8-3.6,6.8-5.7c3.8-3.9,7.3-8.2,10.9-12.3
		c2.7-3.1,2.4-4.9-1.1-7.1c-4-2.6-8.4-5-11.9-8.2c-8.2-7.5-16.2-15.3-23.8-23.4c-8.5-9.2-19.2-12.1-31.1-11.8
		c-6.3,0.2-10.6,3.8-12.5,9.7c-0.4,1.2-0.8,2.3-1.3,3.9c-2.3-4.5-1.3-7.2,4.4-13.2c-0.2-3.8-0.4-7.4-0.6-11.1
		c-7.7,1.4-15.5,2.8-23.4,4.3c-0.1,0.3-0.4,0.7-0.6,1.2c-0.3,1.1-0.6,2.2-0.9,3.4c-2.8,11.6-7.4,22.4-14.5,32
		c-3.1,4.2-4.5,8.8-1.9,14c4.6,9.2,8.9,18.5,13.4,27.8c8.2,17,14.3,34.7,17.3,53.4c0.2,1.3,0.7,2.5,1,3.6c6.4,1.1,44.3,0.8,48.2-0.5
		c-1.6-3.4-3.3-6.8-5.1-10.6c-3.1,1.9-5.9,3.6-8.6,5.3c-5.9-3.6-8.5-6.5-12.6-12.3c-1.3-1.9-1.6-3.5-0.6-5.5c1.8-3.5,3.4-7.1,5.3-11
		c-2.5-1.3-4.6-3.8-4.1-6.8c0.5-3.5-0.9-6.5-1.5-9.7c-0.5-2.6-1.2-5.4-0.7-7.9c2-9.7,2.7-19.9,8.9-28.3
		C472,197.3,472.1,194.4,475,194z M591.7,291.5c-21.5,0-42.2,0-63.1,0c-0.1,1.3-0.3,2.3-0.2,3.3c0.6,14.8,1.1,29.6,1.9,44.3
		c0.1,2.7,1.3,5.4,1.8,8.1c0.3,1.9,1.2,4.7,0.4,5.5c-3.8,3.7-2.2,7.6-0.8,11.1c3.8,9.4,8.2,18.5,13.9,27c1.5,2.2,3.2,2.9,5.8,2.9
		c13.8-0.1,27.6,0,41.4-0.1c1.3,0,2.5-0.3,3.8-0.5c-1.2-11.6-2.6-22.8-3.5-34c-0.8-11.1-1.2-22.3-1.4-33.4
		C591.5,314.5,591.7,303.2,591.7,291.5z M334.8,393.4c-0.5-5.4-1.2-10.5-1.5-15.6c-0.6-10.3-2-20.7-1.1-30.8
		c1.4-16.6,1.7-33.2,1.7-49.9c0-1.8-0.2-3.5-0.3-5.2c-5.9-1.2-56.5-0.9-60.3,0.2c0,0.9-0.2,1.9,0,2.9c2.1,9,1.9,18.2,1.8,27.3
		c-0.2,21.8-0.3,43.6-0.3,65.5c0,1.9,0.3,3.8,0.5,5.6C295.5,393.4,314.9,393.4,334.8,393.4z M338.4,392.8c3.1,1.5,4.2,0.5,5.3-1.7
		c3-5.8,6.6-11.2,9.3-17.1c4.1-9.1,12.1-16.8,10.8-28c2.4-6.2,4.3-12.6,7.3-18.5c2.1-4.2,5.6-7.8,8.4-11.7
		c5.4-7.2,8.3-15.7,12.7-24.3c-19.1,0-37.3,0-55.2,0c0,13,0.2,25.6-0.1,38.2c-0.2,8.3-1.5,16.6-1.6,24.9c-0.1,7,0.5,13.9,1.1,20.9
		C336.8,381.3,337.7,387,338.4,392.8z M441.7,291.5c-1.3,7.8-2.3,15-3.6,22.2c-2.2,12.6-3.8,16.9-7.2,20.4c3.8-14.2,6.9-28,7.7-42.2
		c-6-1.1-6-1.1-9.6,2.6c-3,3.1-7.6,4.1-9.1-1.5c-0.2-0.6-0.7-1.1-0.9-1.5c-5.2,0-10.1,0-14.9,0c-0.4,16.5-0.9,32.6-1.3,48.8
		c20.5-1.4,40.9-2.7,61.7-4.1c0.9-14.9-0.4-29.7-2.2-44.7C455.1,291.5,448.5,291.5,441.7,291.5z M470.1,393.4
		c0.2-0.6,0.4-0.9,0.4-1.2c-1.9-11.8-3.6-23.6-6-35.3c-0.5-2.4-3-4.7-5.1-6.4c-1.1-0.9-3.3-0.4-5-0.4c-7.6,0.3-15.3,0.6-22.9,0.9
		c-1.2,0.1-2.8,0.1-3.5,0.9c-3.4,3.2-6.4,6.7-9.7,10c-4.1,4.2-7.6,9.2-12.4,12.2c-5.5,3.4-6.2,7.6-5.6,12.9c0.1,1.2,0.4,2.3,0.3,3.5
		c-0.1,0.8-0.7,1.5-1.2,2.7c-3.1-3.1-2.1-6.9-2.9-10.5c-0.9,0.6-1.5,0.9-1.9,1.4c-2.6,3-5.1,6-8,9.4
		C414.8,393.4,442.5,393.4,470.1,393.4z M467.2,339.5c0,4.3,0.1,8.3,0,12.2c-0.1,2.7,0.9,4.6,2.8,6.5c6.2,6.2,12.3,12.6,18.3,19
		c1,1.1,1.7,2.4,2.6,3.6c1.1,1.6,2.3,3.2,3.3,4.9c4.2,7,10.4,8.8,18.1,8c6.2-0.6,12.6-0.1,19-0.1c-0.6-3.8-1.3-7-1.5-10.2
		c-0.5-11.8-1.8-23.4-7.4-34.2c-1.6-3.1-3.5-5-6.9-5.5c-3.9-0.6-7.8-1.5-11.8-2.1C492,339.9,480.1,338.7,467.2,339.5z M453.6,96.6
		c0.8-2.3,2.4-4.5,2-6.3c-1.5-7-5.7-12.1-12.8-13.9c-12.6-3.2-23.8-0.7-32.7,9.2c-2.7,3-5.3,6.3-5,10.9c10-2.5,10.6-2.4,11.7,3
		c-3.3-3.5-6.2-1.2-9.2-0.9c-4.4,0.5-4.9,4-5.9,7.1c-1.3,4.3-2.8,8.7-3.1,13.1c-0.6,9.7,3.9,16.7,12.9,18.7
		c3.5,0.8,7.5,0.9,10.8-0.2c11.9-4,22.5-10,27.3-22.8c0.3-0.8,0.5-1.5,0.8-2.2c7.3-0.7,10.5-7.1,7.5-14.7
		C456.4,97.2,454.9,96.8,453.6,96.6z M465.4,291.2c0.5,8.2,1,15.5,1.3,22.7c0.3,7.4,0.4,14.8,0.7,23c6.9,0,13.4-0.3,19.8,0.1
		c6.4,0.4,12.8,1.5,19.2,2.5c6.2,1,12.4,2.2,19.6,3.5c-3.4-4.8-5.9-8.7-8.7-12.3c-9.2-11.8-18-23.8-24.5-37.4
		c-0.4-0.9-1.7-1.9-2.6-1.9C482.1,291.2,474,291.2,465.4,291.2z M345.4,393.1c1,0.3,1.4,0.5,1.9,0.5c10.6,0,21.3,0.1,31.9-0.1
		c1.6,0,3.5-1,4.7-2.1c3.4-3.2,6.4-6.8,9.7-10c1.7-1.7,2.1-3.5,2.2-5.8c0.4-7.1,1-14.2,1.7-21.3c0.3-3.5,0.7-7.1,1.2-11.4
		c-10.4,1.6-19.8,3-28.7,4.4C361.7,362.8,353.7,377.7,345.4,393.1z M367.3,344.7c10.4-1.4,20.8-2.9,31.1-4.3c2.2-12.4,2.7-41,1-48.5
		c-4.3-0.8-4.6-0.4-6.1,4c-2.8,8.4-6.3,16.3-12.3,23.1C374.6,326.3,368.3,333.9,367.3,344.7z M525.5,291.5c-10.3,0-20.1,0-29.8,0
		c1.8,7.3,26.2,43.6,30.8,46.1C526.2,322.4,525.9,307.2,525.5,291.5z M399.2,375.1c7.2-2.8,30-27,32-34.2
		c-9.7,0.8-19.2,1.7-28.8,2.5C401,354.2,398.8,364.4,399.2,375.1z M498.2,393.4c-9.4-11.7-18.8-22.6-30.1-32
		c2.1,10.6,4.2,21.2,6.3,32C482.4,393.4,490.1,393.4,498.2,393.4z M391.1,218.9c1.8,2,3.4,3.7,4.9,5.4c2.3,2.6,5.1,4.9,6.5,7.9
		c2.6,5.4,6.9,9.1,11.1,14.1c0.6-8.6-1.2-15.6-6.6-21.2c-3.8-3.9-8.2-7.1-12.6-10.7C393.4,215.9,392.4,217.2,391.1,218.9z
		 M445.5,145.1c0-6.5,0-11.7,0-17.4c-3.2,2.3-5.8,4.8-8.9,6.2c-5.6,2.7-6,7.5-6.7,13.6C435.4,146.6,440.4,145.8,445.5,145.1z
		 M431,348.5c9.2,0.9,17.3,0,25.5-1.4c-2.4-6.8-3-7.2-9.2-7.1c-2.8,0.1-5.7-0.1-8.5,0.3c-1.6,0.3-3.3,1.3-4.4,2.5
		C433.1,344.2,432.4,346.2,431,348.5z M543.7,393.5c-3.4-6.3-6.5-11.9-9.5-17.6c-0.4,0.1-0.7,0.3-1.1,0.4c0.6,5.7-1.5,11.7,2.7,17.2
		C538.1,393.5,540.5,393.5,543.7,393.5z M476.6,256.4c-3.7,4.1-7.2,7.9-10.7,11.7c0.5,0.9,0.7,1.6,1.2,2c0.6,0.6,1.3,0.9,1.9,1.3
		C476.5,266.1,479.3,261,476.6,256.4z M464.4,339.8c-2.8,0-5.3,0-8.3,0c2.5,4.2,4.8,7.6,8.3,10.3
		C464.4,346.4,464.4,343.2,464.4,339.8z M399.8,212.3c4.3-2.3,5.3-3.9,5.1-7.3c-0.1-2.5-1.4-3.8-4.1-4.4
		C399.1,204.5,397.4,208.1,399.8,212.3z M418.4,149.8c0,4.4,0,8.3,0,12.6c3.6-2.5,3.8-5.2,2.4-8.6c1,0.9,2,1.8,3.3,2.9
		c0.3-2.1,0.6-4,0.9-6.3C422.6,150.2,420.8,150.1,418.4,149.8z M490.4,260.5c-0.7-6.3-2.5-8.4-7.6-9.3
		C483.5,259.1,483.8,259.5,490.4,260.5z M471.4,252.5c-3.9,3.9-5.9,7.9-6.5,13.8c3.2-3.6,5.7-6.4,8.1-9.2c0.6-0.7,0.9-1.7,1.5-2.8
		C473.4,253.6,472.5,253.1,471.4,252.5z M471.7,273.3c2.5,1.6,2.7,1.6,4.9-0.8c4.5-4.8,5.5-7.8,3.7-10.3
		C477.4,265.9,474.5,269.6,471.7,273.3z M397.7,260.5c4.5-0.2,5.8-1,6.8-3.8c0.9-2.6-0.7-3.5-2.5-4.4
		C397.3,255.9,397.1,256.1,397.7,260.5z M417.1,264.5c0.3-5-2.7-8.2-4-12.4C409.6,255.9,411.1,260.2,417.1,264.5z M406.8,182.8
		c3.7-1.8,5.1-5.5,3.6-9.2C406.3,175.9,405.7,177.5,406.8,182.8z M483.2,267.8c-2.9,3.5-5.2,6.2-8.1,9.5
		C482.1,275.3,483.5,273.7,483.2,267.8z M415,267.2c-2.6-3.9-4.7-7.1-6.9-10.4c0.8,4.1,0.4,8.7,4.9,11.2
		C413.4,268.3,414.5,267.5,415,267.2z M479.3,255.1c0.3-0.2,0.7-0.3,1-0.5c-0.6-2-0.6-4.7-1.9-5.9c-1.7-1.4-3.3,0.5-4.7,2
		C475.8,252.4,477.6,253.7,479.3,255.1z M466.5,242.6c-1.1,3.3-0.6,5.1,1,6.4c0.8,0.6,2.4,0.3,3.6,0.5c0.1-0.4,0.3-0.8,0.4-1.1
		C470.1,246.7,468.7,245.1,466.5,242.6z M423.4,285.4c0.2,0.4,0.3,0.7,0.5,1.1c1.8,0,3.7,0,6.4,0c-0.9-1.8-1.5-2.9-2.3-4.5
		C426.1,283.4,424.7,284.4,423.4,285.4z M406.1,262.7c-0.6,5.4,1.6,8.9,5,8C409.5,268.1,407.8,265.4,406.1,262.7z"/>
	<path d="M169.1,714.9c-8.8,3.1-16.3,0.9-22.7-5.7c-4.3-4.4-9-8.3-10.9-14.6c-0.6-1.9-3.2-3.1-4.5-5.4c2.7,1.1,5.4,2.1,8.1,3.2
		c7.3,2.9,9.9,2.5,14.1-3.6c3.4-4.9,1.4-12.5-2.4-17c-5.5-6.3-12.6-9.6-19.8-13.1c-4-2-7.9-4.3-11.6-6.7
		c-14.9-9.5-20.6-31.7-11.6-47.9c2.8-5.1,7.4-8,11.7-11.4c1.9-1.5,4-2.9,5.9-4.2c-0.8-2.3-1.6-4.1-2.1-6c-0.7-2.9-2-5-5.2-6
		c-3.4-1.1-5.4-3.8-5.8-7.5c-0.9-7.4,0-14.1,6.6-19.2c2.1-1.7,3.3-5.3,3.8-8.3c0.6-4.4,0.2-8.9,0.2-13.4c-3.3-0.8-6.3-1.7-9.4-2.3
		c-3.5-0.7-5.5-2.8-7-5.8c-0.8-1.6-1.8-3.3-2.2-5c-1.1-4.2-2.5-8.1-5.8-11.2c-3-2.8-2.5-6.3-1.2-9.7c4.6-4.2,6.6-10.1,9.6-15.1
		c-1.7-2.1-3.2-4-4.6-5.9c1.9,1.2,3.8,2.4,6.3,3.9c1.7-3,3.3-5.6,4.8-8.3c-4.5-1.6-8.5,0.2-11.1,4.5c-2.4,0.3-3,2.3-3.8,4.1
		c-2.6,5.5-2.3,11.2-1.2,16.9c-3.1-3.1-3.6-6.8-2.8-10.9c0.5-2.4,1.2-4.8,1.8-7.1c2.9-4.2,6-8.1,11.1-9.8c0.4-0.1,0.7-0.6,1.1-0.9
		c-0.8-1.1-1.5-2.2-2.2-3.2c6.6,3.2,12.5,1.4,18.1-2.3c4.6,1.7,9.2,3.4,13.9,0.3c1.5,3.2,3.4,3.7,9.2,1.9c-1.2-2.3-2.3-4.5-3.6-6.9
		c-2.2,2-3.9,3.5-5.6,5c0.8-1.7,1.5-3.5,2.4-5.2c1.3-2.5,1.1-5.2-0.9-7.1c-2.1-1.9-3.8-1.8-6.7,0.6c-0.3-0.6-0.6-1.6-0.9-1.6
		c-5.7-0.7-11.5-1.3-16.9,1.3c-5-1.5-14.8,1.7-17.5,5.7c-0.3,0.4-0.2,0.9-0.4,1.4c-3.9,0.7-4.6,3.8-5,6.9c-0.8,5.2,1.8,9.5,4,13.9
		c-2.9-0.2-3.6-2.7-4.6-4.7c-3.6-7.5-2.1-14.4,4.4-19.4c3.4-2.6,4.2-6.5,5.9-10c2.6-3.2,5.2-6.5,7.8-9.7c0.3,0.2,0.6,0.4,1,0.6
		c-2,3.3-3.9,6.6-6.1,10.1c3.5,4.7,8,1.4,11.8,1.5c3.2,0.1,5.5-1.8,5.8-3.8c-2.9-3.5-5.1-6.1-7.4-8.7c3,1.7,5.9,3.5,9.1,5.3
		c1.6-2.1,3.2-4.1,4.7-6.1c-0.2-0.4-0.3-0.8-0.5-1.2c-4.7,0.3-9.4,0.7-14.1,1c-4.4,0.7-8.9,1.3-13.2,2.3c-1.4,0.3-2.5,1.8-3.8,2.7
		c-4.1-1.4-6.3,2-9.6,3.6c-5.1-3.2-6.8-8.2-6.6-14c0.1-3.8-0.2-7.1-2.6-10.6c-3.1-4.5-2.6-9.8,0.2-14.6c-5.5-5.8-7.8-12.4-6-20.2
		c0.2-1-0.1-2.4-0.7-3.2c-3.1-4.4-2.8-9.2-1.5-13.9c0.7-2.7,0.2-4.6-1.1-7c-1.8-3.3-4.5-7.4-3.8-10.5c1.2-5.7,0.1-10.5-1.2-15.8
		c-0.6-2.5,0.5-5.5,0.9-9.1c-0.4-0.6-1.7-1.8-2.3-3.3c-1.2-2.7-2.5-5.5-2.8-8.4c-0.5-5,1.8-7.7,6.6-9.1c2.4-0.7,4.7-1.4,7.1-2.2
		c-0.1-1.4,0.1-2.4-0.2-3.3c-4-11.7-3.1-23.7-1.9-35.6c0.9-9.6,2.4-19.1,3.2-28.7c0.5-6.1-0.2-6.8-5.8-8.9
		c-5.1-1.9-7.5-5.2-7.2-10.6c0.1-1.3,0.4-2.9-0.2-3.9c-2.7-5-2-10.2-1.9-15.5c0.1-5.9-0.7-11.9-1.1-17.9c0-0.3-0.2-0.6-0.2-1
		c-0.4-1.9,0.4-3.5,2.2-3.9c2.2-0.4,3.3,1.1,3.6,3.2c0.7,4.6,1.4,9.2,2.2,13.8c0.7,3.6,1.6,7.1,2.6,11.1c3.5-2,5-4.4,5-7.8
		c0-4.2-0.1-8.3,0-12.5c0.2-6.2,0.8-7,6.6-8.9c2-0.7,4-1.4,6.1-2.1c-0.8-6.1-1.8-11.8,0.8-17.4c0.4-0.9-0.4-2.5-0.8-3.8
		c-1.8-6.3-2.8-12.7,0-19.4c-3.5-6.8-3.8-14.3-1.4-22.3C82,97,81.5,91.1,83.4,84.9c1-3.4,1.6-6.6-0.8-9.9c-1.3-1.9-1.4-4.7-1.9-7.2
		c-1.4-6.6-0.8-13.4-2.6-20.1c-0.9-3.3,0.5-7.6,1.5-11.2c0.8-2.8,0.6-5-0.3-7.6c-1.2-3.4-1.7-7-2.5-10.6c-0.1-0.5-0.2-1.1,0-1.5
		c2.4-5,2.9-10.5,4.2-15.8c0.3,0,0.7,0,1,0c0.3,2.7,0.7,5.3,1,8c0.1,0.9-0.1,2.1,0.4,2.6c1.9,1.8,4,3.3,6.6,5.3
		c1.2-1.5,2.2-2.8,3.3-4c1-1.2,2.2-2.3,3.2-3.4c-3.7-4.4-3.7-4.3-8-2.6C86.7,7.6,84.8,8.3,83,9c2.3-1.7,4.6-3.3,7.1-5.1
		c-1.4-1-2.7-2-4.1-2.9c1,0,2,0,3,0c1.3,0.9,2.6,2,4,2.5c2.9,1,4.7,0.2,6-2.5c0.3,0,0.7,0,1,0c1.8,2.5,0.9,5.2,0,7.6
		c-0.9,2.4-0.7,4.4,0.5,6.6c2.8,5.2,3.6,10.7,1.6,16.4c-0.8,2.2-0.8,4.1,0.3,6.2c2.3,4.4,2.4,9,0,13.4c-1.1,1.9-0.9,3.5,0,5.6
		c2.9,7.1,5.4,14.4,2.4,22.2c-0.4,1.1-0.2,2.7,0.4,3.7c3.3,5.9,3.6,12.1,1.9,18.4c-0.6,2.5-0.3,4.4,0.7,6.6c2.7,5.9,4.1,12,1,18.3
		c-0.4,0.9-0.3,2.4,0.2,3.3c3,5.7,3,11.5,0.7,17.2c4.5,8,4.5,8,1.5,19.7c5,0,10.1-2.6,15,0.5c0,2.4,0,4.7,0,7c0,6.3-2,11.1-8.8,12.7
		c-3.4,0.8-4.1,2.9-4.1,6.2c0,8-0.6,15.9-0.9,23.9c-0.7,15.3,1.5,30.2,6.4,44.7c1.9,5.5,3,11.5,5.9,16.4c2.6,4.4,2.4,9.3,4.5,13.7
		c1.1,2.3,2.4,3.7,4.9,4.4c5.1,1.4,10.2,3,15.2,4.8c2.3,0.8,4.4,2.3,6.5,3.7c1,0.7,1,1.7-0.6,1.9c-3.1-2-6.2-4.1-10.2-4.7
		c0.3,0.9,0.4,1.4,0.5,1.9c-1.3-0.8-2.6-1.6-4.5-2.8c-1.9,1.1-4.4,2.6-7.4,4.4c4,3.5,7.3,6.4,11.1,9.8c1.7-1.8,3-3.2,4.2-4.4
		c-0.8-2.2-1.3-3.7-1.8-5.3c1.3,1,2.6,2,3.9,3c1.5-0.7,2.8-1.2,4.2-1.8c-0.8,1.4-1.6,2.8-2.5,4.5c2.1,2.7,4.3,5.5,6.9,8.8
		c1.2-4.5,0.6-8.1-2.4-11.3c2.9-0.1,4.1,1.2,4.6,3.3c0.3,1.3,0.7,2.7,0.6,3.9c-0.8,5.6-0.5,10.9,4,15.1c0.4,0.4,0.7,1.2,0.8,1.8
		c1.1,5,2.1,10.1,3.6,15.1c1.5,5.1-1.5,9.6-6.6,11.8c0.5-1,0.7-2.3,1.5-3.1c5.7-5.6,2.6-12.9-3.3-16.1c-8.6-4.7-17.3-8.5-27.4-7.9
		c-3.1,0.2-6.3,0.1-9.5,0.3c-1.2,0.1-2.4,0.4-4.7,0.8c4.1,3.2,7.3,5.7,10.6,8.2c2.8-1.9,5.2-3.5,7.5-5.1c0.3,0.4,0.7,0.8,1,1.2
		c-2.1,1.5-4.3,3-6.5,4.5c4.5,3.8,8.1,6.9,11.7,10c0,0,0,0,0,0c1.7,0.6,3.5,1,5.2,1.8c4.4,2.2,9.9,1.6,13.8,5.2
		c3,5.6,3.2,8.8,0.8,11.7c-0.5-2.9-0.8-6.1-1.8-9.1c-0.5-1.8-2.3-3.2-4.3-2c-1.8,1-3.1,2.7-4.8,3.9c-1.6,1.2-3.4,2.1-5,3.5
		c6.4,1.2,12.2,2.9,16.7,7.5c3.5,3.6,4.9,7.9,3.9,12.7c-0.3,1.6-1.6,3-3.1,4.3c2.5-7.5,1.9-13.7-5.6-18.2c-2.2,1.7-4.4,3.4-6.8,5.3
		c3.1,4.2,6,8.1,8.8,11.9c-0.3,0.2-0.6,0.5-0.9,0.7c-3-3.5-6-7.1-9.4-11.1c-1.9,2.2-3.5,4.1-5.6,6.6c1.8,0.6,2.8,0.8,3.8,1.2
		c4.4,1.8,9,3.3,13.2,5.5c5.1,2.7,7.3,9.9,4.9,14.7c-1,2-2.3,3.7-4.8,3.8c0.5-0.8,1-1.7,1.5-2.6c-2.2-2.5-4.3-5-6.4-7.4
		c2.5,1.7,5,3.4,7.6,5.1c2.3-5.1,0.6-9.6-5-11.9c-0.9,2.3-1.7,4.5-2.5,6.7c-1.6,2-3.1,4-5.1,6.5c3.9,1.4,7,2.4,10.1,3.5
		c3.6,4.2,4.8,8.9,3.4,14.3c-0.6,2.2-0.9,4.5-1.4,6.8c-3.2-2-4.9,0.1-6.4,2.5c-1.5,2.3-3,4.7-4.5,7c-0.3-0.2-0.6-0.4-0.9-0.6
		c0.7-1.8,1.4-3.6,2.3-5.6c-1.2-1.6-2.4-3.5-3.9-4.9c-0.7-0.6-3.2-0.7-3.3-0.4c-1.4,3.1-4.6,5.6-3.1,9.7c-2.6-0.6-3.9,0.3-4.2,3.3
		c9.6-0.8,18.6,1.4,27.2,4.8c2.7-4.2,1.6-7.7-0.2-11.2c-0.8-1.6-1.9-3.1-2.9-4.6c5.7,3.1,8.1,10.3,5.4,16.3
		c-0.6,1.3-1.3,2.8-1.1,4.1c1.1,8.7,0.9,10.2-2.5,17.3c1.9,5.6,3.8,11.3,5.6,17c1.8,5.7-0.6,10.7-6,13.3c-1.8,0.9-3.6,1.7-5.5,2.4
		c-1.9,0.6-3.8,1-6.2,1.6c-0.5,7.5-1.8,14.8-10,19c0.9,0.2,1.8,0.6,2.7,0.4c13-2.4,18.1,4.2,19.9,15c0.6,3.8,0.5,7.6,0.8,11.4
		c0.4,4,0.9,7.9,1.3,11.9c0.1,0.6,0.4,1.5,0.2,1.9c-3.1,4.6-0.2,9,0,13.4c6.4,4.7,12.8,9.2,11.8,18.4c-0.5,4.7-5.1,10.4-10.4,12.4
		c0.1-1.5,0.4-2.7,0.4-3.9c0-1.9,0.2-4-0.4-5.8c-1-2.9-2.9-3.4-5.5-1.8c-4.8,2.9-9.7,4.3-15.2,2.1c-1.2-0.5-2.6-0.1-4-0.2
		c-4.2-0.5-8.4-1-13.6-1.7c-2.7,1.9-2.9,2.4-1.5,6.1c2.1,5.3,6,9.2,10.1,12.8c6.7,5.9,13.5,11.9,20.3,17.7
		c6.3,5.3,10.8,11.8,13.7,19.4c3.3,8.9,6.7,17.7,8.3,27.1c2,11.4-0.6,21.1-9.3,29c-1.5,1.3-2.8,2.9-4.1,4.3
		C170.5,714.2,169.8,714.5,169.1,714.9z M153,468c-1.1-0.2-3.2-0.6-3.2-0.4c-0.5,1.4-1.3,3.3-0.7,4.4c1.5,2.6,4,4.3,7.4,4
		C155.3,473.2,154.1,470.6,153,468c1.9,2.1,3.9,4.2,6.2,6.7c1-1.4,1.8-2.6,2.8-4.2C158.6,469.5,156.6,466.3,153,468z M146,355.9
		c-0.9-0.1-2.3-0.6-2.7-0.2c-2.2,2.3-4.2,4.8-6.3,7.2c-2.1,1.2-4.1,2.3-6.2,3.5c0.1,0.3,0.3,0.6,0.4,0.9c2.8-0.2,5.7-0.4,8.8-0.6
		c-1.2-1.5-2.1-2.6-2.9-3.7c1.6,0.8,3.2,1.6,4.7,2.5c1.6,1,3.4,2.4,4.9,0.8c1.6-1.9,5.4-2.6,4.2-6.4c2.7,0.8,4.6-0.2,6.6-2.9
		C153.2,356.6,149.6,356.3,146,355.9z M147,426c3.5-0.3,5.8-3.2,4.5-6.2c-1.6-3.4-3.6-6.5-5.7-10.1c-3.6,2.5-3.7,6.1-5.1,8.9
		C142.9,421.3,145,423.7,147,426c-2.4-1.5-4.9-3-7.8-4.7c-0.9,1.7-1.7,3.3-3.1,6C140.6,426.8,143.8,426.4,147,426z M74,360.1
		c-0.6,0.7-1.7,1.3-1.7,2c-0.2,5.6-2,11.5,3.9,16.5c2.3-3,4.6-5.7,6.5-8.7c0.5-0.7,0-2.1-0.1-3.2c4.8-0.7,6-4.8,8.3-7.9
		C86.8,355.1,79.3,355.9,74,360.1z M88,103c-0.7-3.1,1-5.4,2.8-7.6c1.6-1.9,3.2-3.7,5.3-6c-3-2.9-5.8-5.6-9.1-8.8
		C84.6,88.9,83.6,96.1,88,103c2.1,3,4.9,5.2,8.4,6.7c2.1-2.5,4-4.8,5.7-6.8c-1.9-3.7-3.5-7-5.3-10.6c-0.8,0.9-1.5,1.5-2.1,2.3
		C92.4,97.4,90.2,100.2,88,103z M106,489c-7,2.6-9.4,7.3-6.9,12.9c4.4-0.9,8.8-1.6,13.1-2.6c1.7-0.4,3.2-1.5,4.8-2.3
		c2.1-0.1,4.2-0.1,6.3-0.4c4.1-0.5,8.2-1.6,12.3-1.7c3.3-0.1,5.3-1.1,6.4-4.2c1.2-3.3,2.7-6.4,4.1-9.6c0.4,0.2,0.8,0.3,1.3,0.5
		c-1.5,4-2.9,8-4.6,12.4c3.5,0,6.5,0.2,9.5-0.1c1.5-0.1,3.5-0.8,4.2-1.9c2.2-3.4,3.9-7.1,6.1-11.2c-3.8-1-7.2-1.9-10.5-2.8
		c-3.1-0.8-6.2-1.3-9,0.7c-3.1-2.9-6.1-0.2-9.1,0.3c-2.8,0.6-5.7,1.2-8.5,1.8c0.2,1.6,0.3,2.4,0.5,3.2c-3.6-2.4-6.8-1-10,1
		C112.3,485.2,108.8,486.3,106,489z M154,449c-5.1-5.4-5.8-2.5-9.2,3.6c1.3,3,2.4,5.9,3.7,8.7c1.3,2.8,3.4,3.1,5.2,0.6
		c1.4-1.8,2.5-3.8,3.7-5.5C156.2,453.7,155.1,451.3,154,449c1.6,1.7,3.3,3.5,4.9,5.1c1.6-1.6,3.1-3.2,4.9-5
		c-2.3-0.6-4.5-1.3-6.8-1.8C155.6,447.1,154.4,447.3,154,449z M96.3,51.2c-1.9-1.4-3.8-2.9-5.8-4.3c-8.3,8.1-8.3,9.9,0.7,16.5
		c0.2,0.2,0.6,0.1,1.2,0.1c2.1-2.9,5.6-5.1,5.6-9.4c4.8-5.7,5.1-11.1,0.7-16.8c-2.2,2.5-4.3,4.9-6.6,7.5
		C93.6,47.1,95,49.1,96.3,51.2z M88,400c-4.4-0.9-7.8,0.3-8.6,3.6c-1.1,4.9-1.1,9.9,3.7,14.4c3.6-4.7,7-9.2,10.6-13.7
		C91.4,402.5,89.7,401.3,88,400c2.1,0.6,4.3,1.2,6.5,1.9c3.3-3.5,3.3-3.5,3.4-7.9c-3.8,1-7.5,2-11.4,3C87.3,398.6,87.7,399.3,88,400
		z M118,467c-3.6,2-7.7,9.7-7.1,13.4c-3.4-0.2-4,2.6-5.6,5.5c5.3-1.9,9.8-3.5,14.3-5c3.6-1.2,5.8-3.5,6.8-6.7
		C123.4,471.6,120.7,469.3,118,467c3.3,1.7,6.6,3.4,10.4,5.3c1.8-3,3.4-5.5,5-8.1c-0.2-0.4-0.5-0.8-0.7-1.2
		c-4.1,0.4-8.2,0.7-12.2,1.4C119.5,464.6,118.8,466.1,118,467z M112,414c-1-0.5-1.9-1.1-3-1.7c-1.7,2.4-3.4,4.7-5,6.9
		c-1.6,2.3-3.2,4.5-5.2,7.4c2,1.3,3.5,3.1,5,3.1c2.9-0.1,6.4,0.3,8.5-2.8c1.4-2,2.7-4.1,3.9-5.9C114.7,418.5,113.4,416.3,112,414
		c1.8,1.4,3.6,2.8,5.7,4.4c1.6-2.7,3-5.1,5.1-8.6c-4.4,0.7-7.6,1.2-10.8,1.7C112,412.7,112,413.3,112,414z M99,370
		c0.7,0.6,1.4,1.8,2.1,1.7c5.3-0.3,10.7-0.6,16.6-2.5c-3.7-2.4-6.7-4.4-9.7-6.3c-1.8,1.6-3.1,3-4.5,4.1C102,368.1,100.5,369,99,370
		c2.3-2.8,4.5-5.5,7.4-9c-5.8-1-8.8-7.5-15.5-5.3c0.8,1.2,1.5,2.2,2.3,3.3c-1.2,1.7-2.2,3.2-3.2,4.7c-1,1.4-1.9,2.9-2.9,4.3
		C93.6,374,93.6,374,99,370z M108,326c1,0.8,2.2,1.4,3,2.3c3.1,3.1,4.8,3.4,8.1,0.7c2.1-1.6,4-3.4,6.2-5.3c-2-1.7-3.9-3.3-5.7-4.9
		c0.2-0.2,0.4-0.5,0.6-0.7c2.5,1.5,4.9,3,7.4,4.5c2.2-1.4,4.2-2.6,6.7-4.1c-6.9-1.9-13.3-1.4-19.7-1.2c-0.7,0-1.7,0.6-2.1,1.2
		C111,320.9,109.5,323.5,108,326c-3.1,0.5-4,3-5.3,6c2.9-0.4,5.2-0.7,7.9-1C109.5,328.9,108.7,327.4,108,326z M75,334
		c0.4,0.5,0.9,1.4,1.2,1.4c5.2-0.7,10.4-1.6,15.6-2.5c-2.3-2.3-4.7-3.6-6.9-4.9c-2.1-1.3-3.6-0.6-5.1,1.1
		C78.3,330.9,76.6,332.4,75,334c1.3-2.6,2.6-5.2,4-8c-1.2-1.7-4.9-1.7-4.8-5.4c2.6,1.5,4.9,2.7,7.4,4.1c2.6-2.4,5.1-4.6,8.2-7.4
		c-3.3,0-5.4-0.1-7.5,0c-1.3,0.1-2.6,0.3-3.9,0.6c-14,2.7-13.8,10-9.9,18.9c0.1,0.2,0.5,0.4,1.3,0.9C71.3,336.5,73.2,335.3,75,334z
		 M113.1,348c1.6,0.8,3.3,1.5,4.7,2.5c2.2,1.5,3.9,1.3,5.6-0.7c2-2.4,4.1-4.7,6.1-7c-3.3-2.9-6.4-5.6-9.5-8.3
		c-1.4-1.2-2.9-1.9-4.4-0.4c-2.8,2.7-5.5,5.5-8.2,8.2C109.6,344.5,111.3,346.2,113.1,348c-2.4-1.2-4.7-2.4-7.3-3.6
		c-2,2.3-3.9,4.6-6.2,7.3c5.9,0,11,0,16.3,0C114.8,350.3,113.9,349.2,113.1,348z M99.7,337.9c1.9,0.9,3.8,1.9,6.2,3
		c2-2.6,4-5.3,5.5-7.2c-2.3,0.1-5.8,0.4-9.2,0.5c-2.1,0.1-3.1,0.8-3,3c-1-0.6-1.9-1.4-3-1.8c-2.7-0.9-6.1-0.2-7.2,1.8
		c-2.3,4.2-4.5,8.4-6.7,12.6c1.1,1.2,1.9,2.2,2.8,3.2c-2-0.2-3.9-0.5-6.1-0.8c2.9-5.2,5.7-10.2,9.1-16.3c-6.2,1.1-11.1,1.6-15.9,2.8
		c-4.2,1-5,2.5-5,6.8c0.1,4.9,2.8,8.5,5.1,12.2c4.7-1.7,8.7-3.2,12.7-4.7c3.4-0.1,6.8-0.1,10.3-0.4c0.9-0.1,1.9-0.6,2.5-1.3
		c2.1-2.7,4.1-5.5,6.1-8.3C102.3,341.1,101,339.5,99.7,337.9z M123.1,298.2c-8.1-3.5-6.2-2.8-13.6,4.5c2.1,2.4,4.2,4.8,6.3,7.1
		c-0.2,0.2-0.5,0.4-0.7,0.7c-2.4-2-4.8-4-7.4-6.1c-2.8,3.6-5.3,6.8-8,10.3c5.3,0,10,0.1,14.6,0c1.1,0,2.4-0.3,3.2-1
		c4-2.9,7.9-6,11.8-9c-1-1.4-1.8-2.7-2.6-3.9c4,2.5,7.6,1.9,11.2-1.8c-4.8-0.9-9.2-1.8-13.8-2.6C122.8,296,122.8,297.1,123.1,298.2z
		 M124,392c-6.9,0.5-13.8,0.9-20.7,1.7c-1.3,0.2-2.8,1.7-3.6,3c-1.3,2.1-2,4.5-2.9,6.7c6.2,9.2,18.1,8.3,21.3-2.8
		c-3.8-1.8-7.6-3.5-11.4-5.3c0.1-0.3,0.3-0.6,0.4-1c4.2,1.6,8.4,3.2,12.9,4.9C121.5,396.5,122.7,394.2,124,392
		c0.5,6.3-4.9,10.1-7.3,15.8c5.3-0.3,9.9-1,14.6-0.9c4,0.1,6.2-1.5,7.4-5.3c-2.5-2.8-6.9-3.4-8.4-7.2c3.3,1.9,6.5,3.7,10.1,5.8
		c1.9-3.3,3.6-6.1,5.2-8.8c0.3,0.1,0.7,0.3,1,0.5c-1.3,2.9-2.6,5.8-3.9,8.8c3,2.6,5.8,5.1,9.1,8c3-5.2,5.7-9.8,8.3-14.2
		C155.6,389.1,132.9,388,124,392z M126,525c-0.6,0.9-1.1,1.7-1.6,2.5c5.2-1.2,10.2-2.4,15.6-3.7c-3-3.3-2.5-6.5,0-9.6
		c-2.9-4.1-3-8,0.6-11.3c-1.5-2-2.8-3.7-4.3-5.7c-0.7,0.5-1.8,0.9-2.1,1.6c-0.6,1.5-0.8,3.2-1.1,4.8c-1.3,6.1-2.5,12.3-3.9,18.4
		C128.9,523.4,128.4,525.3,126,525c3.1-8.8,4.6-17.9,5.5-27.6c-5.7,1.2-10.9,2.2-16.1,3.3c-2.8,0.5-5.6,0.9-8.3,1.5
		c-2.5,0.5-3.3,2.2-2.7,4.5c1.1,4,2.1,8.1,3.8,11.8c1.8,4,5,6.5,9.8,6.4C120.6,524.9,123.3,525,126,525z M150,376
		c-2.3-1.7-4.6-3.3-7-5l0,0c-1.8-2.1-4.2-1.7-6.5-1.4c-3.9,0.5-7.8,1.4-11.8,1.9c-12.2,1.6-24.4,2.8-36.5,4.9
		c-4.2,0.7-8.1,3.4-12.1,5.4c-0.9,0.4-1.6,1.7-1.8,2.8c-1.2,4.9,1.8,11.3,6.6,14.3c5.2-4.9,12-6.8,19-7.2c4.6-0.3,7.9-1.8,10.1-5.8
		c0.6-1,1.1-2.1,1.9-2.9c2.5-2.7,4.3-6.2,8.6-7.9c-2,3.1-3.5,5.7-5.3,8.1c-1.8,2.3-3.9,4.4-5.9,6.6c1.4,0.8,2.2,0.7,3,0.6
		c9.7-1.1,19.5-2.2,29.2-3.5c1.7-0.2,4.1-0.7,4.7-1.9C147.7,382.2,151.8,380.3,150,376c3.9,0.9,6.5-0.9,8.7-4
		c-7.8-2.1-8.8-2.2-12.6-1C147.3,372.7,148.7,374.3,150,376z M105,170c0.1-0.3,0.1-0.7,0.3-0.9c4.8-3.5,5.2-8.8,5.6-14
		c0.2-2.4-0.8-4.5-3.7-5.7c-2.5,1.4-5.1,2.9-7.6,4.4c1.3,4,4.4,6.5,4.1,11.4c-2-3.4-3.5-5.9-5.3-8.9c-2.5,2.8-4.6,5.2-7.2,8.1
		C96.9,165.2,102.7,163.7,105,170c0.5,2.1,1,4.2,1.4,6.3c1,4.8,0.9,5.2-3.6,7c-5.2,2.1-8.4,7.8-7.7,13.4c1.1,9.1,2.4,18.1,2.8,27.3
		c0.5,11,0.9,22,3.4,32.7c1.9,8,4.4,15.9,6.5,23.6c5.4-0.7,9.9-1.3,14.8-2c-0.5-1.2-0.9-2-1.2-2.9c-7.7-18.1-12.6-36.8-11.5-56.7
		c0.3-5.3,0.7-10.6,0.9-15.9c0.1-3.5,0.1-7,0.1-10.5c0-5.5,0.1-5.7,5.1-7.8c1.8-0.8,3.7-1.5,5.5-2.5c0.9-0.5,2-1.6,2.1-2.5
		c0.2-3.6,0.1-7.2,0.1-10.8c-4.6-1-8.5-0.6-12.4,0.3C109.2,169.4,107.1,169.7,105,170z M132.6,594.8c-2.1-1.6-3.9-3-6.1-4.6
		c-4.6,3.9-9.8,7-13.3,11.5c-7.4,9.7-8.3,20.8-4.2,32.2c3.6,10.1,11.3,16.3,20.6,20.6c8.6,3.9,16.6,8.3,22.9,15.5
		c4.5,5.2,6.2,11.7,3.7,18c-2.6,6.4-7.7,9.2-14.4,7.8c-1.4-0.3-2.8-0.7-4.2-1c-0.2,0.3-0.4,0.6-0.6,0.9c5.3,6.5,10,13.6,18.1,17.1
		c6.3,2.7,12.5,1.3,17.3-3.9c1.5-1.6,2.7-3.4,4.2-4.9c5.5-5.7,6-12.5,5.5-19.9c-0.6-9.3-4.2-17.8-7-26.5c-2-6.2-4.8-12.1-9.7-16.7
		c-7.3-6.8-14.7-13.5-22.2-20.1c-5-4.4-10.1-8.7-13-14.9C128,600.7,128.2,599.3,132.6,594.8z M104.6,277.7c-0.2-0.8-0.3-2.1-0.8-3.3
		c-5.3-13.5-6.7-27.9-7.7-42.1c-0.9-12.3-1.3-24.6-3.5-36.7c-0.6-3.4,0.3-6.3,2.7-8.7c2.6-2.7,5.5-5.2,9-8.5c-0.7-2.4-1.5-5.8-2.7-9
		c-0.4-1-1.9-2-3-2.1c-3.5-0.2-7.2-0.8-10.4,0.2c-14.6,4.3-12.3,1.3-12,15.1c0.2,8-1.9,14.1-8.6,19c-6.1,4.5-4.4,14.5,2.5,17.3
		c5.9,2.4,7.7,5.4,7,12.7c-1,9.6-2.2,19.1-3.4,28.7c-1,8.3-0.5,16.5-0.2,24.4C84,282.4,94.1,280.1,104.6,277.7z M117.4,556
		c-0.4,0-0.9,0.1-1.3,0.1c-0.3,3.4-0.8,6.8-0.8,10.2c0.2,6,2.6,8.1,9.4,8.5c-0.9-1.7-1.8-3.2-2.6-4.8c5.9-1.7,10.1,1.4,12.1,8.5
		c5.3,2.3,12.9-0.7,16.4,8.5c3-9.1,10.6-7.5,17-10.1c-1.3-2.5-2-4.7-3.4-6.4c-1.9-2.4-1.2-3.7,1.5-4.7c-5.1-2.8-6.1-5.5-2.8-7.4
		c3.1-1.8,2.9-4,2.8-6.7c-0.1-2,0-4-0.1-5.9c-0.3-6.2-1-12.4-5.6-17.1c-1.1-1.1-2.6-2.2-4.1-2.5c-4.9-0.7-9.6-0.4-13.8,2.6
		c-7.6,5.6-14,12.3-18.2,20.9c-1.4,2.9-2.6,6-4.2,9.5C118.6,557.9,118,556.9,117.4,556z M124.6,580.1c3.2,11.6,12.8,18.2,25.6,17.2
		c0.5,0,1-0.1,1.5,0.1c5.3,2.2,9.9,0.9,14.5-2.3c2.8-1.9,5.4-0.9,6.8,2.3c0.9,2,1.3,4.2,2,6.7c1.1-1.6,2.2-2.9,3-4.2
		c3.2-5.1,2.2-10.2-2-14.4c-6.4-6.4-19.9-5.5-23.4,3.2c-0.3,0.7-1,1.1-1.5,1.7c-0.7-0.4-1.4-0.5-1.6-0.9c-2.1-5.1-6.1-6.8-11.4-7
		c-3.3-0.1-5.9-1.6-6.7-5.5c-0.4-1.8-2.4-3.2-3.7-4.9C126.7,575,125.8,577.2,124.6,580.1z M110.5,293.5c-1.1-2.9-2.1-5.4-3.1-7.8
		c-1.6-3.9-3-4.8-7.2-4.3c-2.5,0.3-5,0.5-7.4,0.9c-6.4,1-12.5,3.3-18.1,6.1c0,9.1,1.1,10,9.5,8.8C92.6,296,101.2,294.8,110.5,293.5z
		 M141.2,355.5c-0.2-0.5-0.5-0.9-0.7-1.4c-5,0-9.9-0.1-14.9,0c-2.7,0.1-5.7-0.1-7.9,1c-2.9,1.5-5.2,4.2-8,6.5
		c2.5,1.8,4.5,3.3,6.5,4.7c4.9,3.5,9.3,3.2,13.7-1c1.6-1.5,2.7-3.6,4.3-5C136.5,358.5,138.9,357.1,141.2,355.5z M82.6,304.7
		c2.9,3,5.4,5.8,8.2,8.5c2.5,2.4,5.6,2.3,7.8-0.3c2.6-3.2,5-6.5,7.6-10.1c-2.7-2-4.9-3.7-7-5.3c-4.5,0.7-9,1.4-13.2,2.1
		C84.8,301.3,83.8,302.8,82.6,304.7z M67.5,319.7c7.1-2.8,7.7-10.3,12.1-14.7c-1.3-2.8-2.4-5.4-5.8-4.7c-4.2,0.8-9.3,0.8-11.1,5.3
		C60.6,311,63.3,315.6,67.5,319.7z M121.4,313.5c0.8,0.6,1,1,1.3,1c11.6,0.4,22.7,2.8,32.9,8.6c0.7,0.4,1.9,0.1,2.9,0.1
		c0.2-0.4,0.4-0.8,0.6-1.1c-2.7-3.6-5.4-7.2-8.2-10.8c-2.9,1.9-5.3,3.5-7.3,4.8c-4.2-3.7-7.7-6.8-11.7-10.3
		C128.2,308.5,124.9,310.9,121.4,313.5z M90.9,42.4c1.7-1.8,3.3-3.4,4.8-5.2c2.8-3.4,3-4.8,0.5-8.5c-1.9-2.9-4.3-5.4-6.4-8
		c-0.6,0.2-1,0.3-1.2,0.5c-1.4,1.4-2.8,2.8-4.2,4.2c-2.8,2.9-3.1,5.3-0.8,8.3C85.8,36.6,88.3,39.3,90.9,42.4z M120,420
		c1,1,1.8,2.1,2.7,2.9c8.1,6.8,10.3,6.4,14.4-2.9c0.1-0.3,0-0.6,0-1c-2.1-2.5-4.3-4.9-6.4-7.5c-1.7-2.1-3.6-2.8-5.8-1.7
		C123.2,413.3,121.7,416.6,120,420z M104.6,324.8c-8.2-12-12.8-8.6-19.5,0.7c1.9,1.1,3.9,1.9,5.6,3.2
		C98.4,335.3,100.9,332,104.6,324.8z M127.3,293.7c-1-3.5-1.7-6.6-2.8-9.7c-0.3-0.9-1.5-2-2.4-2.2c-4.4-1-8.8-1-13.1,1.9
		c1.6,3.5,3.1,6.8,4.6,10C118.3,293.7,122.6,293.7,127.3,293.7z M96.9,426.7c-3.3-3-6.7-6.1-10.4-9.5c-1.2,1.6-3,2.9-3.2,4.4
		c-0.6,5.6-0.5,11.2,4.2,15.6C91.5,434.3,97.1,433.1,96.9,426.7z M145.4,519.5c0.4,0.2,0.9,0.4,1.3,0.6c1.2-1.2,2.5-2.4,3.5-3.8
		c3.6-5,2.7-10.7,2.8-16.3c0-2.2-0.9-3.4-3.2-3.6c-2.1-0.2-3.2,1-3.4,2.8c-0.8,5.4-1.5,10.8-2,16.2
		C144.3,516.7,145,518.1,145.4,519.5z M141.8,438.2c-2.1-2.8-4.3-5.7-6.4-8.5c-4.1,1-5.9,2.7-9.5,9.1
		C133.4,446.3,139,446.2,141.8,438.2z M165.4,469.5c4.6-7.2,4.6-15.5,0.1-18.2c-1.8,2.2-4.2,3.6-5.1,6.9c-0.6,2.2-3.6,3.8-6.1,6.3
		C158.7,466.5,161.9,468,165.4,469.5z M104.5,126.7c-2.7-4.3-5.3-8.2-8.4-13.1c-2.6,4.5-4.7,8.1-6.8,11.9c3.2,2.7,5.9,5,8.6,7.2
		C100.3,130.5,102.2,128.7,104.5,126.7z M92.2,67.9c-2.1,4.1-3.7,7.1-5.4,10.3c3.6,3.3,7,6.3,10,9.1c4.8-2.9,3.9-6.4,1.6-9.9
		C96.6,74.4,94.7,71.6,92.2,67.9z M158,494.3c2.7,0.4,4.6,0.6,6.5,1.1c1.9,0.5,3.7,1.2,5.4,1.8c4.3-6.5,2.5-11.4-5.7-14.7
		C162.4,486.2,160.4,489.9,158,494.3z M164.6,430.7c0.5-2.9,1.2-5.4,1.1-7.8c-0.1-2.6-0.6-5.3-1.7-7.6c-0.5-1.1-2.7-1.9-4-1.8
		c-1.9,0.1-5.3,7.2-4.2,8.8C158,425.4,159.6,429.2,164.6,430.7z M130.5,473.1c3.9,4,8.2,2.3,12.4,1.8c2.2-0.2,3.1-1.6,3.4-4
		c-1.9-2.1-4-4.3-6.4-6.8c-1.2,0.1-2.8,0.1-4.4,0.2C133.7,467.5,132.1,470.3,130.5,473.1z M129.9,324.1c3.3,1.6,4.1,5.8,8.3,5.5
		c3.3-0.2,7,1.2,9.4-2.4C142.1,317.9,137.8,317,129.9,324.1z M93.5,66.1c3,4.6,5.7,8.8,8.7,13.4c2.5-7.5,1.2-17.2-2.8-21.5
		C97.5,60.6,95.6,63.3,93.5,66.1z M104.9,148.3c-2.7-4-5-7.3-7.7-11.2c-2.5,3-4.7,5.6-7.3,8.7c3.3,2.3,5.9,4.2,8.4,6
		C100.7,150.4,102.5,149.5,104.9,148.3z M106.3,125.4c3-6.8,1.8-14.1-3.1-19.8c-0.6,0.5-1.3,1-1.9,1.5c-3.6,3.6-3.7,4.6-0.9,8.9
		C102.3,119,104.1,122,106.3,125.4z M97.2,425.1c3.4-4.6,6.1-8.2,9.4-12.7c-6.7,0.9-12.3,0.6-17.2,3.9
		C92.2,419.4,94.6,422.1,97.2,425.1z M151.6,328.2c2.5,6.8,8.8,7.3,13.6,10.7c0.5-5.4-2.1-11-5.4-12.6
		C156.7,324.8,154.1,325.7,151.6,328.2z M105.4,145.5c4.9-3.8,4.6-10.6-0.6-17c-2.1,2.1-4,4.2-6.2,6.5
		C101,138.9,103.1,142,105.4,145.5z M90.8,18.4c3.3,4.7,6.2,8.8,9.1,12.8c2.7-6.8-0.7-12.8-2.8-19.6C94.9,14,93,16.1,90.8,18.4z
		 M82.2,53.5c2.1-2.9,4-5.3,5.7-7.9c0.6-0.9,0.8-2.7,0.3-3.5c-1.4-2.3-3.2-4.4-5.5-7.4C80.4,41.5,78.8,47.2,82.2,53.5z M67.2,199.2
		c-2.1-9.6-4.2-18.8-5.8-26c0,6.8,0,15.7,0,24.5c0,1.5,0.6,3.1,1.1,5.1C64.4,201.4,65.7,200.4,67.2,199.2z M103.3,84
		c-6.1,6.2-5.2,12.9,1.6,16.9C106.4,95.3,105.8,89.9,103.3,84z M88.8,127.6c-0.4,0.2-0.8,0.3-1.2,0.5c-0.5,4.9-0.9,9.7,1.7,14.7
		c2.6-2.9,4.9-5.5,7.5-8.4C94,132,91.4,129.8,88.8,127.6z M139.7,526.3c-5.1-0.1-8.8,1.4-12.3,3.3c-1.1,0.6-2,2.2-2.3,3.5
		c-0.5,2.5-0.5,5.2-0.7,7.8c-0.3-0.3-0.6-0.7-0.9-1C128.8,535.5,133.9,531.2,139.7,526.3z M86.2,105.2c0.1,6.3-1.3,11.8,2.2,17.2
		c2.2-3.8,4.1-7,6-10.4C91.9,109.7,89.5,107.8,86.2,105.2z M131.8,343.9c-2.4,2.8-4.3,5.2-6.4,7.6c5.2,0,10.7,0,16.9,0
		C138.7,348.9,135.5,346.6,131.8,343.9z M83.4,59.2c-0.3,0.2-0.7,0.4-1,0.6c-0.4,5.3,1,10.4,2.7,15.3c0.4,0.1,0.7,0.1,1.1,0.2
		c1.4-3,2.9-6.1,4.4-9.3C88,63.6,85.7,61.4,83.4,59.2z M88.4,162.1c0.4,0.1,0.7,0.3,1.1,0.4c2.5-2.8,5-5.6,7.8-8.8
		c-2.6-1.9-4.7-3.5-7.2-5.3C87,153.1,88.3,157.6,88.4,162.1z M75.4,314.6c0.2,0.4,0.3,0.7,0.5,1.1c4.3-0.4,8.6-0.8,13-1.2
		c-2.6-2.8-5-5.4-7.7-8.3C79,309.3,77.2,312,75.4,314.6z M81,25.9c2.4-2.6,4.5-4.9,6.9-7.5c-2.4-2.3-4.4-4.1-6.4-6
		C78.6,16.4,78.4,20.5,81,25.9z M99.9,354.6c-0.1,0.4-0.3,0.8-0.4,1.2c2.7,1.5,5.4,3,8.3,4.7c2.5-1.8,4.9-3.6,7.9-5.9
		C109.7,354.6,104.8,354.6,99.9,354.6z M160.7,476.6c3,2.1,5.6,4,8.2,5.9c-0.6-4.5-0.2-9.2-5.2-11.3
		C162.8,472.9,162,474.3,160.7,476.6z M132.1,409.5c2.1,2.5,4,4.8,6.5,7.7c1.2-2.9,2.2-5,3.3-7.7
		C138.2,409.5,135.3,409.5,132.1,409.5z M147.6,429.6c-4.1,0-6.8,0-10.4,0c2.3,2.8,4,4.9,6.3,7.7C145,434.5,146.1,432.5,147.6,429.6
		z M155.2,500.8c0.4,0.4,0.7,0.9,1.1,1.3c3.3-0.9,6.5-1.7,9.8-2.6c-3.1-2.7-6.3-2.8-9.5-1.9C155.9,497.9,155.6,499.7,155.2,500.8z
		 M89.8,412.6c4.5-1,7.8-1.7,11.8-2.5c-2.2-1.8-3.9-3.2-5.8-4.8C93.8,407.6,92.1,409.7,89.8,412.6z M153.4,418.9
		c1.6-2.6,2.7-4.4,4.1-6.7c-3.1-0.7-5.8-1.3-9.4-2.1C150,413.4,151.4,415.7,153.4,418.9z M106.5,323.4c1.6-2,2.9-3.7,4.6-5.9
		c-4,0-7,0-10.7,0C102.7,319.7,104.4,321.4,106.5,323.4z M126.3,427.6c-3-2-5.2-3.6-7.8-5.3c-1.4,1.8-2.5,3.4-4,5.3
		C118.8,427.6,122.2,427.6,126.3,427.6z M121.8,330c4.1-0.3,7.4-0.5,11.2-0.7C128.5,324.2,126.6,324.3,121.8,330z M112.1,296.4
		c-2.1,0-3.8-0.1-5.4,0c-1.5,0.1-3,0.6-4.8,1C107.4,301.9,108.2,301.8,112.1,296.4z M146.9,407.4c0.1-0.2,0.3-0.5,0.4-0.7
		c-2-1.5-3.9-3-6.2-4.7c-1.1,1.9-1.7,3.1-2.6,4.7C141.7,406.9,144.3,407.2,146.9,407.4z M85.6,369.8c-1.4,2-2.6,3.6-4.2,5.9
		c3.6-0.9,6.1-1.5,9.8-2.4C88.8,371.8,87.4,370.9,85.6,369.8z"/>
	<path d="M142,793c-2.9-2.3-5.9-4.3-8.6-6.8c-3.5-3.3-3.8-5.3-1.8-9.8c1.2-2.6,2.5-5.1,4-7.5c5.4-8.5,4.7-15.5-2.5-22.8
		c-0.2-0.2-0.2-0.6-0.3-0.9c7.4-3.8,12.8-0.9,19.4,10.4c4.9-5.8,3.2-17.1-3.3-21.3c-1.4-0.9-2.9-1.5-4.4-2.3
		c-5.2-2.9-6-7.6-1.8-11.9c1.3-1.3,3.1-2.3,5.2-2.8c-0.6,0.8-1.2,1.7-1.9,2.4c-5.3,4.8-5.2,8.2,1.1,11.3c8.9,4.3,11.8,14.6,9.1,21.9
		c-0.8,2.2-2.2,4.2-3.9,7.3c-2-3.8-3.4-6.5-4.9-9.2c-2.1-3.9-4.7-5-9.7-4.2c2.7,4.1,4.4,8.4,3.6,13.2c-0.5,2.9-1.5,5.7-2.8,8.4
		c-1.3,2.9-3.2,5.4-4.7,8.2c-2.2,4.3-1.9,5.9,1.8,9.1c2.3,1.9,4.8,3.6,7.2,5.4c0.8,0.6,1.5,1.3,2.2,2C144,793,143,793,142,793z"/>
	<path d="M81,793c5.3-7.2,4.9-16.8-1.4-23.8c-3.4-3.8-7-7.7-12.7-8c-2.5-0.2-4-1.4-4.3-4c-0.3-2.6,0.4-4.7,2.7-6
		c3.2-1.8,6.6-2.1,10-0.6c-0.2,0.2-0.4,0.4-0.5,0.6c-1.8,0-3.7-0.2-5.5,0.1c-3.8,0.6-4.9,2.3-4.7,6.9c0.9,0.4,1.9,1,3,1.3
		c11.4,3,18.7,12.7,18.7,24.3c0,3.5-0.9,6.5-3.3,9.1C82.3,793,81.7,793,81,793z"/>
	<path class="st0" d="M83,9c-0.3-2.7-0.7-5.3-1-8c1.3,0,2.7,0,4,0c1.3,1,2.7,1.9,4.1,2.9C87.6,5.7,85.3,7.4,83,9C83,9,83,9,83,9z"/>
	<path d="M210,793c0.3-1.6,0.5-3.3,1.1-4.8c2.3-6.5,2.6-12.9-0.4-19.3c4.1,2.7,4.2,7.1,3.7,11.1c-0.6,4.4-2.2,8.7-3.4,13
		C210.7,793,210.3,793,210,793z"/>
	<path class="st0" d="M99,1c-1.2,2.7-3,3.6-6,2.5C91.6,3,90.3,1.9,89,1C92.3,1,95.7,1,99,1z"/>
	<path d="M169.1,714.9c0.7-0.4,1.4-0.8,2.1-1.2c2.2,0.9,0.5,1.7,0,2.6c-1.3,2-3.3,3.9-3.8,6.2c-1.2,5.1,1.9,8.4,6,11
		c3.4,2.1,6.6,4.5,9.8,6.9c5.9,4.3,6.3,10.3,4.5,16.6c-1.1,3.8-2.7,7.5-4.1,11.2c4.9,6.9,15.2,7.7,20.9,1.5
		c-5.3-8.4-5.8-17.7-3.5-27.2c2.3-9.6,8-17.1,16-22.8c5.7-4.1,9.3-14.4,7.3-21.3c-0.9-3.1-1-6.4-1-9.7c1.2,4.3,2.4,8.6,3.5,12.9
		c0.3,1.1,0.5,2.4,0.1,3.4c-2.3,6-3.9,12-9.5,16.5c-11.1,8.8-17,20.4-15.1,35c0.5,3.7,1.9,7.3,3.1,11.7c1.3-1.6,1.9-2.2,2.7-3.2
		c0.6,0.7,1.1,1.3,1.5,2c-0.7,0.7-1.5,1.3-2.1,2.1c-5.1,6.4-14.3,8.3-21.4,4.4c-4.2-2.3-5-4.6-3.3-9.1c1.3-3.4,2.7-6.8,3.6-10.3
		c1-4.3,0.4-8.3-3.6-11.1c-3.4-2.4-6.6-5-9.9-7.5c-1.8-1.4-3.8-2.7-5.4-4.4c-3.4-3.8-3.4-8.6-0.5-12.8
		C167.7,717.2,168.3,716.1,169.1,714.9z"/>
	<path d="M444.2,47.5c0.9-1.2,1.7-2.2,2.4-3.3c0.3,0.1,0.6,0.2,0.8,0.2c-0.2,1.3-0.4,2.5-0.7,3.9c0.1,0.1,0.1,0.5,0.3,0.7
		c2.9,2.8,2.8,2.7,0.8,5.9c-0.8,1.3-1,3.1-1.5,4.9c-1.9-4-8.3-2-9.8-7.9c1.1,0.3,1.9,0.6,3.1,0.9c0.2-0.7,0.3-1.4,0.6-2.6
		c-1.7,0.2-3,0.3-5,0.5C437.7,47.1,440.8,47.2,444.2,47.5z"/>
	<path d="M256.8,767.3c-5.3-2.4-7.9-7.4-11.1-11.8c-1.2-1.7-2.2-3.8-2.8-5.8c-0.8-2.8-2.1-6-1.5-8.6c1.7-7.8,5.3-14.9,9-22.5
		c1.6,2.8,0.2,4.6-0.6,6.5c-1.5,3.5-2.9,7.1-4.6,10.5c-3.9,7.8-1,14.6,3.4,20.9c2.5,3.7,5.7,6.9,8.6,10.3
		C257.1,766.9,256.9,767.1,256.8,767.3z"/>
	<path d="M227.2,679.5c6.2,5.2,12.3,9.6,17.4,14.9c3,3.1,4.4,7.7,6.3,11.7c0.5,1,0.1,2.5-0.8,3.9c-1.3-3-2.7-5.9-3.7-9
		c-1.2-3.7-3.8-6.1-6.9-8.2c-4.4-3.1-8.5-6.4-11.3-11C227.9,681.3,227.7,680.7,227.2,679.5z"/>
	<path d="M29.1,766c-3.7-3.9-6.4-8.3-7.7-13.5c-0.8-3.2-0.3-5.9,1.2-9c3.3-6.5,3.7-13.7,3.1-20.9c-0.3-3.1-1.7-5.3-4.6-6.5
		c-0.9-0.4-1.8-0.8-2.7-1.3c-5.8-2.8-6.4-3.7-6.8-10.8c-4,5.8-5.9,11.8-5.5,18.5c0.2,3.1,1.8,5.2,4.2,7c6.2,4.7,7,9.9,2.7,16.3
		c-3.1,4.7-5.6,7-10.6,8.9c0.9-1,1.7-1.9,2.6-2.9c2.2-2.5,4.7-4.7,6.6-7.4c3.5-4.9,3-9.5-1.7-12.5c-6.1-3.9-7-9.5-5.6-15.7
		c0.9-3.8,2.5-7.6,4.2-11.1c1.7-3.3,3.9-6.4,6.8-9.3c0,0.8,0.1,1.7,0,2.5c-0.4,2.3-1,4.6-1.2,6.9c-0.3,4.5,0.2,6.2,4.4,7.3
		c9.1,2.4,10.9,11.6,9.2,19.9c-0.6,2.9-1.5,5.8-2.1,8.7c-0.2,0.9,0.1,1.9,0.2,2.8c0.1,0.2,0.3,0.3,0.4,0.5c-0.1,0.3-0.2,0.7-0.4,0.9
		c-3.9,5.5-2.3,10.5,1.3,15.5C28.3,762.1,28.4,764.2,29.1,766L29.1,766z"/>
	<path d="M123.2,754.5c-7.1,3.1-16,0.5-19-4.9c-1.2-2.2-0.6-4.1,0.4-6.1c1.8-3.6,3.8-7.1,5-10.8c2.5-8.1-0.1-15.6-4.2-22.3
		c-5.2-8.4-12.1-15-22.5-16.7c-0.6-0.1-1.2-0.1-2.9-0.2c8.7,4.6,11.7,11.3,11.3,19.8c-0.2,3.5-1.2,6.6-3.5,9.1
		c-5.9,6.3-13,11.1-19.9,16.2c-0.3-0.3-0.5-0.5-0.8-0.8c0.8-0.9,1.4-1.9,2.3-2.6c3.8-3,7.7-5.8,11.4-9c3.7-3.1,7.4-6.1,8.4-11.3
		c1.4-7.5-2-15.3-8.7-19.1c-1.5-0.8-2.8-1.9-4.2-2.9c0.1-0.4,0.3-0.8,0.4-1.2c2.2,0,4.6-0.4,6.7,0.1c6.1,1.5,11.9,3.5,16.4,8.6
		c4.6,5.2,8.6,10.4,10.9,17.1c2.6,7.7,1.7,14.7-1.8,21.7c-0.4,0.9-1.1,1.7-1.5,2.6c-3.2,5.7-2.7,7.6,2.9,10.8
		C113.4,754.5,116.4,755,123.2,754.5z"/>
	<path class="st0" d="M97,436c1.3-0.9,2.4-2.4,3.8-2.7c4.4-1,8.8-1.5,13.2-2.3c0.3,0.3,0.5,0.6,0.8,0.9c2.2,2.6,4.4,5.3,7.4,8.7
		c-0.3,2-2.7,3.9-5.8,3.8c-3.9-0.1-8.4,3.2-11.8-1.5c2.1-3.5,4.1-6.8,6.1-10.1c-0.3-0.2-0.6-0.4-1-0.6c-2.6,3.2-5.2,6.5-7.8,9.7
		C100.2,439.9,98.6,438,97,436z"/>
	<path d="M25.8,743.8c2.7-2.7,5.5-5.4,7.9-8.3c5.1-5.9,9.2-12.1,9.2-20.4c0-6.4-1.9-11.7-6.4-16.1c4.2-2.5,9.5-1.7,12.3,2.3
		c2.4,3.4,4.4,7.1,6,10.9c1.8,4.3,1.7,8.6-0.1,13.1c-1.3,3.4-1.4,7.2-2,10.8c-1.4-1.7-2.1-3.9-1.3-6.5c0.4-1.3,0.7-2.6,1.3-3.8
		c2.8-5.6,1.9-10.9-0.9-16.2c-1-1.9-1.9-3.9-3-5.7c-1.8-2.8-4.3-4.4-8.3-4.5c0.7,1.6,1.2,2.6,1.7,3.6c4.8,9.1,3.9,18-1.4,26.6
		c-3.7,6-8.2,11.3-14.5,14.8C26.1,744.1,26,743.9,25.8,743.8z"/>
	<path d="M29,766c1.1-0.2,2.3-0.5,3.4-0.6c4.8-0.5,9.7,2.9,10.1,7.5c0.6,7.3-1.4,13.8-8.7,17.5c0.6-0.8,1.1-1.7,1.9-2.4
		c3.6-3.7,4.9-8.2,5.1-13.2c0.2-4.9-3.7-8.5-8.4-7.2c-6,1.7-10.8,0.5-14.9-5.1c-0.1,3.9,1.5,5.8,4.1,7.4c2,1.2,4,3,5.3,5
		c1.4,2.3-0.1,4.2-2.9,4c-4.9-0.3-7.6-3.2-7.6-8c0-1.9-0.5-3.9-0.8-5.8c-0.7-4-0.1-7.7,2.9-10.9c-0.7,4.6,0.6,8.2,4.3,10.8
		C24.6,766.3,26.6,767.6,29,766L29,766z M25.4,777.7c-1.1-4.6-1.5-4.9-7-6.3C18.4,776,18.9,776.5,25.4,777.7z"/>
	<path d="M75.3,750.7c1,0.4,2,0.9,3.6,1.6c-2.5-6.1-6.8-9-12.5-10.1c-3.6-0.7-7.6-0.5-10.6-3.6c4.3,0.7,8.6,1.2,12.8,2.3
		c6.6,1.7,11.1,5.8,12.7,12.7c0.1,0.5,0.2,1,0.2,1.5c0,0.3-0.3,0.6-0.6,1.2c-3-0.5-4.2-3.3-6.3-4.9
		C74.9,751.1,75.1,750.9,75.3,750.7z"/>
	<path d="M86.4,443.2c1,4.4,2.1,9,3.2,13.5C85,454.1,83.4,447.1,86.4,443.2z"/>
	<path class="st0" d="M475,194c-2.9,0.4-3,3.3-4.3,5.1c-6.1,8.4-6.9,18.6-8.9,28.3c-0.5,2.5,0.2,5.3,0.7,7.9c0.6,3.2,2,6.1,1.5,9.7
		c-0.4,3,1.6,5.6,4.1,6.8c-1.9,3.9-3.6,7.4-5.3,11c-1,2-0.8,3.5,0.6,5.5c4.1,5.8,6.7,8.7,12.6,12.3c2.7-1.7,5.5-3.4,8.6-5.3
		c1.8,3.8,3.4,7.2,5.1,10.6c-3.8,1.3-41.8,1.6-48.2,0.5c-0.3-1.1-0.8-2.3-1-3.6c-3.1-18.7-9.2-36.4-17.3-53.4
		c-4.4-9.3-8.8-18.6-13.4-27.8c-2.6-5.2-1.2-9.8,1.9-14c7.1-9.7,11.7-20.4,14.5-32c0.3-1.1,0.6-2.3,0.9-3.4c0.1-0.5,0.4-0.9,0.6-1.2
		c7.9-1.4,15.7-2.9,23.4-4.3c0.2,3.7,0.4,7.3,0.6,11.1c-5.6,5.9-6.7,8.7-4.4,13.2c0.5-1.6,0.9-2.7,1.3-3.9c1.9-5.9,6.2-9.5,12.5-9.7
		c11.9-0.3,22.6,2.5,31.1,11.8c7.6,8.2,15.6,15.9,23.8,23.4c3.5,3.2,7.9,5.6,11.9,8.2c3.5,2.2,3.8,4,1.1,7.1
		c-3.6,4.1-7.1,8.3-10.9,12.3c-2,2.1-4.6,3.7-6.8,5.7c-2.3,2.1-5,4.1-6.6,6.7c-4.5,7.2-8.5,14.6-12.5,21.6c-4-2.8-8.5-6-13.4-9.5
		c1-6.2,3.5-12.5,6.2-18.7c1.8-4.1,3.9-8.1,5.3-12.4c2.4-7.1,6.9-11.6,14.3-13.1c0.6-0.1,1.2-0.4,2.3-0.6c-2.9-1.8-5.6-0.5-7.5,0.5
		c-5.3,2.6-9.7,0-14.1-2c-3.1-1.5-5.6-4.1-8.5-6c-2.5-1.7-5-3.2-7.6-4.5c-0.6-0.3-1.7,0.2-3,0.4C469.4,190.2,472.2,192.1,475,194
		C475,194,475,194,475,194z"/>
	<path class="st0" d="M591.7,291.5c0,11.7-0.2,23,0.1,34.3c0.2,11.1,0.6,22.3,1.4,33.4c0.8,11.2,2.2,22.4,3.5,34
		c-1.3,0.2-2.6,0.5-3.8,0.5c-13.8,0-27.6,0-41.4,0.1c-2.6,0-4.3-0.7-5.8-2.9c-5.7-8.5-10.1-17.6-13.9-27c-1.4-3.5-3-7.4,0.8-11.1
		c0.9-0.8,0-3.7-0.4-5.5c-0.5-2.7-1.7-5.4-1.8-8.1c-0.8-14.8-1.3-29.6-1.9-44.3c0-1,0.1-1.9,0.2-3.3
		C549.5,291.5,570.2,291.5,591.7,291.5z"/>
	<path class="st0" d="M334.8,393.4c-19.9,0-39.4,0-59.4,0c-0.2-1.8-0.5-3.7-0.5-5.6c0.1-21.8,0.2-43.6,0.3-65.5
		c0.1-9.2,0.3-18.3-1.8-27.3c-0.2-0.9,0-2,0-2.9c3.8-1.2,54.4-1.4,60.3-0.2c0.1,1.6,0.3,3.4,0.3,5.2c0,16.6-0.3,33.2-1.7,49.9
		c-0.9,10.2,0.6,20.6,1.1,30.8C333.7,382.9,334.3,387.9,334.8,393.4z"/>
	<path class="st0" d="M338.4,392.8c-0.7-5.7-1.5-11.5-2-17.3c-0.6-7-1.2-13.9-1.1-20.9c0.2-8.3,1.4-16.6,1.6-24.9
		c0.3-12.6,0.1-25.2,0.1-38.2c17.9,0,36.1,0,55.2,0c-4.3,8.6-7.3,17.1-12.7,24.3c-2.9,3.9-6.3,7.4-8.4,11.7
		c-2.9,5.9-4.9,12.3-7.3,18.5c1.3,11.2-6.8,18.9-10.8,28c-2.6,5.9-6.3,11.3-9.3,17.1C342.6,393.3,341.5,394.3,338.4,392.8z"/>
	<path class="st0" d="M418,228c-3.5-2.3-2.7,2.3-3.6,2.5c-5-5.4-9.8-10.4-14.8-15.7c4.3-1.9,7.1-5,7.1-9.8c0-3.5-2.3-5.3-5.4-6.3
		c-3.3,2.8-3.3,2.8-5.2,12.2c-6.7-6.3-7-17.1-0.8-23.5c2.1-2.2,4.9-3.9,5.6-7.5c-9.1,3.5-14.6,14.9-11.7,23.4
		c0.5,1.4,1.1,2.8,1.7,4.2c2.4,5.7,2.1,6.7-3.5,9.7c-7.2-3-8.9-2.8-12.6,1.6c0.5,0.1,1.1,0.4,1.4,0.3c6.9-2.6,11.6,1.3,16.4,5.3
		c4.1,3.4,6.7,7.7,9.4,12.1c2,3.2,4.7,5.9,7.5,9.3c-5.5,3.3-12.3,4.4-15.2,10.8c-5.3-4.6-10.6-8.9-15.5-13.5
		c-5.9-5.5-11.7-11.3-17.4-17.1c-3.7-3.7-3.8-5.2-1.3-9.6c8.6-14.9,18-29.1,29.1-42.3c3.2-3.8,5.3-8.4,7.6-12.9
		c1.2-2.4,2.8-3.5,5.5-3.3c3.9,0.3,7.8,0.6,12.1,0.9c-0.6,4.9-2.4,8.3-5.3,11.2c-2.8,2.8-4.4,6.3-4.6,10.2c-0.1,1.5,1.2,3.1,1.9,4.7
		c1.5-0.9,3.3-1.5,4.3-2.8c2.9-4,2.9-7.3,0.3-10.8c1.8-2.5,3.7-5,5.2-7.2c1.7-0.2,3.3-0.4,5.6-0.6c-2,4.5-3.9,9.3-6.3,13.9
		c-1.5,2.9-3.7,5.5-5.6,8.2c-4.2,5.7-5.3,11.7-1.6,18.1c2.5,4.3,4.8,8.8,7,13.2c1.2,2.5,3,5.1,1.1,8.2
		C416.2,225.7,417.4,227.1,418,228L418,228z"/>
	<path class="st0" d="M441.7,291.5c6.8,0,13.4,0,20.5,0c1.8,15,3.1,29.8,2.2,44.7c-20.8,1.4-41.1,2.7-61.7,4.1
		c0.4-16.2,0.9-32.4,1.3-48.8c4.8,0,9.7,0,14.9,0c0.2,0.4,0.7,0.9,0.9,1.5c1.5,5.6,6.2,4.6,9.1,1.5c3.5-3.7,3.6-3.7,9.6-2.6
		c-0.8,14.2-3.8,28-7.7,42.2c3.4-3.4,5-7.8,7.2-20.4C439.4,306.5,440.5,299.2,441.7,291.5z M419.4,311.3c-1.2,3.2-2.6,6.3-3.4,9.6
		c-0.6,2.5,0,5.5,2.7,6.2c1.9,0.4,4.6-0.5,6.2-1.8c2.8-2.1,2.8-5.5,2-8.7C426.2,313.5,424.1,311.5,419.4,311.3z"/>
	<path class="st0" d="M470.1,393.4c-27.6,0-55.3,0-83.5,0c2.9-3.4,5.4-6.4,8-9.4c0.4-0.5,1-0.7,1.9-1.4c0.8,3.6-0.2,7.3,2.9,10.5
		c0.5-1.1,1.2-1.9,1.2-2.7c0.1-1.1-0.2-2.3-0.3-3.5c-0.6-5.4,0.1-9.6,5.6-12.9c4.8-3,8.3-8,12.4-12.2c3.2-3.3,6.3-6.8,9.7-10
		c0.8-0.7,2.3-0.8,3.5-0.9c7.6-0.4,15.3-0.7,22.9-0.9c1.7-0.1,3.9-0.5,5,0.4c2.1,1.7,4.7,4,5.1,6.4c2.3,11.7,4.1,23.5,6,35.3
		C470.5,392.5,470.3,392.8,470.1,393.4z"/>
	<path class="st0" d="M467.2,339.5c12.9-0.8,24.8,0.4,36.6,2.1c3.9,0.6,7.8,1.5,11.8,2.1c3.4,0.5,5.3,2.4,6.9,5.5
		c5.6,10.8,6.9,22.4,7.4,34.2c0.1,3.2,0.9,6.5,1.5,10.2c-6.5,0-12.8-0.5-19,0.1c-7.8,0.7-14-1.1-18.1-8c-1-1.7-2.2-3.3-3.3-4.9
		c-0.8-1.2-1.6-2.6-2.6-3.6c-6.1-6.4-12.1-12.8-18.3-19c-1.9-1.9-2.9-3.8-2.8-6.5C467.3,347.8,467.2,343.8,467.2,339.5z"/>
	<path class="st0" d="M453.6,96.6c1.3,0.3,2.9,0.6,4.3,0.9c3,7.6-0.2,14-7.5,14.7c-0.2,0.7-0.5,1.5-0.8,2.2
		c-4.8,12.8-15.3,18.8-27.3,22.8c-3.3,1.1-7.4,1-10.8,0.2c-9-2-13.5-8.9-12.9-18.7c0.3-4.4,1.8-8.8,3.1-13.1
		c0.9-3.1,1.4-6.6,5.9-7.1c3-0.3,5.9-2.6,9.2,0.9c-1.1-5.4-1.7-5.5-11.7-3c-0.3-4.7,2.3-7.9,5-10.9c8.9-10,20.2-12.4,32.7-9.2
		c7.1,1.8,11.3,6.9,12.8,13.9C455.9,92,454.4,94.3,453.6,96.6z M433.7,118.5c-8.7-1.7-17-3-24.8,0.4c1,1.9,2,4.1,3.3,6
		c1.5,2.2,3.4,3,6.4,2.6C424.9,126.7,429.1,122.9,433.7,118.5z M447,98.8c0-0.5,0-0.9,0.1-1.4c-5.3-1-10.6-2.1-15.9-2.8
		c-2.4-0.3-4.1,1.2-4.6,4.3C433.8,95.2,440.4,100.8,447,98.8z M414.2,108c4.6-5.7,9.2-1.5,13.9-0.5c-2.2-3.2-5.1-4.9-8.8-4.5
		C416.5,103.2,414.5,104.7,414.2,108z"/>
	<path class="st0" d="M465.4,291.2c8.5,0,16.6-0.1,24.7,0.1c0.9,0,2.2,1,2.6,1.9c6.4,13.6,15.2,25.6,24.5,37.4
		c2.8,3.6,5.3,7.5,8.7,12.3c-7.2-1.3-13.4-2.5-19.6-3.5c-6.4-1-12.8-2.1-19.2-2.5c-6.4-0.4-12.9-0.1-19.8-0.1
		c-0.2-8.1-0.4-15.6-0.7-23C466.4,306.7,465.9,299.4,465.4,291.2z"/>
	<path class="st0" d="M345.4,393.1c8.3-15.4,16.3-30.3,24.7-45.8c8.9-1.4,18.4-2.8,28.7-4.4c-0.5,4.3-0.9,7.9-1.2,11.4
		c-0.6,7.1-1.3,14.2-1.7,21.3c-0.1,2.3-0.5,4.1-2.2,5.8c-3.3,3.3-6.3,6.8-9.7,10c-1.2,1.1-3.1,2.1-4.7,2.1
		c-10.6,0.2-21.3,0.1-31.9,0.1C346.8,393.6,346.4,393.4,345.4,393.1z"/>
	<path class="st0" d="M367.3,344.7c1-10.8,7.3-18.4,13.7-25.7c6-6.8,9.5-14.7,12.3-23.1c1.5-4.4,1.8-4.8,6.1-4
		c1.7,7.5,1.2,36-1,48.5C388.1,341.8,377.7,343.2,367.3,344.7z"/>
	<path class="st0" d="M431,256c3.3,9.7,7.2,19.3,7,30.4c-1.8,0.2-3.3,0.3-5,0.5c-1.4-4.4-3.4-7.7-8.4-6.9c-1.9,5.4-3.8,6.9-9.2,6.9
		c-5.8,0-11.5,0-18.2,0c2.7-4.5,5-8.3,7.1-11.9c8.1,1.1,11.3-2,16.2-13.3c-4.2-5.7-4-12.4-4.1-18.9c0-0.9,0.6-1.8,1.1-2.6
		c1.5-2.5,3-5.1,4.7-7.9c0.9,1.9,2.1,4.1,3,6.3C427.1,244.4,429,250.2,431,256c-1.7-2.1-3.5-4.3-7-2.6c6.1,3.1,6.8,9.2,1.5,13.1
		c-2.9-3-2.4-6.3-1.2-10c-1.1,0.6-2.2,1.3-2.3,2.1c-0.1,2.3-0.2,4.7,0.4,6.8c0.4,1.3,2,3.1,3.1,3.2c1.2,0.1,3-1.3,3.8-2.6
		C431.4,263,431.4,259.5,431,256z"/>
	<path class="st0" d="M525.5,291.5c0.3,15.7,0.6,30.9,1,46.1c-4.6-2.4-29.1-38.7-30.8-46.1C505.5,291.5,515.2,291.5,525.5,291.5z"/>
	<path class="st0" d="M475,194c4.7,5,11.1,7.1,17,9.1c-6.1,14.7-12,29.1-18.1,43.7c-5.3-4.3-9.1-9-10.3-15.5c-0.1-0.6-0.2-1.4-0.1-2
		c2.3-9.8,3.2-20.1,9.1-28.8C473.9,198.6,474.2,196.2,475,194C475,194,475,194,475,194z"/>
	<path class="st0" d="M399.2,375.1c-0.4-10.7,1.7-20.9,3.2-31.7c9.6-0.8,19.1-1.7,28.8-2.5C429.2,348.1,406.4,372.3,399.2,375.1z"/>
	<path class="st0" d="M498.2,393.4c-8.1,0-15.7,0-23.8,0c-2.1-10.8-4.2-21.4-6.3-32C479.4,370.9,488.8,381.7,498.2,393.4z"/>
	<path class="st0" d="M391.1,218.9c1.3-1.7,2.3-3,3.4-4.5c4.3,3.6,8.8,6.8,12.6,10.7c5.4,5.6,7.3,12.7,6.6,21.2
		c-4.2-5-8.5-8.7-11.1-14.1c-1.4-3-4.3-5.3-6.5-7.9C394.6,222.6,393,220.9,391.1,218.9z"/>
	<path class="st0" d="M445.5,145.1c-5.1,0.8-10,1.6-15.6,2.4c0.7-6,1.1-10.9,6.7-13.6c3.1-1.5,5.6-3.9,8.9-6.2
		C445.5,133.4,445.5,138.6,445.5,145.1z"/>
	<path class="st0" d="M431,348.5c1.3-2.4,2.1-4.3,3.4-5.7c1.1-1.2,2.8-2.2,4.4-2.5c2.8-0.4,5.6-0.3,8.5-0.3c6.3-0.1,6.8,0.3,9.2,7.1
		C448.3,348.6,440.2,349.5,431,348.5z"/>
	<path class="st0" d="M543.7,393.5c-3.2,0-5.6,0-7.9,0c-4.2-5.5-2.1-11.5-2.7-17.2c0.4-0.1,0.7-0.3,1.1-0.4
		C537.3,381.5,540.3,387.2,543.7,393.5z"/>
	<path class="st0" d="M476.6,256.4c2.6,4.6-0.1,9.7-7.6,15c-0.6-0.4-1.3-0.8-1.9-1.3c-0.4-0.4-0.7-1.1-1.2-2
		C469.5,264.2,472.9,260.5,476.6,256.4z"/>
	<path class="st0" d="M464.4,339.8c0,3.4,0,6.6,0,10.3c-3.5-2.7-5.8-6.1-8.3-10.3C459.1,339.8,461.6,339.8,464.4,339.8z"/>
	<path class="st0" d="M399.8,212.3c-2.3-4.2-0.7-7.8,1-11.7c2.7,0.6,4,1.9,4.1,4.4C405,208.4,404,210,399.8,212.3z"/>
	<path class="st0" d="M418.4,149.8c2.4,0.2,4.2,0.4,6.6,0.6c-0.3,2.3-0.6,4.1-0.9,6.3c-1.3-1.1-2.3-2-3.3-2.9
		c1.4,3.4,1.2,6.2-2.4,8.6C418.4,158.1,418.4,154.2,418.4,149.8z"/>
	<path class="st0" d="M490.4,260.5c-6.6-1-6.9-1.4-7.6-9.3C487.9,252.1,489.7,254.2,490.4,260.5z"/>
	<path class="st0" d="M471.4,252.5c1.1,0.6,2,1.2,3.1,1.8c-0.6,1.1-0.9,2.1-1.5,2.8c-2.4,2.9-4.9,5.6-8.1,9.2
		C465.6,260.4,467.5,256.3,471.4,252.5z"/>
	<path class="st0" d="M471.7,273.3c2.9-3.7,5.7-7.5,8.6-11.1c1.8,2.6,0.8,5.6-3.7,10.3C474.3,274.9,474.2,275,471.7,273.3z"/>
	<path class="st0" d="M397.7,260.5c-0.6-4.4-0.4-4.7,4.3-8.2c1.7,0.9,3.4,1.7,2.5,4.4C403.5,259.5,402.2,260.4,397.7,260.5z"/>
	<path class="st0" d="M417.1,264.5c-6-4.3-7.5-8.6-4-12.4C414.4,256.3,417.4,259.4,417.1,264.5z"/>
	<path class="st0" d="M406.8,182.8c-1.1-5.4-0.4-7,3.6-9.2C411.9,177.3,410.4,181.1,406.8,182.8z"/>
	<path class="st0" d="M483.2,267.8c0.3,5.9-1.1,7.5-8.1,9.5C477.9,274,480.2,271.2,483.2,267.8z"/>
	<path class="st0" d="M415,267.2c-0.5,0.2-1.6,1.1-2,0.9c-4.5-2.5-4.1-7.1-4.9-11.2C410.3,260.1,412.5,263.4,415,267.2z"/>
	<path class="st0" d="M479.3,255.1c-1.8-1.4-3.5-2.7-5.6-4.3c1.4-1.6,3-3.5,4.7-2c1.3,1.2,1.3,3.9,1.9,5.9
		C480,254.8,479.7,254.9,479.3,255.1z"/>
	<path class="st0" d="M466.5,242.6c2.1,2.5,3.6,4.1,5,5.7c-0.1,0.4-0.3,0.8-0.4,1.1c-1.2-0.1-2.8,0.2-3.6-0.5
		C465.9,247.8,465.4,245.9,466.5,242.6z"/>
	<path class="st0" d="M418,228c1.8,3.4,0.9,6.6-1.2,9.7C415.9,234.3,415,230.9,418,228L418,228z"/>
	<path class="st0" d="M423.4,285.4c1.3-1,2.7-2,4.5-3.4c0.8,1.6,1.4,2.7,2.3,4.5c-2.7,0-4.5,0-6.4,0
		C423.7,286.1,423.5,285.8,423.4,285.4z"/>
	<path class="st0" d="M406.1,262.7c1.7,2.7,3.3,5.4,5,8C407.7,271.7,405.5,268.1,406.1,262.7z"/>
	<path class="st0" d="M132.6,594.8c-4.4,4.5-4.7,5.9-2.2,11c2.9,6.2,8,10.5,13,14.9c7.5,6.6,14.9,13.3,22.2,20.1
		c4.9,4.5,7.7,10.5,9.7,16.7c2.7,8.7,6.4,17.1,7,26.5c0.4,7.4,0,14.3-5.5,19.9c-1.5,1.5-2.8,3.3-4.2,4.9c-4.7,5.2-11,6.6-17.3,3.9
		c-8.2-3.5-12.9-10.6-18.1-17.1c0.2-0.3,0.4-0.6,0.6-0.9c1.4,0.3,2.8,0.8,4.2,1c6.7,1.4,11.8-1.4,14.4-7.8c2.5-6.3,0.9-12.8-3.7-18
		c-6.3-7.3-14.4-11.6-22.9-15.5c-9.3-4.3-17-10.5-20.6-20.6c-4.1-11.4-3.2-22.5,4.2-32.2c3.4-4.5,8.7-7.6,13.3-11.5
		C128.7,591.8,130.5,593.2,132.6,594.8z"/>
	<path class="st0" d="M104.6,277.7c-10.5,2.4-20.6,4.7-31.1,7.2c-0.3-7.9-0.8-16.2,0.2-24.4c1.2-9.6,2.4-19.1,3.4-28.7
		c0.7-7.3-1.1-10.3-7-12.7c-6.9-2.8-8.6-12.8-2.5-17.3c6.6-4.9,8.7-11,8.6-19c-0.3-13.8-2.6-10.8,12-15.1c3.2-0.9,6.9-0.4,10.4-0.2
		c1.1,0.1,2.6,1.1,3,2.1c1.2,3.2,2,6.5,2.7,9c-3.6,3.4-6.4,5.8-9,8.5c-2.3,2.4-3.3,5.2-2.7,8.7c2.2,12.1,2.6,24.4,3.5,36.7
		c1,14.2,2.4,28.5,7.7,42.1C104.2,275.6,104.4,276.9,104.6,277.7z"/>
	<path class="st0" d="M117.4,556c0.6,0.9,1.3,1.8,2.2,3.2c1.5-3.5,2.7-6.5,4.2-9.5c4.2-8.6,10.5-15.3,18.2-20.9
		c4.2-3.1,9-3.4,13.8-2.6c1.5,0.2,3,1.4,4.1,2.5c4.6,4.7,5.3,10.9,5.6,17.1c0.1,2,0,4,0.1,5.9c0.1,2.7,0.4,4.9-2.8,6.7
		c-3.3,1.9-2.3,4.6,2.8,7.4c-2.7,1-3.4,2.4-1.5,4.7c1.4,1.7,2.1,3.9,3.4,6.4c-6.4,2.6-14,1-17,10.1c-3.4-9.2-11-6.3-16.4-8.5
		c-2-7.1-6.2-10.2-12.1-8.5c0.9,1.6,1.7,3.1,2.6,4.8c-6.8-0.3-9.2-2.4-9.4-8.5c-0.1-3.4,0.5-6.8,0.8-10.2
		C116.5,556.1,116.9,556.1,117.4,556z M156,567c-1.6,1.4-3.1,2.9-4.7,4.3c-2.9,2.4-2.9,2.4-3,4.8c3.7-2.2,7.3-4.3,11.9-7
		C158.1,568,157,567.5,156,567c0.6-1.1,1.7-2.1,1.9-3.3c0.2-1.1-0.3-2.9-1.1-3.4c-1.8-1-4.1-2.2-6-1.9c-5.6,0.9-11.5,1.9-13.5,8.8
		c0.7,0,1.4,0,2.1,0c-0.1,0.6-0.1,1.2-0.1,1.4c1.7-0.3,3.3-1.1,4.6-0.7C148.2,569.3,152.1,568.6,156,567z M148.5,539.1
		c2.7,3.5,5.9,4,9.5,3.6c3-0.4,3.1-0.5,2-4.3C156.4,538.6,152.6,538.8,148.5,539.1z"/>
	<path class="st0" d="M105,170c2.1-0.4,4.2-0.7,6.3-1.1c3.9-0.9,7.8-1.3,12.4-0.3c0,3.6,0.1,7.2-0.1,10.8c-0.1,0.9-1.2,2-2.1,2.5
		c-1.7,1-3.6,1.7-5.5,2.5c-5,2.1-5.1,2.3-5.1,7.8c0,3.5,0.1,7-0.1,10.5c-0.2,5.3-0.6,10.6-0.9,15.9c-1.1,19.9,3.8,38.6,11.5,56.7
		c0.4,0.9,0.7,1.8,1.2,2.9c-4.9,0.7-9.4,1.3-14.8,2c-2.1-7.7-4.6-15.5-6.5-23.6c-2.6-10.7-2.9-21.7-3.4-32.7
		c-0.4-9.1-1.8-18.2-2.8-27.3c-0.7-5.6,2.5-11.3,7.7-13.4c4.5-1.8,4.6-2.1,3.6-7C105.9,174.2,105.5,172.1,105,170L105,170z"/>
	<path class="st0" d="M143,371c2.3,1.7,4.6,3.3,7,5l0.1,0c1.8,4.3-2.4,6.1-3.8,9c-0.6,1.1-3,1.6-4.7,1.9c-9.7,1.3-19.5,2.3-29.2,3.5
		c-0.8,0.1-1.6,0.1-3-0.6c2-2.2,4.1-4.3,5.9-6.6c1.8-2.4,3.3-5,5.3-8.1c-4.2,1.8-6.1,5.2-8.6,7.9c-0.8,0.8-1.4,1.9-1.9,2.9
		c-2.2,4-5.5,5.5-10.1,5.8c-7,0.4-13.8,2.3-19,7.2c-4.8-3-7.7-9.4-6.6-14.3c0.2-1,1-2.3,1.8-2.8c3.9-2,7.9-4.7,12.1-5.4
		c12.1-2.1,24.4-3.3,36.5-4.9c3.9-0.5,7.8-1.4,11.8-1.9C138.8,369.3,141.2,368.9,143,371c-5.1,3.1-11.3,4.5-14.5,10.7
		c4.5-4.1,7.1,1.2,10.9,1.4c-1.9-1.6-3.7-3.2-5.4-4.6C137.3,375.8,140.1,373.4,143,371z M95,386.5c2.5-3.6,4.9-7.1,7.3-10.6
		c-0.3-0.2-0.6-0.4-0.8-0.6c-2.9,3.5-5.7,7-8.7,10.7c-3.8-1.7-7.2-3.1-10.6-4.6c-0.1,0.3-0.3,0.5-0.4,0.8c2.9,1.6,5.8,3.2,8.9,5
		c-0.9,1.5-1.6,2.6-2.6,4.2c2.9-1.3,5.4-2.4,7.8-3.5C95.8,387.7,95.4,387,95,386.5z"/>
	<path class="st0" d="M124.6,580.1c1.2-2.9,2-5.1,3.2-7.9c1.3,1.7,3.3,3.1,3.7,4.9c0.8,3.9,3.3,5.4,6.7,5.5c5.3,0.2,9.3,1.9,11.4,7
		c0.1,0.3,0.8,0.5,1.6,0.9c0.5-0.6,1.2-1,1.5-1.7c3.5-8.7,17-9.6,23.4-3.2c4.2,4.2,5.1,9.3,2,14.4c-0.9,1.4-1.9,2.7-3,4.2
		c-0.7-2.5-1.1-4.7-2-6.7c-1.4-3.2-4-4.3-6.8-2.3c-4.6,3.2-9.2,4.5-14.5,2.3c-0.4-0.2-1-0.1-1.5-0.1
		C137.4,598.3,127.8,591.7,124.6,580.1z"/>
	<path class="st0" d="M116,485c3.2-2,6.4-3.4,10-1c0,0,0,0,0,0c0.5,1,1.1,2,1.5,2.9c-0.4,2.2-2.9,3.7-2,6.9c1.7-2.1,2.9-3.6,4-5
		c1,0.3,1.8,0.5,3.4,0.9c-2.4-2.7-1.4-4.6,0.1-6.6c0.8-1.1,2.9-2.3,1-4.2l0,0c3-0.5,6-3.2,9.1-0.3c2.9-2,6-1.5,9-0.7
		c3.4,0.9,6.7,1.8,10.5,2.8c-2.2,4.1-3.9,7.8-6.1,11.2c-0.7,1.1-2.8,1.7-4.2,1.9c-2.9,0.3-5.9,0.1-9.5,0.1c1.7-4.5,3.1-8.4,4.6-12.4
		c-0.4-0.2-0.8-0.3-1.3-0.5c-1.4,3.2-2.9,6.3-4.1,9.6c-1.2,3.1-3.2,4.1-6.4,4.2c-4.1,0.1-8.2,1.2-12.3,1.7c-2.1,0.3-4.2,0.3-6.3,0.4
		c-1.9-1.3-3.9-2.7-5.8-4c1.8-2.1,3.5-4.2,5.3-6.2C117.3,485.9,117.7,485.2,116,485L116,485z"/>
	<path class="st0" d="M145,352c-3.6-3.1-7.3-6.2-11.7-10c2.2-1.5,4.3-3,6.5-4.5c-0.3-0.4-0.7-0.8-1-1.2c-2.4,1.6-4.7,3.2-7.5,5.1
		c-3.2-2.5-6.5-5-10.6-8.2c2.3-0.4,3.5-0.7,4.7-0.8c3.2-0.1,6.3,0,9.5-0.3c10.1-0.7,18.8,3.2,27.4,7.9c5.9,3.2,8.9,10.5,3.3,16.1
		c-0.8,0.8-1,2-1.5,3.1l0,0c-3.9-3.6-9.4-3-13.8-5.2C148.6,353,146.7,352.6,145,352c5.5-2.6,9.7-6.6,12.6-12.1
		c-1.3,0.6-2.6,1.2-3.9,1.8c-1.7-1.3-3.3-2.5-4.9-3.8c-0.1,0.2-0.3,0.4-0.4,0.6c1.4,1.6,2.7,3.2,4.1,4.8
		C149.9,346.3,147.4,349.1,145,352z"/>
	<path class="st0" d="M126,525c-2.7,0-5.3-0.2-8-0.1c-4.8,0.1-8-2.4-9.8-6.4c-1.7-3.8-2.7-7.8-3.8-11.8c-0.6-2.3,0.2-4,2.7-4.5
		c2.8-0.6,5.6-1,8.3-1.5c5.2-1,10.4-2.1,16.1-3.3C130.5,507.1,129.1,516.2,126,525C126,524.9,126,525,126,525z"/>
	<path class="st0" d="M124,392c8.9-4,31.6-2.9,36,2.3c-2.6,4.4-5.3,9-8.3,14.2c-3.3-2.9-6.2-5.4-9.1-8c1.3-3,2.6-5.9,3.9-8.8
		c-0.3-0.1-0.7-0.3-1-0.5c-1.6,2.8-3.3,5.6-5.2,8.8c-3.5-2-6.8-3.9-10.1-5.8c1.6,3.9,6,4.5,8.4,7.2c-1.2,3.8-3.4,5.4-7.4,5.3
		c-4.6-0.1-9.2,0.5-14.6,0.9C119.1,402.1,124.5,398.3,124,392L124,392z"/>
	<path class="st0" d="M110.5,293.5c-9.3,1.3-17.8,2.5-26.4,3.7c-8.4,1.2-9.5,0.2-9.5-8.8c5.7-2.8,11.7-5,18.1-6.1
		c2.5-0.4,4.9-0.7,7.4-0.9c4.2-0.5,5.6,0.4,7.2,4.3C108.4,288.2,109.3,290.6,110.5,293.5z"/>
	<path class="st0" d="M124,392c-1.3,2.3-2.5,4.5-4.1,7.2c-4.4-1.7-8.6-3.3-12.9-4.9c-0.1,0.3-0.3,0.6-0.4,1
		c3.8,1.8,7.6,3.6,11.4,5.3c-3.1,11.2-15.1,12.1-21.3,2.8c0.9-2.2,1.7-4.6,2.9-6.7c0.8-1.3,2.3-2.9,3.6-3
		C110.2,392.9,117.1,392.5,124,392C124,392,124,392,124,392z"/>
	<path class="st0" d="M126.8,300.7c0.8,1.2,1.6,2.5,2.6,3.9c-3.9,3-7.8,6.1-11.8,9c-0.9,0.6-2.1,0.9-3.2,1c-4.6,0.1-9.3,0-14.6,0
		c2.7-3.5,5.2-6.6,8-10.3c2.6,2.1,5,4.1,7.4,6.1c0.2-0.2,0.5-0.4,0.7-0.7c-2.1-2.4-4.2-4.8-6.3-7.1c7.3-7.3,5.5-8,13.6-4.5
		C124.3,299,125.6,299.9,126.8,300.7z"/>
	<path class="st0" d="M166,433c1,1.5,2.1,3,2.9,4.6c1.8,3.5,3,7,0.2,11.2c-8.7-3.5-17.6-5.6-27.2-4.8c0.3-3,1.6-3.8,4.2-3.3
		c-1.6-4.1,1.7-6.6,3.1-9.7c0.1-0.3,2.6-0.2,3.3,0.4c1.6,1.4,2.7,3.3,3.9,4.9c-0.8,2.1-1.6,3.8-2.3,5.6c0.3,0.2,0.6,0.4,0.9,0.6
		c1.5-2.3,3-4.7,4.5-7C161.1,433.1,162.8,431.1,166,433L166,433z"/>
	<path class="st0" d="M141.2,355.5c-2.3,1.6-4.8,3-6.9,4.8c-1.7,1.4-2.8,3.4-4.3,5c-4.4,4.2-8.8,4.5-13.7,1c-2-1.4-4-2.9-6.5-4.7
		c2.7-2.3,5-5,8-6.5c2.2-1.1,5.3-0.9,7.9-1c5-0.1,9.9,0,14.9,0C140.8,354.5,141,355,141.2,355.5z"/>
	<path class="st0" d="M115,448c5.5-2.6,11.2-2,16.9-1.3c0.4,0,0.6,1.1,0.9,1.6c-2.9,3.8-5.8,7.6-8.7,11.4
		c-5.7,3.8-11.6,5.6-18.1,2.3l0,0c1.4-2.4,2.8-4.9,4.3-7.2C111.8,452.4,113.4,450.2,115,448L115,448z"/>
	<path class="st0" d="M85,353c-4,1.5-8,3-12.7,4.7c-2.3-3.7-5-7.3-5.1-12.2c0-4.3,0.7-5.7,5-6.8c4.8-1.1,9.7-1.7,15.9-2.8
		c-3.4,6.1-6.2,11.2-9.1,16.3C81.1,352.5,83.1,352.8,85,353L85,353z"/>
	<path class="st0" d="M82.6,304.7c1.2-1.9,2.2-3.4,3.3-5.1c4.3-0.7,8.7-1.4,13.2-2.1c2.2,1.6,4.4,3.3,7,5.3c-2.7,3.5-5,6.9-7.6,10.1
		c-2.1,2.6-5.2,2.7-7.8,0.3C88.1,310.5,85.5,307.7,82.6,304.7z"/>
	<path class="st0" d="M85,353c-0.9-1-1.7-2-2.8-3.2c2.2-4.2,4.4-8.5,6.7-12.6c1.1-1.9,4.5-2.7,7.2-1.8c1.1,0.4,2,1.2,3,1.8
		c0.2,0.3,0.4,0.5,0.6,0.7c1.3,1.6,2.6,3.2,4.1,5.1c-2.1,2.8-4,5.6-6.1,8.3c-0.5,0.7-1.6,1.3-2.5,1.3C91.8,352.8,88.4,352.9,85,353
		L85,353z"/>
	<path class="st0" d="M113,348c-1.7-1.7-3.4-3.4-5.6-5.7c2.7-2.7,5.4-5.5,8.2-8.2c1.5-1.4,3-0.8,4.4,0.4c3.1,2.7,6.2,5.4,9.5,8.3
		c-2,2.3-4.1,4.6-6.1,7c-1.7,2-3.4,2.2-5.6,0.7C116.3,349.5,114.6,348.9,113,348C113.1,348,113,348,113,348z"/>
	<path class="st0" d="M67.5,319.7c-4.2-4.1-6.9-8.7-4.8-14c1.8-4.5,6.9-4.5,11.1-5.3c3.4-0.7,4.5,1.9,5.8,4.7
		C75.2,309.5,74.6,317,67.5,319.7z"/>
	<path class="st0" d="M75,334c-1.8,1.3-3.7,2.5-5.3,3.7c-0.8-0.6-1.2-0.7-1.3-0.9c-3.9-8.9-4.1-16.2,9.9-18.9
		c1.3-0.3,2.6-0.5,3.9-0.6c2.1-0.1,4.3,0,7.5,0c-3.1,2.8-5.6,5.1-8.2,7.4c-2.5-1.4-4.7-2.6-7.4-4.1c-0.1,3.7,3.6,3.7,4.8,5.4
		C77.6,328.8,76.3,331.4,75,334L75,334z"/>
	<path class="st0" d="M121.4,313.5c3.5-2.6,6.9-5,10.6-7.7c3.9,3.5,7.5,6.6,11.7,10.3c2-1.3,4.4-2.9,7.3-4.8
		c2.7,3.6,5.4,7.2,8.2,10.8c-0.2,0.4-0.4,0.8-0.6,1.1c-1,0-2.2,0.4-2.9-0.1c-10.2-5.9-21.2-8.3-32.9-8.6
		C122.4,314.5,122.1,314.2,121.4,313.5z"/>
	<path class="st0" d="M90.9,42.4c-2.6-3.1-5.1-5.8-7.3-8.7c-2.3-3.1-2-5.5,0.8-8.3c1.4-1.4,2.8-2.8,4.2-4.2c0.2-0.2,0.6-0.3,1.2-0.5
		c2.1,2.6,4.5,5.2,6.4,8c2.5,3.7,2.3,5.1-0.5,8.5C94.2,39,92.6,40.6,90.9,42.4z"/>
	<path class="st0" d="M126,524.9c2.4,0.4,2.9-1.5,3.2-3c1.4-6.1,2.6-12.3,3.9-18.4c0.3-1.6,0.5-3.3,1.1-4.8c0.3-0.7,1.4-1.1,2.1-1.6
		c1.5,2,2.8,3.7,4.3,5.7c-3.7,3.3-3.5,7.2-0.6,11.3c-2.6,3.1-3,6.3,0,9.6c-5.4,1.3-10.4,2.5-15.6,3.7
		C124.8,526.7,125.4,525.9,126,524.9L126,524.9z"/>
	<path class="st0" d="M120,420c1.7-3.5,3.2-6.7,4.9-10.2c2.2-1.1,4.1-0.4,5.8,1.7c2.1,2.6,4.3,5,6.4,7.5c0,0.4,0.1,0.8,0,1
		c-4.1,9.3-6.3,9.7-14.4,2.9C121.8,422.1,121,421,120,420z"/>
	<path class="st0" d="M105,170c-2.3-6.3-8.1-4.8-13.8-5.6c2.6-2.9,4.7-5.3,7.2-8.1c1.8,3,3.3,5.5,5.3,8.9c0.3-4.9-2.8-7.4-4.1-11.4
		c2.5-1.4,5.2-2.9,7.6-4.4c2.9,1.2,3.9,3.3,3.7,5.7c-0.4,5.2-0.8,10.5-5.6,14C105.1,169.3,105.1,169.7,105,170
		C105,170,105,170,105,170z"/>
	<path class="st0" d="M108,326c1.5-2.5,3-5.1,4.6-7.6c0.4-0.6,1.3-1.2,2.1-1.2c6.4-0.2,12.8-0.7,19.7,1.2c-2.5,1.5-4.5,2.7-6.7,4.1
		c-2.5-1.5-4.9-3-7.4-4.5c-0.2,0.2-0.4,0.5-0.6,0.7c1.9,1.6,3.7,3.2,5.7,4.9c-2.2,1.9-4.2,3.7-6.2,5.3c-3.3,2.6-5,2.4-8.1-0.7
		C110.2,327.4,109,326.8,108,326C108,326,108,326,108,326z"/>
	<path class="st0" d="M99,370c-5.4,4-5.4,4-11.9-2c0.9-1.4,1.9-2.8,2.9-4.3c1-1.5,2-3,3.2-4.7c-0.7-1.1-1.4-2.1-2.3-3.3
		c6.7-2.2,9.6,4.3,15.5,5.3C103.5,364.5,101.2,367.2,99,370L99,370z"/>
	<path class="st0" d="M104.6,324.8c-3.7,7.2-6.2,10.5-13.9,4c-1.6-1.4-3.7-2.2-5.6-3.2C91.8,316.2,96.4,312.8,104.6,324.8z"/>
	<path class="st0" d="M127.3,293.7c-4.7,0-9,0-13.8,0c-1.5-3.2-2.9-6.5-4.6-10c4.4-2.9,8.7-2.9,13.1-1.9c1,0.2,2.1,1.3,2.4,2.2
		C125.6,287,126.4,290.2,127.3,293.7z"/>
	<path class="st0" d="M96.9,426.7c0.2,6.4-5.3,7.6-9.4,10.5c-4.7-4.4-4.8-10-4.2-15.6c0.2-1.5,2-2.8,3.2-4.4
		C90.2,420.6,93.6,423.7,96.9,426.7z"/>
	<path class="st0" d="M112,414.1c1.3,2.2,2.7,4.4,4.2,6.9c-1.2,1.8-2.5,3.9-3.9,5.9c-2.1,3.1-5.6,2.6-8.5,2.8c-1.5,0.1-3-1.8-5-3.1
		c2-2.9,3.6-5.1,5.2-7.4c1.6-2.3,3.2-4.5,5-6.9C110,412.9,111,413.4,112,414.1C112,414,112,414.1,112,414.1z"/>
	<path class="st0" d="M118,467c2.7,2.3,5.4,4.7,8.4,7.2c-1,3.2-3.2,5.5-6.8,6.7c-4.5,1.5-9,3.1-14.3,5c1.6-2.9,2.1-5.7,5.6-5.5
		C110.3,476.8,114.4,469,118,467L118,467z"/>
	<path class="st0" d="M106,462c0.7,1,1.4,2.1,2.2,3.2c-0.4,0.4-0.7,0.8-1.1,0.9c-5,1.8-8.2,5.6-11.1,9.8l0,0
		c-2.2-4.4-4.8-8.7-4-13.9c0.5-3.2,1.2-6.2,5-6.9c1.9,1.6,3.8,3.2,5.6,4.8c-0.3,1.8-0.5,3.7-1,6.8C103.7,464.6,104.8,463.3,106,462
		C106,462,106,462,106,462z"/>
	<path class="st0" d="M124.1,459.7c2.9-3.8,5.8-7.6,8.7-11.4c2.9-2.4,4.7-2.5,6.7-0.6c1.9,1.8,2.2,4.6,0.9,7.1
		c-0.9,1.7-1.6,3.5-2.4,5.2L138,460C133.3,463,128.7,461.4,124.1,459.7z"/>
	<path class="st0" d="M88,400c1.7,1.3,3.4,2.6,5.7,4.3c-3.5,4.6-6.9,9-10.6,13.7c-4.8-4.5-4.8-9.4-3.7-14.4
		C80.2,400.4,83.6,399.1,88,400C88,400,88,400,88,400z"/>
	<path class="st0" d="M145.4,519.5c-0.3-1.4-1.1-2.9-0.9-4.2c0.5-5.4,1.2-10.8,2-16.2c0.3-1.8,1.3-3,3.4-2.8
		c2.2,0.2,3.2,1.5,3.2,3.6c-0.1,5.6,0.8,11.4-2.8,16.3c-1,1.4-2.3,2.5-3.5,3.8C146.3,519.9,145.8,519.7,145.4,519.5z"/>
	<path class="st0" d="M141.8,438.2c-2.8,7.9-8.3,8.1-15.9,0.6c3.6-6.4,5.4-8.1,9.5-9.1C137.5,432.6,139.7,435.4,141.8,438.2z"/>
	<path class="st0" d="M165.4,469.5c-3.5-1.6-6.7-3.1-11-5c2.6-2.5,5.5-4.1,6.1-6.3c0.9-3.3,3.3-4.7,5.1-6.9
		C170,454.1,170.1,462.4,165.4,469.5z"/>
	<path class="st0" d="M104.5,126.7c-2.3,2-4.3,3.8-6.6,5.9c-2.6-2.2-5.4-4.5-8.6-7.2c2.2-3.7,4.3-7.4,6.8-11.9
		C99.3,118.4,101.8,122.4,104.5,126.7z"/>
	<path class="st0" d="M98,54c0,4.3-3.6,6.5-5.6,9.4c-0.5,0-0.9,0.1-1.2-0.1c-8.9-6.6-9-8.3-0.7-16.5c1.9,1.4,3.8,2.9,5.8,4.3
		C96.9,52.1,97.4,53.1,98,54z"/>
	<path class="st0" d="M154,449c1.1,2.4,2.2,4.8,3.5,7.5c-1.1,1.7-2.3,3.7-3.7,5.5c-1.8,2.4-3.9,2.2-5.2-0.6
		c-1.3-2.8-2.5-5.7-3.7-8.7C148.3,446.5,149,443.7,154,449L154,449z"/>
	<path class="st0" d="M92.2,67.9c2.5,3.7,4.4,6.6,6.2,9.4c2.3,3.6,3.3,7-1.6,9.9c-3-2.8-6.4-5.8-10-9.1C88.5,75,90.1,72,92.2,67.9z"
		/>
	<path class="st0" d="M158,494.3c2.4-4.4,4.4-8.1,6.3-11.8c8.2,3.3,10,8.1,5.7,14.7c-1.8-0.6-3.6-1.4-5.4-1.8
		C162.7,494.9,160.7,494.7,158,494.3z"/>
	<path class="st0" d="M111.2,493c1.9,1.3,3.9,2.7,5.8,4c-1.6,0.8-3.1,1.9-4.8,2.3c-4.3,1-8.7,1.8-13.1,2.6
		c-2.6-5.7-0.1-10.3,6.9-12.9c0.7,0.6,1.3,1.3,2,1.9c-0.8,2.2-1.7,4.3-2.5,6.5c0.2,0.2,0.5,0.3,0.7,0.5
		C107.9,496.3,109.5,494.7,111.2,493z"/>
	<path class="st0" d="M88,103c2.2-2.8,4.4-5.6,6.6-8.4c0.6-0.7,1.3-1.4,2.1-2.3c1.8,3.5,3.4,6.8,5.3,10.6c-1.7,2-3.6,4.3-5.7,6.8
		C92.9,108.2,90.1,106,88,103L88,103z"/>
	<path class="st0" d="M164.6,430.7c-5-1.4-6.6-5.3-8.8-8.5c-1.1-1.5,2.3-8.6,4.2-8.8c1.4-0.1,3.6,0.8,4,1.8c1,2.3,1.6,5,1.7,7.6
		C165.8,425.3,165.1,427.7,164.6,430.7z"/>
	<path class="st0" d="M82.6,366.8c0.1,1.1,0.6,2.4,0.1,3.2c-2,2.9-4.2,5.7-6.5,8.7c-5.9-5-4-11-3.9-16.5c0-0.7,1.1-1.3,1.7-2
		C76.9,362.3,79.7,364.6,82.6,366.8z"/>
	<path class="st0" d="M130.5,473.1c1.6-2.8,3.2-5.7,5-8.7c1.7-0.1,3.3-0.2,4.4-0.2c2.4,2.5,4.4,4.7,6.4,6.8c-0.3,2.4-1.2,3.8-3.4,4
		C138.7,475.4,134.4,477.2,130.5,473.1z"/>
	<path class="st0" d="M129.9,324.1c7.8-7.1,12.1-6.2,17.7,3.1c-2.4,3.6-6.1,2.2-9.4,2.4C134.1,329.9,133.3,325.7,129.9,324.1z"/>
	<path class="st0" d="M88,103c-4.4-6.9-3.4-14.1-1-22.4c3.3,3.2,6.1,5.9,9.1,8.8c-2.1,2.3-3.7,4.2-5.3,6C89,97.6,87.3,99.9,88,103
		L88,103z"/>
	<path class="st0" d="M93.5,66.1c2.1-2.8,4-5.5,5.9-8.1c3.9,4.3,5.3,14,2.8,21.5C99.3,74.9,96.5,70.7,93.5,66.1z"/>
	<path class="st0" d="M97,494c-1.1-5.7-1.4-11.4,1.2-16.9c0.8-1.8,1.4-3.8,3.8-4.1l0,0c1.5,1.9,3,3.8,4.6,5.9
		C103.6,483.9,101.6,489.7,97,494L97,494z"/>
	<path class="st0" d="M82.6,366.8c-2.8-2.2-5.7-4.5-8.5-6.7c5.3-4.2,12.8-5,16.9-1.2C88.6,362,87.4,366.1,82.6,366.8z"/>
	<path class="st0" d="M104.9,148.3c-2.3,1.2-4.2,2.2-6.6,3.5c-2.5-1.8-5.1-3.6-8.4-6c2.6-3.1,4.8-5.7,7.3-8.7
		C99.8,140.9,102.1,144.3,104.9,148.3z"/>
	<path class="st0" d="M106.3,125.4c-2.2-3.5-4-6.4-5.9-9.3c-2.8-4.3-2.7-5.4,0.9-8.9c0.6-0.6,1.3-1,1.9-1.5
		C108.1,111.3,109.3,118.6,106.3,125.4z"/>
	<path class="st0" d="M146.9,304.8c0.5,1.5,1.1,3.1,1.8,5.3c-1.1,1.2-2.5,2.6-4.2,4.4c-3.9-3.4-7.1-6.2-11.1-9.8
		c3-1.8,5.4-3.2,7.4-4.4c1.9,1.2,3.2,2,4.5,2.8C145.8,303.7,146.4,304.3,146.9,304.8z"/>
	<path class="st0" d="M147,426c-2-2.4-4.1-4.8-6.4-7.4c1.4-2.8,1.5-6.4,5.1-8.9c2,3.5,4.1,6.7,5.7,10.1
		C152.8,422.8,150.5,425.7,147,426L147,426z"/>
	<path class="st0" d="M97.2,425.1c-2.7-3-5.1-5.7-7.8-8.8c4.9-3.3,10.5-3,17.2-3.9C103.3,416.9,100.6,420.5,97.2,425.1z"/>
	<path class="st0" d="M102.7,460c-1.9-1.6-3.8-3.2-5.6-4.8c0.1-0.5,0.1-1,0.4-1.4c2.7-4.1,12.6-7.2,17.5-5.7l0,0
		c-3.6,1.6-5.6,4.8-7.8,7.8C106,457.4,104.2,458.6,102.7,460z"/>
	<path class="st0" d="M151.6,328.2c2.5-2.5,5.1-3.4,8.2-1.9c3.3,1.6,5.9,7.2,5.4,12.6C160.4,335.4,154.1,334.9,151.6,328.2z"/>
	<path class="st0" d="M105.4,145.5c-2.3-3.5-4.3-6.6-6.9-10.5c2.2-2.3,4.2-4.3,6.2-6.5C110,134.9,110.2,141.7,105.4,145.5z"/>
	<path class="st0" d="M137,363c2.1-2.4,4.1-5,6.3-7.2c0.4-0.4,1.8,0.1,2.7,0.2c1.6,1.3,3.2,2.7,4.9,4c1.2,3.8-2.6,4.5-4.2,6.4
		c-1.4,1.6-3.3,0.2-4.9-0.8C140.2,364.6,138.6,363.8,137,363L137,363z"/>
	<path class="st0" d="M90.8,18.4c2.1-2.3,4-4.3,6.3-6.7c2.2,6.7,5.5,12.8,2.8,19.6C97,27.1,94.1,23,90.8,18.4z"/>
	<path class="st0" d="M98,54c-0.6-0.9-1.1-1.9-1.7-2.8c-1.3-2.1-2.7-4.1-4.2-6.5c2.2-2.6,4.4-5,6.6-7.5C103.1,42.9,102.8,48.3,98,54
		z"/>
	<path class="st0" d="M82.2,53.5c-3.3-6.3-1.7-11.9,0.4-18.8c2.3,3,4.1,5,5.5,7.4c0.5,0.8,0.3,2.6-0.3,3.5
		C86.2,48.2,84.2,50.6,82.2,53.5z"/>
	<path class="st0" d="M67.2,199.2c-1.5,1.2-2.8,2.2-4.6,3.6c-0.4-2-1.1-3.6-1.1-5.1c-0.1-8.9,0-17.7,0-24.5
		C63,180.4,65.1,189.6,67.2,199.2z"/>
	<path class="st0" d="M83,9c1.8-0.7,3.7-1.4,5.5-2.1c4.4-1.7,4.4-1.7,8,2.6c-1.1,1.1-2.2,2.2-3.2,3.4c-1.1,1.2-2.1,2.5-3.3,4
		c-2.6-2-4.7-3.5-6.6-5.3C82.9,11.1,83.1,9.9,83,9L83,9z"/>
	<path class="st0" d="M118,467c0.8-0.9,1.5-2.5,2.4-2.6c4-0.7,8.1-1,12.2-1.4c0.2,0.4,0.5,0.8,0.7,1.2c-1.6,2.6-3.1,5.1-5,8.1
		C124.7,470.4,121.3,468.7,118,467C118,467,118,467,118,467z"/>
	<path class="st0" d="M99,370c1.5-1,3-1.9,4.4-3c1.4-1.1,2.7-2.4,4.5-4.1c3,2,6,3.9,9.7,6.3c-5.9,1.9-11.3,2.2-16.6,2.5
		C100.4,371.8,99.7,370.6,99,370C99,370,99,370,99,370z"/>
	<path class="st0" d="M103.3,84c2.5,5.9,3.1,11.2,1.6,16.9C98.1,97,97.2,90.2,103.3,84z"/>
	<path class="st0" d="M88.8,127.6c2.6,2.2,5.2,4.4,8,6.8c-2.6,2.9-4.9,5.5-7.5,8.4c-2.6-5-2.2-9.9-1.7-14.7
		C87.9,127.9,88.4,127.7,88.8,127.6z"/>
	<path class="st0" d="M139.7,526.3c-5.8,4.9-10.9,9.2-16,13.6c0.3,0.3,0.6,0.7,0.9,1c0.2-2.6,0.2-5.2,0.7-7.8
		c0.3-1.3,1.2-2.9,2.3-3.5C130.9,527.7,134.6,526.2,139.7,526.3z"/>
	<path class="st0" d="M86.2,105.2c3.2,2.6,5.6,4.6,8.3,6.8c-2,3.4-3.9,6.6-6,10.4C84.9,116.9,86.4,111.5,86.2,105.2z"/>
	<path class="st0" d="M75,334c1.6-1.6,3.3-3.2,4.8-4.9c1.5-1.8,3-2.4,5.1-1.1c2.3,1.3,4.6,2.6,6.9,4.9c-5.2,0.8-10.4,1.7-15.6,2.5
		C75.9,335.4,75.4,334.5,75,334L75,334z"/>
	<path class="st0" d="M131.8,343.9c3.7,2.6,6.9,4.9,10.5,7.6c-6.2,0-11.7,0-16.9,0C127.5,349.1,129.4,346.7,131.8,343.9z"/>
	<path class="st0" d="M83.4,59.2c2.3,2.2,4.6,4.4,7.2,6.9c-1.5,3.2-3,6.2-4.4,9.3c-0.4-0.1-0.7-0.1-1.1-0.2c-1.6-5-3.1-10-2.7-15.3
		C82.7,59.6,83.1,59.4,83.4,59.2z"/>
	<path class="st0" d="M88.4,162.1c-0.2-4.4-1.4-9,1.8-13.7c2.4,1.8,4.6,3.4,7.2,5.3c-2.9,3.2-5.4,6-7.8,8.8
		C89.1,162.3,88.8,162.2,88.4,162.1z"/>
	<path class="st0" d="M75.4,314.6c1.8-2.7,3.6-5.3,5.8-8.5c2.7,2.9,5.1,5.5,7.7,8.3c-4.4,0.4-8.7,0.8-13,1.2
		C75.7,315.3,75.5,315,75.4,314.6z"/>
	<path class="st0" d="M113.1,348c0.9,1.1,1.7,2.3,2.8,3.6c-5.3,0-10.3,0-16.3,0c2.3-2.7,4.2-5,6.2-7.3
		C108.3,345.7,110.7,346.8,113.1,348C113,348,113.1,348,113.1,348z"/>
	<path class="st0" d="M81,25.9c-2.6-5.3-2.5-9.5,0.5-13.6c2,1.9,4,3.8,6.4,6C85.5,21,83.4,23.3,81,25.9z"/>
	<path class="st0" d="M159,402c0.8-2.2,1.7-4.5,2.5-6.7c5.7,2.3,7.4,6.8,5,11.9C164.1,405.4,161.5,403.7,159,402L159,402z"/>
	<path class="st0" d="M99.9,354.6c4.9,0,9.8,0,15.9,0c-3,2.2-5.4,4-7.9,5.9c-2.9-1.6-5.6-3.1-8.3-4.7
		C99.6,355.4,99.7,355,99.9,354.6z"/>
	<path class="st0" d="M114.8,431.9c-0.3-0.3-0.5-0.6-0.8-0.9c4.7-0.3,9.4-0.7,14.1-1c0.2,0.4,0.3,0.8,0.5,1.2c-1.6,2-3.1,4-4.7,6.1
		C120.7,435.4,117.8,433.6,114.8,431.9z"/>
	<path class="st0" d="M102,473c2.6-4.2,6.6-6,11.1-4.5c-1.6,2.7-3.1,5.3-4.8,8.3C105.8,475.4,103.9,474.2,102,473L102,473z"/>
	<path class="st0" d="M99.7,337.9c-0.2-0.2-0.4-0.4-0.6-0.7c-0.2-2.1,0.9-2.9,3-3c3.5-0.1,6.9-0.4,9.2-0.5c-1.5,1.9-3.5,4.6-5.5,7.2
		C103.5,339.7,101.6,338.8,99.7,337.9z"/>
	<path class="st0" d="M88,400c-0.4-0.7-0.7-1.4-1.5-2.9c3.9-1,7.6-2,11.4-3c-0.1,4.3-0.1,4.3-3.4,7.9C92.3,401.3,90.2,400.6,88,400
		C88,400,88,400,88,400z"/>
	<path class="st0" d="M126.8,300.7c-1.2-0.9-2.5-1.7-3.7-2.6c-0.3-1.1-0.3-2.1,1.2-1.8c4.5,0.8,9,1.7,13.8,2.6
		C134.4,302.7,130.8,303.2,126.8,300.7z"/>
	<path class="st0" d="M164,412c-3.1-1.1-6.2-2.1-10.1-3.5c1.9-2.5,3.5-4.5,5.1-6.5l0,0c2.1,2.4,4.3,4.9,6.4,7.4
		C164.9,410.3,164.5,411.2,164,412C164,412,164,412,164,412z"/>
	<path class="st0" d="M150,376c-1.3-1.7-2.6-3.3-4-5c3.8-1.2,4.8-1.1,12.6,1C156.4,375.1,153.9,376.9,150,376L150,376z"/>
	<path class="st0" d="M112,414c0-0.7,0-1.3,0-2.6c3.2-0.5,6.4-1,10.8-1.7c-2.1,3.5-3.5,6-5.1,8.6C115.6,416.8,113.8,415.4,112,414
		C112,414.1,112,414,112,414z"/>
	<path class="st0" d="M160.7,476.6c1.3-2.3,2.1-3.6,3.1-5.4c5,2.2,4.5,6.8,5.2,11.3C166.3,480.6,163.7,478.7,160.7,476.6z"/>
	<path class="st0" d="M138,459.9c1.7-1.5,3.3-3,5.6-5c1.3,2.5,2.4,4.6,3.6,6.9C141.4,463.7,139.5,463.2,138,459.9L138,459.9z"/>
	<path class="st0" d="M132.1,409.5c3.2,0,6.1,0,9.8,0c-1.1,2.6-2,4.8-3.3,7.7C136.2,414.3,134.2,412,132.1,409.5z"/>
	<path class="st0" d="M147.6,429.6c-1.5,2.9-2.6,4.9-4.1,7.7c-2.3-2.8-4-4.9-6.3-7.7C140.8,429.6,143.5,429.6,147.6,429.6z"/>
	<path class="st0" d="M153,468c1.2,2.6,2.3,5.2,3.5,8c-3.5,0.3-6-1.4-7.4-4c-0.6-1,0.2-3,0.7-4.4C149.9,467.4,151.9,467.8,153,468
		L153,468z"/>
	<path class="st0" d="M155.2,500.8c0.5-1.1,0.7-2.9,1.4-3.1c3.1-0.9,6.4-0.8,9.5,1.9c-3.3,0.9-6.5,1.7-9.8,2.6
		C155.9,501.7,155.5,501.2,155.2,500.8z"/>
	<path class="st0" d="M89.8,412.6c2.4-3,4-5,5.9-7.3c1.9,1.6,3.7,3,5.8,4.8C97.6,411,94.3,411.7,89.8,412.6z"/>
	<path class="st0" d="M153.4,418.9c-1.9-3.2-3.4-5.6-5.3-8.8c3.6,0.8,6.3,1.4,9.4,2.1C156,414.5,154.9,416.3,153.4,418.9z"/>
	<path class="st0" d="M154,449c0.4-1.8,1.6-2,3-1.6c2.2,0.5,4.4,1.2,6.8,1.8c-1.8,1.8-3.4,3.4-4.9,5
		C157.3,452.5,155.6,450.7,154,449L154,449z"/>
	<path class="st0" d="M106.5,323.4c-2.1-2.1-3.8-3.7-6-5.9c3.6,0,6.6,0,10.7,0C109.4,319.7,108.1,321.4,106.5,323.4z"/>
	<path class="st0" d="M126.3,427.6c-4.2,0-7.6,0-11.8,0c1.5-2,2.6-3.5,4-5.3C121.1,424,123.4,425.6,126.3,427.6z"/>
	<path class="st0" d="M121.8,330c4.8-5.7,6.7-5.8,11.2-0.7C129.1,329.5,125.9,329.7,121.8,330z"/>
	<path class="st0" d="M147,426c-3.2,0.4-6.4,0.8-10.9,1.3c1.4-2.7,2.2-4.3,3.1-6C142.1,423,144.6,424.5,147,426L147,426z"/>
	<path class="st0" d="M150.8,359.9c-1.6-1.3-3.2-2.7-4.9-4c3.6,0.3,7.3,0.7,11.5,1.1C155.4,359.8,153.5,360.7,150.8,359.9z"/>
	<path class="st0" d="M112.1,296.4c-3.9,5.3-4.8,5.4-10.1,1c1.8-0.4,3.3-0.8,4.8-1C108.4,296.3,110,296.4,112.1,296.4z"/>
	<path class="st0" d="M153,468c3.6-1.8,5.6,1.5,9,2.5c-1.1,1.6-1.9,2.8-2.8,4.2C156.9,472.2,154.9,470.1,153,468L153,468z"/>
	<path class="st0" d="M146.9,304.8c-0.5-0.6-1.1-1.1-1.6-1.7c-0.1-0.5-0.3-0.9-0.5-1.9c4,0.7,7.1,2.8,10.2,4.7l0,0
		c-1.3,0.6-2.7,1.2-4.2,1.8C149.5,306.8,148.2,305.8,146.9,304.8z"/>
	<path class="st0" d="M108,326c0.7,1.4,1.5,2.9,2.6,5c-2.7,0.4-4.9,0.7-7.9,1C104.1,329,104.9,326.5,108,326L108,326z"/>
	<path class="st0" d="M126,484c-0.1-0.8-0.2-1.6-0.5-3.2c2.8-0.6,5.6-1.2,8.5-1.8c0,0,0,0,0,0c-1.5,1.9-3,3.8-4.6,5.7
		C128.2,484.4,127.1,484.2,126,484C126,484,126,484,126,484z"/>
	<path class="st0" d="M146.9,407.4c-2.6-0.2-5.2-0.5-8.4-0.8c0.9-1.6,1.5-2.8,2.6-4.7c2.3,1.8,4.3,3.3,6.2,4.7
		C147.2,406.9,147.1,407.2,146.9,407.4z"/>
	<path class="st0" d="M85.6,369.8c1.8,1.1,3.2,2,5.5,3.5c-3.7,0.9-6.2,1.5-9.8,2.4C83.1,373.4,84.2,371.8,85.6,369.8z"/>
	<path class="st0" d="M108,490.9c-0.7-0.6-1.3-1.3-2-1.9c2.8-2.7,6.2-3.8,10-4l0,0C113.3,487,110.6,488.9,108,490.9z"/>
	<path class="st0" d="M137,363c0.9,1.1,1.8,2.3,2.9,3.7c-3.1,0.2-5.9,0.4-8.8,0.6c-0.1-0.3-0.3-0.6-0.4-0.9
		C132.8,365.3,134.9,364.2,137,363L137,363z"/>
	<path class="st0" d="M25.4,777.7c-6.5-1.2-7-1.7-7-6.3C23.8,772.7,24.2,773.1,25.4,777.7z"/>
	<path d="M419.4,311.3c4.7,0.1,6.8,2.2,7.5,5.3c0.8,3.1,0.8,6.5-2,8.7c-1.6,1.2-4.3,2.2-6.2,1.8c-2.7-0.6-3.3-3.7-2.7-6.2
		C416.8,317.7,418.2,314.6,419.4,311.3z M425.1,319.9c-0.1-1.2,0-2-0.3-2.5c-0.8-1.3-1.8-2.4-2.8-3.6c-1.2,1-3,1.7-3.6,3
		c-0.7,1.6-0.7,3.6-0.5,5.4c0.1,1.2,1.1,3.2,1.6,3.1c1.5-0.1,3.2-0.7,4.2-1.8C424.8,322.6,424.9,320.9,425.1,319.9z"/>
	<path d="M433.7,118.5c-4.6,4.4-8.8,8.2-15.1,9.1c-2.9,0.4-4.9-0.4-6.4-2.6c-1.3-2-2.3-4.2-3.3-6C416.7,115.5,425,116.8,433.7,118.5
		z M426.5,120.1c-4.4-1.1-8.2-1.8-12.2,0.2c0.2,1.8,0.4,3.2,0.6,4.6C421.5,125.9,424.6,124.8,426.5,120.1z"/>
	<path d="M447,98.8c-6.6,2-13.1-3.6-20.4,0.1c0.5-3.1,2.2-4.6,4.6-4.3c5.3,0.7,10.6,1.8,15.9,2.8C447,97.9,447,98.4,447,98.8z"/>
	<path d="M414.2,108c0.4-3.3,2.4-4.8,5.1-5.1c3.8-0.4,6.7,1.4,8.8,4.5C423.4,106.6,418.8,102.3,414.2,108z"/>
	<path d="M431,256c0.4,3.5,0.4,7.1-1.6,10.1c-0.8,1.2-2.6,2.7-3.8,2.6c-1.2-0.1-2.8-1.9-3.1-3.2c-0.6-2.2-0.5-4.6-0.4-6.8
		c0-0.8,1.1-1.5,2.3-2.1c-1.2,3.7-1.6,7.1,1.2,10c5.3-3.9,4.6-10-1.5-13.1C427.5,251.7,429.2,253.9,431,256L431,256z"/>
	<path d="M156,567c-3.9,1.6-7.9,2.4-12.1,1c-1.3-0.4-2.9,0.4-4.6,0.7c0-0.3,0.1-0.8,0.1-1.4c-0.7,0-1.4,0-2.1,0
		c2-6.9,7.9-7.9,13.5-8.8c1.9-0.3,4.2,0.9,6,1.9c0.8,0.4,1.2,2.3,1.1,3.4C157.8,564.9,156.7,565.9,156,567C156,567,156,567,156,567z
		 M143.6,564.1c0.1,0.5,0.2,1,0.4,1.5c2.6,0.1,5.2,0.3,8.2,0.4c-0.9-2.4-1.5-4-2.3-6.1C147.6,561.5,145.6,562.8,143.6,564.1z"/>
	<path d="M148.5,539.1c4.1-0.3,7.9-0.5,11.6-0.7c1,3.8,0.9,3.9-2,4.3C154.4,543.1,151.2,542.6,148.5,539.1z"/>
	<path d="M156,567c1.1,0.5,2.1,1,4.3,2c-4.6,2.7-8.2,4.8-11.9,7c0.1-2.4,0.1-2.4,3-4.8C152.9,569.9,154.5,568.4,156,567
		C156,567,156,567,156,567z"/>
	<path d="M95,386.5c0.4,0.6,0.8,1.2,0.9,1.4c-2.5,1.1-4.9,2.2-7.8,3.5c0.9-1.5,1.7-2.7,2.6-4.2c-3.1-1.7-6-3.4-8.9-5
		c0.1-0.3,0.3-0.5,0.4-0.8c3.4,1.5,6.8,2.9,10.6,4.6c3-3.7,5.8-7.2,8.7-10.7c0.3,0.2,0.6,0.4,0.8,0.6
		C99.9,379.4,97.5,382.9,95,386.5z"/>
	<path d="M143,371c-2.9,2.4-5.8,4.8-8.9,7.4c1.7,1.4,3.5,3,5.4,4.6c-3.8-0.2-6.4-5.5-10.9-1.4C131.7,375.5,137.9,374.1,143,371
		L143,371z"/>
	<path d="M126,484c1.1,0.2,2.2,0.4,3.4,0.7c1.5-1.9,3.1-3.8,4.6-5.7c1.8,1.9-0.2,3.1-1,4.2c-1.5,2-2.5,3.9-0.1,6.6
		c-1.6-0.4-2.4-0.7-3.4-0.9c-1.1,1.4-2.3,2.9-4,5c-0.9-3.3,1.6-4.7,2-6.9C127.1,486,126.5,485,126,484z"/>
	<path d="M108,490.9c2.7-2,5.3-4,8-5.9c1.7,0.2,1.3,0.9,0.5,1.8c-1.8,2-3.5,4.1-5.3,6.2c-1.7,1.6-3.3,3.3-5,4.9
		c-0.2-0.2-0.5-0.3-0.7-0.5C106.3,495.2,107.2,493.1,108,490.9z"/>
	<path d="M145,352c2.4-2.9,4.9-5.7,7.5-8.8c-1.4-1.6-2.8-3.2-4.1-4.8c0.1-0.2,0.3-0.4,0.4-0.6c1.6,1.2,3.2,2.5,4.9,3.8
		c1.3-0.6,2.6-1.2,3.9-1.8C154.6,345.4,150.5,349.4,145,352C145,352,145,352,145,352z"/>
	<path d="M102.7,460c1.5-1.4,3.3-2.6,4.4-4.2c2.2-3,4.2-6.2,7.8-7.8c-1.6,2.3-3.2,4.5-4.7,6.8c-1.5,2.4-2.9,4.8-4.3,7.2
		c-1.1,1.3-2.3,2.6-4.2,4.7C102.2,463.6,102.5,461.8,102.7,460z"/>
	<path class="st0" d="M425.1,319.9c-0.3,0.9-0.3,2.7-1.2,3.6c-1,1-2.8,1.6-4.2,1.8c-0.5,0-1.5-2-1.6-3.1c-0.2-1.8-0.2-3.8,0.5-5.4
		c0.6-1.3,2.3-2,3.6-3c0.9,1.2,2,2.3,2.8,3.6C425.2,317.9,425,318.7,425.1,319.9z"/>
	<path class="st0" d="M426.5,120.1c-1.9,4.7-5,5.9-11.5,4.8c-0.2-1.3-0.4-2.8-0.6-4.6C418.3,118.2,422.1,119,426.5,120.1z"/>
	<path class="st0" d="M143.6,564.1c2-1.3,3.9-2.6,6.3-4.2c0.8,2.1,1.4,3.7,2.3,6.1c-3-0.2-5.6-0.3-8.2-0.4
		C143.9,565.1,143.8,564.6,143.6,564.1z"/>
</g>
</svg>
