<?xml version="1.0" encoding="utf-8"?>
<!-- Generator: Adobe Illustrator 22.1.0, SVG Export Plug-In . SVG Version: 6.00 Build 0)  -->
<svg version="1.1" id="Layer_1" xmlns="http://www.w3.org/2000/svg" xmlns:xlink="http://www.w3.org/1999/xlink" x="0px" y="0px"
	 viewBox="0 0 612 792" style="enable-background:new 0 0 612 792;" xml:space="preserve">
<style type="text/css">
	.st0{fill:#FFFFFF;}
	.st1{fill:none;}
</style>
<g>
	<path d="M1,540c0-2.3,0-4.7,0-7c3,3.8,5.8,7.8,9,11.3c8.5,9.1,24.9,13.2,36.8,8.6c-3.2-2.9-5.8-5.5-8.7-7.7
		c-10.6-8.2-9.1-21.9,3-27.2c1.7-0.7,3.4-1.2,5.2-1.9c9.1-3.3,18.4-4.9,29.4-1.7c-10.9-14.6-15.6-29.6-17.4-45.5
		c-12.7,0-11-11.6-14.7-18.2C27,453.3,14,461.5,4.6,475.3c-1.1,1.6-2.4,3.2-3.6,4.7c0-2.3,0-4.7,0-7c2.8-3,5.3-6.2,8.3-8.9
		c4.3-3.9,8.9-7.5,13.5-11.4c-7.4-0.6-14.7-1.1-21.9-1.7c0-1.3,0-2.7,0-4c14.2,2.2,28.3,2.9,42.4,0.1c0.2-0.7,0.4-1,0.4-1.3
		c0-1.5,0-3,0-4.5c0.2-21.7,4.3-42.5,17.2-60.5c2.9-4.1,3.5-7.9,2.9-12.5c-4.6-32.8-8.9-65.7-13.9-98.4
		c-3.8-25.3-8.5-50.6-12.8-75.8c-1.3-7.4-4.9-13.7-10.2-19.1c-4.7-4.8-8-5.5-13.1-1.5C9.1,177.2,5.2,181.8,1,186c0-2,0-4,0-6
		c3.7-3.3,7.2-7,11.2-9.9c5.9-4.2,10-4.1,15.3,0.7c3,2.7,4.9,2,7.7,0.2c25.6-17.1,51.3-34,76.8-51.2c42-28.2,84-56.6,126-85
		c6.3-4.3,12.5-8.8,18.9-13.3c-1.4-2.8-2.8-5-3.7-7.5c-1.1-3.1-2.8-3.3-5.8-2.4C189.4,28.3,131.4,44.8,73.5,61.6
		C49.2,68.6,25.2,76.5,1,84c0-1.3,0-2.7,0-4c1-0.2,2-0.3,2.9-0.5c73.4-21.7,146.8-43.4,220.3-65c8.4-2.5,16.9-4.8,25.6-7.3
		c-0.7-2.4-1.2-4.3-1.7-6.2c1.3,0,2.7,0,4,0c4.4,15.7,13.3,28.1,27,37c23.2,15.1,48.8,23.4,76.3,26c22.6,2.2,44.9-0.3,66.9-5.2
		c17.7-3.9,34.5-10.1,49.3-20.9c13-9.4,22.6-21.5,27.5-36.9c1.3,0,2.7,0,4,0c-1.1,3.2-2.2,6.4-3.3,9.8c1.3,0.3,2.3,0.6,3.3,0.8
		c23.4,4.2,46.8,8.5,70.2,12.5c13.3,2.3,26.6,4,39.9,6c0,1.3,0,2.7,0,4c-25.6-4.2-51.3-8.3-76.9-12.6c-11.8-2-23.6-4.2-35.4-6.5
		c-5.4-1.1-5.6,3.8-7.5,6.4c-0.8,1.1-0.3,4,0.7,5.4c3.7,5.3,7.8,10.4,11.8,15.5c13.1,16.3,26.3,32.6,39.7,49.2c1-2.3,1.6-4.2,2.5-6
		c0.8-1.8,1.7-3.6,2.7-5.3c3.7-5.8,7.3-6.7,13.5-4.1c9.2,3.9,13.8,11.7,17.7,20.1c9.1,19.6,16,39.9,20,61.1
		c1.4,7.4,6,12.2,11.1,16.9c0,2,0,4,0,6c-2.6-2.9-5.2-5.8-8.2-9.1c2.8,12.9,5.5,25.5,8.2,38.1c0,6.7,0,13.3,0,20
		c-0.3-0.8-0.7-1.5-0.8-2.3c-3.7-18.9-7.5-37.9-11.2-56.8c-4.9-25.3-11.6-50-23-73.1c-2.5-5.1-5.8-10.3-10-14.1
		c-8.3-7.4-13-6.3-16.5,4.1c-3.9,11.6-7.8,23.5-9.3,35.6c-5.6,45.2-10.2,90.5-15.3,135.8c-1.9,16.5-3.3,33.2-6.3,49.5
		c-3.9,21.6-3.8,43.4-4.3,65.2c0,1.1,1,2.9,2,3.3c6.5,2.2,13.2,4.1,19.9,6.1c-2-12.4,3.7-23.3,14.9-29c3.9-2,9.6-3.2,11.1-6.3
		c1.5-3.4-1-8.6-1.7-13c-3.8-24.4,6.8-39.8,26.9-44c1.3-0.3,3-1.7,3.4-2.9c1.4-4.3,4.6-4.9,7.9-3.5c4.3,1.7,8.2,4.2,12.3,6.4
		c0,1.7,0,3.3,0,5c-3.9-2.5-7.7-5.2-11.8-7.3c-1.1-0.6-4.4,0.1-4.5,0.6c-0.9,4.5-4.4,4.9-7.8,5.7c-14.2,3.5-22.2,12.3-23.2,26.9
		c-0.4,6.2,0.7,12.6,1.8,18.7c1.9,10.2,1.5,11.6-8.2,15.1c-8.9,3.2-15,9.1-17.8,18.1c-2,6.6,0.2,11.2,6.2,14.5
		c7.6,4.1,15.3,8.1,22.5,12.9c9.9,6.7,19.1,14.5,22.9,26.2c2.6,8,6.5,15.1,10.5,22.4c3.6,6.5,6.3,13.5,9.5,20.2c0,5,0,10,0,15
		c-10.6-11.2-45.2-13.2-60.5-2c3.5-6,9.6-8.1,15.6-9.7c13.9-3.8,27.8-4.4,41.4,2c0.3-0.3,0.7-0.7,1-1c-3.8-9.2-7.6-18.4-11.7-28.5
		c-1.6,5.6-2.5,10-4.2,14c-2.9,6.7-6.3,8.1-13.5,7.3c-9.4-1.1-17.7-4.7-24.9-10.6c-4-3.3-7-2.9-10.2,0.7c-1.4,1.6-3.3,3.1-4,5
		c-0.6,1.8-0.3,4.3,0.5,6.1c1.9,3.8,4.3,7.4,6.7,11c0.9,1.3,2.3,2.3,3.4,3.5c-0.1,2.3-0.8,4.6-0.4,6.8c1.6,7.6,1.8,14.8-3,21.5
		c-2.1,2.9-3.7,6.3-5.2,9.6c-0.5,1.1-0.7,2.9-0.2,4c4.9,10.1,3.9,17.2-3.8,25.4c-6.8,7.4-15.2,12.2-24.4,16c-8.9,3.7-17.5,8-26,12.7
		c-4.6,2.5-8,6.6-7.9,12.5c0.2,5.5,4.8,8.1,10.1,6.9c5.9-1.4,12-2,18-2.5c11.9-1,23.9-1.1,35.7-2.7c6-0.8,11.9-3.5,17.4-6.2
		c7.6-3.7,15.1-7.8,22.1-12.5c14.2-9.6,23.3-22.6,25.3-40c0.6-5.1,1.7-10.1,2.6-15.2c0,7.7,0,15.3,0,23
		c-6.7,24.9-26.1,37.3-47.1,48.8c5.7-0.5,10.9-2.1,16.1-3.5c5.2-1.5,10.4-2.9,15.6-4.3c0.2,0.7,0.4,1.4,0.7,2.1
		c-7.6,2.8-15.1,5.6-23.5,8.6c4.4,1.5,8.1,2.5,11.6,4c3.2,1.3,5.8,1.2,8.9-0.6c3-1.8,6.5-2.9,9.8-4.3c0.2,0.4,0.4,0.8,0.7,1.2
		c-1.5,1.1-3,2.3-4.6,3.2c-1.8,1-3.6,1.9-6,3c9.6,3.2,12.7,3.1,17.8-0.2c0,3.3,0,6.7,0,10c-3-1-6-2.1-9-2.9
		c-13.2-3.4-26.3-3.3-39.4,0.6c-5.8,1.8-8.7,5.8-10.1,11.3c-1.5,6.2,1.9,9.9,8.2,9.7c8.1-0.2,16.4-0.5,24.4,0.4
		c12.9,1.4,19.5,11,16.1,23.4c-2.9,10.6-3.7,21.3-2.8,32.2c0.5,6.5,1.5,12.9,2.2,19.4c0.7,7.1,1.3,14.3,2,21.4
		c-0.8,0.1-1.5,0.2-2.3,0.3c-0.9-5.3-1.9-10.5-2.6-15.8c-2.7-20.1-5.7-40.2,0.4-60.4c2.4-7.9-2.6-14.2-11.3-16.4
		c-2.6-0.7-5.3-0.9-7.9-1.1c-16.3-1.1-32.2,1.5-47.9,6c-2.7,0.8-5.2,2.2-8.3,3.5c5.8,3,10.4,5.4,14.9,7.8c6.9-6.3,15.3-8.3,24-9.1
		c5.7-0.6,11.8-0.4,17.2,1.1c7,1.9,7.6,8,1.5,12.1c-3.1,2.1-6.8,3.6-10.5,4.4c-7.3,1.6-14.8,2.4-22.1,3.7c-2.5,0.4-5.4,1.3-4.4,4.7
		c0.8,2.9,1.3,6.5,5.9,6c0.9-0.1,1.9,0.5,2.1,0.5c-1.2,3-3,5.6-3.1,8.1c-0.1,2.8,1.3,5.7,2.3,9.5c-4.2,5.1-0.7,11.9-1.3,18.8
		c3.4-0.8,6.1-1.4,8.7-2c0.2,0.8,0.4,1.5,0.6,2.3c-11.1,6.4-23.8,8.6-36.1,11.6c-12.9,3.1-26.1,4.9-39.8,3.5
		c1.4,5.7-1.1,7.5-6.2,7.9c-8.9,0.6-16.8,4.2-23.9,9.4c-8.7,6.5-9.7,15.8-8.6,25.7c0.9,8.4,7.5,11.9,14.2,13.6
		c8.3,2.1,17.1,3.8,25.5,3.2c18.4-1.4,36.7-4.1,55-6.9c11.8-1.8,23.8-3.2,33.5-11.6c1.2-1,4.5,0.1,6.8,0.5c1.7,0.3,3.5,1.8,4.8,1.4
		c10.4-3.5,19.5-10.2,17.8-23.5c-0.6-4.4-0.9-8.9-1.4-12.8c3.9,0.2,7.4,0.5,10.9,0.7c0,1.3,0,2.7,0,4c-2.2,0-4.5,0-6.7,0
		c-0.4,7.7-0.3,7.9,6.7,9c0,1,0,2,0,3c-1.8,0.1-3.6,0.2-5.7,0.3c0,5.4,0.4,10.7-0.1,15.9c-0.4,3.6-0.9,8.2-3.2,10.5
		c-7.9,8.1-18.5,9.4-29.3,9.6c-1.8,0-3.7,0.7-6.5,1.3c4.9,3.4,8.4,5.9,11.8,8.3c-2,0-4,0-6,0c-3.5-1.9-7.2-5.8-10.5-5.5
		c-8.3,0.8-16.3,3.5-24.5,5.5c-7.7,0-15.3,0-23,0c5.2-1,10.5-1.8,15.6-3c10.1-2.4,20.2-4.9,30.2-7.6c3.4-0.9,6.5-2.7,9.9-3.9
		c1.1-0.4,2.5,0.1,3.7,0.3c1.1,0.2,2.2,1.2,3.1,1c6.3-1.6,12.7-2.7,18.6-5.2c6.5-2.8,7.9-7.7,5.8-14.7c-4.1,2.7-8,5.8-12.3,8.2
		c-3.7,2-7.6,3.4-11.7,0.1c-0.8-0.6-3.1-0.5-3.9,0.2c-8,7.3-18.2,8.8-28.1,10.6c-15.1,2.7-30.2,5.2-45.5,6.6
		c-11.4,1.1-23,1.2-34.3,0c-6.9-0.7-13.4-4.6-20.3-7.1c2.4,6.9,9,10,14.2,14.5c-2,0-4,0-6,0c-3.9-4.4-9.8-8.3-11.2-13.4
		c-2.1-7.8-1.8-16.5-1.3-24.7c0.6-8.6,5.4-15.6,13.3-19.3c7-3.3,14.6-5.3,21.9-7.9c1.5-0.5,2.9-1.2,4.3-1.8
		c-0.8-1.5-1.2-3.4-2.4-4.5c-7.1-6.3-14.4-12.4-21.7-18.5c-2.8-2.4-5.2-4-9.9-3.8c-15.7,0.8-28.4-6.5-38.7-18
		c-5.2-5.8-6.6-13-6.2-20.5c0.3-4.6-1.4-7.6-4.7-10.7c-15.7-14.9-31-30.2-46.6-45.2c-1.5-1.5-3.7-2.6-5.8-3
		c-10.3-2.1-20.7-3.3-30.8-6c-10.7-2.9-11.8-10-3.5-17.3c7.1-6.2,15.5-9.4,24.8-10.4c1.8-0.2,3.7-0.5,5.5-0.7
		c-0.1-0.8-0.2-1.5-0.3-2.3c-24,0.7-47.6,5.7-72.1,7.6c5.2,8.1,10.3,15.2,14.6,22.7c19,33.4,37.6,67.2,56.7,100.5
		c18.7,32.6,38.1,64.9,57.1,97.3c-1.3,0-2.7,0-4,0c-12.6-21-25.6-41.7-37.7-62.9c-29-50.9-57.6-102.1-86.3-153.3
		c-1.8-3.1-3.6-3.9-7.1-3.4c-27.8,3.3-55.5,6.6-83.4,9.2c-6.6,0.6-10.8,1.7-12.7,8.7c-1.2,4.2-4.1,8-6.3,12
		c-0.4-0.2-0.8-0.4-1.2-0.6c5.2-10.1,10.4-20.3,12-31.4c-5.7,0.9-11,2.3-16.2,2.4c-16,0.4-32,0.5-48,0.4c-9.7,0-19.3-1-26.9-10
		c0,2.7,0,4.3,0,5.8c0.1,13.4,4.6,25.8,9.3,38.1c2.5,6.5,6.5,11.1,14.1,11.3c7.6,0.2,15.3,0.5,22.9,0.7c11.6,0.3,21.3-4,29.7-11.7
		c0.4-0.4,0.9-0.7,1.4-1.1c-4.2,6-10.1,11.2-16.6,12.2c-11.7,1.8-23.8,1.2-35.8,1.4c-7.8,0.2-12.9-4.1-16.4-10.7
		c-3.2-6-6.8-11.7-10.3-17.5c-1.9-3.1-4.8-5.8-6-9.2c-2.6-7.1-4.8-14.4-6.3-21.8c-0.4-2.1,2.1-6.2,4.1-6.9c2.2-0.8,5.5,1.4,8.3,2.2
		c-8.9-2.2-11.6,0.4-10.2,9.5c1.5,9.8,6.4,17.9,11.7,24.2c-0.2-9.9-0.5-20.7-0.8-31.6c0-0.8-0.6-1.5-0.8-2.3
		c1.6-1.1,3.1-2.2,4.7-3.3c-5.8-8.3-15.7-8.1-20.5-0.3c-3,4.9-3.5,10.3-1.3,15.3c3.7,8.5,8.2,16.6,12.4,24.9
		c1.7,3.2,3.9,6.2,5.2,9.6c1.2,3.4,2,6.8,7.3,6.1c-4.4,3.6-6.4,2.7-8.6-1.9c-2.5-5.2-5.2-10.3-8.3-15.1c-0.9-1.4-3.6-2.5-5.2-2.3
		c-12.3,1.5-24.6,3.4-36.9,5.1c-3.3,0.5-6.6,0.6-9.9,1.3c-5.5,1.1-10.9,2.6-16.3,3.9c0-1.3,0-2.7,0-4c1.3-1.4,2.7-2.6,3.7-4.1
		c2.9-4.4,5.6-8.9,8.4-13.4c0.7,0.4,1.5,0.9,2.2,1.3c-2.5,4.4-5.1,8.9-7.7,13.5c1.8-0.1,3.5-0.4,5.1-0.3c5.8,0.3,9.8-1.8,11.7-7.7
		c0.6-1.8,2.1-3.2,3.2-4.8c0.4,0.3,0.8,0.5,1.2,0.8c-1.4,3.2-2.7,6.5-4.4,10.5c5.7-1.5,10.7-2.9,15.7-4.2c0.2-2.1,0.3-4.1,0.7-6
		c0.3-1.9,0.9-3.8,1.4-5.7c0.5,0.1,1.1,0.2,1.6,0.4c-0.5,3.6-0.9,7.2-1.4,10.8c6.8,1.1,12.2,0,15.2-6.9c-0.2,1.9-0.3,3.7-0.5,6
		c2.9-0.2,5.4-0.3,8.4-0.5c-1.9-4.5-3.6-8.3-5.1-12.2c-2.3-6-3.7-12.1-1.4-18.5c2.2-5.9,6.5-9.3,12.6-10.7
		c-9.3-10.9-8.3-15.5,5.7-26.4c-1.3-0.4-2.3-0.7-3.4-1c-10.4-2.5-20.1,0.2-29.8,3.8c-4.1,1.5-8.4,3.2-9,8.3
		c-0.6,5.7,1.5,10.3,6.2,13.9c2.7,2.1,5.3,4.6,7.3,7.4c2.6,3.8,1.1,6.9-3.4,7.5C29,560,14.7,556.7,4.1,543.1C3.2,542,2,541,1,540z
		 M126.1,333.9c2.9-0.6,5.8-1.3,9.4-2.1c-6.5-4.1-9.4-4.1-13.4-0.4c1.4,0.9,2.7,1.7,4.1,2.6c-4.2,0.5-8.4,1.1-13.4,1.7
		c1.4,2.4,2.3,3.9,3.4,5.9C119.8,338.8,123,336.4,126.1,333.9z M110.4,396.9c-2,1.1-3.8,2.3-5.9,3.2c-4.1,1.7-9.1,2.3-12.4,5
		c-12.5,10.2-23.5,21.7-29.6,37.1c-0.2,0.6-0.2,1.3-0.1,0.5c4.6-4.1,9.7-8.9,15.1-13.5c3.7-3.2,7.7-6.1,11.5-9.2
		c0.5-0.4,0.8-1.5,0.6-2.1c-1.7-4.2,1.3-6.4,3.9-8.2c4.2-3,8.8-5.3,13.1-8.2C108.2,400.4,109.2,398.4,110.4,396.9
		c-0.5,1.6-0.4,3.9-1.5,4.7c-4,3.2-8.5,5.8-12.7,8.9c-1.8,1.3-3.2,3.2-4.8,4.9c12.7,1.2,22.8-4.3,33-8c-3.3-1.5-6.2-2.9-9.2-4.3
		c1.6-2.7,3.2-5.4,5-8.5c-1.8,0.4-3.8,0.9-5.8,1.4C113.1,396.3,111.8,396.6,110.4,396.9z M450.8,590.8c10,3.5,20.2,6.6,30,10.5
		c6.1,2.5,11.5,6.6,17.5,9.4c13.2,6,26.6,11.4,39.8,17.5c5,2.3,9.5,2.3,14.4,0.3c-5.5-15,3.6-24.7,16-26.6c4.5-0.7,9-1.5,13.4-2.2
		c-6.9-3-14-5.4-21.1-7.5c-1.4-0.4-3.3,0.2-4.8,0.7c-14.5,5.2-29.5,6-44.8,5.6c-5.7-0.2-11.6,0.3-17.1,1.9
		c-4.9,1.4-8.7,1.2-12.4-2.1c-3.6-3.1-4.8-7.5-2.9-11.3c2.2-4.6,6-8.5,9.4-12.4c1.3-1.5,3.3-2.3,5.8-3.9c-5.6-1.8-10-3.2-14.5-4.6
		c-9.7-2.9-19.1-6.8-29.6-6.6c-4.3,0.1-7.1,1.6-9,4.9c9.9,2,19.8,3.7,29.5,6c2.1,0.5,5.1,2.8,5.2,4.4c0.2,2.1-1.7,4.8-3.5,6.4
		c-2.5,2.1-5.6,3.5-8.7,4.9c-4.1,1.9-8.3,3.4-12.4,5.1c-1.3,0.2-2.6,0.5-3.9,0.7c-15.2,2.9-30.3,6.6-45.6,8.4
		c-15.6,1.9-31.4,2.1-46.6,3c16,15.4,32.5,31.3,49.2,47.4c2.2-3.6,3.8-6.3,5.4-9c-6.3-4.2-7.3-5.6-7.3-10.3
		c0-10.3,12.7-28.8,25.1-30.5c8.8-1.2,17.2-4.5,25.9-6.9C452.3,592.8,451.5,591.8,450.8,590.8z M417.2,572.2
		c-3.9,3.4-7.9,6.9-11.8,10.3c-0.5-0.5-1-0.9-1.5-1.4c6.7-6.2,12.2-13.1,13.7-22.5c1.5-8.9,3.4-17.8,5.3-27.5
		c-29.3,7.5-57.7,5.5-86.1,5.4c0.2,9.3,9.9,35.8,16,42.8c1,1.2,2.7,2.4,4.1,2.4c9.4,0.1,18.8,0,28.2-0.2c3.9-0.1,7.8-0.8,11.8-1.2
		c0.1,0.5,0.1,1,0.2,1.6c-6.2,1-12.4,2.3-18.6,2.8c-6.3,0.5-12.7,0.1-19.1,0.1c2,6.5,39,7.5,45.5,1.3c0.9,3.4,0.9,4-3.3,4.2
		c-12.9,0.4-25.9,0.6-38.9,0.3c-2,0-4-2.7-6-4.1c-9.2-2-8.9-12-14.2-17.6c-4.9,1.4-10.2,2.2-15,4.3c-5.3,2.3-10.5,5.2-14.9,8.9
		c-5.1,4.2-4.1,8,2.1,10.2c4.9,1.7,9.9,2.9,15,3.8c34,6,67.7,3.2,101.3-3.6c13.2-2.7,26.4-5.8,38.2-12.8c1.6-1,2.6-3.1,3.9-4.7
		c-1.6-1-3.2-2.6-4.9-2.9c-10.1-2-20.3-4-30.5-5.2c-2.3-0.3-5,2.7-7.3,4.5c-1.8,1.3-3.2,4-5.1,4.4c-3.1,0.6-6.8,0.4-8.2-3.7
		c2,0.3,4,1,5.9,0.8c1.5-0.1,3.1-1.1,4.2-2.2c2.2-2,4-4.5,6.2-6.5c1.6-1.4,3.7-2.2,5.5-3.3c-0.2-0.4-0.5-0.8-0.7-1.2
		c-1.6,0.7-3.1,1.5-4.7,2c-3.1,1.1-6.3,3.2-9.3,3C418.2,564.3,417.4,567.7,417.2,572.2z M203.2,428.9c-0.4,2.6-1.2,5.2-1,7.8
		c1.7,17.9,3.8,35.7,5.2,53.7c0.6,7.5,2.9,12.5,10.9,14.2c3,0.6,6.2,2.6,5.9,7.4c-4.2,0.2-8.3,0.4-13,0.7c1,5.8,2,11.3,3.2,17.9
		c17.1-12.7,28.5-28.7,38-46.6c-4-1.9-8.7-3.1-7.3-8.7c1.2-4.7,7.6-7.2,15.9-6.1c0.9-2.8,1.5-6,2.8-8.7c7-14.5,9.4-30,11-45.8
		c0.4-4-1.3-6-4.9-6.8c-11-2.4-20.3,1.2-28.9,8.4c10.2-0.5,20.8-8.5,30.2,1.7c-8.2-5.2-16.3-3.1-24.3,0.3c-1.1,0.4-2.4,0.9-3.4,0.6
		c-1.8-0.4-3.4-1.4-5.1-2.2c1.1-1.5,1.8-3.4,3.2-4.3c10.1-6.8,21-9.7,34.6-4.8c-1.4-5.7-1.3-10.9-3.8-14.1c-4.8-6.3-14-6.4-20.7-1.8
		c-1.4,0.9-3.2,1.2-4.9,1.6c-7.2,1.6-14.8,2.3-21.7,4.8c-7,2.5-9.4,8.3-8.4,15.8c0.3,1.8,1.1,3.6,1,5.4c0,1.1-1.4,3.1-1.8,3
		c-6.2-1.1-9.4,3.2-12.9,7c-0.1-7.9,6.3-8.5,11.8-10.1c-0.3-1.6-0.6-2.9-0.8-4.2c-1.4-9.6,2.1-16.1,11.1-20c2.6-1.1,5.3-2,8-2.7
		c7.5-2,15.9-0.7,22.6-5.9c0.4-0.3,1-0.2,1.5-0.3c6.3-1.4,11.5,0.8,16.4,5.2c-0.9-7.2-0.9-7.3-7.2-8.4c-3.8-0.6-7.6-0.6-11.4-1.3
		c-3.5-0.6-8.3,0.9-9.3-4.5c-0.5-3.2,4.2-5.7,10.4-5.4c3.7,0.2,7.4,0.9,11.1,1.3c0.3-0.4,0.6-0.7,0.9-1.1c-4.1-4.9-8.1-10-12.3-14.8
		c-10.9-12.3-11.6-24.9-1.9-38c0.8-1.1,1.5-2.3,2.6-3.9c-10.4-0.1-20,3.8-29.6,0c2.2-1.1,4.5-1.5,6.7-1.8c10.1-1.1,20.2-2,30.3-3.5
		c8.6-1.2,15.2-8.9,16.1-18.5c-4.7,4.4-12,2.7-15.2,8.7c-2.8-3.7-7.3-3-9.3,1.5c-3-4.1-9.5-4.6-11.8-1.7c-2.1-1-3.9-2.1-5.9-2.7
		c-4.8-1.3-10.1,0.3-14.6-3c-0.6-0.5-2.8,0.3-3.6,1.1c-3.3,3.5-7.3,3.4-11,1.6c-6-2.9-6.7-8.8-6.5-14.6c0.2-5.4,1.4-10.7,7.4-13
		c6.5-2.5,10.7,0.3,12.5,7.8c0.4,1.7,1.9,3.3,3.3,4.5c0.4,0.3,2.2-1,3.6-1.7c0.2,5.7,4.9,5.5,8.6,6.2c1,0.2,2.5-1.8,3.8-2.7
		c1.7,3.8,7.6,6.3,11.4,4.5c0.4-1.2,0.9-2.4,1.5-4.3c1,1.8,1.7,3,2.5,4.4c2.2-0.4,4.5-0.8,6.5-1.2c0.3-2,0.5-3.6,0.7-5.1
		c0.4,0,0.8,0,1.2,0c0.4,1.3,0.9,2.6,1.4,4.2c3.9-1.6,9.3-0.9,9.3-8.1c1.4,1.6,2.2,2.4,3,3.2c4.1-2.3,6.7-8.5,6.7-16.4
		c-1.6,0.8-3,1.5-4.5,2.2c-7.1,3.2-13.4,1-16.5-6.1c-2.8-6.3-3.2-12.9-0.6-19.4c1.8-4.3,4.2-8,9.7-8.1c5.7-0.1,9.5,2.6,11.9,7.6
		c0.6,1.3,1.2,2.7,2.2,4.9c1.9-12.8-3.7-28.9-12.1-38c-8.4-9.1-19.2-14-30.4-18.6c-28.9-11.8-69.7,2.2-85,33.1
		c-8,16.2-12,33.8-12.7,52c-0.8,20.6,4.8,40.3,7.4,60.4c0.1,0.6,0.5,1.2,0.9,1.7c8.6,8.7,8.2,19.3,5.9,29.9
		c-3.2,14.8-15.4,23.9-23.4,35.6c-0.3,0.4-0.8,0.7-1.2,0.8c-6.7,1.7-6.9,7.1-6.9,12.5c0,3,0.1,6,0.1,9c0.3,21.8,4.5,43,8.9,64.2
		c3.9,18.6,10.2,36.8,12.3,55.4c5.7,3.5,11.9,6.7,17.4,10.8c4.4,3.3,6.1,8,4.3,13.8c-1,3.1-0.9,6.5-1.3,10.7
		c5.3-0.3,9.9-0.3,14.4-0.8c6.5-0.6,8.7-3.6,8.1-10c-0.1-1.6,0.1-3.2,0.3-5.9c5,4.7,3,9.3,3,13.5c14.6,1.3,23.4-9,19.8-22.6
		c-4-15.1-8-30.2-10.9-45.6c-4.4-23.9-7.8-48-7.4-72.5c0.1-4.5,0.8-9,1.2-13.6c0.3,0,0.6,0.1,0.9,0.1
		C202,424,202.6,426.5,203.2,428.9z M417.4,504.7c0.2-2,0.4-3.4,0.5-4.7c0.9-11.3,1.9-22.5,2.5-33.8c0.1-1.9-1.5-4.1-2.8-5.8
		c-3.2-4.2-7.2-7.9-10-12.3c-9.5-15.4-10.7-32.3-7.9-49.7c1.3-8.6,4.7-16.4,10.4-22.9c6.6-7.6,11.1-16.4,12.6-25.9
		c7.5-45.9-27.3-87.8-74.3-83.5c-27.3,2.5-53,14.5-59.2,48.1c-4.9,26.5-3.2,50.9,19.4,69.6c0.2,0.1,0.1,0.6,0.1,1.1
		c-1.1-0.1-2.1-0.2-3.8-0.3c6.1,17.1,3.6,33.9,0.3,50.7c-2.6,13.5-2.3,26.9,4.5,39.4c5.2,9.4,12.6,16.6,21.4,22.6
		c5.8,4,8.3,3.9,12.5-1.9c1.7-2.3,3.3-5.4,3.3-8.1c0.2-5.4-0.7-10.9-1.2-16.3c-0.1-1.5-0.6-3-0.9-4.5c0.5-0.2,1-0.4,1.4-0.6
		c0.9,1.6,2.4,3,2.7,4.7c0.9,4.9,1.8,9.9,1.8,14.8c-0.1,12.6-9.9,20.9-22.5,19.6c-3.8-0.4-7.7-0.6-11.4-0.1
		c-9.7,1.2-14,12.1-8.2,20.3c1.6-11.9,5.2-17,11.1-15.6c-7.5,9.3-8.8,14.9-4.8,21.2c2.9,4.6,9.5,6.5,17.2,4.7
		c-1.2-4.7-0.9-9.2,3.8-11.8c18.2-9.9,38.1-10.7,58.1-10.5c5.4,0,10.8,1,15.9,1.5c0.8-14.8,1.6-29.1,2.3-43.3c0.5,0,1.1,0,1.6,0
		c0.2,1.1,0.5,2.2,0.5,3.2c0,3.3-0.2,6.7-0.3,10c-0.2,9.5-0.4,19-0.7,28.5c-0.1,3.7,2.8,4.3,5.2,5c1.1,0.3,3.4-0.3,4-1.3
		c8.2-12.2,13.5-25.3,11.3-40.4c-1.2-8.7-2.4-10-11.6-12.1c-0.9,11.8-1.8,23.6-2.6,35.5c2.3-4.9,4.2-10,5.2-15.3
		c1.1-5.2,1.4-10.5,2.1-16.2C429.6,477.9,424.1,499.4,417.4,504.7z M145.2,303c0.2-0.1,0.5-0.2,0.7-0.3c-0.1-1.4-0.1-2.9-0.3-4.3
		c-2.6-19.8-0.9-39.3,4.2-58.4c2.2-8.2,2.9-15.9,1.2-24c-0.4-2-0.6-4-1.1-5.9c-5-19.2-9.6-38.4-15.1-57.4
		c-2.9-9.9-8.5-18.5-17.6-24.1c-6.3-3.9-10.5-4-15.7,1.3c-3.7,3.7-7,8.2-9.1,12.9c-4.9,10.9-10,21.9-13.3,33.4
		c-7.4,25.9-14.2,52-20.1,78.3c-2.4,10.4-3.5,21.5-2.5,32.1c1.9,21.4,5.7,42.6,8.7,63.8c0.9,6.4,1.7,12.9,2.5,18.8
		c4.8-5.3,9.4-10.3,13.8-15.2c-4.8-4.2-4.9-6.5,0.2-13.9c-2.8-6.6-1.4-10,5.3-14.4c1.3-0.9,2.7-2.8,2.7-4.3c0.2-3.6-0.2-7.9,3.7-8.9
		c2.8-0.7,6.5,1.1,9.5,2.4c2.4,1,4.3,3.1,6.5,4.6c6.3,4,13.1,6.6,21.2,5.2c-0.8-1.9-1.5-3.8-2.2-5.6c-2.9-7.6-4.8-15.4-3.2-23.4
		c0.6-3.1,3.1-5.8,4.7-8.7c2.9,1.7,6,3.1,8.6,5.2c1.6,1.3,2.5,3.5,3.6,5.4C143.2,299.4,144.2,301.2,145.2,303z M268.6,462.8
		c3.2-0.3,6.5-0.8,9.8-0.8c3.1,0,4.4-1.3,4.9-4.3c3.7-19.3,8-38.5,11.3-57.8c2-11.7,5-24-4.7-34.3c-0.3-0.3-0.4-0.9-0.6-1.3
		c-6.5-15.3-7-31.1-3.6-47.1c2.7-12.6,4.9-25.6,15.2-34.5c5.1-4.4,7.1-9.8,8.1-15.9c0.2-1,0.4-2,0.6-2.9
		c11.7-55.7,23.5-111.4,35-167.2c2-9.5,2.8-19.3,4.1-28.7c-11.5-2.7-22.2-5.1-32.8-7.6c-0.3,0.5-0.7,0.9-0.8,1.3
		c-16.7,42.6-33.4,85.3-50.3,127.8c-1.3,3.2-0.2,4.4,2.2,6c12.8,8.7,21.3,20.4,24.1,35.9c1.4,7.9,2.8,15.8-3.2,22.8
		c-1.1,1.3-0.6,4.6,0.2,6.5c3.4,7.8-1.3,21.1-9.1,24.8c-16.2,7.6-32.7,8.3-49.5,2.1c-5.4-2-9.9-4.4-11.2-10.9
		c-0.4-1.8-3-4.4-4.4-4.3c-2.2,0.2-5.9,2-6.2,3.6c-0.9,4.5-1.3,9.6-0.3,14c1.1,4.9,6.4,5.3,10.3,2.1c1.4-1.1,3.9-2,5.6-1.5
		c19.6,5.5,38.9,8,57.7-2.7c2.5-1.4,4-0.4,3.7,2.4c-1.2,8.7-8.2,21.5-17.7,22.6c-5.6,0.7-8.4,3.5-11,8.2
		c-7.4,13.1-6.5,22.7,3.5,34.1c4.1,4.6,8.1,9.4,11.2,14.6c10.3,17.4,9.8,36.5,6.9,55.4C275.3,437.7,271.6,450,268.6,462.8z
		 M389.3,230c0.3-1.3,0.5-2.2,0.7-3.2c4.4-21.6,8.7-43.1,17.6-63.4c2.1-4.8,4.9-9.5,7.8-13.8c3.2-4.7,7.1-9.1,14.5-7.4
		c-5.2-26.3-10.2-51.8-15.3-77.5c-12.9,1.4-25.2,2.7-37.7,4.1c0,1.6,0,2.9,0,4.2c1.1,27.8,2.4,55.6,3.3,83.4
		c0.7,22.5,1.1,45,1.4,67.5c0,1.8-1,3.5-1.5,5.3c-0.6-0.2-1.3-0.3-1.9-0.5c-1.8-53.3-1.2-106.7-5.4-160.4c-7.2,0-13.8,0-20.7,0
		c-8.7,68.9-27,136.1-40.7,204c6.6-2.4,12.6-5,18.8-6.8c6.2-1.7,12.6-2.6,18.7-3.8C349.4,238.6,360.9,229.5,389.3,230z M155,216.6
		c44.1-57.3,89.3-112,129.8-169.3c-9.2-7.6-17.9-14.7-26.4-21.7c-47.5,32.2-95.5,64.6-143.9,97.4c13.1,6.2,20.2,16.8,24.2,29.4
		c4.7,15.1,8.8,30.4,12.8,45.7C152.9,203.6,153.6,209.4,155,216.6z M513.9,375.2c0-1.6,0.1-2.5,0-3.5c-1.9-19.5-0.6-38.9,2-58.3
		c0.4-3.1,0.9-6.4,0.3-9.4c-2.5-12.2-5.5-24.3-8.1-36.5c-4.1-19.5-10.7-38.1-19.3-56.1c-2.3-4.7-5.1-9.6-8.8-13.2
		c-8.8-8.5-20.4-6.7-26.6,3.7c-2.2,3.7-4.2,7.6-5.6,11.7c-8.3,22.8-16.1,45.9-24.8,68.5c-5.4,14.1-2,26.7,3.7,39.4
		c5.3-8.3,10.6-11.2,17.9-8.9c9.4,3,6.9,11,6.6,19c4.3-3.3,7.7-6.3,11.5-8.6c4.4-2.5,9-5.2,13.9-6.2c6.5-1.3,11.2,3.3,11.6,9.9
		c0.2,2.6,0,5.2,0,7.7c0.8,0.3,1.1,0.4,1.4,0.5c12.9,2.8,17,9.5,13.6,22.4c-0.2,0.6-0.3,1.3-0.2,1.9c0.4,4.6,0.9,9.2,1.4,14.5
		C506.7,374.1,510.1,374.6,513.9,375.2z M522.8,246.3c0.4-0.1,0.9-0.3,1.3-0.4c0.3-1.1,0.7-2.1,0.8-3.2c2.4-24.7,4.2-49.4,7.3-74.1
		c2.9-22.9,6.9-45.7,10.8-68.5c0.6-3.5,0.4-5.8-1.9-8.5c-15.8-19.4-31.3-38.9-46.9-58.4c-1.6-2-3.2-4.1-5.1-6.7
		c-10,11.9-22.3,19.8-36,26.1c0.7,2,1.2,3.5,1.8,5.1c5.3,14,11,27.9,15.9,42c16.5,46.9,32.8,94,49.2,140.9
		C520.7,242.6,521.8,244.4,522.8,246.3z M112.2,541.1c0,0.1,0.8,1.6,1.5,1.6c10.9,0.2,21.8,0.1,33.4,0.1c0.2-3.1,1-6,0.4-8.6
		c-3.2-12.7-7-25.3-10-38.1c-6.5-27.3-12-54.7-10.4-83c0-0.4-0.4-0.7-1-1.6c-7.2,8-17,10.5-26.4,13.6c-4.4,1.5-8.8,3.1-13.3,4.3
		c-9.6,2.6-16.5,8.4-20.7,17.4c-1.1,2.3-2.9,4.6-3.2,7.1c-0.5,4.3-0.2,8.6,0,12.9c0.7,18.1,6.6,34.2,18.9,47.7
		c1.6,1.8,4.4,3.1,6.8,3.5c12.4,2.2,23.4-0.8,33.1-9c1.5-1.2,3.2-2.1,4.9-3.1c0.3,0.4,0.6,0.8,0.9,1.2c-0.9,1.3-1.7,2.8-2.8,3.8
		c-11.3,10.5-24.7,13.6-39.3,9.9c-4.4-1.1-6.9-0.5-10.1,2c-3.6,2.9-6.5,6.1-5.6,10.9c0.9,4.9,4.6,7.3,9.2,9.1
		c1.2-4.7,3.2-8.4,8.1-10.2c-2.9,14.3-2.9,14.3-0.4,16.3C94.7,546.6,103.1,544,112.2,541.1z M312.9,58.8c-3.4-1.3-5.7-2.2-8-3.1
		c-2.5-1-4.9-2.1-7.3-3.2c-8.9-4.1-8.7-3.9-14.8,4c-34.4,44.9-68.9,89.8-103.4,134.7c-1.2,1.6-2.4,3.2-3.6,4.8
		c13.4-7,26.3-13.5,41.4-14.8c15.3-1.3,29.1,3.6,43.4,10.3C278.1,146.9,295.4,103.1,312.9,58.8z M518,246.2
		c-22.2-64.9-43.3-129-68.3-191.6c-10.9,3.2-21,6.3-31.3,9.3c0.2,1,0.2,1.8,0.4,2.6c4.9,25,9.8,50,14.8,75c0.3,1.4,0.6,3.1,1.5,4.1
		c7.4,8,9.5,18.1,11.1,28.4c1.2,8.3,2.5,16.7,3.8,25.2c15-14.8,30.4-12.2,40.2,6.5c1.5,2.8,2.7,5.7,3.9,8.6c4.1,10,8.2,20,12.2,29.8
		C509.9,244.8,513.4,245.4,518,246.2z M267.3,465.1c2.6,10.1,4.9,18.9,7.1,27.8c2.2,9,5,18,6.2,27.1c0.5,3.5,1,5.4,3.9,7.4
		c9.2,6.2,18.2,12.7,27.3,19.2c2.9,2.1,2.3,4-0.5,5.8c-4.6,2.9-9.2,6-13.9,8.8c-1.6,0.9-3.9,1.7-5.6,1.3
		c-13.6-2.4-27.1-5.2-40.7-7.8c-6.5-1.2-10.2-5-10.9-11.7c-0.2-1.4-1.2-2.7-2.1-3.9c-1.8-2.4-4.3-4.4-5.6-7
		c-1.4-2.7-1.8-5.9-2.8-9.4c-2.7,2.4-4.9,4.4-7,6.4c-2.3,2.1-5.9,4-6.5,6.5c-0.7,2.8,1.4,6.3,2.4,9.5c0.1,0.3,0.2,0.6,0.4,0.9
		c4.6,10.8,6.5,21.2-5.4,29.5c10.4,1,11.8,0.2,15.8-7.7c0.8-1.6,2-3.1,3-4.6c0.5,0.2,0.9,0.4,1.4,0.7c-1,3.3-2.1,6.6-3.2,10.4
		c2.6-0.2,4.7-0.5,6.8-0.6c4.1-0.1,7-1.2,7.3-6c0.1-1.6,1.8-3.1,2.7-4.7c0.5,0.2,0.9,0.4,1.4,0.6c-0.4,2.7-0.9,5.3-1.4,8.7
		c3.6-0.5,6.8-0.9,10-1.4c0.4-3.6,0.8-6.9,1.2-10.1c0.6,0,1.2,0,1.8,0c0.5,3,1,5.9,1.6,9.3c3.8-0.4,7.6-1.3,11.3-1
		c4.8,0.3,6.6-3.1,9.1-7c0.3,2.6,0.6,4.1,0.8,5.7c4-0.5,7.7-1.3,11.3-1.2c8.8,0.3,15.1-3.3,19.4-10.9c1.1-2,3.4-3.3,5.2-4.9
		c0.5,0.5,1,0.9,1.4,1.4c-2.7,3.8-5.3,7.6-8.4,12c6.1-0.7,11.3-1.3,16-1.9c0.5-4.6,0.9-8.6,1.3-12.7c0.7,0,1.4,0.1,2,0.1
		c0,4,0,7.9,0,12.4c3.3-0.3,5.9-0.5,8.8-0.7c-2.2-8-4.1-15.3-6.1-22.4c-8.5,0.6-15-1-22.2-5.8c-8.3-5.6-8.5-12.5-8.9-20.4
		c-1.4-0.2-2.7-0.2-3.7-0.6c-5.2-2-10.7-3.5-15.3-6.5c-7.5-4.8-6-19.2,2-24.7c1.2-0.8,3-1.4,3.6-2.6c3-5.6,7.5-8.6,15.2-8.8
		c-2-2.6-3.3-5.6-4.6-5.6C289.5,464.1,279,464.7,267.3,465.1z M436,234c4.1-10.2,7.9-19.7,11.6-29.2c0.3-0.7,0.1-1.6-0.1-2.3
		c-0.8-3.7-1.7-7.4-2.4-11.1c-2.1-10.6-3.6-21.3-6.3-31.7c-1.1-4.2-4.2-8.3-7.3-11.5c-3.7-3.8-7.4-3.5-10.6,0.8
		c-3.7,4.9-7.1,10-9.7,15.5c-9.7,20.8-12.6,43.7-18.8,65.6c-0.2,0.7,0.3,2,0.8,2.3c0.6,0.3,1.9,0.1,2.5-0.4c1.3-1,2.2-2.4,3.4-3.6
		c7-6.8,17.2-7.4,25.1-1.7C428,229.2,432,231.4,436,234z M351.4,262.2c13.6-1.2,25.4,2.1,36.9,8.4c11.4,6.3,21.2,14.1,27.7,25.7
		c2.1-7.8,3.7-15.1,6.1-22.1c3.6-10.7,7.6-21.3,11.8-31.8c1.8-4.5,0-6.4-3.8-7.9c-2.4-1-4.5-2.7-6.7-4c-2.3-1.3-4.5-2.9-7-3.6
		c-7.2-2.1-12.6,1-17.2,6.3c-1.7,1.9-3.1,4.6-6.5,2.7c-10.1-5.8-19.7-2.8-29,2C354.3,242.9,351.1,251.2,351.4,262.2z M544,672.9
		c-1.2-3.6-2.6-6.1-2.6-8.6c-0.2-9.8-5.7-15.2-14.2-18.3c-13.6-4.9-27.4-3.9-41.1-1.2c-5.7,1.2-11.5,3.6-16.4,6.7
		c-6.1,3.9-8.2,10.3-6.4,17.5c1,4.2,11,12.6,15.6,12.5c7.6-0.1,15.3-0.4,22.8-1.5C515.7,678,529.8,675.3,544,672.9z M438.9,626.1
		c-12.1,3-20.1,10.1-26.9,18.7c-6.4,8.1-7.4,22.6-2.4,30c-1.3-9.2-0.1-14.8,5.5-22.5c9-12.5,21.3-18.9,36.6-19
		c15-0.1,29.3-3.5,43.9-8.2c-6.7-3.3-9.8-9-12.3-15.3c-0.4-1-1.1-2.3-2.1-2.7c-9.6-4.8-18.7-11.4-30.4-8.5
		c-6.9,1.7-13.7,4.6-20.7,5.3c-12.8,1.4-22.1,16.2-23.9,24.8c-0.8,3.6-0.5,7.1,3.1,9.3c0.9,0.5,2.9,0.7,3.4,0.2
		c3.4-3.6,8.1-6.1,8.5-12.2c0.4-5.7,3.6-9,8.1-10.3c-1.8,3.9-3.4,7.4-5,11c0.5,0.3,0.9,0.5,1.4,0.8c1.7-2.4,3.2-5.1,5.3-7.1
		c2.1-1.9,4.6-4.2,8.5-1.9c-2.2,1.6-4,2.8-6.3,4.4C435.1,624.1,436.4,624.7,438.9,626.1z M515.8,512.4c0.1-0.4,0.2-0.9,0.3-1.3
		c11.5,0.1,17.5-1.8,28.5-5.9c4.9-1.8,5.9-4.9,5.1-8.6c-1.6-7.4-3.8-14.7-6.4-21.8c-0.7-2-3.7-4-5.9-4.6
		c-19.6-5.3-49.1,6.5-59.9,23.5c-1.9,3-1.4,5.5,1.2,7.4c2.2,1.7,4.7,3.5,7.3,4.2C495.8,507.9,505.8,510.1,515.8,512.4z M53.2,262.6
		c10.2-41.9,17.2-83.7,36.5-122c-0.4-0.2-0.9-0.5-1.3-0.7c-18.2,12.1-36.4,24.3-54,36C46.2,203.8,46.2,233.5,53.2,262.6z
		 M441.5,469.3c8.8,11.7,20.5,18,32.2,24.5c6.1-11.8,16.5-17.5,27.1-22.9c10.9-5.5,22.6-7.4,35.7-4.8c-4.6-7.6-8.9-14.1-12.5-20.9
		c-1.4-2.7-3.1-3.2-5.8-3.5c-15.3-1.6-27.8,4.4-39.3,13.6C468.3,463.9,456.5,469.8,441.5,469.3z M476,504.6c-2,7-3.9,14.2-6.1,21.3
		c-2,6.3-1.9,6.3,4.3,9.2c12.9,6.1,26.5,6.7,40.5,6.1c7.4-0.3,13-2.6,16.9-9.2c4.3-7.3,9.2-14.3,13.8-21.5
		C521,517.9,498.2,516.2,476,504.6z M86.5,565.2c0.1,0.9,0.2,1.8,0.3,2.8c4.9,1.1,9.8,2.9,14.8,3.1c15.5,0.4,31,0.2,46.4,0.1
		c5.3-0.1,10.7-0.4,15.9-1.3c8-1.3,10.2-7.3,4.1-12.5c-5.1-4.4-11.5-8-18-10.1c-15.9-5.2-32.3-4-48.4-0.5
		c-5.6,1.2-10.9,4.5-15.9,7.6c-4.3,2.7-4.2,6.9-1.2,10.1c4.3-2.7,8.1-6.3,12.5-7.7c18.6-6,37.6-7,56.5-1.2c3.8,1.2,7.1,4.6,10.1,7.5
		c1,1,0.5,3.7,0.7,5.6c-6.6-8.7-7.5-9.2-16.9-11.4c-16.8-3.8-33.5-2.2-49.9,2.3C93.8,560.6,90.3,563.3,86.5,565.2z M271.3,508.4
		c0.7-2.1,2.2-4,1.8-5.4c-2.6-10.8-5.5-21.5-8.5-32.7c-0.7,1-1.2,1.7-1.6,2.4c-8.9,15.8-17.1,32-29.6,45.5c-2.2,2.4-0.6,7.4,2.8,8.9
		c1.6,0.7,3.5,1.1,5.3,1.2c13,0.6,22.9-5.7,31.7-14.4c1-0.9,1.4-2.4,2.3-4.1C273.7,509.2,272.4,508.8,271.3,508.4z M546.6,676.1
		c-24.6,3.9-47.9,10.3-72.6,9.2c1.6,5,2.8,9.5,4.7,13.7c0.6,1.4,2.9,2.8,4.4,2.9c21.3,1,41.6-4,61.2-12c1.2-0.5,2.6-2.3,2.7-3.5
		C547.2,683.1,546.8,679.7,546.6,676.1z M449.7,554.5c9.6,2.4,19.7,4.9,29.7,7.6c5.5,1.5,10.8,3.4,16.2,5c1.5,0.4,3.4,0.8,4.8,0.2
		c8.5-3.5,17-6.8,25.1-11c7.4-3.9,14.1-9,17.4-17.2c2-4.9,1.4-9.6-1.9-14.2c-3.4,4.7-6.7,8.8-9.6,13.2c-2.4,3.6-5.7,5.5-9.9,5.8
		c-5.6,0.4-11.3,0.8-16.9,1c-2.7,0.1-4.7,0.7-4.4,3.9c0.3,3.7-2,3.9-4.8,4c-12.3,0.3-24.6,0.7-36.9,1.1
		C455.3,554.1,452.2,554.4,449.7,554.5z M480.9,705.7c0.9,3,1.5,5,2.1,7.1c2.3,7.4,2.3,7.5,10.3,7.5c18,0,35.3-4.5,52.3-9.8
		c1.2-0.4,2.7-2.2,2.6-3.3c-0.1-4.6-0.7-9.2-1.1-14.2C525.7,701.2,504.3,706.6,480.9,705.7z M528.4,397.2c3.7,3.7,10.4,3.8,9.5,10.6
		c0,0.1,0.5,0.4,0.8,0.5c12.9,7.4,20.4,19.3,26.6,32.3c4.2,8.8,11.2,15.2,18.1,21.7c0.6,0.5,1.8,0.3,2.8,0.5
		C583.3,427.5,555.4,398.3,528.4,397.2z M425,647.1c-14.8,11.9-16.1,29.9-3.2,39.5c-1.3-9.6-2.6-19-3.8-28.4c0.5-0.1,1-0.2,1.5-0.3
		c0.5,1.8,1,3.7,1.4,5.5c1.4,7.7,2.6,15.4,4.1,23.1c0.3,1.5,0.9,3.6,2,4.3c5.5,3.2,11.6,4.3,18,4.1c-3.5-18.4-6.8-36.1-10.2-53.8
		c-7.6,2.2-8,2.9-6.4,10c1.7,8.1,3.2,16.3,4.7,24.5c1,5.4,1.8,10.9,2.7,16.3c-0.7,0.1-1.3,0.2-2,0.4
		C428.8,677.8,428.6,662.3,425,647.1z M247.6,542.6c0.1,0.4,0.1,0.7,0.2,1.1c15.6,4.1,31.2,8.1,46.8,12.2c0.7,0.2,1.7,0.1,2.3-0.2
		c4.2-2.3,8.3-4.7,12.8-7.2c-1.5-1.4-2.7-2.9-4.2-3.9c-6.9-4.6-13.8-9.3-20.9-13.6c-1.6-1-4.3-1.1-6.1-0.4c-8.1,3-16.1,6.4-24.1,9.6
		C252.1,541,249.8,541.8,247.6,542.6z M50.7,460c0.5-0.1,1-0.1,1.5-0.2c-3.7-40,21.3-63.8,49-87.1c-3.4,1.2-6.1,2.5-8.9,3.1
		c-2.2,0.5-4.6,0-6.9-0.1c0.7-2.2,1.3-4.4,2-6.6c0.1-0.2,0-0.5,0-0.8c-7.6,2.1-14.8,11.2-15.9,20.6c4.4-3.1,8.4-6,12.4-8.8
		c0.2,0.3,0.5,0.7,0.7,1c-3.6,2.7-7,5.5-10.7,7.9c-1,0.7-2.7,0.5-4,0.7c0.1-1.4-0.1-2.9,0.4-4.2c1.1-2.8,2.5-5.4,3.8-8.1
		c-1.5,0.5-2.3,1.3-3,2.2c-15.9,21.5-21.4,46.2-22,72.3C48.9,454.8,50.1,457.4,50.7,460z M109.7,383c-0.1-0.2-0.2-0.4-0.3-0.6
		c-9,3.3-17.9,6.6-26.9,10c-0.5,0.2-0.9,1-1.3,1.5c-2.6,3-5.1,6.2-7.8,9.1c-15.6,16.7-20,37.1-19.7,59c0,1.1,1.7,2.2,2.5,3.2
		c1.4-3.2,2.4-5.3,3.1-7.4c0.3-1,0.4-3.1,0.1-3.2c-4-1.2-1.9-4-1.4-6c4.5-17.2,15.1-30.1,28.3-41.3c1.7-1.4,2.6-3.8,4.3-6.4
		c-2.7,0-3.7,0-5.5,0c1-1.8,1.7-3.2,2.8-5.3c0.2,1.6,0.2,2.4,0.5,4.6C96.1,393.9,102.9,388.5,109.7,383z M476.1,452.6
		c-8.2-3.7-16.7-6.6-24.3-11.1c-7.8-4.5-14.8-10.4-22.7-16c0,5.9-1.3,10.5-8.3,9.7c5.4,10.6,21.3,20.8,35.1,22.5
		C463.2,458.7,470.8,459.7,476.1,452.6z M493.9,411.7c0.7,0.5,1.4,1.2,2.1,1.7c9.4,5.7,17.8,12.2,22.2,22.8c0.4,1.1,2.5,1.7,4,2.1
		c7.9,2.3,15.9,4.4,23.8,6.9c2.6,0.8,4.8,2.5,7.2,3.8c0.3-0.3,0.5-0.7,0.8-1c-5.5-6.6-10.6-13.5-16.5-19.8
		C525.9,415.6,511.6,409.1,493.9,411.7z M301.1,461c-2.5-13.1,0.4-25.3,2.9-37.5c2.6-12.6,3-25.1-0.9-37.5c-0.5-1.5-1.3-2.9-1.6-3.7
		c-4.7,26.2-9.5,52.5-14.2,78.8C291.6,461,296.1,461,301.1,461z M494.9,440.7c-17.3-10.7-34-21-50.7-31.3c0.8,0.2,1.4,1.1,2,1.9
		c4,5.7,8.3,11.2,11.9,17.2c1.3,2.1,0.9,5.2,1.3,7.9c-2.3,0.3-4.7,0.6-7,0.9c-0.7,0.1-1.3,0-2.9,0c9.2,6.5,18.8,9.6,28.7,11.9
		c1,0.2,2.4,0.1,3.3-0.4C485.8,446.3,490,443.7,494.9,440.7z M589.3,460.5c4-5.7,5.1-10.8,4.6-16.5c-2.3-25.4-19.9-40.6-45.2-51.5
		c-0.8,2.1-1.7,4.3-2.5,6.3C571.6,411,584.8,432.1,589.3,460.5z M451.7,348.7c9.6-3.8,19.5-7.4,29.2-11.6c1.6-0.7,3.5-3.3,3.5-5
		c-0.1-3.4-0.4-7.6-2.3-10.1c-2.9-3.6-7.4-1.7-11.1,0c-1.9,0.9-3.7,2.3-5.5,3.4c-8,5-16.1,9.9-24.2,14.8c-2.3,1.4-4.8,2.5-7.3,3.8
		C440.2,344.5,446.4,341.9,451.7,348.7z M448.7,635.9c-3.6,1-6.7,1.7-9.5,2.9c-1,0.5-2.3,2.5-2,3.6c3.5,16.6,7.1,33.1,11,49.6
		c0.3,1.1,2.3,2.5,3.6,2.6c2.2,0.2,4.5-0.6,6.6-1C455.2,674.3,452,655.6,448.7,635.9z M465,418.1c-0.1,0.2-0.2,0.5-0.4,0.7
		c10.8,6.5,21.5,13,32.3,19.5c0.3,0.2,0.5,0.5,0.8,0.6c0.8,0.2,1.6,0.5,2.4,0.4c4.7-0.5,9.4-1,14.2-1.6
		c-3.2-9.9-24.5-28.1-32.8-28.2c2.1,7.1,0.5,9.2-7.1,9.3C471.3,418.8,468.2,418.3,465,418.1z M460.6,461.1c-1.4-0.1-2.9-0.2-4.3-0.3
		c-16.7-1.3-28.6-10.3-38.3-23.3c-4-5.3-9.3-9.6-14-14.4c-0.5,0.5-1.1,0.9-1.6,1.4c4.5,14.2,8.1,29.1,23.6,36.5
		C437.4,466.4,448.9,467.7,460.6,461.1z M578.4,461.5c-9-5.4-13.8-14.1-18.5-23c-1.9-3.7-3.7-7.5-6.2-10.8
		c-9.3-12.3-18.9-24.1-37.8-20.8c1.6,1.8,2.8,4,4.7,5c11,5.6,20.3,13.2,27.6,23.2c3.9,5.4,8,10.6,11.7,16.2
		C564.3,458.1,570.8,460.5,578.4,461.5z M330.4,501c-4.5-3.7-9.8-8.2-15.2-12.4c-0.6-0.5-1.8-0.3-2.7-0.3c-2.8-0.1-5.6,0.2-8.3-0.2
		c-8-1.2-14.1,3.8-14.2,11.9c-0.1,4.8,3.1,7.3,7,8.7c3.3,1.2,6.4,1.9,9.4-2.2c2-2.8,6.5-4.6,10.1-5.2
		C321.2,500.3,326.3,501,330.4,501z M423.9,519c10.1,2.8,12.1,2,16.4-6.3c1.5-3,2.8-6,4.2-9c5.8-13.1,1-24.2-6.9-34.6
		c-0.5-0.7-2-0.6-3.4-0.9C441.1,487.4,434.6,503.7,423.9,519z M536.9,631.4c-16.2-7.1-32.1-14.1-48.4-21.3c0.1,6.9,5.4,9.1,9.4,11.9
		c6.2,4.3,12.5,8.3,13.3,16.9c4.1,0.3,8.1,1.6,11.2,0.5C527.4,637.7,531.9,634.3,536.9,631.4z M467.3,359.3
		c10.8-1.7,21.2-3.4,31.7-5.2c0.9-0.1,2.1-1.3,2.2-2.1c0.7-4.5-1-8.8-4.9-10.6c-3.8-1.8-8.8-3.3-12.5-2.2
		c-5.5,1.6-10.2,5.6-15.5,8.7C468,350.9,467.7,354.5,467.3,359.3z M417.6,528.5c-7.9-8.1-63-4.5-71.8,4.7
		C369.9,532.5,393.9,534.8,417.6,528.5z M487.7,382.8c18.8,2.8,36.4,11.6,55.9,11.2c-14.5-14.8-33.8-15.3-51.9-18.2
		C490.3,378.1,489.3,379.9,487.7,382.8z M447.4,520.3c7.6-1.1,15.1-0.3,20.3-3.5c3.4-2.1,3.3-9.9,4.8-15.1c0.1-0.3,0.1-0.7,0.2-1
		c0.4-3.2-1.1-4.5-3.5-4.6c-1.5,4.6-2.9,8.7-4.3,12.9c-0.7,0-1.3-0.1-2-0.1c-1.3-10.1-0.3-21.5-13.8-25
		C454.3,496,454,507.8,447.4,520.3z M469.4,537.2c-7.8-4.6-2.8-10-2.5-14.6c-13.3,0.4-26.3,0.7-39.4,1.1c-0.6,0-1.3,0.2-1.8,0.2
		c0,1.8,0,3.5,0,5.5c5.2-3.6,10.7-4.7,15-0.4c3.7,3.7,6,8.8,9.2,13.6C455.5,541.1,461.8,539.3,469.4,537.2z M460.5,378.2
		c-8.7-9.8-42.9-7.6-50,2.7c4.8,4.8,10.7,7.8,17.3,9c1.7,0.3,4.1-0.3,5.2-1.4c0.7-0.7-0.2-3.4-1-4.9c-1.1-2-2.9-3.6-4.2-5.5
		c-0.8-1.1-1.3-2.3-2-3.5c0.2-0.4,0.5-0.7,0.7-1.1C437.4,378.3,448.1,382.8,460.5,378.2z M544.4,658.3c6.1-1.1,11.9-2,17.8-3.2
		c4.6-0.9,9.2-1.7,13.5-3.5c2.6-1,4.5-3.8,6.7-5.7c-2.8-1.2-5.4-3.3-8.3-3.5c-11.7-0.8-22.7,2.3-33.1,7.7
		C542.2,653.1,543.4,655.9,544.4,658.3z M421.3,527c-0.3-0.9-0.3-2.8-1.1-3.2c-3.6-2.1-7.2-4.6-11.1-5.4c-21-4.2-41.7-3.5-62,4
		c-2.8,1-5.4,2.6-7.7,4.5c-1.1,0.9-1.2,3.1-1.8,4.8c1.9,0,4.1,0.5,5.7-0.2c3.5-1.5,6.4-4.4,10-5.4c18.8-5.1,38-6.6,57.4-3.7
		C413.9,522.9,416.9,525.1,421.3,527z M479.5,415.7c-1.4-7-10.3-15.2-16.4-15.9c-8.6-1-17.2-1.9-25.9-2.8c1.4,2.2,2.6,6.3,5.3,7.7
		c7.4,4,15.3,7.3,23.3,10C469.9,416,474.7,415.4,479.5,415.7z M149.1,355.4c-1.8,0.8-4,1.8-6.3,2.7c-1.5,0.6-3.6,2.1-4.5,1.6
		c-5.1-2.9-9.2,0.7-13.6,1.7c-5.6,1.3-10.6,8.3-9.5,13.9c0.2,1,2.3,2.4,3.2,2.2c4-0.8,7.4-2.2,8.7-7c1-3.5,3.3-6.7,5-10
		c0.3,0.2,0.6,0.3,0.8,0.5c-1.9,5.7-3.7,11.3-5.6,17c0.5,0.3,1,0.6,1.5,0.9c4.7-2,10.5-2.3,13.2-7.9
		C144.5,366,146.6,360.9,149.1,355.4z M265.3,250c1.1,3.4,1.9,7.2,3.4,10.6c1.8,4.1,5.6,4.4,9.4,3.3c3.6-1,6.4-2.7,5.1-7.4
		c-0.5-1.7,0.5-3.7,0.2-5.4c-0.6-3.6-0.8-7.7-2.6-10.7c-3.2-5.3-10-4.7-12.7,0.8C266.8,243.7,266.3,246.7,265.3,250z M517.9,291.3
		c0.4,0,0.9-0.1,1.3-0.1c1.7-13.9,3.4-27.9,5.2-42c-6.1-0.7-11.4-1.2-17.5-1.9C510.6,262.3,514.2,276.8,517.9,291.3z M115.8,354.8
		c0.3,0.5,0.6,1.1,0.9,1.6c-3.3,1.1-6.5,2.8-9.9,3.1c-9.4,0.9-13.5,8.4-20.5,14.3c2.1,0.2,2.8,0.5,3.3,0.3c8-2.7,16.2-5.1,24-8.4
		c2.1-0.9,4.8-4.3,4.6-6.4c-0.4-4.8,2.1-7.8,4.2-11.3c1.1-1.8,1.3-4.1,1.9-6.2c-4.1,1.2-6.6,3.5-9.4,4c-6,1-9.1,3.9-9.6,11.1
		C108.9,356.3,112.4,355.6,115.8,354.8z M450.9,636.4c3.6,18.8,7,37.2,10.6,56c3.7-1,7.4-2.1,12.7-3.6c-3-2.7-5.2-4.7-6.9-6.2
		c-0.6-1.7-0.7-3.5-1.6-4.4c-7.8-7-9-14.8-3.9-24.1c0.9-1.6,0.7-3.9,0.5-5.9c-0.1-2-0.9-3.9-1.3-5.8
		C459.6,634.7,459.5,634.6,450.9,636.4z M403.5,404.7c-0.6,0.2-1.1,0.4-1.7,0.6c0.5,4.4-0.4,10,2,13c4,5,9.8,8.8,15.4,12.3
		c4.6,2.8,7.2,0.9,5.9-4.5c-1.4-5.7-4.1-11.1-6.3-16.9C411.8,413.2,407.3,410.1,403.5,404.7z M129.7,297.5c0.6-0.3,1.3-0.5,1.9-0.8
		c4.3,9.4,5.2,21.3,18.8,25.1c-4.4-12.2-10.6-22.3-18.9-31.9c-5.4,9.8-1.3,34.8,5.4,37.6c1.7-5.4,2.5-10.2-1.5-15.6
		C132.4,308,131.5,302.4,129.7,297.5z M437.4,392.2c7.9,2.7,16.2,5.7,25.2,4.2c3-0.5,4.7-2.3,2.2-4.6c-3.5-3.2-7.4-6.5-11.7-7.8
		c-5.3-1.7-11.3-1.5-16.8-2.1C436.7,384.9,437,388.3,437.4,392.2z M513.1,409.8c-0.4-1.5-0.4-1.8-0.4-1.8
		c-12.9-8.3-27.4-11-42.3-12.8c-0.7-0.1-1.7,0.9-2.1,1.6c-0.2,0.4,0.2,1.8,0.6,2c5.4,2.5,9,7.9,16.1,8
		C494.2,407,503.3,408.7,513.1,409.8z M475.7,361.6c-0.6,2.8-1.2,5.4-1.9,8.5c6.5,0.7,12.9,1.5,19.3,2.2c6.4,0.7,9.6-3.6,7.2-9.8
		c-0.6-1.5-1.4-2.9-2.2-4.4C490.6,359.3,483.3,360.4,475.7,361.6z M423.3,411c4.2,13,22.8,25.4,34.9,22.7c-4.6-6.5-8.9-12.6-13.3-19
		C439.9,424.2,433.2,420.2,423.3,411z M423,393.2c-0.4,3.3-0.8,6.5-1.1,9.8c-0.1,0.9-0.2,2.3,0.4,2.8c4.5,3.8,8.9,8,13.9,11.1
		c3.3,2,5.5-0.2,4.4-4.1c-1.2-4-3.2-7.7-4.6-11.6C433.7,395.1,429.2,392.8,423,393.2z M499.9,392.2c0-0.6,0-1.2-0.1-1.8
		c-12.1-6.2-24.9-7.6-37.8-5.5c4.8,7.5,11.8,10.1,20.5,9C488.3,393.2,494.1,392.8,499.9,392.2z M408.4,383.6
		c-5.3,8.4-5.6,14.7-0.4,20.6c1.4,1.6,4.8,3.1,6.6,2.5c4.9-1.4,6.1-13.8,1.9-16.9C414,387.8,411.4,385.8,408.4,383.6z M236.3,530.5
		c-0.2,0.4-0.5,0.7-0.7,1.1c1.5,1.4,2.8,3.9,4.4,4.1c12.3,1.7,23.9-0.5,33.6-8.7c3.9-3.3,4.2-6.3,2.6-10.3
		C264.7,526.3,252.8,534.9,236.3,530.5z M431.7,556.6c0.1-0.4,0.2-0.8,0.3-1.1c-0.7-0.3-1.5-0.4-2.2-0.8c-1.1-0.8-2.2-1.7-3.3-2.5
		c1-1,1.9-2.2,3.1-2.8c2.1-1,4.3-1.7,6.6-2.3c3.3-0.8,4.3-2.6,3.3-5.8c-1-3.4-2.5-6.4-6.5-6.5c-4.5-0.1-7.8,2.5-8.9,6.6
		c-1.4,4.9-1.9,10.1-2.9,15.3C424.9,556.6,428.3,556.6,431.7,556.6z M457.8,698.1c8.3,6.9,16.1,13.4,23.9,19.8
		c0.3-0.2,0.7-0.5,1-0.7c-3.7-8.3-7.6-16.5-8.9-25.7C468.3,693.7,463.5,695.7,457.8,698.1z M532.3,404.3c0.2-0.6,0.4-1.1,0.5-1.7
		c-7.9-3.6-15.8-7.3-23.7-10.9c-1-0.4-2.5-0.9-3.3-0.5c-3.3,1.7-6.5,3.8-9.8,5.7C507.6,401.7,519.6,404.8,532.3,404.3z M437.3,336.6
		c1.4-4.3,3.2-9.4,4.7-14.5c0.5-1.8,0.1-3.8,0.1-5.7c-2.4,0.3-5.1-0.1-7.1,0.9c-5.3,2.7-8.7,12.5-7.1,17.9
		C430.8,335.7,433.5,336,437.3,336.6z M94.3,399.8c0.2,0.4,0.4,0.8,0.6,1.2c6.7-2.5,13.5-5,20.2-7.5c0.4-0.2,0.7-0.6,1-1
		c2.8-3.4,5.7-6.8,8.4-10.3c0.7-0.9,0.6-2.4,1-4.1C111.5,381.5,103.6,391.6,94.3,399.8z M418.9,370.1c0.1,0.1,0.3,0.3,0.4,0.3
		c3.6-0.5,7.2-1,10.8-1.5c6.1-0.9,8.3-3,9.5-8.8c0.6-3-0.4-4.5-3.5-4.3C425.4,356.4,422.8,358.4,418.9,370.1z M286.6,503.8
		c-0.1-7.1,1.5-12.9,6.9-17.2c6-4.9,12.5,0.2,19.4-1c-4.6-6.4-11.1-5-16.6-5c-6.9,0-12,4.6-13.5,10.6
		C281.6,495.8,281.6,500.2,286.6,503.8z M145.3,374.6c11.1,0.2,14.8-6.3,13.2-19.6C151.4,355.9,144.6,365.8,145.3,374.6z
		 M158.7,350.5c0.1-8.1-2.9-10.4-10.6-6.8c-3.4,1.6-6.5,4-9.2,6.6c-1.3,1.3-1.5,3.8-2.3,6C144.6,354.2,151.5,352.4,158.7,350.5z
		 M106.1,342.9c-2.7-1-4.3-2.1-5.9-2c-4.1,0.1-8.3,0.2-12.2,1.2c-2.2,0.6-4.3,2.6-5.8,4.5c-0.6,0.7,0.3,3.8,1.2,4.2
		c2.2,0.9,5.2,1.7,7.1,0.8C95.5,349.4,100.1,346.4,106.1,342.9z M104.4,332.7c-2.2-0.9-5.1-1.4-6.9-3c-4.5-3.9-7.9-1.6-11.2,1.4
		c-1.3,1.2-2.6,3.8-2.1,4.9c0.7,1.6,3,3,4.9,3.3c3.4,0.5,6.9,0.1,10.3,0.1c-0.2-0.4-0.4-0.9-0.7-1.3
		C100.6,336.4,102.5,334.6,104.4,332.7z M79,367.8c0.3,0.4,0.6,0.7,0.9,1.1c4.4-2.2,8.7-4.8,13.4-6.4c7-2.4,10.1-7.5,11.6-14.6
		C94.8,353.3,85.3,358.4,79,367.8z M108.7,331.8c1.6-6.8-1.5-10.4-6.5-12.9c-0.3-0.1-0.5-0.5-0.8-0.6c-2.3-0.7-4.7-1.4-7-2.1
		c-0.1,2.7-0.7,5.6,0,8c0.5,1.7,2.6,3.4,4.5,4.2C101.9,329.9,105.3,330.7,108.7,331.8z M438.7,556.6c2.4-0.8,4.5-0.9,5.3-2
		c4.7-6.5,0.7-22.2-6.8-24.9c-3-1-7,0.2-10.3,1.2c-1.3,0.4-2,2.9-3,4.5c9.5-4.6,15-3.7,17.2,3.7c0.9,3,0.5,6.5,0.2,9.7
		C440.9,551.1,439.8,553.3,438.7,556.6z M153,338.7c-8.1-6.4-21.5-4.7-25.3,3.3C136.7,344.8,144.9,342.3,153,338.7z M86.1,387.4
		c0.4,0.5,0.7,0.9,1.1,1.4c8.4-3.5,16.7-7,25-10.4c0-2.6,0-5.1,0-9.1C102.8,375.8,94.4,381.6,86.1,387.4z M473.8,634.6
		c0.5,3.2,0.9,5.9,1.4,9c3-0.9,5.7-1.7,8.4-2.4c2.8-0.7,5.7-1.1,8.8-1.7c-0.5-3.2-0.9-5.7-1.3-8.8c-2.7,0.7-5,1.3-7.4,1.9
		c0,2.3,0,4.1,0,6c-0.2,0-0.4,0-0.6,0.1c-0.5-1.8-0.9-3.7-1.4-5.8C478.9,633.5,476.5,634,473.8,634.6z M117.9,401.6
		c9,4.2,21.7-2.1,23.5-10.6C131.9,390.2,125.8,396.9,117.9,401.6z M464.4,381.9c7.3-1.1,14.6-2.2,21.9-3.2c0-0.5-0.1-1.1-0.1-1.6
		c-7.3-4.5-15.6-3-23.4-4C463.3,376,463.8,378.3,464.4,381.9z M137.5,346c-10.6-1-13.9,0.7-16,8.9c-0.3,1.2,0.7,2.7,1.1,4
		c3.7-1.7,7.9-2.9,11.1-5.3C135.6,352.2,136.2,348.9,137.5,346z M462.7,549.2c0,0.2-0.1,0.5-0.1,0.7c11.6,0,23.1,0,34.6,0
		c0.1-5-2.3-6.8-8.2-5.8C480.3,545.6,471.5,547.5,462.7,549.2z M451,359.3c2.4,3.1,4.5,5.9,7.3,9.6c11.1,1.7,11.6,1.5,13.5-5.4
		C464.7,362.1,457.7,360.7,451,359.3z M48.9,423c0.7-0.6,0.9-0.7,0.9-0.8c4.4-18.6,11.7-35.6,25-49.7c0.8-0.8,0.7-2.4,1.1-3.6
		C60.8,383.8,51.5,401.3,48.9,423z M464.1,650.6c3.7-2.5,6.9-4.7,10-6.9c-1-2.9-1.8-5.5-2.6-7.8c-3.6,0-6.7,0-10.2,0
		C462.3,640.9,463.1,645.4,464.1,650.6z M448.8,546.8c0.2,0.6,0.3,1.2,0.5,1.9c10.6-2,21.2-4,32.8-6.1c-5.4-2.8-9.5-4.9-14.8-2.1
		c-4.1,2.1-8.8,3-13.2,4.5C452.3,545.6,450.6,546.2,448.8,546.8z M450.4,357.2c2.5,0,4.7-0.1,6.8,0c2.1,0.1,4.2,0.5,6.7,0.8
		c0.4-2.4,1-4.5,1-6.6c0-1.1-0.6-2.8-1.5-3.3C459,346.2,450.9,351.5,450.4,357.2z M506.7,638.9c-0.2-7.9-4.1-11.2-13.9-8.2
		c0.5,2.7,1,5.4,1.5,8.2C498.6,638.9,502.6,638.9,506.7,638.9z M245.6,546.8c3.6,4.4,44.1,13.2,49.6,11.2
		C278.7,554.3,262.4,550.6,245.6,546.8z M442.9,361.3c3.6-1.5,5.9-7.9,4.4-11.6c-1.7-4.3-5.6-2.5-8.6-2.2c-2.6,0.3-5.9,0.7-4.5,5.3
		C440.1,352.2,443.7,354.3,442.9,361.3z M272.8,381.3c-2.4-2.6-3.8-5.7-5.9-6.1c-6-1.4-12.4-2.8-18.1,0.7c0,0.6,0,1.2,0,1.7
		C256.2,378.7,263.5,379.9,272.8,381.3z M139.8,377.4c-8.2,2.9-15.7,5.6-19.2,14.2C129.8,390.4,135.5,385.3,139.8,377.4z
		 M135.9,388.1c0.4,0.3,0.8,0.6,1.2,0.9c6.4-2.4,12.8-4.8,16-12.4c-4.1,0.8-8.3,0.5-11,2.4C139.2,380.9,137.9,384.9,135.9,388.1z
		 M251.6,482.8c0.7-0.2,1.3-0.4,2-0.6c2.1-3.6,4.1-7.3,6.3-11.2c-6.6-0.6-12.7,1.7-12.5,4.9C247.6,478.3,250.1,480.5,251.6,482.8z
		 M141.4,321c-0.7,3.2-1.4,6.3-2.1,9.5c4.4,0.8,8,1.4,11.7,2.1C152.5,325.6,146.1,324.6,141.4,321z M88.6,424.6
		c10.7-3.4,22.1-5,31-12.7C110.1,418.2,97.1,416,88.6,424.6z M534.9,456.4c2.1-3.7,3.7-6.7,5.6-10.2c-4.7-1.2-8.8-2.3-12.9-3.3
		c-0.2,0.4-0.4,0.7-0.6,1.1C529.6,447.9,532.1,451.8,534.9,456.4z M451,500c-0.4,0-0.8,0-1.2,0c-3.4,6.6-6.8,13.1-10.2,19.7
		c0.2,0.4,0.4,0.7,0.6,1.1c2.1-1.3,5.4-2.1,6.1-3.9C448.4,511.5,449.5,505.7,451,500z M538.7,461.9c3.3-3.9,6.3-7.4,9.6-11.3
		c-2-1.1-3.8-2-5.6-3C537.7,454.3,536.8,457.5,538.7,461.9z M440.8,336.3c5.6-1.1,6.4-5.7,7-9.8c0.4-2.9-0.7-6-1.2-9
		c-0.3,0.1-0.6,0.2-1,0.4C444,323.8,442.5,329.8,440.8,336.3z M440,368c4.6,0.3,8.6,0.6,12.6,0.9c1.2-3.6-0.1-5.1-3-5
		C446.1,364,441.4,361.1,440,368z M306.8,478.6c0.4-0.3,0.7-0.7,1.1-1c-1.6-1.6-2.9-4.2-4.8-4.7c-3.7-1-7.1,0.2-9.6,4
		C298.1,477.5,302.5,478,306.8,478.6z M103,337.2c4.3,6.3,4.4,6.4,10.2,4C109.9,335.1,109.7,335,103,337.2z M120.2,328.3
		c-2.7-0.8-5.4-1.6-8.2-2.5c-0.4,0.6-0.9,1.2-1.3,1.8c1.5,1.8,2.6,4.5,4.4,5.1C117.8,333.7,120.4,332.5,120.2,328.3z M611.2,478.3
		c-8.8-5.4-18.5-7-27.6-6.1C592.1,474.1,601.7,476.2,611.2,478.3z M221.6,508.5c-3.7-1.5-7.3-3.1-11.3-4.8
		C210.3,510.9,212.2,511.7,221.6,508.5z"/>
	<path class="st0" d="M1,600c5.4-1.3,10.8-2.8,16.3-3.9c3.2-0.7,6.6-0.8,9.9-1.3c12.3-1.7,24.6-3.6,36.9-5.1
		c1.7-0.2,4.3,0.9,5.2,2.3c3.1,4.8,5.9,9.9,8.3,15.1c2.2,4.7,4.2,5.5,8.6,1.9c-5.3,0.6-6-2.7-7.3-6.1c-1.2-3.4-3.5-6.4-5.2-9.6
		c-4.2-8.3-8.7-16.4-12.4-24.9c-2.2-5-1.7-10.4,1.3-15.3c4.9-7.8,14.8-8,20.5,0.3c-1.5,1.1-3.1,2.2-4.7,3.3l0.1,0.1
		c-2.8-0.9-6-3-8.3-2.2c-2,0.7-4.5,4.8-4.1,6.9c1.4,7.4,3.7,14.7,6.3,21.8c1.2,3.3,4.1,6,6,9.2c3.5,5.8,7.1,11.6,10.3,17.5
		c3.6,6.6,8.6,10.9,16.4,10.7c11.9-0.2,24,0.3,35.8-1.4c6.6-1,12.5-6.2,16.6-12.2c-0.5,0.4-1,0.7-1.4,1.1
		c-8.4,7.7-18.2,12-29.7,11.7c-7.6-0.2-15.3-0.5-22.9-0.7c-7.6-0.2-11.6-4.8-14.1-11.3c-4.7-12.3-9.2-24.7-9.3-38.1
		c0-1.6,0-3.1,0-5.8c7.6,9,17.2,9.9,26.9,10c16,0.1,32,0,48-0.4c5.2-0.1,10.4-1.5,16.2-2.4c-1.7,11.1-6.8,21.2-12,31.4
		c0.4,0.2,0.8,0.4,1.2,0.6c2.1-4,5.1-7.7,6.3-12c1.9-6.9,6.1-8.1,12.7-8.7c27.8-2.6,55.6-5.9,83.4-9.2c3.5-0.4,5.4,0.3,7.1,3.4
		c28.7,51.1,57.3,102.3,86.3,153.3c12.1,21.2,25.1,42,37.7,62.9c-44.7,0-89.3,0-134,0c-1.8-7.2-3.5-14.3-5.3-21.5
		c-0.6,0.1-1.1,0.2-1.7,0.4c-0.1,7.3,2.4,14.1,4,21.1c-34.3,0-68.7,0-103,0c0.4-4.7,0.9-9.5,1.3-14.2c0.5,0,0.9-0.1,1.2,0
		c0.8,0.2,1.6,0.5,2.4,0.8c11.2,4.4,22.7,6.7,34.7,4.5c13.2-2.4,26.5-4.8,39.5-7.9c26.1-6.2,48.7-19.3,69.5-36
		c5.6-4.5,6.8-9.8,4.9-16.4c-1.6-5.4-3.3-6.4-8.1-3.5c-12.3,7.6-24.8,15.1-36.8,23.1C246.9,754,230,761.2,211,764.6
		c-22.9,4.1-43.9,0.6-63.5-12.1c2.2-7.8,8.9-12,15.3-16.1c2.2-1.4,5.9-2.3,8.2-1.6c8.4,2.8,16.6,6.5,24.9,9.8c1.4,0.6,2.7,1.3,4,1.9
		c0.2-0.5,0.5-1.1,0.7-1.6c-7.4-9-18.4-10.5-29.8-12.6c1.2-0.7,1.8-1.2,2.5-1.5c12.9-5.2,24.7-1.8,36.1,4.7c0.9,0.5,0.8,2.8,1.2,4.2
		c2.2,0.2,4.8,0.3,7.6,0.5c0.2-0.5,0.2-1.3,0.6-1.7c4.3-3.4,8.4-7.3,14.6-6.8c1.1,0.1,2.3,0.1,3.3-0.3c10.5-4.7,20.8-9.7,31.3-14.1
		c9.7-4.1,20.4-6.6,26.6-17.6c3,6.5,5.6,11.9,8.2,17.4c2.6-6.8-3.5-18.7-9.8-21.7c-7.6-3.6-15.6-3.2-23.5-1.9
		c-8.3,1.4-16.5,3.6-25.1,5.5c-6.4-37.6-11.9-75.3-24.7-111.3c-0.3,0.5-0.4,1-0.2,1.5c9.8,35,15.8,70.8,21.4,106.7
		c0.9,5.5-0.2,6.8-5.9,7.2c-4.2,0.3-8.4,0.3-12.4,1c-2.1,0.4-4.8,1.3-6,2.9c-3.6,5-8.6,7.5-14.2,9.7c-5.4,2.1-10.5,4.9-15.8,7.4
		c-0.7,0.3-1.6,0.5-2.4,0.5c-8.1,0.2-15.1,3.6-21.9,7.6c-1.9,1.1-3.8,2.3-6,3.7c-0.2-1.3-0.3-2-0.3-2.6c-0.6-30.3-1.2-60.6-2-90.9
		c-0.1-3.4,1.4-4,4.2-4.6c13.8-3,27.7-5.9,41.3-9.6c4.6-1.3,9.1-4.2,12.9-7.2c3.8-3,3.2-6.6-0.6-9.6c-6-4.6-30.8-10.7-39.9-9.4
		c3.4,0.8,5.8,1.3,8.2,1.9c8.5,2.2,17.1,4.3,25.5,6.9c2.6,0.8,4.5,3.4,6.8,5.2c-2.1,2.2-3.8,5.1-6.3,6.4c-4.5,2.4-9.4,4.3-14.4,5.6
		c-45.2,12.1-90.7,14-136.5,4.3c-6.6-1.4-13.2-3.4-19.5-6c-5.6-2.3-6.3-6.4-1.9-10.5c3.4-3.2,7.7-5.8,12-7.8
		c5.3-2.4,11-3.8,16.5-5.6c-10.3,0.7-20,3.1-28.2,9.7c-8,6.5-7.1,13.7,2.5,17.3c7.1,2.7,14.6,4.5,22.1,6.1c3.7,0.8,4.4,2.2,3.9,5.7
		c-1.4,10.1-2.3,20.2-3.6,30.3c-1.2,9.5-2.6,19-3.9,28.5c-3.2-0.2-5.6-0.3-8.1-0.5c0-1.3,0-2.3,0-3.3c0.6-19-7.8-29-26.6-31.5
		C13.9,664,7.5,663.6,1,663C1,642,1,621,1,600z"/>
	<path class="st0" d="M613,290c-4.1-2.2-8-4.7-12.3-6.4c-3.4-1.4-6.5-0.8-7.9,3.5c-0.4,1.2-2.1,2.6-3.4,2.9
		c-20.1,4.2-30.8,19.7-26.9,44c0.7,4.4,3.3,9.6,1.7,13c-1.4,3.1-7.2,4.3-11.1,6.3c-11.2,5.7-16.9,16.6-14.9,29
		c-6.7-2-13.4-3.9-19.9-6.1c-0.9-0.3-2-2.1-2-3.3c0.5-21.8,0.5-43.6,4.3-65.2c2.9-16.4,4.4-33,6.3-49.5
		c5.1-45.3,9.7-90.6,15.3-135.8c1.5-12.1,5.4-24,9.3-35.6c3.5-10.4,8.3-11.5,16.5-4.1c4.2,3.7,7.5,9,10,14.1
		c11.4,23.2,18.1,47.9,23,73.1c3.7,19,7.4,37.9,11.2,56.8c0.2,0.8,0.6,1.5,0.8,2.3C613,249.3,613,269.7,613,290z"/>
	<path class="st0" d="M398,793c-19.1-32.4-38.4-64.7-57.1-97.3c-19.2-33.4-37.7-67.1-56.7-100.5c-4.3-7.5-9.3-14.5-14.6-22.7
		c24.5-1.9,48.1-6.8,72.1-7.6c0.1,0.8,0.2,1.5,0.3,2.3c-1.8,0.2-3.7,0.5-5.5,0.7c-9.3,1-17.7,4.2-24.8,10.4
		c-8.4,7.3-7.2,14.5,3.5,17.3c10.1,2.7,20.6,3.9,30.8,6c2.1,0.4,4.3,1.5,5.8,3c15.6,15,31,30.3,46.6,45.2c3.3,3.1,5,6.1,4.7,10.7
		c-0.4,7.5,1.1,14.7,6.2,20.5c10.3,11.6,23,18.8,38.7,18c4.7-0.2,7.1,1.4,9.9,3.8c7.3,6.1,14.5,12.2,21.7,18.5
		c1.2,1,1.6,2.9,2.4,4.5c-1.4,0.6-2.8,1.3-4.3,1.8c-7.3,2.6-14.9,4.6-21.9,7.9c-7.9,3.7-12.7,10.7-13.3,19.3
		c-0.5,8.2-0.8,16.9,1.3,24.7c1.4,5.1,7.3,9,11.2,13.4C436,793,417,793,398,793z"/>
	<path class="st0" d="M1,84c24.2-7.5,48.2-15.4,72.5-22.4c57.9-16.8,115.9-33.3,173.8-49.9c2.9-0.8,4.6-0.7,5.8,2.4
		c0.9,2.5,2.3,4.7,3.7,7.5c-6.4,4.5-12.5,9-18.9,13.3c-42,28.4-83.9,56.7-126,85C86.5,137,60.8,153.9,35.2,171
		c-2.8,1.9-4.7,2.5-7.7-0.2c-5.4-4.8-9.4-4.9-15.3-0.7c-4,2.9-7.5,6.5-11.2,9.9C1,148,1,116,1,84z"/>
	<path class="st0" d="M613,731c-3.5-0.2-7-0.5-10.9-0.7c0.4,3.9,0.8,8.4,1.4,12.8c1.7,13.3-7.5,20-17.8,23.5
		c-1.3,0.4-3.2-1.1-4.8-1.4c-2.3-0.4-5.6-1.6-6.8-0.5c-9.7,8.4-21.7,9.9-33.5,11.6c-18.3,2.7-36.6,5.5-55,6.9
		c-8.4,0.6-17.2-1.1-25.5-3.2c-6.7-1.7-13.3-5.3-14.2-13.6c-1.1-9.8,0-19.2,8.6-25.7c7-5.2,15-8.8,23.9-9.4c5.1-0.4,7.6-2.2,6.2-7.9
		c13.7,1.4,26.9-0.3,39.8-3.5c12.3-3,25-5.1,36.1-11.6c-0.2-0.8-0.4-1.5-0.6-2.3c-2.7,0.6-5.3,1.2-8.7,2c0.7-6.8-2.9-13.7,1.3-18.8
		c-1-3.8-2.4-6.7-2.3-9.5c0.1-2.6,1.9-5.1,3.1-8.1c-0.2-0.1-1.2-0.6-2.1-0.5c-4.6,0.5-5.1-3.1-5.9-6c-0.9-3.4,2-4.3,4.4-4.7
		c7.4-1.3,14.8-2.2,22.1-3.7c3.7-0.8,7.4-2.3,10.5-4.4c6.1-4.1,5.5-10.2-1.5-12.1c-5.5-1.5-11.5-1.6-17.2-1.1
		c-8.6,0.8-17.1,2.8-24,9.1c-4.5-2.3-9.2-4.8-14.9-7.8c3.2-1.4,5.7-2.8,8.3-3.5c15.6-4.4,31.5-7,47.9-6c2.7,0.2,5.3,0.4,7.9,1.1
		c8.7,2.2,13.7,8.6,11.3,16.4c-6.1,20.2-3,40.3-0.4,60.4c0.7,5.3,1.7,10.5,2.6,15.8c0.8-0.1,1.5-0.2,2.3-0.3
		c-0.6-7.1-1.2-14.3-2-21.4c-0.7-6.5-1.7-12.9-2.2-19.4c-0.9-10.9-0.1-21.5,2.8-32.2c3.4-12.4-3.2-21.9-16.1-23.4
		c-8.1-0.9-16.3-0.6-24.4-0.4c-6.3,0.1-9.7-3.6-8.2-9.7c1.4-5.5,4.3-9.5,10.1-11.3c13.1-4,26.2-4,39.4-0.6c3.1,0.8,6,1.9,9,2.9
		c0,2.3,0,4.7,0,7c-11.6-0.7-23.2-1.5-34.7-2.2c0-0.4,0-0.9,0-1.3c6.1-0.6,12.2-1.2,18.3-1.8c-0.9-1.2-1.8-1.6-2.7-1.6
		c-6.8,0-13.6-0.1-20.4,0.2c-1.7,0.1-3.3,1.7-5,2.6c1.4,1.4,2.7,3.3,4.4,3.9c2.9,1.1,6.1,1.8,9.2,1.9c10.3,0.3,20.6,0.2,31,0.3
		C613,655.7,613,693.3,613,731z"/>
	<path class="st0" d="M1,186c4.2-4.2,8.1-8.8,12.8-12.5c5.1-4,8.4-3.3,13.1,1.5c5.3,5.4,8.9,11.7,10.2,19.1
		c4.4,25.3,9,50.5,12.8,75.8c5,32.8,9.2,65.6,13.9,98.4c0.7,4.6,0.1,8.4-2.9,12.5c-12.9,18-17,38.8-17.2,60.5c0,1.5,0,3,0,4.5
		c0,0.3-0.2,0.6-0.4,1.3c-14,2.8-28.2,2.1-42.4-0.1C1,360,1,273,1,186z"/>
	<path class="st0" d="M499,1c-4.9,15.5-14.5,27.5-27.5,36.9c-14.8,10.8-31.7,16.9-49.3,20.9c-22,4.9-44.3,7.4-66.9,5.2
		c-27.5-2.6-53-10.9-76.3-26c-13.7-8.9-22.6-21.4-27-37C334.3,1,416.7,1,499,1z"/>
	<path class="st0" d="M248,1c0.5,1.9,1.1,3.8,1.7,6.2c-8.7,2.5-17.2,4.8-25.6,7.3C150.7,36.1,77.3,57.8,3.9,79.5C3,79.7,2,79.8,1,80
		C1,53.7,1,27.4,1,1C83.3,1,165.7,1,248,1z"/>
	<path class="st0" d="M151,793c-35.7,0-71.3,0-107,0c0.7-4,1.3-8,2.1-12.3c4.2,0.2,7.6,0.5,11.1,0.6c18.5,0.4,37,0.3,54.9-5.4
		c7.8-2.5,12.7-7.9,14.2-15.9c2.2-12-1.7-21.8-11.5-28.9c-11.8-8.5-24.6-14.7-39.6-14.9c-2.8,0-5.6-0.7-8.3-1.5
		c-8.2-2.4-9.6-4.5-8.7-11.8c2.4-20.3,4.7-40.7,7.1-61c0.2-1.6,0.6-3.1,0.9-4.8c28.3,5.1,56.1,5.2,84.1,2c0.3,1.2,0.6,1.8,0.6,2.5
		c0.5,31.8,0.9,63.6,1.2,95.5c0,1.4-1,3.1-2,4.3c-9.6,11.2-8.6,26.6,1,34.8C151,782.6,151,787.8,151,793z"/>
	<path class="st0" d="M552.5,482c15.3-11.1,49.8-9.2,60.5,2c0,11.3,0,22.7,0,34c-0.9,5.1-2,10.1-2.6,15.2c-2,17.4-11.1,30.5-25.3,40
		c-7,4.7-14.5,8.8-22.1,12.5c-5.5,2.7-11.4,5.4-17.4,6.2c-11.8,1.6-23.8,1.7-35.7,2.7c-6,0.5-12.1,1.1-18,2.5
		c-5.3,1.3-9.9-1.4-10.1-6.9c-0.2-5.9,3.3-9.9,7.9-12.5c8.4-4.6,17.1-9,26-12.7c9.2-3.8,17.6-8.6,24.4-16c7.7-8.3,8.7-15.4,3.8-25.4
		c-0.5-1.1-0.3-2.9,0.2-4c1.5-3.3,3.1-6.7,5.2-9.6c4.9-6.7,4.6-13.9,3-21.5c-0.4-2.1,0.2-4.5,0.4-6.8
		C552.7,481.8,552.5,482,552.5,482z"/>
	<path d="M151,793c0-5.2,0-10.4,0-16.8c-9.6-8.2-10.6-23.6-1-34.8c1-1.2,2-2.9,2-4.3c-0.3-31.8-0.8-63.6-1.2-95.5
		c0-0.6-0.3-1.3-0.6-2.5c-27.9,3.2-55.8,3-84.1-2c-0.3,1.7-0.8,3.3-0.9,4.8c-2.4,20.3-4.7,40.7-7.1,61c-0.9,7.3,0.5,9.4,8.7,11.8
		c2.7,0.8,5.6,1.4,8.3,1.5c15,0.2,27.8,6.4,39.6,14.9c9.9,7.1,13.8,16.9,11.5,28.9c-1.5,8-6.4,13.4-14.2,15.9
		c-17.9,5.7-36.4,5.8-54.9,5.4c-3.5-0.1-6.9-0.4-11.1-0.6C45.3,785,44.7,789,44,793c-1.3,0-2.7,0-4,0c0.8-4.2,1.6-8.3,2.4-12.5
		c-14.3-2.6-27.9-5-41.4-7.5c0-1.3,0-2.7,0-4c5.7,1.2,11.4,2.4,17.1,3.6c25.5,5,51.1,7.3,77,3.5c5.7-0.8,11.4-2.3,17-4
		c5.9-1.8,9.7-6.9,9.7-12.3c-4.7,5.9-11,8.2-17.8,9.7C69.3,777.6,35.1,772.8,1,766c0-0.7,0-1.3,0-2c7.9,0.9,15.9,1.8,23.8,2.7
		c20.8,2.3,41.7,5.4,62.7,2.3c11.6-1.7,23.6-2.6,32.6-11.9c2.6-2.6,3.3-5,2.6-8.4c-2.9-12.6-18-23-30.8-21.3
		c-9.9,1.3-17.7,6-24.8,12.7c-4.1,3.9-5,7.7-3.4,12.9c1,3.2,1.2,6.7,1.7,10.1c-0.6,0.1-1.3,0.2-1.9,0.3c-2.6-6.3-5.6-12.5-3.8-19.7
		c0.4-1.5,1.6-2.8,2.7-4c8-8.4,17.1-14.9,29.2-16.2c-5.2-2.4-9.8-3.7-15.1-0.2c-7.4,4.9-15.4,8.9-23.6,13.5c1.9,1.4,2.7,2.1,3.7,2.8
		c-3.6,0.8-6.9,1.5-9.5,2c-1.3-1-2.4-2.2-3.6-2.7c-2-0.8-4.2-1.1-6.3-1.6c-7.8-2.1-15.2-5.6-23.8-3.1c-3.8,1.1-8.2-0.1-12.4-0.2
		c0-1.3,0-2.7,0-4c3.7,0.3,7.3,0.6,11,0.8c10.8,0.4,11.8-0.6,10.8-11.3c0-0.3-0.3-0.5-0.4-0.6c-7.2-0.6-14.3-1.2-21.4-1.8
		c0-1.3,0-2.7,0-4c6.3,0.6,12.5,1.4,18.8,1.7c1.3,0.1,3-1.4,3.9-2.6c1.2-1.7,1.8-3.8,2.7-5.9c-8.6,0.6-17,1.2-25.4,1.8
		c0-1.3,0-2.7,0-4c12.6-1.4,25.3-2.8,37.9-4.4c3.9-0.5,5.2-3,4-6.4c-14.1,1.9-28.1,3.9-42,5.8c0-1.3,0-2.7,0-4
		c6.2-0.5,12.4-1,18.2-1.5c0.4-4.9,0-9,1.1-12.7c1.1-3.8,3.7-7.2,5.6-10.8c-8.5-3.6-9-3.3-12.1,4.5c-0.7,1.7-1.5,3.4-2.3,5.1
		c-0.5-0.2-1-0.4-1.5-0.6c1.2-3.9,2.3-7.8,3.5-11.7c-8.8-1.8-8.8-1.8-12.2,6.3c-0.1,0.1-0.2,0.2-0.4,0.3c0-3.7,0-7.3,0-11
		c6.5,0.6,12.9,1,19.4,1.8c18.8,2.5,27.2,12.6,26.6,31.5c0,1,0,2,0,3.3c2.5,0.1,4.9,0.3,8.1,0.5c1.3-9.5,2.7-19,3.9-28.5
		c1.3-10.1,2.2-20.2,3.6-30.3c0.5-3.5-0.2-4.9-3.9-5.7c-7.5-1.6-15-3.4-22.1-6.1c-9.6-3.6-10.5-10.8-2.5-17.3
		c8.2-6.6,17.9-9,28.2-9.7c-5.5,1.8-11.2,3.2-16.5,5.6c-4.3,2-8.6,4.6-12,7.8c-4.5,4.2-3.7,8.2,1.9,10.5c6.3,2.6,12.9,4.6,19.5,6
		c45.8,9.7,91.4,7.8,136.5-4.3c5-1.3,9.9-3.2,14.4-5.6c2.5-1.3,4.2-4.2,6.3-6.4c-2.2-1.8-4.2-4.4-6.8-5.2c-8.4-2.7-17-4.7-25.5-6.9
		c-2.4-0.6-4.8-1.1-8.2-1.9c9.1-1.3,33.9,4.7,39.9,9.4c3.8,2.9,4.4,6.6,0.6,9.6c-3.9,3-8.3,6-12.9,7.2c-13.6,3.7-27.5,6.6-41.3,9.6
		c-2.8,0.6-4.3,1.2-4.2,4.6c0.8,30.3,1.3,60.6,2,90.9c0,0.6,0.2,1.3,0.3,2.6c2.2-1.4,4.1-2.6,6-3.7c6.8-4,13.8-7.4,21.9-7.6
		c0.8,0,1.7-0.2,2.4-0.5c5.3-2.4,10.4-5.3,15.8-7.4c5.5-2.2,10.5-4.7,14.2-9.7c1.2-1.6,3.9-2.6,6-2.9c4.1-0.7,8.3-0.7,12.4-1
		c5.7-0.4,6.7-1.7,5.9-7.2c-5.6-35.9-11.5-71.7-21.4-106.7c-0.1-0.4,0-1,0.2-1.5c12.8,36,18.3,73.7,24.7,111.3
		c8.6-1.9,16.8-4,25.1-5.5c7.9-1.4,15.9-1.7,23.5,1.9c6.3,3,12.4,14.9,9.8,21.7c-2.6-5.5-5.1-10.9-8.2-17.4
		c-6.2,11.1-16.8,13.5-26.6,17.6c-10.6,4.4-20.9,9.4-31.3,14.1c-1,0.4-2.2,0.4-3.3,0.3c-6.2-0.5-10.3,3.4-14.6,6.8
		c-0.4,0.3-0.4,1.1-0.6,1.7c-2.8-0.2-5.4-0.4-7.6-0.5c-0.4-1.4-0.3-3.6-1.2-4.2c-11.3-6.5-23.2-9.9-36.1-4.7
		c-0.7,0.3-1.3,0.8-2.5,1.5c11.4,2.1,22.4,3.6,29.8,12.6c-0.2,0.5-0.5,1.1-0.7,1.6c-1.3-0.6-2.6-1.3-4-1.9c-8.3-3.4-16.4-7-24.9-9.8
		c-2.3-0.8-6,0.1-8.2,1.6c-6.4,4.1-13,8.2-15.3,16.1c19.6,12.7,40.5,16.2,63.5,12.1c19-3.4,35.9-10.6,51.7-21.2
		c12-8.1,24.4-15.6,36.8-23.1c4.8-2.9,6.5-1.9,8.1,3.5c1.9,6.6,0.7,11.9-4.9,16.4c-20.8,16.7-43.4,29.8-69.5,36
		c-13.1,3.1-26.3,5.5-39.5,7.9c-12,2.2-23.5-0.1-34.7-4.5c-0.8-0.3-1.6-0.6-2.4-0.8c-0.3-0.1-0.6,0-1.2,0c-0.4,4.7-0.9,9.4-1.3,14.2
		C153,793,152,793,151,793z M59.5,715.6c-1.9,1.3-3.7,2.7-5.6,4c-6.3,4.1-12.7,8.1-19.1,12.1c4.5,2.3,8.4,3.5,12.5,4.2
		c1.4,0.2,3.2-0.3,4.5-1.1c8.3-5,16.5-10.2,23.2-14.3c-4-1.2-9.8-3-15.6-4.8c-2.7-3.6-5.4-7.2-8.1-10.9c0.3-0.6,0.6-1.1,0.9-1.7
		c-3.2,0.5-6.4,0.9-9.6,1.6C26.9,708.4,25.7,710,27,726c0.1,1.7,1.2,4.1,2.5,4.8c1.2,0.6,3.6-0.5,5-1.5
		C42.2,723.6,49.6,717.4,59.5,715.6z M146.2,756c1.8,7-0.1,13.9,6.9,17.3c9.8,4.7,20.1,7.4,31.2,8c18.6,1.1,35.1-7.6,52.8-10.6
		c24.2-4.1,44.8-18.2,63.7-33.9c5.2-4.3,5.5-7.7,1.8-14.2c-2,1.1-4,2.2-6,3.4c-10.7,6.7-21.6,13.2-32,20.4
		c-17,11.8-35.5,19.2-56,22.1c-19,2.7-37.2,1.9-54-8.5C152.3,758.7,149.8,757.8,146.2,756z M246.1,702.5c5.5,1.5,7.3,5.5,5.6,10
		c-1.4,3.8-4.6,7-7.1,10.6c12.5-5.2,25.4-10.4,38.1-16.1c3.3-1.5,5.9-4.8,9.7-8C275.4,693.3,261,699.6,246.1,702.5z M213.2,716.5
		c5.5,2.7,11.2,5.5,16.9,8.2c0.9,0.4,2.5,0.6,3.2,0.1c4.5-2.9,9.1-5.7,13-9.2c1.5-1.3,1.7-4.6,1.6-6.8c-0.1-0.8-3.2-1.7-5-1.8
		c-3.6-0.2-7.3,0.3-11,0C223.5,706.2,217.1,709.1,213.2,716.5z M23.5,692.6c6.4-1.3,12.7-2.5,19.3-3.8c-1.2-7.6-4-13.2-10.3-16.4
		c-1.1-0.6-3.7-0.3-4.4,0.6C23.4,678.4,21.3,684.6,23.5,692.6z M228.2,728.3c-14.8-10.1-24-10.9-35.1-3.2c3.8,1.2,7.5,2.1,10.9,3.6
		c3.6,1.6,7,3.8,10.5,5.6c0.7,0.4,2,0.3,2.7-0.1C220.8,732.4,224.2,730.5,228.2,728.3z"/>
	<path class="st0" d="M613,174c-5.1-4.7-9.7-9.5-11.1-16.9c-4-21.2-11-41.5-20-61.1c-3.9-8.4-8.5-16.2-17.7-20.1
		c-6.2-2.7-9.8-1.7-13.5,4.1c-1.1,1.7-1.9,3.5-2.7,5.3c-0.8,1.8-1.5,3.7-2.5,6c-13.4-16.6-26.6-32.9-39.7-49.2
		c-4.1-5.1-8.1-10.2-11.8-15.5c-1-1.4-1.5-4.3-0.7-5.4c1.9-2.6,2.1-7.5,7.5-6.4c11.8,2.3,23.5,4.5,35.4,6.5
		c25.6,4.3,51.3,8.4,76.9,12.6C613,80.7,613,127.3,613,174z"/>
	<path class="st0" d="M613,469c-3.1-6.8-5.9-13.7-9.5-20.2c-4-7.3-7.8-14.4-10.5-22.4c-3.9-11.7-13.1-19.5-22.9-26.2
		c-7.1-4.8-14.9-8.8-22.5-12.9c-5.9-3.2-8.2-7.9-6.2-14.5c2.8-9.1,8.8-15,17.8-18.1c9.8-3.5,10.2-4.8,8.2-15.1
		c-1.2-6.2-2.2-12.6-1.8-18.7c1-14.6,9-23.4,23.2-26.9c3.4-0.8,6.9-1.2,7.8-5.7c0.1-0.5,3.3-1.2,4.5-0.6c4.1,2.2,7.9,4.9,11.8,7.3
		C613,353,613,411,613,469z"/>
	<path class="st0" d="M1,480c1.2-1.6,2.4-3.1,3.6-4.7c9.4-13.8,22.4-22,39.2-24.7c3.7,6.6,2.1,18.2,14.7,18.2
		c1.8,15.9,6.4,31,17.4,45.5c-11-3.2-20.3-1.6-29.4,1.7c-1.7,0.6-3.5,1.1-5.2,1.9c-12.1,5.3-13.6,19-3,27.2c2.9,2.3,5.5,4.9,8.7,7.7
		c-11.9,4.6-28.4,0.6-36.8-8.6c-3.3-3.5-6-7.5-9-11.3C1,515.3,1,497.7,1,480z"/>
	<path class="st0" d="M1,734c4.1,0.1,8.6,1.3,12.4,0.2c8.6-2.4,16,1,23.8,3.1c2.1,0.6,4.3,0.9,6.3,1.6c1.3,0.5,2.3,1.7,3.6,2.7
		c2.6-0.5,5.9-1.2,9.5-2c-1-0.7-1.8-1.4-3.7-2.8c8.2-4.7,16.2-8.7,23.6-13.5c5.3-3.5,10-2.2,15.1,0.2c-12.1,1.3-21.2,7.9-29.2,16.2
		c-1.1,1.2-2.4,2.5-2.7,4c-1.8,7.2,1.2,13.4,3.8,19.7c0.6-0.1,1.3-0.2,1.9-0.3c-0.5-3.4-0.7-6.9-1.7-10.1c-1.6-5.2-0.7-9,3.4-12.9
		c7.1-6.7,14.9-11.4,24.8-12.7c12.8-1.6,27.9,8.7,30.8,21.3c0.8,3.4,0,5.7-2.6,8.4c-9.1,9.3-21.1,10.1-32.6,11.9
		c-21,3.1-41.9,0-62.7-2.3c-7.9-0.9-15.9-1.8-23.8-2.7C1,754,1,744,1,734z"/>
	<path class="st0" d="M1,540c1,1,2.2,2,3.1,3.1C14.7,556.7,29,560,45.2,557.8c4.5-0.6,6-3.7,3.4-7.5c-1.9-2.8-4.5-5.3-7.3-7.4
		c-4.7-3.6-6.9-8.2-6.2-13.9c0.6-5.1,4.9-6.8,9-8.3c9.6-3.6,19.4-6.3,29.8-3.8c1.1,0.3,2.1,0.6,3.4,1c-14,10.9-15,15.5-5.7,26.4
		c-6.1,1.4-10.4,4.8-12.6,10.7c-2.4,6.4-1,12.5,1.4,18.5c1.5,3.8,3.2,7.6,5.1,12.2c-3,0.2-5.5,0.4-8.4,0.5c0.2-2.3,0.3-4.2,0.5-6
		c-3,6.9-8.4,8-15.2,6.9c0.4-3.6,0.9-7.2,1.4-10.8c-0.5-0.1-1.1-0.2-1.6-0.4c-0.5,1.9-1,3.8-1.4,5.7c-0.3,1.9-0.4,3.9-0.7,6
		c-5.1,1.4-10,2.7-15.7,4.2c1.7-4.1,3.1-7.3,4.4-10.5c-0.4-0.3-0.8-0.5-1.2-0.8c-1.1,1.6-2.6,3-3.2,4.8c-1.9,5.8-5.8,8-11.7,7.7
		c-1.6-0.1-3.3,0.2-5.1,0.3c2.7-4.6,5.2-9.1,7.7-13.5c-0.7-0.4-1.5-0.9-2.2-1.3c-2.8,4.5-5.5,9-8.4,13.4c-1,1.5-2.5,2.8-3.7,4.1
		C1,577.3,1,558.7,1,540z"/>
	<path class="st0" d="M613,30c-13.3-2-26.6-3.7-39.9-6c-23.4-4-46.8-8.3-70.2-12.5c-1-0.2-1.9-0.5-3.3-0.8c1.2-3.4,2.2-6.6,3.3-9.8
		c36.5,0,73.1,0,109.6,0c0.1,0,0.3,0.1,0.4,0.1C613,10.7,613,20.4,613,30z"/>
	<path class="st0" d="M461,793c-5.2-4.5-11.8-7.5-14.2-14.5c6.9,2.5,13.4,6.4,20.3,7.1c11.3,1.1,22.9,1,34.3,0
		c15.2-1.4,30.4-3.9,45.5-6.6c9.9-1.8,20.1-3.3,28.1-10.6c0.8-0.7,3.1-0.8,3.9-0.2c4,3.3,8,1.9,11.7-0.1c4.3-2.4,8.3-5.4,12.3-8.2
		c2.1,7,0.7,11.9-5.8,14.7c-5.9,2.5-12.4,3.7-18.6,5.2c-0.9,0.2-2-0.8-3.1-1c-1.2-0.3-2.6-0.7-3.7-0.3c-3.3,1.1-6.5,2.9-9.9,3.9
		c-10,2.7-20.1,5.2-30.2,7.6c-5.2,1.2-10.4,2-15.6,3C497.7,793,479.3,793,461,793z"/>
	<path class="st0" d="M613,599c-5.1,3.3-8.2,3.4-17.8,0.2c2.3-1.2,4.2-2,6-3c1.6-1,3.1-2.1,4.6-3.2c-0.2-0.4-0.4-0.8-0.7-1.2
		c-3.3,1.4-6.8,2.5-9.8,4.3c-3,1.8-5.7,1.9-8.9,0.6c-3.5-1.5-7.2-2.5-11.6-4c8.3-3.1,15.9-5.8,23.5-8.6c-0.2-0.7-0.4-1.4-0.7-2.1
		c-5.2,1.4-10.4,2.8-15.6,4.3c-5.2,1.5-10.4,3-16.1,3.5c20.9-11.5,40.4-23.9,47.1-48.8C613,560.3,613,579.7,613,599z"/>
	<path class="st0" d="M580,793c-3.5-2.5-7-4.9-11.8-8.3c2.9-0.6,4.7-1.3,6.5-1.3c10.8-0.1,21.4-1.5,29.3-9.6
		c2.3-2.4,2.9-6.9,3.2-10.5c0.5-5.2,0.1-10.5,0.1-15.9c2.1-0.1,3.9-0.2,5.7-0.3c0,15.3,0,30.7,0,46C602,793,591,793,580,793z"/>
	<path class="st0" d="M1,773c13.6,2.4,27.1,4.9,41.4,7.5c-0.8,4.2-1.6,8.4-2.4,12.5c-13,0-26,0-39,0C1,786.3,1,779.7,1,773z"/>
	<path class="st0" d="M1,674c0.1-0.1,0.3-0.2,0.4-0.3c3.4-8.1,3.4-8.1,12.2-6.3c-1.2,3.9-2.3,7.8-3.5,11.7c0.5,0.2,1,0.4,1.5,0.6
		c0.8-1.7,1.6-3.4,2.3-5.1c3.1-7.8,3.6-8.1,12.1-4.5c-1.9,3.6-4.5,7-5.6,10.8c-1.1,3.7-0.7,7.8-1.1,12.7c-5.8,0.5-12,1-18.2,1.5
		C1,688,1,681,1,674z"/>
	<path class="st0" d="M1,766c34.1,6.8,68.3,11.6,102.9,3.5c6.8-1.6,13.1-3.9,17.8-9.7c0.1,5.4-3.7,10.5-9.7,12.3
		c-5.6,1.7-11.2,3.2-17,4c-25.9,3.8-51.5,1.5-77-3.5c-5.7-1.1-11.4-2.4-17.1-3.6C1,768,1,767,1,766z"/>
	<path class="st0" d="M1,717c7.1,0.6,14.2,1.2,21.4,1.8c0.1,0.1,0.3,0.4,0.4,0.6c0.9,10.7-0.1,11.7-10.8,11.3
		c-3.7-0.1-7.3-0.5-11-0.8C1,725.7,1,721.3,1,717z"/>
	<path class="st0" d="M1,699c13.9-1.9,27.8-3.8,42-5.8c1.1,3.4-0.1,5.9-4,6.4c-12.6,1.6-25.3,2.9-37.9,4.4C1,702.3,1,700.7,1,699z"
		/>
	<path class="st0" d="M1,451c7.2,0.5,14.4,1.1,21.9,1.7c-4.6,3.9-9.2,7.5-13.5,11.4c-3,2.7-5.6,5.9-8.3,8.9C1,465.7,1,458.3,1,451z"
		/>
	<path d="M613,618c-10.3-0.1-20.6,0-31-0.3c-3.1-0.1-6.3-0.8-9.2-1.9c-1.7-0.6-2.9-2.6-4.4-3.9c1.7-0.9,3.3-2.5,5-2.6
		c6.8-0.3,13.6-0.2,20.4-0.2c0.9,0,1.8,0.4,2.7,1.6c-6.1,0.6-12.2,1.2-18.3,1.8c0,0.4,0,0.9,0,1.3c11.6,0.7,23.2,1.5,34.7,2.2
		C613,616.7,613,617.3,613,618z"/>
	<path class="st0" d="M1,708c8.4-0.6,16.8-1.2,25.4-1.8c-0.9,2.1-1.5,4.2-2.7,5.9c-0.9,1.2-2.6,2.7-3.9,2.6
		c-6.3-0.3-12.5-1.1-18.8-1.7C1,711.3,1,709.7,1,708z"/>
	<path class="st0" d="M613,209c-2.7-12.6-5.4-25.2-8.2-38.1c3,3.3,5.6,6.2,8.2,9.1C613,189.7,613,199.3,613,209z"/>
	<path class="st0" d="M539,793c8.2-1.9,16.2-4.6,24.5-5.5c3.3-0.3,7,3.5,10.5,5.5C562.3,793,550.7,793,539,793z"/>
	<path d="M257,793c-1.6-7-4.2-13.8-4-21.1c0.6-0.1,1.1-0.2,1.7-0.4c1.8,7.2,3.5,14.3,5.3,21.5C259,793,258,793,257,793z"/>
	<path class="st0" d="M613,744c-7-1.1-7.1-1.3-6.7-9c2.2,0,4.5,0,6.7,0C613,738,613,741,613,744z"/>
	<path class="st0" d="M203.2,428.9c-0.6-2.5-1.2-5-1.9-7.4c-0.3,0-0.6-0.1-0.9-0.1c-0.4,4.5-1.2,9-1.2,13.6
		c-0.4,24.4,3,48.5,7.4,72.5c2.8,15.3,6.9,30.5,10.9,45.6c3.6,13.6-5.2,23.9-19.8,22.6c-0.1-4.2,1.9-8.8-3-13.5
		c-0.1,2.8-0.4,4.4-0.3,5.9c0.5,6.5-1.7,9.4-8.1,10c-4.6,0.5-9.2,0.5-14.4,0.8c0.5-4.2,0.4-7.6,1.3-10.7c1.8-5.8,0.1-10.6-4.3-13.8
		c-5.5-4.1-11.7-7.3-17.4-10.8c-2-18.6-8.3-36.7-12.3-55.4c-4.4-21.2-8.7-42.4-8.9-64.2c0-3-0.1-6-0.1-9c0-5.4,0.2-10.8,6.9-12.5
		c0.5-0.1,1-0.5,1.2-0.8c8-11.7,20.2-20.8,23.4-35.6c2.3-10.7,2.8-21.3-5.9-29.9c-0.4-0.4-0.9-1.1-0.9-1.7
		c-2.6-20.1-8.2-39.8-7.4-60.4c0.7-18.3,4.7-35.8,12.7-52c15.2-30.9,56.1-44.9,85-33.1c11.2,4.6,22,9.5,30.4,18.6
		c8.4,9.1,13.9,25.2,12.1,38c-1-2.2-1.6-3.5-2.2-4.9c-2.4-4.9-6.2-7.7-11.9-7.6c-5.4,0.1-7.9,3.8-9.7,8.1
		c-2.6,6.5-2.2,13.1,0.6,19.4c3.1,7.1,9.4,9.3,16.5,6.1c1.5-0.7,2.9-1.4,4.5-2.2c0,7.9-2.5,14.1-6.7,16.4c-0.7-0.8-1.5-1.7-3-3.2
		c0,7.3-5.4,6.5-9.3,8.1c-0.5-1.5-1-2.9-1.4-4.2c-0.4,0-0.8,0-1.2,0c-0.2,1.5-0.4,3.1-0.7,5.1c-2,0.4-4.3,0.8-6.5,1.2
		c-0.8-1.4-1.4-2.6-2.5-4.4c-0.7,1.9-1.1,3.1-1.5,4.3c-3.8,1.7-9.7-0.7-11.4-4.5c-1.2,0.9-2.7,2.9-3.8,2.7c-3.7-0.7-8.4-0.5-8.6-6.2
		c-1.4,0.7-3.2,2.1-3.6,1.7c-1.4-1.2-2.9-2.8-3.3-4.5c-1.8-7.5-6-10.3-12.5-7.8c-6,2.3-7.1,7.6-7.4,13c-0.3,5.8,0.4,11.6,6.5,14.6
		c3.8,1.8,7.7,1.9,11-1.6c0.8-0.8,3-1.6,3.6-1.1c4.5,3.3,9.9,1.7,14.6,3c2,0.6,3.8,1.7,5.9,2.7c2.3-2.9,8.8-2.4,11.8,1.7
		c2-4.5,6.5-5.2,9.3-1.5c3.3-6,10.5-4.4,15.2-8.7c-0.9,9.7-7.6,17.3-16.1,18.5c-10,1.4-20.2,2.3-30.3,3.5c-2.3,0.3-4.5,0.6-6.7,1.8
		c9.6,3.8,19.2-0.1,29.6,0c-1.1,1.6-1.8,2.8-2.6,3.9c-9.6,13.2-8.9,25.8,1.9,38c4.3,4.8,8.2,9.9,12.3,14.8c-0.3,0.4-0.6,0.7-0.9,1.1
		c-3.7-0.5-7.4-1.1-11.1-1.3c-6.2-0.3-10.9,2.2-10.4,5.4c0.9,5.4,5.8,3.9,9.3,4.5c3.8,0.6,7.6,0.7,11.4,1.3c6.4,1,6.3,1.1,7.2,8.4
		c-4.9-4.4-10.1-6.6-16.4-5.2c-0.5,0.1-1.1,0-1.5,0.3c-6.7,5.2-15.1,3.9-22.6,5.9c-2.7,0.7-5.4,1.6-8,2.7c-9,3.9-12.5,10.4-11.1,20
		c0.2,1.3,0.5,2.6,0.8,4.2c-5.5,1.6-11.9,2.2-11.8,10.1L203.2,428.9z M203.7,262c5.9-3.1,7.2-2.9,12,1c1.4,1.1,3,2.2,4.6,2.9
		c9.9,4.4,18.6,0,20.6-10.5c0.8-4.2,1.2-8.6,0.9-12.9c-0.4-6.6-4.6-11.4-10.1-12.7c-7.1-1.8-11.7,0-16,6c-4.2,5.9-5.9,12.5-4.6,19.9
		C207.6,256.6,202.5,255.4,203.7,262z M245.8,268.2c0.2,0,0.3,0,0.5,0.1c0,1-0.1,2,0,3c0.2,1.8,0.7,3.6,0.8,5.4
		c0.2,3.9,2.3,4.3,5.4,3.2c1.6-0.5,3.5-1,5.1-0.6c5.7,1.1,8.1-1.2,6.2-6.7c-2-5.8-4.5-11.5-7.2-17c-0.7-1.5-3.1-3.4-4.4-3.1
		c-1.6,0.3-3.6,2.4-4.1,4.1C246.9,260.2,246.5,264.2,245.8,268.2z M227.3,380.1c-0.8-1.4-1.2-3.2-1.9-3.3c-2.3-0.4-5.1-1-6.8,0
		c-9.4,5.4-14.7,14-17.2,24.4c-0.3,1,0.8,3.2,1.7,3.5c1,0.3,3.1-0.6,3.6-1.6c3.8-7.7,10.5-12.7,16.9-17.9
		C225.2,383.9,226.1,381.9,227.3,380.1z M240.4,367.1c4-0.9,8.6-1.6,13-3c2.5-0.8,4-3,0.9-5.1c-4.1-2.8-16.6-1.1-19.9,2.5
		c-1.8,2-1.5,3.6,1,4.6C236.7,366.6,238.3,366.7,240.4,367.1z M161.7,546.9c4.6,5.1,22.5,3.2,29.7-4
		C181.5,544.2,171.2,545.6,161.7,546.9z"/>
	<path class="st0" d="M417.4,504.7c6.7-5.3,12.2-26.7,9.8-36.6c-0.7,5.6-1,11-2.1,16.2c-1.1,5.3-2.9,10.4-5.2,15.3
		c0.9-11.8,1.8-23.7,2.6-35.5c9.1,2.1,10.4,3.4,11.6,12.1c2.1,15.1-3.1,28.2-11.3,40.4c-0.6,1-2.9,1.7-4,1.3c-2.4-0.7-5.3-1.3-5.2-5
		c0.3-9.5,0.4-19,0.7-28.5c0.1-3.3,0.3-6.7,0.3-10c0-1.1-0.3-2.2-0.5-3.2c-0.5,0-1.1,0-1.6,0c-0.8,14.2-1.5,28.5-2.3,43.3
		c-5.1-0.5-10.5-1.4-15.9-1.5c-20-0.1-39.9,0.6-58.1,10.5c-4.7,2.6-5,7.1-3.8,11.8c-7.8,1.7-14.3-0.1-17.2-4.7
		c-4-6.3-2.7-11.9,4.8-21.2c-5.9-1.3-9.5,3.7-11.1,15.6c-5.8-8.1-1.6-19,8.2-20.3c3.7-0.5,7.7-0.3,11.4,0.1
		c12.6,1.3,22.4-6.9,22.5-19.6c0-4.9-0.9-9.9-1.8-14.8c-0.3-1.7-1.8-3.1-2.7-4.7c-0.5,0.2-1,0.4-1.4,0.6c0.3,1.5,0.7,3,0.9,4.5
		c0.5,5.4,1.4,10.9,1.2,16.3c-0.1,2.8-1.7,5.8-3.3,8.1c-4.2,5.8-6.7,5.8-12.5,1.9c-8.8-6-16.3-13.2-21.4-22.6
		c-6.9-12.5-7.2-25.9-4.5-39.4c3.3-16.8,5.8-33.5-0.3-50.7c1.7,0.1,2.7,0.2,3.8,0.3c-0.1-0.5,0-0.9-0.1-1.1
		c-22.6-18.7-24.3-43.1-19.4-69.6c6.2-33.6,31.9-45.6,59.2-48.1c47-4.2,81.8,37.6,74.3,83.5c-1.6,9.5-6,18.3-12.6,25.9
		c-5.6,6.5-9,14.3-10.4,22.9c-2.7,17.5-1.6,34.3,7.9,49.7c2.8,4.4,6.8,8.1,10,12.3c1.3,1.7,2.9,3.9,2.8,5.8
		c-0.6,11.3-1.6,22.6-2.5,33.8C417.8,501.3,417.6,502.6,417.4,504.7z M332.4,368.8c3.1-1.1,6.3-2.2,9.6-3.4c0.5,2.1,0.7,2.7,0.8,3.3
		c1.8,6.8,7.2,11.1,14.1,11.1c6.2,0,11.4-4.2,13.2-10.9c0.6-2.1,0.9-4.3,0.9-6.4c0.2-7.9-5.5-13.7-13.3-12.5
		c-4.4,0.7-8.7,3-12.5,5.4c-4,2.5-11,1.5-12.4-1.3c-2.4,0.3-4.5,1.2-6.1,0.7c-1.7-0.5-2.9-2.5-4.2-3.6c-5,3.7-8.9,2.7-12.1-3.6
		c-0.3,0.6-0.9,1.6-2.2,3.9c-3.1-2.8-5.7-5.2-8.2-7.7c-1.4-1.4-2.7-3-4.1-4.5c-1.4,1.5-3.6,2.8-4.1,4.5c-2.2,7.4-0.2,14.5,3.3,21.1
		c1.8,3.4,5,3.1,6.9-0.4c0.9-1.7,1.4-3.6,2.2-5.4c0.5-0.1,1-0.2,1.5-0.3c1.1,2.3,2.2,4.6,3.4,7.1c0.4-1.2,0.9-2.4,1.4-3.8
		c4.3,1.9,10.1,0.7,10.9,8.6c1.1-2.5,1.7-3.8,2.5-5.9C327.2,366.6,330.2,367.8,332.4,368.8z M294.1,320.5c0.7,4.5,0,10.7,6.2,13.4
		c6.2,2.7,11.6,0,15.9-4.2c6.4-6.3,9.1-14.2,7.2-23.2c-0.5-2.3-2.3-5-4.3-6.2c-6.2-3.8-13.1-2.3-18.8,2.4
		C294.7,307.3,294.6,313.5,294.1,320.5z M343,329.1c-0.1,9.1,3.2,14.4,10,14.7c4.4,0.1,9-0.7,13.1-2.1c5.7-2,13.4-16.1,12.5-21.5
		c-1-6.4-10-15.7-16.4-16.6c-2-0.3-4.4,0-6.1,1C346.4,309.8,343.2,318.7,343,329.1z M338.6,337.5c-0.6-3.6-0.5-7.1-1.8-10.1
		c-1-2.5-3.6-4.3-5.5-6.4c-2,1.9-4.7,3.4-6,5.7c-2.9,4.8-5.1,10-7.5,15.1c-0.7,1.5-2.1,4.1-1.6,4.5c1.5,1.3,3.6,2.1,5.6,2.5
		c2.8,0.7,5.8,0.4,8.4,1.4c3.7,1.4,5.9,0.3,6.8-3.2C337.7,343.9,338.1,340.5,338.6,337.5z M310.9,385.7c9.9,10.1,47.7,11.3,59.5,2.5
		C350.7,392.9,331.3,391.8,310.9,385.7z"/>
	<path class="st0" d="M145.2,303c-1-1.8-2-3.7-3.1-5.4c-1.1-1.8-2-4.1-3.6-5.4c-2.6-2.1-5.7-3.5-8.6-5.2c-1.6,2.9-4.1,5.6-4.7,8.7
		c-1.7,8.1,0.2,15.9,3.2,23.4c0.7,1.8,1.4,3.6,2.2,5.6c-8.1,1.4-14.8-1.2-21.2-5.2c-2.3-1.4-4.2-3.5-6.5-4.6c-3-1.3-6.6-3-9.5-2.4
		c-3.9,0.9-3.5,5.3-3.7,8.9c-0.1,1.5-1.4,3.5-2.7,4.3c-6.7,4.4-8.1,7.7-5.3,14.4c-5.1,7.5-5,9.7-0.2,13.9c-4.5,4.9-9,9.9-13.8,15.2
		c-0.8-5.9-1.6-12.4-2.5-18.8c-3-21.3-6.7-42.5-8.7-63.8c-1-10.6,0.2-21.7,2.5-32.1c6-26.3,12.8-52.4,20.1-78.3
		c3.3-11.5,8.4-22.5,13.3-33.4c2.1-4.7,5.4-9.2,9.1-12.9c5.2-5.3,9.4-5.3,15.7-1.3c9.1,5.7,14.7,14.2,17.6,24.1
		c5.5,19,10.2,38.3,15.1,57.4c0.5,1.9,0.7,3.9,1.1,5.9c1.7,8.1,1,15.8-1.2,24c-5.1,19.1-6.8,38.7-4.2,58.4c0.2,1.4,0.2,2.8,0.3,4.3
		C145.7,302.9,145.5,303,145.2,303z"/>
	<path class="st0" d="M268.6,462.8c3-12.8,6.7-25.1,8.6-37.7c2.9-18.9,3.4-38-6.9-55.4c-3.1-5.2-7.1-10-11.2-14.6
		c-10-11.3-10.9-21-3.5-34.1c2.7-4.7,5.4-7.5,11-8.2c9.5-1.2,16.6-14,17.7-22.6c0.4-2.8-1.2-3.8-3.7-2.4
		c-18.8,10.8-38.1,8.2-57.7,2.7c-1.6-0.5-4.2,0.4-5.6,1.5c-3.9,3.3-9.1,2.8-10.3-2.1c-1-4.5-0.6-9.5,0.3-14c0.3-1.7,4-3.5,6.2-3.6
		c1.4-0.1,4.1,2.5,4.4,4.3c1.3,6.4,5.8,8.9,11.2,10.9c16.8,6.1,33.3,5.4,49.5-2.1c7.8-3.7,12.5-17.1,9.1-24.8
		c-0.8-1.9-1.3-5.3-0.2-6.5c6-7.1,4.6-14.9,3.2-22.8c-2.7-15.5-11.3-27.2-24.1-35.9c-2.3-1.6-3.4-2.8-2.2-6
		c16.9-42.6,33.5-85.2,50.3-127.8c0.2-0.4,0.5-0.8,0.8-1.3c10.7,2.5,21.3,4.9,32.8,7.6c-1.3,9.5-2.2,19.2-4.1,28.7
		c-11.5,55.8-23.3,111.5-35,167.2c-0.2,1-0.4,2-0.6,2.9c-1,6.2-3,11.5-8.1,15.9c-10.4,9-12.6,22-15.2,34.5
		c-3.4,16-2.9,31.8,3.6,47.1c0.2,0.5,0.3,1,0.6,1.3c9.7,10.3,6.8,22.6,4.7,34.3c-3.3,19.3-7.6,38.5-11.3,57.8
		c-0.6,3-1.9,4.2-4.9,4.3C275.1,462,271.8,462.5,268.6,462.8z"/>
	<path class="st0" d="M389.3,230c-28.5-0.4-39.9,8.6-40.2,31.8c-6.2,1.2-12.6,2.1-18.7,3.8c-6.2,1.7-12.1,4.3-18.8,6.8
		c13.8-67.9,32-135.1,40.7-204c6.9,0,13.5,0,20.7,0c4.1,53.7,3.5,107.1,5.4,160.4c0.6,0.2,1.3,0.3,1.9,0.5c0.5-1.8,1.5-3.6,1.5-5.3
		c-0.4-22.5-0.7-45-1.4-67.5c-0.9-27.8-2.2-55.6-3.3-83.4c-0.1-1.3,0-2.6,0-4.2c12.5-1.4,24.8-2.7,37.7-4.1
		c5.1,25.7,10.1,51.2,15.3,77.5c-7.5-1.7-11.3,2.6-14.5,7.4c-3,4.4-5.7,9-7.8,13.8c-8.9,20.3-13.2,41.9-17.6,63.4
		C389.8,227.8,389.6,228.7,389.3,230z"/>
	<path class="st0" d="M155,216.6c-1.3-7.2-2-13-3.5-18.6c-4.1-15.3-8.1-30.6-12.8-45.7c-4-12.6-11-23.1-24.2-29.4
		c48.5-32.8,96.4-65.2,143.9-97.4c8.5,7,17.2,14.1,26.4,21.7C244.3,104.6,199.1,159.3,155,216.6z"/>
	<path class="st0" d="M513.9,375.2c-3.8-0.6-7.2-1.1-9.5-1.4c-0.5-5.3-1-9.9-1.4-14.5c-0.1-0.6,0-1.3,0.2-1.9
		c3.4-12.9-0.7-19.6-13.6-22.4c-0.3-0.1-0.6-0.2-1.4-0.5c0-2.4,0.1-5.1,0-7.7c-0.4-6.6-5.2-11.2-11.6-9.9c-4.9,1-9.5,3.7-13.9,6.2
		c-3.8,2.2-7.2,5.3-11.5,8.6c0.3-8,2.7-16-6.6-19c-7.3-2.3-12.6,0.6-17.9,8.9c-5.7-12.7-9.2-25.3-3.7-39.4
		c8.7-22.7,16.5-45.7,24.8-68.5c1.5-4,3.4-8,5.6-11.7c6.2-10.4,17.8-12.2,26.6-3.7c3.7,3.6,6.5,8.4,8.8,13.2
		c8.6,17.9,15.2,36.6,19.3,56.1c2.6,12.2,5.6,24.3,8.1,36.5c0.6,3,0.1,6.3-0.3,9.4c-2.6,19.4-3.9,38.8-2,58.3
		C514,372.7,513.9,373.7,513.9,375.2z"/>
	<path class="st0" d="M522.8,246.3c-0.9-1.9-2-3.7-2.7-5.6c-16.4-47-32.7-94-49.2-140.9c-5-14.1-10.6-28-15.9-42
		c-0.6-1.5-1.1-3.1-1.8-5.1c13.7-6.3,26-14.3,36-26.1c1.9,2.5,3.5,4.6,5.1,6.7c15.6,19.5,31.2,39,46.9,58.4c2.2,2.8,2.5,5.1,1.9,8.5
		c-3.9,22.8-8,45.6-10.8,68.5c-3.1,24.6-4.9,49.4-7.3,74.1c-0.1,1.1-0.5,2.1-0.8,3.2C523.6,246,523.2,246.2,522.8,246.3z"/>
	<path class="st0" d="M112.2,541.1c-9.2,2.8-17.5,5.4-26.2,8.1c-2.4-2-2.4-2,0.4-16.3c-4.9,1.8-6.9,5.5-8.1,10.2
		c-4.6-1.8-8.3-4.3-9.2-9.1c-0.9-4.8,2-8.1,5.6-10.9c3.1-2.5,5.7-3.1,10.1-2c14.6,3.7,28.1,0.6,39.3-9.9c1.1-1.1,1.9-2.5,2.8-3.8
		c-0.3-0.4-0.6-0.8-0.9-1.2c-1.6,1-3.4,1.9-4.9,3.1c-9.6,8.1-20.7,11.2-33.1,9c-2.4-0.4-5.2-1.7-6.8-3.5
		C69,501.3,63.2,485.1,62.5,467c-0.2-4.3-0.5-8.7,0-12.9c0.3-2.4,2.1-4.7,3.2-7.1c4.3-8.9,11.1-14.8,20.7-17.4
		c4.5-1.2,8.9-2.8,13.3-4.3c9.5-3.1,19.2-5.7,26.4-13.6c0.5,0.8,1,1.2,1,1.6c-1.6,28.3,3.9,55.7,10.4,83c3,12.8,6.9,25.3,10,38.1
		c0.6,2.5-0.2,5.4-0.4,8.6c-11.6,0-22.5,0-33.4-0.1C113,542.8,112.3,541.2,112.2,541.1z"/>
	<path class="st0" d="M312.9,58.8c-17.5,44.3-34.8,88.2-52.3,132.7c-14.3-6.7-28.1-11.6-43.4-10.3c-15.1,1.3-28.1,7.8-41.4,14.8
		c1.2-1.6,2.4-3.2,3.6-4.8c34.5-44.9,69-89.8,103.4-134.7c6.1-8,5.9-8.1,14.8-4c2.4,1.1,4.9,2.2,7.3,3.2
		C307.1,56.6,309.4,57.4,312.9,58.8z"/>
	<path class="st0" d="M518,246.2c-4.6-0.8-8.1-1.4-11.7-2c-4-9.8-8.1-19.8-12.2-29.8c-1.2-2.9-2.5-5.8-3.9-8.6
		c-9.8-18.7-25.2-21.3-40.2-6.5c-1.3-8.6-2.6-16.9-3.8-25.2c-1.5-10.3-3.6-20.3-11.1-28.4c-0.9-1-1.2-2.7-1.5-4.1
		c-5-25-9.9-50-14.8-75c-0.2-0.8-0.2-1.6-0.4-2.6c10.3-3.1,20.4-6.1,31.3-9.3C474.7,117.2,495.8,181.3,518,246.2z"/>
	<path class="st0" d="M203.1,429.1c3.5-3.8,6.6-8.1,12.9-7c0.5,0.1,1.8-2,1.8-3c0-1.8-0.8-3.6-1-5.4c-1-7.5,1.4-13.3,8.4-15.8
		c6.9-2.5,14.4-3.2,21.7-4.8c1.7-0.4,3.6-0.6,4.9-1.6c6.7-4.6,15.9-4.5,20.7,1.8c2.5,3.3,2.4,8.5,3.8,14.1
		c-13.7-4.9-24.5-2-34.6,4.8c-1.4,0.9-2.2,2.8-3.2,4.3c1.7,0.8,3.3,1.8,5.1,2.2c1,0.3,2.3-0.2,3.4-0.6c8.1-3.4,16.1-5.5,24.3-0.3
		c-9.5-10.2-20-2.2-30.2-1.7c8.5-7.2,17.9-10.8,28.9-8.4c3.6,0.8,5.3,2.8,4.9,6.8c-1.6,15.8-4,31.3-11,45.8
		c-1.3,2.8-1.9,5.9-2.8,8.7c-8.3-1.1-14.7,1.4-15.9,6.1c-1.4,5.6,3.3,6.8,7.3,8.7c-9.5,17.9-20.9,33.9-38,46.6
		c-1.2-6.7-2.2-12.1-3.2-17.9c4.7-0.2,8.8-0.4,13-0.7c0.3-4.8-2.8-6.8-5.9-7.4c-8-1.6-10.3-6.7-10.9-14.2
		c-1.4-17.9-3.6-35.8-5.2-53.7c-0.2-2.5,0.6-5.2,1-7.8C203.2,428.9,203.1,429.1,203.1,429.1z"/>
	<path class="st0" d="M417,572c1.4,4.1,5.1,4.3,8.2,3.7c1.9-0.4,3.3-3,5.1-4.4c2.3-1.7,5.1-4.7,7.3-4.5c10.2,1.2,20.4,3.2,30.5,5.2
		c1.8,0.3,3.3,1.9,4.9,2.9c-1.3,1.6-2.2,3.7-3.9,4.7c-11.8,7-24.9,10.1-38.2,12.8c-33.5,6.8-67.3,9.5-101.3,3.6
		c-5.1-0.9-10.1-2.2-15-3.8c-6.2-2.1-7.2-5.9-2.1-10.2c4.4-3.7,9.6-6.6,14.9-8.9c4.8-2.1,10.1-3,15-4.3c5.3,5.6,5,15.6,14.2,17.6
		c2,1.4,4,4.1,6,4.1c12.9,0.3,25.9,0.1,38.9-0.3c4.2-0.1,4.1-0.7,3.3-4.2c-6.5,6.2-43.5,5.2-45.5-1.3c6.4,0,12.8,0.4,19.1-0.1
		c6.2-0.5,12.4-1.8,18.6-2.8c-0.1-0.5-0.1-1-0.2-1.6c-3.9,0.4-7.8,1.1-11.8,1.2c-9.4,0.2-18.8,0.3-28.2,0.2c-1.4,0-3.1-1.2-4.1-2.4
		c-6-7-15.8-33.5-16-42.8c28.4,0.1,56.8,2.1,86.1-5.4c-1.9,9.7-3.9,18.6-5.3,27.5c-1.5,9.3-7,16.2-13.7,22.5c0.5,0.5,1,0.9,1.5,1.4
		c3.9-3.4,7.9-6.9,11.8-10.3L417,572z"/>
	<path class="st0" d="M267.3,465.1c11.7-0.4,22.2-1,32.6-1c1.3,0,2.6,3,4.6,5.6c-7.8,0.1-12.3,3.1-15.2,8.8
		c-0.6,1.2-2.4,1.7-3.6,2.6c-8,5.5-9.4,19.9-2,24.7c4.6,3,10.1,4.4,15.3,6.5c1,0.4,2.3,0.4,3.7,0.6c0.5,7.9,0.6,14.8,8.9,20.4
		c7.2,4.9,13.8,6.5,22.2,5.8c1.9,7.1,3.9,14.4,6.1,22.4c-2.9,0.2-5.5,0.4-8.8,0.7c0-4.5,0-8.5,0-12.4c-0.7,0-1.4-0.1-2-0.1
		c-0.4,4-0.8,8.1-1.3,12.7c-4.7,0.5-10,1.2-16,1.9c3.1-4.4,5.7-8.2,8.4-12c-0.5-0.5-1-0.9-1.4-1.4c-1.8,1.6-4.1,2.9-5.2,4.9
		c-4.3,7.6-10.6,11.2-19.4,10.9c-3.6-0.1-7.3,0.7-11.3,1.2c-0.2-1.6-0.4-3.1-0.8-5.7c-2.5,3.9-4.3,7.3-9.1,7
		c-3.7-0.3-7.5,0.6-11.3,1c-0.6-3.4-1.1-6.4-1.6-9.3c-0.6,0-1.2,0-1.8,0c-0.4,3.2-0.8,6.5-1.2,10.1c-3.2,0.4-6.4,0.9-10,1.4
		c0.5-3.4,1-6,1.4-8.7c-0.5-0.2-0.9-0.4-1.4-0.6c-1,1.5-2.6,3-2.7,4.7c-0.4,4.9-3.3,5.9-7.3,6c-2.1,0-4.3,0.3-6.8,0.6
		c1.2-3.8,2.2-7.1,3.2-10.4c-0.5-0.2-0.9-0.4-1.4-0.7c-1,1.5-2.2,3-3,4.6c-4,7.9-5.4,8.6-15.8,7.7c11.9-8.3,10-18.7,5.4-29.5
		c-0.1-0.3-0.3-0.6-0.4-0.9c-0.9-3.2-3-6.7-2.4-9.5c0.6-2.5,4.2-4.4,6.5-6.5c2.2-2,4.4-4,7-6.4c1,3.5,1.4,6.7,2.8,9.4
		c1.4,2.6,3.8,4.6,5.6,7c0.9,1.2,2,2.6,2.1,3.9c0.8,6.7,4.4,10.5,10.9,11.7c13.6,2.6,27.1,5.3,40.7,7.8c1.8,0.3,4-0.4,5.6-1.3
		c4.8-2.7,9.3-5.8,13.9-8.8c2.8-1.8,3.3-3.7,0.5-5.8c-9-6.5-18-13-27.3-19.2c-2.9-2-3.4-3.9-3.9-7.4c-1.2-9.2-4-18.1-6.2-27.1
		C272.2,484,269.9,475.2,267.3,465.1z"/>
	<path class="st0" d="M436,234c-4-2.5-8-4.8-11.7-7.4c-7.9-5.7-18.1-5.1-25.1,1.7c-1.2,1.2-2.2,2.6-3.4,3.6
		c-0.6,0.5-1.9,0.7-2.5,0.4c-0.6-0.3-1-1.6-0.8-2.3c6.2-21.9,9.1-44.7,18.8-65.6c2.6-5.5,6-10.7,9.7-15.5c3.2-4.3,6.9-4.7,10.6-0.8
		c3.1,3.2,6.3,7.3,7.3,11.5c2.7,10.4,4.2,21.2,6.3,31.7c0.7,3.7,1.6,7.4,2.4,11.1c0.2,0.8,0.4,1.7,0.1,2.3
		C443.9,214.3,440.1,223.8,436,234z"/>
	<path class="st0" d="M351.4,262.2c-0.3-11,2.9-19.4,12.2-24.2c9.2-4.8,18.9-7.8,29-2c3.4,1.9,4.9-0.8,6.5-2.7
		c4.6-5.3,10-8.4,17.2-6.3c2.5,0.7,4.7,2.3,7,3.6c2.3,1.3,4.4,3,6.7,4c3.8,1.6,5.6,3.5,3.8,7.9c-4.2,10.5-8.2,21.1-11.8,31.8
		c-2.4,7-4,14.3-6.1,22.1c-6.5-11.6-16.3-19.4-27.7-25.7C376.9,264.3,365,261,351.4,262.2z"/>
	<path class="st0" d="M544,672.9c-14.2,2.4-28.2,5.1-42.3,7.1c-7.5,1.1-15.2,1.4-22.8,1.5c-4.6,0.1-14.6-8.4-15.6-12.5
		c-1.8-7.3,0.2-13.6,6.4-17.5c4.9-3.1,10.7-5.5,16.4-6.7c13.7-2.8,27.5-3.8,41.1,1.2c8.6,3.1,14.1,8.5,14.2,18.3
		C541.3,666.8,542.8,669.3,544,672.9z"/>
	<path class="st0" d="M438.9,626.1c-2.5-1.4-3.7-2.1-5.7-3.1c2.3-1.6,4-2.8,6.3-4.4c-3.9-2.3-6.5-0.1-8.5,1.9
		c-2.1,2-3.6,4.7-5.3,7.1c-0.5-0.3-0.9-0.5-1.4-0.8c1.6-3.6,3.3-7.2,5-11c-4.6,1.3-7.8,4.6-8.1,10.3c-0.4,6.1-5.1,8.6-8.5,12.2
		c-0.5,0.5-2.5,0.3-3.4-0.2c-3.5-2.2-3.8-5.7-3.1-9.3c1.8-8.6,11.1-23.4,23.9-24.8c7-0.8,13.8-3.6,20.7-5.3
		c11.7-2.9,20.9,3.6,30.4,8.5c0.9,0.5,1.7,1.7,2.1,2.7c2.4,6.3,5.6,12,12.3,15.3c-14.6,4.7-28.9,8-43.9,8.2
		c-15.3,0.1-27.6,6.6-36.6,19c-5.5,7.7-6.8,13.3-5.5,22.5c-4.9-7.4-3.9-21.9,2.4-30C418.8,636.2,426.7,629.1,438.9,626.1z"/>
	<path class="st0" d="M515.8,512.4c-10-2.3-20-4.5-29.9-7.1c-2.6-0.7-5.1-2.5-7.3-4.2c-2.5-1.9-3.1-4.4-1.2-7.4
		c10.8-17,40.3-28.8,59.9-23.5c2.3,0.6,5.2,2.6,5.9,4.6c2.6,7.1,4.8,14.4,6.4,21.8c0.8,3.7-0.2,6.7-5.1,8.6c-11,4.1-17,6-28.5,5.9
		C516,511.5,515.9,512,515.8,512.4z"/>
	<path class="st0" d="M53.2,262.6c-7-29.2-6.9-58.8-18.9-86.7c17.6-11.7,35.8-23.9,54-36c0.4,0.2,0.9,0.5,1.3,0.7
		C70.4,178.9,63.4,220.8,53.2,262.6z"/>
	<path class="st0" d="M450.9,590.9c4.1-1.7,8.4-3.2,12.4-5.1c3-1.4,6.2-2.8,8.7-4.9c1.8-1.5,3.7-4.3,3.5-6.4
		c-0.1-1.7-3.1-3.9-5.2-4.4c-9.7-2.3-19.5-4-29.5-6c1.9-3.3,4.6-4.8,9-4.9c10.5-0.2,19.9,3.7,29.6,6.6c4.5,1.3,8.9,2.8,14.5,4.6
		c-2.5,1.6-4.5,2.5-5.8,3.9c-3.4,3.9-7.1,7.8-9.4,12.4c-1.9,3.8-0.6,8.2,2.9,11.3c3.7,3.3,7.5,3.6,12.4,2.1
		c5.4-1.6,11.4-2.1,17.1-1.9c15.3,0.5,30.3-0.4,44.8-5.6c1.5-0.5,3.4-1.1,4.8-0.7c7.1,2.1,14.2,4.5,21.1,7.5
		c-4.5,0.7-8.9,1.5-13.4,2.2c-12.5,1.9-21.6,11.6-16,26.6c-4.8,2-9.4,2-14.4-0.3c-13.2-6-26.6-11.4-39.8-17.5
		c-6-2.7-11.4-6.9-17.5-9.4c-9.8-4-20-7.1-30-10.5L450.9,590.9z"/>
	<path class="st0" d="M441.5,469.3c15,0.4,26.8-5.5,37.4-13.9c11.6-9.3,24-15.2,39.3-13.6c2.7,0.3,4.3,0.9,5.8,3.5
		c3.7,6.8,7.9,13.3,12.5,20.9c-13.1-2.6-24.8-0.7-35.7,4.8c-10.5,5.3-21,11-27.1,22.9C462,487.4,450.3,481.1,441.5,469.3z"/>
	<path class="st0" d="M476,504.6c22.2,11.6,44.9,13.3,69.4,5.9c-4.6,7.1-9.5,14.1-13.8,21.5c-3.9,6.6-9.4,8.9-16.9,9.2
		c-14,0.6-27.6,0-40.5-6.1c-6.2-2.9-6.3-2.8-4.3-9.2C472.1,518.8,474,511.6,476,504.6z"/>
	<path class="st0" d="M86.5,565.2c3.7-1.9,7.3-4.6,11.2-5.7c16.4-4.5,33-6.1,49.9-2.3c9.4,2.1,10.2,2.7,16.9,11.4
		c-0.2-1.9,0.4-4.6-0.7-5.6c-3-2.9-6.3-6.4-10.1-7.5c-18.9-5.7-37.9-4.7-56.5,1.2c-4.5,1.4-8.3,5-12.5,7.7c-3-3.3-3.1-7.5,1.2-10.1
		c5-3.1,10.3-6.4,15.9-7.6c16.1-3.5,32.5-4.7,48.4,0.5c6.4,2.1,12.8,5.7,18,10.1c6.2,5.3,3.9,11.3-4.1,12.5
		c-5.2,0.8-10.6,1.2-15.9,1.3c-15.5,0.2-31,0.3-46.4-0.1c-5-0.1-9.9-2-14.8-3.1C86.8,567.1,86.6,566.1,86.5,565.2z"/>
	<path class="st0" d="M450.8,590.8c0.8,1,1.6,2,2.4,3c-8.7,2.4-17.1,5.7-25.9,6.9c-12.4,1.7-25,20.2-25.1,30.5c0,4.7,1,6.1,7.3,10.3
		c-1.6,2.7-3.2,5.4-5.4,9c-16.7-16.1-33.3-32-49.2-47.4c15.2-0.9,31-1.1,46.6-3c15.3-1.9,30.4-5.6,45.6-8.4c1.3-0.2,2.6-0.5,3.9-0.7
		C450.9,590.9,450.8,590.8,450.8,590.8z"/>
	<path class="st0" d="M271.3,508.4c1.1,0.4,2.4,0.8,4.3,1.4c-0.9,1.6-1.3,3.1-2.3,4.1c-8.8,8.7-18.7,15-31.7,14.4
		c-1.8-0.1-3.7-0.5-5.3-1.2c-3.4-1.5-5.1-6.5-2.8-8.9c12.5-13.5,20.7-29.7,29.6-45.5c0.4-0.7,0.9-1.3,1.6-2.4
		c2.9,11.2,5.9,21.9,8.5,32.7C273.4,504.4,272,506.3,271.3,508.4z"/>
	<path class="st0" d="M546.6,676.1c0.2,3.7,0.6,7,0.3,10.2c-0.1,1.3-1.4,3-2.7,3.5c-19.6,8-39.8,13-61.2,12
		c-1.6-0.1-3.8-1.5-4.4-2.9c-1.8-4.2-3-8.7-4.7-13.7C498.7,686.4,522,679.9,546.6,676.1z"/>
	<path class="st0" d="M449.7,554.5c2.4-0.2,5.5-0.5,8.6-0.6c12.3-0.4,24.6-0.8,36.9-1.1c2.8-0.1,5.1-0.3,4.8-4
		c-0.2-3.2,1.7-3.8,4.4-3.9c5.6-0.2,11.3-0.6,16.9-1c4.2-0.3,7.5-2.2,9.9-5.8c2.9-4.4,6.2-8.6,9.6-13.2c3.4,4.7,3.9,9.3,1.9,14.2
		c-3.3,8.2-10,13.3-17.4,17.2c-8.1,4.2-16.7,7.5-25.1,11c-1.3,0.6-3.3,0.2-4.8-0.2c-5.4-1.6-10.8-3.5-16.2-5
		C469.4,559.4,459.3,557,449.7,554.5z"/>
	<path class="st0" d="M480.9,705.7c23.3,1,44.8-4.4,66.2-12.7c0.5,5,1.1,9.6,1.1,14.2c0,1.1-1.5,2.9-2.6,3.3
		c-17,5.3-34.3,9.7-52.3,9.8c-8,0-8,0-10.3-7.5C482.4,710.7,481.8,708.6,480.9,705.7z"/>
	<path class="st0" d="M528.4,397.2c27.1,1.2,54.9,30.3,57.7,65.5c-1-0.1-2.2,0-2.8-0.5c-6.9-6.5-13.9-12.9-18.1-21.7
		c-6.1-12.9-13.6-24.8-26.6-32.3c-0.3-0.2-0.8-0.4-0.8-0.5C538.8,400.9,532.1,400.8,528.4,397.2z"/>
	<path class="st0" d="M425,647.1c3.6,15.2,3.8,30.7,8.8,45.2c0.7-0.1,1.3-0.2,2-0.4c-0.9-5.4-1.7-10.9-2.7-16.3
		c-1.5-8.2-3-16.4-4.7-24.5c-1.5-7.1-1.2-7.8,6.4-10c3.4,17.7,6.7,35.4,10.2,53.8c-6.4,0.2-12.5-0.9-18-4.1c-1.1-0.7-1.7-2.7-2-4.3
		c-1.5-7.7-2.7-15.4-4.1-23.1c-0.3-1.9-0.9-3.7-1.4-5.5c-0.5,0.1-1,0.2-1.5,0.3c1.3,9.4,2.5,18.7,3.8,28.4
		C408.9,677,410.2,659,425,647.1z"/>
	<path class="st0" d="M552.5,482c0,0,0.2-0.2,0.2-0.2c-1.2-1.2-2.6-2.2-3.4-3.5c-2.4-3.6-4.8-7.2-6.7-11c-0.9-1.7-1.1-4.3-0.5-6.1
		c0.6-1.9,2.6-3.4,4-5c3.1-3.6,6.1-4,10.2-0.7c7.2,5.9,15.6,9.5,24.9,10.6c7.2,0.8,10.6-0.6,13.5-7.3c1.8-4,2.6-8.4,4.2-14
		c4.2,10.1,7.9,19.3,11.7,28.5c-0.3,0.3-0.7,0.7-1,1c-13.6-6.4-27.5-5.8-41.4-2C562.1,473.9,556,476,552.5,482z"/>
	<path class="st0" d="M247.6,542.6c2.3-0.8,4.6-1.6,6.8-2.5c8-3.2,16-6.6,24.1-9.6c1.8-0.7,4.5-0.5,6.1,0.4c7.1,4.3,14,9,20.9,13.6
		c1.5,1,2.7,2.4,4.2,3.9c-4.5,2.6-8.6,5-12.8,7.2c-0.6,0.3-1.6,0.4-2.3,0.2c-15.6-4-31.2-8.1-46.8-12.2
		C247.7,543.3,247.6,543,247.6,542.6z"/>
	<path class="st0" d="M50.7,460c-0.6-2.6-1.8-5.3-1.7-7.9c0.6-26.1,6.1-50.8,22-72.3c0.7-0.9,1.5-1.7,3-2.2
		c-1.3,2.7-2.7,5.4-3.8,8.1c-0.5,1.2-0.3,2.8-0.4,4.2c1.4-0.2,3,0,4-0.7c3.7-2.5,7.2-5.3,10.7-7.9c-0.2-0.3-0.5-0.7-0.7-1
		c-4,2.8-8,5.7-12.4,8.8c1.1-9.5,8.3-18.6,15.9-20.6c0,0.3,0.1,0.6,0,0.8c-0.6,2.2-1.3,4.4-2,6.6c2.3,0.1,4.7,0.5,6.9,0.1
		c2.8-0.6,5.5-1.9,8.9-3.1c-27.8,23.2-52.7,47-49,87.1C51.7,459.9,51.2,459.9,50.7,460z"/>
	<path class="st0" d="M109.7,383c-6.8,5.5-13.6,10.9-21.2,17c-0.2-2.3-0.3-3-0.5-4.6c-1.1,2.1-1.8,3.5-2.8,5.3c1.7,0,2.8,0,5.5,0
		c-1.8,2.7-2.7,5-4.3,6.4c-13.2,11.2-23.8,24.2-28.3,41.3c-0.5,2-2.6,4.8,1.4,6c0.3,0.1,0.2,2.2-0.1,3.2c-0.7,2.2-1.7,4.2-3.1,7.4
		c-0.8-0.9-2.5-2-2.5-3.2c-0.2-21.9,4.1-42.4,19.7-59c2.7-2.9,5.2-6.1,7.8-9.1c0.4-0.5,0.7-1.3,1.3-1.5c8.9-3.4,17.9-6.7,26.9-10
		C109.5,382.6,109.6,382.8,109.7,383z"/>
	<path class="st0" d="M476.1,452.6c-5.2,7.1-12.8,6.1-20.2,5.2c-13.8-1.7-29.7-11.9-35.1-22.5c7,0.7,8.3-3.8,8.3-9.7
		c7.9,5.6,14.9,11.5,22.7,16C459.4,445.9,467.9,448.9,476.1,452.6z"/>
	<path class="st0" d="M493.9,411.7c17.7-2.6,32,3.9,43.7,16.4c5.8,6.3,11,13.2,16.5,19.8c-0.3,0.3-0.5,0.7-0.8,1
		c-2.4-1.3-4.7-3-7.2-3.8c-7.9-2.5-15.9-4.6-23.8-6.9c-1.4-0.4-3.5-1-4-2.1c-4.4-10.6-12.8-17.1-22.2-22.8
		C495.2,412.9,494.6,412.3,493.9,411.7z"/>
	<path class="st0" d="M301.1,461c-5,0-9.6,0-13.9,0c4.8-26.3,9.5-52.6,14.2-78.8c0.3,0.8,1.1,2.2,1.6,3.7
		c3.9,12.4,3.5,24.9,0.9,37.5C301.5,435.6,298.6,447.8,301.1,461z"/>
	<path class="st0" d="M494.9,440.7c-4.9,3-9.1,5.6-13.4,8.1c-0.9,0.5-2.3,0.7-3.3,0.4c-9.9-2.3-19.5-5.4-28.7-11.9
		c1.5,0,2.2,0.1,2.9,0c2.4-0.3,4.7-0.6,7-0.9c-0.4-2.7,0-5.8-1.3-7.9c-3.6-6-7.9-11.5-11.9-17.2c-0.6-0.9-1.2-1.7-2-1.9
		C460.9,419.7,477.5,430,494.9,440.7z"/>
	<path class="st0" d="M589.3,460.5c-4.5-28.4-17.6-49.5-43.1-61.7c0.8-2,1.7-4.2,2.5-6.3c25.2,10.9,42.9,26.1,45.2,51.5
		C594.3,449.7,593.3,454.8,589.3,460.5z"/>
	<path class="st0" d="M451.7,348.7c-5.2-6.8-11.5-4.2-17.7-4.6c2.4-1.3,4.9-2.4,7.3-3.8c8.1-4.9,16.1-9.9,24.2-14.8
		c1.8-1.1,3.5-2.5,5.5-3.4c3.7-1.6,8.2-3.5,11.1,0c2,2.4,2.3,6.6,2.3,10.1c0,1.7-1.8,4.3-3.5,5C471.2,341.3,461.3,345,451.7,348.7z"
		/>
	<path class="st0" d="M448.7,635.9c3.3,19.6,6.5,38.4,9.7,57.7c-2.2,0.4-4.5,1.2-6.6,1c-1.3-0.1-3.4-1.5-3.6-2.6
		c-3.8-16.5-7.5-33-11-49.6c-0.2-1,1-3.1,2-3.6C442,637.6,445.2,637,448.7,635.9z"/>
	<path class="st0" d="M465,418.1c3.1,0.2,6.3,0.7,9.4,0.7c7.7-0.1,9.2-2.2,7.1-9.3c8.3,0.1,29.6,18.4,32.8,28.2
		c-4.8,0.5-9.5,1.1-14.2,1.6c-0.8,0.1-1.6-0.2-2.4-0.4c-0.3-0.1-0.5-0.4-0.8-0.6c-10.8-6.5-21.5-13-32.3-19.5
		C464.8,418.5,464.9,418.3,465,418.1z"/>
	<path class="st0" d="M460.6,461.1c-11.6,6.6-23.1,5.3-34.6-0.1c-15.6-7.4-19.1-22.2-23.6-36.5c0.5-0.5,1.1-0.9,1.6-1.4
		c4.7,4.8,10,9.1,14,14.4c9.7,13,21.6,22,38.3,23.3C457.7,460.9,459.1,461,460.6,461.1z"/>
	<path class="st0" d="M578.4,461.5c-7.6-0.9-14.1-3.4-18.5-10.2c-3.6-5.6-7.8-10.8-11.7-16.2c-7.3-10.1-16.6-17.6-27.6-23.2
		c-1.9-0.9-3-3.2-4.7-5c18.8-3.3,28.5,8.6,37.8,20.8c2.5,3.3,4.3,7.1,6.2,10.8C564.6,447.4,569.4,456.1,578.4,461.5z"/>
	<path class="st0" d="M330.4,501c-4.1,0-9.2-0.7-13.9,0.2c-3.7,0.7-8.1,2.4-10.1,5.2c-3,4.1-6.1,3.4-9.4,2.2c-3.9-1.4-7.1-3.9-7-8.7
		c0.1-8.1,6.2-13.1,14.2-11.9c2.7,0.4,5.6,0.1,8.3,0.2c0.9,0,2.1-0.2,2.7,0.3C320.6,492.8,325.9,497.2,330.4,501z"/>
	<path class="st0" d="M423.9,519c10.7-15.3,17.3-31.5,10.3-50.9c1.4,0.4,2.9,0.3,3.4,0.9c7.9,10.4,12.7,21.4,6.9,34.6
		c-1.3,3-2.7,6.1-4.2,9C436,521,434,521.8,423.9,519z"/>
	<path class="st0" d="M536.9,631.4c-5.1,2.9-9.5,6.3-14.5,8c-3.1,1.1-7.1-0.2-11.2-0.5c-0.8-8.6-7.1-12.5-13.3-16.9
		c-4-2.8-9.3-5-9.4-11.9C504.8,617.3,520.7,624.3,536.9,631.4z"/>
	<path class="st0" d="M467.3,359.3c0.4-4.8,0.7-8.4,0.9-11.4c5.3-3.1,10.1-7.1,15.5-8.7c3.7-1.1,8.7,0.4,12.5,2.2
		c3.9,1.8,5.5,6.1,4.9,10.6c-0.1,0.8-1.4,1.9-2.2,2.1C488.5,355.9,478.1,357.6,467.3,359.3z"/>
	<path class="st0" d="M417.6,528.5c-23.7,6.3-47.6,4-71.8,4.7C354.6,524,409.7,520.4,417.6,528.5z"/>
	<path class="st0" d="M487.7,382.8c1.6-2.8,2.6-4.7,3.9-7c18.1,2.9,37.4,3.4,51.9,18.2C524,394.4,506.5,385.6,487.7,382.8z"/>
	<path class="st0" d="M447.4,520.3c6.5-12.5,6.8-24.4,1.6-36.4c13.5,3.6,12.5,15,13.8,25c0.7,0,1.3,0.1,2,0.1
		c1.4-4.2,2.8-8.3,4.3-12.9c2.4,0.1,3.9,1.4,3.5,4.6c0,0.3-0.1,0.7-0.2,1c-1.5,5.2-1.4,13-4.8,15.1C462.6,520,455,519.3,447.4,520.3
		z"/>
	<path class="st0" d="M469.4,537.2c-7.6,2.2-13.9,4-19.5,5.6c-3.2-4.9-5.5-9.9-9.2-13.6c-4.3-4.4-9.7-3.2-15,0.4c0-2,0-3.7,0-5.5
		c0.6-0.1,1.2-0.2,1.8-0.2c13.1-0.4,26.1-0.7,39.4-1.1C466.5,527.2,461.6,532.6,469.4,537.2z"/>
	<path class="st0" d="M460.5,378.2c-12.4,4.6-23.2,0.1-33.8-4.6c-0.2,0.4-0.5,0.7-0.7,1.1c0.6,1.2,1.2,2.4,2,3.5
		c1.4,1.9,3.1,3.5,4.2,5.5c0.8,1.5,1.7,4.2,1,4.9c-1.1,1.1-3.6,1.7-5.2,1.4c-6.6-1.3-12.5-4.2-17.3-9
		C417.7,370.7,451.8,368.4,460.5,378.2z"/>
	<path class="st0" d="M544.4,658.3c-1-2.4-2.2-5.2-3.5-8.2c10.5-5.4,21.4-8.5,33.1-7.7c2.8,0.2,5.5,2.3,8.3,3.5
		c-2.2,2-4.1,4.7-6.7,5.7c-4.3,1.7-8.9,2.5-13.5,3.5C556.3,656.3,550.4,657.2,544.4,658.3z"/>
	<path class="st0" d="M421.3,527c-4.3-1.9-7.4-4.1-10.6-4.6c-19.3-2.9-38.5-1.4-57.4,3.7c-3.5,1-6.5,3.9-10,5.4
		c-1.6,0.7-3.8,0.2-5.7,0.2c0.6-1.6,0.7-3.8,1.8-4.8c2.3-1.9,4.9-3.5,7.7-4.5c20.2-7.5,41-8.2,62-4c3.9,0.8,7.5,3.3,11.1,5.4
		C421,524.3,421,526.1,421.3,527z"/>
	<path class="st0" d="M479.5,415.7c-4.8-0.3-9.6,0.3-13.8-1c-8-2.6-15.8-6-23.3-10c-2.6-1.4-3.8-5.5-5.3-7.7
		c8.7,0.9,17.3,1.8,25.9,2.8C469.2,400.5,478.2,408.7,479.5,415.7z"/>
	<path class="st0" d="M149.1,355.4c-2.4,5.5-4.6,10.6-7,15.6c-2.7,5.6-8.5,5.8-13.2,7.9c-0.5-0.3-1-0.6-1.5-0.9
		c1.9-5.7,3.7-11.3,5.6-17c-0.3-0.2-0.6-0.3-0.8-0.5c-1.7,3.3-4,6.5-5,10c-1.3,4.7-4.7,6.2-8.7,7c-0.9,0.2-3.1-1.2-3.2-2.2
		c-1.1-5.5,4-12.6,9.5-13.9c4.5-1,8.5-4.6,13.6-1.7c0.9,0.5,3-0.9,4.5-1.6C145.1,357.2,147.3,356.2,149.1,355.4z"/>
	<path class="st0" d="M265.3,250c1-3.3,1.5-6.3,2.8-8.9c2.8-5.5,9.6-6.1,12.7-0.8c1.8,3,2,7.1,2.6,10.7c0.3,1.8-0.6,3.8-0.2,5.4
		c1.3,4.7-1.5,6.4-5.1,7.4c-3.8,1.1-7.6,0.8-9.4-3.3C267.2,257.2,266.4,253.5,265.3,250z"/>
	<path class="st0" d="M517.9,291.3c-3.6-14.5-7.3-29-11-44c6.1,0.7,11.4,1.2,17.5,1.9c-1.7,14.1-3.5,28.1-5.2,42
		C518.7,291.2,518.3,291.2,517.9,291.3z"/>
	<path class="st0" d="M115.8,354.8c-3.5,0.7-6.9,1.5-10.6,2.2c0.5-7.2,3.6-10.1,9.6-11.1c2.8-0.5,5.4-2.9,9.4-4
		c-0.6,2.1-0.8,4.4-1.9,6.2c-2.1,3.5-4.6,6.5-4.2,11.3c0.2,2-2.4,5.5-4.6,6.4c-7.8,3.2-15.9,5.7-24,8.4c-0.5,0.2-1.2-0.1-3.3-0.3
		c7-5.9,11.1-13.4,20.5-14.3c3.4-0.3,6.6-2,9.9-3.1C116.5,355.9,116.2,355.4,115.8,354.8z"/>
	<path class="st0" d="M450.9,636.4c8.5-1.8,8.7-1.7,10.2,6c0.4,2,1.2,3.9,1.3,5.8c0.1,2,0.3,4.3-0.5,5.9c-5.1,9.3-3.9,17,3.9,24.1
		c0.9,0.8,1,2.7,1.6,4.4c1.6,1.5,3.8,3.5,6.9,6.2c-5.4,1.5-9.1,2.6-12.7,3.6C458,673.6,454.5,655.2,450.9,636.4z"/>
	<path class="st0" d="M403.5,404.7c3.8,5.4,8.3,8.5,15.3,4.6c2.2,5.8,4.9,11.2,6.3,16.9c1.3,5.3-1.3,7.3-5.9,4.5
		c-5.6-3.5-11.4-7.3-15.4-12.3c-2.4-3-1.4-8.6-2-13C402.4,405.1,403,404.9,403.5,404.7z"/>
	<path class="st0" d="M129.7,297.5c1.8,4.9,2.7,10.5,5.7,14.5c4,5.4,3.2,10.2,1.4,15.6c-6.7-2.8-10.8-27.8-5.4-37.6
		c8.4,9.6,14.6,19.7,18.9,31.9c-13.5-3.8-14.5-15.7-18.8-25.1C131,297,130.4,297.3,129.7,297.5z"/>
	<path class="st0" d="M110.4,396.9c-1.3,1.5-2.3,3.5-3.8,4.5c-4.2,2.9-8.9,5.2-13.1,8.2c-2.6,1.9-5.6,4.1-3.9,8.2
		c0.2,0.5-0.1,1.7-0.6,2.1c-3.8,3.1-7.8,6-11.5,9.2c-5.3,4.6-10.5,9.4-15.1,13.5c-0.1,0.8-0.1,0.1,0.1-0.5
		c6.1-15.3,17.1-26.9,29.6-37.1c3.3-2.7,8.3-3.3,12.4-5C106.6,399.2,108.5,398,110.4,396.9L110.4,396.9z"/>
	<path class="st0" d="M437.4,392.2c-0.4-3.9-0.7-7.3-1-10.3c5.5,0.6,11.4,0.4,16.8,2.1c4.3,1.4,8.3,4.7,11.7,7.8
		c2.5,2.3,0.8,4.1-2.2,4.6C453.6,397.9,445.4,394.9,437.4,392.2z"/>
	<path class="st0" d="M513.1,409.8c-9.7-1.1-18.9-2.8-28.1-3c-7-0.2-10.7-5.5-16.1-8c-0.5-0.2-0.9-1.6-0.6-2
		c0.4-0.7,1.4-1.7,2.1-1.6c14.8,1.8,29.4,4.5,42.3,12.8C512.7,408,512.7,408.3,513.1,409.8z"/>
	<path class="st0" d="M475.7,361.6c7.5-1.2,14.9-2.4,22.5-3.6c0.7,1.5,1.6,2.9,2.2,4.4c2.4,6.2-0.8,10.5-7.2,9.8
		c-6.4-0.7-12.8-1.4-19.3-2.2C474.5,367.1,475.1,364.4,475.7,361.6z"/>
	<path class="st0" d="M423.3,411c9.8,9.2,16.6,13.1,21.5,3.7c4.5,6.4,8.8,12.5,13.3,19C446.1,436.4,427.5,424,423.3,411z"/>
	<path class="st0" d="M423,393.2c6.2-0.4,10.7,1.9,12.9,8c1.4,3.9,3.4,7.6,4.6,11.6c1.2,3.9-1.1,6.1-4.4,4.1
		c-5-3.1-9.4-7.2-13.9-11.1c-0.5-0.5-0.4-1.9-0.4-2.8C422.3,399.7,422.7,396.5,423,393.2z"/>
	<path class="st0" d="M78.7,556.8c0.3,0.8,0.8,1.5,0.8,2.3c0.3,10.9,0.5,21.7,0.8,31.6c-5.3-6.3-10.2-14.4-11.7-24.2
		c-1.4-9.1,1.3-11.7,10.2-9.5C78.8,556.9,78.7,556.8,78.7,556.8z"/>
	<path class="st0" d="M499.9,392.2c-5.8,0.6-11.6,1-17.4,1.7c-8.7,1.1-15.7-1.6-20.5-9c12.9-2.1,25.7-0.7,37.8,5.5
		C499.9,391,499.9,391.6,499.9,392.2z"/>
	<path class="st0" d="M110.4,396.9c1.3-0.3,2.7-0.6,4-0.9c2-0.5,3.9-0.9,5.8-1.4c-1.8,3.1-3.4,5.8-5,8.5c3,1.4,6,2.8,9.2,4.3
		c-10.1,3.7-20.2,9.2-33,8c1.6-1.6,3-3.5,4.8-4.9c4.1-3.1,8.6-5.7,12.7-8.9C110,400.8,110,398.5,110.4,396.9
		C110.4,396.9,110.4,396.9,110.4,396.9z"/>
	<path class="st0" d="M408.4,383.6c3,2.2,5.6,4.2,8.2,6.2c4.1,3.2,3,15.5-1.9,16.9c-1.9,0.5-5.2-0.9-6.6-2.5
		C402.8,398.3,403.1,392,408.4,383.6z"/>
	<path class="st0" d="M236.3,530.5c16.5,4.4,28.4-4.1,39.9-13.8c1.6,4,1.3,7-2.6,10.3c-9.7,8.1-21.3,10.3-33.6,8.7
		c-1.6-0.2-2.9-2.7-4.4-4.1C235.8,531.2,236,530.8,236.3,530.5z"/>
	<path class="st0" d="M431.7,556.6c-3.4,0-6.8,0-10.5,0c0.9-5.2,1.5-10.4,2.9-15.3c1.2-4.1,4.4-6.7,8.9-6.6c4,0.1,5.5,3.1,6.5,6.5
		c1,3.2,0,5-3.3,5.8c-2.2,0.5-4.5,1.3-6.6,2.3c-1.2,0.6-2.1,1.9-3.1,2.8c1.1,0.9,2.1,1.8,3.3,2.5c0.6,0.4,1.4,0.6,2.2,0.8
		C431.9,555.8,431.8,556.2,431.7,556.6z"/>
	<path class="st0" d="M457.8,698.1c5.7-2.3,10.5-4.3,16-6.6c1.3,9.2,5.2,17.4,8.9,25.7c-0.3,0.2-0.7,0.5-1,0.7
		C473.9,711.4,466.1,704.9,457.8,698.1z"/>
	<path class="st0" d="M532.3,404.3c-12.7,0.5-24.7-2.6-36.3-7.3c3.3-2,6.4-4,9.8-5.7c0.8-0.4,2.3,0,3.3,0.5
		c7.9,3.6,15.8,7.3,23.7,10.9C532.6,403.2,532.4,403.7,532.3,404.3z"/>
	<path class="st0" d="M437.3,336.6c-3.8-0.5-6.5-0.9-9.4-1.4c-1.6-5.4,1.8-15.3,7.1-17.9c2-1,4.7-0.6,7.1-0.9c0,1.9,0.4,3.9-0.1,5.7
		C440.6,327.2,438.7,332.3,437.3,336.6z"/>
	<path class="st0" d="M94.3,399.8c9.3-8.2,17.2-18.3,31.3-21.7c-0.4,1.7-0.3,3.2-1,4.1c-2.7,3.5-5.6,6.9-8.4,10.3
		c-0.3,0.4-0.6,0.9-1,1c-6.7,2.5-13.5,5-20.2,7.5C94.7,400.6,94.5,400.2,94.3,399.8z"/>
	<path class="st0" d="M418.9,370.1c3.8-11.7,6.5-13.7,17.1-14.4c3.1-0.2,4.2,1.3,3.5,4.3c-1.2,5.8-3.4,8-9.5,8.8
		c-3.6,0.5-7.2,1-10.8,1.5C419.2,370.4,419.1,370.2,418.9,370.1z"/>
	<path class="st0" d="M286.6,503.8c-4.9-3.6-4.9-8-3.7-12.7c1.5-6,6.6-10.5,13.5-10.6c5.5,0,11.9-1.4,16.6,5
		c-6.9,1.2-13.4-3.8-19.4,1C288.1,490.9,286.4,496.7,286.6,503.8z"/>
	<path class="st0" d="M145.3,374.6c-0.7-8.8,6.1-18.7,13.2-19.6C160.1,368.3,156.4,374.8,145.3,374.6z"/>
	<path class="st0" d="M158.7,350.5c-7.2,1.9-14.1,3.7-22.1,5.8c0.8-2.2,1-4.7,2.3-6c2.7-2.6,5.8-5,9.2-6.6
		C155.8,340.1,158.8,342.4,158.7,350.5z"/>
	<path class="st0" d="M106.1,342.9c-6,3.5-10.6,6.6-15.6,8.7c-1.9,0.8-4.9,0-7.1-0.8c-0.9-0.3-1.8-3.5-1.2-4.2
		c1.5-1.9,3.6-4,5.8-4.5c3.9-1,8.1-1.1,12.2-1.2C101.8,340.8,103.4,341.9,106.1,342.9z"/>
	<path class="st0" d="M104.4,332.7c-1.9,1.9-3.8,3.7-5.6,5.5c0.2,0.4,0.4,0.9,0.7,1.3c-3.4,0-6.9,0.4-10.3-0.1
		c-1.8-0.3-4.2-1.8-4.9-3.3c-0.5-1.1,0.8-3.8,2.1-4.9c3.2-3,6.7-5.3,11.2-1.4C99.3,331.4,102.2,331.9,104.4,332.7z"/>
	<path class="st0" d="M79,367.8c6.3-9.4,15.9-14.5,25.8-19.8c-1.5,7.1-4.6,12.2-11.6,14.6c-4.6,1.6-8.9,4.2-13.4,6.4
		C79.6,368.6,79.3,368.2,79,367.8z"/>
	<path class="st0" d="M108.7,331.8c-3.3-1.1-6.8-1.9-9.9-3.3c-1.8-0.8-3.9-2.5-4.5-4.2c-0.7-2.5-0.1-5.3,0-8c2.3,0.7,4.7,1.4,7,2.1
		c0.3,0.1,0.5,0.4,0.8,0.6C107.2,321.4,110.3,325,108.7,331.8z"/>
	<path class="st0" d="M438.7,556.6c1.1-3.3,2.3-5.5,2.5-7.7c0.3-3.2,0.7-6.7-0.2-9.7c-2.2-7.4-7.7-8.3-17.2-3.7c1-1.6,1.7-4.1,3-4.5
		c3.3-1,7.3-2.2,10.3-1.2c7.5,2.6,11.6,18.4,6.8,24.9C443.2,555.7,441,555.8,438.7,556.6z"/>
	<path class="st0" d="M153,338.7c-8.1,3.6-16.3,6.1-25.3,3.3C131.5,334,144.9,332.3,153,338.7z"/>
	<path class="st0" d="M86.1,387.4c8.4-5.8,16.7-11.6,26-18.1c0,4,0,6.5,0,9.1c-8.2,3.4-16.6,6.9-25,10.4
		C86.8,388.3,86.4,387.9,86.1,387.4z"/>
	<path class="st0" d="M473.8,634.6c2.7-0.6,5-1.1,7.7-1.7c0.5,2.1,1,3.9,1.4,5.8c0.2,0,0.4,0,0.6-0.1c0-1.8,0-3.7,0-6
		c2.4-0.6,4.7-1.2,7.4-1.9c0.5,3,0.9,5.6,1.3,8.8c-3.1,0.6-5.9,1-8.8,1.7c-2.7,0.6-5.4,1.5-8.4,2.4
		C474.7,640.6,474.3,637.8,473.8,634.6z"/>
	<path class="st0" d="M117.9,401.6c7.9-4.7,14-11.5,23.5-10.6C139.6,399.6,126.9,405.9,117.9,401.6z"/>
	<path class="st0" d="M464.4,381.9c-0.6-3.6-1.1-5.9-1.6-8.8c7.8,1,16.1-0.5,23.4,4c0,0.5,0.1,1.1,0.1,1.6
		C479,379.8,471.7,380.8,464.4,381.9z"/>
	<path class="st0" d="M137.5,346c-1.3,2.8-1.9,6.2-3.8,7.6c-3.2,2.4-7.3,3.6-11.1,5.3c-0.4-1.4-1.5-2.9-1.1-4
		C123.6,346.8,126.9,345,137.5,346z"/>
	<path class="st0" d="M462.7,549.2c8.8-1.7,17.5-3.6,26.3-5.1c5.9-1,8.3,0.8,8.2,5.8c-11.5,0-23.1,0-34.6,0
		C462.7,549.7,462.7,549.5,462.7,549.2z"/>
	<path class="st0" d="M451,359.3c6.7,1.3,13.7,2.7,20.8,4.2c-1.9,6.9-2.4,7.1-13.5,5.4C455.5,365.3,453.4,362.5,451,359.3z"/>
	<path class="st0" d="M48.9,423c2.6-21.7,11.9-39.2,27-54.1c-0.3,1.2-0.3,2.7-1.1,3.6c-13.3,14.1-20.6,31.2-25,49.7
		C49.8,422.3,49.6,422.4,48.9,423z"/>
	<path class="st0" d="M464.1,650.6c-1-5.2-1.8-9.7-2.8-14.6c3.5,0,6.6,0,10.2,0c0.7,2.2,1.6,4.8,2.6,7.8
		C471,645.8,467.8,648.1,464.1,650.6z"/>
	<path class="st0" d="M448.8,546.8c1.8-0.6,3.5-1.2,5.3-1.8c4.4-1.5,9.1-2.4,13.2-4.5c5.3-2.8,9.5-0.7,14.8,2.1
		c-11.6,2.2-22.2,4.1-32.8,6.1C449.1,548.1,449,547.5,448.8,546.8z"/>
	<path class="st0" d="M450.4,357.2c0.6-5.8,8.6-11.1,13-9c0.9,0.4,1.5,2.1,1.5,3.3c0,2.1-0.6,4.2-1,6.6c-2.5-0.3-4.6-0.7-6.7-0.8
		C455,357.1,452.9,357.2,450.4,357.2z"/>
	<path class="st0" d="M506.7,638.9c-4.1,0-8.1,0-12.4,0c-0.5-2.8-1-5.5-1.5-8.2C502.6,627.7,506.5,631,506.7,638.9z"/>
	<path class="st0" d="M245.6,546.8c16.9,3.8,33.1,7.5,49.6,11.2C289.6,560.1,249.1,551.3,245.6,546.8z"/>
	<path class="st0" d="M442.9,361.3c0.8-7-2.8-9.1-8.6-8.5c-1.4-4.6,1.8-5.1,4.5-5.3c3-0.3,6.8-2.1,8.6,2.2
		C448.8,353.3,446.5,359.7,442.9,361.3z"/>
	<path class="st0" d="M272.8,381.3c-9.3-1.4-16.6-2.6-24-3.7c0-0.6,0-1.2,0-1.7c5.7-3.5,12.1-2.1,18.1-0.7
		C269,375.6,270.4,378.7,272.8,381.3z"/>
	<path class="st0" d="M417.2,572.2c0.2-4.5,1-7.9,7-7.5c3,0.2,6.2-1.9,9.3-3c1.6-0.6,3.1-1.4,4.7-2c0.2,0.4,0.5,0.8,0.7,1.2
		c-1.9,1.1-3.9,1.9-5.5,3.3c-2.2,2-4,4.5-6.2,6.5c-1.1,1.1-2.7,2.1-4.2,2.2c-1.9,0.2-3.9-0.5-5.9-0.8
		C417,572,417.2,572.2,417.2,572.2z"/>
	<path class="st0" d="M139.8,377.4c-4.3,7.9-10.1,13-19.2,14.2C124.1,383,131.6,380.3,139.8,377.4z"/>
	<path class="st0" d="M135.9,388.1c2-3.1,3.3-7.2,6.1-9.1c2.7-1.9,6.9-1.6,11-2.4c-3.2,7.7-9.6,10-16,12.4
		C136.6,388.7,136.3,388.4,135.9,388.1z"/>
	<path class="st0" d="M251.6,482.8c-1.5-2.3-4-4.5-4.1-6.8c-0.2-3.2,5.8-5.4,12.5-4.9c-2.2,3.9-4.3,7.6-6.3,11.2
		C252.9,482.4,252.2,482.6,251.6,482.8z"/>
	<path class="st0" d="M141.4,321c4.8,3.6,11.2,4.7,9.7,11.6c-3.7-0.7-7.4-1.3-11.7-2.1C140,327.3,140.7,324.1,141.4,321z"/>
	<path class="st0" d="M88.6,424.6c8.6-8.6,21.5-6.4,31-12.7C110.7,419.5,99.3,421.2,88.6,424.6z"/>
	<path class="st0" d="M534.9,456.4c-2.9-4.6-5.4-8.5-7.8-12.4c0.2-0.4,0.4-0.7,0.6-1.1c4.1,1.1,8.2,2.1,12.9,3.3
		C538.6,449.7,537,452.6,534.9,456.4z"/>
	<path class="st0" d="M451,500c-1.5,5.7-2.6,11.5-4.7,16.9c-0.7,1.8-4,2.6-6.1,3.9c-0.2-0.4-0.4-0.7-0.6-1.1
		c3.4-6.6,6.8-13.1,10.2-19.7C450.2,500.1,450.6,500,451,500z"/>
	<path class="st0" d="M538.7,461.9c-1.9-4.4-1-7.6,4-14.3c1.8,0.9,3.6,1.9,5.6,3C545,454.5,542,458.1,538.7,461.9z"/>
	<path class="st0" d="M440.8,336.3c1.7-6.4,3.3-12.4,4.8-18.5c0.3-0.1,0.6-0.2,1-0.4c0.4,3,1.6,6.1,1.2,9
		C447.2,330.5,446.4,335.1,440.8,336.3z"/>
	<path class="st0" d="M440,368c1.4-6.9,6.1-4,9.5-4.1c2.9-0.1,4.2,1.5,3,5C448.6,368.6,444.6,368.3,440,368z"/>
	<path class="st0" d="M306.8,478.6c-4.3-0.6-8.7-1.1-13.3-1.7c2.4-3.8,5.9-5,9.6-4c1.9,0.5,3.2,3.1,4.8,4.7
		C307.5,477.9,307.2,478.3,306.8,478.6z"/>
	<path class="st0" d="M103,337.2c6.7-2.2,6.9-2.1,10.2,4C107.4,343.6,107.2,343.5,103,337.2z"/>
	<path class="st0" d="M120.2,328.3c0.2,4.2-2.5,5.4-5.1,4.5c-1.9-0.7-3-3.4-4.4-5.1c0.4-0.6,0.9-1.2,1.3-1.8
		C114.8,326.7,117.6,327.5,120.2,328.3z"/>
	<path class="st0" d="M611.2,478.3c-9.5-2.1-19.1-4.2-27.6-6.1C592.7,471.2,602.4,472.9,611.2,478.3z"/>
	<path class="st0" d="M126.2,334.1c-1.3-0.9-2.7-1.7-4.1-2.6c4-3.7,6.9-3.7,13.4,0.4c-3.7,0.8-6.5,1.4-9.4,2.1
		C126.1,333.9,126.2,334.1,126.2,334.1z"/>
	<path class="st0" d="M221.6,508.5c-9.4,3.2-11.2,2.3-11.3-4.8C214.2,505.4,217.9,507,221.6,508.5z"/>
	<path class="st0" d="M126.1,333.9c-3.1,2.4-6.2,4.9-9.9,7.7c-1.1-1.9-2-3.5-3.4-5.9c5-0.6,9.2-1.2,13.4-1.7
		C126.2,334.1,126.1,333.9,126.1,333.9z"/>
	<path class="st0" d="M146.2,756c3.7,1.8,6.1,2.7,8.3,4c16.8,10.4,35.1,11.2,54,8.5c20.5-2.9,39-10.3,56-22.1
		c10.4-7.2,21.3-13.6,32-20.4c1.9-1.2,4-2.3,6-3.4c3.7,6.4,3.4,9.8-1.8,14.2c-18.9,15.7-39.5,29.8-63.7,33.9
		c-17.7,3-34.2,11.7-52.8,10.6c-11.1-0.6-21.3-3.3-31.2-8C146,769.9,147.9,763,146.2,756z"/>
	<path class="st0" d="M246.1,702.5c15-2.9,29.3-9.3,46.3-3.6c-3.8,3.2-6.3,6.5-9.7,8c-12.7,5.7-25.6,10.9-38.1,16.1
		c2.4-3.5,5.6-6.7,7.1-10.6C253.4,708,251.6,704,246.1,702.5z"/>
	<path class="st0" d="M59.5,715.6c-9.9,1.8-17.3,8-25,13.7c-1.4,1-3.8,2-5,1.5c-1.3-0.6-2.3-3-2.5-4.8c-1.4-16.1-0.2-17.7,15.5-21.3
		c3.2-0.7,6.4-1.1,9.6-1.6c-0.3,0.6-0.6,1.1-0.9,1.7c2.7,3.6,5.4,7.2,8.1,10.9C59.4,715.7,59.5,715.6,59.5,715.6z"/>
	<path class="st0" d="M213.2,716.5c3.9-7.4,10.3-10.3,18.7-9.6c3.6,0.3,7.3-0.3,11,0c1.8,0.1,4.9,1,5,1.8c0.2,2.3-0.1,5.5-1.6,6.8
		c-3.9,3.5-8.6,6.3-13,9.2c-0.8,0.5-2.3,0.3-3.2-0.1C224.4,722,218.8,719.2,213.2,716.5z"/>
	<path class="st0" d="M59.4,715.7c5.8,1.8,11.6,3.6,15.6,4.8c-6.7,4.2-14.9,9.3-23.2,14.3c-1.3,0.8-3.1,1.3-4.5,1.1
		c-4-0.7-8-1.9-12.5-4.2c6.4-4,12.8-8,19.1-12.1c1.9-1.2,3.7-2.6,5.6-4C59.5,715.6,59.4,715.7,59.4,715.7z"/>
	<path class="st0" d="M23.5,692.6c-2.2-7.9-0.2-14.2,4.5-19.6c0.8-0.9,3.3-1.2,4.4-0.6c6.3,3.2,9.1,8.8,10.3,16.4
		C36.3,690,29.9,691.3,23.5,692.6z"/>
	<path class="st0" d="M228.2,728.3c-4.1,2.2-7.5,4.2-11,5.9c-0.8,0.4-2,0.5-2.7,0.1c-3.6-1.8-6.9-4-10.5-5.6
		c-3.4-1.5-7.1-2.4-10.9-3.6C204.2,717.4,213.5,718.2,228.2,728.3z"/>
	<path d="M203.7,262c-1.3-6.7,3.8-5.4,7.4-6.4c-1.3-7.3,0.4-14,4.6-19.9c4.3-6,8.9-7.7,16-6c5.6,1.4,9.7,6.2,10.1,12.7
		c0.3,4.3-0.1,8.7-0.9,12.9c-2,10.5-10.7,14.9-20.6,10.5c-1.6-0.7-3.2-1.8-4.6-2.9C210.9,259.1,209.7,258.9,203.7,262z M238.5,247.4
		c0.1-8.1-2.8-12.8-7.7-14.1c-5.9-1.5-9.8,0.3-13.4,6.8c-1.3,2.3-2.4,4.8-3,7.3c-2.2,8.4,3.5,15.9,12.3,16.3c6.4,0.3,9.2-1.7,10.6-8
		C237.9,252.5,238.2,249.1,238.5,247.4z"/>
	<path d="M245.8,268.2c0.7-3.9,1.1-7.9,2.3-11.7c0.5-1.7,2.5-3.7,4.1-4.1c1.3-0.2,3.7,1.6,4.4,3.1c2.7,5.5,5.2,11.2,7.2,17
		c1.9,5.5-0.5,7.9-6.2,6.7c-1.6-0.3-3.5,0.1-5.1,0.6c-3.2,1-5.2,0.6-5.4-3.2c-0.1-1.8-0.6-3.6-0.8-5.4c-0.1-1,0-2,0-3
		C246.1,268.2,246,268.2,245.8,268.2z M261.2,275.4c-2.8-6.6-5.4-12.9-8.1-19.2c-0.7,0.1-1.3,0.2-2,0.2c-0.4,6.5-0.9,13-1.3,19
		C254,275.4,257,275.4,261.2,275.4z"/>
	<path d="M227.3,380.1c-1.2,1.7-2.2,3.8-3.7,5.1c-6.4,5.2-13.1,10.2-16.9,17.9c-0.5,1-2.6,1.9-3.6,1.6c-0.9-0.3-2-2.4-1.7-3.5
		c2.5-10.4,7.8-19,17.2-24.4c1.7-1,4.6-0.4,6.8,0C226.1,377,226.5,378.7,227.3,380.1z M203.8,400.6c5.5-5.1,11-10.2,16.5-15.3
		c0.9-0.8,2-1.4,2.5-2.3c0.7-1.3,0.8-2.9,1.2-4.4c-1.5,0-3.7-0.6-4.5,0.1c-5.1,5.1-10.1,10.3-14.7,15.9
		C203.6,396.1,204.1,398.9,203.8,400.6z"/>
	<path d="M240.4,367.1c-2.1-0.4-3.6-0.5-5-1c-2.5-1-2.8-2.5-1-4.6c3.2-3.6,15.8-5.3,19.9-2.5c3.1,2.2,1.7,4.3-0.9,5.1
		C249,365.6,244.4,366.3,240.4,367.1z M252.8,362.5c-0.1-0.5-0.2-0.9-0.2-1.4c-6.9-2.5-13.3-1.4-16.2,3.7
		C242.2,364,247.5,363.3,252.8,362.5z"/>
	<path d="M161.7,546.9c9.5-1.3,19.8-2.7,29.7-4C184.2,550.1,166.2,552,161.7,546.9z"/>
	<path d="M332.4,368.8c-2.2-1-5.2-2.2-8.5-3.7c-0.9,2.1-1.4,3.3-2.5,5.9c-0.7-7.9-6.5-6.7-10.9-8.6c-0.5,1.4-0.9,2.6-1.4,3.8
		c-1.2-2.5-2.3-4.8-3.4-7.1c-0.5,0.1-1,0.2-1.5,0.3c-0.7,1.8-1.2,3.7-2.2,5.4c-1.9,3.5-5.1,3.8-6.9,0.4c-3.5-6.6-5.4-13.7-3.3-21.1
		c0.5-1.8,2.7-3,4.1-4.5c1.4,1.5,2.7,3.1,4.1,4.5c2.5,2.5,5.2,4.8,8.2,7.7c1.3-2.3,1.8-3.3,2.2-3.9c3.1,6.3,7.1,7.2,12.1,3.6
		c1.3,1.2,2.5,3.1,4.2,3.6c1.6,0.5,3.7-0.4,6.1-0.7c1.3,2.8,8.3,3.8,12.4,1.3c3.9-2.4,8.2-4.8,12.5-5.4c7.8-1.2,13.4,4.6,13.3,12.5
		c0,2.1-0.4,4.3-0.9,6.4c-1.8,6.7-7,10.9-13.2,10.9c-6.9,0-12.3-4.3-14.1-11.1c-0.2-0.6-0.3-1.3-0.8-3.3
		C338.7,366.6,335.5,367.7,332.4,368.8z M299.4,364.8c0.7-3,1.2-5.5,1.8-8c0.6-2.8,1.8-3,4.2-1.5c3.6,2.2,7.4,4.7,11.4,5.6
		c7.4,1.6,15.1,2.6,22.7,2.9c4.3,0.2,6.6,0.7,7.4,5.4c0.8,4.5,4.9,6.7,8.9,6.7c3.1,0,6.9-1.4,9.2-3.5c3.7-3.4,3.8-11.8,1.2-15.4
		c-2.7-3.7-7.7-4.7-13.7-2.4c-2.5,0.9-4.7,2.6-7.1,3.6c-1.8,0.8-3.8,1.9-5.5,1.6c-15.8-2.7-33.1-1.2-44.1-16.7
		C292.6,348.4,294,359.3,299.4,364.8z"/>
	<path d="M294.1,320.5c0.5-7,0.6-13.2,6.1-17.8c5.8-4.8,12.6-6.2,18.8-2.4c2,1.2,3.8,3.9,4.3,6.2c1.9,8.9-0.8,16.9-7.2,23.2
		c-4.3,4.2-9.7,6.9-15.9,4.2C294.1,331.2,294.8,325.1,294.1,320.5z M297.9,319.4c0,1-0.1,2,0,3c0.6,8.8,5.6,11.4,13.1,6.7
		c6.7-4.2,9.1-10.8,9.3-18.3c0.1-8.4-6-11.8-13.6-8C299.8,306.3,298.2,312.4,297.9,319.4z"/>
	<path d="M343,329.1c0.2-10.4,3.4-19.3,13.1-24.6c1.7-1,4.2-1.3,6.1-1c6.4,0.9,15.4,10.3,16.4,16.6c0.8,5.4-6.9,19.5-12.5,21.5
		c-4.1,1.5-8.7,2.3-13.1,2.1C346.2,343.5,342.9,338.2,343,329.1z M345.4,328.7c0.6,7,2.6,10.7,7,11.9c8.2,2.2,16.7-2.3,20-10.6
		c3.5-8.6,0.6-17.4-6.9-21.6c-5.7-3.2-12.8-1.3-15.4,4.8C348,318.1,346.9,323.5,345.4,328.7z"/>
	<path d="M338.6,337.5c-0.5,3-0.8,6.4-1.7,9.5c-0.9,3.5-3.1,4.6-6.8,3.2c-2.6-1-5.6-0.7-8.4-1.4c-2-0.5-4.1-1.3-5.6-2.5
		c-0.4-0.4,0.9-3,1.6-4.5c2.4-5.1,4.7-10.3,7.5-15.1c1.4-2.3,4-3.8,6-5.7c1.9,2.1,4.4,3.9,5.5,6.4C338,330.4,338,333.9,338.6,337.5z
		 M330.2,324.1c-3.6,7-7,13.9-10.4,20.6c4.3,0.7,8.8,1.5,13.3,2.2C336.5,339,335.4,328.6,330.2,324.1z"/>
	<path d="M310.9,385.7c20.4,6.1,39.8,7.2,59.5,2.5C358.6,397.1,320.8,395.8,310.9,385.7z"/>
	<path class="st0" d="M238.5,247.4c-0.3,1.8-0.6,5.1-1.3,8.3c-1.4,6.3-4.1,8.3-10.6,8c-8.8-0.4-14.5-7.8-12.3-16.3
		c0.7-2.5,1.8-5,3-7.3c3.6-6.4,7.5-8.3,13.4-6.8C235.7,234.6,238.6,239.3,238.5,247.4z"/>
	<path class="st0" d="M261.2,275.4c-4.2,0-7.2,0-11.4,0c0.4-6,0.9-12.5,1.3-19c0.7-0.1,1.3-0.2,2-0.2
		C255.7,262.5,258.4,268.8,261.2,275.4z"/>
	<path class="st0" d="M203.8,400.6c0.3-1.7-0.2-4.5,1-5.9c4.6-5.6,9.6-10.8,14.7-15.9c0.8-0.8,2.9-0.1,4.5-0.1
		c-0.4,1.5-0.5,3-1.2,4.4c-0.5,1-1.7,1.6-2.5,2.3C214.8,390.4,209.3,395.5,203.8,400.6z"/>
	<path class="st0" d="M252.8,362.5c-5.3,0.7-10.5,1.5-16.5,2.3c3-5.1,9.4-6.2,16.2-3.7C252.6,361.6,252.7,362.1,252.8,362.5z"/>
	<path class="st0" d="M299.4,364.8c-5.4-5.5-6.8-16.4-3.5-21.6c10.9,15.4,28.3,14,44.1,16.7c1.7,0.3,3.8-0.8,5.5-1.6
		c2.4-1.1,4.6-2.7,7.1-3.6c5.9-2.3,11-1.3,13.7,2.4c2.6,3.6,2.5,12-1.2,15.4c-2.3,2.1-6.1,3.5-9.2,3.5c-4,0-8.1-2.1-8.9-6.7
		c-0.8-4.7-3.2-5.2-7.4-5.4c-7.6-0.3-15.3-1.3-22.7-2.9c-4-0.9-7.8-3.4-11.4-5.6c-2.4-1.5-3.6-1.3-4.2,1.5
		C300.6,359.3,300.1,361.8,299.4,364.8z"/>
	<path class="st0" d="M297.9,319.4c0.2-7,1.8-13.1,8.8-16.6c7.6-3.8,13.7-0.4,13.6,8c-0.1,7.5-2.5,14.1-9.3,18.3
		c-7.5,4.7-12.5,2.1-13.1-6.7C297.9,321.4,297.9,320.4,297.9,319.4z"/>
	<path class="st0" d="M345.4,328.7c1.5-5.2,2.6-10.6,4.7-15.6c2.5-6.1,9.7-8,15.4-4.8c7.6,4.2,10.4,13,6.9,21.6
		c-3.4,8.4-11.8,12.8-20,10.6C348,339.4,346,335.7,345.4,328.7z"/>
	<path class="st0" d="M330.2,324.1c5.2,4.4,6.3,14.9,2.9,22.8c-4.5-0.8-9-1.5-13.3-2.2C323.2,338.1,326.7,331.2,330.2,324.1z"/>
</g>
<rect class="st1" width="612" height="792"/>
<rect x="8.4" y="8.4" class="st1" width="595.2" height="775.2"/>
</svg>
