<?xml version="1.0" encoding="utf-8"?>
<!-- Generator: Adobe Illustrator 22.1.0, SVG Export Plug-In . SVG Version: 6.00 Build 0)  -->
<svg version="1.1" id="Layer_1" xmlns="http://www.w3.org/2000/svg" xmlns:xlink="http://www.w3.org/1999/xlink" x="0px" y="0px"
	 viewBox="0 0 612 792" style="enable-background:new 0 0 612 792;" xml:space="preserve">
<style type="text/css">
	.st0{font-family:'Calibri';}
	.st1{font-size:11.04px;}
	.st2{fill:#FFFFFF;}
	.st3{fill:none;}
</style>
<text transform="matrix(1 0 0 1 72.0239 82.4399)" class="st0 st1">!</text>
<text transform="matrix(1 0 0 1 72.0239 104.8999)" class="st0 st1">!</text>
<text transform="matrix(1 0 0 1 216.0498 104.8999)" class="st0 st1">!</text>
<g>
	<g>
		<path class="st2" d="M612.6,396.7c0,102.9,0,205.8,0,308.8c-1.8,0-3.5-0.6-5.1-0.8c-3-0.4-6-0.6-9.1-1c-3-0.4-6-0.6-9.1-1
			c-5-0.7-10-0.8-15-1.1c-0.2,0-0.4,0.1-0.5,0c-2-1.4-4.4-1.1-6.6-0.9c-2.3,0.2-4.4-0.8-6.6-1c-3.5-0.4-7-0.2-10.6-0.8
			c-5.2-0.9-10.7,0-16.1-1.1c-4.3-0.8-8.7,0.1-13.1-0.9c-3.5-0.8-7.3,0-10.9-0.2c-3.5-0.2-7-0.9-10.6-0.9c-11.8-0.1-23.6,0-35.5,0
			s-23.6-0.2-35.5,0c-11.7,0.2-23.4-0.8-35.1,0.8c-7.8,1.1-15.7-0.7-23.6,1c-3.8,0.8-8,0.2-12,0.1c-4.1,0-7.9,1.6-12.1,1.1
			c-1.9-0.2-4.1-0.3-5.8,0.4c-2,0.8-3.9,0.4-5.8,0.5c-2,0.2-4,0-6,0c-0.2,0-0.4-0.1-0.5,0c-2.2,1.7-4.7,1-7.1,0.9
			c-2.5-0.1-4.7,0.8-7.1,1c-5.3,0.5-10.7,0.7-16.1,1.1c-0.3,0-0.8-0.1-1,0c-1.8,1.7-4.1,0.7-6.1,1c-2,0.3-4,0.8-6.1,1
			c-4.3,0.4-8.7,0.7-13.1,1c-0.2,0-0.4-0.1-0.5,0c-3.6,2.3-7.8,0.4-11.7,1.8c-3.5,1.3-7.7,0.5-11.5,1.3c-2.7,0.6-5.5,0.4-8.1,1
			c-1.4,0.3-2.7,0.7-4.1,0.9c-1.5,0.2-3,0.8-4.6,0.9c-3.8,0.4-7.7,0.7-11.6,1c-0.3,0-0.8-0.1-1,0.1c-1.3,1.6-3.1,0.7-4.6,0.9
			c-1.7,0.3-3.4,0.6-5.1,1c-1.5,0.3-3,0.8-4.6,1c-3.2,0.4-6.5,0.4-9.5,1.1c-2.4,0.6-4.7,1-7.1,0.9c-1.9,2.4-4.8,0.2-7.3,1.8
			c-2.1,1.3-5.3,0.8-7.9,1.2c-2.3,0.3-4.7,0.6-7,1.3c-2.7,0.8-5.4,1.8-8.3,1.7c-2.1,0-3.9,1.6-6.1,1c-0.3-0.1-0.8,0.6-1.2,0.7
			c-3.2,0.8-6.4,1.5-9.5,2.3c-4.2,1.1-8.6,1.7-12.8,3c-8,2.4-16.1,4.6-24.1,7c-10.6,3.2-20.9,7.3-31.2,11.4
			c-6.3,2.5-12.3,5.6-18.5,8.4c-5.2,2.4-10.4,4.7-15.5,7.1c-3.8,1.8-7.4,3.9-11.2,5.5c-4,1.7-7.4,4.6-11.6,5.7
			c-3.8,3.6-9.3,4.3-13.3,7.7c-0.2,0.2-0.6,0-1,0c0-54.6,0-109.2,0-163.9c4.7-3.2,9.5-6.2,14-9.6c7.9-5.8,15.7-11.7,23.9-17.1
			c7.8-5.1,16.1-9.5,24.1-14.3c6.9-4.1,14.3-7.3,21.4-11.1c5.6-3,11.4-5.5,17.1-8.2c8.7-4.2,17.5-8.5,26.4-12.2
			c7.4-3.1,14.9-5.9,22.4-8.7c7.5-2.8,15.2-5.1,22.7-7.9c5.1-1.8,10.2-3.5,15.1-4.8c1.7,1.2,3.4,2.3,4.8,3.5c1.4,1.2,2.5,2.8,4,3.8
			c1.6,1.1,1.5,3.6,3.8,3.9c3.3,4.6,6.7,9.2,9.8,13.9c3.1,4.8,6,9.8,8.9,14.8c3,5.2,5.1,10.9,8.5,16c1.5,2.3,3.2,4.8,3.8,7.4
			c0.8,3.4,2.9,5.8,4.7,8.7c0.6-0.7,1.5-1.4,1.5-2c-0.2-3,1.3-5.5,2-8.2c0.8-2.9,1.4-5.8,1.9-8.7c1.8-9.5,5.2-18.6,7.4-28
			c1.4-5.9,3.1-11.7,4.7-17.5c1.2-4.3,2.5-8.6,3.7-13c1.5-5.4,2.8-10.8,4.3-16.2c0.6-2.2,0.9-4.9,4.3-4.6c2.1-1.7,4.8-2.1,7.2-3.1
			c4.8-2,9.6-4.1,14.6-5.9c8.6-3,16.9-6.5,25.3-10c4.7-1.9,9.7-3.2,14-6c6.9-1.3,12.8-5.4,19.4-7.5c2.8-0.9,5.4-2.3,8.6-3.7
			c17.7,13.9,35.9,27.7,53.2,42.8c0.4,11.6,0.8,23.4,1.3,35.3c0,0.8-0.4,2,0.1,2.4c1.7,1.7,0.6,3.8,0.9,5.6s0.8,3.7,1,5.6
			c0.3,2.9,0.2,5.7,0.8,8.6c1.1,5.1,1.2,10.4,2.2,15.6c0.5,2.5,1.2,5,1,7.6c2,1.4,0.1,3.9,1.4,5.4c1.5,1.7-0.1,4,1.5,6
			c1,1.3,0.8,3.6,1.1,5.5c1,5.4,2.6,10.6,4.1,15.8c0.8,2.6,1.2,5.8,3.9,7.3c2.5,1.4,5.3,3.2,8,3.4c2.9,0.2,5.6,1.5,8.6,1.2
			c2.9-0.3,5.7,0.7,8.6,0.9c6.6,0.4,13.3,0.3,20,0.1c6.5-0.2,13,0.2,19.6-0.7c6.3-0.8,12.8-1.1,19.1-2.2c4.5-0.8,9-1.8,13.2-3.3
			c2.6-1,6.2-1.2,7.7-4.4c-2.7-3.5-6.6-3.9-10.3-4.4c-2.4-0.3-4.5-1.1-6.8-1.8c-4.2-1.2-8-3.4-12-4.8c-5.9-2-10.8-6-16.7-7.9
			c-3.1-3-7.3-4.1-10.9-6.4c-5.9-3.7-12.1-7-17.9-11.1c-6.3-4.4-11.9-9.4-16.4-15.7c-3.4-4.7-6.8-9.5-8.7-14.9
			c-3.1-9.1-6.1-18.3-7.4-28c-0.2-2-0.3-4.2-1-6c-1.6-3.8-1.9-7.7-1.8-11.7c0.1-3.8,0-7.6,0-11.2c-3.6-2.9-7.1-5.5-10.3-8.4
			c-3.3-3-6.8-5.9-10.4-8.6c-3.4-2.6-6.9-5.2-10.2-8c-3.5-2.8-7.1-5.5-10.4-8.5c-3.1-2.9-7.3-4.5-9.9-8.4c0.7-0.3,1.1-0.5,1.5-0.6
			c5-1.7,9.6-4.1,14.4-6.2c5-2.3,10.2-4.2,15.3-6.6c5.8-2.7,12-4.9,17.9-7.4c4-1.7,7.6-4.1,11.7-5.5c4-1.3,7.7-3.2,11.5-4.7
			c4-1.5,7.9-3.5,12-4.8c3.1-1,5.9-2.7,8.9-3.8c3.9-1.4,8-2.5,11.7-4.2c9-4.2,18.8-5.9,28-9.6c3.2-1.3,6.8-1.3,10.1-2.1
			c3.4-0.8,6.9-1.2,10.1-2.2c5.2-1.6,10.7-1.1,15.8-2.8c7.1,0.4,14-1.7,21.1-1c2.1,0.2,4.3-0.1,6.5,0c7.9,0.4,15.7-0.7,23.6,0.9
			c4.2,0.9,8.7-0.2,13.1,1C607.1,397.2,609.9,396.7,612.6,396.7z M80.5,678.7c1.2-2.6-0.1-4.2-0.8-5.9c-0.8-2-1.8-3.9-2.8-5.8
			c-0.4-0.9-0.9-1.7-1.6-3c-1.1,4.1,0.3,6.7,3.3,9.9c-1.6-0.5-2.3-0.6-2.6-0.9c-2.4-2.4-5.1-4-8.5-4.7c-1.3-0.3-2.7-1.8-3.4,0.1
			c-0.5,1.5,1.8,1.8,2.6,1.9c5,1,8.4,4,10.8,8.1C78.6,678.9,79.5,676.5,80.5,678.7z M527.5,556.7c-0.6,0.3-1.2,0.7-1.9,0.9
			c-2.2,0.6-3.8,2.4-3.9,4.5c-0.1,2.8,0,5.6,0,8.3c0.5-0.8,2.7-0.5,1.3-2.3c-0.6-0.8-0.1-2.4-0.1-3.5c3.3,0.8,0.3,5,3.9,5.8
			c-0.1-1.3-0.1-2.6-0.5-3.8c-1-3.2-1.3-6.3,1.4-8.9C527.8,557.7,527.5,557.2,527.5,556.7z M313.3,555.2c4.5,4.5,8.4,8.3,12.2,12.1
			c1.3-0.7,1.7-2,1.2-3.3c-1-2.5-2.3-5-3.7-7.9c-0.2,1.8-0.3,3.1-0.6,5.4C319.5,558.9,317.3,556.5,313.3,555.2z M240.2,682.5
			c-0.3,2.8-0.5,4.4-0.7,6.3c-2.6-1.7-2.6-1.7-4.7-2c0,2,1.6,2.7,2.7,3.7c1.1,0.9,2.9,1.6,3.2,2.7c0.6,2.3,1.9,1.1,3.3,1.2
			C243,690.5,242.2,686.8,240.2,682.5z M549,682.7c1.7-2.3,2-4.6,3.2-6.7c1.3-2.1,3.2-3.4,4.5-5.5c1.1-1.8,3.2-3,5.1-4.7
			c-3.8-1.3-4.6,2.9-7.2,3.2C552.8,673.5,547.3,676.3,549,682.7z M531.7,671.9c0.9,1.2,1.8,2.4,2.6,3.7c2.4,3.8,6.2,6.7,7.5,11.3
			c0.1,0.3,1.2,0.4,2.3,0.7c-1.3-3.7-2.6-6.6-4.8-9.1C537,676,535.6,672.8,531.7,671.9z M542.5,666.4c-0.3,0.2-0.6,0.3-0.9,0.5
			c0.3,3.8-0.5,7.7,1,11.4c0.8,2,1.3,4.1,2.1,6.1c0.2,0.4,0.8,1.1,1.1,1c1.3-0.1,0.7-1.2,0.8-1.9c0-0.3-0.2-0.6-0.3-0.9
			c-1.8-4.3-3.2-8.6-2.7-13.3C543.7,668.4,542.9,667.4,542.5,666.4z M534.9,483.3c-0.2,2-0.2,3.2,0.6,4.9c1.6,3.2,2.5,6.8,3.8,10.5
			c0.3-0.2,1.2-0.4,1.2-0.7c0.2-0.9,0.3-2,0-2.9c-1.2-3.3-2.5-6.5-3.9-9.7C536.3,484.7,535.7,484.2,534.9,483.3z M536.3,549.7
			c-2.1,0.8-4.1,2.4-4.5,3.3c-2.4,4.6-2.5,9.5-1.5,14.6C530.2,561.1,532,555.3,536.3,549.7z"/>
		<path class="st2" d="M1,346.7C1,231.5,1,116.2,1,1c203.9,0,407.7,0,611.6,0c0,52,0,103.9,0,155.9c-0.5,0-1.4,0.1-1.4,0
			c-0.4-1.9-2.4-2.2-3.6-3.4c-11.3-11.7-23.4-22.6-33.6-35c3.2-3.7,6.7-7.3,9.6-11.1c5.5-7.1,8.2-15.3,9-24.2
			c0.2-2.1-0.1-4.3,0.1-6.5c0.3-4.4-1.3-8.3-3-12.2c-3.2-7.8-9.4-13-16.1-17.4c-7.3-4.7-15.9-6.3-24.5-7.1c-4-0.3-8,0.2-12-0.1
			c-4-0.3-7.6,1.4-11.6,1.1c0-0.8-0.1-1.7,0-2.5c0.1-1,0-5.6-0.5-6.5c-1.7-3.5-5.1-8.7-10.1-11.2c-7.6-3.8-15.8-3.3-23.6-1.1
			c-3,0.8-5.9,1.7-8.8,2.9c-2.1,0.8-3.6,0.5-5.2-1.2c-2.4-2.6-4.9-5-7.4-7.4c-0.5-0.5-1.2-0.8-1.8-1.1c-1.2,1.1,0.2,3.4-2.3,3.4
			c-0.4,0-1.1,1.2-1.3,1.9c-1.1,4.6-1.8,9.2-3.1,13.7c-0.9,3-1.9,5.9-4.4,8.2c-3.4,3.2-6.7,6.8-9.5,10.5c-3.4,4.5-6.2,9.4-9.4,14.1
			c-1,1.4-2.3,2.7-4.5,2.3c-4.1-0.7-8,0.7-12.1,1c-1.8,0.2-3.5,1.1-5.3,1.6c-6,1.9-11.3,5-16.5,8.4c-5.8,3.8-9.9,9.1-13.2,15
			c-3.4,6.1-5,12.8-5.1,19.9c-0.1,7,1.7,13.1,6.5,18.8c1.7,2.1,3.8,3.9,6.1,5.5c3,2.2,6.4,3.7,9.4,5.2c0,0.6,0.1,0.8,0,0.9
			c-4.6,7.9-10.4,15-15.6,22.5c-5.8,8.3-11.5,16.6-17.7,24.7c-3.1,4-5.4,8.6-9,12.3c-1.7,1.7-2.9,4-4.1,5.8
			c-1.8-3.1-3.8-6.3-5.5-9.6c-3.2-6.1-7-11.8-10.9-17.4c-3.1-4.4-5.3-9.4-9.1-13.2c-3.8-7.9-9.4-14.7-13.6-22.4
			c-2.2-4-4.9-7.6-7.4-11.4c-2.5-3.8-5.2-7.4-7.4-11.4c-2.2-3.9-4.8-7.8-7.6-11.3c-2.9-3.6-5-7.7-7.7-11.4
			c-4.5-6.3-8.4-12.9-13.2-19c-1.8-2.2-3.7-3.3-6.7-3.2c0.1,0.8,0.7,1.8,0.3,2.4c-3.3,5.6-5.1,11.9-7.7,17.8
			c-1.2,2.8-2.9,5.5-3.9,8.4c-2.6,7.4-5.8,14.6-8.4,22c-1.2,3.3-2.4,6.7-3.6,10c-2.5,7-4.7,14-7.4,20.9c-2.7,6.9-5.2,13.8-7.6,20.8
			c-0.6,1.8-1.4,3.6-2.1,5.4c-2.8-4.2-5.4-8-8.1-12c4.5-5.8,3.5-12.9,5.2-19.4c0.1-0.3,0.2-0.8,0-1c-1.7-1.5-0.8-3.4-1-5.1
			c-0.1-1,0.3-2.1-0.1-3c-2.1-4.6-3.2-9.7-6-14c-3-4.6-7.2-8-12-10.5c-2.5-1.3-5.1-2.3-7.8-3c-2.9-0.8-5.6-2.3-8.7-1.9
			c-3,0.4-5.7-1-8.6-1.1c-2.8-0.1-5.4,0.7-8.1,0.9c-3.1,0.2-5.8,1.2-8.5,2.4c-3.7,1.6-6.6,4.5-10,6.6c-0.7-1.7,0.6-3.9-1.5-4.6
			c-2.4-0.7-4.7-2.1-7.4-1.2c-0.9,0.3-1.8,0.6-2.6,0.9c-5.4,1.6-10.7,3.5-14.8,7.6c-6.9,6.8-11.4,15-14.7,23.9
			c-2.1,5.7-4,11.8-3.2,18.2c0,0.3-0.1,0.6-0.1,0.8c-1.6,0.9-3,1.9-4.6,2.4c-4.2,1.3-6.5,4.8-9.3,7.6c-2.8,2.9-3.3,7.1-3.8,10.8
			c-0.8,5.7-0.4,11.6,1.8,17.1c2.9,7.3,7.3,13.3,15.1,16c1.8,0.6,3.6,1.4,5.4,1.4c3.5-0.1,7,0.4,10.6-0.8c4.5-1.4,8.7-3.4,12.7-5.6
			c5.1-2.8,10.3-5.7,13.4-11.1c0.7-1.3,1.4-2.2,0.3-3.4c-2.8,2.5-5.6,5-8.4,7.4c-0.3,0.3-0.9,0.3-1.2,0.6c-4.3,2.7-8.9,5-13.6,7
			c-5.1,2.2-10,2.6-15.3,1c-6.3-2-11-6.2-13.8-11.8c-2.3-4.7-3.8-10-3.3-15.7c0.3-2.9,0.9-5.6,1.6-8.4c0.6-2.4,2.9-3.8,4.5-5.6
			c2.9-3.1,6.4-4.5,10.6-4.5c3.5,0,7,0,10.5,0c0.3,0,0.5-0.3,0.8-0.4c0-0.8,0-1.6,0-2.7c-3.2-0.8-6.4-1.6-9.9-2.5c0-0.8-0.1-2,0-3.1
			c0.2-1.2,0.9-2.4,0.9-3.6c0.1-2.9,1.2-5.5,1.9-8.2c1.6-6.5,4.8-12.1,8.2-17.6c4.7-7.5,10.7-11.2,19.2-11.9
			c0.6-0.1,1.2-0.4,1.8-0.5c0.6-0.1,1.3-0.4,1.7-0.2c1.8,0.9,3.6,1.9,5.3,2.9c-4.1,5-7.1,10.1-7,17.7c3.2-6.1,5.9-11.4,10-15.7
			c1.2-1.3,2.6-2.1,3.8-3.3c3.3-3.2,7.4-4.7,11.9-4.8c3.5-0.1,7,0.1,10.5,0c4.4-0.2,8.6,0.7,12.6,2.1c7.2,2.4,14.1,5.4,18.3,12.5
			c2.6,4.5,5.3,9.1,5.7,14.1c0.5,7.1,1.1,14.4-1.4,21.8c-2.2-0.8-0.7-4.1-3.4-4.4c-0.7,3.1-1.6,6.3-1.9,9.5c-0.1,1.8-0.5,3.5-1.3,5
			c-2.9,5.8-6.7,10.8-12.2,14.4c-4.1,2.6-8.1,5.5-12.8,6.5c-4.8,1.1-9.4,2.8-14.5,2.5c-5.8-0.4-11.7-0.1-17.5-0.1
			c-0.3,0-0.5,0.3-0.8,0.5c0,0.7,0,1.3,0,2.1c1.8,0.8,3.6,1.9,5.5,2.3c2.2,0.4,4.4,0,6.6,0.9c1.4,0.5,3.4,0.7,5.2-0.5
			c1.2-0.7,3.1-0.3,4.9-0.4c-0.3,0.9-0.3,1.4-0.5,1.8c-1.9,2.9-3.9,5.7-5.6,8.7c-2.6,4.4-4.8,9.1-7.5,13.4
			c-4.2,6.6-8,13.3-11.5,20.2c-0.5,1-0.9,2-1.5,2.9c-3,4-4.8,8.7-7.4,12.9c-3,4.9-5,10.2-7.7,15.3c-5.2,9.8-9.9,19.8-15.1,30.3
			c-0.5-2.6-1.1-4.8-1.2-6.9c-0.1-2.4-1.7-4.6-1.1-7.1c0.2-0.6,0.2-1.4,0-2c-1.3-2.8-1.2-5.8-2.1-8.6c-0.8-2.7-0.2-5.6-1.1-8
			c-0.8-2.1-0.4-4.2-0.9-6.1c-0.5-2-1.3-3.9-1-6.1c0.1-0.7,0.3-1.5,0-2c-2-3.7-2-7.9-2.7-11.8c-0.8-4.5-2.9-8.4-3.6-12.9
			c-2.6,0.3-3,2.5-3.5,3.8c-2.2,6.2-4.1,12.6-6.1,19c-1,3.2-2.2,6.3-3.3,9.3c-0.6,0-0.9,0.1-0.9,0c-0.8-1-1.5-1.9-2.2-2.9
			c-1-1.5-3.3-1.5-4.1,0c-0.9,1.5-1.7,3-2.5,4.5c-5.3,10.3-10.6,20.6-16,30.8c-2.4,4.7-5.1,9.2-7.7,13.8c-2.2,3.9-4.5,7.8-6.9,11.9
			c-1.3-2.1-2.4-4.4-4-6.2c-5.1-5.5-9.2-11.9-14.8-16.9c-0.6-0.5-1-1.2-1.5-1.9c-2.3-2.8-4.6-5.7-6.9-8.5c-0.8-1-1.8-1.8-3-3
			c-0.8,0.7-1.3,1.2-1.9,1.7c-1.5,1.5-1.6,3.8-2.6,5.4c-1.7,2.7-2.7,5.6-3.6,8.5c-0.7,2-1.9,3.9-2.6,5.9c-0.7,2-1.3,4.1-2,6.2
			c-1.6,4.8-3.5,9.6-4.6,14.6C3.3,342,3.1,344.9,1,346.7z M171.7,51.1c-2.3-0.5-4.7-0.6-6.5-1.5c-3.1-1.7-5.6,0.3-8.1,1
			c-2.8,0.8-4.8,3.5-6,6.2c-1.1,2.5-2.1,5.2-2.1,8.1c0,2.4,0.6,2.7,3.8,2.7c0.5-2.5,1.3-4.9,1.3-7.5c0.1-3.2,2.9-4.8,6.2-5.4
			c3.5-0.6,6,1.9,9.2,2.2c0.7,0.1,1.7,1.2,2.6,0.8c1-0.5,2.1-1.2,2.6-2.1c0.8-1.5,1.7-3,1.4-4.9c-0.3-1.5,0.6-2.3,2-2.9
			c2.8-1.2,5.5-1.7,8.3-0.2c2.5,1.3,4.9,2.7,7.6,4.1c1-1.3,2.1-2.9,3.2-4.4c-0.3-0.3-0.5-0.5-0.7-0.7c-5.1-5-11-6.1-17.6-3.8
			c-0.7,0.3-1.5,0.5-2.1,1C174.3,45.9,172.1,47.8,171.7,51.1z M60,72.8c-5.1,0.2-9.2,1.8-12,5.7c-2.6,3.6-3.7,7.7-4.1,12.3
			c1.1,0,1.9,0,3,0c0-2.4,1.8-4,2.4-6.4c0.7-2.7,2.4-5.8,6.3-5.6c1.3-1.6,3.1-0.8,4.6-0.9c3.9-0.2,5.2-1.9,4.8-5.8
			c-0.2-2.6,0-5.3,0-7.8c3.2-2.8,7.2-2.6,10.8-3.3c1.1-0.2,2.3-0.2,3.5,0c1.2,0.2,2.4,0.8,3.6,0.9c1.9,0.2,2.9-0.6,3.1-2.2
			c0.3-2-0.6-3.7-2.1-3.7c-4.5,0.1-9.1-0.8-13.6,0.9c-6.2,2.4-11.4,6-10.3,14C60,71.5,60,72,60,72.8z M33.5,176.9
			c1.3,0,2.6-0.1,3.9,0c1.2,0.1,2.4-1.6,3.7-0.1c0.2,0.2,1.5-0.3,2.1-0.7c1.1-0.9,2.1-2,2.6-2.6c-0.3-3.1-0.7-5.4-0.8-7.8
			c-0.1-1,1.6-2.1,2.5-1.8c1.3,0.5,2.6,1,3.8,1.8c2.6,1.6,4.2,1.4,5.5-1.1c0.3-0.7,0.2-2.2-0.3-2.6c-1.4-1.2-3-2.7-4.7-2.9
			c-1.9-0.3-4-0.4-6.2,0.6c-4.6,2-5.4,6-6.2,10.1c0,0.2,0.4,0.5,0.6,0.7c-1.8,0.5-3.6,1-5.4,1.5c-3,0.7-4.5,3.3-6.2,5.3
			c-1.4,1.7-1.9,4.2-2.3,6.4c-0.2,1,0.9,2.2,1.3,3.2c0.9,0,1.5,0,1.8,0c2.5-2.3,1.5-5.2,1.8-7.5C32,178.3,32.7,177.6,33.5,176.9z"/>
		<path class="st2" d="M612.6,711.5c0,27,0,54,0,80.9c-203.9,0-407.7,0-611.6,0c0-1.7,0-3.3,0-5c0.6-0.1,1.3-0.1,1.8-0.4
			c3-1.6,6.1-3.1,8.9-5c2.9-1.9,6.2-2.6,9.2-4.5c4.2-2.8,8.9-4.9,13.5-7c4.6-2.1,9.1-4.7,13.7-6.6c5.9-2.3,11.3-5.6,17.3-7.6
			c4.2-1.4,7.9-4.1,12.3-5.3c4.1-1.2,7.9-3.4,12.1-4.6c4-1.2,7.9-2.6,11.8-4c3.9-1.3,7.9-2.7,11.9-3.9c5.2-1.6,10.6-2.5,15.8-4.2
			c3.7-1.2,7.6-1.8,11.3-2.7c5.2-1.2,10.3-2.7,15.7-3.3c2-0.2,4.2-0.3,6-1c4-1.5,8.3-1.6,12.3-2.8c2.9-0.8,6.2-0.3,9-1.2
			c2.2-0.7,4.7-0.2,6.5-1.1c1.7-0.8,3.1-0.5,4.7-0.8c1.5-0.3,3-0.8,4.6-1c3.2-0.4,6.5-0.2,9.5-1.1c5.2-1.6,10.6-1.3,15.8-2.8
			c1.5-0.4,3.5,0.2,4.8-0.5c1.7-0.9,3.2-0.5,4.8-0.5c1.6,0,3.1-0.8,4.6-0.9c5-0.3,9.8-1.3,14.7-2.1c2.5-0.4,5-0.2,7.6-0.9
			c2.5-0.7,5.4-0.1,8.1-1c1.8-0.6,4.4,0.6,5.8-0.3c2-1.2,3.8-0.7,5.7-0.8c1.9-0.1,3.7-0.6,5.6-1c3.1-0.6,6.3,0.1,9.6-0.9
			c2.9-0.9,6.3-0.4,9.5-1c3.6-0.7,7.3-0.2,11.1-1c3.6-0.8,7.3-0.3,11.1-1c4.2-0.8,8.7-0.2,13.1-1c5.2-1,10.7,0,16.1-1
			c5.9-1.1,12,0.2,18.1-1c4.5-0.9,9.3,0,13.9-0.2c4.7-0.2,9.4-0.9,14.1-0.9c11-0.1,22,0,33,0c11.2,0,22.3-0.2,33.5,0
			c10.8,0.2,21.7-0.8,32.6,0.9c5.8,0.9,11.8-0.9,17.6,1.1c6.6-0.7,13,0.8,19.6,1c2.5,0.1,5-0.3,7.6,0.8c2,0.8,4.6,0,6.9,0.2
			c2.4,0.2,4.7,1,7.1,0.9c5.3-0.3,10.3,1.8,15.6,1.1c0.2,0,0.4-0.1,0.5,0c1.8,1.5,4,0.8,6.1,1c2,0.2,4,0.8,6.1,1
			c4.3,0.4,8.8,0.3,13,1.2c2.9,0.6,5.7,0.8,8.6,0.9C611.2,710.5,611.9,711.1,612.6,711.5z M319.8,770.9c-0.2,0.3-0.5,0.5-0.7,0.8
			c-2.2-1.7-4.3-3.6-6.6-5.2c-2.4-1.8-5.1-3.2-7.3-5.2c-2.2-1.9-4.4-3.6-7.4-5.3c0.1,1.1-0.1,1.9,0.2,2.2c2.5,2.2,5,4.5,7.8,6.2
			c4.1,2.6,14.3,10.4,17.3,14.4c0.5-1.5,1-2.7,1.5-4.1c-2.5-3.1-5.4-6.3-7.7-9.9c-1.4-2.3-3.8-4.4-3.2-7.7c0-0.2-0.9-0.6-1.9-1.2
			c0.1,1.8-0.1,3.2,0.3,4.3C314,764.2,316.3,768,319.8,770.9z M187.3,732.5c-3.7-0.4-5.8,1.4-7.8,3c-1.4,1-3.1,2.1-2.5,4.4
			c-2.1,3.2-0.5,6.7-1,10c0,0.1,0.2,0.2,0.3,0.4c2,2.8,3.3,6.4,7.8,6.2c0.5,0,1.1,0.5,1.9,0.9c0-3,0-5.4,0-7.9
			c-0.1-2.3,0.3-4.7-0.3-7.4c-3,4.5-0.9,9.1-1.9,13.1c-1.9-1.9-3.7-3.7-5.8-5.8c0-1.8-0.1-4.2,0-6.5c0.1-1.4,0.2-3.1,1.1-4
			c1.9-1.8,3.1-4.8,6.5-4.7C185.9,734.3,186.4,733.4,187.3,732.5z M328.7,774.6c2.1-2.7,3.7-5.1,5.6-7.2c1.9-2,4-3.8,6.3-5.3
			c2.1-1.4,4.7-2.2,7.6-3.5c-6.1-1-9.7,2.4-13.3,5.2C331.7,766.4,329,769.6,328.7,774.6z M196.2,742.8c-2.9-0.7-4.2-0.2-5.7,2.3
			c-2,3.4-1.3,6.7-1.6,10.2c0.8,0,1.2,0,2,0c0-1.3,0.1-2.6,0-3.9C190.6,747.5,192.1,744.5,196.2,742.8z"/>
		<path d="M525.6,41.2c3.9,0.1,7.6-1.7,11.6-1.3c4,0.3,8-0.2,12,0.1c8.6,0.7,17.2,2.3,24.5,7.1c6.7,4.4,12.8,9.5,16.1,17.4
			c1.6,4,3.3,7.8,3,12.2c-0.2,2.1,0.1,4.3-0.1,6.5c-0.8,8.9-3.5,17.1-9,24.2c-3,3.9-6.4,7.4-9.6,11.1c10.2,12.4,22.3,23.3,33.6,35
			c1.1,1.2,3.1,1.5,3.6,3.4c0,0.1,0.9,0,1.4,0c0,2.7,0,5.3,0,8c-0.2,0-0.4,0.1-0.5,0c-7.4-7.1-14.9-14.1-22.2-21.2
			c-6.6-6.4-13-12.9-19.4-19.4c-0.9-0.9-1.8-1.8-2.7-2.6c-12.3,7.2-25.4,8-38.5,7.1c-0.7,1.2-1.4,1.9-1.6,2.8
			c-1.4,5.5-4.4,10-8.2,14.1c-4.4,4.8-9.8,8.3-15.1,11.9c-6.5,4.3-14.1,8.3-24.6,9.4c-0.4,0-0.8,0.5-1.2,0.6c-1.9,0.1-4,0.6-5.6-0.1
			c-1.3-0.5-2.5-0.4-3.8-0.5c-3.4-0.1-6.5-1.1-9.4-2.6c-2.8-1.4-5.6-2.8-8.1-4.5c-2.8-1.9-5.4-4.1-7.8-6.4c-2.3-2.1-5.3-3.5-6.4-6.5
			c-4.3,0-8.3,0-12.4,0c-0.4,1.3-0.8,2.7-1.2,4c-1.6,4.5-2.9,9.1-5.1,13.4c-2.3,4.4-3.9,9.1-5.8,13.6c-3.4,8.4-6.8,16.9-11.1,24.8
			c-0.6,1.2-1.6,2.1-2.9,3.9c0-2-0.4-3.3,0.1-4.3c1.8-3.9,3.1-8,4.8-12c2.4-5.6,4.2-11.6,7-17.1c0.3-0.6,0-1.5-0.1-2.7
			c-4.4,8.1-8.8,15.8-12.8,23.5c-5.8,10.9-11.4,21.9-17,32.9c-1.8,3.6-3.6,7.2-5.4,10.7c-4.4,8.8-9.4,17.4-14.1,26.1
			c-1.2,2.2-2.2,4.6-4.2,6.3c-0.3,0.2-0.2,0.9-0.3,1.7c5.1-0.1,10.5-0.9,14.5,2.2c3.8,2.9,8.9,4.7,10.9,10.1
			c2.3-0.5,4.5-1.1,6.6-1.2c2.6-0.2,4.9-1.1,7.3-1.8c3-0.8,5.8-2.3,8.7-3.1c2.9-0.7,5.1-2.9,8.2-3.4c3-0.5,5.7-2.3,8.1-4.5
			c1.8-1.6,4.2-1.8,6.4-1.1c1.6,0.5,3.1,1.4,4.5,2.4c3.3,2.7,7.8,3.1,11.1,5.9c0.5,0.4,1.6,0.5,2.3,0.4c2.4-0.4,4.5,0.6,6.4,1.5
			c4.1,1.8,8.4,3,12.7,4.3c2.8,0.8,6.1,2.4,9.3,0.9c0.7-3.5,1.2-4.5,3.9-5.6c2.1-0.9,4.3-1.6,6.6-2.1c3.6-0.8,7.3-1.3,10.8-2.9
			c2-0.9,4.3-1.4,6.4-2.1c0.6,1.4,1,2.6,1.5,3.7c0.5,1,1.5,1.8,1.7,2.8c0.2,1.1-0.3,2.3-0.5,3.7c4.5-1.1,8.8-2.1,13.2-3.1
			c4.2-1,8.4-2.4,12.8-2.9c4.6-0.6,9.1-1.5,13.5-2.6c4.4-1,9-1.6,13.4-2.3c4.5-0.8,9.1-1.5,13.6-2.1c4.5-0.7,9-0.7,13.6-1.1
			c4.7-0.4,9.3-1.3,14.1-1.1c4.8,0.3,9.7,0.1,14.5,0.1c0,1.3,0,2.7,0,4c-3.2,0.1-6.4,0.1-9.6,0.8c-3.7,0.8-7.6,0.5-11.4,0.1
			c-3.8-0.4-7.4,1-11.1,1.1c-4.5,0.1-9,0.6-13.6,1c-0.2,0-0.4-0.1-0.5,0c-1.3,1.4-3,0.8-4.6,1c-1.7,0.2-3.4,0.7-5.1,1
			c-3,0.4-6.2,0.2-9,1.2c-2.3,0.8-4.6,0.2-6.6,1c-4,1.6-8.3,1.7-12.3,2.8c-3.8,1-7.7,1.1-11.4,2.8c-0.4,0.2-0.9,0.3-1.4,0.3
			c-3.9-0.1-7.3,2.1-11.1,2.2c-0.2,0-0.3,0.8-0.4,1.2c2.6-0.2,5-0.4,7.5-0.7c3.6,4,5.7,8.4,5.5,13.8c-0.1,3.1,0.1,5.9,2.5,8.5
			c1.5,1.6,2.7,3.8,3.3,6.1c0.5,2-0.1,3.6-2.3,4.8c-4,2-8,4-12,6c-2.9,1.4-6,2.4-8.9,3.8c-1.9,0.8-4.1,1.7-6.5,1.3
			c-1.3-0.2-2.6-1-4.2-0.2c-1.1,0.5-3-0.4-4.5-0.9c-0.5-0.1-0.9-0.6-1.3-1c-2.4-2.6-2.7-3.2-3.5-6c-1.5,0.5-3,0.8-4.4,1.4
			c-1.3,0.6-2.4,1-3.4-0.2c-0.8-1-1.8-1.3-3-1.2c-3.6,0.3-6.7-1.2-8.8-3.8c-2.7-3.3-6.4-4.1-9.9-5c-5.1-1.4-10.1-2.8-14.9-5.2
			c-1.7-0.8-2.9-1.3-4.8-0.1c-2.5,1.5-5.6,1.1-8.5,1.1c-1.3,0-2.7,0-3.8,0.5c-4.1,1.9-8.3,3.4-12.4,5.1c-2.8,1.2-5.7,2.5-8.7,3.2
			c-5.2,1.2-10.1,3.1-15.3,4.2c-2.1,0.5-4.5,1.3-5.8,2.7c-2.3,2.6-5.3,3.4-8.1,4.8c-2.3,1.1-4.9,1.8-7.5,2.4
			c-1.7,0.4-3.4,0.2-5.1,0.9c-1.5,0.6-3.6-0.5-5.5-0.8c-0.1,0-0.3,0.1-0.3,0.2c-0.4,2.5-1,5-1.3,7.5c-0.4,4-0.3,8.1-1.2,12
			c-0.4,1.9-0.3,3.9-0.9,5.6c-1.8,4.5-2.6,9.3-3.7,13.9c-1.4,5.6-3.4,10.9-5.4,16.3c-1.1,3.1-2.5,6.2-2.7,9.3
			c-0.4,6.9-0.1,13.9-0.1,20.9c2.4,0.8,4.6,1.5,6.8,2.2c4.6,1.4,9.2,2.6,13.8,4c3.1,0.9,6.1,2.3,9.3,2.9c7.4,1.4,14.2,4.4,20.9,7.5
			c2.4,1.1,4.6,2.6,7,3.6c2.7,1.1,5.5,3.2,8.4,0.3c7.5-1.8,14-6.3,21.4-8.6c4.1-1.3,7.7-3.8,11.7-5.5c3.1-1.3,6.2-2.8,9.3-4
			c5.2-2,10.3-4.1,15.4-6.3c5.7-2.5,11.4-4.7,17.2-6.8c11.2-4,22.5-7.7,34-10.8c6.3-1.7,12.8-2.9,19.2-4.2c4.5-0.9,9.1-1.5,13.7-1.9
			c4.7-0.4,9.4-1,14.1-1.2c5.3-0.2,10.7-0.2,16,0c7.9,0.3,15.8-1.1,23.6,1c5.4-0.7,10.7,1.1,16.1,1c0,1.7,0,3.3,0,5
			c-2.7,0-5.5,0.5-8-0.1c-4.4-1.2-8.9-0.1-13.1-1c-7.9-1.6-15.7-0.4-23.6-0.9c-2.2-0.1-4.3,0.1-6.5,0c-7.1-0.6-14,1.4-21.1,1
			c-5.1,1.7-10.6,1.2-15.8,2.8c-3.2,1-6.7,1.4-10.1,2.2c-3.4,0.8-7,0.9-10.1,2.1c-9.2,3.6-19,5.4-28,9.6c-3.7,1.7-7.8,2.8-11.7,4.2
			c-3.1,1.1-5.8,2.8-8.9,3.8c-4.1,1.3-8,3.3-12,4.8c-3.9,1.5-7.6,3.4-11.5,4.7c-4.1,1.4-7.7,3.8-11.7,5.5
			c-5.9,2.5-12.1,4.7-17.9,7.4c-5,2.3-10.2,4.3-15.3,6.6c-4.7,2.1-9.4,4.5-14.4,6.2c-0.4,0.1-0.8,0.3-1.5,0.6
			c2.6,3.9,6.8,5.5,9.9,8.4c3.3,3,7,5.7,10.4,8.5c3.4,2.7,6.8,5.4,10.2,8c3.6,2.7,7.1,5.5,10.4,8.6c3.2,2.9,6.7,5.5,10.3,8.4
			c0,3.6,0.1,7.4,0,11.2c-0.1,4,0.2,7.9,1.8,11.7c0.8,1.8,0.8,4,1,6c1.2,9.7,4.2,18.9,7.4,28c1.8,5.4,5.3,10.2,8.7,14.9
			c4.5,6.2,10.1,11.3,16.4,15.7c5.8,4,12,7.3,17.9,11.1c3.6,2.3,7.8,3.4,10.9,6.4c5.9,1.9,10.8,5.9,16.7,7.9c4,1.4,7.8,3.6,12,4.8
			c2.2,0.6,4.4,1.5,6.8,1.8c3.8,0.5,7.6,0.9,10.3,4.4c-1.5,3.1-5.1,3.4-7.7,4.4c-4.2,1.5-8.7,2.5-13.2,3.3
			c-6.4,1.1-12.8,1.3-19.1,2.2c-6.6,0.9-13.1,0.5-19.6,0.7c-6.7,0.2-13.3,0.3-20-0.1c-2.8-0.2-5.7-1.2-8.6-0.9
			c-2.9,0.3-5.6-1-8.6-1.2c-2.7-0.2-5.5-1.9-8-3.4c-2.7-1.5-3.1-4.7-3.9-7.3c-1.5-5.2-3.2-10.4-4.1-15.8c-0.3-1.9-0.1-4.2-1.1-5.5
			c-1.6-1.9,0-4.2-1.5-6c-1.3-1.5,0.7-4-1.4-5.4c0.3-2.6-0.5-5.1-1-7.6c-1-5.2-1.1-10.5-2.2-15.6c-0.6-2.9-0.5-5.8-0.8-8.6
			c-0.2-1.9-0.6-3.7-1-5.6s0.8-3.9-0.9-5.6c-0.4-0.4,0-1.6-0.1-2.4c-0.4-11.8-0.8-23.7-1.3-35.3c-17.3-15-35.5-28.9-53.2-42.8
			c-3.2,1.4-5.8,2.8-8.6,3.7c-6.6,2.1-12.5,6.2-19.4,7.5c-4.3,2.9-9.3,4.1-14,6c-8.4,3.5-16.8,7-25.3,10c-4.9,1.7-9.7,3.9-14.6,5.9
			c-2.4,1-5.1,1.4-7.2,3.1c-3.4-0.3-3.7,2.4-4.3,4.6c-1.5,5.4-2.9,10.8-4.3,16.2c-1.2,4.3-2.5,8.6-3.7,13
			c-1.6,5.8-3.4,11.6-4.7,17.5c-2.2,9.4-5.5,18.5-7.4,28c-0.6,2.9-1.1,5.8-1.9,8.7c-0.7,2.7-2.2,5.2-2,8.2c0,0.6-0.9,1.3-1.5,2
			c-1.8-2.9-3.9-5.3-4.7-8.7c-0.6-2.6-2.3-5.1-3.8-7.4c-3.4-5.1-5.5-10.7-8.5-16c-2.8-5-5.7-10-8.9-14.8c-3.1-4.8-6.6-9.3-9.8-13.9
			c-2.3-0.3-2.2-2.8-3.8-3.9c-1.5-1-2.6-2.6-4-3.8c-1.5-1.2-3.1-2.2-4.8-3.5c-4.9,1.3-10,3-15.1,4.8c-7.5,2.7-15.2,5.1-22.7,7.9
			c-7.5,2.8-15,5.6-22.4,8.7c-9,3.8-17.7,8-26.4,12.2c-5.7,2.7-11.5,5.2-17.1,8.2c-7.1,3.8-14.5,7-21.4,11.1
			c-8,4.8-16.3,9.1-24.1,14.3c-8.2,5.4-16,11.2-23.9,17.1c-4.5,3.4-9.3,6.4-14,9.6c0-1.7,0-3.3,0-5c0.6-0.1,1.3-0.1,1.8-0.4
			c2.1-1.3,4.3-2.7,6.2-4.2c6.6-5.3,13.4-10.3,20.3-15.1c7.4-5.2,15.3-9.6,23.1-14.2c3.3-2,7.1-3.2,10.2-5.4
			c5.4-3.8,11.6-6,17.1-9.6c4.2-2.8,9.3-4,13.6-6.9c2-1.3,4.5-1.9,6.8-2.9c7.7-3.6,15.2-7.5,23-10.9c5.6-2.5,11.3-4.8,17-7.1
			c3.6-1.4,7.1-3,10.7-4.3c10.6-3.7,21.4-7,32.3-10.6c-3.1-2.6-6.5-3.6-10.3-3.5c-5.6-2.8-11.1-0.1-16.6,0.3
			c-3.7,0.3-6.9,2.8-10.8,2.7c-6.3,3.1-13.2,4.4-19.7,6.6c-2.1,0.7-4.3,2.3-6.9,0.9c0.8-2.6,2.9-4.1,4.8-5.5
			c5-3.9,10.2-7.6,16.3-9.6c-5.5-1.1-10.9-1.9-16.5-1.3c-0.8-1.1-1.9-2-2.4-3.1c-0.6-1.6-1.1-3.4-1-5.1c0.2-5.9,0.3-11.8,1.1-17.5
			c0.4-2.4,0.8-4.7,0.8-7.1c0-0.3,0.1-0.6,0.2-0.9c1.5-4.4,3-8.9,4.4-13.3c-1.9-0.2-3.9,0.3-5.6-1c-2.8-2-5.7-3.9-8.6-5.9
			c-1.2,1.2-2.5,2.5-3.8,3.8c-5.1,0.1-5.1,0.2-8.5-3.4c-2.8-2.9-5.4-6.1-8.1-9.1c-2.7-3-5.6-5.9-8-9.2c-1.5-2-2.6-4.4-1-7.3
			c2.4-4.4,4.8-8.6,8.6-11.9c1.2-1,2.1-2.1,1.3-3.6c-1.9-0.5-3.7-1-5.6-1.3c-2-0.3-4-0.3-6.1-0.9c-3-0.9-6.3-0.3-9.6-1
			c-3.8-0.8-8-0.4-11.9-0.1c-3.9,0.2-7.7-0.8-11.6,0.8c-1.8,0.8-4.6-0.6-6.3,0.3c-1.9,1-4.2,0.3-5.8,1.8c-6.3,0.5-12.1,2.9-18,4.7
			c-5.6,1.7-11.2,3.5-16.8,5.3c0-1.3,0-2.7,0-4c3.4-1.3,6.9-2.6,10.3-4c1.9-0.8,4.3-1.4,5.6-2.9c3.9-4.8,8.5-8.7,13.5-12.2
			c5-3.6,10.5-6.3,15.4-9.9c0.4-0.3,0.9-0.7,1.1-1.2c2-7.1,6-13.5,7.7-20.8c0.7-3.3,2.4-6.4,3.2-9.6c0.8-3.4,2.3-6.5,3.4-9.6
			c2.5-7.3,5.6-14.3,8.1-21.6c1.5-4.2,3.3-8.3,4.9-12.5c1.7-4.6,3.2-9.3,5.4-13.7c1.8-3.7,2.9-7.8,4.4-11.7
			c1.8-4.7,3.8-9.3,5.5-13.7c-1.1-1.9-2.1-3.6-3.1-5.4c-1.1,2.2-2.4,4.5-3.4,6.9c-2.2,5.2-5.9,9.8-7.1,15.6
			c-2.7,2.6-3.5,6.2-5.3,9.3c-2.9,4.8-5.3,9.9-8.4,14.5c-2.5,3.8-3.9,8.4-6.5,12.2c-3.2,4.6-5.8,9.6-8.6,14.5
			c-4,7-8.4,13.8-12.6,20.7c-3.6,5.8-6.6,12-10.3,17.8c-3.1,4.9-5.4,10.4-8.1,15.6c-0.9,1.7-2.3,3.2-3.9,5.5c0-2-0.5-3.4,0.1-4.2
			c1.5-2.1,1.8-4.6,2.9-6.8c2.4-4.8,4.8-9.7,7.3-14.5c0.3-0.6,0.5-1.3,1.1-2.5c-0.9,0.6-1.2,0.7-1.4,0.9c-4.7,6.7-9.2,13.5-14,20.2
			c-1.9,2.7-4.1,5.1-5.4,8.2c-0.2,0.5-1,0.7-1.5,1.1c0-2,0-4,0-6c2-0.3,2-2.3,2.9-3.5c5.5-7.7,10.9-15.4,16.3-23.2c2.1-3,4-6,6-9
			c1-1.4,2-2.9,3.2-4.2c2-2,3.4-4.9,6.5-5.7c0.5-0.1,0.7-1,1.1-1.5c4.4-6.2,7.6-13.2,12-19.5c-1.3-1.3-2.9-2.4-3.8-3.9
			c-3.9-6.5-9.1-11.9-13.9-17.6c-3.7-4.4-6.9-9-9.3-14.1c-0.2-0.4-0.8-0.7-1.3-1c-1.5,1.4,0.2,3.6-1.6,4.6
			c-1.4,5.7-4.1,10.9-5.7,16.6c-1.8,6.4-4.7,12.4-6.3,18.8c-1.7,6.8-4.2,13.3-5.6,20.1c0,0-0.3,0-0.5,0c0-5,0-10,0-15
			c2.1-1.8,2.3-4.7,2.8-7c1.1-5,3-9.8,4.6-14.6c0.7-2,1.3-4.1,2-6.2c0.7-2,1.9-3.9,2.6-5.9c1-3,1.9-5.8,3.6-8.5c1-1.6,1-3.9,2.6-5.4
			c0.6-0.5,1.1-1.1,1.9-1.7c1.1,1.1,2.1,2,3,3c2.4,2.8,4.6,5.7,6.9,8.5c0.5,0.6,0.9,1.3,1.5,1.9c5.6,5,9.7,11.4,14.8,16.9
			c1.6,1.8,2.7,4.1,4,6.2c2.4-4.1,4.7-8,6.9-11.9c2.6-4.6,5.2-9.1,7.7-13.8c5.4-10.3,10.7-20.6,16-30.8c0.8-1.5,1.6-3,2.5-4.5
			c0.9-1.5,3.1-1.5,4.1,0c0.7,1,1.4,2,2.2,2.9c0.1,0.1,0.3,0,0.9,0c1.1-3,2.3-6.1,3.3-9.3c2-6.3,3.9-12.7,6.1-19
			c0.5-1.4,0.9-3.5,3.5-3.8c0.7,4.5,2.8,8.4,3.6,12.9c0.7,3.9,0.8,8.1,2.7,11.8c0.3,0.5,0.1,1.3,0,2c-0.3,2.1,0.5,4.1,1,6.1
			c0.5,2,0.1,4,0.9,6.1c0.9,2.4,0.3,5.3,1.1,8c0.9,2.8,0.7,5.9,2.1,8.6c0.3,0.5,0.2,1.3,0,2c-0.6,2.5,1,4.7,1.1,7.1
			c0.1,2.2,0.7,4.3,1.2,6.9c5.2-10.5,9.9-20.5,15.1-30.3c2.7-5.1,4.7-10.4,7.7-15.3c2.6-4.2,4.4-8.9,7.4-12.9c0.6-0.9,1-1.9,1.5-2.9
			c3.5-6.9,7.4-13.7,11.5-20.2c2.7-4.3,4.9-9,7.5-13.4c1.7-3,3.8-5.8,5.6-8.7c0.2-0.4,0.3-0.9,0.5-1.8c-1.8,0.1-3.7-0.4-4.9,0.4
			c-1.8,1.1-3.8,1-5.2,0.5c-2.3-0.9-4.5-0.5-6.6-0.9c-1.9-0.4-3.7-1.5-5.5-2.3c0-0.8,0-1.5,0-2.1c0.3-0.2,0.5-0.5,0.8-0.5
			c5.8,0,11.7-0.3,17.5,0.1c5.1,0.3,9.8-1.4,14.5-2.5c4.7-1.1,8.7-3.9,12.8-6.5c5.6-3.6,9.3-8.6,12.2-14.4c0.8-1.5,1.2-3.2,1.3-5
			c0.3-3.2,1.2-6.4,1.9-9.5c2.7,0.2,1.2,3.6,3.4,4.4c2.5-7.5,1.9-14.8,1.4-21.8c-0.4-5-3-9.6-5.7-14.1c-4.2-7.1-11.1-10.1-18.3-12.5
			c-4-1.4-8.3-2.3-12.6-2.1c-3.5,0.1-7,0-10.5,0c-4.6,0.1-8.7,1.6-11.9,4.8c-1.2,1.2-2.6,2-3.8,3.3c-4,4.4-6.8,9.6-10,15.7
			c-0.1-7.5,2.9-12.7,7-17.7c-1.7-1-3.5-2-5.3-2.9c-0.4-0.2-1.1,0.1-1.7,0.2c-0.6,0.1-1.2,0.4-1.8,0.5c-8.5,0.7-14.5,4.4-19.2,11.9
			c-3.4,5.5-6.6,11.1-8.2,17.6c-0.7,2.7-1.8,5.3-1.9,8.2c0,1.2-0.7,2.4-0.9,3.6c-0.2,1.1,0,2.3,0,3.1c3.5,0.9,6.6,1.7,9.9,2.5
			c0,1,0,1.8,0,2.7c-0.2,0.1-0.5,0.4-0.8,0.4c-3.5,0-7,0-10.5,0c-4.2,0-7.8,1.4-10.6,4.5c-1.6,1.8-3.9,3.2-4.5,5.6
			c-0.7,2.7-1.3,5.5-1.6,8.4c-0.6,5.7,1,10.9,3.3,15.7c2.8,5.6,7.5,9.8,13.8,11.8c5.2,1.7,10.2,1.2,15.3-1c4.7-2,9.3-4.3,13.6-7
			c0.4-0.2,0.9-0.3,1.2-0.6c2.8-2.4,5.6-4.9,8.4-7.4c1,1.3,0.4,2.2-0.3,3.4c-3.1,5.4-8.3,8.3-13.4,11.1c-4,2.2-8.2,4.2-12.7,5.6
			c-3.6,1.2-7.1,0.7-10.6,0.8c-1.8,0-3.6-0.7-5.4-1.4c-7.8-2.7-12.1-8.7-15.1-16c-2.2-5.5-2.6-11.4-1.8-17.1c0.5-3.7,1-7.9,3.8-10.8
			c2.8-2.9,5.1-6.3,9.3-7.6c1.6-0.5,3-1.6,4.6-2.4c0-0.2,0.2-0.5,0.1-0.8c-0.8-6.4,1-12.4,3.2-18.2c3.3-8.9,7.8-17.1,14.7-23.9
			c4.2-4.1,9.4-6,14.8-7.6c0.9-0.3,1.8-0.6,2.6-0.9c2.7-0.9,5,0.5,7.4,1.2c2.1,0.6,0.9,2.9,1.5,4.6c3.4-2.2,6.3-5.1,10-6.6
			c2.7-1.2,5.5-2.2,8.5-2.4c2.7-0.2,5.3-1,8.1-0.9c2.9,0.1,5.6,1.5,8.6,1.1c3-0.4,5.8,1.2,8.7,1.9c2.7,0.7,5.3,1.7,7.8,3
			c4.8,2.6,9,6,12,10.5c2.8,4.3,3.9,9.3,6,14c0.4,0.8,0,2,0.1,3c0.2,1.7-0.8,3.7,1,5.1c0.2,0.1,0.1,0.7,0,1
			c-1.7,6.5-0.7,13.6-5.2,19.4c2.7,4,5.3,7.9,8.1,12c0.7-1.7,1.4-3.5,2.1-5.4c2.4-7,4.9-13.9,7.6-20.8c2.7-6.9,4.9-13.9,7.4-20.9
			c1.2-3.3,2.4-6.7,3.6-10c2.6-7.4,5.9-14.6,8.4-22c1-2.9,2.7-5.5,3.9-8.4c2.6-5.9,4.4-12.2,7.7-17.8c0.3-0.5-0.2-1.6-0.3-2.4
			c2.9-0.1,4.9,1,6.7,3.2c4.8,6.1,8.7,12.7,13.2,19c2.7,3.7,4.8,7.8,7.7,11.4c2.8,3.6,5.4,7.4,7.6,11.3c2.3,4,4.9,7.7,7.4,11.4
			c2.5,3.8,5.3,7.4,7.4,11.4c4.2,7.7,9.8,14.4,13.6,22.4c3.8,3.9,6,8.9,9.1,13.2c4,5.6,7.7,11.4,10.9,17.4c1.7,3.3,3.7,6.4,5.5,9.6
			c1.3-1.8,2.4-4,4.1-5.8c3.6-3.7,5.9-8.3,9-12.3c6.1-8,11.8-16.4,17.7-24.7c5.2-7.4,11-14.6,15.6-22.5c0.1-0.1,0-0.3,0-0.9
			c-3.1-1.6-6.4-3.1-9.4-5.2c-2.3-1.6-4.4-3.5-6.1-5.5c-4.7-5.7-6.5-11.8-6.5-18.8c0.1-7.1,1.7-13.8,5.1-19.9
			c3.3-5.9,7.4-11.2,13.2-15c5.2-3.4,10.5-6.5,16.5-8.4c1.8-0.6,3.5-1.5,5.3-1.6c4-0.4,8-1.8,12.1-1c2.2,0.4,3.5-0.9,4.5-2.3
			c3.2-4.6,6-9.6,9.4-14.1c2.8-3.8,6-7.3,9.5-10.5c2.5-2.3,3.5-5.3,4.4-8.2c1.3-4.5,2-9.1,3.1-13.7c0.2-0.7,0.9-1.9,1.3-1.9
			c2.5,0,1.1-2.3,2.3-3.4c0.6,0.3,1.3,0.6,1.8,1.1c2.5,2.4,5,4.9,7.4,7.4c1.5,1.7,3,2,5.2,1.2c2.9-1.1,5.8-2,8.8-2.9
			c7.8-2.2,16-2.7,23.6,1.1c5,2.5,8.4,7.7,10.1,11.2c0.4,0.9,0.6,5.5,0.5,6.5C525.6,39.3,525.7,40.1,525.6,41.2
			c-1.1-0.5-2.3-0.9-2.8-1.7c-0.9-1.4-1.5-3-2.1-4.6c-2-5.1-9.3-10.9-16.1-11c-0.6,0-1.2-0.3-1.8-0.4c-1.4-0.2-3.2-1-4.2-0.4
			c-1.9,1.1-3.8,0.6-5.7,0.9c-0.9,0.1-1.7,0.7-2.6,0.9c-6.5,1.3-12.1,4.7-17.6,8.1c-7.8,4.8-14.6,10.9-20.4,18
			c-3.8,4.8-7.1,10-10.8,15.4c1.3,0.5,2.5,1.4,3.8,1.4c3,0,5.5,1.4,8.2,1.9c3.6,0.7,5.7,2.9,7.8,5.3c1,1.2,2.5,2.9,0.8,5
			c-2.2-1.5-4.4-2.8-6.4-4.2c-4.5-3-9.8-3.3-14.8-3.9c-3.9-0.5-8,0-12-0.1c-2.9,0-5.7,0.9-8.5,1.3c-2.3,0.3-4.9,0.8-7.1,1.9
			c-2.2,1.1-4.5,2.2-6.5,3.5c-9.6,6.2-10,5.8-15.8,15.6c-3.3,5.6-4,11.6-4,17.8c0,5,1.5,9.5,4,13.9c3.2,5.7,8.2,9.1,13.8,11.8
			c1.8,0.9,3.8,1.4,5.7,2c1.9,0.6,3.8,1.4,5.8,1.7c4.9,0.7,9.4,3,14.5,2.4c1.8-0.2,3.7-0.2,5.5,0c1.4,0.1,3,0.3,4,1
			c3.7,2.7,7.9,4.7,11.2,7.9c0.4,0.4,1,0.7,1.6,1c3.7,2.3,7.4,4.5,11.5,6c2.9,1.1,5.9,2.1,9.2,2c3.2-0.1,6.3,0,9.5,0
			c1.1,0,2.1-0.5,3.2-0.8c5.7-1.4,10.7-4.1,15.7-6.8c1.9-1.1,4-1.8,5.6-3.5c1.7-1.7,3.5-3.5,5.6-4.6c5.2-2.7,7.5-7.7,10-12.3
			c1.9-3.6,2.8-7.8,4.2-12.1c0.7,1.1,1.3,2,2.1,3.1c3.9-0.4,7.9,0.4,12-0.9c2.7-0.9,5.8,0.6,8.5-1.1c6.1-0.2,11.5-2.7,16.8-5.4
			c5.2-2.7,10.3-6.9,13.5-11.6c2.3-3.3,4.4-6.7,5.6-10.6c1.5-4.8,2-9.6,2.1-14.7c0.1-6.3-1.6-11.9-5.1-16.9
			c-3.5-5.1-7.7-9.7-13.7-12.1c-2-0.8-4-1.7-5.8-2.8c-5.7-3.4-12.1-4.4-18.5-4.8c-5.5-0.3-11,0-16.5-0.1c-1.2,0-2.4-0.6-3.8-1
			C525,42.2,525.3,41.8,525.6,41.2z M310.9,284c5.2,2.9,6.4,4.5,6.9,10.1c0.1,0.6,0.5,1.2,0.5,1.8c0.2,1.8,1,4,0.3,5.2
			c-1.4,2.1-0.1,4.3-0.9,6.2c-0.9,2.2-0.9,4.4-0.9,6.6c0,1.3,0.6,3.1-0.1,3.9c-2.2,2.6,0.8,4.8,0.2,7.3c-0.1,0.4,0.7,1.2,1.2,1.4
			c2.9,1.1,2.9,3.5,2.7,5.8c-0.3,3.6-3.8,5.4-7.1,3.8c-1.1-0.6-2.2-1.2-3.1-2.1c-2-2-4.7-2.3-7.2-3.1c-1.8-0.6-3.2,0.9-4.8,1.7
			c-1.1,0.6-2.4,0.7-3.4,1.3c-2.4,1.6-4.4,1-6-0.5c-1.3-3.4,0.8-5.5,2.4-7.6c1.5-1.9,3-4.4,6.2-4.2c0.1-1.5-0.3-3.3,0.4-4.4
			c1.5-2.5,0.9-4.9-0.4-6.7c-1.5-2-2.2-4.7-4.9-5.7c-1.2-0.4-2.2-1-3.6-1c-2.3-0.1-4.3,1-6.4,1.6c-5.3,1.7-10.5-0.3-12.9-5
			c-0.4-0.8-0.8-1.7-1.3-2.7c-10.8,7.1-20.5,15-29.8,23.5c2.6,3,5.4,5.2,7.2,8.8c2.4,4.8,1.6,9.9,2.8,14.8c0.6,2.4-0.1,5-0.8,7.6
			c-1,4.3-3,8.1-5,11.9c-1,1.9-2.9,2.7-4.2,4.1c-1.5,1.5-3.2,3-4.9,4.5c0.7,1.1,1.5,2.3,2.2,3.5c4,6.2,9.1,11.5,13.4,17.4
			c3.2,4.3,6.2,8.8,9.5,13.1c3.1,4.1,5.1,8.8,7.3,13.5c2.1,4.5,3.3,9.1,3.6,14c0.3,5.6,0.1,11.3,0.1,17c0,1.1,0,2.4-0.4,3.3
			c-0.8,1.5-0.6,2.7-0.2,4.1c1,0,1.9-0.3,2.6,0c4.3,1.9,8.7,0.5,13.1,1c1.5-1.4,3.3-0.8,5.1-1c1.9-0.2,3.7-0.9,5.6-0.9
			c2.9-0.1,5.6-1.8,8.6-1.1c5.7-2.1,11.8-2.5,17.4-5c3.4-1.5,7.1-2.8,9.8-5.2c2.5-2.3,3.9-5.9,5.7-8.8c-1.5-2.8-3.5-5.1-4-7.7
			c-0.5-2.7-1.7-5.1-2.1-7.6c-0.4-2.8-0.3-5.7-0.9-8.6c-0.7-2.8-0.3-6-0.1-9c0.2-3,0.6-6.1,1-9.1c0.1-0.4,0.6-0.8,0.7-1.2
			c1.9-8.3,5.7-16,7.6-24.3c1.6-7,3.6-14,4.4-21c0.6-5.4,1.8-10.9,1.3-16.5c-0.2-2.2-0.8-4.6,0.9-6.6c0.3-0.4,0.2-1.5-0.2-1.8
			c-1.2-0.9-0.7-2.1-0.8-3.2c-0.2-3.2-0.2-6.4-0.8-9.6c-1.1-5.4-2-10.8-3.2-16.2c-0.5-2.4-1.5-4.7-3.9-5.7c-3.3-1.3-6.7-2.4-10-3.6
			c-2.5-0.9-5.3-0.3-7.5-1.2C316.3,283.3,313.7,284.2,310.9,284z M244.8,267.4c0-1.8,0-2.6,0-3.4c0.1-2.1-1.4-3.9-1.1-6.1
			c0.3-2,0.6-4.2-0.9-6.1c0.4-8.2-1-16.5,1.1-24.5c0.6-2.2,1.9-4.3,3.2-6.1c2.2-2.9,5.3-3.7,8.7-2.3c3.3,1.4,6.8,2.7,8,6.7
			c0.2,0.5,0.4,1,0.7,1.7c3-3.8,5.8-7.2,8.8-11.1c-1.7-0.2-2.9-0.3-4.1-0.4c-1.6-1.7-1.8-4.2-0.2-5.3c1.8-1.2,4.4-2.3,6.9,0.1
			c-0.2,1.3-0.5,2.8-0.9,4.7c4.2-2.8,8.2-5.5,13.4-4.1c0.4,0.8,1.1,1.7,1.3,2.8c0.7,3.9-0.4,10.5-2.5,14.9c-0.7,1.4-0.7,2.9-2,4.2
			c-1.1,1.1-1.1,3.1-1.9,4.6c-0.4,0.8-0.6,1.2-0.2,2.1c1.2,2.9,0.9,5.8-0.1,8.9c1.7,1.3,2.8,3.4,5.1,4.4c2.6-2.6,5-5.1,7.4-7.6
			c2.5-2.7,6-3.1,9.1-4.6c0.5-0.2,1.3,0.1,1.8,0.3c2.7,1,4.1,4.3,2.9,7.4c-1,2.7-2,5.5-3.8,7.9c-2.6,3.7-4.8,7.6-7,11.3
			c3,3.8,5.7,7.4,8.6,11.1c0.6-1,0.9-1.8,1.3-2.4c3-4.1,5.5-8.6,9.2-12.2c4.2-8.2,10.4-15,15.7-22.4c4.8-6.9,9.3-14,15-20.4
			c1.9-2.2,3-5.1,4.7-7.5c0.8-1.1,1-2.1,0.2-3.1c-1.9-2.5-3.4-5.2-5-7.9c-2.8-4.7-6.6-8.9-9.3-13.7c-2.7-4.8-6.3-8.9-9-13.7
			c-3.7-6.5-8.1-12.6-12.2-18.9c-2.8-4.3-5.6-8.6-8.3-12.9c-4.9,2.8-5.6,2.8-9.2-0.9c-0.5-0.6-1-1.3-1.5-1.9c-0.8-1-1.7-2.9-2.4-2.8
			c-2,0.2-1.1-2.5-3.1-2.5c-0.9,0-1.9-2.1-2.4-2.8c-2,0-3.2-0.1-4.3,0c-4.9,0.7-8.4-2.1-11.3-5.2c-1.5-1.6-3.2-2.7-5.2-4.5
			c-0.1,1.6,0,2.5-0.3,3.4c-0.6,1.7-0.8,4-3.1,4.3c-2.1,0.3-2.8-1.5-3.9-3c-2.1-2.9-3.6-6.4-6.5-9c-2,5.9-3.9,11.4-5.9,17
			c-2.1,5.9-4.5,11.8-6.5,17.8c-2.3,7-4.8,14-7.4,20.9c-3,7.9-5.4,16.1-8.5,23.9c-2.6,6.3-4.3,12.9-6.1,19.5
			c-0.4,1.3-1.8,2.4-0.6,3.7c5.5-7.7,10.9-15.4,19.6-20.4c0-1-0.2-2.3,0.1-3.6c0.1-0.6,1-1.1,1.5-1.7c1.2,2.1,5-0.6,5.4,2.6
			c-0.9,3.7-2.1,6.7-6.4,5.2c-4.2,4.8-9.3,8.6-12.8,13.9c-3,4.4-4.9,8.9-4.9,14.5c0.1,7.5,3.3,13.3,7.2,19c0.9,1.3,1.4,3.6,3.7,3.9
			c0.4,2.1,2.7,2.9,3.4,4.6c0.8,1.9,2.3,2.8,3.8,3.9C242.9,264.3,243.5,265.7,244.8,267.4z M230,423.6c0.4,2.2,0.7,3.8,0.8,5.3
			c0.1,2.1-0.3,4-0.8,6.1c-1.4,5.1-2.6,9.4-5.2,12.9c-1.7,2.2-3.8,4.2-5.8,6.1c-3.2,2.9-6.7,5.4-11.6,4.7c-1-0.2-2,0-3,0
			c-4.6,0.1-7.9-2.3-10.5-5.7c-1.2-1.6-2-3.5-3.1-5.2c-0.3-0.4-0.7-0.9-1.2-1.1c-1.5-0.4-3.1-0.6-4.6-1.1c-1.9-0.6-4.3-0.8-5.6-2.1
			c-2.3-2.3-5.3-2.6-8.1-4.1c-4.4,7-8.7,14-13.2,21.1c-3.8,1.2-6.1-2.1-9-3.8c-0.4,0.5-0.9,0.9-1.3,1.4c4.8,5.6,6.6,9.2,8,16.3
			c0.1,0.3,0,0.7,0.2,0.9c2.9,3,3.9,7.3,7,10.1c1.5,1.4,2.7,3.1,3.7,4.9c0.7,1.4,2.3,3.1,0.1,4.7c0.5,2.3-1.1,3.9-2,5.7
			c-0.1,0.2,0.2,0.5,0.5,1c2.1-1.2,4.3-2.4,6.4-3.5c1.6-0.8,3.7-1.1,5-2.2c2.7-2.3,6.2-2.9,9.3-4.2c2.8-1.2,5.8-2.5,9.1-2.2
			c1,0.1,2.2-1.1,3.5-1.8c1.5,2.5,3.1,5.2,4.6,7.9c2.6,4.9,5.1,9.8,7.5,14.9c1.4,3,2.1,3.7,4.7,2.9c2.2-0.7,4.3-1.8,6.5-2.4
			c7.1-2,14-4.8,20.9-7.4c2.3-0.8,4.9-1.3,6.9-2.7c1.8-1.2,1.7-3.9,2.2-6c0.4-1.6,1.3-3.1,1.8-4.8c1.4-4.8,2.7-9.6,4-14.3
			c1-3.6,3.1-6.8,3-10.7c1.7-1.4,0.7-4.8,4.1-5.1c-0.1,1.8,0.1,3.7-0.4,5.3c-1.1,3.4-1.7,6.9-2.7,10.4c-1.2,4.3-2.6,8.6-3.6,13
			c-1,4.1-3,7.8-4.1,11.8c-0.5,1.8,0.8,4.1-1.3,5.5c-1.4,5.3-2.7,10.5-4.1,15.8c-1.2,4.3-2.5,8.6-3.7,13c-1.1,4-2.2,8.1-3.3,12.1
			c-1.3,4.6-2.8,9.2-3.7,13.9c-0.8,4.3-2.8,8.5-2.4,13c0.1,0.9-0.8,1.8-1.2,2.9c-4.3-4.1-6.7-8.8-8.7-13.8c-2.1-5.1-3.7-10.5-6-15.5
			c-2.1-4.5-3.5-9.2-5.8-13.6c-1.1-2-1.2-4.5-2.1-6.6c-1-2.2-1.8-4.8-3.1-6.6c-1.5-2.1-1.3-4.5-2.6-6.5c-1.3-1.9-2.4-4-3.1-6.2
			c-1.7-5.6-4.6-10.7-6.3-16.4c-1.2,0.7-2.2,1.8-3.3,2c-4.9,0.7-9,3.2-13.4,5.2c-4.4,1.9-8.8,3.8-12.7,6.8c-2.2,1.7-4.8,2.8-7.3,4
			c-9.7,4.7-19.4,9.3-29.2,14c-0.8,0.4-1.5,0.8-1.8,2.1c2.9-0.9,5.5-1.4,7.8-2.5c2.7-1.3,5.5-2.1,8.2-3.1c2.8-1,5.8-1.4,8.4-2.6
			c2.8-1.3,6.1-0.1,8.7-1.9c5,0.5,10-0.3,15.1,0.8c7,1.6,12.8,5,18.1,9.3c6.8,5.4,12.3,12.2,17.3,19.3c5.4,7.7,10.4,15.8,14.3,24.5
			c0.4,0.8,1,1.7,0.9,2.6c-0.1,2.6,1.4,4.6,2.7,6.4c1.6,2.2,2.7,4.3,2.3,7.1c1,0,1.9,0.3,2.3-0.1c0.7-0.7,1.8-1.8,1.7-2.6
			c-0.6-3.7,1.5-6.8,2.3-10.1c0.8-3.3,1.5-6.6,2.6-9.9c1.7-4.8,2.6-9.9,4.1-14.8c1.4-4.4,2.3-9,3.5-13.5c1.1-4,2.3-8.1,3.3-12.1
			c0.7-2.9,1.9-5.6,2.4-8.6c0.4-2.8,0.9-5.9,2.8-8.3c-0.7-1.6,2.6-3.1,0-4.7c-0.1,0,0.5-1,0.7-1.6c0.4-1.2,0.9-2.3,1.2-3.5
			c1.5-4.9,2.6-10,4.3-14.7c1.7-5,2.6-10.2,4.6-15.1c0.6-1.4,0.4-3.3-1.3-4.4c-1.4-0.9-1.6-2.2-1.6-3.8c-0.3-7.9,0.6-15.7-0.8-23.6
			c-0.8-4.7-2.6-8.9-4.3-13.2c-0.6-1.4-2-1.7-3.4-1.3c-0.6,0.2-1.1,0.9-1.6,0.9c-5,0-9.8,1.7-14.7,1.9
			C237.3,422.6,233.8,424.2,230,423.6z M216.4,177.3c-0.6,1.8-1,2.8-1.3,3.8c-2.2,6.1-6.3,10.7-11,14.9c-5.8,5.2-9,7.7-18.5,10.8
			c-1.9,0.6-3.8,1.3-5.7,2c-2.6,0.9-1.3,4-3,5.4c-0.1,0.1,0,0.3-0.1,0.4c-2.4,4.3-5.1,8.5-7.4,12.9c-2.8,5.4-6.4,10.3-9.4,15.6
			c-1.9,3.3-3.2,7.1-5.4,10.2c-3.9,5.3-5.6,11.8-9.7,17c-0.6,4.4-4.8,7.3-5,11.9c-3.4,3.1-4.2,7.6-6.3,11.4
			c-6.3,11.7-12,23.7-18.4,35.3c-0.9,1.6-1.6,3.3-2.8,4.9c-1.2,1.6-1.8,3.6-2.5,5.4c-0.8,2.1-3.4,3.1-3,5.8c-2.5,4.1-4.4,8.5-6,13
			c-0.4,1.2-1.9,1.6-2.1,3.2c-0.1,1.2-1.1,2.2-1.8,3.6c4.8-1.8,9.3-3.5,13.8-5.1c5.8-2,11.8-3.7,17.8-5.3c5.4-1.4,10.9-2.6,16.4-3.8
			c2.5-0.5,5.6-0.3,7.3-2.9c3.6-5.7,7.4-11.1,10.6-17.1c4.7-8.9,8.8-18,13-27.1c2.1-4.5,5.1-8.5,6.1-13.4
			c3.7-4.5,5.8-10.3,10.2-14.3c0.8-0.7,1.3-1.8,1.8-2.7c2.2-4.1,3.3-8.6,5.1-12.9c2.9-7,5-14.2,7.8-21.3c0.9-2.3,1.5-5.2,3.8-6.3
			c2.9-1.4,3.3-3.8,4.2-6.3c0.5-1.6,0.6-3.6,1.2-5c3.5-8.3,5.2-17.1,8.4-25.5c0.6-1.6,0.5-2.8-0.3-4.5c-1.8-3.8-4.4-7.1-6.1-10.9
			C217.5,179.6,217.1,178.8,216.4,177.3z M22.3,416.8c1.8-0.2,2.7-0.2,3.5-0.4c1.5-0.5,2.9-1.6,4.3-1.6c4.2,0.1,8.1-1.6,12.1-2.3
			c4.7-0.8,9.4-1.9,14.2-1.8c3.5,0.1,7,0,10.5,0c3.2,0,6.3,0.1,9.5,0c3.1-0.1,5.9,1.7,9.1,1c0.3-0.1,0.8-0.2,1,0
			c1.8,2.2,4.3,0.4,6.5,1.3c2,0.8,4.4,0.7,5.9,0.8c3.8-3.2,6.9-6.1,10.3-8.7c1.6-1.2,3.7-1.6,5.2-3.2c2.7-3,6.2-4.2,10.2-4.2
			c3.2,0,6.3,0,9.5,0c1.1,0,2.1,0.1,3.2,0.6c3.5,1.6,7.2,2.6,10.8,4c6.6,2.6,13.4,4.6,20,7.3c5.3,2.2,10.6,4,15.8,6.5
			c3.2,1.5,6.3,3.2,9.5,4.8c1.3-1.4,2.5-2.6,3.4-3.5c1.1-5-0.3-9.8,1.1-14.8c1.3-4.6,0.4-9.8,1.5-14.4c1.1-4.6,1-9.4,2.8-14
			c-2.9-1.8-6.1-3.3-8.6-5.6c-2.6-2.4-4.1-5.8-5.5-9.1c-1.4-3.4-0.6-7-1.1-10.7c-4.1,0.4-8.3,0.1-12.1,1.3c-2.5,0.8-5,0-7.1,0.9
			c-1.4,0.6-2.7,0.7-4.1,0.9c-1.5,0.2-3,0.7-4.6,0.9c-3,0.4-6.2,0.2-9,1.1c-5.7,1.8-11.6,2.2-17.4,3.8c-4.6,1.3-9.3,2.5-13.9,3.9
			c-3.5,1.1-7.1,2.1-10.7,3.2c-3.6,1-6.7,3-10.3,4.2c-4.4,1.4-8.4,3.8-12.5,5.9c-3,1.5-6,3.3-8.9,5c-0.5,0.3-1.1,0.6-1.6,0.9
			c-2.8,2-5.6,4.1-8.5,6.1c-5.6,3.8-11.2,7.5-16.8,11.2c-2.9,1.9-5.6,4.1-8.7,5.6C34,406.8,28.2,411.1,22.3,416.8z M248.8,275
			c-3.3-0.6-6-1.8-8.2-3.9c-6.3-6.1-12.4-12.4-16.9-20c-2.7-4.6-5-9.4-4.9-15c0-2.4,0-4.9,0-7.3c-1.1,3.2-3.3,5.9-3,9.4
			c-2.3,4.1-3,8.7-4.8,13c-1.8,4.2-2.9,8.8-4.4,13.2c-0.2,0.4-0.7,1.5-1.7,1.1c-1-4.8,2.9-8.9,1.4-14.2c-2.3,6.2-4.4,11.9-6.6,17.6
			c-2.1,5.6-4.4,11.1-6.9,16.6c-2.6,5.6-4.4,11.5-7.4,16.9c-2.9,5.3-4.3,11.5-8.7,17c-0.1-3.6,1.4-5.9,2-8.4c0.6-2.4,1.4-4.7,2.3-7
			c0.9-2.4,3.4-4.2,2.3-7.8c-2.7,5.8-5.1,11.1-7.6,16.4c-2.4,5-4.6,10.1-7.3,14.9c-3,5.3-5.3,11-9.5,15.6c-1.3,1.5-2.1,3.5-3.4,5.9
			c1.6-0.6,2.6-1.2,3.6-1.3c2.2-0.3,4.4,0,6.6-0.9c2.1-0.8,4.6-0.4,7.1-1c4.4-1,9-1,13.8-1.4c0.5-1.8,0.8-3.7,1.5-5.6
			c1.5-4.1,3.3-8,6.2-11.5c2-2.4,4-4.1,6.6-5.7c3.9-2.4,8.5-2.9,12.5-4.8c2.1-1,4.7-0.8,7-1.1c4.6-0.6,8.8,1.2,13,2.4
			c1,0.3,1.6,0.8,2.5-0.1c0.4-0.4,1.2-0.4,1.7-0.8c3.7-3.3,7.3-6.6,10.9-9.8c1-0.9,1.7-2.1,1.1-3c-1.4-1.8-0.9-3.8-0.9-5.6
			C248.8,291,248.8,283.2,248.8,275z M519.4,622.5c-1,0-2,0.2-2.9,0c-2.7-0.7-5.3-1.6-7.9-2.6c-2.6-1-5.1-2.2-7.6-3.4
			c-10.9-5.2-21.7-10.4-32-16.9c-6.9-4.3-13.8-8.6-20.4-13.4c-6.2-4.5-9.9-10.9-14.9-16.3c-1.5-4.9-5-8.8-6.2-13.9
			c-0.9-3.7-2.4-7.3-3.8-10.9c-1.5-3.6-1.4-7.6-2.9-11.3c-0.6-1.4,0.4-3.6-0.4-4.8c-1-1.7-0.4-3.2-0.7-4.7c-0.3-1.5-0.9-3-1-4.6
			c-0.2-3.7,0-7.4-0.9-11.1c-0.6-2.3-0.1-5-0.1-7.4c-2.9-3.1-6.3-5.4-9.7-7.9c-4.9-3.5-10.1-6.8-14.4-11.2c-0.5-0.6-1.3-0.9-1.9-1.4
			c-3.8-2.9-7.6-5.9-11.3-8.8c-0.9-0.7-1.7-1.5-2.6-2.2c-3.5-2.7-7.4-5.1-10.6-8.2c-3.7-3.6-8.2-6.3-12.1-9.7
			c-2.3-2.1-5-3.9-7.6-5.6c-2.9-1.8-4.7-4.5-7.4-6.5c-1.1,1.5-2.2,3-3.4,4.8c1.3,0.9,2.8,2,4.2,2.9c2.5,1.6,5,3.1,7.6,4.6
			c2.6,1.5,4.9,3.7,7.4,5.1c2.8,1.5,4.3,3.9,6.5,5.8c0.6,0.5,1.3,0.7,2,1.1c4.9,2.4,8.9,6,13.1,9.2c4.2,3.2,8,7.1,12.3,10.1
			c2.6,1.8,5,3.9,7.5,5.8c2.5,1.8,4.9,3.9,6.8,6.5c0.6,0.9,1.7,1.4,2.6,2c2.4,1.9,4.7,3.7,6.8,5.4c0,5,0.1,9.5,0,13.9
			c-0.2,4.6,1.3,9,1.2,13.6c-0.2,5.8,0.5,11.7,0.9,17.6c0,0.3-0.1,0.8,0,1c1.9,1.8,0.6,4.1,1,6.1c0.4,2,0.7,4,1,6.1
			c0.4,3.2,0.2,6.5,1.2,9.5c0.6,1.8,0.6,3.4,0.8,5.1c0.2,1.7,0.7,3.4,1,5.1c0.4,2.7,0,5.8,1.2,7.9c1,1.8,0.1,3.7,1.6,5.4
			c0.9,1,0,3.3,1,5c0.9,1.5,0.5,3.7,1.2,5.5c1.2,3.4,1.7,6.9,2.7,10.3c1.1,3.7,2.6,7.3,3.6,11.5c8.9-1.3,17.8,1.4,26.9,0.8
			c8.7-0.6,17.4,0.7,26.1-0.9c5.7-1,11.7-0.1,17.6-0.9C508.3,625,513.9,624.1,519.4,622.5z M373.6,233.3c0.1-0.3,0.3-0.9,0.6-1.5
			c7.3-14.3,14.6-28.6,21.9-42.9c1-1.9,1.6-4.1,2.9-5.8c3.6-5.1,5.8-10.9,9.1-16.2c3.6-5.7,5.3-12.7,11.5-16.6c0.2-0.1,0-1,0.1-1.4
			c0.2-0.6,0.6-1.1,1-1.9c-4.1-1-8.3-2.1-12.6-3.2c-2.1,3.1-4.1,6.3-6.4,9.3c-3.4,4.5-6.4,9.4-9.8,13.9c-3.4,4.4-6.8,8.9-9.9,13.4
			c-4.1,6.1-8.6,12-12.7,18.1c-4.3,6.4-9.2,12.4-13.6,18.8c-3,4.4-5.9,9-9.2,13.1c-2.6,3.2-4.5,6.9-7.1,10
			c-5.5,6.6-9.9,14-15.3,20.7c-4.4,5.4-8,11.4-12.2,17.5c6.8-0.3,13.2,0,19,2.1c5.8-4.5,11.7-7.8,18.5-8.4c2.4-2.3,2.9-5.3,4.2-8
			c4.3-8.6,8.3-17.2,13.4-25.4c1.2-2,2.6-4,4.1-5.8C371.2,233,372.4,233.3,373.6,233.3z M50.6,392c1.2-0.4,1.8-0.5,2.3-0.8
			c4-2.8,7.9-5.8,12-8.5c7.6-5.1,15.4-9.9,23.7-14c1.1-0.6,2.4-1.3,3-2.2c1.6-2.5,3-5.1,4.3-7.7c2-4,3.7-8.2,5.7-12.1
			c3.6-7,7.2-14,11-20.9c1.3-2.3,1.5-4.5,1.3-6.9c-0.1-0.7-0.8-1.4-0.9-2.1c-0.5-2.5-0.1-5.4-1.3-7.4c-1.4-2.4,0.5-5.3-1.7-7.3
			c0.6-2.2-1.2-4.1-0.9-6.1c0.3-2.4-1.3-4.3-1.1-6.6c0.2-2.1-0.6-4.1-0.9-6.1c-0.3-2.4-0.6-4.7-1-7.1c-0.5-2.5-0.4-5-0.9-7.6
			c-0.9-4.6-0.8-9.4-1.2-14c-0.1-0.9-0.2-1.7-0.3-3.4c-1,3.2-1.6,5.6-2.4,8c-1.9,6-4,12-6.1,17.9c-2.6,7.2-5.7,14.3-8.4,21.5
			c-1.9,5-3.8,10.1-5.7,15.1c-2.4,6.3-4.8,12.7-7.3,19c-1.5,3.7-3.5,7.3-4.6,11.1c-2.4,8.1-6.1,15.8-8.5,24
			c-1.1,3.8-3.3,7.3-4.5,11.1C54.7,383.1,53.4,387.4,50.6,392z M284.8,286.5c0-2.3-0.5-4.6,1.9-6.2c0.6-0.4,0.8-1.3,1.1-2
			c2.3-6.1,6.9-10.8,10.3-16.2c2.6-4.1,5.1-8.2,7.3-12.5c0.9-1.8,0.9-3.8-1.5-4.8c-8.2,4.2-8.1,4.2-13.4,10.7
			c-2.3,2.9-5.3,5.1-8.7,6.7c-0.9,0.4-2,0.4-3,0.6c0-1.1,0-1.8,0-2.5c1.4-0.7,2.8-1.3,4.1-2.2c1-0.7,1.7-1.5-0.1-2.4
			c-0.8-0.4-1.2-1.7-2-2.3c-0.9-0.8-2.2-1.3-3.1-2.2c-3.3-3.5-7.4-5.8-11.8-7.7c-3-1.3-4.9-0.7-6.5,2.1c-3.5,6.4-5.6,13.2-5.7,20.6
			c0,7.2,0,14.3,0,21.5c0,1,0.3,2.1-0.1,3c-1.9,4.3-0.4,8.6-1.1,13.3c4.7-3.3,8.9-6.3,13.2-9.2c1.7-1.1,2.5-2.4,3.1-4.5
			c1.1-3.5,2.2-7.3,5.4-9.7c0.5-2.5,3.1-3.5,3.8-4.8c-0.1-1.5-0.5-2.4-0.1-2.8c2.1-2.3,4.7-2.8,7.8-1.8c-0.5,1.3-0.8,2.4-1.4,3.2
			c-1.1,1.4-2.5,2.7-3.8,3.9c-3.7,3.4-6.1,7.5-7.5,12.4c-0.8,3,0.3,5.2,1.6,7.5c0.8,1.4,2.3,2.4,3.8,3.9c2.6-0.5,5.4-0.9,8.1-1.7
			c4-1.2,7.6-0.9,10.5,2.4c1.1,1.2,2.1,2.3,2.9,3.8c2.8,4.7,3.1,5.2,1.7,10c-0.6,2.1-1.2,4.1-2,6.1c-0.3,0.8-1,2-1.7,2.1
			c-2.9,0.4-3.4,3.2-5.4,4.6c2.2,1.3,3.6-0.3,5-1c4.5-2.2,8.8-2.4,13.2,0.1c1.4,0.8,2.5,1.9,3.9,2.8c0.5,0.3,1.3,0.3,2.8,0.7
			c-1-1.4-1.3-2.1-1.8-2.7c-2.7-2.7-4.3-6-3.9-9.9c0.2-2-0.6-4,0.8-6.2c1.1-1.6-0.8-4.2,1.1-6c0-4.5,0.1-9-0.1-13.5
			c0-1-0.7-2.1-1.4-2.9c-1.4-1.5-8.2-4.1-10.8-4c-3.5,0.2-7.2-1-10.6,0.9c-0.4,0.2-1.3,0.2-1.4,0
			C288.3,286.1,286.4,287.2,284.8,286.5z M217.3,370.7c2.5,0,4.2-0.2,5.8,0c3.5,0.5,6.1-2.6,9.5-2.4c6.8-4,10-10.3,11.1-17.7
			c0.4-2.7-0.5-5.5,1-8.1c0.4-0.7-0.2-1.8-0.4-2.8c-1.2-4.7-4-8.6-7.1-11.9c-3.6-3.8-8.5-5.8-13.9-6.1c-3-0.1-6-0.1-9,0
			c-0.9,0-1.8,0.5-2.7,0.7c-4.2,0.8-7.7,3.2-11.2,5.4c-2.6,1.7-5.2,4-6.4,6.7c-1.8,3.7-2.6,8-3.1,12.2c-0.2,1.6,0.6,3.4,0.9,5.1
			c1.3,8.3,4.6,13.3,13.7,17C209.7,370.5,213.8,371,217.3,370.7z M334.7,282.1c1,0.6,1.9,1.1,2.9,1.6c3,1.5,5.4,3.9,6.1,7
			c0.5,2.4,1.1,4.5,2,6.7c0.8,1.9,1.7,4.1,1.2,6.5c-0.3,1.4-0.1,3,0.2,4.4c0.4,1.8,1.3,3.5,1.8,5.3c0.5,1.8-0.4,3.7,0.8,5.7
			c0.9,1.4,0.2,3.9,0.2,5.9c0,1.1,0,2.2,0,3.4c5.7,0.5,10.9-0.6,15.9-1.9c7.3-1.9,13.5-9.3,15.2-15.1c0.9-2.8,0.7-5.4,0.8-8.1
			c0.1-7.7,0.2-7.8-3.1-14.2c-0.8-1.5-0.8-3.2-2.3-4.6c-5.1-4.9-11.6-7.9-18.7-7.9c-4,0-8.1,0-12.1,0.9
			C341.6,278.6,338,279.8,334.7,282.1z M334.7,447.3c-4.1,4.1-8.5,7-13.3,9c-6.8,2.8-14,4.3-21.3,5.3c-2.5,0.4-5.1,0.8-7.5,1.3
			c-2.4,0.5-5.1-0.1-7.1,0.9c-2.6,1.4-5.1,0.7-7.7,0.8c-2,0-3.9-0.6-5.6-0.9c-0.6,2.4-1.1,4.3-1.5,6.3c-1.4,6.1-2.8,12.1-4.7,18
			c-0.7,2.2-2.2,4.9-1.1,7.4c1.7-0.6,3.1-1.2,4.6-1.7c4-1.5,8.1-2.9,12.1-4.5c6.7-2.6,13.4-5.4,20.1-8.1c3.5-1.4,3.5-1.3,4.5-4.4
			c0.3,0.3,0.7,0.6,1.2,1c0.2-1.8,0.3-3.4,0.5-5.4c0.9,2.1,1.5,3.8,2.2,5.5c13.8-5.7,27.2-11.3,40.9-17
			C346.6,454.9,339.9,452.3,334.7,447.3z M136.6,455.7c-0.6,1.7-1,3.2-2.4,4.2c-0.5,0.4-1.2,0.9-1.2,1.5c-0.6,4-3,7.4-4.1,11.3
			c-0.9,3-1.8,5.9-2.1,9.2c-0.1,1.6-0.6,3.4-0.8,5.1c-0.2,1.7-0.9,3.4-0.9,5.1c-0.1,4.5-0.1,9,0,13.5c0,2.3,1.4,3.8,3.7,4.2
			c0.9,0.2,1.8,0.8,2.6,0.8c3.8,0.1,7.7,0.5,11.3-0.2c4-0.8,7.9-2.3,11.6-4.5c3.2-2,5.9-4.6,8.4-7.3c2.2-2.4,2-3.8-0.5-6.1
			c-4.6-4.3-7.5-9.8-11.1-14.9c-1.5-2.2-2.9-4.4-4.4-6.7c-1.5-2.4-3.8-4.5-4.4-7.1c-0.8-3.1-3.6-4.1-5.1-6.4
			C136.8,456.8,136.7,456.2,136.6,455.7z M199.7,415.3c1.7-0.2,3.2-0.9,3.6-0.4c1.3,1.3,3,1.1,4.2,0.7c2.7-1,5.1-0.4,7.7-0.1
			c3.8,0.4,7.1,1.7,10.2,2.9c-0.2-2.2-0.2-4.4-0.6-6.6c-0.5-2.2,1.2-4,1-6.1c-0.4-6.2,1.8-12.3,1-18.5c-0.1-0.6-0.2-1.5,0.1-2
			c2-3.4,0.4-6.9,0.9-10.2c-2.7,0.6-5.1,1.5-7.5,1.7c-5.4,0.4-10.8-0.1-16.2-2.1c-0.6,3.7,0.2,7.3-1.1,10.8c-0.7,1.7,0,4-0.2,5.9
			c-0.2,2-1,4.1-0.9,6.1c0.1,4.4-1.8,8.6-1.1,13.1c0.1,0.4-0.3,0.9-0.4,1.3C200.1,412.9,199.9,414.1,199.7,415.3z M233,564.3
			c5.4-20,10.6-39.1,15.8-58.4c-11.8,4-23.4,8-35.4,12.1c3.8,5.8,4.8,12.5,8.4,18c2.3,8.7,6.8,16.5,9.2,25.2
			C231.3,562.1,232.1,562.9,233,564.3z M194.9,435.2c0,1,0,2,0,3c-0.2,4.2,0.7,7.7,3.8,11c3.7,3.8,9.3,6.1,14,4.2
			c5.6-2.2,9.2-6.6,11.2-12.1c0.9-2.6,1.6-5.4,2-8.2c0.4-3.1-1.2-5.7-2.5-8.4c-3.9-1.4-7.6-3.6-11.8-3.9c-3.1-0.3-6.3-0.1-9.5-0.1
			c-2,0-3.1,1.1-4.4,2.6c-2,2.4-3,4.9-2.7,7.9C195,432.5,194.9,433.8,194.9,435.2z M304.3,138.9c0.2-0.1,0.4-0.3,0.6-0.4
			c-0.2-0.9-0.3-1.8-0.7-2.6c-1-1.8-2-3.5-3.2-5.2c-2-3-4.3-5.9-6.2-8.9c-3.7-5.7-7.4-11.5-11-17.4c-3.3-5.3-7.4-10.1-10.1-15.8
			c-0.7-1.5-1.9-2.6-3.2-4.2c-4.1,10-8,19.4-11.9,28.7c2.6,3.1,5.1,6,7.8,9.2c0.2-1,0.1-1.8,0.4-1.9c1.4-0.7,2.6-1.7,4.4-1.5
			c1.6,0.2,3,0,4.5,1.3c1.6,1.3,3.4,2.4,4.8,4c2.4,2.7,5.2,4.4,8.9,3.7c1.9-0.3,3.6,0.3,4.9,1.3c3,2.2,5.7,4.8,8.4,7.4
			C303.5,137.1,303.8,138.1,304.3,138.9z M144.7,446.7c4.3,3.2,8.4,6.1,12.5,9.1c5.5-10,12.2-19.2,16.6-29.6c-1.9-3.2-6-3-8.7-5.4
			c-2.5-2.1-6-3-9-4.5c-3-1.5-5.8-3.1-8.8-4.7c-0.9,2.8,0.5,5.5-1.3,7.9c-1.4,2-2.3,4.3-3.5,6.6c4.6,2,9.2,3,12.7,6.3
			C151.6,437.3,148.2,441.9,144.7,446.7z M141.9,413c-1.7-1.5-3.1-3.2-4.9-4.3c-2.5-1.6-5.1-3-7.8-4c-2.3-0.9-4.8-1.1-7.2-2
			c-0.9-0.3-2.3,0.1-3.2,0.5c-3.2,1.6-6.4,3.3-7.3,7.2c-0.6,2.4-1.2,4.9-1.6,7.3c-0.3,1.8-0.1,3.7,1,5c2,2.4,3,5.5,6.3,6.9
			c2.2,1,4.3,2.5,6.7,1.8c2.4-0.8,4.8-1.1,7.2-1.9c1-0.3,1.9-1,2.8-1.6c1.1-0.7,1-2.4,2.7-2.9c1.3-0.4,2.1-2,3.2-3
			c1.5-1.4,2.1-3.2,2-5.2C141.9,415.8,141.9,414.6,141.9,413z M425.9,304.8c4,0,4,0,8.7-3c2.9-1.8,5.6-3.9,6.8-7.2
			c1.2-3.1,2.5-6.5,0.1-9.4c-1.9-2.4-4-4.8-6.9-6.1c-3.4-1.5-6.8-3-10.2-4.2c-1.8-0.6-3.8-0.3-4.7,1.6c-0.9,2-2.6,3.4-3.1,5.7
			c-0.5,2.1-1.5,4.4-2.2,6.5c-1.1,3.9-1.7,8.2,1.5,11.4C418.6,302.9,421.8,305.5,425.9,304.8z M107.6,459.8c2.2-3,4.3-6.1,6.5-9.1
			c-2.6-3.7-6.9-5.8-8.2-9.9c1.6-2.5,3.1-4.7,4.4-7c0.4-0.7,0.7-2.3,0.3-2.6c-2.3-2-2.4-5.1-3.8-7.5c-1.5-2.6-1.3-5.3-0.4-7.9
			c0.5-1.4,0.6-2.7,0-4.3c-1.6,1.9-2.9,3.7-4.5,5.3c-1.6,1.6-3.5,2.9-5.1,4.6c-1.7,1.7-3.1,3.7-4.6,5.6c-1.4,1.7-2.8,3.5-4.2,5.2
			c-1.4,1.7-2.7,3.5-4.2,5.4C92.6,443.8,99.5,452.1,107.6,459.8z M391.5,443.2c-5-2.1-9.2-4-13.5-5.8c-3.3-1.3-6.6-2.6-9.9-3.8
			c-3.1-1-6.3-1.8-9.4-2.6c-4.2-1.1-8.3-2.5-12.6-3.5c-3.1-0.7-6.1-1.8-9.3-2.8c-0.2,2.5,0.7,4.4,1.9,6.3c0.5,0.8,0.8,2.2,1.4,2.3
			c2.6,0.6,3.6,3.2,5.7,4.4c2.4,1.4,5,2.8,7,4.7c4.7,4.1,10,7.4,14.7,11.3C375.4,450.3,383.1,446.9,391.5,443.2z M385.7,288.1
			c0,0.7-0.1,1.3,0,1.9c0.9,3,0.6,6.2,1.8,9.2c0.4,1-0.2,2.4-0.4,3.7c-0.5,2.9-0.9,5.8-1.5,9.1c3.8-0.8,7.1-1.3,10.4-2.2
			c4.5-1.2,9.1-2.2,13.7-3c0.8-0.1,1.4-1,2.4-1.8c-4.1-4.1-4.1-9.1-3.2-13.7c0.8-4.2,2.9-8.2,4.7-12.8
			C404.5,282.9,395.7,287,385.7,288.1z M257.2,415.2c-7.7-11.8-16.5-22.5-25-33.6c-0.4,6.3-0.8,12.3-1.3,18.2c-0.2,2-0.8,4-0.9,6.1
			c-0.2,2.1,0,4.3,0,6.5c0,0.3,0,0.8-0.2,0.9c-1.7,1.5-0.4,3.4-1.1,5.6c5.1-0.4,9.8-0.5,14.4-1.3
			C247.6,416.7,252.3,416.4,257.2,415.2z M467.9,290.3c-4.6-0.8-16.6-4.6-19.9-6.3c-0.8,8.3-2.8,16.2-10.3,21.4
			c5.7,1.6,11.1,3.1,16.8,4.6C456.3,301.4,460.4,294.7,467.9,290.3z M276.5,243.5c2.1-5.2,4.7-9.5,6.7-14.2
			c2.1-4.8,2.8-9.3,2.5-14.2c-1.8-0.4-3.3-0.3-4.7,0.7c-1.7,1.3-3.7,2.4-5.4,3.8c-4,3.1-6.6,7.4-9.4,11.5c-1.5,2.2-2.3,4.8-4,8.4
			c3.2-2.6,5.3-0.8,7.3-0.3C271.7,239.7,273.7,241.7,276.5,243.5z M490.5,309.6c8.1,0.2,14.6-2.9,21.1-6.3c0.5-0.3,1-1,1-1.5
			c0.3-4.2-0.6-8-3.5-11.1c-1.9,0.8-3.4,1.7-5,2c-5.2,1.1-10.4,2.1-15.6,3c-1.5,0.2-2.4,0.7-2.7,1.9
			C487.4,301.8,489,305.8,490.5,309.6z M173.7,435.4c5.2,2.5,10.5,4.6,15.9,6.3c0.5-4.1,0.9-7.7,1.3-11.4c2.1-1.2,0.1-2.4,0.1-3.7
			c-0.1-1.7-1-2.2-2.4-3c-1.5-0.9-2.7-2-4.7-2c-1.4,0-2.8-1.1-4.2-1.7c-5.7-2.8-11.9-4-17.5-7.1c-0.5-0.3-1.4,0.1-2.5,0.2
			c3.6,1.9,6.3,4.5,10,4.9c2.5,3,7.2,2.3,9.4,5.5C177.3,427.2,175.7,430.9,173.7,435.4z M114.4,455.8c1.9,1.4,3.2,2.8,4.8,3.4
			c2,0.8,3.7,2.9,6,2.3c2-0.5,2.6-2.6,3.6-4.2c0.2-0.3,0.5-0.4,0.7-0.7c1.4-2.2,1.2-4.6-0.5-6.5c-1.1-1.2-2.4-2.3-3.5-3.5
			c-1.3-1.6-2.7-3.2-3.4-5.1c-0.6-1.7,1.1-3.1,1.9-4.6c0.1-0.2-0.1-0.6-0.2-1.4c-3,0.7-5.7-0.5-8.4-1.8c-1.1,1.1-2.2,2-3.1,3.2
			c-0.8,1-1.4,2.3-1.9,3.1c2.4,2.1,4.8,4.1,7.6,6.5C118.2,449.6,117.5,452.9,114.4,455.8z M251.2,222.8c-0.8,1-1.8,1.9-2.3,3.1
			c-0.6,1.6-1,3.3-1,5c-0.1,4.3,0,8.6-0.1,13c-0.1,4.2,1.7,8.3,1.1,12.6c-0.1,0.7,0.9,1.5,1.3,2.3c0-5.4,2.6-9.8,4.8-13.9
			c2.3-4.4,4.5-8.8,6.9-13.1C259.3,227.2,258.2,226.3,251.2,222.8z M496.3,326.1c1.5-0.4,3-0.8,4.4-1.4c2.5-1.1,4.9-2.4,7.6-3.3
			c3.3-1.1,6.3-3.2,9.4-4.9c-2.1-3.1-3.5-6.2-3.1-10.4c-2.1,1.4-3.6,2.8-5.3,3.2c-4.5,1.2-8.3,4-12.6,5.7c-1.8,0.7-3.4,1.7-4.2,3.5
			C493.8,321,494.9,323.2,496.3,326.1z M148.9,434.2c-2.6-1.2-5.1-2.7-7.7-3.4c-1.6-0.5-3.6-1.3-5.4,0.4c-1.3,1.2-3.1,2-4.8,2.8
			c-2,1.1-3.2,2.2-4.1,4.1c-0.3,0.7-0.6,1.4-1,2.5c1.6,1.1,3.3,2.3,5,3.4c4.3-4.1,4.2-5.2,11-1.7c0.2,0.1,0.5,0.1,1,0.3
			C145,439.8,147,437,148.9,434.2z M477.1,319.7c1.8-1.1,3.4-2,5-2.9c4-2.2,4-2.2,2.6-6.5c-0.5-1.6-0.9-3.3-1-5
			c-0.4-3.7-1.3-4.2-4.9-2.5c-3.3,1.6-6.6,3.1-9.5,4.5C471.8,311.2,474.4,315.4,477.1,319.7z M460.9,310.5c2.5,2,4.2,5.1,8.1,6.2
			c-0.7-1.6-1.3-2.6-1.6-3.8c-0.3-1.2-2.2-1.7-1.1-3.5c0.3-0.5-1.1-1.9-1.7-2.7c2.2-4.3,7.1-4.3,10-7.4c-0.3-0.3-0.8-0.6-0.8-1
			c-0.2-1.1-0.2-2.2-0.2-3.3c-4.9-0.3-6.5,0.2-9.3,2.7C460.5,301.1,460.2,305.5,460.9,310.5z M477.8,286.6c4.7,0.8,8.5-1.2,12.5-1.9
			c4-0.7,8.1-1.7,11.4-4.3c-1-1.4-1.9-2.7-2.6-3.6c-7.3,2.6-14,4.9-21.4,5.1C477.8,283.5,477.8,285,477.8,286.6z M467.9,17.1
			c-0.1,0.4-0.2,1-0.2,1.6c-0.1,2.5-0.3,5-0.8,7.6c-0.4,2-2.6,4.2-0.7,6.6c2.5-2.8,6.3-4,8.5-6.8C472.3,22.9,470.1,20.1,467.9,17.1z
			 M289.3,282.9c4.5-1.1,8.9-2.3,13.4-3.4c-2.3-2.3-4.6-4.5-7.1-7C292.5,275.3,291.7,279.5,289.3,282.9z M478.8,292.9
			c0,1.8,0,3.2,0,5.1c1.4-0.6,3.2-0.8,3.4-1.5c1-3.2,4-3.8,6.9-5.6C485,290.2,482.2,292.7,478.8,292.9z"/>
		<path class="st2" d="M612.6,391.7c-5.4,0.1-10.6-1.7-16.1-1c-7.8-2-15.7-0.7-23.6-1c-5.3-0.2-10.7-0.2-16,0
			c-4.7,0.1-9.4,0.8-14.1,1.2c-4.5,0.4-9.2,1-13.7,1.9c-6.4,1.3-12.9,2.4-19.2,4.2c-11.5,3.1-22.8,6.8-34,10.8
			c-5.8,2.1-11.5,4.3-17.2,6.8c-5.1,2.2-10.2,4.3-15.4,6.3c-3.1,1.2-6.2,2.6-9.3,4c-4,1.7-7.6,4.2-11.7,5.5
			c-7.4,2.3-13.9,6.7-21.4,8.6c-2.9,3-5.7,0.8-8.4-0.3c-2.4-1-4.6-2.5-7-3.6c-6.7-3.1-13.5-6-20.9-7.5c-3.2-0.6-6.2-2-9.3-2.9
			c-4.6-1.4-9.2-2.7-13.8-4c-2.2-0.7-4.4-1.4-6.8-2.2c0-7-0.3-13.9,0.1-20.9c0.2-3.1,1.5-6.3,2.7-9.3c1.9-5.4,4-10.7,5.4-16.3
			c1.1-4.6,2-9.4,3.7-13.9c0.7-1.7,0.5-3.7,0.9-5.6c0.8-3.9,0.7-8,1.2-12c0.3-2.5,0.8-5,1.3-7.5c0.1,0,0.2-0.2,0.3-0.2
			c1.9,0.3,4,1.4,5.5,0.8c1.8-0.7,3.5-0.5,5.1-0.9c2.6-0.6,5.2-1.2,7.5-2.4c2.8-1.3,5.8-2.2,8.1-4.8c1.3-1.5,3.7-2.3,5.8-2.7
			c5.2-1.2,10.1-3.1,15.3-4.2c2.9-0.7,5.9-2,8.7-3.2c4.1-1.8,8.3-3.2,12.4-5.1c1.1-0.5,2.5-0.5,3.8-0.5c2.9,0,6,0.4,8.5-1.1
			c1.9-1.2,3.1-0.7,4.8,0.1c4.7,2.3,9.7,3.8,14.9,5.2c3.5,0.9,7.3,1.8,9.9,5c2.1,2.6,5.2,4.1,8.8,3.8c1.2-0.1,2.2,0.2,3,1.2
			c1,1.3,2.1,0.9,3.4,0.2c1.4-0.7,2.9-1,4.4-1.4c0.8,2.8,1.1,3.4,3.5,6c0.4,0.4,0.8,0.8,1.3,1c1.5,0.4,3.4,1.4,4.5,0.9
			c1.7-0.8,2.9,0.1,4.2,0.2c2.4,0.3,4.6-0.5,6.5-1.3c3-1.3,6-2.3,8.9-3.8c4-2,8-3.9,12-6c2.2-1.1,2.8-2.7,2.3-4.8
			c-0.6-2.3-1.8-4.5-3.3-6.1c-2.3-2.6-2.6-5.4-2.5-8.5c0.2-5.4-1.9-9.8-5.5-13.8c-2.5,0.2-5,0.4-7.5,0.7c0.1-0.4,0.3-1.2,0.4-1.2
			c3.8-0.2,7.2-2.3,11.1-2.2c0.5,0,1-0.1,1.4-0.3c3.6-1.7,7.6-1.8,11.4-2.8c4.1-1.1,8.3-1.2,12.3-2.8c2-0.8,4.3-0.2,6.6-1
			c2.8-1,6-0.8,9-1.2c1.7-0.2,3.4-0.7,5.1-1c1.6-0.2,3.3,0.4,4.6-1c0.1-0.1,0.3,0,0.5,0c4.5-0.3,9-0.8,13.6-1
			c3.7-0.1,7.3-1.5,11.1-1.1c3.8,0.4,7.8,0.7,11.4-0.1c3.2-0.7,6.4-0.7,9.6-0.8C612.6,311.1,612.6,351.4,612.6,391.7z"/>
		<path class="st2" d="M612.6,266.8c-4.8,0-9.7,0.2-14.5-0.1c-4.8-0.3-9.4,0.7-14.1,1.1c-4.5,0.3-9.1,0.4-13.6,1.1
			c-4.6,0.7-9.1,1.4-13.6,2.1c-4.5,0.8-9,1.3-13.4,2.3c-4.4,1-8.9,2-13.5,2.6c-4.3,0.5-8.5,1.9-12.8,2.9c-4.4,1-8.7,2.1-13.2,3.1
			c0.2-1.4,0.7-2.6,0.5-3.7c-0.2-1-1.2-1.8-1.7-2.8c-0.6-1.1-1-2.3-1.5-3.7c-2.1,0.7-4.4,1.1-6.4,2.1c-3.4,1.6-7.2,2-10.8,2.9
			c-2.3,0.5-4.5,1.2-6.6,2.1c-2.7,1.1-3.2,2.1-3.9,5.6c-3.3,1.5-6.5-0.1-9.3-0.9c-4.2-1.3-8.6-2.5-12.7-4.3c-1.9-0.9-4-1.9-6.4-1.5
			c-0.7,0.1-1.8,0-2.3-0.4c-3.3-2.8-7.7-3.3-11.1-5.9c-1.3-1-2.9-2-4.5-2.4c-2.2-0.6-4.6-0.5-6.4,1.1c-2.4,2.2-5.1,4-8.1,4.5
			c-3.1,0.5-5.2,2.6-8.2,3.4c-2.9,0.7-5.7,2.2-8.7,3.1c-2.4,0.7-4.7,1.6-7.3,1.8c-2.2,0.2-4.3,0.8-6.6,1.2c-1.9-5.4-7-7.1-10.9-10.1
			c-4.1-3.1-9.5-2.3-14.5-2.2c0.1-0.8,0-1.5,0.3-1.7c2.1-1.7,3-4,4.2-6.3c4.7-8.7,9.7-17.3,14.1-26.1c1.8-3.6,3.6-7.2,5.4-10.7
			c5.6-11,11.3-22,17-32.9c4.1-7.8,8.4-15.4,12.8-23.5c0.1,1.2,0.4,2.1,0.1,2.7c-2.8,5.5-4.6,11.4-7,17.1c-1.7,4-3,8.1-4.8,12
			c-0.4,0.9-0.1,2.2-0.1,4.3c1.3-1.7,2.3-2.7,2.9-3.9c4.4-8,7.7-16.4,11.1-24.8c1.8-4.5,3.5-9.2,5.8-13.6c2.2-4.2,3.5-8.9,5.1-13.4
			c0.5-1.3,0.8-2.6,1.2-4c4.2,0,8.1,0,12.4,0c1.1,3,4.2,4.3,6.4,6.5c2.5,2.3,5.1,4.5,7.8,6.4c2.5,1.8,5.3,3.2,8.1,4.5
			c3,1.5,6.1,2.4,9.4,2.6c1.2,0,2.4,0,3.8,0.5c1.6,0.6,3.7,0.1,5.6,0.1c0.4,0,0.8-0.5,1.2-0.6c10.5-1,18.1-5.1,24.6-9.4
			c5.3-3.5,10.7-7.1,15.1-11.9c3.8-4.1,6.9-8.6,8.2-14.1c0.2-0.9,0.9-1.6,1.6-2.8c13.1,0.9,26.2,0.1,38.5-7.1
			c0.9,0.8,1.8,1.7,2.7,2.6c6.5,6.5,12.9,13,19.4,19.4c7.3,7.1,14.8,14.1,22.2,21.2c0.1,0.1,0.3,0,0.5,0
			C612.6,198.8,612.6,232.8,612.6,266.8z"/>
		<path class="st2" d="M1,428.7c5.6-1.8,11.2-3.5,16.8-5.3c5.9-1.8,11.7-4.2,18-4.7c1.6-1.6,3.9-0.9,5.8-1.8
			c1.7-0.9,4.5,0.5,6.3-0.3c3.9-1.6,7.8-0.6,11.6-0.8c4-0.2,8.1-0.7,11.9,0.1c3.3,0.7,6.6,0.1,9.6,1c2.1,0.6,4.1,0.6,6.1,0.9
			c1.8,0.3,3.6,0.9,5.6,1.3c0.8,1.6-0.1,2.6-1.3,3.6c-3.8,3.3-6.2,7.6-8.6,11.9c-1.6,2.9-0.5,5.3,1,7.3c2.4,3.3,5.3,6.1,8,9.2
			c2.7,3,5.3,6.2,8.1,9.1c3.4,3.5,3.5,3.5,8.5,3.4c1.3-1.3,2.6-2.6,3.8-3.8c2.9,2,5.8,3.8,8.6,5.9c1.8,1.3,3.7,0.8,5.6,1
			c-1.5,4.5-3,8.9-4.4,13.3c-0.1,0.3-0.1,0.6-0.2,0.9c-0.1,2.4-0.5,4.7-0.8,7.1c-0.9,5.8-0.9,11.7-1.1,17.5c-0.1,1.7,0.4,3.5,1,5.1
			c0.4,1.1,1.5,2.1,2.4,3.1c5.6-0.6,11,0.3,16.5,1.3c-6.2,2-11.3,5.7-16.3,9.6c-1.8,1.4-4,2.9-4.8,5.5c2.7,1.3,4.9-0.2,6.9-0.9
			c6.6-2.2,13.5-3.5,19.7-6.6c3.9,0.1,7.2-2.5,10.8-2.7c5.5-0.4,11-3,16.6-0.3c3.8-0.1,7.2,1,10.3,3.5c-10.9,3.5-21.7,6.8-32.3,10.6
			c-3.6,1.3-7.1,2.8-10.7,4.3c-5.7,2.3-11.4,4.6-17,7.1c-7.8,3.4-15.3,7.3-23,10.9c-2.2,1-4.8,1.6-6.8,2.9
			c-4.3,2.8-9.4,4.1-13.6,6.9c-5.5,3.6-11.7,5.8-17.1,9.6c-3.1,2.2-6.9,3.4-10.2,5.4c-7.8,4.6-15.7,9-23.1,14.2
			c-6.9,4.8-13.7,9.8-20.3,15.1c-2,1.6-4.1,2.9-6.2,4.2c-0.5,0.3-1.2,0.3-1.8,0.4C1,552.6,1,490.6,1,428.7z"/>
		<path d="M612.6,711.5c-0.7-0.3-1.4-0.9-2.1-1c-2.9-0.1-5.7-0.3-8.6-0.9c-4.2-0.9-8.7-0.8-13-1.2c-2-0.2-4-0.7-6.1-1
			c-2-0.2-4.2,0.5-6.1-1c-0.1-0.1-0.3,0-0.5,0c-5.3,0.8-10.3-1.3-15.6-1.1c-2.3,0.1-4.7-0.7-7.1-0.9c-2.3-0.2-4.9,0.6-6.9-0.2
			c-2.6-1.1-5.1-0.7-7.6-0.8c-6.5-0.2-13-1.7-19.6-1c-5.8-2-11.8-0.2-17.6-1.1c-10.8-1.7-21.7-0.7-32.6-0.9c-11.1-0.2-22.3,0-33.5,0
			c-11,0-22-0.1-33,0c-4.7,0.1-9.4,0.7-14.1,0.9c-4.7,0.2-9.5-0.7-13.9,0.2c-6.1,1.2-12.2-0.1-18.1,1c-5.4,1-10.8,0-16.1,1
			c-4.4,0.8-8.8,0.2-13.1,1c-3.7,0.7-7.5,0.2-11.1,1c-3.7,0.8-7.5,0.3-11.1,1c-3.2,0.7-6.6,0.1-9.5,1c-3.3,1-6.5,0.3-9.6,0.9
			c-1.9,0.4-3.7,0.9-5.6,1c-1.9,0.1-3.7-0.4-5.7,0.8c-1.5,0.9-4.1-0.3-5.8,0.3c-2.7,0.9-5.5,0.3-8.1,1c-2.6,0.7-5.1,0.5-7.6,0.9
			c-4.9,0.8-9.7,1.8-14.7,2.1c-1.5,0.1-2.9,0.9-4.6,0.9c-1.6,0-3.1-0.4-4.8,0.5c-1.3,0.7-3.3,0-4.8,0.5c-5.2,1.5-10.6,1.2-15.8,2.8
			c-3,1-6.4,0.7-9.5,1.1c-1.5,0.2-3,0.7-4.6,1c-1.5,0.3-3,0-4.7,0.8c-1.8,0.9-4.3,0.3-6.5,1.1c-2.8,0.9-6.1,0.4-9,1.2
			c-4.1,1.1-8.3,1.2-12.3,2.8c-1.8,0.7-4,0.8-6,1c-5.3,0.6-10.5,2.1-15.7,3.3c-3.7,0.9-7.6,1.5-11.3,2.7c-5.2,1.7-10.6,2.5-15.8,4.2
			c-4,1.2-7.9,2.6-11.9,3.9c-3.9,1.3-7.9,2.8-11.8,4c-4.1,1.2-7.9,3.4-12.1,4.6c-4.4,1.2-8,3.9-12.3,5.3c-6,2-11.5,5.2-17.3,7.6
			c-4.7,1.9-9.1,4.5-13.7,6.6c-4.6,2.1-9.3,4.2-13.5,7c-2.9,1.9-6.3,2.6-9.2,4.5c-2.8,1.9-5.9,3.4-8.9,5c-0.5,0.3-1.2,0.3-1.8,0.4
			c0-1.3,0-2.7,0-4c0.3,0,0.8,0.1,1,0c4-3.4,9.5-4.1,13.3-7.7c4.3-1.1,7.6-4,11.6-5.7c3.8-1.6,7.4-3.7,11.2-5.5
			c5.1-2.4,10.3-4.8,15.5-7.1c6.2-2.8,12.2-5.9,18.5-8.4c10.3-4.1,20.6-8.2,31.2-11.4c8-2.4,16.1-4.6,24.1-7c4.2-1.3,8.5-1.9,12.8-3
			c3.2-0.8,6.4-1.5,9.5-2.3c0.4-0.1,0.9-0.8,1.2-0.7c2.2,0.6,4-1.1,6.1-1c2.9,0.1,5.5-0.9,8.3-1.7c2.3-0.7,4.6-0.9,7-1.3
			c2.7-0.4,5.9,0.1,7.9-1.2c2.4-1.6,5.4,0.6,7.3-1.8c2.4,0.1,4.7-0.3,7.1-0.9c3.1-0.8,6.4-0.7,9.5-1.1c1.5-0.2,3.1-0.7,4.6-1
			c1.7-0.3,3.4-0.7,5.1-1c1.5-0.3,3.3,0.7,4.6-0.9c0.1-0.2,0.6,0,1-0.1c3.9-0.3,7.7-0.6,11.6-1c1.5-0.2,3-0.7,4.6-0.9
			c1.4-0.2,2.8-0.5,4.1-0.9c2.6-0.7,5.3-0.4,8.1-1c3.7-0.9,7.9-0.1,11.5-1.3c3.9-1.4,8.1,0.5,11.7-1.8c0.1-0.1,0.3,0,0.5,0
			c4.4-0.3,8.7-0.6,13.1-1c2-0.2,4.1-0.7,6.1-1c2-0.3,4.3,0.7,6.1-1c0.2-0.2,0.6,0,1,0c5.4-0.3,10.7-0.5,16.1-1.1
			c2.4-0.2,4.6-1,7.1-1c2.4,0,4.9,0.7,7.1-0.9c0.1-0.1,0.3,0,0.5,0c2,0,4,0.1,6,0c1.9-0.1,3.8,0.3,5.8-0.5c1.7-0.7,3.9-0.6,5.8-0.4
			c4.1,0.5,8-1.1,12.1-1.1c4,0,8.1,0.7,12-0.1c7.9-1.7,15.8,0.1,23.6-1c11.7-1.6,23.4-0.6,35.1-0.8c11.8-0.2,23.6,0,35.5,0
			s23.6-0.1,35.5,0c3.5,0,7,0.8,10.6,0.9c3.7,0.2,7.5-0.6,10.9,0.2c4.4,1.1,8.8,0.1,13.1,0.9c5.4,1,10.8,0.2,16.1,1.1
			c3.6,0.6,7.1,0.5,10.6,0.8c2.2,0.2,4.3,1.2,6.6,1c2.2-0.2,4.5-0.5,6.6,0.9c0.1,0.1,0.3,0,0.5,0c5,0.3,10.1,0.4,15,1.1
			c3,0.5,6.1,0.6,9.1,1c3,0.4,6.1,0.7,9.1,1c1.6,0.2,3.3,0.9,5.1,0.8C612.6,707.5,612.6,709.5,612.6,711.5z"/>
		<path class="st2" d="M1,410.7c0.5-0.4,1.3-0.6,1.5-1.1c1.3-3.1,3.5-5.5,5.4-8.2c4.8-6.6,9.3-13.4,14-20.2c0.1-0.2,0.5-0.3,1.4-0.9
			c-0.5,1.3-0.8,1.9-1.1,2.5c-2.4,4.8-4.9,9.6-7.3,14.5c-1.1,2.2-1.4,4.7-2.9,6.8c-0.5,0.7-0.1,2.2-0.1,4.2c1.7-2.3,3-3.8,3.9-5.5
			c2.8-5.2,5-10.7,8.1-15.6c3.7-5.8,6.8-11.9,10.3-17.8c4.2-6.9,8.6-13.7,12.6-20.7c2.8-4.8,5.4-9.8,8.6-14.5
			c2.6-3.8,4-8.4,6.5-12.2c3.1-4.7,5.4-9.8,8.4-14.5c1.9-3,2.6-6.7,5.3-9.3c1.2-5.7,4.8-10.3,7.1-15.6c1-2.4,2.3-4.6,3.4-6.9
			c1,1.8,2,3.5,3.1,5.4c-1.8,4.4-3.7,9-5.5,13.7c-1.5,3.9-2.6,7.9-4.4,11.7c-2.2,4.5-3.7,9.2-5.4,13.7c-1.6,4.2-3.4,8.3-4.9,12.5
			c-2.5,7.3-5.7,14.3-8.1,21.6c-1.1,3.2-2.6,6.3-3.4,9.6c-0.7,3.2-2.4,6.4-3.2,9.6c-1.6,7.3-5.6,13.7-7.7,20.8
			c-0.1,0.5-0.6,0.9-1.1,1.2c-4.9,3.6-10.4,6.3-15.4,9.9c-5,3.6-9.6,7.4-13.5,12.2c-1.2,1.5-3.6,2.1-5.6,2.9
			c-3.4,1.4-6.9,2.7-10.3,4C1,420,1,415.3,1,410.7z"/>
		<path class="st2" d="M1,361.7c0.2,0,0.5,0,0.5,0c1.4-6.8,4-13.4,5.6-20.1c1.6-6.4,4.4-12.5,6.3-18.8c1.6-5.7,4.3-10.9,5.7-16.6
			c1.8-1,0.1-3.2,1.6-4.6c0.4,0.3,1.1,0.6,1.3,1c2.4,5.2,5.6,9.7,9.3,14.1c4.8,5.7,10,11.2,13.9,17.6c0.9,1.5,2.5,2.6,3.8,3.9
			c-4.4,6.3-7.6,13.3-12,19.5c-0.4,0.5-0.6,1.4-1.1,1.5c-3.2,0.8-4.5,3.6-6.5,5.7c-1.2,1.2-2.2,2.7-3.2,4.2c-2,3-4,6-6,9
			c-5.4,7.8-10.7,15.5-16.3,23.2C3,402.4,3,404.4,1,404.7C1,390.4,1,376,1,361.7z"/>
		<path d="M80.5,678.7c-1-2.2-1.9,0.2-2.9-0.3c-2.4-4.1-5.8-7-10.8-8.1c-0.8-0.2-3.2-0.4-2.6-1.9c0.7-1.9,2.1-0.4,3.4-0.1
			c3.5,0.7,6.1,2.3,8.5,4.7c0.4,0.4,1,0.4,2.6,0.9c-3-3.2-4.4-5.8-3.3-9.9c0.7,1.3,1.2,2.1,1.6,3c1,1.9,2,3.8,2.8,5.8
			C80.4,674.5,81.7,676.1,80.5,678.7z"/>
		<path d="M527.5,556.7c0.1,0.5,0.3,1,0.2,1.1c-2.7,2.6-2.4,5.7-1.4,8.9c0.4,1.1,0.3,2.4,0.5,3.8c-3.6-0.9-0.6-5-3.9-5.8
			c0,1.1-0.5,2.8,0.1,3.5c1.4,1.7-0.8,1.5-1.3,2.3c0-2.8-0.1-5.6,0-8.3c0.1-2.2,1.7-3.9,3.9-4.5C526.2,557.4,526.8,557,527.5,556.7z
			"/>
		<path d="M313.3,555.2c4,1.3,6.3,3.7,9.2,6.3c0.2-2.3,0.4-3.6,0.6-5.4c1.4,2.9,2.7,5.4,3.7,7.9c0.5,1.3,0.1,2.6-1.2,3.3
			C321.7,563.5,317.8,559.7,313.3,555.2z"/>
		<path d="M240.2,682.5c2.1,4.4,2.9,8,3.9,11.9c-1.5-0.2-2.8,1.1-3.3-1.2c-0.3-1.1-2.1-1.7-3.2-2.7c-1.1-1-2.7-1.7-2.7-3.7
			c2.1,0.3,2.1,0.3,4.7,2C239.7,686.9,239.9,685.3,240.2,682.5z"/>
		<path d="M549,682.7c-1.7-6.4,3.8-9.2,5.6-13.7c2.7-0.2,3.4-4.5,7.2-3.2c-1.9,1.7-4,2.9-5.1,4.7c-1.3,2.1-3.2,3.4-4.5,5.5
			C551,678.1,550.7,680.4,549,682.7z"/>
		<path d="M531.7,671.9c3.9,0.9,5.3,4.1,7.5,6.5c2.2,2.5,3.6,5.4,4.8,9.1c-1.1-0.3-2.2-0.4-2.3-0.7c-1.2-4.6-5-7.5-7.5-11.3
			C533.4,674.3,532.5,673.1,531.7,671.9z"/>
		<path d="M542.5,666.4c0.4,1,1.1,2,1,3c-0.4,4.7,1,9,2.7,13.3c0.1,0.3,0.3,0.6,0.3,0.9c-0.1,0.7,0.5,1.8-0.8,1.9
			c-0.4,0-1-0.6-1.1-1c-0.7-2-1.2-4.1-2.1-6.1c-1.5-3.7-0.8-7.6-1-11.4C541.9,666.7,542.2,666.5,542.5,666.4z"/>
		<path d="M534.9,483.3c0.8,0.9,1.4,1.4,1.7,2c1.4,3.2,2.7,6.4,3.9,9.7c0.3,0.9,0.2,2,0,2.9c-0.1,0.3-0.9,0.5-1.2,0.7
			c-1.3-3.7-2.2-7.3-3.8-10.5C534.7,486.5,534.7,485.3,534.9,483.3z"/>
		<path d="M536.3,549.7c-4.3,5.6-6.1,11.4-6,17.8c-1-5-0.9-9.9,1.5-14.6C532.2,552.1,534.2,550.5,536.3,549.7z"/>
		<path d="M171.7,51.1c0.5-3.3,2.7-5.2,4.8-7.2c0.5-0.5,1.4-0.7,2.1-1c6.6-2.3,12.5-1.3,17.6,3.8c0.2,0.2,0.5,0.5,0.7,0.7
			c-1.1,1.5-2.2,3.1-3.2,4.4c-2.7-1.5-5.1-2.8-7.6-4.1c-2.8-1.5-5.5-0.9-8.3,0.2c-1.4,0.6-2.2,1.4-2,2.9c0.3,1.9-0.6,3.4-1.4,4.9
			c-0.5,0.9-1.6,1.7-2.6,2.1c-0.9,0.4-1.9-0.7-2.6-0.8c-3.2-0.3-5.7-2.8-9.2-2.2c-3.3,0.5-6.1,2.1-6.2,5.4c-0.1,2.6-0.8,5-1.3,7.5
			c-3.2,0-3.7-0.4-3.8-2.7c-0.1-2.9,1-5.6,2.1-8.1c1.2-2.7,3.2-5.5,6-6.2c2.5-0.7,5-2.7,8.1-1C167,50.5,169.3,50.6,171.7,51.1z"/>
		<path d="M60,72.8c0-0.8,0.1-1.3,0-1.8c-1.1-8,4.1-11.6,10.3-14c4.4-1.7,9-0.8,13.6-0.9c1.6,0,2.4,1.7,2.1,3.7
			c-0.2,1.7-1.2,2.4-3.1,2.2c-1.2-0.1-2.4-0.8-3.6-0.9c-1.1-0.2-2.4-0.2-3.5,0c-3.6,0.7-7.6,0.5-10.8,3.3c0,2.6-0.2,5.2,0,7.8
			c0.3,4-1,5.7-4.8,5.8c-1.6,0.1-3.3-0.7-4.6,0.9c-3.9-0.3-5.6,2.8-6.3,5.6c-0.6,2.4-2.4,4-2.4,6.4c-1.1,0-1.9,0-3,0
			c0.4-4.6,1.5-8.7,4.1-12.3C50.8,74.7,54.9,73,60,72.8z"/>
		<path d="M33.5,176.9c-0.8,0.8-1.5,1.5-2.5,2.5c-0.3,2.3,0.7,5.2-1.8,7.5c-0.3,0-1,0-1.8,0c-0.4-1-1.5-2.2-1.3-3.2
			c0.4-2.2,0.9-4.8,2.3-6.4c1.7-2.1,3.2-4.6,6.2-5.3c1.8-0.4,3.6-1,5.4-1.5c-0.2-0.2-0.7-0.5-0.6-0.7c0.9-4.1,1.6-8.1,6.2-10.1
			c2.2-1,4.2-0.9,6.2-0.6c1.7,0.3,3.3,1.7,4.7,2.9c0.5,0.4,0.6,1.9,0.3,2.6c-1.3,2.5-2.9,2.7-5.5,1.1c-1.2-0.7-2.5-1.3-3.8-1.8
			c-0.8-0.3-2.5,0.9-2.5,1.8c0.1,2.4,0.5,4.7,0.8,7.8c-0.6,0.6-1.5,1.7-2.6,2.6c-0.6,0.5-1.9,0.9-2.1,0.7c-1.4-1.5-2.5,0.2-3.7,0.1
			C36.1,176.8,34.7,176.9,33.5,176.9z"/>
		<path d="M319.8,770.9c-3.5-2.9-5.9-6.7-7.7-10.7c-0.5-1.1-0.2-2.5-0.3-4.3c1,0.6,2,1,1.9,1.2c-0.6,3.2,1.7,5.4,3.2,7.7
			c2.3,3.6,5.2,6.8,7.7,9.9c-0.5,1.4-0.9,2.6-1.5,4.1c-3-4-13.2-11.9-17.3-14.4c-2.8-1.8-5.3-4.1-7.8-6.2c-0.3-0.3-0.1-1.1-0.2-2.2
			c3,1.7,5.2,3.4,7.4,5.3c2.2,2,4.9,3.4,7.3,5.2c2.3,1.7,4.4,3.5,6.6,5.2C319.4,771.4,319.6,771.1,319.8,770.9z"/>
		<path d="M187.3,732.5c-0.9,0.9-1.4,1.8-1.8,1.7c-3.4-0.1-4.6,2.9-6.5,4.7c-0.8,0.8-1,2.6-1.1,4c-0.2,2.3,0,4.6,0,6.5
			c2.1,2.1,3.9,3.9,5.8,5.8c1-4.1-1.1-8.7,1.9-13.1c0.6,2.7,0.2,5.1,0.3,7.4c0.1,2.5,0,5,0,7.9c-0.7-0.4-1.3-1-1.9-0.9
			c-4.5,0.2-5.8-3.4-7.8-6.2c-0.1-0.1-0.3-0.3-0.3-0.4c0.5-3.3-1.1-6.9,1-10c-0.6-2.3,1.2-3.4,2.5-4.4
			C181.5,734,183.6,732.2,187.3,732.5z"/>
		<path d="M328.7,774.6c0.3-5,2.9-8.2,6.2-10.7c3.7-2.8,7.2-6.3,13.3-5.2c-3,1.3-5.5,2.2-7.6,3.5c-2.3,1.5-4.4,3.3-6.3,5.3
			C332.4,769.5,330.8,771.9,328.7,774.6z"/>
		<path d="M196.2,742.8c-4.1,1.8-5.6,4.7-5.3,8.7c0.1,1.3,0,2.6,0,3.9c-0.8,0-1.2,0-2,0c0.3-3.5-0.4-6.8,1.6-10.2
			C191.9,742.5,193.3,742.1,196.2,742.8z"/>
		<path class="st2" d="M525.6,41.5c-0.3,0.3-0.6,0.7-1.3,1.4c1.5,0.4,2.6,1,3.8,1c5.5,0.1,11-0.2,16.5,0.1
			c6.4,0.4,12.8,1.4,18.5,4.8c1.8,1.1,3.8,2,5.8,2.8c6,2.4,10.2,7,13.7,12.1c3.5,5,5.2,10.6,5.1,16.9c-0.1,5-0.6,9.9-2.1,14.7
			c-1.2,3.9-3.4,7.3-5.6,10.6c-3.2,4.7-8.3,8.9-13.5,11.6c-5.3,2.7-10.7,5.2-16.8,5.4c-2.7,1.7-5.9,0.2-8.5,1.1
			c-4.1,1.3-8.1,0.5-12,0.9c-0.7-1.1-1.4-2.1-2.1-3.1c-1.4,4.2-2.3,8.4-4.2,12.1c-2.5,4.7-4.8,9.6-10,12.3c-2.1,1.1-3.9,2.8-5.6,4.6
			c-1.6,1.7-3.6,2.5-5.6,3.5c-5,2.8-10,5.4-15.7,6.8c-1,0.2-2,0.7-3.2,0.8c-3.2,0-6.3,0-9.5,0c-3.2,0.1-6.2-1-9.2-2
			c-4.1-1.5-7.9-3.6-11.5-6c-0.5-0.3-1.1-0.6-1.6-1c-3.3-3.3-7.6-5.2-11.2-7.9c-1-0.8-2.7-0.9-4-1c-1.8-0.2-3.7-0.2-5.5,0
			c-5.1,0.6-9.7-1.7-14.5-2.4c-2-0.3-3.9-1-5.8-1.7c-1.9-0.6-3.9-1.2-5.7-2c-5.6-2.7-10.6-6.2-13.8-11.8c-2.5-4.4-4-8.8-4-13.9
			c0-6.3,0.7-12.3,4-17.8c5.8-9.9,6.2-9.4,15.8-15.6c2.1-1.3,4.3-2.5,6.5-3.5c2.2-1.1,4.8-1.6,7.1-1.9c2.8-0.4,5.6-1.3,8.5-1.3
			c4,0.1,8-0.4,12,0.1c5.1,0.6,10.3,0.9,14.8,3.9c2.1,1.4,4.2,2.7,6.4,4.2c1.7-2.1,0.2-3.9-0.8-5c-2-2.4-4.2-4.6-7.8-5.3
			c-2.7-0.5-5.2-1.9-8.2-1.9c-1.2,0-2.5-0.9-3.8-1.4c3.7-5.4,6.9-10.6,10.8-15.4c5.7-7.1,12.5-13.2,20.4-18
			c5.5-3.4,11.1-6.8,17.6-8.1c0.9-0.2,1.7-0.7,2.6-0.9c1.9-0.3,3.8,0.2,5.7-0.9c1-0.6,2.8,0.2,4.2,0.4c0.6,0.1,1.2,0.4,1.8,0.4
			c6.8,0,14.1,5.9,16.1,11c0.6,1.6,1.2,3.2,2.1,4.6C523.3,40.3,524.5,40.8,525.6,41.5z"/>
		<path class="st2" d="M310.9,284c2.8,0.2,5.5-0.7,8.5,0.6c2.1,0.9,5,0.3,7.5,1.2c3.3,1.2,6.7,2.3,10,3.6c2.5,1,3.4,3.3,3.9,5.7
			c1.1,5.4,2.1,10.8,3.2,16.2c0.7,3.3,0.6,6.4,0.8,9.6c0.1,1.1-0.4,2.3,0.8,3.2c0.3,0.3,0.5,1.5,0.2,1.8c-1.7,2.1-1.1,4.5-0.9,6.6
			c0.5,5.6-0.6,11.1-1.3,16.5c-0.8,7.1-2.8,14-4.4,21c-2,8.3-5.7,16-7.6,24.3c-0.1,0.4-0.6,0.8-0.7,1.2c-0.4,3-0.8,6-1,9.1
			c-0.2,3-0.6,6.1,0.1,9c0.7,2.9,0.5,5.8,0.9,8.6c0.4,2.6,1.6,5,2.1,7.6c0.5,2.6,2.5,4.9,4,7.7c-1.8,2.9-3.1,6.5-5.7,8.8
			c-2.7,2.4-6.4,3.7-9.8,5.2c-5.5,2.5-11.7,2.9-17.4,5c-3-0.7-5.7,1-8.6,1.1c-1.9,0-3.7,0.7-5.6,0.9c-1.7,0.2-3.6-0.3-5.1,1
			c-4.3-0.4-8.8,1-13.1-1c-0.7-0.3-1.6,0-2.6,0c-0.4-1.4-0.6-2.7,0.2-4.1c0.5-0.9,0.4-2.2,0.4-3.3c0-5.7,0.3-11.3-0.1-17
			c-0.3-4.8-1.5-9.4-3.6-14c-2.1-4.7-4.1-9.3-7.3-13.5c-3.3-4.3-6.3-8.7-9.5-13.1c-4.3-5.9-9.4-11.2-13.4-17.4
			c-0.8-1.2-1.5-2.4-2.2-3.5c1.7-1.6,3.4-3,4.9-4.5c1.4-1.4,3.2-2.3,4.2-4.1c2.1-3.8,4-7.6,5-11.9c0.6-2.6,1.3-5.2,0.8-7.6
			c-1.1-4.9-0.4-10-2.8-14.8c-1.7-3.5-4.6-5.8-7.2-8.8c9.3-8.5,19-16.4,29.8-23.5c0.5,1,0.8,1.9,1.3,2.7c2.4,4.7,7.7,6.7,12.9,5
			c2.1-0.7,4-1.7,6.4-1.6c1.4,0,2.4,0.6,3.6,1c2.7,1,3.5,3.7,4.9,5.7c1.3,1.8,2,4.2,0.4,6.7c-0.7,1.1-0.3,2.8-0.4,4.4
			c-3.1-0.2-4.6,2.3-6.2,4.2c-1.6,2-3.8,4.2-2.4,7.6c1.7,1.5,3.7,2.1,6,0.5c1-0.7,2.3-0.8,3.4-1.3c1.5-0.8,2.9-2.3,4.8-1.7
			c2.5,0.8,5.2,1.1,7.2,3.1c0.9,0.9,2,1.6,3.1,2.1c3.3,1.7,6.9-0.2,7.1-3.8c0.2-2.3,0.1-4.7-2.7-5.8c-0.5-0.2-1.3-1.1-1.2-1.4
			c0.6-2.4-2.4-4.7-0.2-7.3c0.7-0.8,0.1-2.6,0.1-3.9c0-2.2,0-4.4,0.9-6.6c0.8-1.9-0.4-4,0.9-6.2c0.8-1.2-0.1-3.4-0.3-5.2
			c-0.1-0.6-0.5-1.2-0.5-1.8C317.3,288.5,316.1,286.9,310.9,284z"/>
		<path class="st2" d="M244.8,267.4c-1.3-1.7-2-3-3-3.8c-1.5-1.1-2.9-2-3.8-3.9c-0.7-1.7-3.1-2.4-3.4-4.6c-2.3-0.3-2.8-2.6-3.7-3.9
			c-3.9-5.7-7.2-11.6-7.2-19c0-5.7,1.9-10.1,4.9-14.5c3.5-5.3,8.6-9.1,12.8-13.9c4.4,1.5,5.6-1.5,6.4-5.2c-0.3-3.1-4.2-0.5-5.4-2.6
			c-0.5,0.6-1.4,1.1-1.5,1.7c-0.2,1.3-0.1,2.6-0.1,3.6c-8.7,5.1-14.2,12.8-19.6,20.4c-1.2-1.3,0.3-2.4,0.6-3.7
			c1.8-6.6,3.5-13.2,6.1-19.5c3.2-7.9,5.5-16,8.5-23.9c2.6-6.9,5.1-13.9,7.4-20.9c2-6,4.4-11.8,6.5-17.8c2-5.5,3.9-11.1,5.9-17
			c2.9,2.5,4.4,6,6.5,9c1.1,1.5,1.8,3.3,3.9,3c2.3-0.3,2.5-2.6,3.1-4.3c0.3-0.8,0.2-1.8,0.3-3.4c2.1,1.8,3.7,2.9,5.2,4.5
			c2.9,3.1,6.4,5.9,11.3,5.2c1.1-0.2,2.3,0,4.3,0c0.6,0.7,1.5,2.8,2.4,2.8c2,0,1.1,2.6,3.1,2.5c0.7-0.1,1.6,1.8,2.4,2.8
			c0.5,0.6,0.9,1.3,1.5,1.9c3.5,3.7,4.3,3.8,9.2,0.9c2.8,4.3,5.5,8.6,8.3,12.9c4.1,6.3,8.5,12.4,12.2,18.9c2.7,4.8,6.3,8.9,9,13.7
			c2.7,4.8,6.5,8.9,9.3,13.7c1.6,2.7,3.2,5.4,5,7.9c0.7,1,0.5,2-0.2,3.1c-1.7,2.4-2.8,5.3-4.7,7.5c-5.6,6.3-10.1,13.5-15,20.4
			c-5.3,7.4-11.5,14.2-15.7,22.4c-3.7,3.6-6.2,8.1-9.2,12.2c-0.4,0.6-0.7,1.3-1.3,2.4c-2.8-3.7-5.6-7.3-8.6-11.1
			c2.3-3.7,4.4-7.7,7-11.3c1.7-2.5,2.7-5.2,3.8-7.9c1.2-3.2-0.2-6.4-2.9-7.4c-0.6-0.2-1.4-0.5-1.8-0.3c-3.1,1.5-6.6,1.9-9.1,4.6
			c-2.4,2.5-4.9,5-7.4,7.6c-2.3-1-3.5-3.1-5.1-4.4c1-3,1.3-6,0.1-8.9c-0.4-0.9-0.2-1.3,0.2-2.1c0.8-1.5,0.8-3.5,1.9-4.6
			c1.3-1.3,1.3-2.8,2-4.2c2.1-4.4,3.2-11,2.5-14.9c-0.2-1-0.9-2-1.3-2.8c-5.2-1.4-9.2,1.4-13.4,4.1c0.4-2,0.6-3.4,0.9-4.7
			c-2.5-2.4-5.1-1.3-6.9-0.1c-1.6,1.1-1.4,3.6,0.2,5.3c1.2,0.1,2.4,0.2,4.1,0.4c-3.1,3.9-5.8,7.3-8.8,11.1c-0.3-0.7-0.5-1.2-0.7-1.7
			c-1.3-3.9-4.7-5.2-8-6.7c-3.4-1.5-6.5-0.7-8.7,2.3c-1.4,1.8-2.7,3.9-3.2,6.1c-2.1,8.1-0.7,16.4-1.1,24.5c1.5,1.8,1.2,4,0.9,6.1
			c-0.3,2.2,1.2,4,1.1,6.1C244.8,264.8,244.8,265.6,244.8,267.4z"/>
		<path class="st2" d="M230,423.6c3.8,0.6,7.2-1,11-1.2c4.9-0.2,9.7-1.8,14.7-1.9c0.5,0,1-0.7,1.6-0.9c1.4-0.4,2.8-0.1,3.4,1.3
			c1.7,4.3,3.5,8.5,4.3,13.2c1.4,7.9,0.5,15.7,0.8,23.6c0.1,1.6,0.2,3,1.6,3.8c1.7,1.1,1.9,3,1.3,4.4c-2,4.9-2.9,10.1-4.6,15.1
			c-1.7,4.8-2.7,9.8-4.3,14.7c-0.4,1.2-0.8,2.3-1.2,3.5c-0.2,0.6-0.8,1.6-0.7,1.6c2.5,1.6-0.7,3.2,0,4.7c-1.9,2.4-2.4,5.5-2.8,8.3
			c-0.5,3-1.7,5.7-2.4,8.6c-1,4-2.2,8.1-3.3,12.1c-1.3,4.5-2.1,9.1-3.5,13.5c-1.6,4.9-2.4,10-4.1,14.8c-1.1,3.2-1.9,6.6-2.6,9.9
			c-0.8,3.3-2.9,6.4-2.3,10.1c0.1,0.8-0.9,1.9-1.7,2.6c-0.3,0.3-1.2,0.1-2.3,0.1c0.3-2.8-0.8-4.9-2.3-7.1c-1.3-1.8-2.8-3.8-2.7-6.4
			c0-0.8-0.6-1.7-0.9-2.6c-3.9-8.7-8.8-16.8-14.3-24.5c-5-7.1-10.5-13.9-17.3-19.3c-5.3-4.2-11.1-7.7-18.1-9.3
			c-5.1-1.1-10.1-0.4-15.1-0.8c-2.6,1.8-5.9,0.6-8.7,1.9c-2.6,1.2-5.7,1.6-8.4,2.6c-2.7,1-5.6,1.7-8.2,3.1c-2.3,1.2-4.9,1.6-7.8,2.5
			c0.3-1.2,1-1.7,1.8-2.1c9.7-4.7,19.5-9.3,29.2-14c2.5-1.2,5.1-2.3,7.3-4c3.9-3.1,8.3-4.9,12.7-6.8c4.3-1.9,8.5-4.5,13.4-5.2
			c1.1-0.2,2.1-1.2,3.3-2c1.7,5.6,4.6,10.8,6.3,16.4c0.7,2.2,1.8,4.3,3.1,6.2c1.3,2,1.1,4.4,2.6,6.5c1.3,1.8,2.1,4.4,3.1,6.6
			c1,2.1,1,4.6,2.1,6.6c2.4,4.4,3.7,9.1,5.8,13.6c2.4,5,3.9,10.3,6,15.5c2.1,5,4.4,9.7,8.7,13.8c0.5-1.1,1.3-2,1.2-2.9
			c-0.4-4.6,1.6-8.7,2.4-13c0.9-4.7,2.4-9.3,3.7-13.9c1.1-4,2.2-8.1,3.3-12.1c1.2-4.3,2.5-8.6,3.7-13c1.4-5.2,2.7-10.5,4.1-15.8
			c2-1.4,0.8-3.6,1.3-5.5c1.1-4.1,3.1-7.7,4.1-11.8c1-4.4,2.3-8.7,3.6-13c1-3.4,1.6-7,2.7-10.4c0.5-1.6,0.3-3.5,0.4-5.3
			c-3.4,0.3-2.4,3.7-4.1,5.1c0.1,3.9-2,7.2-3,10.7c-1.4,4.8-2.6,9.6-4,14.3c-0.5,1.6-1.3,3.1-1.8,4.8c-0.6,2.1-0.5,4.7-2.2,6
			c-1.9,1.4-4.5,1.8-6.9,2.7c-7,2.5-13.8,5.3-20.9,7.4c-2.2,0.6-4.3,1.7-6.5,2.4c-2.6,0.9-3.4,0.1-4.7-2.9c-2.3-5-4.9-10-7.5-14.9
			c-1.4-2.8-3.1-5.4-4.6-7.9c-1.3,0.7-2.5,1.9-3.5,1.8c-3.3-0.3-6.3,1-9.1,2.2c-3.1,1.3-6.5,1.9-9.3,4.2c-1.3,1.1-3.4,1.4-5,2.2
			c-2.2,1.1-4.3,2.4-6.4,3.5c-0.2-0.5-0.6-0.8-0.5-1c0.9-1.8,2.5-3.3,2-5.7c2.1-1.6,0.6-3.3-0.1-4.7c-1-1.8-2.2-3.6-3.7-4.9
			c-3.1-2.9-4.1-7.1-7-10.1c-0.2-0.2-0.2-0.6-0.2-0.9c-1.4-7.1-3.1-10.7-8-16.3c0.4-0.4,0.8-0.9,1.3-1.4c2.9,1.7,5.2,4.9,9,3.8
			c4.4-7.1,8.8-14.1,13.2-21.1c2.8,1.5,5.8,1.8,8.1,4.1c1.3,1.3,3.7,1.5,5.6,2.1c1.5,0.4,3.1,0.6,4.6,1.1c0.5,0.1,0.9,0.6,1.2,1.1
			c1,1.7,1.8,3.6,3.1,5.2c2.6,3.4,5.9,5.8,10.5,5.7c1,0,2-0.1,3,0c4.8,0.8,8.3-1.7,11.6-4.7c2.1-1.9,4.2-3.9,5.8-6.1
			c2.6-3.4,3.8-7.8,5.2-12.9c0.6-2.1,0.9-4,0.8-6.1C230.7,427.4,230.4,425.9,230,423.6z"/>
		<path class="st2" d="M216.4,177.3c0.7,1.4,1.1,2.3,1.5,3.1c1.8,3.8,4.3,7.2,6.1,10.9c0.8,1.7,0.9,2.9,0.3,4.5
			c-3.2,8.4-4.9,17.2-8.4,25.5c-0.6,1.4-0.6,3.4-1.2,5c-0.8,2.5-1.3,4.9-4.2,6.3c-2.3,1.1-2.9,4-3.8,6.3c-2.8,7-4.9,14.3-7.8,21.3
			c-1.8,4.2-2.9,8.8-5.1,12.9c-0.5,1-1,2-1.8,2.7c-4.5,4-6.5,9.8-10.2,14.3c-1,4.9-4.1,9-6.1,13.4c-4.2,9.1-8.3,18.2-13,27.1
			c-3.1,5.9-7,11.4-10.6,17.1c-1.6,2.6-4.8,2.4-7.3,2.9c-5.5,1.1-11,2.3-16.4,3.8c-6,1.6-11.9,3.3-17.8,5.3c-4.5,1.6-9,3.3-13.8,5.1
			c0.7-1.3,1.7-2.4,1.8-3.6c0.1-1.6,1.7-2,2.1-3.2c1.6-4.5,3.5-8.9,6-13c-0.4-2.6,2.2-3.7,3-5.8c0.7-1.9,1.3-3.9,2.5-5.4
			c1.2-1.5,1.9-3.2,2.8-4.9c6.5-11.6,12.2-23.6,18.4-35.3c2-3.8,2.8-8.3,6.3-11.4c0.2-4.6,4.4-7.5,5-11.9c4.1-5.1,5.9-11.6,9.7-17
			c2.2-3.1,3.5-6.9,5.4-10.2c3.1-5.2,6.6-10.2,9.4-15.6c2.3-4.4,5-8.6,7.4-12.9c0.1-0.1,0-0.4,0.1-0.4c1.7-1.4,0.4-4.5,3-5.4
			c1.9-0.6,3.8-1.4,5.7-2c9.5-3.1,12.7-5.6,18.5-10.8c4.7-4.2,8.8-8.9,11-14.9C215.5,180.1,215.8,179.1,216.4,177.3z"/>
		<path class="st2" d="M22.3,416.8c6-5.7,11.8-10,18.3-13.3c3.1-1.5,5.8-3.7,8.7-5.6c5.6-3.7,11.2-7.4,16.8-11.2
			c2.9-2,5.6-4,8.5-6.1c0.5-0.4,1.1-0.6,1.6-0.9c3-1.7,5.9-3.4,8.9-5c4.1-2.1,8.2-4.5,12.5-5.9c3.6-1.1,6.7-3.1,10.3-4.2
			c3.6-1,7.1-2,10.7-3.2c4.6-1.5,9.2-2.6,13.9-3.9c5.7-1.6,11.7-2,17.4-3.8c2.8-0.9,6-0.7,9-1.1c1.5-0.2,3-0.7,4.6-0.9
			c1.4-0.2,2.7-0.3,4.1-0.9c2.1-0.9,4.6-0.1,7.1-0.9c3.7-1.2,7.9-0.9,12.1-1.3c0.5,3.7-0.3,7.3,1.1,10.7c1.4,3.3,3,6.7,5.5,9.1
			c2.5,2.3,5.7,3.8,8.6,5.6c-1.8,4.6-1.7,9.4-2.8,14c-1.1,4.7-0.2,9.8-1.5,14.4c-1.4,5,0,9.8-1.1,14.8c-0.9,1-2.1,2.2-3.4,3.5
			c-3.1-1.6-6.3-3.3-9.5-4.8c-5.1-2.4-10.5-4.3-15.8-6.5c-6.6-2.7-13.4-4.7-20-7.3c-3.6-1.4-7.3-2.4-10.8-4
			c-1.2-0.5-2.2-0.6-3.2-0.6c-3.2-0.1-6.3,0-9.5,0c-4,0-7.5,1.2-10.2,4.2c-1.4,1.6-3.6,2-5.2,3.2c-3.3,2.6-6.5,5.5-10.3,8.7
			c-1.5-0.2-3.9-0.1-5.9-0.8c-2.1-0.8-4.7,0.9-6.5-1.3c-0.1-0.2-0.7-0.1-1,0c-3.1,0.6-6-1.1-9.1-1c-3.2,0.1-6.3,0-9.5,0
			c-3.5,0-7,0.1-10.5,0c-4.8-0.1-9.5,0.9-14.2,1.8c-4,0.7-7.9,2.4-12.1,2.3c-1.4,0-2.8,1.1-4.3,1.6C24.9,416.6,24,416.6,22.3,416.8z
			"/>
		<path class="st2" d="M248.8,275c0,8.1-0.1,16,0,23.8c0,1.9-0.6,3.8,0.9,5.6c0.7,0.8-0.1,2.1-1.1,3c-3.7,3.2-7.3,6.6-10.9,9.8
			c-0.4,0.4-1.3,0.4-1.7,0.8c-0.9,0.9-1.4,0.4-2.5,0.1c-4.2-1.3-8.4-3-13-2.4c-2.4,0.3-5,0.1-7,1.1c-4.1,1.9-8.6,2.4-12.5,4.8
			c-2.6,1.6-4.7,3.3-6.6,5.7c-2.8,3.5-4.7,7.4-6.2,11.5c-0.7,1.9-1,3.9-1.5,5.6c-4.8,0.4-9.4,0.4-13.8,1.4c-2.4,0.6-5,0.1-7.1,1
			c-2.3,0.9-4.4,0.6-6.6,0.9c-1,0.1-2,0.7-3.6,1.3c1.3-2.4,2.1-4.4,3.4-5.9c4.2-4.6,6.4-10.3,9.5-15.6c2.8-4.8,5-9.9,7.3-14.9
			c2.5-5.3,4.9-10.6,7.6-16.4c1,3.6-1.4,5.5-2.3,7.8c-0.9,2.3-1.7,4.7-2.3,7c-0.6,2.5-2.1,4.8-2,8.4c4.4-5.5,5.8-11.7,8.7-17
			c2.9-5.4,4.8-11.3,7.4-16.9c2.5-5.5,4.8-11,6.9-16.6c2.2-5.7,4.3-11.4,6.6-17.6c1.4,5.3-2.5,9.4-1.4,14.2c1,0.3,1.5-0.7,1.7-1.1
			c1.5-4.4,2.6-8.9,4.4-13.2c1.8-4.3,2.5-8.9,4.8-13c-0.3-3.4,1.9-6.2,3-9.4c0,2.4,0,4.9,0,7.3c-0.1,5.6,2.2,10.4,4.9,15
			c4.5,7.6,10.6,13.9,16.9,20C242.9,273.3,245.5,274.4,248.8,275z"/>
		<path class="st2" d="M519.4,622.5c-5.5,1.5-11.2,2.5-16.8,3.2c-5.9,0.8-11.8-0.2-17.6,0.9c-8.7,1.6-17.4,0.3-26.1,0.9
			c-9,0.6-17.9-2.1-26.9-0.8c-1-4.2-2.5-7.8-3.6-11.5c-1-3.4-1.5-7-2.7-10.3c-0.6-1.7-0.3-4-1.2-5.5c-1-1.8-0.1-4-1-5
			c-1.5-1.7-0.6-3.6-1.6-5.4c-1.2-2.2-0.8-5.3-1.2-7.9c-0.3-1.7-0.7-3.4-1-5.1c-0.2-1.7-0.3-3.4-0.8-5.1c-1-3-0.8-6.3-1.2-9.5
			c-0.3-2-0.6-4.1-1-6.1c-0.4-2,1-4.3-1-6.1c-0.2-0.2,0-0.6,0-1c-0.3-5.9-1-11.7-0.9-17.6c0.1-4.6-1.3-9-1.2-13.6
			c0.2-4.5,0-9,0-13.9c-2.1-1.7-4.5-3.5-6.8-5.4c-0.9-0.7-2-1.2-2.6-2c-1.8-2.7-4.3-4.7-6.8-6.5c-2.5-1.9-4.9-4-7.5-5.8
			c-4.3-3-8.1-6.9-12.3-10.1c-4.3-3.2-8.3-6.9-13.1-9.2c-0.7-0.3-1.5-0.6-2-1.1c-2.2-1.9-3.7-4.3-6.5-5.8c-2.5-1.4-4.8-3.6-7.4-5.1
			c-2.5-1.5-5.1-3-7.6-4.6c-1.5-0.9-2.9-2-4.2-2.9c1.3-1.8,2.4-3.3,3.4-4.8c2.7,2,4.5,4.7,7.4,6.5c2.6,1.7,5.3,3.5,7.6,5.6
			c3.9,3.4,8.3,6.1,12.1,9.7c3.2,3.1,7,5.5,10.6,8.2c0.9,0.7,1.7,1.5,2.6,2.2c3.8,3,7.5,5.9,11.3,8.8c0.6,0.5,1.3,0.9,1.9,1.4
			c4.3,4.4,9.5,7.6,14.4,11.2c3.4,2.5,6.8,4.8,9.7,7.9c0,2.5-0.5,5.1,0.1,7.4c1,3.7,0.8,7.4,0.9,11.1c0.1,1.5,0.6,3.1,1,4.6
			c0.3,1.5-0.3,3.1,0.7,4.7c0.8,1.2-0.2,3.4,0.4,4.8c1.4,3.7,1.4,7.6,2.9,11.3c1.5,3.6,3,7.2,3.8,10.9c1.2,5.1,4.6,9.1,6.2,13.9
			c5,5.4,8.7,11.8,14.9,16.3c6.6,4.8,13.5,9.1,20.4,13.4c10.3,6.4,21.1,11.6,32,16.9c2.5,1.2,5,2.4,7.6,3.4c2.6,1,5.3,1.8,7.9,2.6
			C517.4,622.7,518.5,622.5,519.4,622.5z"/>
		<path class="st2" d="M373.6,233.3c-1.3,0-2.5-0.3-2.8,0.1c-1.5,1.8-2.8,3.8-4.1,5.8c-5,8.2-9.1,16.8-13.4,25.4
			c-1.3,2.6-1.8,5.6-4.2,8c-6.8,0.5-12.7,3.9-18.5,8.4c-5.8-2.1-12.2-2.4-19-2.1c4.2-6.1,7.8-12.1,12.2-17.5
			c5.4-6.7,9.8-14.1,15.3-20.7c2.6-3.1,4.5-6.8,7.1-10c3.4-4.1,6.2-8.7,9.2-13.1c4.4-6.4,9.4-12.4,13.6-18.8
			c4.1-6.1,8.5-12,12.7-18.1c3.1-4.6,6.5-9,9.9-13.4c3.5-4.4,6.5-9.3,9.8-13.9c2.3-3,4.3-6.2,6.4-9.3c4.3,1.1,8.5,2.1,12.6,3.2
			c-0.4,0.8-0.8,1.3-1,1.9c-0.1,0.5,0.1,1.3-0.1,1.4c-6.2,3.9-7.9,10.9-11.5,16.6c-3.3,5.2-5.5,11.1-9.1,16.2
			c-1.2,1.7-1.9,3.9-2.9,5.8c-7.3,14.3-14.6,28.6-21.9,42.9C374,232.4,373.8,233,373.6,233.3z"/>
		<path class="st2" d="M50.6,392c2.8-4.6,4-9,5.4-13.3c1.2-3.8,3.4-7.3,4.5-11.1c2.4-8.2,6.1-15.8,8.5-24c1.1-3.8,3.1-7.4,4.6-11.1
			c2.5-6.3,4.9-12.6,7.3-19c1.9-5,3.8-10.1,5.7-15.1c2.7-7.2,5.7-14.3,8.4-21.5c2.2-5.9,4.3-11.9,6.1-17.9c0.7-2.4,1.4-4.7,2.4-8
			c0.2,1.7,0.3,2.5,0.3,3.4c0.3,4.7,0.3,9.5,1.2,14c0.5,2.6,0.4,5.1,0.9,7.6c0.5,2.4,0.7,4.7,1,7.1c0.3,2,1.1,4,0.9,6.1
			c-0.2,2.3,1.4,4.2,1.1,6.6c-0.3,2,1.5,3.9,0.9,6.1c2.2,2,0.3,4.9,1.7,7.3c1.2,2,0.9,4.9,1.3,7.4c0.1,0.7,0.9,1.4,0.9,2.1
			c0.2,2.4-0.1,4.7-1.3,6.9c-3.8,6.9-7.4,13.9-11,20.9c-2,4-3.7,8.1-5.7,12.1c-1.3,2.6-2.7,5.2-4.3,7.7c-0.6,1-1.9,1.7-3,2.2
			c-8.2,4.1-16,8.9-23.7,14c-4.1,2.7-8,5.7-12,8.5C52.5,391.5,51.9,391.6,50.6,392z"/>
		<path class="st2" d="M284.8,286.5c1.5,0.7,3.5-0.4,4.7,1.3c0.2,0.2,1.1,0.2,1.4,0c3.4-1.9,7.1-0.7,10.6-0.9
			c2.6-0.1,9.4,2.5,10.8,4c0.7,0.8,1.4,1.9,1.4,2.9c0.2,4.5,0.1,9,0.1,13.5c-1.9,1.8-0.1,4.4-1.1,6c-1.4,2.1-0.6,4.1-0.8,6.2
			c-0.4,3.9,1.1,7.1,3.9,9.9c0.5,0.5,0.9,1.2,1.8,2.7c-1.5-0.3-2.3-0.3-2.8-0.7c-1.3-0.8-2.5-2-3.9-2.8c-4.3-2.5-8.7-2.3-13.2-0.1
			c-1.4,0.7-2.8,2.3-5,1c2-1.4,2.4-4.2,5.4-4.6c0.7-0.1,1.4-1.3,1.7-2.1c0.8-2,1.4-4.1,2-6.1c1.5-4.8,1.2-5.2-1.7-10
			c-0.9-1.4-1.9-2.6-2.9-3.8c-3-3.2-6.5-3.6-10.5-2.4c-2.7,0.8-5.5,1.2-8.1,1.7c-1.5-1.5-3-2.5-3.8-3.9c-1.3-2.2-2.4-4.4-1.6-7.5
			c1.4-4.9,3.9-8.9,7.5-12.4c1.3-1.3,2.7-2.5,3.8-3.9c0.6-0.8,0.9-2,1.4-3.2c-3.1-0.9-5.7-0.5-7.8,1.8c-0.3,0.4,0,1.3,0.1,2.8
			c-0.7,1.3-3.3,2.3-3.8,4.8c-3.2,2.4-4.3,6.2-5.4,9.7c-0.7,2.1-1.5,3.3-3.1,4.5c-4.3,2.9-8.5,5.9-13.2,9.2c0.6-4.7-0.8-9,1.1-13.3
			c0.4-0.8,0.1-2,0.1-3c0-7.2,0-14.3,0-21.5c0-7.4,2.1-14.2,5.7-20.6c1.6-2.8,3.5-3.5,6.5-2.1c4.4,1.9,8.5,4.2,11.8,7.7
			c0.8,0.9,2.1,1.3,3.1,2.2c0.8,0.7,1.1,2,2,2.3c1.8,0.9,1.1,1.7,0.1,2.4c-1.3,0.9-2.7,1.4-4.1,2.2c0,0.7,0,1.3,0,2.5
			c1.1-0.2,2.2-0.1,3-0.6c3.4-1.6,6.4-3.8,8.7-6.7c5.3-6.5,5.2-6.5,13.4-10.7c2.4,1,2.4,3,1.5,4.8c-2.1,4.3-4.7,8.4-7.3,12.5
			c-3.4,5.4-8,10.1-10.3,16.2c-0.3,0.7-0.5,1.6-1.1,2C284.3,281.9,284.8,284.2,284.8,286.5z"/>
		<path class="st2" d="M217.3,370.7c-3.5,0.3-7.7-0.2-11.8-1.9c-9.1-3.7-12.3-8.7-13.7-17c-0.3-1.7-1.1-3.4-0.9-5.1
			c0.5-4.2,1.3-8.4,3.1-12.2c1.3-2.7,3.9-5.1,6.4-6.7c3.5-2.2,7-4.7,11.2-5.4c0.9-0.2,1.8-0.6,2.7-0.7c3-0.1,6-0.1,9,0
			c5.4,0.2,10.3,2.3,13.9,6.1c3.2,3.3,5.9,7.3,7.1,11.9c0.2,0.9,0.8,2.1,0.4,2.8c-1.4,2.6-0.6,5.4-1,8.1
			c-1.1,7.5-4.3,13.7-11.1,17.7c-3.4-0.2-6,2.9-9.5,2.4C221.5,370.5,219.8,370.7,217.3,370.7z"/>
		<path class="st2" d="M334.7,282.1c3.3-2.4,6.9-3.6,10.8-4.5c4-0.9,8-0.9,12.1-0.9c7.1,0,13.6,3,18.7,7.9c1.4,1.4,1.5,3.1,2.3,4.6
			c3.3,6.4,3.2,6.4,3.1,14.2c0,2.7,0.1,5.3-0.8,8.1c-1.8,5.8-7.9,13.1-15.2,15.1c-5.1,1.3-10.2,2.5-15.9,1.9c0-1.2,0-2.3,0-3.4
			c0-2,0.7-4.4-0.2-5.9c-1.2-2-0.3-3.9-0.8-5.7c-0.5-1.8-1.4-3.5-1.8-5.3c-0.3-1.4-0.4-3-0.2-4.4c0.5-2.4-0.4-4.6-1.2-6.5
			c-0.9-2.2-1.5-4.3-2-6.7c-0.6-3.2-3.1-5.5-6.1-7C336.6,283.3,335.7,282.7,334.7,282.1z"/>
		<path class="st2" d="M334.7,447.3c5.1,5,11.9,7.6,16.5,13.6c-13.6,5.7-27.1,11.2-40.9,17c-0.7-1.7-1.4-3.4-2.2-5.5
			c-0.2,2-0.4,3.6-0.5,5.4c-0.6-0.5-0.9-0.8-1.2-1c-1,3.1-1,3-4.5,4.4c-6.7,2.7-13.4,5.4-20.1,8.1c-4,1.6-8.1,3-12.1,4.5
			c-1.4,0.5-2.9,1.1-4.6,1.7c-1.1-2.5,0.4-5.1,1.1-7.4c1.9-5.9,3.3-12,4.7-18c0.4-2,0.9-4,1.5-6.3c1.7,0.3,3.7,1,5.6,0.9
			c2.5-0.1,5,0.6,7.7-0.8c2-1,4.6-0.4,7.1-0.9c2.4-0.5,5-0.9,7.5-1.3c7.3-1,14.5-2.5,21.3-5.3C326.2,454.3,330.6,451.4,334.7,447.3z
			"/>
		<path class="st2" d="M136.6,455.7c0.1,0.5,0.2,1.1,0.4,1.6c1.4,2.3,4.2,3.3,5.1,6.4c0.7,2.6,2.9,4.8,4.4,7.1
			c1.5,2.2,2.8,4.5,4.4,6.7c3.6,5,6.5,10.6,11.1,14.9c2.5,2.3,2.7,3.7,0.5,6.1c-2.5,2.7-5.1,5.3-8.4,7.3c-3.6,2.3-7.5,3.8-11.6,4.5
			c-3.7,0.7-7.5,0.2-11.3,0.2c-0.9,0-1.7-0.6-2.6-0.8c-2.3-0.5-3.7-2-3.7-4.2c0-4.5-0.1-9,0-13.5c0.1-1.7,0.7-3.4,0.9-5.1
			c0.2-1.7,0.7-3.5,0.8-5.1c0.3-3.2,1.2-6.1,2.1-9.2c1.1-3.9,3.5-7.2,4.1-11.3c0.1-0.5,0.7-1.1,1.2-1.5
			C135.6,458.8,136,457.4,136.6,455.7z"/>
		<path class="st2" d="M199.7,415.3c0.2-1.2,0.4-2.4,0.7-3.6c0.1-0.4,0.5-0.9,0.4-1.3c-0.7-4.4,1.2-8.6,1.1-13.1
			c-0.1-2,0.7-4,0.9-6.1c0.2-2-0.5-4.2,0.2-5.9c1.4-3.5,0.5-7,1.1-10.8c5.4,2,10.8,2.5,16.2,2.1c2.4-0.2,4.8-1.1,7.5-1.7
			c-0.4,3.3,1.1,6.8-0.9,10.2c-0.3,0.5-0.1,1.3-0.1,2c0.7,6.2-1.4,12.3-1,18.5c0.1,2.1-1.5,3.8-1,6.1c0.4,2.1,0.4,4.3,0.6,6.6
			c-3.1-1.2-6.4-2.5-10.2-2.9c-2.7-0.3-5-0.9-7.7,0.1c-1.1,0.4-2.8,0.6-4.2-0.7C202.9,414.4,201.4,415,199.7,415.3z"/>
		<path class="st2" d="M233,564.3c-0.9-1.4-1.8-2.2-2-3.1c-2.4-8.6-6.9-16.5-9.2-25.2c-3.6-5.5-4.6-12.1-8.4-18
			c12-4.1,23.7-8.1,35.4-12.1C243.6,525.2,238.4,544.3,233,564.3z"/>
		<path class="st2" d="M194.9,435.2c0-1.3,0.1-2.7,0-4c-0.2-3.1,0.7-5.5,2.7-7.9c1.3-1.5,2.4-2.6,4.4-2.6c3.2,0,6.3-0.2,9.5,0.1
			c4.2,0.4,7.9,2.5,11.8,3.9c1.3,2.7,2.9,5.3,2.5,8.4c-0.4,2.8-1,5.5-2,8.2c-2,5.6-5.6,9.9-11.2,12.1c-4.7,1.9-10.3-0.4-14-4.2
			c-3.1-3.3-4-6.8-3.8-11C194.9,437.2,194.9,436.2,194.9,435.2z"/>
		<path class="st2" d="M304.3,138.9c-0.5-0.8-0.8-1.8-1.4-2.4c-2.7-2.5-5.5-5.1-8.4-7.4c-1.3-1-3-1.6-4.9-1.3
			c-3.7,0.7-6.5-1-8.9-3.7c-1.4-1.6-3.2-2.7-4.8-4c-1.5-1.3-2.9-1.1-4.5-1.3c-1.7-0.2-3,0.8-4.4,1.5c-0.3,0.1-0.2,0.9-0.4,1.9
			c-2.7-3.2-5.2-6.1-7.8-9.2c3.8-9.3,7.7-18.7,11.9-28.7c1.2,1.6,2.5,2.8,3.2,4.2c2.7,5.7,6.8,10.5,10.1,15.8
			c3.6,5.8,7.3,11.6,11,17.4c2,3,4.2,5.9,6.2,8.9c1.1,1.7,2.2,3.4,3.2,5.2c0.4,0.8,0.5,1.7,0.7,2.6
			C304.7,138.6,304.5,138.8,304.3,138.9z"/>
		<path class="st2" d="M144.7,446.7c3.5-4.8,6.8-9.4,10.4-14.3c-3.4-3.3-8.1-4.3-12.7-6.3c1.2-2.3,2.1-4.6,3.5-6.6
			c1.8-2.4,0.3-5.1,1.3-7.9c3,1.6,5.9,3.2,8.8,4.7c3,1.5,6.6,2.4,9,4.5c2.7,2.4,6.8,2.1,8.7,5.4c-4.4,10.4-11.1,19.6-16.6,29.6
			C153.1,452.8,149,449.9,144.7,446.7z"/>
		<path class="st2" d="M141.9,413c0,1.6,0,2.8,0,3.9c0.1,2-0.5,3.8-2,5.2c-1.1,1-2,2.7-3.2,3c-1.7,0.5-1.6,2.2-2.7,2.9
			c-0.9,0.6-1.8,1.2-2.8,1.6c-2.3,0.8-4.8,1.1-7.2,1.9c-2.3,0.8-4.5-0.8-6.7-1.8c-3.3-1.4-4.3-4.6-6.3-6.9c-1.1-1.3-1.4-3.2-1-5
			c0.5-2.4,1.1-4.9,1.6-7.3c0.9-3.9,4.1-5.7,7.3-7.2c1-0.5,2.3-0.9,3.2-0.5c2.3,0.9,4.9,1.1,7.2,2c2.7,1,5.4,2.4,7.8,4
			C138.8,409.9,140.3,411.5,141.9,413z"/>
		<path class="st2" d="M425.9,304.8c-4.1,0.7-7.3-1.9-10.1-4.6c-3.2-3.2-2.5-7.4-1.5-11.4c0.6-2.2,1.6-4.4,2.2-6.5
			c0.6-2.4,2.2-3.8,3.1-5.7c0.9-1.9,2.9-2.2,4.7-1.6c3.5,1.3,6.9,2.7,10.2,4.2c2.9,1.3,5,3.7,6.9,6.1c2.4,2.9,1.1,6.3-0.1,9.4
			c-1.3,3.3-3.9,5.4-6.8,7.2C429.9,304.7,429.9,304.8,425.9,304.8z"/>
		<path class="st2" d="M107.6,459.8c-8.1-7.6-15-15.9-23.7-22.4c1.5-1.9,2.8-3.6,4.2-5.4c1.4-1.8,2.8-3.5,4.2-5.2
			c1.5-1.9,3-3.8,4.6-5.6c1.6-1.6,3.5-3,5.1-4.6c1.5-1.6,2.9-3.3,4.5-5.3c0.6,1.7,0.5,2.9,0,4.3c-0.9,2.6-1,5.3,0.4,7.9
			c1.4,2.4,1.5,5.5,3.8,7.5c0.4,0.3,0.1,1.9-0.3,2.6c-1.3,2.3-2.8,4.5-4.4,7c1.3,4.1,5.6,6.3,8.2,9.9
			C111.9,453.7,109.8,456.7,107.6,459.8z"/>
		<path class="st2" d="M391.5,443.2c-8.3,3.7-16,7-23.9,10.5c-4.7-3.9-10-7.2-14.7-11.3c-2-1.8-4.6-3.3-7-4.7
			c-2.1-1.2-3.1-3.8-5.7-4.4c-0.6-0.1-0.9-1.5-1.4-2.3c-1.2-1.9-2.1-3.8-1.9-6.3c3.2,1,6.2,2.1,9.3,2.8c4.3,0.9,8.4,2.4,12.6,3.5
			c3.2,0.8,6.3,1.6,9.4,2.6c3.4,1.1,6.7,2.4,9.9,3.8C382.3,439.2,386.5,441.1,391.5,443.2z"/>
		<path class="st2" d="M385.7,288.1c10-1.1,18.8-5.2,27.9-9.6c-1.7,4.6-3.9,8.6-4.7,12.8c-0.9,4.7-0.9,9.6,3.2,13.7
			c-0.9,0.7-1.6,1.6-2.4,1.8c-4.6,0.8-9.2,1.8-13.7,3c-3.3,0.9-6.7,1.4-10.4,2.2c0.5-3.3,1-6.2,1.5-9.1c0.2-1.2,0.8-2.7,0.4-3.7
			c-1.2-3-0.9-6.2-1.8-9.2C385.6,289.4,385.7,288.7,385.7,288.1z"/>
		<path class="st2" d="M257.2,415.2c-4.9,1.2-9.6,1.5-14.2,2.4c-4.5,0.8-9.2,0.9-14.4,1.3c0.7-2.2-0.6-4,1.1-5.6
			c0.2-0.2,0.2-0.6,0.2-0.9c0-2.2-0.1-4.3,0-6.5c0.2-2,0.8-4,0.9-6.1c0.5-6,0.9-11.9,1.3-18.2C240.7,392.8,249.4,403.5,257.2,415.2z
			"/>
		<path class="st2" d="M467.9,290.3c-7.5,4.5-11.6,11.1-13.4,19.8c-5.7-1.6-11.2-3.1-16.8-4.6c7.5-5.2,9.5-13.1,10.3-21.4
			C451.3,285.7,463.3,289.5,467.9,290.3z"/>
		<path class="st2" d="M276.5,243.5c-2.8-1.8-4.8-3.8-7-4.3c-2-0.4-4.1-2.2-7.3,0.3c1.7-3.6,2.5-6.2,4-8.4c2.8-4.1,5.5-8.4,9.4-11.5
			c1.7-1.4,3.7-2.4,5.4-3.8c1.4-1.1,2.9-1.2,4.7-0.7c0.3,4.9-0.4,9.4-2.5,14.2C281.2,233.9,278.7,238.3,276.5,243.5z"/>
		<path class="st2" d="M490.5,309.6c-1.5-3.8-3.1-7.8-4.8-12c0.2-1.2,1.2-1.6,2.7-1.9c5.2-0.9,10.5-1.9,15.6-3c1.6-0.3,3.1-1.2,5-2
			c2.9,3,3.8,6.9,3.5,11.1c0,0.5-0.5,1.3-1,1.5C505.1,306.7,498.6,309.8,490.5,309.6z"/>
		<path class="st2" d="M173.7,435.4c2-4.5,3.6-8.1,5.3-12c-2.3-3.3-7-2.6-9.4-5.5c-3.8-0.3-6.4-3-10-4.9c1.1-0.1,2-0.5,2.5-0.2
			c5.6,3.1,11.8,4.3,17.5,7.1c1.4,0.7,2.8,1.8,4.2,1.7c2.1,0,3.2,1.1,4.7,2c1.4,0.8,2.3,1.3,2.4,3c0.1,1.2,2.1,2.4-0.1,3.7
			c-0.4,3.7-0.8,7.3-1.3,11.4C184.2,440,178.9,437.8,173.7,435.4z"/>
		<path class="st2" d="M114.4,455.8c3.1-2.9,3.8-6.2,3.5-9.3c-2.7-2.3-5.1-4.4-7.6-6.5c0.5-0.8,1-2.1,1.9-3.1
			c0.9-1.2,2.1-2.1,3.1-3.2c2.7,1.3,5.4,2.5,8.4,1.8c0.1,0.8,0.3,1.2,0.2,1.4c-0.7,1.5-2.5,2.9-1.9,4.6c0.7,1.9,2.1,3.5,3.4,5.1
			c1,1.3,2.4,2.3,3.5,3.5c1.7,1.9,1.9,4.2,0.5,6.5c-0.2,0.3-0.5,0.4-0.7,0.7c-1.1,1.6-1.7,3.7-3.6,4.2c-2.3,0.5-4-1.5-6-2.3
			C117.6,458.6,116.3,457.3,114.4,455.8z"/>
		<path class="st2" d="M251.2,222.8c7.1,3.5,8.1,4.4,10.7,8.9c-2.4,4.2-4.6,8.7-6.9,13.1c-2.2,4.2-4.8,8.5-4.8,13.9
			c-0.5-0.8-1.4-1.6-1.3-2.3c0.6-4.3-1.2-8.3-1.1-12.6c0.1-4.3-0.1-8.6,0.1-13c0.1-1.7,0.4-3.5,1-5
			C249.3,224.7,250.4,223.8,251.2,222.8z"/>
		<path class="st2" d="M496.3,326.1c-1.5-2.9-2.6-5.1-3.7-7.5c0.8-1.8,2.5-2.8,4.2-3.5c4.3-1.7,8-4.5,12.6-5.7
			c1.7-0.4,3.1-1.9,5.3-3.2c-0.4,4.2,1,7.3,3.1,10.4c-3.1,1.7-6.1,3.7-9.4,4.9c-2.7,0.9-5,2.2-7.6,3.3
			C499.3,325.3,497.8,325.7,496.3,326.1z"/>
		<path class="st2" d="M148.9,434.2c-2,2.8-4,5.5-5.9,8.3c-0.5-0.1-0.8-0.1-1-0.3c-6.7-3.5-6.7-2.4-11,1.7c-1.7-1.2-3.5-2.4-5-3.4
			c0.4-1.1,0.7-1.8,1-2.5c0.9-1.9,2-3,4.1-4.1c1.6-0.9,3.4-1.6,4.8-2.8c1.8-1.7,3.8-0.9,5.4-0.4C143.9,431.5,146.3,433,148.9,434.2z
			"/>
		<path class="st2" d="M477.1,319.7c-2.7-4.3-5.3-8.5-7.8-12.5c2.9-1.4,6.2-2.9,9.5-4.5c3.6-1.7,4.5-1.2,4.9,2.5
			c0.2,1.7,0.5,3.4,1,5c1.4,4.3,1.4,4.3-2.6,6.5C480.5,317.7,479,318.6,477.1,319.7z"/>
		<path class="st2" d="M460.9,310.5c-0.6-5.1-0.4-9.5,3.4-12.9c2.8-2.5,4.4-3,9.3-2.7c0.1,1.1,0,2.2,0.2,3.3c0.1,0.4,0.5,0.7,0.8,1
			c-2.8,3.1-7.8,3.1-10,7.4c0.5,0.8,1.9,2.2,1.7,2.7c-1.1,1.8,0.8,2.4,1.1,3.5c0.3,1.2,0.9,2.2,1.6,3.8
			C465.1,315.6,463.4,312.5,460.9,310.5z"/>
		<path class="st2" d="M477.8,286.6c0-1.7,0-3.1,0-4.7c7.3-0.2,14.1-2.5,21.4-5.1c0.7,0.9,1.5,2.1,2.6,3.6
			c-3.4,2.6-7.4,3.7-11.4,4.3C486.2,285.4,482.4,287.4,477.8,286.6z"/>
		<path class="st2" d="M467.9,17.1c2.2,2.9,4.4,5.8,6.9,8.9c-2.2,2.8-6,4.1-8.5,6.8c-2-2.4,0.2-4.6,0.7-6.6c0.5-2.5,0.7-5,0.8-7.6
			C467.7,18.2,467.8,17.6,467.9,17.1z"/>
		<path class="st2" d="M289.3,282.9c2.4-3.4,3.2-7.7,6.3-10.4c2.5,2.5,4.8,4.7,7.1,7C298.2,280.7,293.8,281.8,289.3,282.9z"/>
		<path class="st2" d="M478.8,292.9c3.4-0.3,6.2-2.7,10.3-2c-2.9,1.7-5.9,2.3-6.9,5.6c-0.2,0.7-2,0.9-3.4,1.5
			C478.8,296.2,478.8,294.7,478.8,292.9z"/>
	</g>
</g>
<rect y="0" class="st3" width="611.6" height="791.4"/>
<rect x="8.4" y="8.4" class="st3" width="595.2" height="775.2"/>
</svg>
