<svg class="cycle-js" version="1.1" id="Layer_1" xmlns="http://www.w3.org/2000/svg" xmlns:xlink="http://www.w3.org/1999/xlink" x="0px" y="0px" viewBox="0 0 612 792" style="enable-background:new 0 0 612 792;" xml:space="preserve"> <style type="text/css"> .st0{fill:#FFFFFF;} .st1{fill:none;} </style> <g> <path class="st0" fill="#FFFFFF" d="M9,601c0-48,0-96,0-144c2.3-0.8,4.6-1.6,6.9-2.4c9.1-3.4,18.4-5,27.9-2.6c8,2,15.9,4.8,24,6.2 c5.2,0.9,11.6,1.4,15.8-0.9c8.6-4.7,17.5-5.1,26.4-4c6.3,0.8,11.4,0.6,16.6-3.3c4.2-3.1,8.7-3.1,14.3-1.4 c6.9,2.1,14.6,1.4,21.9,2.5c7.5,1.2,14.5,0.3,21.7-2c3.4-1.1,7.1-1,10.7-1.1c4.7-0.2,9.4,0,14.1,0c2.6,0,5,1,3.3,3.7 c-6.2,10-11.5,21.1-19.7,29.3c-10,10-22.5,17.4-33.8,26.1c-10.6,8.2-21.5,16.3-23.5,30.9c-1.5,11.2-1.8,18.7,11.5,24.5 c4.8,2.1,9.8,3.5,14.8,4.9c13.4,3.9,27.1,2.9,40.8,2c10.1-0.7,20.1-2.1,30.3,0.9c8.4,2.4,17.2,3.8,25.9,4.6 c7.6,0.8,15.4,0.3,23.1,0.1c3.1-0.1,6.2-0.5,9.1-1.5c8.2-2.8,16.3-2.4,24.8-1.8c10.5,0.8,20.7,4.8,31.7,2.5 c13.7-2.8,23.7-9.9,28.3-22.9c2.7-7.7,3.2-16.3,4.2-24.5c1-8.2,1.6-16.4,2.1-24.6c0.8-12.6,1.4-25.1,1.8-37.7 c0-1.4-1.7-3.7-3.1-4.2c-1.2-0.4-3.3,1.1-4.5,2.2c-1.4,1.5-2.2,3.5-3.8,6.2c-2.1-3.2-3.8-5.6-5.1-8.2c-1.6-3.2-2.7-6.7-4-10 c-1-0.3-0.6-1-0.1-1.2c11.9-3.2,23.8-3.8,36-1.8c5.6,0.9,11.3,2.1,17,2.2c5.3,0.1,10.7-1.1,16.1-1.8c1.6-0.2,3.3-0.1,4.9-0.6 c10.6-3.3,21.2-6.2,32.2-1.5c0.6,0.2,1.3,0.1,2,0.1c6.4,0,12.7,0,19.1,0c1.4,0,2.9,0.1,3.3,0.2c-1,6.3-2,12.3-3,18.5 c-0.3-0.4-1.1-1.2-1.6-2.2c-1.8-4.1-4.8-6.4-9.3-5.4c-4.3,0.9-4.7,4.5-4.7,8.1c0,1.5,0.3,3.1,0,4.5c-0.8,3.6-0.8,8.8-3.1,10.3 c-6.8,4.4-11.2,10.4-15.5,16.9c-1.1,1.6-4.7,3.4-5.5,2.8c-3-2.2-5.9-2.5-7.9,0.1c-1.7,2.2-3.7,6.4-2.7,8.2 c2.1,4.1,0.6,7.6,0.4,11.3c-0.2,3-0.2,6.8-1.9,8.8c-2.8,3.3-6.8,5.8-10.7,8.1c-6.9,4.1-9.3,10.8-11,17.9c-0.5,2.2-0.4,5.5,0.9,7.1 c7.7,9.7,18.6,12.6,28.6,3.5c2.6-2.4,4.8-1.7,7.2-0.7c5.4,2.1,10,0.4,13.9-3.3c2.2-2.1,4.2-4.5,6.2-6.8c0.5,0.1,1,0.1,1.4,0.2 c-0.1,1.6-0.2,3.2-0.3,4.7c-0.1,1.8-0.9,4.4,0,5.3c1.3,1.2,4.2,2.2,5.7,1.6c6.3-2.6,14.3-1.6,17.5-8c3.8,2.9,6.9,6.5,10.8,8.1 c8.6,3.5,16.2-0.5,23.5-4.9c3.5-2.1,8.3,0.8,11.4-2.9c0.7,0.8,1.6,1.5,2.2,2.4c2.8,4.3,11.3,6.3,15.9,4.5 c7.4-2.9,14.8-5.4,22.2-8.1c4.6-1.7,9.2-7.4,7.5-10.2c-4.5-7.2-9.5-14.3-15.2-20.5c-2.5-2.8-5.2-3.5-1.9-7.7 c1.8-2.3,2.1-6.5,1.4-9.5c-0.3-1.3-4.8-1.6-7.9-2.5c1.9-10.4-3.3-17.7-14.5-21c2-2.3,3.3-3.9,5.3-6.1c-2.1-0.9-4.3-2.6-5-2.1 c-3.5,2.2-6.6,5.1-10.2,8.1c-1.6-3.3-4.8-7.3-5.2-11.5c-0.8-9.8-5.1-16.4-14.2-19.7c-4.5-1.7-5.4-5.4-7-10.1c3,0.4,5.2,1.2,7.3,1 c13-1.1,25.6,5.2,38.7,2.1c0.9-0.2,1.9,0.3,2.9,0.4c3.5,0.5,7.1,1.4,10.6,1.4c4.9,0,9.9-0.8,14.8-0.8c3.4,0,6.9,0.9,10.3,0.9 c6.4-0.1,12.9-0.6,19.3-0.9c0,115,0,230,0,345c-203.7,0-407.3,0-611,0c0.3-20.9,1-41.8,0.9-62.8c-0.1-41.7-0.6-83.5-1-125.2 C9.9,603.7,9.3,602.3,9,601z M139.1,616.2c1.6,4.1,3.7,7.7,4.4,11.4c1.8,8.8,0.2,15.7-8.5,21.4c-7.7,5-15.5,4.6-22.1,5.4 c-0.9-3-1-5.2-2.1-6.4c-4.1-4.2-3.3-9.1-2.4-13.9c1.2-6.1,0.6-7-5.4-7.1c-10-0.2-20-0.7-30-0.9c-4.3-0.1-7.6-0.9-9.4-5.5 c-0.6-1.6-3.5-2.2-5.3-3.3c-0.1,2.1-0.8,4.3-0.3,6.2c1.5,5.9,6.1,7.5,11.6,7.9c8.6,0.6,17.3,2.3,25.9,2c4.5-0.2,5.8,0.4,5.4,4.6 c-0.7,6.8,0.2,12.8,6.9,17.1c-5.1,0.8-10.1,1.9-14.9,1.2c-5.5-0.9-10.7-3.7-16.2-5.2c-6-1.7-11.1-5.7-18.1-5.4 c-4.1,0.2-9.2-2.3-10.5-7.5c-0.9-3.3-0.8-6.8-1.2-10.3c-0.6-5,1.3-9,4.9-12.3c4.2-3.8,8-8,12.5-11.3c7.8-5.7,16.3-9.5,26.4-7.3 c1.6,0.3,3.4-0.4,5.1-0.6c-1.2-1.5-2.2-3.6-3.7-4.3c-6.9-2.8-13.8-0.6-20.2,1.7c-13.1,4.8-22.5,14.6-30.8,25.3 c-1.1,1.4-1.1,3.8-1.1,5.7c0,2.9,1,5.9,0.8,8.8c-0.9,10.7,6,16.2,14.1,16.9c7.7,0.8,13.9,4.3,20.7,6.8c7.4,2.8,14.7,5.5,22.9,4.7 c10.1-1,20.6-0.7,30.2-3.5c7.3-2.2,13.5-8.3,19.9-13c1-0.7,1.2-3,1.3-4.6c0.2-3.7,0.6-7.4-0.1-11c-1-5.1-1.5-11.1-4.6-14.7 c-6.8-8-13.6-16.7-25.5-18.1c-6.2-0.7-12.2-2.8-18.3-4.3c-0.5,4.6-0.6,4.9,2.7,6c4.8,1.6,9.6,3.1,14.6,3.9c6.6,1.1,11,4.9,15,9.5 c-6.6,4.4-12.9,8.6-19.2,12.7c2.3,4.2,4.7,4.8,7.5,2.9C127.3,624.4,132.5,620.8,139.1,616.2z M556.4,678.9 c-1.9-6.6-3.1-12.9-5.6-18.6c-1.7-3.7-5.6-6.4-8-9.9c-8.2-11.9-19.6-14.8-33-12.6c-2.9,0.5-5.9,0.7-8.8,1.2 c-12.8,2.2-25.6,4.7-36.6,11.9c-11.1,7.3-21.9,15.1-32.2,23.6c-12,10-13.1,18.5-5.8,32.4c0.6,1.1,1.3,2.3,1.5,3.6 c1.2,6,4.8,10,10.1,12.4c4.7,2.1,9.9,3.4,14.3,6c4.9,3,9.4,3.8,14.8,1.6c2-0.8,5.3-0.8,7,0.3c7,4.4,14.8,5.6,22.6,7.3 c5.9,1.3,10.8,0.6,15.7-3c7.9-5.8,16-11.3,23.8-17.1c1.8-1.3,3.2-3.3,4.6-5.1c1.5-1.9,2.9-3.9,4.4-5.7c1.4-1.7,3.8-3,4.4-5 C552.2,694.7,554.2,686.8,556.4,678.9z M50.1,490.1c5.4-1.3,10.8-3,16.2-3.7c6.4-0.7,8.1-5.9,9.1-10.2c0.6-2.5-2.6-6.3-4.8-8.8 c-1.5-1.7-4.1-2.9-6.4-3.3c-4.3-0.8-8.9-0.6-13.2-1.5c-12.1-2.5-21.4,2.6-28.9,11c-4.5,5-5.6,9.7,3.6,12.4c2.2,0.6,4.5,1,6.7,1 c5.5-0.2,11-1.3,15.8,2.7C48.7,490,49.5,489.9,50.1,490.1z"/> <path class="st0" fill="#FFFFFF" d="M9,451c0-66,0-132,0-198c6.6-0.4,13.3-0.2,19.7-1.5c11.6-2.4,23.1-5.5,34.5-8.6c13.2-3.6,26.7-6.4,39.3-11.5 c21.1-8.5,41.7-18.4,62.4-28c9.3-4.3,18.1-9.7,27.2-14.4c5.5-2.9,10.5-6.8,17.5-2.4c5.1,3.2,11.5,4.6,17.3,6.4 c36.8,11.7,72.8,25.8,111.3,31.1c11.8,1.6,23.6,3.3,35.5,4.8c5.5,0.7,11.2,0.9,16.7,1.3c7,0.6,14.3,2.5,21.1,1.4 c11.7-1.8,23.4-4.5,34.4-8.6c13.2-5,16.9-14.4,14.1-28.6c-3.6-18.3-14.7-32-27.1-44.7c-8.6-8.8-18.1-16.8-27.6-24.7 c-7.9-6.6-16.4-12.5-24.6-18.7c-11.3-8.6-22.5-17.4-34-25.9c-7.9-5.8-13.4-14.7-23.4-17.8c-1.7-0.5-2.9-2.6-4.3-4 c0.5,0.1,0.9,0.2,1.4,0.3c7.1-19.3,14.3-38.7,21.4-58c93,0,186,0,279,0c0,144.3,0,288.7,0,433c-7-0.3-13.9-0.5-20.9-1 c-5.4-0.4-10.9,0.3-13.9,4.8c-3.6,5.6-9,5.6-13.4,4.8c-5.9-1.1-11.6-2-17.7-1.8c-8.8,0.3-17.7-1-26.5-2.1c-1.3-0.2-2.4-2.4-3.7-3.4 c-1.5-1.2-3.4-3.2-4.9-3c-2.5,0.4-4.8,2.3-7.2,3.4c-2.4,1.2-5.2,3.6-7.3,3.1c-7.4-1.8-14.3,0.8-21.5,1.4c-3.4,0.3-7-0.7-10.4-1.1 c0.6-2.4,1.3-4.8,1.9-7.2c0.2-0.8,0.4-1.6,0.4-2.4c0.5-6.1-0.5-6.6-6.6-6.6c-9,0-18-0.1-26.8-1.3c-8.8-1.2-11.3,0.1-11.5,8.9 c-0.1,3.3,1.2,8-0.6,9.7c-2.1,2-6.6,1.3-10.1,1.9c-1,0.2-1.9,0.8-2.8,0.8c-4,0.1-8.1,0.3-12.1,0c-5.2-0.4-10.4-1.8-15.6-1.8 c-8,0.1-16.1,1.1-24.1,1.8c-3.3,0.3-5.4-2.1-4.1-5.2c2.4-5.7,5.2-11.3,7.9-16.8c0.4-0.9,1.7-1.4,2.9-2.4c1.9,3.3,3.5,6.3,5.5,9.1 c0.8,1.1,2.6,2.2,3.9,2.1c1.1-0.1,2.7-1.7,2.9-2.8c1-5.3,2.4-10.8,2-16c-0.8-8.7-2.8-17.4-4.4-26c-0.5-3-2.6-6.6-1.6-8.7 c2-4.1,5.2-8.2,9-10.9c5.8-4.1,12.2-7.7,18.9-10.3c10.9-4.2,22.1-7.5,33.3-10.8c2.8-0.8,5.4-0.5,5.4,4.1c0,3,0.7,7.5,2.7,8.8 c4.6,3.1,10.1,6.2,15.4,6.6c15,1.2,24.2-6.5,27.9-21.3c1.6-6.6-0.8-11.8-5.4-15.8c-7.5-6.6-16.1-9.3-25.9-4.7 c-1,0.5-2.9,0.4-3.7-0.3c-10.3-8.1-22.7-6.8-33.9-5.2c-23.1,3.4-43.5,13.7-60.6,30.1c-1.2,1.1-3.9,2-5.1,1.4 c-2.6-1.2-5.7-2.4-4.3-7c1-3.2,0.7-6.9,0.6-10.4c-0.2-5.7-0.5-11.3,5.1-15.2c1.5-1,2.7-2.5,3.8-3.9c4.6-6.2,10-11.5,17.2-14.3 c1.8-0.7,4.9-0.8,6.3,0.2c8.1,6.4,17.6,5.8,25.9,3.2c17.6-5.5,22.6-20.9,16.5-36.6c-3.8-9.8-20.4-18.8-32.6-11.2 c-9.4,5.9-19.1,10.8-29.3,15.2c-8.3,3.6-15.6,9.6-23.1,14.9c-3,2.1-4.4,2-6.2-1.5c-5-9.9-10.3-19.6-15.7-29.3 c-1.5-2.6-3.5-5.5-6-6.9c-6.5-3.7-11.5,0.2-13.8,8.4c-2.1,7.4-1.1,15,1.3,22.2c4,12,8.3,23.9,12.4,35.8c0.3,0.9,0.3,2.1-0.1,2.9 c-3.1,7.4-6.2,14.8-9.7,22c-2.8,5.7-8.9,6-12.8,1.2c-2.8-3.5-5.6-7.1-9.1-9.8c-2.1-1.6-6.2-2.9-8.2-1.9c-2.1,1-3.3,4.9-3.8,7.7 c-1.1,6.5,1.6,12.1,6,17.2c-2,1.5-3.5,3-5.3,4.1c-7.8,5.1-14.4,11.6-19,19.7c-12,21-23.7,42.2-35.3,63.4c-1.6,2.9-3.3,4-6.6,4 c-9.8-0.2-19.7-0.1-29.9-0.1c0.7-5.6-2-7.8-6.8-8.6c-2.4-0.4-4.5-2-6.9-2.5c-2.7-0.6-5.5-0.9-8.3-0.9c-5.4,0.1-10.5,3.7-16.2,0.2 c-2.7-1.7-14.4,3.6-14.6,6.5c-0.4,4.9-4,5.5-7.2,7.5c-6.8,4.2-14.1,2.3-21.2,2.9c-5.4,0.5-11.2,0.1-15.9,2.2 c-9.4,4.2-18.2,3.4-27.5,0c-13.4-4.9-27.1-6.5-40.9-1.5C14.7,448.8,11.9,449.9,9,451z M175.2,265.8c-5.8-0.9-10.8,6.9-8.9,12.9 c2.4,7.7,5.2,15.7,9.6,22.3c11.2,16.9,26,30.6,42.7,41.9c11.5,7.8,22.5,16.8,36.9,19.4c5.5,1,10.7-2.3,10.3-7.8 c-0.4-4.7-1.4-10-3.9-13.8c-9-13.4-19.8-25.4-32.4-35.8c-12-10-23.6-20.5-35.7-30.4C188.9,270.5,183.7,266.2,175.2,265.8z M581.4,34.8c-0.7,0-1.4,0-2.2,0c-5.4,6.2-11,12.3-16,18.8c-2.2,2.9-4.5,2.8-6.9,2c-6.3-2-12.5-4.6-18.8-6.6 c-1.8-0.6-4.8-0.7-5.7,0.3c-1,1.1-0.9,4.1-0.2,5.8c2,4.5,4.8,8.6,6.7,13c0.9,2.1,1.1,5.1,0.3,7.2c-2.6,7-6,13.7-8.7,20.6 c-0.5,1.3-0.4,4.1,0.5,4.6c1.2,0.8,3.7,0.8,5.1,0.1c7.6-3.7,15.1-7.8,23.1-12c1.8,2.3,3.7,4.5,5.3,7c3.2,5.1,6,10.5,9.3,15.5 c0.7,1.1,3.1,1.8,4.6,1.6c0.9-0.1,2-2.3,2.1-3.7c0.3-3.6-0.1-7.3,0.2-11c0.3-4.1,0.9-8.4,5.6-9.9c4.9-1.6,10-2.7,15-4.2 c1.9-0.6,3.5-1.9,5.2-2.8c-1.3-1.7-2.3-3.9-4.1-5c-3.6-2.3-7.4-4.1-11.3-5.9c-4.7-2.1-7.1-5.2-6.6-10.7c0.4-5,0.4-10,0-15 C583.6,41.3,582.3,38,581.4,34.8z M204.2,427c5.9,1,10.2-1,12.6-6.5c2.7-6,0.9-10.9-3.8-15c-2.3-2-4.9-3.8-7.4-5.6 c-14.1-10.2-30-17.1-45.6-24.5c-11.4-5.4-22.9-10.4-35.7-11.3c-5.7-0.4-10.7,1.7-15,5.3c-2.7,2.2-2.6,5.8-0.8,8.1 c4,5.4,7.9,11.6,13.3,15.1c14,8.9,28.6,16.9,43.5,24.3C177.4,422.9,190.6,425.9,204.2,427z M590,264.2c0-2,0.3-4.1-0.1-6 c-0.4-1.8-1.1-4.4-2.4-5c-2.9-1.4-4.2,1.2-5.5,3.4c-3.2,5.3-6.4,10.6-9.9,15.7c-0.8,1.2-2.8,2.7-4,2.5c-6.7-1.3-13.2-3.2-19.9-4.6 c-1.9-0.4-3.9,0.1-5.9,0.2c0.2,2-0.1,4.2,0.7,6.1c1.1,2.7,2.8,5.2,4.4,7.6c1.9,2.8,1.8,5.4,0,8.2c-2.1,3.1-4.1,6.3-5.6,9.7 c-0.7,1.4-0.9,4-0.1,5c0.8,1,3.3,1.2,4.9,0.9c5.7-1.3,11.4-2.7,16.9-4.8c4.2-1.6,6,0.3,7.7,3.6c2.6,5.3,5.1,10.6,8,15.7 c0.7,1.3,3,2.9,4.1,2.6c1.4-0.3,3.3-2.3,3.6-3.8c1-5.1,1.7-10.3,2.1-15.5c0.4-5.6,3.1-8.2,8.5-8.5c3.7-0.2,7.4-0.9,11-1.9 c1.3-0.4,3.1-2,3.2-3.2c0.1-1.1-1.7-2.4-2.9-3.4c-0.7-0.6-1.7-0.9-2.6-1.3C590.5,279.7,589.7,279,590,264.2z M271.8,258 c2.8-3.2,5.5-6.1,7.9-9.3c1-1.3,2.1-3.9,1.6-4.4c-1.2-1.2-3.4-2.3-5-2.1c-3.9,0.4-7.8,1.2-11.4,2.5c-3.8,1.4-6.1-0.1-8.5-2.7 c-3.5-4-6.8-8.1-10.8-11.6c-2-1.7-5.3-2-8.8-3.2c0.2,3.6,0.1,5.6,0.5,7.5c1.3,5.5,2.7,11,4.3,16.5c0.9,3.2-0.1,5.1-3.4,5.8 c-3.2,0.6-6.4,1.2-9.6,2c-3.6,1-8.1,0.4-9.9,6.2c12,4.8,22.8,11.6,30.3,24.9c2.8-4.3,4.8-7.1,6.4-10.1c4.6-8.8,4.5-8.9,14-6.3 c4.6,1.3,9.2,2.5,14.6,4C283.9,267.9,276.5,264,271.8,258z M508.6,408.6c0.6,1.7,0.7,5.2,2.1,5.8c1.7,0.8,4.6-0.8,6.7-1.7 c2.5-1.1,5.2-2.3,7.2-4.2c2.6-2.4,4.3-1.6,6.2,0.6c3,3.5,5.9,7.1,9.4,10.2c1.3,1.1,4,1.4,5.7,0.9c0.9-0.3,1.2-3.1,1.3-4.8 c0.1-3.1,0.1-6.3-0.2-9.5c-0.4-4.2,1.8-6.2,5.3-7.8c4.3-2,8.4-4.2,12.4-6.7c1.1-0.7,2.5-3.2,2.1-3.9c-0.8-1.3-2.7-2.4-4.2-2.6 c-5.4-0.6-10.8-0.9-16.3-1.1c-3.2-0.1-4.8-1.2-5.3-4.5c-0.7-4.8-1.5-9.6-3-14.3c-0.6-2-2.9-3.5-4.5-5.2c-1.4,1.8-3.3,3.4-4.2,5.5 c-1.7,3.7-2.4,7.9-4.4,11.3c-1.2,2-4,3.6-6.4,4c-3.5,0.7-7.3,0-11,0.2c-4.1,0.2-5.5,2.9-3.4,6.3c0.8,1.2,1.9,2.3,3,3.3 c3,2.6,4.5,5.4,2.9,9.5C509.2,402.5,509.1,405.3,508.6,408.6z M88.8,355c3.2-0.1,4.5-2.5,2.2-5.3c-3.2-3.9-7-7.3-10.6-10.8 c-2.3-2.1-3.2-3.7-0.5-6.5c2.6-2.6,4.6-5.9,6.3-9.2c0.7-1.3-0.1-3.4-0.2-5.2c-1.8,0.3-3.8,0.2-5.3,1c-4.4,2.5-8.7,5.1-12.8,8.1 c-3.5,2.6-6.3,1.5-9.4-0.3c-5.9-3.5-11.7-7.1-17.7-10.3c-1.6-0.9-3.9-0.5-5.9-0.7c0.4,2,0.6,4.1,1.2,6.1c0.3,1.2,1.1,2.3,1.8,3.5 c6.2,11,9,8.8-2.6,18.3c-1.3,1-1.9,3.4-1.9,5.1c0,0.8,2.2,1.9,3.5,2.3c6.7,2.1,14.6,1.7,17,11c0.7,2.7,4.4,4.6,6.7,6.8 c1.2-2.9,3-5.7,3.4-8.7c1.2-8.5,2.1-9.2,10.7-7.4C79.2,353.7,83.9,354.2,88.8,355z M508.4,211.2c1.5,2.5,2.7,4,3.6,5.7 c2.2,4.2,4.1,8.6,6.4,12.7c0.7,1.1,2.6,1.5,4,2.3c0.5-1.1,1.4-2.2,1.6-3.3c0.2-2.3,0.1-4.7,0.1-7c-0.3-8.2-1.5-16.9,8.7-20.7 c0.1-0.1,0.3-0.2,0.3-0.4c1-1.9,1.9-3.9,2.9-5.8c-1.9-0.6-3.9-1.6-5.8-1.6c-10.7-0.2-10.8-0.1-13.8-10.4c-0.4-1.2-0.6-2.5-0.9-3.8 c-1-3.4-2-6.8-3-10.2c-0.7,0-1.3,0-2,0c-0.8,1.5-1.8,2.9-2.4,4.4c-1.1,3.1-1.9,6.2-2.8,9.4c-3.1,10.4-3.1,10.4-13.8,10.6 c-1.8,0-3.5,1-5.3,1.6c0.7,1.7,1.1,3.7,2.2,5.1c4,4.6,6.5,9.3,3.8,15.7c-0.9,2.1-0.3,5-0.1,7.4c0.1,1.1,1.1,2.8,1.9,2.9 c1.2,0.2,3-0.4,3.8-1.3C501.3,220.3,504.6,216,508.4,211.2z M414.6,53.8c1.8-1.3,4.6-3,7.1-5.1c1.4-1.2,2.2-3.1,3.2-4.7 c-1.9-0.4-3.9-1.3-5.7-1c-11.3,1.8-11.4,1.8-15.2-9.5c-0.1-0.3,0-0.7-0.2-1c-2.4-3.2-4.4-6.9-7.3-9.5c-2.6-2.3-5.5-0.2-5.5,3.2 c0,4.7,0.1,9.4,0,14.1c-0.1,6.3-0.5,6.3-7,6.8c-3.1,0.2-6.2,1.6-9.3,2.4c0,0.6,0.1,1.2,0.1,1.8c1.1,0.9,2.1,2.1,3.3,2.6 c5.9,2.4,9.1,6.2,9.4,13c0.1,2.5-1.7,7.1,2.9,7.9c4.4,0.8,4-3.9,5.6-6.3c2.9-4.3,4.4-4.5,8.1-1c3.4,3.2,6.8,6.3,10.3,9.2 c0.8,0.7,2.7,1,3.4,0.5c1-0.7,2.1-2.5,1.9-3.6C418.4,67.5,416.6,61.3,414.6,53.8z"/> <path d="M342,1c-7.1,19.3-14.3,38.7-21.4,58c-0.5-0.1-0.9-0.2-1.4-0.3c1.4,1.4,2.6,3.4,4.3,4c10,3.2,15.6,12,23.4,17.8 c11.4,8.5,22.6,17.3,34,25.9c8.2,6.2,16.7,12.2,24.6,18.7c9.5,7.9,19,15.9,27.6,24.7c12.4,12.7,23.5,26.4,27.1,44.7 c2.8,14.2-0.9,23.6-14.1,28.6c-11,4.1-22.8,6.8-34.4,8.6c-6.8,1.1-14.1-0.8-21.1-1.4c-5.6-0.4-11.2-0.7-16.7-1.3 c-11.8-1.5-23.7-3.2-35.5-4.8c-38.5-5.4-74.6-19.5-111.3-31.1c-5.9-1.9-12.2-3.3-17.3-6.4c-7.1-4.4-12-0.5-17.5,2.4 c-9.1,4.8-17.9,10.1-27.2,14.4c-20.7,9.7-41.3,19.5-62.4,28c-12.6,5.1-26.1,7.9-39.3,11.5c-11.5,3.1-22.9,6.2-34.5,8.6 c-6.4,1.3-13.1,1-19.7,1.5c0-1.7,0-3.3,0-5c3-0.3,6-0.7,10.2-1.2c-4.2-3.6-7.2-6.2-10.2-8.8c0-2,0-4,0-6c5.2,4,10.3,8.1,15.5,11.9 c1.2,0.9,3.2,1.5,4.7,1.2c3.9-0.6,7.8-1.7,10.9-2.4C29.8,232.5,19.4,222.3,9,212c0-5.7,0-11.3,0-17c15.8,14.8,34.2,26,52.7,37.1 c-0.5,0.7-0.9,1.4-1.4,2.1c-8.8-3.3-16.2-9.1-23.9-14.4c-7.8-5.4-15.2-11.2-23.5-17.3c4.6,5.6,7.9,11.1,12.6,15 c9.4,7.8,19.2,15.3,31.1,19.3c6.3,2.1,11.7-0.9,17.8-3.4c-4.7-3.1-8.7-5.6-12.5-8.4c-11.2-8.2-22.6-16.3-33.5-24.9 c-6.8-5.3-13-11.4-19.4-17.1c0-1.3,0-2.7,0-4c4.5,3.4,9.9,6,13.3,10.3c9.8,12.2,22.7,20.3,35.5,28.6c6,3.9,12.5,7.2,18,11.7 c2.6,2.1,4.5,2.8,7.3,1.8c9.6-3.4,19.2-6.9,28.8-10.5c7.9-2.9,15.7-6,23.5-9.1c0-0.6,0.1-1.2,0.1-1.9 c-23.2-8.6-43.8-21.4-63.3-36.3c-14.5-11-51.4-45.8-52.4-52c2.3,1.7,4.2,3.8,6.2,5.8c9.3,9,18.4,18.2,28,26.8 c6.1,5.5,13.2,9.9,19.8,14.9c7.8,5.9,15,12.7,23.3,17.6c12.1,7.1,24.9,12.7,37.5,19c0.8,0.4,1.6,0.9,2.4,1.2c1.5,0.6,3.4,2,4.5,1.6 c3.6-1.2,6.9-3.2,11-5.2c-2-1.1-3-1.9-4.3-2.3c-7.6-2.4-15.3-4.4-22.7-7.2c-24.4-9.4-46.3-22.9-64.8-41.6 c-7.2-7.3-13.7-15.2-21.2-22.2C29.7,121.1,19.2,112.7,9,104c0-5,0-10,0-15c0.6,0.5,1.4,0.8,1.9,1.4c3.8,5,7.1,10.6,11.4,15.1 c16.4,17.5,34,33.6,54.3,46.5c9.5,6.1,19.5,11.6,29.3,17.2c12,6.9,24.3,13.2,37.8,17.1c7.4,2.2,15.7,3.1,21.4,9.4 c0.2,0.3,1.2-0.1,2.6-0.3c-1-1.5-1.4-2.8-2.3-3.4c-8.6-5.4-17-11.1-25.9-15.8c-17-9.1-34.7-16.9-51.4-26.5 c-14.4-8.2-28.9-16.9-41.6-27.4C33.8,112,23.1,99.1,11.7,87.2c-1.1-1.1-1.3-3.1-2-4.7c0.6-0.3,1.1-0.7,1.7-1c2.2,2.3,4.4,4.6,6.6,7 c2.7,2.9,5.1,6.1,7.9,8.8c6.5,6.4,13.2,12.6,19.8,18.9c1.1,1,2.2,2,3.4,2.8c13.3,8.5,26.3,17.6,40,25.4 c14.9,8.5,30.4,15.8,45.8,23.5c3.6,1.8,7.6,2.9,11.4,4.4c-6.1-4.9-12.6-8.9-19.2-12.7C114.3,152,101.1,145,88.7,137 c-15.2-9.8-29.9-20.4-44.8-30.7c-2.8-2-6.9-3.6-7.9-6.3c-2.1-5.5-6.5-8.4-10.4-11.9C20.2,83.5,14.5,79.4,9,75c0-1.7,0-3.3,0-5 c1.7,0.9,3.6,1.5,5.1,2.7c10.5,8.1,20.7,16.6,31.5,24.4c7.4,5.3,15.5,9.7,23.4,14.3c13.5,8,26.8,16.3,40.6,23.7 c31.8,17.1,64.9,31.3,98.5,44.6c31.7,12.5,64.5,21.5,97,31.3c18.1,5.5,36.6,8.5,55.4,10c17.2,1.4,34.4,3.2,51.7,3.8 c12.8,0.5,24.8-4.2,36.2-9.7c5.8-2.8,9.1-9.8,7.6-15.9c-1.4-5.5-3.3-10.9-5.4-16.2c-4-10.6-12-18.4-19.5-26.4 c-19.4-20.9-42.8-36.8-65.5-53.6c-11.8-8.8-22.7-18.9-34.3-28.1c-3.7-3-8.3-5-12.8-6.7c-1.4-0.5-4.3,1-5.4,2.4 c-0.7,0.9,0.3,4.1,1.4,5.1c5,4.5,10.6,8.3,15.5,12.8c9.7,9,19.1,18.2,28.5,27.4c1.9,1.8,3.3,4.1,5.2,5.9 c9.8,8.6,19.5,17.3,25.3,29.4c3.8,7.9,8.2,15.6,11.3,23.8c3.3,8.8,2.8,14.2-2.9,17.7c-3.1,1.9-6.8,3.5-10.4,4.1 c-9,1.7-18,3.6-27.1,3.9c-13.2,0.4-26.6,0.1-39.8-1c-14.8-1.3-29.6-3.5-44.3-5.9c-8.8-1.4-17.5-3.6-26.1-6 c-2.8-0.8-4.9-3.6-7.7-4.8c-15.5-6.8-31.5-12.6-46.5-20.3c-22.2-11.4-44.2-23.4-65.5-36.4C109.3,113.7,88.9,100,69,85.8 c-12.1-8.7-23.8-18.4-34.2-29C26.4,48.3,18.8,39,9,32C9,21.7,9,11.3,9,1c2.3,0,4.7,0,7,0c5.5,5.3,11,10.7,16.5,16 c7.7,7.5,15.5,15,23.3,22.3c6.9,6.5,13.5,13.4,21.2,19c17.3,12.5,34.8,24.9,53,36c24,14.8,48.7,28.6,73.3,42.3 c17.1,9.5,34.9,18.1,53.8,23.2c17.3,4.7,34.9,8.4,52.6,11c16.7,2.5,33.8,3.1,50.7,4.1c6.1,0.4,8.7-3.3,7.2-9.3 c-2.3-9-7.2-16.5-13.5-23c-9.7-10-19.5-20.1-29.8-29.6c-6-5.5-12.7-10.4-19.6-14.6c-9.8-5.8-10.1-5.4-16.8,5.1 c5.3,3.6,10.8,7.2,16,10.9c4.5,3.2,9,6.5,13.2,10.2c3.7,3.3,4.9,7.5,2.9,12.5c-1.8,4.7-5.8,6.8-10,6.7c-11.3-0.3-22.7-1.2-34-2.4 c-14.3-1.5-26.6-8.9-39-15.2c-17.8-9-34.8-19.3-52.3-28.9c-7.4-4.1-15.4-7.4-22.6-11.9c-20.4-12.7-40.4-26.1-58.7-41.8 c-10-8.5-21.8-13.9-32.6-21C61.8,16.6,54.2,8.3,46,1c2.7,0,5.3,0,8,0c2.6,2.7,5.3,5.4,7.9,8.1c0.3-0.3,0.6-0.7,0.8-1 C61.5,5.7,60.2,3.4,59,1c1.3,0,2.7,0,4,0c0.3,0.7,0.4,1.6,0.8,2.2c2.7,4.4,5.5,8.7,8.3,13c3.5,5.4,9.6,6,14.7,8.5 c-1.9-3.6-4.4-6.6-6.4-9.9C77.7,10.3,72.2,7.3,73,1c0.7,0,1.3,0,2,0c1.3,2.1,2.3,4.5,3.9,6.3C87,16.6,95.3,25.8,103.5,35 c3.2,3.6,5.9,8.1,9.8,10.8c17.4,12.2,35.1,24,52.9,35.7c4.3,2.8,9.1,4.8,13.6,7.2c-0.6-1.9-1.7-2.8-2.8-3.7 c-10-7.9-20.2-15.6-30.1-23.7c-11.2-9.3-22.3-18.7-33.1-28.4c-7.4-6.6-14.4-13.7-21.5-20.7c-1.1-1.1-1.5-2.8-2.2-4.2 c1.6-0.3,2.4-0.1,3,0.3c4.6,3.8,9.1,7.6,13.6,11.4c3.4,2.9,7.3,5.5,10,9c11.2,14.2,25.1,25.3,39,36.5c4.2,3.4,9,5.9,13.6,8.9 c-2.9-5-6.6-9.2-10.2-13.4c-5.1-6-10-12.2-15.3-18c-6.1-6.8-12.3-13.6-18.9-20c-3.9-3.8-8.8-6.5-12.9-10.2 c-2.5-2.3-4.3-5.4-6.4-8.2c0.5-0.4,0.9-0.9,1.4-1.3c6.3,5.4,12.6,10.9,18.9,16.3c0.4-0.4,0.7-0.8,1.1-1.1c-1.4-1.6-2.9-3.2-4.3-4.8 C119.2,9.1,115.6,5.1,112,1c4.3,0,8.7,0,13,0c2.2,3,4.1,6.3,6.7,9.1c9.2,9.8,18.6,19.4,28,29.1c0.8,0.8,1.8,1.3,3.7,2.6 c-7.5-11.1-14.2-21.2-20.9-31.2c0.6-0.5,1.2-0.9,1.9-1.4c6.9,8.7,13.4,17.7,20.8,25.9c5.9,6.6,12.7,12.5,19.5,18.1 c6.1,4.9,12.9,8.9,19.3,13.4c11.5,8.1,22.8,16.3,34.2,24.5c8,5.8,17.6,8.9,25.2,15.8c8,7.2,8.7,6.4,14.4-2.6c0.1-0.1,0-0.3-0.1-1.1 c-25.7-9.8-50.5-22-73.3-38.1c-23.1-16.3-42-36.6-58.2-59.6c2.9,1.3,5.5,3,7.5,5.2c8.4,9.1,15.7,19.4,25,27.3 c13.7,11.8,28.4,22.6,43.5,32.7c10.9,7.3,23,13,34.8,18.9c7.5,3.8,15.5,6.6,23.8,10.1c1.1-1.5,2.7-3.7,4.5-6.3 c-2.2-1.1-3.9-1.8-5.3-2.5c-0.5,1.9-0.5,4.2-1.3,4.5c-1.2,0.5-3.2,0-4.4-0.7c-10.5-6-20.9-12.2-31.4-18.1 c-16.4-9.3-31.2-20.9-45.8-32.8c-8.5-7-17-14-25.2-21.3c-6.8-6.1-13.3-12.7-17-21.4c1.3,0,2.7,0,4,0c6.6,7.1,12.5,14.9,19.9,21.1 c16.1,13.7,32.7,26.8,49.5,39.6c6.4,4.9,13.8,8.5,20.7,12.8c0.4-0.5,0.7-1,1.1-1.5c-0.9-0.7-1.9-1.4-2.8-2.1 c-16.2-12.5-32.4-25-48.5-37.5c-2.6-2.1-4.9-4.6-7.6-6.6c-3.3-2.6-7.3-4.4-10.2-7.4c-4.4-4.7-8.4-9.9-10.2-16.8 c9.1,9,17.9,17.6,26.7,26.2c0.6-0.6,1.1-1.1,1.7-1.7c-4.4-4.7-8.9-9.3-13.3-14C182.2,9,178.6,5,175,1c1.7,0,3.3,0,5,0 c1.9,1.8,3.8,3.5,5.7,5.3c1.9,1.8,3.9,3.4,5.5,5.3c8.5,9.8,16.4,20,28,26.5c6,3.3,11.5,7.4,17.4,11c8.3,5.1,16.4,10.7,25.2,14.8 c9.8,4.5,20.6,7.1,30.5,11.6c4.2,1.9,6.6,1.3,8.7-1.9c5.1-8.2,10.2-16.4,14.8-24.9c4.1-7.7,3.8-7.8-4.6-10.9 c-1.1-0.4-2-1.2-3.1-1.5c-15-3.9-28.4-11.3-40.8-20.3c-3.6-2.7-7.4-5.1-11.1-7.7c-0.4-0.4-0.8-0.8-1.2-1.2c-1.6-2-3.3-3.9-4.9-5.9 c2.3,0,4.7,0,7,0c18.4,17.4,39.7,28.9,64.9,33.2C300.2,25.6,278.8,16.7,261,1c2.3,0,4.7,0,7,0c11.4,6.5,22.6,13.4,34.2,19.5 c5.8,3,12.5,4.6,18.9,6.4c1.3,0.4,3.2-1.1,4.8-1.8c-1.1-1.2-1.9-3.1-3.3-3.6c-6.3-2.7-13-4.5-19-7.5C296.2,10.1,289.2,5.3,282,1 c2,0,4,0,6,0c12.7,7.4,25.8,13.6,40.9,14.1c-2.5-2.1-5.4-3.1-8.3-4.1c-9.5-3.3-19.1-6.7-28.6-10c4,0,8,0,12,0 c6.2,2.1,12.4,4.2,18.7,6.3c0.1-0.4,0.3-0.9,0.4-1.3c-3.4-1.7-6.7-3.3-10.1-5C322.7,1,332.3,1,342,1z M266.2,132.5 c0.5,0.3,1.1,0.8,1.8,1c13.9,3.8,28.1,5,42.4,4.4c1.7-0.1,3.7-1.9,4.6-3.5c0.5-0.9-0.6-3.5-1.7-4.3c-8.6-6.4-17.4-12.6-26.1-18.9 c-2.5-1.8-4.3-0.9-5.9,1.2C276.3,118.9,271.3,125.6,266.2,132.5z M158.2,51.3c-0.3,0.2-0.7,0.5-1,0.7c5.2,6,9.8,12.6,15.6,18 c12.6,11.7,26.1,22.3,41.7,29.9c1.5,0.7,2.7,2,4,3.1c1.9,1.6,3.6,3.8,5.7,4.9c4,2.1,8.7,3.1,12.4,5.6c4.1,2.6,11.9,2,10.1,10.5 c0,0.2,0.3,0.5,0.5,0.8c4.2,4.4,12.9,3.3,16.8-2.4c-18.5-10.6-39.4-16.7-56-30.5C191.7,78.1,174.8,64.8,158.2,51.3z M57.5,144.1 c13.5,21.6,89.1,60.3,104.6,53.2C123.5,185.6,89.9,165.9,57.5,144.1z M193,181.8c0.1-0.5,0.1-1.1,0.2-1.6 C152.5,163.8,113,145,75.2,122.7c4.2,3.7,8.7,6.7,13.4,9.5c13,7.7,26.1,15.5,39.2,23c12.1,7,23.7,14.7,37.2,19.1 c7,2.3,13.3,7,19.9,10.6c-0.1,0.5-0.3,0.9-0.4,1.4C187.3,184.8,190.2,183.3,193,181.8z M289.4,88.9c1.6-2.4,3.1-4.7,4.6-7 c-2.6-1.3-5-3.1-7.7-3.8c-17.2-4.6-32.8-12.4-47.3-22.7c-4.1-2.9-8.8-5.1-13.2-7.7c-0.2,0.4-0.4,0.7-0.6,1.1 C245.3,63.6,264.5,79.9,289.4,88.9z M213.5,89.5c16.1,13.1,35.9,19,53.8,28.7c0.3-0.6,0.6-1.2,0.9-1.8 C250,107.4,231.7,98.4,213.5,89.5z M222.8,87.2c-12.6-9.6-25.1-19.2-37.7-28.8c-0.3,0.5-0.7,0.9-1,1.4 C195.6,70.8,207.8,80.8,222.8,87.2z M51.9,240.2c-0.1-0.4-0.3-0.8-0.4-1.1c-9.3-6.3-18.6-12.6-28.2-19c0,1.1-0.3,2,0,2.3 c8.1,6,16.2,12,24.4,17.8C48.7,240.8,50.5,240.2,51.9,240.2z M158.6,46.5c0.1-0.1,0.3-0.2,0.4-0.3c-5.7-5.7-11.5-11.5-17.2-17.2 c-0.2,0.2-0.4,0.4-0.5,0.5C147,35.2,152.8,40.9,158.6,46.5z"/> <path d="M9,451c2.9-1.1,5.7-2.2,8.6-3.2c13.8-5,27.5-3.4,40.9,1.5c9.3,3.4,18,4.2,27.5,0c4.7-2.1,10.6-1.8,15.9-2.2 c7.1-0.6,14.4,1.3,21.2-2.9c3.2-2,6.8-2.5,7.2-7.5c0.2-2.8,11.9-8.1,14.6-6.5c5.7,3.5,10.8-0.1,16.2-0.2c2.8-0.1,5.6,0.3,8.3,0.9 c2.4,0.5,4.5,2.2,6.9,2.5c4.8,0.8,7.5,3,6.8,8.6c10.2,0,20.1-0.1,29.9,0.1c3.3,0.1,5-1.1,6.6-4c11.6-21.2,23.3-42.4,35.3-63.4 c4.6-8.1,11.1-14.6,19-19.7c1.8-1.2,3.4-2.6,5.3-4.1c-4.4-5.1-7.1-10.7-6-17.2c0.5-2.8,1.8-6.7,3.8-7.7c2-1,6.1,0.3,8.2,1.9 c3.5,2.7,6.3,6.3,9.1,9.8c3.9,4.9,10,4.6,12.8-1.2c3.5-7.2,6.5-14.7,9.7-22c0.4-0.8,0.4-2,0.1-2.9c-4.1-12-8.4-23.8-12.4-35.8 c-2.4-7.2-3.4-14.8-1.3-22.2c2.3-8.2,7.3-12.1,13.8-8.4c2.5,1.4,4.5,4.3,6,6.9c5.4,9.6,10.7,19.4,15.7,29.3 c1.7,3.4,3.1,3.6,6.2,1.5c7.5-5.2,14.8-11.3,23.1-14.9c10.2-4.4,19.8-9.3,29.3-15.2c12.2-7.6,28.7,1.4,32.6,11.2 c6.1,15.7,1.1,31.1-16.5,36.6c-8.3,2.6-17.8,3.2-25.9-3.2c-1.4-1.1-4.4-0.9-6.3-0.2c-7.3,2.8-12.6,8.1-17.2,14.3 c-1.1,1.5-2.3,2.9-3.8,3.9c-5.6,3.8-5.3,9.4-5.1,15.2c0.1,3.5,0.4,7.2-0.6,10.4c-1.4,4.5,1.7,5.8,4.3,7c1.3,0.6,4-0.3,5.1-1.4 c17.1-16.4,37.5-26.7,60.6-30.1c11.2-1.6,23.5-2.9,33.9,5.2c0.8,0.7,2.7,0.7,3.7,0.3c9.8-4.5,18.4-1.9,25.9,4.7 c4.6,4,7,9.2,5.4,15.8c-3.7,14.8-12.9,22.5-27.9,21.3c-5.3-0.4-10.8-3.5-15.4-6.6c-2-1.4-2.7-5.8-2.7-8.8c0-4.5-2.6-4.9-5.4-4.1 c-11.2,3.4-22.4,6.6-33.3,10.8c-6.6,2.5-13,6.2-18.9,10.3c-3.7,2.7-6.9,6.8-9,10.9c-1,2.1,1.1,5.7,1.6,8.7c1.6,8.7,3.6,17.3,4.4,26 c0.5,5.3-1,10.7-2,16c-0.2,1.1-1.9,2.8-2.9,2.8c-1.3,0.1-3.1-1-3.9-2.1c-2-2.7-3.5-5.8-5.5-9.1c-1.3,1-2.5,1.5-2.9,2.4 c-2.8,5.6-5.5,11.1-7.9,16.8c-1.3,3.1,0.8,5.4,4.1,5.2c8-0.7,16-1.7,24.1-1.8c5.2-0.1,10.4,1.4,15.6,1.8c4,0.3,8.1,0.1,12.1,0 c0.9,0,1.9-0.7,2.8-0.8c3.5-0.6,8,0.1,10.1-1.9c1.7-1.6,0.5-6.3,0.6-9.7c0.2-8.8,2.7-10.1,11.5-8.9c8.8,1.2,17.9,1.4,26.8,1.3 c6.1,0,7.1,0.5,6.6,6.6c-0.1,0.8-0.2,1.6-0.4,2.4c-0.6,2.4-1.3,4.8-1.9,7.2c3.5,0.4,7,1.4,10.4,1.1c7.1-0.7,14-3.2,21.5-1.4 c2.1,0.5,4.9-1.9,7.3-3.1c2.4-1.2,4.7-3,7.2-3.4c1.4-0.2,3.3,1.8,4.9,3c1.3,1.1,2.4,3.3,3.7,3.4c8.8,1,17.7,2.3,26.5,2.1 c6.2-0.2,11.8,0.8,17.7,1.8c4.4,0.8,9.8,0.8,13.4-4.8c2.9-4.5,8.5-5.2,13.9-4.8c6.9,0.5,13.9,0.7,20.9,1c0,4.7,0,9.3,0,14 c-6.4,0.3-12.9,0.8-19.3,0.9c-3.4,0.1-6.9-0.9-10.3-0.9c-4.9,0.1-9.9,0.9-14.8,0.8c-3.5,0-7.1-0.9-10.6-1.4c-1-0.1-2-0.6-2.9-0.4 c-13.1,3.1-25.7-3.3-38.7-2.1c-2.1,0.2-4.3-0.6-7.3-1c1.6,4.8,2.5,8.5,7,10.1c9.1,3.4,13.4,9.9,14.2,19.7c0.3,4.2,3.6,8.1,5.2,11.5 c3.6-3,6.7-5.8,10.2-8.1c0.8-0.5,3,1.2,5,2.1c-1.9,2.2-3.3,3.8-5.3,6.1c11.3,3.2,16.4,10.5,14.5,21c3.2,0.9,7.6,1.3,7.9,2.5 c0.7,3,0.4,7.2-1.4,9.5c-3.2,4.3-0.6,5,1.9,7.7c5.7,6.3,10.7,13.3,15.2,20.5c1.8,2.8-2.9,8.6-7.5,10.2c-7.4,2.7-14.9,5.2-22.2,8.1 c-4.6,1.8-13.2-0.2-15.9-4.5c-0.6-0.9-1.4-1.6-2.2-2.4c-3.1,3.8-7.9,0.8-11.4,2.9c-7.3,4.4-14.9,8.4-23.5,4.9 c-3.9-1.6-7-5.2-10.8-8.1c-3.2,6.4-11.2,5.4-17.5,8c-1.5,0.6-4.4-0.4-5.7-1.6c-0.9-0.9-0.1-3.5,0-5.3c0.1-1.6,0.2-3.2,0.3-4.7 c-0.5-0.1-1-0.1-1.4-0.2c-2.1,2.3-4,4.7-6.2,6.8c-4,3.7-8.5,5.4-13.9,3.3c-2.4-0.9-4.5-1.7-7.2,0.7c-10,9.1-20.9,6.2-28.6-3.5 c-1.3-1.6-1.4-4.9-0.9-7.1c1.7-7.1,4.1-13.8,11-17.9c3.8-2.3,7.8-4.7,10.7-8.1c1.7-2,1.7-5.8,1.9-8.8c0.2-3.7,1.8-7.3-0.4-11.3 c-1-1.8,1-6,2.7-8.2c2-2.5,4.9-2.3,7.9-0.1c0.8,0.6,4.4-1.3,5.5-2.8c4.3-6.4,8.7-12.5,15.5-16.9c2.3-1.5,2.2-6.7,3.1-10.3 c0.3-1.4,0.1-3,0-4.5c0-3.7,0.4-7.2,4.7-8.1c4.6-1,7.5,1.3,9.3,5.4c0.4,1,1.3,1.8,1.6,2.2c1-6.2,2-12.3,3-18.5 c-0.4,0-1.8-0.1-3.3-0.2c-6.4,0-12.7,0-19.1,0c-0.7,0-1.4,0.2-2-0.1c-11-4.8-21.6-1.9-32.2,1.5c-1.5,0.5-3.2,0.4-4.9,0.6 c-5.4,0.6-10.7,1.8-16.1,1.8c-5.7-0.1-11.3-1.3-17-2.2c-12.1-1.9-24.1-1.3-36,1.8c-0.5,0.1-0.9,0.9,0.1,1.2c1.3,3.4,2.4,6.8,4,10 c1.2,2.6,3,4.9,5.1,8.2c1.6-2.7,2.4-4.7,3.8-6.2c1.1-1.2,3.3-2.6,4.5-2.2c1.4,0.5,3.2,2.7,3.1,4.2c-0.4,12.6-1,25.1-1.8,37.7 c-0.5,8.2-1.1,16.4-2.1,24.6c-1,8.2-1.5,16.8-4.2,24.5c-4.6,13-14.6,20.1-28.3,22.9c-11,2.3-21.1-1.8-31.7-2.5 c-8.5-0.6-16.6-1-24.8,1.8c-2.9,1-6.1,1.4-9.1,1.5c-7.7,0.2-15.4,0.7-23.1-0.1c-8.7-0.9-17.5-2.2-25.9-4.6 c-10.2-3-20.2-1.6-30.3-0.9c-13.7,0.9-27.3,1.9-40.8-2c-5-1.4-10.1-2.9-14.8-4.9c-13.3-5.8-13-13.2-11.5-24.5 c2-14.6,12.9-22.8,23.5-30.9c11.3-8.7,23.9-16.1,33.8-26.1c8.2-8.2,13.5-19.3,19.7-29.3c1.7-2.7-0.7-3.7-3.3-3.7 c-4.7,0-9.4-0.1-14.1,0c-3.6,0.1-7.4,0-10.7,1.1c-7.2,2.3-14.2,3.2-21.7,2c-7.3-1.2-15-0.4-21.9-2.5c-5.5-1.7-10.1-1.7-14.3,1.4 c-5.2,3.8-10.3,4.1-16.6,3.3c-8.9-1.1-17.8-0.7-26.4,4c-4.2,2.3-10.6,1.7-15.8,0.9c-8.1-1.4-16-4.2-24-6.2 c-9.6-2.4-18.9-0.8-27.9,2.6c-2.3,0.9-4.6,1.6-6.9,2.4C9,455,9,453,9,451z M302.7,346.8c-2.1,0.5-4.1,0.6-6,1.4 c-2.5,1.1-4.9,2.7-7.3,4c-13.7,7.8-25.8,17.2-33.4,31.6c-13.2,24.8-26.4,49.6-40.1,74.1c-6.1,11-11.9,22.5-22,30.6 c-11.3,8.9-23.3,16.8-34.7,25.6c-8.5,6.6-15.9,14.2-18,25.5c-1.2,6.6,0.6,12.1,6.5,15.7c15.1,9.1,32,10,49,9.4 c6.1-0.2,12.1-1.1,18.2-1.7c10.7-1,20.9,1.8,31,4.6c12.6,3.4,25.9,5,37.7,1.4c17.2-5.3,33.4-3.2,50.1-0.5 c15.5,2.5,33.8-5.9,37.1-23.2c2.2-11.4,3-23.1,4.1-34.7c1.1-11.2,2-22.4,2.9-33.6c0.1-1-0.3-2-0.6-3.9c-1.8,2.9-2.8,4.9-4.2,6.6 c-1.6,1.9-3.6,3.5-5.5,5.3c-1.2-2.1-2.9-4.1-3.4-6.4c-1.2-4.7-1.8-9.6-2.7-14.4c-0.5-0.1-1-0.1-1.5-0.2c-3.5,4.7-7.1,9.3-10.5,14.1 c-0.6,0.8-0.4,2.3-0.2,3.4c2,9.2,1.2,16.3-8.6,21.4c-2.4,1.3-5.1,4.6-7.8,1.7c-2.8-3,0.5-5.8,2.2-8.1c1.9-2.7,2.4-5,0.9-8.2 c-2.9-5.9-5.3-12.1-7.9-18.2c-0.4-0.9-1.2-1.7-2.1-2.9c-6.6,6.9-12.8,13.4-18.8,19.9c-2.3,2.5-6.5,2.4-7.7-0.9 c-1.8-5.2-2.9-10.6-4.3-15.9c-0.5-1.8-1.1-3.6-1.6-5.4c-1.9,0.9-3.9,1.5-5.6,2.6c-6,4.2-11.9,8.6-18,12.7c-1.3,0.9-3.2,0.6-4.9,0.9 c-0.2-2-1-4.2-0.5-6.1c0.8-3.1,2.6-6,3.6-9.1c7-21.6,13.8-43.4,25.5-63.1c0.9-1.6,2.8-4.1,3.6-3.9c1.9,0.6,3.8,2.2,4.8,3.9 c2.1,3.5,3.6,7.4,5.7,11.8c1.6-1.8,2.4-2.7,3.2-3.7c3.9-4.7,7.5-9.7,11.7-14c3.6-3.7,6.1-2.7,7.5,2.3c1.5,5.3,3.4,10.5,5.1,15.8 c0.5,0,1,0,1.5,0c2.2-3.9,4.5-7.9,6.6-11.9c3-5.6,6.4-5.8,10.1-0.6c2.6,3.7,5.5,7.1,8.9,11.4c1.2-2.7,1.8-4.4,2.8-5.8 c1.5-2.2,3.4-4.2,5.1-6.4c1.7,2.1,3.5,4.2,4.9,6.5c1.4,2.1,2.3,4.5,3.5,6.8c0.5-0.2,0.9-0.4,1.4-0.6c0.1-1.1,0.3-2.3,0.2-3.3 c-1.6-9.5-2.8-19.1-5-28.4c-3.5-14.4-11.9-25.6-24.4-33.7c-6.7-4.3-6.7-4.1-9.6,3c-0.5,1.2-2.2,1.8-3.3,2.7 c-0.8-1.2-2.5-2.6-2.3-3.7c0.9-4.9,1.5-10.2,3.6-14.6c8.6-18.5,20.6-34.3,38.7-44.7c1.2-0.7,2.1-2.6,2.2-4c0.2-5.5,0.1-11,0.1-16.5 c0-0.9,0.1-1.8,0.2-2.7c-1.1-0.1-2.3-0.5-3.1-0.1c-17,7.8-32.5,17.9-44.3,32.5c-5.3,6.5-9.8,13.9-13.5,21.4 c-4.6,9.5-7.8,19.7-11.8,29.4c-0.7,1.6-2.2,2.9-3.4,4.3c-0.5-0.2-0.9-0.3-1.4-0.5C302.7,353.1,302.7,350.3,302.7,346.8z M301.7,463.1c1.4-1.9,2.3-3.5,3.6-4.8c2.8-2.9,5.8-5.3,9.6-1.1c0.5,0.6,2,0.3,3.1,0.3c2.8-0.1,5.7-0.1,8.4-0.5 c3.8-0.6,5.4,1.1,6,4.6c0.1,0.5,1.2,1.3,1.9,1.3c3.6,0.1,4.6,2.2,4.9,5.5c0.3,3.6,4.1,5,6.5,2.4c5.1-5.8,13.8-10.4,8.5-20.6 c-0.3-0.5,0-1.3-0.1-2c-1.1-7.6,1.7-14.2,4.8-20.8c0.7-1.5,1.4-4,0.7-5c-3.3-5-7-9.7-11.2-15.2c-3.5,6-6.3,11.1-9.4,16.1 c-0.7,1.2-2.1,2.6-3.3,2.6c-1.2,0.1-2.8-1.1-3.7-2.2c-1-1.2-1.5-2.9-2-4.4c-1.7-4.8-3.4-9.6-5.1-14.3c-0.6-0.1-1.2-0.3-1.8-0.4 c-4.2,5.9-8.4,11.9-12.8,17.7c-1,1.3-2.9,2.6-4.4,2.6c-0.9,0-2.2-2.2-2.9-3.6c-1.9-4.1-3.5-8.3-5.7-13.6c-2.1,3.7-3.6,5.7-4.4,8 c-7.1,18.2-14,36.4-20.9,54.7c-0.3,0.7,0.1,1.6,0.2,2.5c0.8-0.3,1.8-0.4,2.5-0.9c4.6-3.5,9-7.2,13.6-10.5 C296.1,455.7,295.1,455.1,301.7,463.1z M454.1,328c-3.1-4.8-7.9-6.1-12.6-5.8c-9,0.6-18.1,0.9-26.8,3.1 c-18.8,4.6-34.6,14.9-48.8,28.1c3.7,5.3,7.1,10.1,11.3,16c7.1-10.9,17.6-15.4,28-19.8c12.9-5.4,25.7-11.9,40.3-11.6 c1.4,0,3.2-1,4.1-2.1C451.3,333.3,452.6,330.5,454.1,328z M320.5,307.3c5.6-6.6,10.1-11.8,14.4-17.2c0.6-0.8,0.8-2.6,0.3-3.4 c-5.9-11-11.8-22-18-32.9c-0.9-1.7-3.3-2.5-5-3.8c-1.4,2.1-2.9,4.1-4.1,6.3c-0.4,0.8-0.2,2-0.1,3c1,6.6,1.4,13.4,3.1,19.8 C313.6,288.3,317.1,297.2,320.5,307.3z M425,276.2c0-10.1-9.5-19.6-18.8-20.3c-8.6-0.7-21.9,11.6-22.1,22.7 c-0.2,9.1,9.1,17.6,18.9,17.4C415.3,295.7,425.5,288.7,425,276.2z M486.6,341.6c-0.3-5.6-2.6-10.1-7.6-13.1 c-4.5-2.7-9-3.7-13.9-1.2c-6.1,3-7.5,9.2-10.1,14.5c-2.7,5.5,2.1,13.1,8.5,13.8c-1.7-8.5,0.3-14.9,5.6-17.7 C475.8,334.5,480.4,335.5,486.6,341.6z M433.5,564c4.6-0.1,9.3-4.8,11.6-10.8c1.5-3.8,0-6.1-2.7-7.9c-4.1-2.8-9.4,2.3-13.5-1.6 c-2,4.2-4.6,8.2-5.6,12.6C422.6,559.3,429.8,564.1,433.5,564z M514.3,560c8.1,0,14.7-4,14.6-8.8c-0.1-5.9-4.1-8.7-13.1-9.1 c-4.6-0.2-9.9,5.4-9.9,10.5C506,557.2,509.1,560,514.3,560z M136.4,436.8c-0.1,0.8-0.2,1.6-0.3,2.4c1.8,0.9,3.6,2.5,5.5,2.7 c9.1,1.2,18.2,2.2,27.3,3c1.6,0.1,3.6-1.3,5.1-2.5c0.6-0.5,0.4-3.3,0.4-3.3c-4.6-0.7-8-5.4-13.7-3.6c-4.4,1.4-9.4,1-14.1,1.3 C143.2,436.9,139.8,436.8,136.4,436.8z M451.5,438.1c0-0.5,0-1,0-1.4c-2.9-0.6-6-0.9-8.8-2c-1.2-0.5-1.6-2.8-2.4-4.3 c1.6-0.3,3.3-0.9,4.8-0.7c3.8,0.6,7.7,1.3,11.4,2.5c1.3,0.4,2.2,2.2,3.3,3.4c0.7,0.8,1.7,2.3,2.2,2.2c1.8-0.5,3.8-1.3,5.2-2.6 c1.2-1.1,1.8-3,2.6-4.5c-1.6-0.5-3.1-1.4-4.8-1.6c-7.9-1.1-15.8-2.1-23.8-2.9c-1.4-0.1-4,0.6-4.3,1.6c-0.8,2.5-1,5.2-0.8,7.9 c0.1,1.1,1.7,3.1,2.6,3.1C443,438.8,447.3,438.4,451.5,438.1z M518,497.2c-0.4-0.2-0.9-0.4-1.3-0.6c-1.4,1.8-3.8,3.5-4.1,5.5 c-0.8,4.4-3.5,6.2-7,8c-3.6,1.9-6,5.1-6.3,9.3c3.7-0.2,7.1-0.4,10.5-0.5c4.7-0.1,7.7-2.4,8.1-6.9C518.4,507.2,518,502.2,518,497.2z M513.7,464.6c-2.8-4.3-8.2-8-1.6-13.5c-4.5-2.3-8.2-3.8-11.8,0.1c-3.4,3.7-4.3,9.7-2,12.6C500.6,466.6,508.6,467.1,513.7,464.6z M557.6,560.2c2.8-1.8,5.3-3.1,7.2-4.9c0.7-0.6,0.6-3.2-0.1-3.8c-3.9-3.4-3.7-7.7-3.9-12.2c-0.1-1.5-2.3-2.8-3.6-4.3 c-0.7,1.7-2.4,3.7-1.9,4.9c1.6,4.1,0.2,6.8-2.3,9.8c-1.1,1.3-1.6,4.1-0.9,5.5C552.9,557.2,555.3,558.3,557.6,560.2z M472.9,524.8 c5.6,0.1,10.4-3.8,10-7.9c-0.4-3.8-2.4-6.2-6.8-6c-5.2,0.2-8.8,4.1-9.1,9.5C466.6,526,470.2,525,472.9,524.8z M453.7,520.3 c-0.5,0.1-0.9,0.2-1.4,0.4c0.2,1.6,0.1,3.3,0.7,4.7c2,4.6,1.1,9-1.6,12.5c-3,3.7-0.1,5.1,1.7,6.8c3.2,3.1,6.1,0.9,8.8-1.1 c2.3-1.7,2.6-3.5,0.9-6.3c-2.8-4.7-4.9-9.8-7.3-14.7C455.1,521.6,454.3,521,453.7,520.3z M548.6,494.3c0.8,4.5,1.5,8.7,2.3,12.9 c1,5.4,1.7,5.7,6.3,2.5c4.4-3.1,5-8.4,1.5-13.5C556.1,492.6,552,492,548.6,494.3z M280.2,331.2c-4.1,5.8-2.2,11.3,4.8,16.8 c1.6-0.8,3.5-1.2,4.7-2.4c0.9-0.9,1.5-3.5,0.9-4.2C287.4,337.9,283.9,334.7,280.2,331.2z M497.2,505.9c7.6-2.7,9.4-5,9.5-12.8 c-3.3,0.8-7.3,0.5-9.1,2.4C494.9,498.2,495.1,502.3,497.2,505.9z M457.9,558.2c10.2-2.6,18.7-18.6,14-26.7 C467.8,541.2,469.9,553.5,457.9,558.2z M469.6,489c0.7,3.4-4.4,6.9,0.1,9.7c5,3.1,6.8-2.8,10.6-5.4 C476.8,491.9,473.9,490.7,469.6,489z M518.4,534c2.5-2.9,4.7-5,6.1-7.5c0.4-0.7-1.9-4-2.8-3.9c-2.3,0.1-4.6,1.5-6.9,2.4 C515.9,527.9,516.8,530.1,518.4,534z M304.4,481.4c2.2-3.4,7.3-4.8,4-9.2c-1-1.4-5.6-2.2-6.2-1.4 C299.3,474.4,302,477.6,304.4,481.4z M483.8,483.1c3.1-0.5,3.5-2.9,2.9-5.5c-0.4-1.9-1.5-3.6-2.1-5.4c-0.8-2.6-1.5-5.2-2.3-7.8 c-0.7,0.2-1.3,0.4-2,0.5C481.4,470.6,482.5,476.4,483.8,483.1z M468.3,347.6c2.4,1.8,3.8,3.5,4.5,3.2c1.9-0.7,3.5-2.2,5.2-3.4 c-1.2-1.1-2.5-3.2-3.7-3.2C472.7,344.3,471.1,345.9,468.3,347.6z M593.3,439.6c5.5,3.5,10.8,2.9,14-0.8 C602.2,439.1,597.8,439.3,593.3,439.6z M538.9,530.4c-0.5-4.8-3.6-7.9-9.9-7.9C532.9,525.6,536.2,528.2,538.9,530.4z M344.8,339.1 c0.9,0.3,1.9,0.6,2.8,0.8c0.9-2.8,1.7-5.6,2.6-8.4c-0.8-0.2-1.5-0.5-2.3-0.7C346.9,333.6,345.9,336.3,344.8,339.1z M530.1,473.2 c1.5-4.3-1.6-9.3-5.9-10.4C526,466,528.1,469.7,530.1,473.2z M568.9,544c2,3.3,3.6,6,5.4,9C575.8,547.9,574.4,545.4,568.9,544z M520.2,475.2c-6.8,0.3-7.2,1.1-3.9,5.1C517.7,478.5,518.9,476.9,520.2,475.2z M573.5,538.4c0.8-0.6,1.5-1.2,2.3-1.7 c-1.3-1.5-2.6-3.1-4-4.6c-0.1-0.1-1.3,0.9-1.9,1.5C571,535.2,572.3,536.8,573.5,538.4z"/> <path class="st0" fill="#FFFFFF" d="M9,32c9.8,7,17.4,16.3,25.8,24.8c10.5,10.6,22.1,20.3,34.2,29c19.9,14.2,40.2,27.9,61.1,40.5 c21.3,13,43.3,25,65.5,36.4c15,7.7,31,13.5,46.5,20.3c2.7,1.2,4.9,4.1,7.7,4.8c8.6,2.4,17.3,4.6,26.1,6c14.7,2.4,29.5,4.6,44.3,5.9 c13.2,1.1,26.5,1.4,39.8,1c9.1-0.3,18.1-2.2,27.1-3.9c3.6-0.7,7.2-2.2,10.4-4.1c5.7-3.5,6.3-9,2.9-17.7 c-3.1-8.2-7.5-15.9-11.3-23.8c-5.8-12.1-15.5-20.7-25.3-29.4c-1.9-1.7-3.3-4-5.2-5.9c-9.4-9.2-18.8-18.5-28.5-27.4 c-4.9-4.6-10.5-8.3-15.5-12.8c-1.2-1.1-2.1-4.2-1.4-5.1c1-1.4,4-3,5.4-2.4c4.5,1.7,9.1,3.8,12.8,6.7c11.6,9.1,22.4,19.3,34.3,28.1 c22.7,16.9,46.1,32.8,65.5,53.6c7.5,8,15.4,15.8,19.5,26.4c2,5.3,4,10.7,5.4,16.2c1.5,6.1-1.7,13.1-7.6,15.9 c-11.4,5.5-23.3,10.2-36.2,9.7c-17.3-0.6-34.5-2.4-51.7-3.8c-18.8-1.5-37.3-4.5-55.4-10c-32.5-9.9-65.3-18.8-97-31.3 c-33.6-13.3-66.7-27.5-98.5-44.6c-13.8-7.4-27.1-15.7-40.6-23.7c-7.9-4.7-16-9-23.4-14.3c-10.8-7.7-21-16.3-31.5-24.4 c-1.5-1.1-3.4-1.8-5.1-2.7C9,57.3,9,44.7,9,32z"/> <path class="st0" fill="#FFFFFF" d="M46,1c8.2,7.3,15.8,15.6,24.9,21.7c10.7,7.1,22.6,12.5,32.6,21c18.3,15.6,38.3,29.1,58.7,41.8 c7.2,4.5,15.1,7.8,22.6,11.9c17.4,9.6,34.5,19.9,52.3,28.9c12.4,6.3,24.7,13.7,39,15.2c11.3,1.2,22.7,2.1,34,2.4 c4.2,0.1,8.2-2,10-6.7c1.9-5,0.8-9.2-2.9-12.5c-4.1-3.7-8.7-7-13.2-10.2c-5.3-3.8-10.7-7.3-16-10.9c6.7-10.5,7-10.9,16.8-5.1 c7,4.1,13.7,9.1,19.6,14.6c10.3,9.5,20,19.6,29.8,29.6c6.3,6.5,11.3,14,13.5,23c1.5,6-1.1,9.7-7.2,9.3c-16.9-1.1-34-1.7-50.7-4.1 c-17.7-2.6-35.3-6.4-52.6-11c-18.9-5.1-36.7-13.7-53.8-23.2C178.6,122.8,154,109,130,94.2c-18.2-11.2-35.6-23.6-53-36 c-7.6-5.5-14.3-12.5-21.2-19C47.9,31.9,40.2,24.4,32.5,17C27,11.7,21.5,6.3,16,1C26,1,36,1,46,1z"/> <path class="st0" fill="#FFFFFF" d="M9,104c10.2,8.7,20.7,17.1,30.5,26.2c7.5,6.9,14,14.9,21.2,22.2c18.5,18.7,40.4,32.1,64.8,41.6 c7.4,2.9,15.2,4.8,22.7,7.2c1.2,0.4,2.3,1.2,4.3,2.3c-4.1,2-7.4,4-11,5.2c-1.2,0.4-3-1-4.5-1.6c-0.8-0.4-1.6-0.8-2.4-1.2 c-12.5-6.3-25.4-12-37.5-19c-8.3-4.9-15.6-11.7-23.3-17.6c-6.6-5-13.6-9.4-19.8-14.9c-9.6-8.6-18.7-17.8-28-26.8c-2-2-4-4-6.2-5.8 c1,6.2,38,41,52.4,52c19.6,14.9,40.1,27.7,63.3,36.3c0,0.6-0.1,1.2-0.1,1.9c-7.8,3-15.6,6.1-23.5,9.1c-9.6,3.6-19.2,7.1-28.8,10.5 c-2.7,1-4.7,0.3-7.3-1.8c-5.5-4.5-12-7.8-18-11.7c-12.8-8.3-25.7-16.4-35.5-28.6C18.9,185,13.5,182.4,9,179c0-2,0-4,0-6 c1.8,1.1,3.8,1.9,5.3,3.2c2.7,2.4,4.8,5.4,7.6,7.7c5.9,5,11.9,9.7,18,14.4c9.8,7.6,19.7,15.1,29.8,22.5c3.3,2.4,7.1,4.2,10.7,6.3 c0.4-0.5,0.9-1,1.3-1.5c-3.1-2.8-5.9-5.9-9.2-8.4c-11.3-8.2-23.1-15.7-34.1-24.3c-8.9-6.9-16.8-15-25.2-22.6 c-1.3-1.2-2.8-2.3-4.2-3.4c0-4.7,0-9.3,0-14c2.8,2.3,6.5,4,8.2,6.9c6.6,12,18.2,18.9,27.8,27.8c9.3,8.7,19.8,16.1,30.1,23.6 c7.1,5.1,15.2,8.3,24,10.2c-0.4-1.4-1.1-2.5-2.1-3.1c-4.7-2.6-9.6-4.8-14.2-7.6c-7.5-4.7-14.9-9.5-21.9-14.7 c-7.5-5.6-14.6-11.9-21.9-17.8c-2.9-2.3-6.5-3.9-6.2-8.7c0.1-1.3-1.5-2.9-2.6-4c-7-6.3-14-12.5-21.1-18.7c0-2,0-4,0-6 c1.3,0.9,2.9,1.5,4,2.6c3.8,4.2,6.9,9,11.1,12.6c9.1,8.1,18.3,16.1,28.1,23.2c15.6,11.2,31.6,21.9,47.7,32.4 c3.3,2.1,7.6,2.6,11.5,3.8c0.3-0.7,0.6-1.5,0.9-2.2c-2.2-1.2-4.4-2.5-6.7-3.5c-13.9-6.3-26.3-14.9-38.7-23.8 c-17.2-12.4-35.3-23.7-48.5-40.9c-2.3-3-6.2-4.8-9.4-7.1C9,126.7,9,115.3,9,104z M23.1,137.9c6.4,15.5,85.6,75.1,96.9,73.5 c-0.1-0.6,0.1-1.7-0.3-1.9C85.3,188.7,51.6,166.9,23.1,137.9z"/> <path class="st0" fill="#FFFFFF" d="M250,1c1.6,2,3.3,3.9,4.9,5.9c-2.4-0.7-4.8-1.4-7.2-2.1c17,20.1,37.7,34.5,62,43.9c-0.2-2.1-0.8-4-2.1-4.8 c-6.4-3.8-13.1-7.2-19.6-11c-11.7-6.9-22.7-14.8-31.9-24.9c3.7,2.6,7.5,5.1,11.1,7.7c12.5,9.1,25.8,16.4,40.8,20.3 c1.1,0.3,2,1.1,3.1,1.5c8.3,3.1,8.7,3.3,4.6,10.9c-4.5,8.5-9.7,16.7-14.8,24.9c-2,3.2-4.4,3.8-8.7,1.9c-9.9-4.4-20.6-7-30.5-11.6 c-8.8-4.1-16.9-9.7-25.2-14.8c-5.8-3.6-11.4-7.7-17.4-11c-11.7-6.5-19.6-16.7-28-26.5c-1.7-1.9-3.7-3.6-5.5-5.3 c-1.9-1.8-3.8-3.5-5.7-5.3c6.3,0,12.7,0,19,0c3.5,4.3,6.6,9.1,10.5,12.9c10.7,10.2,21.5,20.5,33,29.9c14.3,11.7,31,19.2,48.8,23.8 c1,0.3,3.1-0.5,3.2-1.1c0.9-3.9,3.3-2.4,5.7-2c1.1,0.2,2.4-0.8,3.6-1.3c-0.7-1.1-1.2-2.6-2.3-3.2c-8.8-4.8-18-9.1-26.7-14.2 C254.7,34.1,236.6,19.6,222,1c2.7,0,5.3,0,8,0c7.2,11.5,16,21.5,26.7,30c14.2,11.2,31.1,16.9,47.2,24.3c1.6,0.8,3.9,0.1,5.9,0.1 c0.1-0.6,0.2-1.1,0.3-1.7c-1.5-1.2-2.7-2.8-4.4-3.6c-4.9-2.2-9.9-4.2-14.9-6.1c-18.5-6.9-34.4-17.6-47.5-32.3 c-2.9-3.2-4.9-7.2-7.4-10.8C240.7,1,245.3,1,250,1z"/> <path class="st0" fill="#FFFFFF" d="M9,75c5.5,4.4,11.2,8.5,16.5,13.1c3.9,3.4,8.3,6.3,10.4,11.9c1,2.7,5.1,4.4,7.9,6.3 c14.9,10.3,29.6,20.9,44.8,30.7c12.5,8,25.6,15,38.4,22.6c6.6,3.9,13.1,7.8,19.2,12.7c-3.8-1.4-7.7-2.6-11.4-4.4 c-15.3-7.7-30.9-15-45.8-23.5c-13.7-7.8-26.7-16.9-40-25.4c-1.2-0.8-2.3-1.8-3.4-2.8c-6.6-6.3-13.3-12.5-19.8-18.9 c-2.8-2.8-5.3-5.9-7.9-8.8c-2.2-2.4-4.4-4.7-6.6-7c-0.6,0.3-1.1,0.7-1.7,1c0.6,1.6,0.9,3.5,2,4.7c11.4,11.9,22.1,24.8,34.8,35.2 c12.8,10.5,27.2,19.2,41.6,27.4c16.7,9.5,34.4,17.4,51.4,26.5c8.9,4.7,17.3,10.5,25.9,15.8c0.9,0.6,1.3,1.9,2.3,3.4 c-1.4,0.2-2.4,0.6-2.6,0.3c-5.8-6.3-14-7.2-21.4-9.4c-13.4-4-25.7-10.2-37.8-17.1c-9.8-5.7-19.7-11.1-29.3-17.2 c-20.3-12.9-37.9-29-54.3-46.5C18,101,14.7,95.5,10.9,90.4c-0.5-0.6-1.3-1-1.9-1.4C9,84.3,9,79.7,9,75z"/> <path class="st0" fill="#FFFFFF" d="M155,1c3.7,8.7,10.2,15.3,17,21.4c8.2,7.3,16.7,14.3,25.2,21.3c14.5,11.9,29.3,23.5,45.8,32.8 c10.5,5.9,20.9,12.2,31.4,18.1c1.3,0.7,3.2,1.2,4.4,0.7c0.8-0.3,0.8-2.6,1.3-4.5c1.4,0.7,3.1,1.5,5.3,2.5c-1.9,2.6-3.4,4.7-4.5,6.3 c-8.4-3.5-16.3-6.4-23.8-10.1c-11.8-5.9-23.8-11.6-34.8-18.9c-15.1-10.1-29.8-20.9-43.5-32.7c-9.3-8-16.7-18.2-25-27.3 c-2-2.2-4.6-3.9-7.5-5.2c16.2,23,35.1,43.3,58.2,59.6c22.8,16.1,47.5,28.4,73.3,38.1c0,0.7,0.1,1,0.1,1.1c-5.8,9-6.5,9.8-14.4,2.6 c-7.6-6.9-17.2-10-25.2-15.8c-11.4-8.2-22.8-16.4-34.2-24.5c-6.4-4.5-13.2-8.5-19.3-13.4c-6.9-5.6-13.6-11.5-19.5-18.1 c-7.4-8.2-13.9-17.2-20.8-25.9c-0.6,0.5-1.2,0.9-1.9,1.4c6.7,10,13.4,20,20.9,31.2c-1.9-1.3-2.9-1.8-3.7-2.6 c-9.4-9.6-18.8-19.3-28-29.1c-2.5-2.7-4.5-6-6.7-9.1C135,1,145,1,155,1z"/> <path class="st0" fill="#FFFFFF" d="M112,1c3.6,4.1,7.2,8.1,10.7,12.2c1.4,1.6,2.9,3.2,4.3,4.8c-0.4,0.4-0.7,0.8-1.1,1.1 c-6.3-5.4-12.6-10.9-18.9-16.3c-0.5,0.4-0.9,0.9-1.4,1.3c2.1,2.8,3.8,5.9,6.4,8.2c4,3.7,9,6.4,12.9,10.2c6.6,6.4,12.8,13.2,18.9,20 c5.3,5.9,10.2,12,15.3,18c3.6,4.2,7.3,8.4,10.2,13.4c-4.5-2.9-9.4-5.5-13.6-8.9c-13.9-11.2-27.9-22.3-39-36.5c-2.7-3.5-6.6-6-10-9 c-4.5-3.8-9.1-7.6-13.6-11.4c-0.6-0.5-1.4-0.7-3-0.3c0.7,1.4,1.1,3.2,2.2,4.2c7.1,7,14.1,14.1,21.5,20.7 c10.9,9.7,21.9,19.2,33.1,28.4c9.8,8.1,20,15.8,30.1,23.7c1.1,0.9,2.3,1.8,2.8,3.7c-4.6-2.4-9.4-4.4-13.6-7.2 c-17.7-11.7-35.4-23.5-52.9-35.7c-3.9-2.7-6.5-7.1-9.8-10.8C95.3,25.8,87,16.6,78.9,7.3C77.3,5.5,76.3,3.1,75,1 C87.3,1,99.7,1,112,1z"/> <path d="M222,1c14.6,18.6,32.7,33.1,53,44.9c8.7,5.1,17.8,9.4,26.7,14.2c1,0.6,1.5,2.1,2.3,3.2c-1.2,0.5-2.5,1.5-3.6,1.3 c-2.4-0.4-4.7-2-5.7,2c-0.1,0.6-2.3,1.3-3.2,1.1c-17.9-4.6-34.5-12.2-48.8-23.8c-11.5-9.4-22.2-19.7-33-29.9 c-4-3.8-7.1-8.6-10.5-12.9c2,0,4,0,6,0c23.4,27.8,49.5,51.9,86.2,60.8C263.3,45.4,236.3,27.9,217,1C218.7,1,220.3,1,222,1z"/> <path class="st0" fill="#FFFFFF" d="M9,183c6.5,5.7,12.7,11.8,19.4,17.1c11,8.6,22.3,16.7,33.5,24.9c3.8,2.8,7.8,5.2,12.5,8.4 c-6.1,2.5-11.6,5.5-17.8,3.4c-11.9-3.9-21.7-11.5-31.1-19.3c-4.7-3.9-8-9.5-12.6-15c8.3,6.1,15.7,12,23.5,17.3 c7.7,5.3,15.1,11.2,23.9,14.4c0.5-0.7,0.9-1.4,1.4-2.1C43.2,221,24.8,209.8,9,195C9,191,9,187,9,183z"/> <path class="st0" fill="#FFFFFF" d="M217,1c19.3,26.9,46.3,44.4,74.2,60.8c-36.7-8.9-62.8-33-86.2-60.8C209,1,213,1,217,1z"/> <path class="st0" fill="#FFFFFF" d="M175,1c3.6,4,7.2,8,10.9,12c4.4,4.7,8.9,9.3,13.3,14c-0.6,0.6-1.1,1.1-1.7,1.7C188.8,20,180,11.4,170.8,2.4 c1.7,6.9,5.7,12.1,10.2,16.8c2.8,3,6.8,4.8,10.2,7.4c2.7,2.1,4.9,4.6,7.6,6.6c16.2,12.6,32.4,25,48.5,37.5c0.9,0.7,1.9,1.4,2.8,2.1 c-0.4,0.5-0.7,1-1.1,1.5c-6.9-4.2-14.3-7.8-20.7-12.8c-16.8-12.9-33.4-25.9-49.5-39.6c-7.3-6.2-13.3-14-19.9-21.1 C164.3,1,169.7,1,175,1z"/> <path d="M9,147c7,6.2,14.1,12.4,21.1,18.7c1.2,1.1,2.7,2.7,2.6,4c-0.3,4.8,3.2,6.4,6.2,8.7c7.3,5.9,14.4,12.2,21.9,17.8 c7,5.3,14.5,10,21.9,14.7c4.5,2.8,9.5,5,14.2,7.6c1,0.6,1.7,1.7,2.1,3.1c-8.7-1.9-16.9-5.1-24-10.2c-10.3-7.5-20.8-14.9-30.1-23.6 c-9.5-8.9-21.2-15.8-27.8-27.8c-1.6-2.9-5.4-4.7-8.2-6.9C9,151,9,149,9,147z"/> <path d="M236,1c2.4,3.6,4.5,7.5,7.4,10.8c13.1,14.7,29,25.4,47.5,32.3c5,1.9,10,3.9,14.9,6.1c1.7,0.8,2.9,2.4,4.4,3.6 c-0.1,0.6-0.2,1.1-0.3,1.7c-2,0-4.3,0.7-5.9-0.1c-16.1-7.4-33.1-13.1-47.2-24.3C246,22.5,237.2,12.5,230,1C232,1,234,1,236,1z"/> <path d="M9,138c3.2,2.3,7.1,4.1,9.4,7.1c13.2,17.2,31.3,28.4,48.5,40.9c12.3,8.9,24.8,17.5,38.7,23.8c2.3,1,4.5,2.4,6.7,3.5 c-0.3,0.7-0.6,1.5-0.9,2.2c-3.9-1.2-8.2-1.7-11.5-3.8c-16.1-10.5-32.2-21.1-47.7-32.4c-9.8-7.1-19-15.2-28.1-23.2 c-4.2-3.7-7.3-8.5-11.1-12.6c-1-1.1-2.6-1.7-4-2.6C9,140,9,139,9,138z"/> <path class="st0" fill="#FFFFFF" d="M282,1c7.2,4.3,14.2,9.1,21.6,12.9c6.1,3.1,12.8,4.9,19,7.5c1.4,0.6,2.2,2.4,3.3,3.6c-1.6,0.6-3.5,2.2-4.8,1.8 c-6.4-1.8-13-3.4-18.9-6.4C290.6,14.4,279.4,7.5,268,1C272.7,1,277.3,1,282,1z"/> <path d="M9,167c1.4,1.1,2.8,2.2,4.2,3.4c8.4,7.5,16.4,15.6,25.2,22.6c11,8.6,22.8,16.1,34.1,24.3c3.3,2.4,6.2,5.6,9.2,8.4 c-0.4,0.5-0.9,1-1.3,1.5c-3.6-2.1-7.4-3.9-10.7-6.3c-10-7.3-19.9-14.9-29.8-22.5c-6.1-4.7-12.1-9.5-18-14.4 c-2.7-2.3-4.9-5.3-7.6-7.7c-1.5-1.4-3.5-2.2-5.3-3.2C9,171,9,169,9,167z"/> <path class="st0" fill="#FFFFFF" d="M9,212c10.4,10.3,20.8,20.5,31.2,30.7c-3.1,0.7-7,1.8-10.9,2.4c-1.5,0.2-3.5-0.3-4.7-1.2 C19.3,240.1,14.2,236,9,232c0-1,0-2,0-3c7.1,5.6,14.5,10.6,24.8,13.5c-1-2.2-1.3-4.1-2.1-4.3c-8.9-3-15.4-9.6-22.6-15.1 C9,219.3,9,215.7,9,212z"/> <path d="M9,601c0.3,1.3,0.9,2.7,1,4c0.4,41.7,0.9,83.5,1,125.2c0.1,20.9-0.6,41.8-0.9,62.8c-0.3-1.3-1-2.7-1-4 C9,726.3,9,663.7,9,601z"/> <path class="st0" fill="#FFFFFF" d="M261,1c17.8,15.7,39.2,24.6,60.9,33.2C296.7,29.9,275.4,18.4,257,1C258.3,1,259.7,1,261,1z"/> <path class="st0" fill="#FFFFFF" d="M73,1c-0.8,6.3,4.7,9.3,7.4,13.8c2,3.3,4.5,6.3,6.4,9.9c-5.2-2.5-11.2-3.1-14.7-8.5c-2.8-4.3-5.5-8.7-8.3-13 C63.4,2.6,63.3,1.7,63,1C66.3,1,69.7,1,73,1z"/> <path class="st0" fill="#FFFFFF" d="M292,1c9.5,3.3,19.1,6.7,28.6,10c2.9,1,5.8,2,8.3,4.1C313.8,14.6,300.7,8.4,288,1C289.3,1,290.7,1,292,1z"/> <path d="M9,223c7.2,5.5,13.7,12.1,22.6,15.1c0.8,0.3,1.1,2.1,2.1,4.3C23.5,239.6,16.1,234.6,9,229C9,227,9,225,9,223z"/> <path class="st0" fill="#FFFFFF" d="M9,238c3,2.6,6.1,5.2,10.2,8.8C15,247.3,12,247.7,9,248C9,244.7,9,241.3,9,238z"/> <path class="st0" fill="#FFFFFF" d="M313,1c3.4,1.7,6.7,3.3,10.1,5c-0.1,0.4-0.3,0.9-0.4,1.3C316.4,5.2,310.2,3.1,304,1C307,1,310,1,313,1z"/> <path class="st0" fill="#FFFFFF" d="M59,1c1.2,2.4,2.5,4.7,3.7,7.1c-0.3,0.3-0.6,0.7-0.8,1C59.3,6.4,56.6,3.7,54,1C55.7,1,57.3,1,59,1z"/> <path d="M139.1,616.2c-6.6,4.6-11.8,8.3-17.1,11.8c-2.9,1.9-5.3,1.3-7.5-2.9c6.2-4.1,12.5-8.3,19.2-12.7c-3.9-4.5-8.4-8.4-15-9.5 c-4.9-0.8-9.8-2.3-14.6-3.9c-3.3-1.1-3.2-1.4-2.7-6c6.1,1.5,12.1,3.6,18.3,4.3c12,1.4,18.7,10.1,25.5,18.1 c3.1,3.6,3.6,9.6,4.6,14.7c0.7,3.5,0.3,7.3,0.1,11c-0.1,1.6-0.3,3.8-1.3,4.6c-6.5,4.7-12.6,10.8-19.9,13 c-9.6,2.8-20.1,2.5-30.2,3.5c-8.1,0.8-15.5-1.9-22.9-4.7c-6.8-2.5-12.9-6.1-20.7-6.8c-8.1-0.8-15-6.2-14.1-16.9 c0.2-2.9-0.8-5.8-0.8-8.8c0-1.9,0-4.3,1.1-5.7c8.3-10.8,17.7-20.5,30.8-25.3c6.4-2.3,13.3-4.5,20.2-1.7c1.6,0.6,2.5,2.8,3.7,4.3 c-1.7,0.2-3.5,0.9-5.1,0.6c-10.1-2.2-18.6,1.6-26.4,7.3c-4.5,3.3-8.3,7.5-12.5,11.3c-3.7,3.3-5.5,7.4-4.9,12.3 c0.4,3.4,0.3,7,1.2,10.3c1.4,5.2,6.4,7.7,10.5,7.5c7-0.3,12.1,3.6,18.1,5.4c5.4,1.6,10.6,4.3,16.2,5.2c4.7,0.8,9.8-0.3,14.9-1.2 c-6.7-4.3-7.6-10.3-6.9-17.1c0.4-4.1-0.9-4.7-5.4-4.6c-8.6,0.3-17.2-1.5-25.9-2c-5.6-0.4-10.1-2-11.6-7.9c-0.5-1.9,0.2-4.1,0.3-6.2 c1.8,1.1,4.7,1.7,5.3,3.3c1.9,4.6,5.2,5.4,9.4,5.5c10,0.2,20,0.7,30,0.9c6.1,0.2,6.6,1,5.4,7.1c-0.9,4.8-1.7,9.7,2.4,13.9 c1.1,1.1,1.2,3.3,2.1,6.4c6.6-0.8,14.3-0.4,22.1-5.4c8.7-5.6,10.2-12.6,8.5-21.4C142.8,623.8,140.7,620.3,139.1,616.2z"/> <path d="M556.4,678.9c-2.2,7.9-4.2,15.7-6.7,23.4c-0.6,1.9-3,3.2-4.4,5c-1.5,1.8-2.9,3.9-4.4,5.7c-1.5,1.8-2.8,3.8-4.6,5.1 c-7.9,5.8-16,11.3-23.8,17.1c-4.8,3.6-9.7,4.3-15.7,3c-7.8-1.7-15.6-2.9-22.6-7.3c-1.8-1.1-5-1.2-7-0.3c-5.4,2.2-9.9,1.4-14.8-1.6 c-4.4-2.6-9.6-3.9-14.3-6c-5.3-2.4-9-6.5-10.1-12.4c-0.2-1.2-0.9-2.4-1.5-3.6c-7.3-13.9-6.2-22.5,5.8-32.4 c10.2-8.5,21-16.3,32.2-23.6c11-7.2,23.8-9.7,36.6-11.9c2.9-0.5,5.9-0.8,8.8-1.2c13.4-2.1,24.9,0.7,33,12.6c2.4,3.5,6.3,6.2,8,9.9 C553.4,666,554.5,672.3,556.4,678.9z M549.5,678.7c-0.3-8-2-15.1-8.6-20.3c-0.9-0.7-1.4-1.8-2-2.7c-6.9-9.8-16.4-14.1-28.1-12.5 c-8.4,1.2-16.8,2.6-24.9,5.2c-8.6,2.7-17.2,5.8-24.2,12.3c-6.4,5.8-13.7,10.5-20.8,15.4c-6.6,4.5-13.2,10.2-12.4,18.2 c0.8,7.3,3.9,16.1,9.1,20.9c6,5.5,15.4,7.6,23.4,10.8c1.4,0.6,3.6-0.4,5.2-1c4-1.5,7.5-1,11.3,0.9c4.8,2.4,9.8,4.8,14.9,5.7 c5.3,1,11.4,3.8,16.3-1.6c8.9-9.6,23-13.3,29.5-25.7c0.6-1.1,2-1.8,2.8-2.9c1.9-2.4,4.4-4.7,5.2-7.4 C547.9,689.1,548.5,683.8,549.5,678.7z"/> <path d="M50.1,490.1c-0.6-0.1-1.4,0-1.9-0.4c-4.7-4-10.3-2.9-15.8-2.7c-2.2,0.1-4.6-0.3-6.7-1c-9.2-2.6-8.1-7.3-3.6-12.4 c7.6-8.4,16.8-13.5,28.9-11c4.3,0.9,8.9,0.6,13.2,1.5c2.3,0.4,4.9,1.6,6.4,3.3c2.2,2.6,5.4,6.4,4.8,8.8c-1,4.3-2.7,9.4-9.1,10.2 C60.9,487.1,55.6,488.8,50.1,490.1z M60.4,468c-7.3,0-14-1-20.1,0.3c-4.6,1-8.7,4.9-12.7,7.9c-0.8,0.6-0.9,3.7-0.2,4.3 c2.3,2.1,12.8,0.3,14-2.5c1.7-3.9,4.6-4.3,8.1-4C53.6,474.4,57.3,473.6,60.4,468z M59.5,481.5c4.1,0.7,6.7-1.1,8.4-4.2 c0.5-1,0-2.5,0-3.8c-1.3,0.5-3,0.7-3.8,1.6C62.4,476.8,61.2,479,59.5,481.5z M56.3,483.1c0.1-0.9,0.3-1.7,0.4-2.6 c-3-0.2-6-0.4-9-0.6c-0.1,0.8-0.1,1.5-0.2,2.3C50.4,482.5,53.4,482.8,56.3,483.1z"/> <path d="M175.2,265.8c8.6,0.4,13.8,4.7,18.7,8.8c12.1,9.9,23.6,20.4,35.7,30.4c12.5,10.4,23.3,22.4,32.4,35.8 c2.5,3.8,3.5,9.1,3.9,13.8c0.4,5.5-4.8,8.7-10.3,7.8c-14.4-2.6-25.4-11.6-36.9-19.4c-16.8-11.3-31.5-25-42.7-41.9 c-4.4-6.7-7.1-14.6-9.6-22.3C164.3,272.7,169.3,264.9,175.2,265.8z M254.2,356c4.7,0.1,6.2-1.9,5.1-5.3c-0.6-1.8-1.3-3.7-2.4-5.3 c-11.6-17.1-25.2-32.2-42.8-43.5c-3.8-2.5-6.8-6.3-10-9.7c-1.3-1.4-1.9-3.7-3.3-4.9c-6.4-5-12.9-10-19.7-14.5 c-1.6-1.1-5.2-1.5-6.4-0.5c-1.5,1.3-2.4,4.6-2,6.7c2.5,13.1,10.8,22.9,19.4,32.3c13.6,15.1,30.3,26.6,47.4,37.3 C244.3,351.7,249.9,353.9,254.2,356z"/> <path d="M581.4,34.8c0.9,3.3,2.2,6.5,2.4,9.8c0.4,5,0.5,10,0,15c-0.5,5.5,2,8.6,6.6,10.7c3.9,1.8,7.7,3.6,11.3,5.9 c1.7,1.1,2.7,3.3,4.1,5c-1.7,1-3.4,2.2-5.2,2.8c-5,1.6-10.1,2.6-15,4.2c-4.7,1.5-5.3,5.9-5.6,9.9c-0.3,3.6,0.1,7.3-0.2,11 c-0.1,1.3-1.2,3.5-2.1,3.7c-1.4,0.2-3.8-0.4-4.6-1.6c-3.3-5-6.1-10.4-9.3-15.5c-1.5-2.5-3.5-4.7-5.3-7c-8,4.2-15.5,8.2-23.1,12 c-1.4,0.7-3.8,0.7-5.1-0.1c-0.8-0.5-1-3.3-0.5-4.6c2.8-6.9,6.1-13.6,8.7-20.6c0.8-2.1,0.6-5.1-0.3-7.2c-1.9-4.5-4.7-8.6-6.7-13 c-0.7-1.7-0.8-4.7,0.2-5.8c1-1,3.9-0.9,5.7-0.3c6.3,2,12.5,4.6,18.8,6.6c2.4,0.8,4.7,0.9,6.9-2c4.9-6.6,10.6-12.6,16-18.8 C580,34.8,580.7,34.8,581.4,34.8z M577.7,47.4c-0.8-0.2-1.5-0.4-2.3-0.6c-2.9,4.9-5.6,10-8.9,14.7c-1.1,1.5-3.6,2.4-5.7,2.7 c-1.4,0.2-3-1-4.5-1.6c-5-1.7-9.9-3.4-16.3-5.6c1.7,3.4,2.3,5.6,3.7,7.1c5.5,5.6,5.1,7,0.7,14c-2.6,4-4.2,8.6-6.3,12.9 c7.1-2.7,13.2-5.6,19.1-8.9c3-1.7,5-1,6.7,1.5c3.1,4.3,6,8.8,9,13.1c1.6-4.1,2.3-9.3,5.3-12.1c3.1-3,8.4-3.6,13.8-5.7 c-3.9-2.3-6.8-4.2-9.7-5.8c-3.4-1.8-4.6-3.9-4-8.3C579.1,59.2,578,53.3,577.7,47.4z"/> <path d="M204.2,427c-13.5-1.1-26.8-4.1-39-10.1c-14.9-7.4-29.5-15.4-43.5-24.3c-5.5-3.4-9.3-9.7-13.3-15.1 c-1.7-2.3-1.9-5.9,0.8-8.1c4.3-3.6,9.3-5.7,15-5.3c12.8,0.9,24.3,5.9,35.7,11.3c15.6,7.4,31.5,14.2,45.6,24.5 c2.5,1.8,5.1,3.6,7.4,5.6c4.7,4.1,6.5,9,3.8,15C214.3,426,210.1,428,204.2,427z M204,422.4c3-2,6.2-3.1,7.7-5.3 c1.8-2.8-0.8-5.5-3.2-6.9c-12.2-7.5-24.4-15.1-36.9-22c-5.2-2.9-12.4-2.9-16.6-6.6c-5.2-4.6-11-7.1-17-8.8 c-6.4-1.7-13.4-1.5-20.1-1.6c-1.8,0-5.8,1.5-3.1,4.8c3.8,4.7,7.8,9.8,12.8,12.8c12.9,7.9,26,15.7,39.8,21.8 C178.9,415.9,191.4,418.5,204,422.4z"/> <path d="M590,264.2c-0.3,14.8,0.5,15.6,16.2,22.9c0.9,0.4,1.9,0.7,2.6,1.3c1.1,1,2.9,2.4,2.9,3.4c-0.1,1.2-1.9,2.8-3.2,3.2 c-3.6,1-7.3,1.7-11,1.9c-5.5,0.3-8.1,3-8.5,8.5c-0.4,5.2-1,10.4-2.1,15.5c-0.3,1.5-2.1,3.5-3.6,3.8c-1.2,0.3-3.4-1.3-4.1-2.6 c-2.9-5.1-5.4-10.4-8-15.7c-1.6-3.3-3.5-5.1-7.7-3.6c-5.5,2-11.2,3.4-16.9,4.8c-1.6,0.4-4.1,0.1-4.9-0.9c-0.8-1-0.6-3.5,0.1-5 c1.6-3.4,3.6-6.6,5.6-9.7c1.9-2.8,1.9-5.4,0-8.2c-1.6-2.4-3.3-4.9-4.4-7.6c-0.7-1.8-0.5-4-0.7-6.1c2-0.1,4-0.6,5.9-0.2 c6.6,1.4,13.2,3.3,19.9,4.6c1.1,0.2,3.1-1.3,4-2.5c3.5-5.1,6.8-10.4,9.9-15.7c1.3-2.3,2.6-4.9,5.5-3.4c1.3,0.6,2,3.2,2.4,5 C590.3,260.1,590,262.2,590,264.2z M584,267.4c-0.6,0-1.2,0-1.9,0c-2.2,3.2-4.8,6.2-6.5,9.6c-2.3,4.6-5.2,5.6-10,3.9 c-4.2-1.5-8.7-2.3-13.5-3.6c1.8,4.7,4.4,8.3,4,11.6c-0.4,3.4-3.8,6.5-5.8,9.7c0.1,0.4,0.3,0.8,0.4,1.3c5-1.3,10.1-2.4,15-4 c5.5-1.7,7-1.3,9.8,4.1c1.7,3.3,3.5,6.7,5.2,10c1.5-3,2.2-5.7,2.2-8.4c0.1-9,1.1-10.1,10.1-10.7c0.6,0,1.2-0.2,3.3-0.6 c-3.5-2.3-5.7-4.3-8.3-5.2c-3.8-1.3-4.5-3.6-4.2-7.2C584.2,274.4,584,270.9,584,267.4z"/> <path d="M271.8,258c4.8,6,12.1,9.9,12.3,19.8c-5.4-1.5-10-2.8-14.6-4c-9.5-2.6-9.4-2.5-14,6.3c-1.6,3-3.6,5.7-6.4,10.1 c-7.5-13.3-18.3-20.1-30.3-24.9c1.8-5.7,6.3-5.2,9.9-6.2c3.2-0.9,6.4-1.4,9.6-2c3.3-0.7,4.3-2.6,3.4-5.8c-1.5-5.5-3-11-4.3-16.5 c-0.4-1.9-0.3-3.9-0.5-7.5c3.5,1.2,6.8,1.5,8.8,3.2c4,3.4,7.3,7.6,10.8,11.6c2.3,2.6,4.6,4.1,8.5,2.7c3.6-1.3,7.5-2.1,11.4-2.5 c1.6-0.2,3.8,0.9,5,2.1c0.5,0.5-0.7,3.2-1.6,4.4C277.3,251.8,274.6,254.7,271.8,258z M271.4,268.2c0.3-0.5,0.6-0.9,0.9-1.4 c-2.6-2.3-6.7-4.3-7.5-7.1c-0.7-2.6,2.2-6.1,3.6-9.7c-1,0.2-2.6,0-3.6,0.6c-4.1,2.4-7,1.2-9.8-2.2c-3.2-3.9-6.7-7.6-10-11.3 c-0.5,0.2-0.9,0.4-1.4,0.6c1.3,5.1,2.6,10.1,4,15.2c1.7,6.1,0.4,8.1-5.6,9.1c-3,0.5-6,1.6-9,2.4c8.4,1.8,10.2,10.1,16.2,14.8 c2.4-3.9,4.9-7.4,6.8-11.2c1.8-3.5,4.1-3.7,7.3-2.5C265.9,266.6,268.6,267.4,271.4,268.2z"/> <path d="M508.6,408.6c0.6-3.4,0.6-6.1,1.5-8.5c1.5-4.1,0.1-6.9-2.9-9.5c-1.1-1-2.2-2.1-3-3.3c-2.2-3.4-0.7-6.1,3.4-6.3 c3.7-0.2,7.4,0.5,11-0.2c2.3-0.4,5.2-2.1,6.4-4c2-3.4,2.7-7.6,4.4-11.3c0.9-2,2.8-3.7,4.2-5.5c1.5,1.7,3.8,3.2,4.5,5.2 c1.5,4.6,2.3,9.5,3,14.3c0.5,3.3,2.1,4.4,5.3,4.5c5.4,0.2,10.9,0.5,16.3,1.1c1.6,0.2,3.4,1.3,4.2,2.6c0.4,0.7-0.9,3.2-2.1,3.9 c-4,2.5-8.1,4.7-12.4,6.7c-3.5,1.6-5.7,3.6-5.3,7.8c0.3,3.1,0.4,6.3,0.2,9.5c-0.1,1.7-0.5,4.5-1.3,4.8c-1.7,0.5-4.5,0.3-5.7-0.9 c-3.4-3.1-6.3-6.7-9.4-10.2c-1.9-2.2-3.6-3-6.2-0.6c-2,1.8-4.6,3-7.2,4.2c-2.2,1-5.1,2.5-6.7,1.7 C509.3,413.8,509.1,410.3,508.6,408.6z M515.7,406.2c3.7-2.2,6.2-3.6,8.7-5c5.6-3.1,6.9-2.8,10.6,2.3c1.4,1.9,3,3.6,4.9,6 c0.9-4.9,0.4-9.7,2.5-12.4c2.3-3,7-4.1,10.6-6c-0.1-0.4-0.1-0.9-0.2-1.3c-4.2-0.3-8.3-0.7-12.5-0.7c-3.8,0-5.3-1.6-5.4-5.4 c-0.1-3.6-0.7-7.1-1-10.7c-0.4,0-0.9,0-1.3,0c-1.2,3.1-2.5,6.3-3.7,9.4c-1.3,3.2-3.3,5-7.2,4.7c-2.5-0.3-5.1,0.4-7.7,0.7 c-0.3,0.4-0.7,0.9-1,1.3C521.3,393.2,516.4,399.1,515.7,406.2z"/> <path d="M88.8,355c-4.9-0.8-9.6-1.2-14.2-2.2c-8.6-1.9-9.5-1.2-10.7,7.4c-0.4,3-2.2,5.8-3.4,8.7c-2.3-2.3-6-4.2-6.7-6.8 c-2.4-9.3-10.3-8.9-17-11c-1.4-0.4-3.5-1.5-3.5-2.3c0-1.7,0.7-4.1,1.9-5.1c11.6-9.5,8.8-7.3,2.6-18.3c-0.6-1.1-1.4-2.2-1.8-3.5 c-0.6-2-0.8-4-1.2-6.1c2,0.2,4.3-0.1,5.9,0.7c6,3.2,11.8,6.9,17.7,10.3c3.1,1.8,6,2.9,9.4,0.3c4-3,8.4-5.6,12.8-8.1 c1.5-0.8,3.5-0.7,5.3-1c0.1,1.7,0.9,3.8,0.2,5.2c-1.7,3.3-3.7,6.6-6.3,9.2c-2.7,2.8-1.7,4.4,0.5,6.5c3.7,3.5,7.4,6.9,10.6,10.8 C93.3,352.5,92,354.9,88.8,355z M71.6,332.3c-0.5-0.1-1.2-0.4-1.4-0.2c-5.8,4.9-10.5,3-15.5-1.6c-2.8-2.6-6.6-3.9-10-5.8 c-0.3,0.4-0.6,0.8-0.8,1.2c1.9,2.8,3.8,5.6,5.8,8.3c2.4,3.3,1.8,5.3-1.8,7c-2.1,1-3.9,2.7-5.9,4.1c0.1,0.5,0.1,1,0.2,1.5 c3.6,0.6,7.9,0.2,10.5,2.1c2.6,1.9,3.5,6.1,5.4,9.7c0.7-1.9,1.4-3,1.7-4.2c2.4-10.1,2.4-10.1,12.8-7.5c2.2,0.6,4.6,0.5,6.9,0.8 c0.1-0.5,0.3-1,0.4-1.5c-1.9-1.5-3.7-3.2-5.8-4.4C68.1,338.2,68,338.3,71.6,332.3z"/> <path d="M508.4,211.2c-3.8,4.8-7,9.1-10.6,13.2c-0.8,0.9-2.6,1.5-3.8,1.3c-0.8-0.1-1.8-1.8-1.9-2.9c-0.3-2.5-0.8-5.3,0.1-7.4 c2.7-6.4,0.2-11.1-3.8-15.7c-1.2-1.3-1.5-3.4-2.2-5.1c1.8-0.6,3.5-1.6,5.3-1.6c10.8-0.2,10.8-0.1,13.8-10.6 c0.9-3.1,1.7-6.3,2.8-9.4c0.5-1.6,1.6-2.9,2.4-4.4c0.7,0,1.3,0,2,0c1,3.4,2,6.8,3,10.2c0.4,1.2,0.5,2.5,0.9,3.8 c3,10.3,3,10.2,13.8,10.4c1.9,0,3.9,1,5.8,1.6c-1,1.9-1.9,3.9-2.9,5.8c-0.1,0.1-0.2,0.3-0.3,0.4c-10.2,3.9-8.9,12.5-8.7,20.7 c0.1,2.3,0.2,4.7-0.1,7c-0.1,1.1-1,2.2-1.6,3.3c-1.4-0.7-3.3-1.1-4-2.3c-2.4-4.1-4.3-8.5-6.4-12.7 C511.1,215.2,509.9,213.7,508.4,211.2z M511.9,183.1c-0.6-0.1-1.3-0.1-1.9-0.2c-1,3.6-2.3,7.2-2.9,10.9c-0.8,5.2-2,6.2-7.1,4.7 c-1.8-0.5-3.6-0.8-5.4-1.3c1.6,3.3,4.5,5.3,5.1,7.9c0.6,2.5-1.1,5.6-1.8,8.5c0.4,0.2,0.8,0.4,1.2,0.6c2.3-2.7,4.7-5.3,6.9-8 c2.8-3.5,5.3-3.1,7.1,0.9c1.4,3.1,3.1,6,4.7,9c0.4-0.1,0.8-0.3,1.2-0.4c0-3.4-1-7.3,0.3-10.2c1.3-2.8,4.9-4.6,8.6-7.7 c-3.8,0-6.6-0.3-9.3,0.1c-3.3,0.5-4.5-0.7-4.8-3.9C513.4,190.3,512.6,186.7,511.9,183.1z"/> <path d="M414.6,53.8c2,7.5,3.7,13.7,5.1,20c0.2,1-0.9,2.8-1.9,3.6c-0.7,0.5-2.6,0.1-3.4-0.5c-3.6-2.9-7-6.1-10.3-9.2 c-3.7-3.5-5.2-3.3-8.1,1c-1.6,2.4-1.2,7-5.6,6.3c-4.6-0.8-2.8-5.4-2.9-7.9c-0.3-6.7-3.5-10.6-9.4-13c-1.3-0.5-2.2-1.7-3.3-2.6 c0-0.6-0.1-1.2-0.1-1.8c3.1-0.8,6.2-2.2,9.3-2.4c6.5-0.5,6.8-0.5,7-6.8c0.1-4.7,0.1-9.4,0-14.1c0-3.4,2.9-5.5,5.5-3.2 c2.9,2.6,4.9,6.3,7.3,9.5c0.2,0.2,0.1,0.6,0.2,1c3.8,11.2,3.9,11.2,15.2,9.5c1.8-0.3,3.8,0.6,5.7,1c-1,1.6-1.8,3.5-3.2,4.7 C419.3,50.8,416.5,52.5,414.6,53.8z M393.2,62.8c1.1-0.9,1.9-1.4,2.5-2.2c3.7-5,4.4-5.1,8.6-0.9c2.5,2.5,5,5,7.6,7.4 c0.4-0.3,0.8-0.6,1.2-0.8c-1.1-2.7-1.7-6-3.6-8.1c-3.4-3.7-3.5-6.6,0.8-10c-5.9,1.9-8.3,0-8.6-5.7c-0.2-2.9-2.1-5.8-3.2-8.7 c-0.6,0.1-1.3,0.2-1.9,0.2c-0.2,3.6-0.4,7.3-0.5,10.9c-0.1,2.1,0.6,5-0.5,6.2c-1.2,1.3-4.1,1.2-5.9,1.6 C390.7,55.7,391.8,58.9,393.2,62.8z"/> <path class="st0" fill="#FFFFFF" d="M266.2,132.5c5.1-6.9,10.1-13.5,15.1-20.2c1.6-2.1,3.4-3,5.9-1.2c8.7,6.3,17.5,12.5,26.1,18.9 c1.1,0.8,2.2,3.5,1.7,4.3c-0.9,1.6-3,3.5-4.6,3.5c-14.3,0.7-28.5-0.6-42.4-4.4C267.3,133.3,266.7,132.7,266.2,132.5z"/> <path class="st0" fill="#FFFFFF" d="M158.2,51.3c16.7,13.5,33.5,26.8,50,40.5c16.7,13.9,37.6,19.9,56,30.5c-3.9,5.7-12.6,6.8-16.8,2.4 c-0.2-0.2-0.6-0.6-0.5-0.8c1.8-8.4-6.1-7.9-10.1-10.5c-3.8-2.4-8.4-3.5-12.4-5.6c-2.2-1.1-3.8-3.3-5.7-4.9c-1.3-1.1-2.5-2.4-4-3.1 c-15.6-7.6-29.1-18.2-41.7-29.9c-5.8-5.3-10.4-12-15.6-18C157.5,51.8,157.8,51.5,158.2,51.3z"/> <path class="st0" fill="#FFFFFF" d="M57.5,144.1c32.5,21.8,66,41.5,104.6,53.2C146.5,204.4,71,165.7,57.5,144.1z"/> <path class="st0" fill="#FFFFFF" d="M193,181.8c-2.9,1.5-5.7,3-8.6,4.4c0.1-0.5,0.3-0.9,0.4-1.4c-6.6-3.6-12.9-8.3-19.9-10.6 c-13.6-4.4-25.2-12.1-37.2-19.1c-13.1-7.6-26.2-15.3-39.2-23c-4.7-2.8-9.2-5.8-13.4-9.5c37.8,22.3,77.3,41.1,118.1,57.5 C193.2,180.7,193.1,181.3,193,181.8z"/> <path class="st0" fill="#FFFFFF" d="M289.4,88.9c-24.9-9-44.1-25.4-64.4-40c0.2-0.4,0.4-0.7,0.6-1.1c4.4,2.5,9.1,4.7,13.2,7.7 c14.5,10.3,30.1,18.1,47.3,22.7c2.7,0.7,5.2,2.5,7.7,3.8C292.4,84.2,290.9,86.5,289.4,88.9z"/> <path d="M256.1,8c9.2,10.1,20.2,18,31.9,24.9c6.5,3.8,13.2,7.2,19.6,11c1.3,0.8,1.9,2.6,2.1,4.8c-24.3-9.5-45-23.8-62-43.9 c2.4,0.7,4.8,1.4,7.2,2.1C255.3,7.3,255.7,7.7,256.1,8z"/> <path class="st0" fill="#FFFFFF" d="M213.5,89.5c18.2,9,36.5,17.9,54.7,26.9c-0.3,0.6-0.6,1.2-0.9,1.8C249.4,108.5,229.6,102.6,213.5,89.5z"/> <path class="st0" fill="#FFFFFF" d="M222.8,87.2c-15-6.4-27.3-16.4-38.7-27.5c0.3-0.5,0.7-0.9,1-1.4C197.7,67.9,210.3,77.6,222.8,87.2z"/> <path class="st0" fill="#FFFFFF" d="M51.9,240.2c-1.4,0-3.2,0.6-4.2-0.1c-8.2-5.8-16.3-11.8-24.4-17.8c-0.3-0.2,0-1.2,0-2.3 c9.6,6.5,18.9,12.8,28.2,19C51.6,239.4,51.7,239.8,51.9,240.2z"/> <path class="st0" fill="#FFFFFF" d="M158.6,46.5c-5.8-5.6-11.5-11.3-17.3-16.9c0.2-0.2,0.4-0.4,0.5-0.5c5.7,5.7,11.5,11.5,17.2,17.2 C158.9,46.3,158.7,46.4,158.6,46.5z"/> <path class="st0" fill="#FFFFFF" d="M302.7,346.8c0,3.6,0,6.3,0,9c0.5,0.2,0.9,0.3,1.4,0.5c1.1-1.4,2.7-2.7,3.4-4.3c4-9.8,7.2-19.9,11.8-29.4 c3.6-7.6,8.2-14.9,13.5-21.4c11.8-14.7,27.4-24.7,44.3-32.5c0.8-0.4,2.1,0.1,3.1,0.1c-0.1,0.9-0.2,1.8-0.2,2.7 c0,5.5,0.1,11-0.1,16.5c-0.1,1.4-1,3.4-2.2,4c-18.1,10.4-30.1,26.2-38.7,44.7c-2.1,4.5-2.7,9.7-3.6,14.6c-0.2,1.1,1.5,2.4,2.3,3.7 c1.1-0.9,2.8-1.6,3.3-2.7c3-7.1,3-7.3,9.6-3c12.4,8.1,20.9,19.3,24.4,33.7c2.3,9.3,3.4,18.9,5,28.4c0.2,1.1-0.1,2.2-0.2,3.3 c-0.5,0.2-0.9,0.4-1.4,0.6c-1.1-2.3-2.1-4.6-3.5-6.8c-1.5-2.3-3.3-4.3-4.9-6.5c-1.7,2.1-3.5,4.1-5.1,6.4c-1,1.4-1.5,3.1-2.8,5.8 c-3.4-4.3-6.2-7.8-8.9-11.4c-3.7-5.2-7.1-5-10.1,0.6c-2.1,4-4.4,7.9-6.6,11.9c-0.5,0-1,0-1.5,0c-1.7-5.3-3.5-10.5-5.1-15.8 c-1.4-4.9-3.9-6-7.5-2.3c-4.2,4.4-7.8,9.3-11.7,14c-0.8,1-1.7,1.9-3.2,3.7c-2.1-4.4-3.6-8.3-5.7-11.8c-1-1.7-3-3.3-4.8-3.9 c-0.7-0.2-2.7,2.3-3.6,3.9c-11.7,19.8-18.5,41.5-25.5,63.1c-1,3.1-2.8,5.9-3.6,9.1c-0.5,1.9,0.3,4.1,0.5,6.1 c1.7-0.3,3.6-0.1,4.9-0.9c6.1-4.1,11.9-8.6,18-12.7c1.7-1.2,3.7-1.8,5.6-2.6c0.5,1.8,1.1,3.6,1.6,5.4c1.4,5.3,2.5,10.7,4.3,15.9 c1.1,3.3,5.3,3.4,7.7,0.9c6.1-6.6,12.3-13,18.8-19.9c0.9,1.3,1.7,2,2.1,2.9c2.7,6,5.1,12.2,7.9,18.2c1.5,3.1,1,5.4-0.9,8.2 c-1.7,2.4-5,5.1-2.2,8.1c2.7,2.8,5.4-0.5,7.8-1.7c9.8-5.2,10.7-12.2,8.6-21.4c-0.2-1.1-0.4-2.6,0.2-3.4c3.4-4.8,7-9.4,10.5-14.1 c0.5,0.1,1,0.1,1.5,0.2c0.9,4.8,1.5,9.7,2.7,14.4c0.6,2.3,2.3,4.2,3.4,6.4c1.8-1.8,3.9-3.4,5.5-5.3c1.4-1.7,2.4-3.8,4.2-6.6 c0.3,2,0.7,3,0.6,3.9c-0.9,11.2-1.8,22.4-2.9,33.6c-1.2,11.6-2,23.3-4.1,34.7c-3.3,17.3-21.7,25.7-37.1,23.2 c-16.6-2.7-32.9-4.8-50.1,0.5c-11.8,3.7-25.2,2-37.7-1.4c-10.1-2.7-20.3-5.6-31-4.6c-6.1,0.6-12.1,1.4-18.2,1.7 c-17,0.6-33.8-0.4-49-9.4c-5.9-3.5-7.7-9.1-6.5-15.7c2.1-11.3,9.5-18.9,18-25.5c11.3-8.8,23.4-16.7,34.7-25.6 c10.1-8,15.9-19.6,22-30.6c13.7-24.5,26.9-49.3,40.1-74.1c7.6-14.3,19.7-23.8,33.4-31.6c2.4-1.4,4.7-2.9,7.3-4 C298.5,347.4,300.6,347.2,302.7,346.8z"/> <path class="st0" fill="#FFFFFF" d="M301.7,463.1c-6.6-8-5.6-7.4-13.3-1.9c-4.7,3.3-9.1,7.1-13.6,10.5c-0.7,0.5-1.6,0.6-2.5,0.9 c-0.1-0.8-0.5-1.8-0.2-2.5c6.9-18.3,13.9-36.5,20.9-54.7c0.9-2.2,2.4-4.3,4.4-8c2.2,5.3,3.8,9.5,5.7,13.6c0.7,1.4,1.9,3.7,2.9,3.6 c1.5,0,3.4-1.3,4.4-2.6c4.4-5.8,8.6-11.8,12.8-17.7c0.6,0.1,1.2,0.3,1.8,0.4c1.7,4.8,3.4,9.6,5.1,14.3c0.6,1.5,1,3.2,2,4.4 c0.9,1.1,2.5,2.2,3.7,2.2c1.1,0,2.6-1.4,3.3-2.6c3.1-5,5.9-10.1,9.4-16.1c4.2,5.6,7.9,10.2,11.2,15.2c0.7,1.1,0,3.5-0.7,5 c-3.1,6.6-6,13.2-4.8,20.8c0.1,0.7-0.2,1.5,0.1,2c5.4,10.2-3.4,14.8-8.5,20.6c-2.3,2.7-6.1,1.2-6.5-2.4c-0.3-3.3-1.2-5.4-4.9-5.5 c-0.7,0-1.8-0.8-1.9-1.3c-0.6-3.5-2.2-5.2-6-4.6c-2.8,0.4-5.6,0.4-8.4,0.5c-1.1,0-2.6,0.3-3.1-0.3c-3.8-4.2-6.8-1.8-9.6,1.1 C304,459.6,303.1,461.2,301.7,463.1z"/> <path class="st0" fill="#FFFFFF" d="M454.1,328c-1.4,2.5-2.8,5.4-4.6,7.8c-0.8,1.1-2.7,2.1-4.1,2.1c-14.6-0.2-27.3,6.2-40.3,11.6 c-10.4,4.4-20.9,8.9-28,19.8c-4.1-5.8-7.6-10.7-11.3-16c14.2-13.2,30-23.5,48.8-28.1c8.7-2.1,17.8-2.5,26.8-3.1 C446.2,321.8,450.9,323.1,454.1,328z"/> <path class="st0" fill="#FFFFFF" d="M320.5,307.3c-3.4-10.2-6.9-19.1-9.3-28.2c-1.7-6.4-2.2-13.2-3.1-19.8c-0.1-1-0.3-2.2,0.1-3 c1.2-2.2,2.7-4.2,4.1-6.3c1.7,1.2,4,2.1,5,3.8c6.2,10.9,12.2,21.9,18,32.9c0.5,0.9,0.3,2.7-0.3,3.4 C330.6,295.5,326.1,300.7,320.5,307.3z"/> <path class="st0" fill="#FFFFFF" d="M425,276.2c0.5,12.5-9.7,19.5-22.1,19.8c-9.8,0.2-19-8.4-18.9-17.4c0.2-11.1,13.5-23.4,22.1-22.7 C415.5,256.6,425,266.1,425,276.2z M410.4,267c-6.9,0-12.4,5.5-12.4,12.5c0,6.5,3.7,10.4,9.8,10.5c8.1,0.1,14.2-5.2,14.2-12.4 C422,270.3,418.5,267,410.4,267z"/> <path class="st0" fill="#FFFFFF" d="M486.6,341.6c-6.2-6.1-10.9-7.1-17.4-3.7c-5.3,2.8-7.3,9.2-5.6,17.7c-6.5-0.7-11.2-8.2-8.5-13.8 c2.6-5.3,4-11.5,10.1-14.5c5-2.5,9.5-1.5,13.9,1.2C484,331.6,486.3,336,486.6,341.6z"/> <path class="st0" fill="#FFFFFF" d="M433.5,564c-3.7,0.1-10.9-4.7-10.2-7.8c1-4.4,3.7-8.4,5.6-12.6c4.1,3.9,9.4-1.2,13.5,1.6 c2.7,1.8,4.1,4.2,2.7,7.9C442.8,559.2,438.2,563.9,433.5,564z"/> <path class="st0" fill="#FFFFFF" d="M514.3,560c-5.2,0-8.3-2.8-8.3-7.5c0-5.1,5.3-10.7,9.9-10.5c9,0.5,13,3.3,13.1,9.1 C529.1,556,522.4,560,514.3,560z"/> <path class="st0" fill="#FFFFFF" d="M136.4,436.8c3.4,0,6.8,0.1,10.1,0c4.7-0.2,9.7,0.1,14.1-1.3c5.7-1.8,9,2.9,13.7,3.6c0.1,0,0.3,2.7-0.4,3.3 c-1.4,1.2-3.4,2.7-5.1,2.5c-9.1-0.7-18.2-1.7-27.3-3c-1.9-0.3-3.7-1.8-5.5-2.7C136.2,438.4,136.3,437.6,136.4,436.8z"/> <path class="st0" fill="#FFFFFF" d="M451.5,438.1c-4.2,0.2-8.5,0.7-12.7,0.6c-1,0-2.5-1.9-2.6-3.1c-0.2-2.6-0.1-5.4,0.8-7.9 c0.3-0.9,2.9-1.7,4.3-1.6c7.9,0.8,15.9,1.8,23.8,2.9c1.6,0.2,3.2,1,4.8,1.6c-0.8,1.5-1.4,3.4-2.6,4.5c-1.4,1.3-3.3,2-5.2,2.6 c-0.5,0.1-1.5-1.4-2.2-2.2c-1.1-1.2-2-3-3.3-3.4c-3.7-1.2-7.5-1.9-11.4-2.5c-1.5-0.2-3.2,0.4-4.8,0.7c0.8,1.5,1.2,3.8,2.4,4.3 c2.7,1.1,5.8,1.4,8.8,2C451.5,437.2,451.5,437.7,451.5,438.1z"/> <path class="st0" fill="#FFFFFF" d="M518,497.2c0,5,0.4,10-0.1,14.9c-0.4,4.5-3.5,6.8-8.1,6.9c-3.4,0-6.8,0.3-10.5,0.5c0.3-4.2,2.6-7.4,6.3-9.3 c3.5-1.8,6.2-3.7,7-8c0.4-2,2.7-3.7,4.1-5.5C517.1,496.9,517.6,497.1,518,497.2z"/> <path class="st0" fill="#FFFFFF" d="M513.7,464.6c-5.1,2.5-13.1,2-15.4-0.8c-2.3-2.9-1.4-8.9,2-12.6c3.6-3.9,7.3-2.4,11.8-0.1 C505.5,456.6,510.9,460.3,513.7,464.6z"/> <path class="st0" fill="#FFFFFF" d="M557.6,560.2c-2.3-1.9-4.7-3-5.6-4.9c-0.7-1.4-0.1-4.2,0.9-5.5c2.5-3,3.9-5.7,2.3-9.8 c-0.5-1.2,1.2-3.3,1.9-4.9c1.3,1.4,3.5,2.8,3.6,4.3c0.3,4.5,0,8.8,3.9,12.2c0.7,0.6,0.7,3.2,0.1,3.8 C562.9,557.1,560.4,558.4,557.6,560.2z"/> <path class="st0" fill="#FFFFFF" d="M472.9,524.8c-2.7,0.2-6.3,1.1-6-4.4c0.3-5.4,4-9.2,9.1-9.5c4.4-0.2,6.5,2.2,6.8,6 C483.3,521.1,478.5,524.9,472.9,524.8z"/> <path class="st0" fill="#FFFFFF" d="M453.7,520.3c0.6,0.7,1.5,1.4,1.9,2.2c2.4,4.9,4.5,10,7.3,14.7c1.7,2.8,1.3,4.6-0.9,6.3 c-2.7,2-5.6,4.2-8.8,1.1c-1.8-1.8-4.7-3.1-1.7-6.8c2.7-3.4,3.6-7.9,1.6-12.5c-0.6-1.4-0.5-3.1-0.7-4.7 C452.8,520.5,453.2,520.4,453.7,520.3z"/> <path class="st0" fill="#FFFFFF" d="M548.6,494.3c3.3-2.4,7.5-1.7,10.1,2c3.5,5.1,2.9,10.4-1.5,13.5c-4.5,3.1-5.2,2.9-6.3-2.5 C550.2,503,549.4,498.8,548.6,494.3z"/> <path class="st0" fill="#FFFFFF" d="M280.2,331.2c3.7,3.6,7.2,6.7,10.4,10.2c0.6,0.7,0,3.3-0.9,4.2c-1.1,1.2-3.1,1.6-4.7,2.4 C278,342.4,276.1,337,280.2,331.2z"/> <path class="st0" fill="#FFFFFF" d="M497.2,505.9c-2-3.6-2.2-7.8,0.4-10.4c1.8-1.9,5.8-1.6,9.1-2.4C506.5,501,504.7,503.2,497.2,505.9z"/> <path class="st0" fill="#FFFFFF" d="M457.9,558.2c12-4.7,9.9-17.1,14-26.7C476.5,539.7,468.1,555.7,457.9,558.2z"/> <path class="st0" fill="#FFFFFF" d="M469.6,489c4.4,1.8,7.2,2.9,10.8,4.4c-3.8,2.6-5.7,8.4-10.6,5.4C465.2,495.9,470.3,492.4,469.6,489z"/> <path class="st0" fill="#FFFFFF" d="M518.4,534c-1.5-3.9-2.4-6.1-3.6-9c2.3-0.9,4.6-2.2,6.9-2.4c0.9-0.1,3.2,3.3,2.8,3.9 C523.1,529,520.9,531,518.4,534z"/> <path class="st0" fill="#FFFFFF" d="M304.4,481.4c-2.3-3.8-5-7-2.2-10.6c0.6-0.8,5.2,0.1,6.2,1.4C311.7,476.6,306.5,478,304.4,481.4z"/> <path class="st0" fill="#FFFFFF" d="M483.8,483.1c-1.3-6.7-2.4-12.4-3.5-18.2c0.7-0.2,1.3-0.4,2-0.5c0.7,2.6,1.4,5.2,2.3,7.8 c0.6,1.8,1.7,3.5,2.1,5.4C487.3,480.2,487,482.5,483.8,483.1z"/> <path class="st0" fill="#FFFFFF" d="M468.3,347.6c2.8-1.6,4.4-3.3,6-3.3c1.2,0,2.4,2,3.7,3.2c-1.7,1.2-3.3,2.7-5.2,3.4 C472.1,351.1,470.6,349.3,468.3,347.6z"/> <path class="st0" fill="#FFFFFF" d="M593.3,439.6c4.4-0.2,8.9-0.5,14-0.8C604.1,442.4,598.8,443,593.3,439.6z"/> <path class="st0" fill="#FFFFFF" d="M538.9,530.4c-2.7-2.1-6-4.8-9.9-7.9C535.4,522.5,538.4,525.6,538.9,530.4z"/> <path class="st0" fill="#FFFFFF" d="M344.8,339.1c1-2.8,2.1-5.5,3.1-8.3c0.8,0.2,1.5,0.5,2.3,0.7c-0.9,2.8-1.7,5.6-2.6,8.4 C346.7,339.6,345.8,339.4,344.8,339.1z"/> <path class="st0" fill="#FFFFFF" d="M530.1,473.2c-2-3.5-4.1-7.2-5.9-10.4C528.5,463.9,531.6,468.9,530.1,473.2z"/> <path class="st0" fill="#FFFFFF" d="M568.9,544c5.5,1.5,6.9,3.9,5.4,9C572.5,550,570.9,547.3,568.9,544z"/> <path class="st0" fill="#FFFFFF" d="M520.2,475.2c-1.3,1.7-2.5,3.3-3.9,5.1C512.9,476.3,513.4,475.5,520.2,475.2z"/> <path class="st0" fill="#FFFFFF" d="M573.5,538.4c-1.2-1.6-2.5-3.2-3.7-4.8c0.7-0.5,1.9-1.5,1.9-1.5c1.4,1.4,2.7,3,4,4.6 C575,537.3,574.2,537.8,573.5,538.4z"/> <path d="M23.1,137.9c28.5,29,62.2,50.8,96.7,71.7c0.3,0.2,0.2,1.2,0.3,1.9C108.7,213,29.5,153.4,23.1,137.9z"/> <path class="st0" fill="#FFFFFF" d="M549.5,678.7c-1,5.1-1.6,10.4-3.2,15.3c-0.9,2.8-3.4,5-5.2,7.4c-0.8,1-2.2,1.7-2.8,2.9 c-6.5,12.4-20.6,16-29.5,25.7c-4.9,5.3-11,2.5-16.3,1.6c-5.2-0.9-10.2-3.3-14.9-5.7c-3.8-1.9-7.4-2.4-11.3-0.9 c-1.7,0.6-3.8,1.5-5.2,1c-8-3.2-17.4-5.2-23.4-10.8c-5.2-4.8-8.3-13.5-9.1-20.9c-0.9-8,5.7-13.7,12.4-18.2 c7.1-4.9,14.5-9.6,20.8-15.4c7.1-6.5,15.6-9.6,24.2-12.3c8-2.5,16.5-4,24.9-5.2c11.8-1.6,21.3,2.7,28.1,12.5c0.7,0.9,1.2,2.1,2,2.7 C547.5,663.6,549.2,670.7,549.5,678.7z M538.7,667.9c-2.7,1.4-4.9,1.9-6.3,3.3c-5.9,5.9-10.7,13.2-17.4,17.7 c-7.3,4.9-13.2,11-19.3,16.9c-2.9,2.9-5.5,2.9-9.1,1.5c-7.1-2.6-12.6-7.3-18.6-11.6c-5.1-3.6-10.7-6.2-11.3-13.6 c-0.1-1-2.3-1.9-3.5-2.8c-0.8,1.2-2.1,2.3-2.2,3.5c-0.4,4.6,0.6,9.1,4.5,12c9.7,7.1,18.4,15.9,30.4,19.4c4.6,1.4,9,1.4,12.8-2.5 c4.8-4.9,9.9-9.5,15-14c3.8-3.4,7.9-6.6,11.8-10c2.4-2.2,4.7-4.5,6.8-7C535.1,677.5,539.6,675,538.7,667.9z M477.6,655.7 c2,3,3.9,4.4,7.1,2.4c7.1-4.5,14.7-3.6,22.3-1.5c2.5,0.7,4.9,1.9,7.4,2.1c1.8,0.1,4.7-0.7,5.2-2c1.1-2.6-1-3.4-3.5-3.8 c-5.8-1-11.4-2.9-17.1-3.7C491.1,648,483.9,649.9,477.6,655.7z"/> <path class="st0" fill="#FFFFFF" d="M60.4,468c-3.1,5.7-6.8,6.4-11,6c-3.5-0.3-6.4,0.1-8.1,4c-1.2,2.8-11.7,4.6-14,2.5c-0.7-0.6-0.6-3.7,0.2-4.3 c4-3,8.1-6.9,12.7-7.9C46.4,466.9,53,468,60.4,468z"/> <path class="st0" fill="#FFFFFF" d="M59.5,481.5c1.7-2.5,2.9-4.6,4.6-6.4c0.9-0.9,2.5-1.1,3.8-1.6c0,1.3,0.5,2.8,0,3.8 C66.2,480.4,63.6,482.2,59.5,481.5z"/> <path class="st0" fill="#FFFFFF" d="M56.3,483.1c-2.9-0.3-5.9-0.5-8.8-0.8c0.1-0.8,0.1-1.5,0.2-2.3c3,0.2,6,0.4,9,0.6 C56.5,481.4,56.4,482.2,56.3,483.1z"/> <path class="st0" fill="#FFFFFF" d="M254.2,356c-4.3-2.1-9.8-4.2-14.8-7.3c-17.1-10.7-33.8-22.2-47.4-37.3c-8.5-9.4-16.9-19.3-19.4-32.3 c-0.4-2.1,0.5-5.3,2-6.7c1.2-1,4.8-0.6,6.4,0.5c6.8,4.6,13.3,9.5,19.7,14.5c1.5,1.2,2,3.5,3.3,4.9c3.2,3.4,6.2,7.2,10,9.7 c17.6,11.3,31.1,26.5,42.8,43.5c1.1,1.6,1.8,3.4,2.4,5.3C260.4,354.1,258.9,356.1,254.2,356z"/> <path class="st0" fill="#FFFFFF" d="M577.7,47.4c0.3,5.8,1.4,11.7,0.6,17.4c-0.6,4.3,0.6,6.4,4,8.3c3,1.6,5.8,3.4,9.7,5.8 c-5.4,2.1-10.7,2.8-13.8,5.7c-3,2.8-3.6,8-5.3,12.1c-3-4.3-5.9-8.8-9-13.1c-1.7-2.4-3.7-3.2-6.7-1.5c-5.9,3.4-12.1,6.3-19.1,8.9 c2.1-4.3,3.8-8.9,6.3-12.9c4.4-7,4.8-8.4-0.7-14c-1.4-1.4-2-3.7-3.7-7.1c6.3,2.2,11.3,3.9,16.3,5.6c1.5,0.5,3.2,1.8,4.5,1.6 c2-0.3,4.6-1.2,5.7-2.7c3.3-4.7,6-9.8,8.9-14.7C576.2,47.1,577,47.3,577.7,47.4z"/> <path class="st0" fill="#FFFFFF" d="M204,422.4c-12.6-3.9-25.1-6.5-36.6-11.6c-13.8-6.1-26.9-13.9-39.8-21.8c-5-3.1-8.9-8.2-12.8-12.8 c-2.7-3.3,1.3-4.8,3.1-4.8c6.7,0,13.7-0.1,20.1,1.6c6,1.6,11.9,4.1,17,8.8c4.1,3.7,11.4,3.7,16.6,6.6c12.5,6.9,24.7,14.5,36.9,22 c2.4,1.5,5,4.1,3.2,6.9C210.2,419.3,207,420.4,204,422.4z"/> <path class="st0" fill="#FFFFFF" d="M584,267.4c0,3.5,0.2,7-0.1,10.5c-0.3,3.6,0.5,5.9,4.2,7.2c2.6,0.9,4.8,2.9,8.3,5.2c-2.2,0.4-2.8,0.6-3.3,0.6 c-9,0.7-10,1.8-10.1,10.7c0,2.7-0.7,5.4-2.2,8.4c-1.7-3.3-3.4-6.7-5.2-10c-2.8-5.4-4.3-5.8-9.8-4.1c-4.9,1.5-10,2.7-15,4 c-0.1-0.4-0.3-0.8-0.4-1.3c2.1-3.2,5.4-6.3,5.8-9.7c0.4-3.3-2.3-6.9-4-11.6c4.8,1.2,9.3,2,13.5,3.6c4.7,1.7,7.7,0.7,10-3.9 c1.7-3.4,4.3-6.4,6.5-9.6C582.7,267.4,583.3,267.4,584,267.4z"/> <path class="st0" fill="#FFFFFF" d="M271.4,268.2c-2.7-0.9-5.5-1.6-8.2-2.6c-3.2-1.2-5.6-1-7.3,2.5c-1.9,3.8-4.4,7.2-6.8,11.2 c-5.9-4.7-7.8-13-16.2-14.8c3-0.8,5.9-1.9,9-2.4c6-1,7.3-3,5.6-9.1c-1.4-5-2.7-10.1-4-15.2c0.5-0.2,0.9-0.4,1.4-0.6 c3.3,3.8,6.8,7.4,10,11.3c2.8,3.4,5.8,4.6,9.8,2.2c1.1-0.6,2.6-0.5,3.6-0.6c-1.5,3.6-4.3,7.1-3.6,9.7c0.8,2.8,4.8,4.8,7.5,7.1 C272,267.3,271.7,267.8,271.4,268.2z"/> <path class="st0" fill="#FFFFFF" d="M515.7,406.2c0.8-7.1,5.6-13.1-2.7-17.2c0.3-0.4,0.7-0.9,1-1.3c2.6-0.3,5.2-0.9,7.7-0.7 c3.9,0.4,5.9-1.4,7.2-4.7c1.3-3.1,2.5-6.3,3.7-9.4c0.4,0,0.9,0,1.3,0c0.4,3.6,1,7.1,1,10.7c0.1,3.8,1.6,5.3,5.4,5.4 c4.2,0,8.3,0.5,12.5,0.7c0.1,0.4,0.1,0.9,0.2,1.3c-3.6,1.9-8.3,3.1-10.6,6c-2.1,2.7-1.7,7.5-2.5,12.4c-2-2.4-3.6-4.1-4.9-6 c-3.7-5.1-5-5.5-10.6-2.3C521.9,402.6,519.4,404.1,515.7,406.2z"/> <path class="st0" fill="#FFFFFF" d="M71.6,332.3c-3.6,6-3.5,5.9,2.6,9.5c2.1,1.2,3.8,2.9,5.8,4.4c-0.1,0.5-0.3,1-0.4,1.5c-2.3-0.3-4.7-0.2-6.9-0.8 c-10.4-2.6-10.4-2.6-12.8,7.5c-0.3,1.2-0.9,2.4-1.7,4.2c-1.9-3.7-2.8-7.9-5.4-9.7c-2.7-1.9-7-1.5-10.5-2.1c-0.1-0.5-0.1-1-0.2-1.5 c1.9-1.4,3.7-3,5.9-4.1c3.6-1.8,4.2-3.8,1.8-7c-2-2.7-3.9-5.5-5.8-8.3c0.3-0.4,0.6-0.8,0.8-1.2c3.4,1.9,7.2,3.3,10,5.8 c5,4.6,9.7,6.5,15.5,1.6C70.4,331.9,71.1,332.2,71.6,332.3z"/> <path class="st0" fill="#FFFFFF" d="M511.9,183.1c0.6,3.6,1.5,7.2,1.8,10.9c0.3,3.2,1.5,4.4,4.8,3.9c2.7-0.4,5.5-0.1,9.3-0.1 c-3.7,3.1-7.3,4.9-8.6,7.7c-1.3,2.8-0.3,6.7-0.3,10.2c-0.4,0.1-0.8,0.3-1.2,0.4c-1.6-3-3.3-6-4.7-9c-1.8-4-4.3-4.4-7.1-0.9 c-2.2,2.7-4.6,5.4-6.9,8c-0.4-0.2-0.8-0.4-1.2-0.6c0.7-2.9,2.4-5.9,1.8-8.5c-0.6-2.5-3.5-4.5-5.1-7.9c1.8,0.4,3.6,0.7,5.4,1.3 c5,1.4,6.2,0.5,7.1-4.7c0.6-3.7,1.9-7.3,2.9-10.9C510.6,182.9,511.3,183,511.9,183.1z"/> <path class="st0" fill="#FFFFFF" d="M393.2,62.8c-1.4-3.9-2.5-7.1-3.6-10c1.8-0.4,4.7-0.3,5.9-1.6c1.1-1.2,0.4-4.1,0.5-6.2 c0.2-3.6,0.4-7.3,0.5-10.9c0.6-0.1,1.3-0.2,1.9-0.2c1.1,2.9,3,5.7,3.2,8.7c0.4,5.7,2.7,7.6,8.6,5.7c-4.3,3.4-4.2,6.3-0.8,10 c1.9,2.1,2.4,5.4,3.6,8.1c-0.4,0.3-0.8,0.6-1.2,0.8c-2.5-2.5-5-4.9-7.6-7.4c-4.2-4.2-4.9-4.1-8.6,0.9 C395.1,61.4,394.2,61.9,393.2,62.8z"/> <path d="M410.4,267c8.1,0,11.6,3.3,11.6,10.6c0,7.2-6.1,12.4-14.2,12.4c-6.1,0-9.8-4-9.8-10.5C398,272.5,403.5,267,410.4,267z M406.6,279c3.2,3.6,5.1,1.2,7.9-1.2c-1.2-1.2-2.2-2.2-3.1-3.1C409.6,276.3,408.3,277.5,406.6,279z"/> <path d="M538.7,667.9c0.9,7.1-3.6,9.6-6.4,13c-2.1,2.5-4.4,4.8-6.8,7c-3.8,3.4-7.9,6.6-11.8,10c-5.1,4.6-10.2,9.2-15,14 c-3.8,3.9-8.2,3.8-12.8,2.5c-11.9-3.6-20.7-12.3-30.4-19.4c-3.9-2.8-4.8-7.4-4.5-12c0.1-1.2,1.5-2.3,2.2-3.5 c1.2,0.9,3.4,1.8,3.5,2.8c0.6,7.3,6.2,9.9,11.3,13.6c6,4.3,11.5,9,18.6,11.6c3.6,1.3,6.2,1.3,9.1-1.5c6.1-6,12-12,19.3-16.9 c6.7-4.5,11.5-11.8,17.4-17.7C533.8,669.8,536,669.3,538.7,667.9z"/> <path d="M477.6,655.7c6.2-5.8,13.5-7.7,21.4-6.6c5.8,0.8,11.4,2.7,17.1,3.7c2.6,0.4,4.6,1.2,3.5,3.8c-0.5,1.2-3.4,2.1-5.2,2 c-2.5-0.2-4.9-1.4-7.4-2.1c-7.6-2.1-15.2-3-22.3,1.5C481.6,660.1,479.7,658.7,477.6,655.7z"/> <path class="st0" fill="#FFFFFF" d="M406.6,279c1.7-1.5,3-2.7,4.8-4.3c0.9,0.9,1.9,1.9,3.1,3.1C411.8,280.1,409.8,282.5,406.6,279z"/> </g> <rect class="st1" width="612" height="792"/> </svg>