<?xml version="1.0" encoding="utf-8"?>
<!-- Generator: Adobe Illustrator 22.1.0, SVG Export Plug-In . SVG Version: 6.00 Build 0)  -->
<svg version="1.1" id="Layer_1" xmlns="http://www.w3.org/2000/svg" xmlns:xlink="http://www.w3.org/1999/xlink" x="0px" y="0px"
	 viewBox="0 0 612 792" style="enable-background:new 0 0 612 792;" xml:space="preserve">
<style type="text/css">
	.st0{fill:#FFFFFF;}
	.st1{fill:none;}
</style>
<g>
	<g>
		<path class="st0" d="M540.7,678.8c-156,0-312,0-468,0c0-202,0-404.1,0-606.1c156,0,312,0,468,0
			C540.7,274.8,540.7,476.8,540.7,678.8z M254.7,435.7c-9.6,15.4-13.6,31.8-13.4,49.4c0,2.4-0.1,5.1-1.1,7.2
			c-2.4,4.9-5.5,9.5-8.2,14.2c-8.1,14.3-12.1,29.8-12.9,46.2c-0.2,3.6,0.2,7.6-1.2,10.8c-4,8.7-8.7,17.2-13.6,25.6
			c-1.5,2.5-4.3,4.7-7,6c-7.6,3.9-15.6,7.1-23.3,10.8c-3.9,1.9-7.7,4.3-11.3,6.8c-0.8,0.6-1.4,2.5-1,3.4c0.4,0.9,2.1,1.7,3.2,1.6
			c2.8-0.2,5.5-0.9,8.3-1.4c2.9-0.5,5.8-1,8.7-1.5c-0.9,1.4-1.9,1.9-3,2.5c-6.8,3.7-12.1,9.1-16.1,15.7c-0.8,1.3-0.8,3.7-0.1,5
			c0.5,0.8,3.1,1,4.5,0.6c3.1-0.9,6.2-2.2,9.1-3.7c7.7-3.9,15.2-8,23.1-12.1c-0.5,0.9-0.9,1.7-1.3,2.6c-2.8,5.9-5.6,11.7-8.2,17.6
			c-0.4,1,0,2.9,0.7,3.8c0.4,0.5,2.7,0.2,3.5-0.5c2.8-2.2,5.4-4.6,7.8-7.2c4.4-4.8,8.6-9.9,13.1-15.1c0.9,3.8,1.4,7.4,2.7,10.7
			c1,2.5,2.5,5.1,4.3,7c2.3,2.5,5.1,1.9,6.3-1.4c0.9-2.6,1.6-5.5,1.6-8.2c0.3-9.5,1.5-18.8,5.1-27.6c1-2.4,2.6-4.6,4.1-6.8
			c2.3-3.5,5.4-6.7,7.1-10.5c2.9-6.7,5-13.8,7.4-20.7c0.3-0.8,0.2-1.7,0.4-2.5c0.3-1.3,0.3-2.9,1.1-3.7
			c15.5-17.8,25.1-39.2,34.8-60.3c5.8-12.6,8.5-26.6,12.6-40c8.1,0,16.8,0,25.3,0c1.2,5.1,2.1,10.5,3.9,15.6c1.8,5,4.5,9.8,7.1,14.5
			c4.9,9.1,8.2,19.2,16.1,26.5c0.4,0.4,0.7,1.3,0.6,2c-0.8,12.7,4,23.9,8.9,35.2c4.3,10,9.3,19.2,17,27.1c8.9,9.1,7.2,19.6-2.8,27.5
			c-10.4,8.2-20.6,16.6-30.7,25.1c-1.2,1-1.3,3.2-1.9,4.9c1.7,0.1,3.5,0.6,5,0.1c7.3-2.7,14.6-5.7,21.8-8.7c3.1-1.3,6.1-2.8,9.7-4.4
			c-3.2,7-6,13.2-8.7,19.5c-0.4,1,0,2.5,0,3.7c1.3-0.1,3,0.2,3.9-0.4c2.4-1.7,4.4-3.9,6.7-5.7c5-3.8,10.1-7.5,15.6-11.5
			c0.3,7.4,2.2,13.6,5.7,19.2c0.7,1.2,2.6,1.7,3.9,2.5c0.7-1.3,1.8-2.6,1.9-4c0.2-4.1,0.1-8.2,0.1-12.5c3.2,2.8,5.9,5.5,9,7.9
			c1.2,0.9,3.1,0.8,4.6,1.2c0.3-1.6,1-3.2,0.8-4.7c-0.5-4.8-1.5-9.6-2-14.5c-0.7-8-0.5-16.1-3.4-23.9c-2.9-7.8-4.6-15.6-4.6-24.4
			c0.2-23.8-4.7-46.7-18.7-66.7c-2.4-3.5-2.6-6.7-1.1-10.7c4.4-11.5,6.5-23.2,3.3-35.6c-3-11.5-6.2-22.7-15-31.3
			c-1.5-1.5-2.7-3.3-4-4.8c6-3.1,11.5-5.9,17.5-9c0.1,0.1,0.9,0.9,1.7,1.6c10.5,9.4,22.5,16.5,35.9,20.9c2.7,0.9,3.6,2.1,4,4.7
			c1.6,11.5,0.4,22.7-2,33.9c-0.3,1.2-0.4,2.4-0.7,3.6c0.4,0.2,0.7,0.4,1.1,0.6c2.9-3.2,5.8-6.5,8.8-9.8c0.9,6.6,1.8,12.7,2.6,18.8
			c0.5,0,1,0,1.5,0c5.2-4.9,3.9-12.2,6-18.8c1.7,2.6,3,5.1,4.8,6.9c1.2,1.2,3.2,1.6,4.9,2.4c0.5-1.4,1.3-2.8,1.3-4.2
			c0.4-12.3,0.6-24.7,0.9-37c0.1-3.4,1.2-6.1,3.5-8.8c4.3-5.2,8.4-10.9,11.8-16.8c6.6-11.5,9.2-24.4,13.1-36.9c3.4-11,5.2-22,5-33.6
			c-0.4-16.3-0.1-32.6-0.1-48.9c0-11.1-1.8-21.9-5.3-32.5c-0.6-1.9-1.9-3.8,0.4-5.6c0.5-0.4,0.3-2.3-0.2-3c-6.4-9.2-13-18.2-22.8-24
			c-12.7-7.5-27-10.7-41.4-12.9c-6.6-1-13.3-1.6-20-2.3c-1.1-0.1-2.2,0.6-3.4,0.9c-2.3,0.6-5.2,2.3-6.8,1.6
			c-3.6-1.6-6.6-4.5-9.7-7.1c-0.4-0.3-0.3-1.6-0.1-2.3c4.4-15.2,4.3-30.8,3.4-46.3c-0.4-7.6-2.5-15.2-3.8-22.8
			c-1.2-7.1-2.6-14.2-3.1-21.4c-0.9-11.5-5.8-20.6-14.6-27.6c-6.7-5.3-14.5-7.8-23-8.4c-14.7-1-29.4-2.7-44.2-3.5
			c-5.9-0.3-11.9,1.1-17.9,1.4c-13.7,0.7-27.4,0.9-41,1.9c-5.3,0.4-10.6,1.9-15.7,3.6c-4.8,1.6-9.1,4.6-14,6.2
			c-17.1,5.5-30.7,16.3-42.5,29.1c-10.8,11.7-20.3,24.4-30.6,36.6c-5.6,6.7-9.3,14.4-12,22.5c-1.3,4.1-2.1,8.6-2.2,12.9
			c-0.2,6.2,4.9,9.3,10.6,6.8c8.1-3.5,16.5-6.4,24-11.5c9.4-6.4,20.1-10.9,28-19.4c5.1-5.5,11-9.2,18.2-11.1c9.6-2.5,19.2-4,29-1.2
			c5.3,1.5,7,4.3,5,8.9c-2,4.7-4.9,8.7-10.2,10.4c-7,2.3-14,4.5-20.8,7.2c-21.2,8.6-39.4,21.6-54.9,38.4c-3.3,3.5-6,7.7-8,12.1
			c-2.5,5.6,0.5,12.8,5.4,14.7c5.6,2.2,11.1,2.1,16.5-1.3c13.3-8.3,27.5-14.9,42.3-20.1c7.1-2.5,13.6-6,19.8-10.2c3-2,6.3-3.7,9.7-5
			c5.3-1.9,10.7-3.6,16.2-4.6c5.5-1,11.3-2.3,16.6-1.4c10.8,1.8,21.4,5,32,7.6c-1.3,1.8-2.6,2.7-3.9,3.5
			c-13.2,8.7-26.9,16.7-37.4,28.7c-2.6,3-5.1,5.5-9.5,4.3c0-0.2,0-0.5,0.1-0.7c9.4-11.2,19.3-21.8,33.7-26.8c1.2-0.4,2-2.2,3-3.3
			c-1.5-0.4-3.2-1.6-4.3-1.2c-4.3,1.6-8.8,3.3-12.5,5.9c-17.7,12.1-29.4,30.3-44.7,44.9c-0.2,0.2-0.3,0.4-0.4,0.6
			c-6.9,11.3-13.8,22.5-20.5,33.9c-1.2,2.1-1.8,4.6-2.5,6.9c-2.3,7.7-4.8,15.4-6.7,23.3c-1.3,5.4-2.6,11-2.7,16.5
			c-0.1,17.7,1.8,35.2,5.7,52.4c0.9,4,2.8,8.3,5.5,11.4c7.9,9,17.3,16.3,29.5,18.7C247.1,435.1,250.5,435.2,254.7,435.7z
			 M137.8,676.4c0.4-0.3,0.7-0.6,1.1-1c-0.5-0.6-0.9-1.3-1.4-1.9c-5.5-6.2-11.4-12.1-16.4-18.7c-10.1-13.3-10.9-28.3-6.1-43.6
			c2.5-7.8,4.8-15.5,4.7-23.6c-0.1-20.3-0.6-40.6-0.8-60.9c0-1.2,0.9-2.4,1.4-3.7c1.5,0.6,3.8,0.8,4.4,1.9c1.9,3.4,3.5,7,4.5,10.7
			c0.8,3.2-0.1,6.1-2.5,9c-2,2.5-3,6.1-3.5,9.4c-0.5,4,1.7,5.1,5.2,2.9c2-1.3,4-2.9,5.4-4.7c3.5-4.6,3.2-7.3-0.6-11.6
			c-0.7-0.8-1.4-1.8-1.7-2.8c-1.6-4.8-3.1-9.7-4.6-14.5c5.9-1.1,9,0.5,12.2,6.1c3.3,5.7,6.8,11.3,10.1,17c1.8,3.2,4,6.3,4.9,9.7
			c0.8,3,0.5,6.5-0.1,9.7c-0.6,3.3-3.6,3.7-6.5,3.3c-2.8-0.3-2.6-2.7-2.8-4.8c-0.3-5.5,0.3-10.8,3.5-15.7c-1.4,0.9-2.7,1.9-3,3.1
			c-0.9,4.4-1.5,8.8-2,13.3c-0.3,2.6,0.4,4.9,3.5,5.7c3.2,0.8,7.6-0.4,8.2-3.1c0.9-3.8,1.8-8.2,0.7-11.7c-1.5-4.8-4.8-9-7.4-13.4
			c-1.8-3.1-3.7-6.1-5.5-9.1c0.3-0.3,0.7-0.6,1-0.9c4.2,2.3,8.6,4.4,12.7,6.8c2.9,1.8,4.1,4.7,3.8,8.2c-0.1,1.3-0.3,2.7-0.3,4
			c-0.1,6.3,2.7,9,9,8.7c3.7-0.2,4.8-1.3,4.5-5.1c-0.5-7.6-3.2-14.5-10.3-18c-5.9-2.9-12.5-4.5-18.9-6.1c-1.8-0.5-3-0.8-3.9-2.5
			c-2.4-5.1-6.5-7.4-12.1-7.1c-3,0.1-6,0-8.3,0c-1.3-8.8-2.6-17-3.8-25.1c-0.1-0.4,0-0.7,0-1.1c-0.3-7.7-0.8-15.4-0.9-23.1
			c-0.2-7.8-0.1-15.6-0.1-23.4c0-6.3,0.8-12.7-1.7-18.8c-1.1-2.7-1.9-5.5-2.3-8.4c-0.6-4-0.4-8.1-1.1-12c-0.2-1.2-1.9-2.7-3.3-3.1
			c-0.7-0.2-2.6,1.6-2.9,2.7c-0.8,3.2-1.3,6.5-1.4,9.8c-0.4,11.1-0.6,22.2-1.1,33.4c-0.2,5.4-0.4,10.8-1.3,16.1
			c-2.6,14.9-1.4,29.6,2.7,43.9c3.5,11.9,6.5,23.9,5.4,36.4c-0.6,6.2-2.1,12.3-2.5,18.5c-0.6,9.5-0.7,19-1,28.6
			c-0.4,9.3,0.4,18.8-1.5,27.8c-3.5,16.3-7.9,32.6-16.6,47.2c-0.2,0.4-0.2,0.8-0.3,1.3c1.7-0.8,2.8-2,3.4-3.4
			c3.5-8.7,7.2-17.4,10.2-26.3c2.3-7,4.8-14.3,5.3-21.7c1.1-14.6,0.8-29.3,1.2-44c0.1-4.3,0.6-8.6,1.5-12.7
			c3.1-14.5,3.1-28.9-1-43.2c-3.7-13.1-7.3-26.2-6.4-40c0.5-7.7,1.7-15.3,2.1-23c0.7-13.3,0.9-26.6,1.4-40c0.1-2.5,0.7-5.1,1.3-7.6
			c0.2-0.9,1.2-1.5,1.8-2.3c0.5,0.9,1.4,1.7,1.5,2.6c0.4,2.5,0.3,5.1,0.6,7.7c0.5,3.6,1.1,7.2,1.8,10.8c0.8,4.3,2.8,8.6,2.5,12.7
			c-1.5,18,0.5,35.9,1.1,53.9c0.2,4.6,2.4,9.1,2.5,13.6c0.5,26.5,1,53.1,0.8,79.7c0,6.6-1.5,13.5-3.9,19.7
			c-3.6,9.3-3.6,18.6-2.5,28.1c1.1,10.3,7,18.4,13.3,26.1C128.9,667.5,133.5,671.9,137.8,676.4z M234.5,472.6
			c-0.7-1.8-1.2-3.2-1.8-4.4c-0.8-1.7-1.7-3.3-2.6-4.9c-1.5,1.5-3.1,2.9-4.3,4.5c-0.8,1-1.1,2.5-1.8,3.6c-0.9,1.4-2,2.8-3,4.1
			c-0.5-0.2-0.9-0.5-1.4-0.7c2.1-5.5,4.2-10.9,6.3-16.4c-0.2-0.1-0.5-0.2-0.7-0.3c-3.4,3.5-6.9,7.1-10.3,10.6
			c-0.4-0.3-0.8-0.6-1.2-1c1.2-2.2,2-4.9,3.8-6.4c6.7-5.7,8.8-13.4,10.1-21.4c0.6-3.7,0.5-7.5,0.7-11.3c-0.5,0-0.9,0-1.4-0.1
			c-0.1,1.4-0.2,2.8-0.3,4.1c-0.8,10.1-1.9,19.9-10.1,27.4c-2.7,2.5-4.5,5.9-4.2,11.3c3.2-1.9,5.6-3.3,7.8-4.6
			c-0.6,3.9-1.1,7.8-1.7,11.8c0.4,0.1,0.9,0.3,1.3,0.4c5.4-2.9,6.1-9.6,10.2-14.2c0.9,2.4,1.5,4.3,2.3,6.2c0.6,1.2,1.6,2.3,2.4,3.4
			c0.9-1.1,2.2-2.2,2.7-3.5c3.1-7.1,6-14.4,9.1-21.6c1.2-2.9,2.8-5.7,4.1-8.6c0.4-1,0.4-2.1,0.6-3.2c-3.4,5.6-6.5,11.1-9.1,16.8
			C239.2,460.1,237.1,466.1,234.5,472.6z M100.9,417.8c-4.7,3.1-8.4,8.7-9.4,13.5c-0.9,4.7-3,8.7-6.1,12.3c-2.1,2.4-4.3,4.8-5.7,7.6
			c-1.6,3.3-2.9,7-3.5,10.6c-0.6,3.7,1.9,7.1,5.4,8.2c3.5,1.2,6.3,0,8.7-2.9c4.2-5,4.8-11.1,6-17c0.8-4.1,0.1-8.1-4.2-10.5
			c-0.5-0.3-0.8-1.5-0.7-2.1c1.4-5.8,2.9-11.6,7.2-16.2C99.5,420.4,100.1,419.1,100.9,417.8z M99.6,502.9c-12-0.8-30,37.3-23.7,50.5
			c0.9-8.5-1.2-16.8,3.8-24c5.5,3.9,10.1,8.3,12,14.9c0.3-8.5-6.7-12.1-11.5-17.1C85.3,518,89.1,508.1,99.6,502.9z M151.6,433.3
			c-0.5,0.1-1,0.2-1.5,0.4c0.1,0.5,0.2,1,0.4,1.5c3.5,8.7,5.1,17.3,0.5,26.3c-1.5,3-2.2,6.8-1.8,10.1c0.4,4.5,4.6,5.8,8.1,3
			c3.2-2.5,4.4-8.3,1.4-11.5c-3.6-3.9-3.7-8.1-3.6-12.8c0.1-2.9-0.1-5.9-0.7-8.7C153.7,438.8,152.5,436.1,151.6,433.3z M116.4,433.6
			c23.5-12.6,40.6-6.6,51.8,17.7c-4-10.4-8.1-19.9-20.4-23.3C136.2,424.8,125.6,424.3,116.4,433.6z M160,431.3
			c-0.3,0.5-0.6,1-0.9,1.5c2.1,1.1,4.1,2.2,6.2,3.2c5.7,2.5,7.1,5.2,5.9,11.2c-0.9,4.2,3.2,10.7,7.4,11.8c6.1,1.6,9-1,8.1-7.3
			c-0.2-1.3-0.5-2.6-1-3.9c-1.5-3.7-5.8-6.9-9.1-6.4c1.6,1.1,3,2,4.3,3c3.4,2.5,4.4,6,4.3,10c-0.1,2.2-1.1,3.3-3.4,3.3
			c-5.6,0.1-10.6-6.1-8.6-11.3c1.4-3.7,0.5-6.4-2.3-8.4C167.5,435.6,163.7,433.6,160,431.3z M93.1,548c-0.3,0.2-0.7,0.4-1,0.6
			c2,2.5,3.9,5.3,6.1,7.6c2.1,2.1,3.4,4.3,2.6,7.2c-1.1,3.9-3.7,6.9-7.5,8.5c-2.6,1-4.8,0.3-5.6-2.8c-1.5-6.4-2.4-12.7,0.8-18.9
			c0.4-0.8,0.5-1.8,0.8-2.6c-0.3-0.1-0.7-0.1-1-0.2c-4.9,7.1-4.1,14.8-1.9,22.6c1,3.7,3.9,5,7.4,3.5c4.1-1.6,7.1-4.7,8.2-8.8
			c0.6-2.3,0-5.5-1.2-7.5C98.8,553.6,95.8,550.9,93.1,548z M128.4,433.3c-0.4,0.1-0.8,0.1-1.3,0.2c0,4.2-0.2,8.5,0.1,12.7
			c0.2,2.2,1.1,4.5,2.2,6.5c2.5,4.5,6.1,4.5,9.2,0.4c4.2-5.6,3.2-14.5-2.2-18.9c-1.5-1.2-3.7-1.7-5.6-2.5c-0.1,0.3-0.3,0.6-0.4,1
			c0.8,0.5,1.5,1,2.4,1.3c6.2,2.3,9.4,12.2,4.5,18.2c-2.4,3-5,3.2-6.4-0.4c-1.4-3.7-1.7-7.7-2.2-11.6
			C128.4,437.9,128.5,435.6,128.4,433.3z"/>
		<path d="M254.7,435.7c-4.2-0.4-7.6-0.5-11-1.2c-12.2-2.4-21.6-9.7-29.5-18.7c-2.7-3.1-4.6-7.4-5.5-11.4
			c-3.9-17.2-5.8-34.8-5.7-52.4c0-5.5,1.3-11.1,2.7-16.5c1.9-7.8,4.4-15.5,6.7-23.3c0.7-2.3,1.2-4.8,2.5-6.9
			c6.7-11.4,13.6-22.6,20.5-33.9c0.1-0.2,0.3-0.4,0.4-0.6c15.3-14.6,27-32.8,44.7-44.9c3.8-2.6,8.2-4.2,12.5-5.9
			c1.1-0.4,2.9,0.8,4.3,1.2c-1,1.1-1.8,2.9-3,3.3c-14.4,5-24.3,15.6-33.7,26.8c-0.1,0.2-0.1,0.5-0.1,0.7c4.4,1.2,6.8-1.3,9.5-4.3
			c10.5-12.1,24.2-20.1,37.4-28.7c1.3-0.9,2.6-1.7,3.9-3.5c-10.7-2.6-21.2-5.8-32-7.6c-5.3-0.9-11.2,0.4-16.6,1.4
			c-5.5,1-10.9,2.8-16.2,4.6c-3.4,1.2-6.7,2.9-9.7,5c-6.2,4.2-12.7,7.7-19.8,10.2c-14.8,5.2-29,11.8-42.3,20.1
			c-5.4,3.4-10.9,3.4-16.5,1.3c-5-1.9-7.9-9.1-5.4-14.7c2-4.4,4.8-8.6,8-12.1c15.5-16.8,33.7-29.8,54.9-38.4
			c6.8-2.8,13.8-5,20.8-7.2c5.3-1.7,8.2-5.7,10.2-10.4c2-4.6,0.2-7.5-5-8.9c-9.8-2.8-19.4-1.4-29,1.2c-7.2,1.9-13.1,5.6-18.2,11.1
			c-7.9,8.5-18.6,13-28,19.4c-7.5,5.1-15.9,8-24,11.5c-5.7,2.5-10.8-0.6-10.6-6.8c0.1-4.3,0.9-8.8,2.2-12.9
			c2.6-8.2,6.3-15.9,12-22.5c10.2-12.2,19.8-25,30.6-36.6c11.9-12.8,25.4-23.6,42.5-29.1c4.8-1.6,9.2-4.6,14-6.2
			c5.1-1.7,10.4-3.2,15.7-3.6c13.6-1,27.3-1.2,41-1.9c6-0.3,11.9-1.8,17.9-1.4c14.7,0.8,29.4,2.6,44.2,3.5c8.6,0.6,16.4,3.1,23,8.4
			c8.8,7,13.8,16.2,14.6,27.6c0.6,7.2,2,14.3,3.1,21.4c1.2,7.6,3.3,15.1,3.8,22.8c0.9,15.5,1,31.1-3.4,46.3c-0.2,0.7-0.3,2,0.1,2.3
			c3.1,2.5,6.2,5.4,9.7,7.1c1.7,0.8,4.5-1,6.8-1.6c1.1-0.3,2.3-1,3.4-0.9c6.7,0.6,13.3,1.2,20,2.3c14.4,2.2,28.7,5.4,41.4,12.9
			c9.8,5.8,16.5,14.8,22.8,24c0.5,0.8,0.7,2.6,0.2,3c-2.3,1.8-1,3.7-0.4,5.6c3.5,10.5,5.3,21.4,5.3,32.5c0,16.3-0.3,32.6,0.1,48.9
			c0.3,11.5-1.6,22.6-5,33.6c-3.8,12.5-6.5,25.4-13.1,36.9c-3.4,5.9-7.4,11.5-11.8,16.8c-2.3,2.8-3.4,5.5-3.5,8.8
			c-0.3,12.3-0.5,24.7-0.9,37c0,1.4-0.9,2.8-1.3,4.2c-1.7-0.8-3.7-1.1-4.9-2.4c-1.8-1.9-3.1-4.3-4.8-6.9c-2.1,6.5-0.8,13.8-6,18.8
			c-0.5,0-1,0-1.5,0c-0.9-6.1-1.7-12.2-2.6-18.8c-3,3.4-5.9,6.6-8.8,9.8c-0.4-0.2-0.7-0.4-1.1-0.6c0.2-1.2,0.4-2.4,0.7-3.6
			c2.4-11.2,3.7-22.4,2-33.9c-0.4-2.6-1.3-3.8-4-4.7c-13.4-4.4-25.3-11.5-35.9-20.9c-0.8-0.7-1.6-1.5-1.7-1.6c-6,3.1-11.6,6-17.5,9
			c1.2,1.5,2.4,3.3,4,4.8c8.8,8.6,12,19.9,15,31.3c3.2,12.3,1.1,24-3.3,35.6c-1.5,3.9-1.3,7.1,1.1,10.7c14,20,19,42.9,18.7,66.7
			c-0.1,8.8,1.6,16.6,4.6,24.4c2.9,7.8,2.7,15.8,3.4,23.9c0.4,4.8,1.5,9.6,2,14.5c0.2,1.5-0.5,3.1-0.8,4.7c-1.6-0.4-3.4-0.3-4.6-1.2
			c-3.1-2.3-5.8-5.1-9-7.9c0,4.4,0.2,8.5-0.1,12.5c-0.1,1.4-1.2,2.7-1.9,4c-1.3-0.8-3.2-1.3-3.9-2.5c-3.5-5.6-5.4-11.7-5.7-19.2
			c-5.5,4.1-10.6,7.7-15.6,11.5c-2.3,1.8-4.3,4-6.7,5.7c-1,0.7-2.6,0.3-3.9,0.4c0-1.2-0.5-2.7,0-3.7c2.6-6.3,5.5-12.4,8.7-19.5
			c-3.6,1.7-6.6,3.1-9.7,4.4c-7.2,3-14.5,5.9-21.8,8.7c-1.4,0.5-3.3,0-5-0.1c0.6-1.7,0.7-3.9,1.9-4.9c10.1-8.5,20.3-16.9,30.7-25.1
			c10-7.9,11.7-18.4,2.8-27.5c-7.8-7.9-12.8-17.2-17-27.1c-4.8-11.3-9.7-22.5-8.9-35.2c0-0.7-0.2-1.6-0.6-2
			c-7.9-7.3-11.2-17.4-16.1-26.5c-2.5-4.7-5.3-9.5-7.1-14.5c-1.8-5.1-2.7-10.5-3.9-15.6c-8.5,0-17.2,0-25.3,0
			c-4.1,13.4-6.8,27.4-12.6,40c-9.7,21.1-19.2,42.5-34.8,60.3c-0.8,0.9-0.8,2.5-1.1,3.7c-0.2,0.8-0.1,1.7-0.4,2.5
			c-2.4,6.9-4.5,14-7.4,20.7c-1.7,3.8-4.7,7-7.1,10.5c-1.5,2.2-3.1,4.4-4.1,6.8c-3.6,8.8-4.8,18.1-5.1,27.6
			c-0.1,2.8-0.7,5.6-1.6,8.2c-1.2,3.3-3.9,3.9-6.3,1.4c-1.8-2-3.4-4.5-4.3-7c-1.2-3.3-1.8-6.8-2.7-10.7c-4.5,5.2-8.7,10.2-13.1,15.1
			c-2.4,2.6-5.1,5-7.8,7.2c-0.8,0.7-3.1,1-3.5,0.5c-0.7-0.9-1.2-2.8-0.7-3.8c2.6-5.9,5.4-11.8,8.2-17.6c0.4-0.8,0.8-1.6,1.3-2.6
			c-7.8,4.1-15.4,8.2-23.1,12.1c-2.9,1.5-6,2.8-9.1,3.7c-1.4,0.4-4.1,0.3-4.5-0.6c-0.7-1.3-0.7-3.7,0.1-5c4-6.6,9.3-12,16.1-15.7
			c1-0.6,2.1-1.1,3-2.5c-2.9,0.5-5.8,1-8.7,1.5c-2.8,0.5-5.5,1.2-8.3,1.4c-1.1,0.1-2.8-0.7-3.2-1.6c-0.4-0.9,0.2-2.9,1-3.4
			c3.6-2.5,7.4-4.8,11.3-6.8c7.7-3.7,15.6-7,23.3-10.8c2.7-1.4,5.5-3.5,7-6c4.9-8.3,9.5-16.8,13.6-25.6c1.4-3.1,1.1-7.1,1.2-10.8
			c0.8-16.4,4.7-31.9,12.9-46.2c2.7-4.8,5.8-9.3,8.2-14.2c1-2.1,1.1-4.8,1.1-7.2C241.1,467.5,245.1,451.1,254.7,435.7z M270.7,395.7
			c0.6,2.2,1.6,4.5,1.8,6.7c0.7,7.5-2.1,14.2-5.1,20.8c0.1-2.6,1-5,1.5-7.5c0.8-4.9,1.8-9.8,2-14.8c0.2-4.9-2.1-6.5-6.9-6.1
			c-6,0.6-9.6,4.2-11.7,9.7c5.1,7.2,10.3,14.4,15.7,22c1.6-2.4,3-4.5,4.5-6.6c3.6-4.8,7.2-5.1,11.5-1c0.5,0.5,1.1,0.7,2.1,1.4
			c1-3.6,2.4-6.8,2.7-10.2c0.6-6.6-0.9-13.5-6.4-15.9c-4.5-2-8-0.8-11.7,1.5c1.6-1.3,3-3.3,4.8-3.8c6.2-1.6,12.4,2.4,13.9,8.7
			c0.7,3,1.1,6.1,1.6,9.3c3.4-2.7,5.9-7.4,11-4.4c3.6,2.1,6.9,4.6,10,6.8c1.3-1.1,3-3.5,5-3.9c2.2-0.4,4.8,0.9,7.7,1.6
			c0.9-7.7,0.9-15.5-1.2-23.1c-0.4-1.6-3.7-2.6-5.8-3.6c-1.1-0.5-2.5-0.5-3.8-0.8c11.3-2.2,12.6,5.2,12.8,13.9
			c1.1-1.2,1.7-2.2,2.3-3c2.7-4,6.6-5.7,10.3-4.8c4.3,1.1,5.6,3,6.3,8.7c0.2,1.5,0.5,3,0.7,4.8c9.1-8.1,13.2,0.6,19.1,5.2
			c0-3,0.1-5.4,0-7.7c-0.3-6.7-2-13.1-6.1-18.5c-2.8-3.7-7.2-4-11-3c-1.6,0.4-2.3,4.2-3.4,6.6c-0.4,1-0.6,2-0.9,3.1
			c-0.3-0.1-0.7-0.1-1-0.2c0-2.8,0.3-5.7-0.1-8.5c-0.3-1.9-1.7-5.2-2.7-5.3c-4.2-0.2-8.5,0.2-12.6,1.3c-1.6,0.4-2.6,3.1-3.9,4.7
			c-0.3,0.4-0.7,0.7-1,0.9c0.3-5.5,0.8-10.8,0.6-16.1c-0.1-1.9-1.7-5.1-2.9-5.2c-4.7-0.5-9.8-2.3-14,2.3c-1.1-2.9,0.8-3.7,2.4-3.9
			c2.6-0.4,5.3-0.4,8-0.5c6.2,0,8,1.8,8.1,8.1c0.1,2.6,0,5.3,0,8.3c2.7-0.7,4.6-1.3,6.7-1.7c7.7-1.5,10-0.6,13.5,5.4
			c4.8-2.9,14.3-1.3,17.6,5.6c3.5,7.4,4.7,15.1,4.2,23.2c-0.1,1.3-0.7,2.8-0.2,3.7c1.9,3.4,4.3,6.6,6.6,10.1
			c3.5-10.3,6.7-20.2,4.6-30.8c-0.6-3-1.3-6.1-2.8-8.6c-2.8-4.9-6.1-4.8-9.6-0.4c-0.1,0.1-0.4-0.1-0.8-0.1c0-0.7,0.2-1.4,0.1-2.1
			c-0.2-4.6,0.2-9.4-0.9-13.8c-1.8-6.7-7.7-8.4-13.6-4.7c-0.9,0.6-1.9,1.1-2.9,1.7c3.3-5.8,10.7-6.7,15.1-2.4c3,3,4.1,6.6,4.2,10.7
			c0.1,2,0,4.1,0,6.5c5-1.7,7.7,0.6,10.1,3.9c0.5,0.7,1.2,1.1,1.8,1.7c-0.1,0.5-0.3,1-0.2,1.4c2.7,10.6,2.3,21-1.5,31.3
			c-1.2,3.3-1.8,6.8-2.9,11c7.4-3.5,13.8-6.6,20.5-9.7c-2.7-3.5-4.9-6.2-7.2-9.2c-1.2,4.6-2.4,9-3.5,13.4c0.2-6.7,2.5-13.3,1.7-19.5
			c-0.8-6.4-4.5-12.5-7-18.7c-0.3-0.8-0.5-1.6-0.8-2.4c-4.8-11.9-9.6-23.8-14.3-35.7c-1.3-3.2-3.6-4.2-7.5-2.8
			c-1.4,0.5-2.8,1-4.2,1.6c-0.3-0.2-0.6-0.5-1-0.7c1-3.6,1.8-7.2,3-10.7c2.2-6.1-1.3-11.5-7.7-11.3c-1.5,0-3,0-4.4,0
			c5-3,10.1-2.2,12.3,1.4c2.1,3.4,2.7,7,1.1,10.9c-1,2.4-1.5,5-2.3,7.8c3.5-0.5,6.3-0.9,9.5-1.4c-5.5-26.8-2.1-52.8,7.2-77.9
			c-4.3-1.9-7.7-3.5-11.2-5c-1.3,0.8-2.8,1.7-4.1,2.6c2.5-4.1,5.3-7.8,7.1-11.9c2.1-4.9,0.7-8.2-3.2-10.3c-3.9-2.1-8.2-0.8-11.4,2.5
			c-3,3-3.3,6.5-3.4,9.9c1.9,0.2,4-0.2,5.2,0.8c3.2,2.6,2.7,14.7-0.8,18.5c0.1-1.2,0.3-1.9,0.3-2.7c0.2-4.1,0.5-8.2,0.4-12.3
			c-0.1-2.3-1.5-3.3-3.8-2.2c-2.3,1.1-4.7,2.1-6.8,3.4c-3.6,2.3-7.1,4.8-10.6,7.2c-0.5-0.5-1-1-1.5-1.6c1.3-0.7,2.6-1.2,3.7-2
			c3.1-2.3,6.2-4.7,9.2-7.2c4.4-3.7,4.6-11.1,0.6-15.2c-2.7-2.7-8.1-2.4-9.3,0.8c-3.6,9-9.1,16.7-16.5,22.6c1.5,2.7,3,5.2,4.5,7.8
			c0.7-0.4,1.4-0.9,2.1-1.3c5.4-2.9,9.9-1.5,11,4.4c1.2,6.3,1.4,12.8,1.6,19.3c0.1,1.9-1.3,3.8-2,5.7c-0.9-0.6-1.1-1-1-1.3
			c3.3-7.8,1.4-15.7-0.2-23.4c-0.9-4.3-4.4-5.7-8.2-3.4c-6.7,3.9-10.1,10.5-14.5,17.2c6,0.2,11.2-0.6,15.5,3.3
			c4.6,4.1,3.4,9.4,3,14.6c7.4-2.7,10.6-1.2,12.8,6.2c0.8,2.7,1.4,5.6,1.2,8.3c-0.4,6.5-1.4,13-2.1,19.8c4-0.6,6.9,1.8,7.4,6.3
			c0.5,4.7,0.3,9.5,0.4,14.2c0,0.7-0.6,1.3-0.9,2c-0.6-1.5-0.3-2.8-0.3-4.1c-0.2-4.1-0.1-8.3-0.8-12.4c-0.7-3.8-4.3-5.7-7.5-4.1
			c-1.2,0.6-1.9,2.5-2.8,3.8c-0.5-0.4-0.9-0.8-1.4-1.2c0.6-1,1.1-2,1.7-3c5.3-9.2,6.3-18.9,3.7-29.1c-2-7.8-6.6-8.9-12.3-3.2
			c-1.2,1.2-2.5,2.1-3.7,3.2c-0.3-0.2-0.7-0.5-1-0.7c3.9-6.4,8.2-13.4,1.3-19.5c-5.6-4.9-12.5-5.1-18.7,0.9
			c3.7-6.7,7.5-13.1,11.9-19.1c1.5-2,1.8-3.6,1-5.6c-0.8-2-1.8-3.8-4.5-3.5c-3.7,0.3-7.4,0.4-12.3,0.7c2.9-3.9,5.1-7.6,8-10.7
			c5.3-5.9,4.9-16.1-1.3-21.1c-0.8-0.6-2.6-0.8-3.4-0.3c-5.6,3.6-11,7.3-16.4,11.1c-2.1,1.5-3.8,3.5-6.3,5.9
			c4.9-0.3,8.7-0.7,12.4-0.7c6.2-0.1,8.8,2.8,8.1,8.9c-0.2,1.8-1,3.5-1.8,5.1c-2.2,4.7-4.5,9.3-6.9,14.1c1.7,0.4,3.2,0.4,4.2,1.1
			c1.4,1.1,3.4,2.6,3.5,4.1c0.7,7.3,0.5,14.5-4.5,20.6c-1.1,1.4-1.8,3.1-2.7,4.6c3-1.6,5.7-3.4,8.6-4.4c4.1-1.4,6.8,0,7.8,4.2
			c1.4,6.2,1.9,12.6,0,18.9c-1.1,3.8-4.4,7.3-8,8c8.8-7.1,8.1-16,6.8-25c-0.6-4.4-2.8-5.9-6.9-4.3c-2.6,1.1-4.9,3.1-7,5
			c-2.5,2.2-4.6,4.7-6.6,6.8c5.1,1.3,6.1,2.4,6,7.1c0,1.3-0.2,2.7-0.5,4c-2.5,10.5-4.6,21.1-13.5,28.6c-0.2,0.1-0.1,0.5-0.2,0.7
			c1.6,1.8,3.2,3.6,4.8,5.4c-0.1,3.3,0.1,6.6-0.3,9.8c-0.4,2.9,0.9,3.9,3.4,4.3c3.6-4.8,8.5-7.2,14.2-8.3c0.9-0.2,2-1.2,2.3-2.1
			c1.4-4.9-0.8-9.1-3.6-12.8c-1.4-1.9-3.5-1.8-5.2-0.4c-2.8,2.4-5.3,5-8,7.4c-0.9,0.8-1.9,1.4-2.9,2.1c2.2-5.4,6.4-8.8,11.3-11.5
			c2.9-1.6,5.4-0.1,6.9,2.3c2.4,3.9,4.4,8,3.2,12.8c-0.5,2,0,3,1.8,3.6c3.5,1.3,5.1,3.8,5.5,7.5c0.7,7.5,1.8,14.9,2.4,22.4
			c0.2,2.3-0.5,4.7-0.8,7.1c-0.4-0.1-0.9-0.1-1.3-0.2c0.1-0.9,0.3-1.7,0.3-2.6c-0.1-3.5,0.2-7.2-0.7-10.5c-2.1-8-9.5-10-15.4-4.4
			c-2.5,2.4-4.7,5.3-6.9,7.8c-0.1-1,0-2.8-0.3-4.5c-0.5-3.2-1-6.5-1.9-9.6c-0.3-1.1-2.6-1.9-2.5-2.7c0.4-3.5-1.9-3.2-3.9-3.2
			c-5.2-0.2-9.9,1-13.1,6.9c0.5-5,2.1-6.4,7.7-8c6.7-1.8,6.8-2.1,6-9c-0.1-0.8-0.3-1.7-0.5-2.5c-1.5-5.8-5.5-7.7-11.2-5.3
			c-1.3,0.6-2.6,1.1-4,1.8c-0.5-1-0.8-1.6-1.1-2.3c-2.8-6.6-9.7-9.8-16.4-7.7c-0.9,0.3-1.8,1.2-2.5,2c-4.4,5.2-3.2,11.4-3.8,18.5
			c1.8-1.9,2.8-3.1,4-4.1c2.2-2.1,4.2-4.5,6.8-6.1c4.8-3.1,9.4-1.4,10.9,4.1c1,3.9,1.2,8.1,1.7,12.1c-1-0.5-1.6-1.3-1.7-2.1
			c-0.4-2.4-0.8-4.8-1-7.2c-0.5-6.2-4.9-8.6-9.8-4.9c-3.8,2.8-7,6.3-10.4,9.6c-0.4,0.3-0.3,1.1-0.4,1.7c-0.5,6.1,0.3,12.1,3,18.2
			c1.8-2.2,3.4-4.2,5-6.1c3.3-4,9.1-5.4,14.1-3.6c2.1,0.8,7,8.7,6.9,11.4c0,0.3-0.4,0.5-0.4,0.6c-1.8-2.8-3.3-5.6-5.3-8.1
			c-0.9-1.2-2.5-2.4-3.9-2.6c-5.6-0.9-14.2,4.6-15.9,10c-0.1,0.4,0,1,0.2,1.4c2,3.5,4,7.1,6.3,11.3c3.4-7.3,8.3-10.5,15.3-10
			C267.7,393.5,269.2,394.9,270.7,395.7z M496.8,325.4c0.1,0,0.2,0,0.4,0c0-5.3-0.2-10.5,0-15.8c0.6-16-0.6-31.8-6.4-46.9
			c-1.9-5.1-3.8-10.5-6.9-14.7c-8.6-11.5-21.4-16.2-34.7-19.7c-11.1-3-22.5-4.6-34-4.8c-2.2,0-4.6,0.5-6.7,1.3
			c-1.9,0.6-3.5,2.2-5.5,2.8c-15.8,4.7-23.9,16.5-28.7,31.2c-1.1,3.2-1.3,6.7-2.3,10c-3.7,12.8-7.3,25.5-7.4,39.1
			c-0.1,17.3,1.8,34.1,8.8,50.2c5.9,13.4,11.5,27,16.9,40.6c1.9,4.7,3.4,9.2,7.1,13c14.6,14.9,31.5,25.4,52.6,28.3
			c3.7,0.5,6.9-0.1,10.1-2c9-5.4,14.5-13.7,19.5-22.5c6.3-11.1,9.1-23.4,12.5-35.5c1.8-6.3,4-12.7,4.4-19.2
			C497.3,349,496.8,337.2,496.8,325.4z M242.6,114.4c3.4-1.8,5.7-3.3,8.1-4.4c4.6-2,9.2-3.8,13.8-5.8c10-4.3,20.3-7.1,31.3-6.9
			c7.3,0.1,13.3,4.7,14.2,11.8c0.8,6.5,1.3,13.3,0.4,19.7c-1.5,10.2-6.5,18.6-16.9,22.1c-6.7,2.2-13.6,3.8-20.5,5.5
			c-1.5,0.4-3.2,0.7-4.7,0.5c-0.9-0.1-2.3-1.2-2.3-1.8c0.1-0.9,1-2.3,1.8-2.6c1.8-0.7,3.9-0.7,5.7-1.2c7.1-2.1,14.4-3.8,21.2-6.7
			c3.1-1.3,5.8-4.5,7.6-7.5c5-8.5,4.5-17.9,2.9-27.1c-0.7-4.3-4-7.4-8.3-7.5c-4.5-0.2-9,0.5-13,0.8c2.4,1.9,5.7,3.2,6.8,5.5
			c2.1,4.3,3.3,9.2,4.2,14c0.9,4.9-1.2,8.9-5.8,11.2c-8.1,4.1-16.5,4.5-24.9,1.8c-6.6-2.1-9.1-7.1-6.2-13.4c1.7-3.7,4.8-7,7.8-9.9
			c3-2.8,6.8-4.7,10.2-7c-0.1-0.1-0.1-0.3-0.2-0.4c-9.8,4.2-19.6,8.3-29.8,12.6c2.1,2.7,3.8,4.7,5.3,6.8c2.4,3.4,4.8,6.8,6.8,10.4
			c5.3,9.9,6.5,21,8.5,31.8c2.2,11.8,4.1,23.6,6.2,35.5c4.4,0.6,9.4,0.8,14.2,2c8.8,2.1,17.4,5,26.2,7.1c7.9,1.9,15.9,3.5,23.9,4.9
			c14.4,2.6,28.7,2.1,43-0.8c7.1-1.4,7-1.4,8.7-8.6c4.5-18.7,3.6-37.4,0.7-56.1c-1.7-11.1-3.2-22.2-5.2-33.3
			c-1.5-8.3-5.5-15.4-12.3-20.6c-6.3-4.8-13.5-7-21.4-7.6c-13.3-0.9-26.5-2.9-39.8-3.3c-12.9-0.3-25.8,1.2-38.8,1.3
			c-11.4,0.1-22.6,1.6-33.8,4.1c-4.3,1-5.8,3.2-4,7.1C236.6,103.8,239.8,109.1,242.6,114.4z M222.7,635.9c0.5,0,1-0.1,1.5-0.1
			c0.2-0.3,0.4-0.6,0.5-0.9c0.2-1.1,0.4-2.2,0.4-3.3c0.2-9.6,1.3-19.1,5.1-28c1.5-3.5,3.8-6.7,5.9-9.9c1.9-3.1,4.5-5.9,5.9-9.1
			c2.2-5.1,3.8-10.6,5.5-15.9c0.3-0.9,0.9-2.3,0.5-2.7c-2.5-3-0.1-4.9,1.4-7.1c7.9-11.5,15.9-22.9,23.7-34.4
			c0.7-1.1,1.4-2.4,1.6-3.7c0.6-5.1,3.2-9.1,5.9-13.3c9.6-14.7,11.9-31.8,16.5-48.3c-0.6-0.2-1-0.5-1.5-0.5
			c-9.2,0-15.3-5.1-20.2-12.2c-5.6-8.2-11.1-16.4-16.8-24.5c-3.9-5.6-7.9-11-11.9-16.5c-0.5,0-0.9,0.1-1.4,0.1
			c-1.3,6.8-2.6,13.5-3.9,20.3c-0.8-0.6-1.2-1.2-1.1-1.8c1.2-6.1,2.5-12.1,3.6-18.2c0.3-1.5,0.6-3.5-0.2-4.7
			c-7.4-11.6-9-24.4-7.6-37.7c0.1-1.3,0-2.7,0-4.1c-0.5-0.1-0.9-0.2-1.4-0.3c-1,3-2.1,6.1-3.1,9.1c-3.2,8.8-6.4,17.7-9.7,26.5
			c-0.6,1.4-1.9,2.6-2.9,3.9c-0.3-0.2-0.6-0.4-0.8-0.7c0.9-1.6,2-3,2.7-4.7c3.3-8.8,6.3-17.7,9.6-26.5c1.1-2.9,2.5-5.8,3.8-8.6
			c0.7-1.6,1.9-3.1,2-4.7c0.7-9.3,0.3-18.7,2-27.8c2.5-13.3,6.4-26.3,9.6-39.5c2.7-11.3,7.9-21.3,15-30.3c0.4-0.6,0.7-1.3,1.2-2.2
			c-5.9,1.1-6.9,1.9-7.9,7.4c-1,5.4-4.3,8.5-8.9,10.9c2.9-4,7.9-6.7,7.3-12c-4.6,4.2-10.5,8-14.3,13.4c-7.7,11-14.2,22.8-21.2,34.3
			c-0.9,1.5-1.3,3.4-1.8,5.2c-1.9,6.6-3.6,13.2-5.7,19.7c-2.4,7.3-4.6,14.5-3.9,22.2c1.1,12.2,1.8,24.4,3.4,36.5
			c0.8,6,1.9,12.4,4.7,17.6c5.6,10.2,15.1,16.5,26.1,20.1c5.6,1.8,11.5,2,17.4,0.6c1.1-0.3,2.5,0.4,3.5,1c0.3,0.2-0.1,2.4-0.4,2.5
			c-3.6,0.9-3.3,4.4-4.6,6.8c-4.2,8-8.6,16-9.8,25.2c-0.9,6.9-1,13.9-1.7,20.8c-0.4,3.5-0.7,7.2-2.2,10.3c-2.1,4.5-5.4,8.4-7.8,12.7
			c-8,13.9-11.5,29-12.4,44.8c-0.2,4,0,8.3-1.6,11.8c-4,8.8-8.8,17.2-13.4,25.6c-2.2,3.9-5.3,6.8-9.6,8.7
			c-7.4,3.2-14.5,6.8-22.7,10.6c1.6-0.2,2.1-0.2,2.7-0.3c7.5-1.1,15-2.3,22.5-3.3c1.1-0.1,2.4,0.9,3.6,1.5c-0.7,1.1-1.2,2.4-2.1,3.4
			c-0.4,0.5-1.3,0.7-2,1c-6.6,2.9-13.3,5.7-19.8,8.7c-5.1,2.4-8.8,6.4-12,10.9c7-3.2,13.9-6.6,20.7-10.2c5.5-3,10.7-6.3,16.2-9.3
			c0.9-0.5,2.9-0.3,3.5,0.4c0.6,0.7,0.5,2.6-0.1,3.5c-1.3,2.3-3.2,4.3-4.6,6.6c-2,3.1-3.8,6.3-5.6,9.4c0.4,0.3,0.9,0.6,1.3,0.8
			c4.6-6.2,9.1-12.4,13.7-18.5c0.7-1,2-1.5,3.1-2.2c0.7,1.1,1.6,2.2,2.2,3.4c0.3,0.5,0,1.2,0.1,1.8
			C220.8,624,221.8,629.9,222.7,635.9z M228.3,96.4c-19.6,4.1-34.7,15.5-47.8,29.5c-10.2,10.8-18.9,23.1-28.7,34.3
			c-6.4,7.4-10.8,15.7-13.6,24.9c-0.9,3-1.4,6.2-1.6,9.3c-0.2,3.1,1.4,4,4.2,2.8c8.1-3.5,16.6-6.4,23.9-11.6
			c8.4-5.9,17.9-10.6,25.2-17.5c8.2-7.8,17.3-12.6,28.2-14.5c9.5-1.7,19-2.3,28.1,1.7c3.8,1.7,5.8,4.5,5.8,8.9
			c0,7.5-5.1,15.1-13.2,18.2c-6.5,2.5-13.3,4.2-19.8,6.8c-21.7,8.7-40.3,21.9-56,39.1c-2.3,2.5-4.3,5.4-5.6,8.5
			c-2.2,5.1,0.6,9.6,6,9.9c2.9,0.2,6-0.7,8.7-1.9c11.4-5.4,22.5-11.2,33.9-16.6c7.5-3.6,15.7-5.9,22.6-10.2
			c8.1-5.1,16.3-9.1,25.6-11.4c4.3-1.1,8.4-3.2,12.6-4.8c-0.4-4.6-0.5-9.3-1.3-13.9c-1.8-10.6-4.1-21.1-5.9-31.7
			c-1.9-10.9-5.6-20.9-12.7-29.6C239.3,117.4,231.2,108.4,228.3,96.4z M382.7,636c0.4,0.4,0.9,0.8,1.3,1.1c5.2-4.7,10.3-9.4,15.5-14
			c0.9-0.8,2.5-2,3.2-1.7c1.1,0.4,2,2,2.4,3.2c0.4,1.5,0.2,3.2,0.2,4.7c0,2.2,0,4.5,0,6.7c0.4,0,0.7,0,1.1-0.1c0-2.7-0.2-5.4,0.1-8
			c0.1-1.2,1.1-3.1,2.1-3.3c1-0.3,2.5,0.9,3.5,1.8c0.9,0.9,1.4,2.3,2.2,3.4c1.5,2.1,3.1,4.1,4.7,6.1c0.4-3.2,0.4-6,0.1-8.8
			c-0.8-7.3-0.9-14.7-2.7-21.7c-2.7-10.5-5.7-20.4-5.5-31.7c0.5-21.7-5-42.4-17.6-60.6c-0.8-1.2-1.5-2.5-2.2-3.8
			c-1.4-2.5-1.6-4.9-0.5-7.7c4.3-11.8,7.7-23.7,4.2-36.5c-2.9-10.6-5.8-21-14-29c-1.7-1.7-3-3.7-4.7-5.8c-2.5,1.7-5,3.4-7.6,5.1
			c-10.9,7.1-21.9,14.2-32.8,21.4c-1,0.6-2.1,2.3-1.9,3.3c0.8,5,1.3,10.3,3.3,14.9c3.6,8.5,7.8,16.9,12.4,24.9
			c2.7,4.8,6.7,8.9,9.9,13.5c0.7,1,1.3,2.4,1.3,3.5c-0.3,8,0.5,15.8,3.7,23.3c5.8,13.4,10.8,27,21.5,38c9.5,9.8,8.5,20.8-1.1,30.7
			c-3.9,4-8.6,7.2-13,10.8c-3.2,2.6-6.4,5.2-9.6,7.8c8.3-2.7,16.2-6,24.1-9.1c1.3-0.5,3.1,0,4.7,0.1c-0.2,1.6-0.2,3.2-0.6,4.7
			c-0.3,1.1-1.4,2-2,3C386.5,629.6,384.6,632.8,382.7,636z M288.2,274.5c2.6-5.3,5.3-10.3,7.6-15.5c0.9-2.1,1.6-4.4,1.7-6.6
			c0.2-3.4-1.7-5.4-5.1-5.2c-5.1,0.3-10.2,0.9-15.3,1.6c-1,0.1-2.2,0.7-2.8,1.5c-5.1,6.7-11,13-14.8,20.3
			c-4.3,8.3-6.7,17.5-9.6,26.4c-1.6,4.8-2.5,9.8-3.7,14.4c6.1-0.8,11.9-1.5,17.7-2.3c3.5-0.5,5.6,1.3,6.4,4.6
			c1.3,5.2,2.4,10.5,3.6,15.7c0.1,0.5-0.2,1.2-0.3,1.8c-1.1-1.2-1.3-2.4-1.6-3.7c-1-4.4-2.1-8.8-3.2-13.2c-0.6-2.6-2.2-4.1-5-3.6
			c-5.8,0.9-11.5,1.9-17.3,2.9c-0.5,0.1-1.1,0.6-1.2,1c-1.1,5.3-2.1,10.6-3.4,16.8c1.6-1,2.1-1.3,2.5-1.7c5.2-4.5,11.3-5.7,17.8-4.9
			c1.6,0.2,4.1,1.5,4.4,2.8c1.5,6.1,2.4,12.4,3.3,18.7c0.2,1.1-0.5,2.2-0.8,3.4c-0.8-2.7-0.6-5.3-0.9-7.8c-0.2-2.5-0.7-5.1-1.4-7.5
			c-2.5-8.9-2.6-9.1-12-7.9c-5.4,0.7-10.6,3.3-12.4,8.4c-1.4,3.9-0.3,8.7-0.3,13.6c3.8-4.6,8.2-7,14-5.5c6,1.6,7.5,7.1,9.5,11.5
			c2.9-0.5,5.6-1,8.2-1.5c0.8-0.2,1.6-0.5,2.2-1c10.1-8.3,12-20.3,13.8-32.2c0.5-3.5-1.6-4.9-5.3-4.4c-1.5,0.2-2.9,0.4-4.7,0.6
			c0.2-1,0.1-1.5,0.3-1.6c5.7-4.1,8.4-10.3,12.1-15.9c3-4.6,4.6-9.3,4.4-14.8c-0.2-6.7-0.1-6.7-6.8-8.2
			C289.6,275.3,289.1,274.9,288.2,274.5z M311.6,422.4c-0.3,0-0.5,0-0.8,0c-0.2-0.8-0.7-1.6-0.6-2.3c0.9-6.6-2.4-10.2-8.1-12.7
			c-2.8-1.2-5.1-1.4-6.9,1c-2.6,3.3-4.9,6.8-7.2,10.4c-1.5,2.3-0.9,4.5,0.5,7c1.8,3.2,2.3,7,3.6,11.1c1-3.5,1.5-6.6,2.8-9.2
			c0.9-1.7,2.8-3.7,4.6-4c8.5-1.4,12.9,2,14,10.4c0.8,6.9,1.1,13.8,1.7,20.8c5.4,1.1,8.4,0.7,13.7-2.2c0.5-0.3,1.1-0.3,1.7-0.4
			c2.2-0.5,4.7-0.4,6.5-1.5c8.8-5.5,17.4-11.4,26-17.3c0.9-0.6,1.6-2.6,1.3-3.6c-1.4-4.7-3.1-9.3-4.9-13.8c-0.5-1.2-1.9-2.3-3.2-2.7
			c-6-1.6-8.4-0.2-10.4,5.7c-0.1,0.3-0.5,0.5-1.6,1.4c-0.2-4.6-1-9.1-6.1-9c-3.7,0.1-7.4,1.6-10.6,2.4c2.5-5.8,11.9-6.2,17.7,0.1
			c5.1-4.7,13.4-3.5,16.4,2.8c2,4.3,3.3,8.9,5,13.5c0.8-0.4,1.6-0.8,2.3-1.2c0.8-0.5,1.9-0.9,2.4-1.6c0.6-0.8,1.2-2.1,1-3
			c-2.7-8.9-8-16.2-15-22.1c-3.9-3.2-6-2.7-9.4,1.1c-0.7,0.8-1.4,1.4-2.9,2.8c-0.5-3.6-0.8-6.2-1.1-8.8c-0.3-3.4-1.3-6.2-5.1-7.1
			c-3.7-0.9-6.3,1-8.2,3.7c-3.9,5.8-4.5,12.7-4.7,19.3c-0.2,6.1,1.1,12.3,1.8,18.5c0.1,0.6,0.3,1.2,0.6,2.4c0.9-1.4,1.5-2.3,2.1-3.2
			c2.6-3.8,5.9-4.5,9.8-1.9c3.1,2.1,5.8,9.1,4.8,13.2c-0.9-2.2-1.6-4.4-2.3-6.7c-0.9-3.4-3-5.7-6.5-6.2c-3.1-0.5-4,2.2-5.4,4.1
			c-2.3,3.2-3.8,6.6-3.5,10.6c0,0.5-0.5,1.1-0.8,1.6c-0.6-2.1-0.5-4-0.6-5.9c-0.4-7.9-0.6-15.8-1.4-23.7c-0.3-3.6-3.8-6.3-6.8-6.1
			c-3.4,0.2-4.1,3-4.9,5.6C312.5,417.8,312.1,420.1,311.6,422.4z M268.6,428.4c3.7,5.2,7.5,10.6,11.2,16c4.2,6,9.6,9.4,17.1,9.6
			c5.3,0.1,10.6,0.9,16,1.4c0-5.7,0.2-10.7-0.1-15.6c-0.2-3.3-0.9-6.5-1.9-9.7c-1.2-3.8-4.7-5.3-10.3-5.1c-3.9,0.1-4.4,3.1-5.1,5.7
			c-1.6,6.2-4.2,12.2-3.3,18.8c0.1,0.4-0.4,0.9-0.6,1.4c-0.3,0-0.6-0.1-0.9-0.1c0-2.4,0.1-4.7,0-7.1c-0.6-8.3-1.3-16.6-7.6-23.1
			c-3.7-3.9-6.4-3.9-9.7,0.6C271.9,423.4,270.4,425.8,268.6,428.4z M392.8,221.7c-0.3,0.5-0.5,1-0.8,1.5c-4.9-3.7-8.9-1.2-13,1.2
			c-2.9,1.7-5.8,3.4-8.7,5c-0.2-0.3-0.5-0.7-0.7-1c3-2,5.9-3.9,9.6-6.4c-21.1,1.4-41.3,1.5-61.1-3.6c9.7,5.4,9.7,5.4,12.9,13.7
			c6.4-1.7,10.3,1.3,12.5,8c0.9-1.2,1.4-1.8,1.8-2.4c3.8-4.6,9.1-5.7,13.9-2.8c4.5,2.6,5.6,6.9,3.3,12.9c-0.3,0.8-0.7,1.6-1,2.3
			c-2,4.1-1.6,5.4,2.8,6.9c1.5,0.5,3,0.7,4.5,1c1.7-4.2,3.2-8.1,5-11.8c2.2-4.6-0.6-10.1-5.7-10.7c-1.1-0.1-2.2-0.2-4.3-0.5
			c6.2-2.2,9-0.6,12.9,6.5c3.1-3.6,5.7-7.5,9.1-10.5c3.5-3,7.8-5.1,11.8-7.6c-3.8-3.7-5.2-4.4-8.8-3.6
			C390.6,220.7,391.7,221.2,392.8,221.7z M454.8,468.7c4.4,4.2,5.2,10.9,11.5,14.3c0.4-15,0.9-29.2,1.3-43.4
			c-0.2-0.3-0.4-0.6-0.6-0.9c-7.5,8.2-16.7,6.4-24.8,4.9c-0.5,12.3-1,24-1.6,36.1c2.4-3.1,4.8-6.1,7.8-9.9
			c0.8,7.8,1.5,14.2,2.2,20.7c0.5,0,0.9,0,1.4,0C454.1,483.4,455.7,476.3,454.8,468.7z M301.6,258.9c7.3,0.2,9.4-0.4,13-3.7
			c6.1-5.5,10.5-12.2,13.5-19.8c1.7-4.4,0.4-8.5-3.5-11.3c-6.5-4.9-13.3-3.2-19.9,3.5c0.7,0.5,1.4,1,2,1.6c6.3,7.1,6.2,16.1,0,22.9
			C304.9,253.9,303.5,256.2,301.6,258.9z M310.4,384.5c-0.4-4.2-0.7-7.2-0.9-10.2c-0.3-3.2-1.9-5.1-4.8-6.7
			c-5.8-3.1-15.5,2.3-17.5,6.4c-0.3,0.7-0.6,1.7-0.3,2.4c1.2,3.7,2.5,7.4,3.9,11.4C296,382.4,301.5,377.3,310.4,384.5z M260.9,128.6
			c2.6-0.7,4.4-1.3,6.2-1.6c5.8-1.1,11.6-1.8,17.3-3.2c6.4-1.6,6.5-2.3,3.8-8.5c-0.1-0.2-0.4-0.3-0.7-0.6c-1.3,0.5-2.6,0.9-3.9,1.4
			c0,3-5.8,7.7-9.7,8c-2.5,0.2-4.5-0.2-3.8-3.2c-2-0.2-3.7-0.3-6-0.5C263,122.8,262,125.5,260.9,128.6z M265.2,130.3
			c7.6,4.5,23.4,1.3,24.1-4.5C281.4,127.3,273.4,128.8,265.2,130.3z M286.8,111.8c-3.3-4.4-11.8-1.6-19.1,5.9
			C274.2,115.6,280.4,113.7,286.8,111.8z M281.4,118.6c-5-2.6-6.6,1.4-9.1,3.4c0.2,0.3,0.3,0.7,0.5,1
			C275.6,121.6,278.4,120.2,281.4,118.6z M258.3,346.3c0-0.5,0.1-0.9,0.1-1.4c-2.9-0.2-5.9-0.5-8.8-0.7c0,0.4-0.1,0.8-0.1,1.2
			C252.5,345.7,255.4,346,258.3,346.3z"/>
		<path d="M137.8,676.4c-4.3-4.6-8.9-8.9-13-13.7c-6.4-7.7-12.2-15.8-13.3-26.1c-1.1-9.5-1-18.8,2.5-28.1c2.4-6.2,3.8-13.1,3.9-19.7
			c0.1-26.6-0.3-53.1-0.8-79.7c-0.1-4.5-2.3-9-2.5-13.6c-0.6-17.9-2.6-35.8-1.1-53.9c0.3-4.2-1.7-8.5-2.5-12.7
			c-0.7-3.6-1.3-7.2-1.8-10.8c-0.3-2.5-0.3-5.1-0.6-7.7c-0.1-0.9-1-1.7-1.5-2.6c-0.6,0.8-1.6,1.4-1.8,2.3c-0.6,2.5-1.2,5-1.3,7.6
			c-0.5,13.3-0.7,26.6-1.4,40c-0.4,7.7-1.6,15.3-2.1,23c-0.9,13.8,2.6,26.9,6.4,40c4.1,14.3,4.1,28.7,1,43.2
			c-0.9,4.2-1.4,8.5-1.5,12.7c-0.5,14.7-0.1,29.4-1.2,44c-0.5,7.3-3,14.6-5.3,21.7c-3,8.9-6.7,17.6-10.2,26.3
			c-0.6,1.4-1.7,2.6-3.4,3.4c0.1-0.4,0.1-0.9,0.3-1.3c8.7-14.6,13.1-30.9,16.6-47.2c1.9-9,1.2-18.5,1.5-27.8
			c0.4-9.5,0.4-19.1,1-28.6c0.4-6.2,1.9-12.3,2.5-18.5c1.1-12.5-1.9-24.5-5.4-36.4c-4.2-14.4-5.3-29-2.7-43.9
			c0.9-5.3,1.1-10.7,1.3-16.1c0.4-11.1,0.6-22.2,1.1-33.4c0.1-3.3,0.6-6.6,1.4-9.8c0.3-1.1,2.2-2.9,2.9-2.7c1.3,0.4,3,1.8,3.3,3.1
			c0.7,4,0.5,8.1,1.1,12c0.4,2.9,1.2,5.7,2.3,8.4c2.5,6.1,1.8,12.5,1.7,18.8c0,7.8-0.1,15.6,0.1,23.4c0.2,7.7,0.6,15.4,0.9,23.1
			c0,0.4,0,0.7,0,1.1c1.2,8.1,2.4,16.3,3.8,25.1c2.3,0,5.3,0.1,8.3,0c5.6-0.3,9.7,2,12.1,7.1c0.8,1.7,2,2,3.9,2.5
			c6.4,1.6,13,3.2,18.9,6.1c7,3.4,9.8,10.3,10.3,18c0.3,3.8-0.9,4.9-4.5,5.1c-6.3,0.3-9.1-2.4-9-8.7c0-1.3,0.2-2.7,0.3-4
			c0.4-3.5-0.8-6.4-3.8-8.2c-4.1-2.5-8.5-4.6-12.7-6.8c-0.3,0.3-0.7,0.6-1,0.9c1.8,3,3.7,6.1,5.5,9.1c2.6,4.4,5.9,8.6,7.4,13.4
			c1.1,3.5,0.2,7.9-0.7,11.7c-0.6,2.7-5,3.9-8.2,3.1c-3-0.8-3.7-3.1-3.5-5.7c0.5-4.4,1.2-8.9,2-13.3c0.2-1.2,1.5-2.2,3-3.1
			c-3.2,4.9-3.8,10.2-3.5,15.7c0.1,2.1-0.1,4.4,2.8,4.8c2.8,0.3,5.8,0,6.5-3.3c0.6-3.2,0.9-6.7,0.1-9.7c-0.9-3.4-3.1-6.6-4.9-9.7
			c-3.3-5.7-6.8-11.3-10.1-17c-3.2-5.6-6.3-7.2-12.2-6.1c1.5,4.8,3,9.7,4.6,14.5c0.3,1,1,1.9,1.7,2.8c3.8,4.4,4.1,7.1,0.6,11.6
			c-1.4,1.9-3.4,3.5-5.4,4.7c-3.5,2.2-5.7,1.1-5.2-2.9c0.4-3.3,1.5-6.9,3.5-9.4c2.4-2.9,3.3-5.9,2.5-9c-1-3.7-2.6-7.3-4.5-10.7
			c-0.6-1.1-2.9-1.3-4.4-1.9c-0.5,1.2-1.4,2.4-1.4,3.7c0.2,20.3,0.7,40.6,0.8,60.9c0.1,8.1-2.3,15.8-4.7,23.6
			c-4.8,15.3-3.9,30.3,6.1,43.6c5,6.6,10.9,12.5,16.4,18.7c0.5,0.6,0.9,1.2,1.4,1.9C138.5,675.8,138.2,676.1,137.8,676.4z
			 M155.6,536.4c5.8,3.4,6.9,8.5,5.9,14.6c-0.3,1.5,0,3.3,0.6,4.6c1.5,3.3,4.6,3.4,7.6,2.8c0.9-0.2,2-2,2.1-3.1
			C172.1,545.9,165.3,537.8,155.6,536.4z M125.1,556.3c5-1.2,8.9-5.2,9.5-9.3c0.4-2.8-1.1-4.4-3.4-5.6
			C127.7,546,123.5,549.9,125.1,556.3z"/>
		<path d="M234.5,472.6c2.6-6.5,4.7-12.4,7.3-18.2c2.6-5.7,5.7-11.2,9.1-16.8c-0.2,1.1-0.2,2.2-0.6,3.2c-1.3,2.9-2.8,5.7-4.1,8.6
			c-3.1,7.2-6,14.4-9.1,21.6c-0.6,1.3-1.8,2.3-2.7,3.5c-0.8-1.1-1.8-2.2-2.4-3.4c-0.9-1.8-1.4-3.8-2.3-6.2
			c-4.1,4.6-4.8,11.2-10.2,14.2c-0.4-0.1-0.9-0.3-1.3-0.4c0.6-3.9,1.1-7.9,1.7-11.8c-2.2,1.3-4.6,2.8-7.8,4.6
			c-0.3-5.3,1.5-8.8,4.2-11.3c8.2-7.5,9.4-17.3,10.1-27.4c0.1-1.4,0.2-2.8,0.3-4.1c0.5,0,0.9,0,1.4,0.1c-0.2,3.8-0.1,7.6-0.7,11.3
			c-1.3,8-3.4,15.7-10.1,21.4c-1.8,1.5-2.5,4.2-3.8,6.4c0.4,0.3,0.8,0.6,1.2,1c3.4-3.5,6.9-7.1,10.3-10.6c0.2,0.1,0.5,0.2,0.7,0.3
			c-2.1,5.5-4.2,10.9-6.3,16.4c0.5,0.2,0.9,0.5,1.4,0.7c1-1.4,2.1-2.7,3-4.1c0.7-1.1,1-2.6,1.8-3.6c1.3-1.6,2.9-3,4.3-4.5
			c0.9,1.6,1.8,3.2,2.6,4.9C233.3,469.4,233.8,470.8,234.5,472.6z"/>
		<path d="M100.9,417.8c-0.7,1.2-1.3,2.6-2.3,3.6c-4.3,4.6-5.8,10.4-7.2,16.2c-0.2,0.6,0.2,1.9,0.7,2.1c4.2,2.4,5,6.4,4.2,10.5
			c-1.2,5.9-1.9,12.1-6,17c-2.4,2.9-5.2,4-8.7,2.9c-3.5-1.1-6-4.5-5.4-8.2c0.6-3.6,1.9-7.3,3.5-10.6c1.4-2.8,3.6-5.2,5.7-7.6
			c3.1-3.6,5.2-7.6,6.1-12.3C92.5,426.5,96.2,421,100.9,417.8z M89.5,440.7c-3.1,4.1-6.5,8.1-9.3,12.6c-1.5,2.5-2.2,5.7-2.6,8.7
			c-0.5,3.1,1.5,5.4,4.3,6.6c2.8,1.2,5.2,0.1,7.1-2.3c4.2-5.5,5.2-12,5.7-18.6C95,444.1,93.3,441.9,89.5,440.7z"/>
		<path d="M99.6,502.9c-10.5,5.2-14.2,15.1-19.3,24.3c4.8,5,11.8,8.6,11.5,17.1c-1.9-6.6-6.5-11-12-14.9c-5.1,7.2-2.9,15.6-3.8,24
			C69.6,540.3,87.6,502.1,99.6,502.9z"/>
		<path d="M151.6,433.3c1,2.8,2.2,5.5,2.8,8.4c0.6,2.8,0.8,5.8,0.7,8.7c-0.1,4.7,0,8.9,3.6,12.8c3,3.2,1.8,9-1.4,11.5
			c-3.5,2.8-7.7,1.5-8.1-3c-0.3-3.3,0.3-7.2,1.8-10.1c4.5-9,3-17.6-0.5-26.3c-0.2-0.5-0.2-1-0.4-1.5
			C150.6,433.5,151.1,433.4,151.6,433.3z M153.1,459.1c-1.1,4-2.5,7.1-2.6,10.3c-0.1,1.6,1.8,4.5,3.2,4.8c2.5,0.4,4.3-1.7,4.8-4.4
			C159.2,465.5,157,462.6,153.1,459.1z"/>
		<path d="M116.4,433.6c9.2-9.2,19.7-8.8,31.4-5.6c12.3,3.3,16.4,12.8,20.4,23.3C157.1,427,139.9,421,116.4,433.6z"/>
		<path d="M160,431.3c3.7,2.2,7.5,4.3,11,6.8c2.8,2,3.7,4.7,2.3,8.4c-2,5.2,3,11.4,8.6,11.3c2.3,0,3.4-1.1,3.4-3.3
			c0.1-4-0.9-7.5-4.3-10c-1.3-1-2.7-1.9-4.3-3c3.3-0.5,7.6,2.7,9.1,6.4c0.5,1.2,0.8,2.6,1,3.9c0.9,6.3-2,8.8-8.1,7.3
			c-4.2-1.1-8.3-7.6-7.4-11.8c1.2-6-0.2-8.7-5.9-11.2c-2.1-0.9-4.2-2.1-6.2-3.2C159.4,432.3,159.7,431.8,160,431.3z"/>
		<path d="M93.1,548c2.6,3,5.7,5.7,7.7,9c1.3,2,1.8,5.2,1.2,7.5c-1.1,4.1-4.1,7.2-8.2,8.8c-3.5,1.4-6.4,0.2-7.4-3.5
			c-2.2-7.8-2.9-15.5,1.9-22.6c0.3,0.1,0.7,0.1,1,0.2c-0.3,0.9-0.4,1.8-0.8,2.6c-3.3,6.2-2.3,12.5-0.8,18.9c0.7,3.2,2.9,3.9,5.6,2.8
			c3.8-1.5,6.4-4.5,7.5-8.5c0.8-2.8-0.6-5.1-2.6-7.2c-2.3-2.3-4.1-5-6.1-7.6C92.4,548.4,92.8,548.2,93.1,548z"/>
		<path d="M128.4,433.3c0.1,2.3,0,4.6,0.3,6.9c0.6,3.9,0.9,8,2.2,11.6c1.3,3.6,3.9,3.4,6.4,0.4c4.9-6.1,1.7-15.9-4.5-18.2
			c-0.8-0.3-1.6-0.9-2.4-1.3c0.1-0.3,0.3-0.6,0.4-1c1.9,0.8,4,1.3,5.6,2.5c5.4,4.3,6.4,13.3,2.2,18.9c-3.1,4.2-6.7,4.1-9.2-0.4
			c-1.1-2-2-4.3-2.2-6.5c-0.3-4.2-0.1-8.5-0.1-12.7C127.6,433.4,128,433.3,128.4,433.3z"/>
		<path class="st0" d="M496.8,325.4c0,11.7,0.5,23.5-0.2,35.2c-0.4,6.5-2.7,12.9-4.4,19.2c-3.4,12.1-6.2,24.5-12.5,35.5
			c-5,8.7-10.4,17.1-19.5,22.5c-3.3,1.9-6.5,2.5-10.1,2c-21.1-2.9-37.9-13.4-52.6-28.3c-3.7-3.8-5.2-8.3-7.1-13
			c-5.4-13.6-11-27.2-16.9-40.6c-7-16-8.9-32.8-8.8-50.2c0.1-13.6,3.6-26.3,7.4-39.1c1-3.3,1.2-6.8,2.3-10
			c4.8-14.7,12.9-26.5,28.7-31.2c1.9-0.6,3.5-2.1,5.5-2.8c2.1-0.7,4.5-1.3,6.7-1.3c11.5,0.2,22.9,1.8,34,4.8
			c13.3,3.5,26.1,8.2,34.7,19.7c3.2,4.3,5,9.7,6.9,14.7c5.8,15.1,7,30.9,6.4,46.9c-0.2,5.3,0,10.5,0,15.8
			C497.1,325.4,497,325.4,496.8,325.4z M419.5,244c2.4,0.1,4.9,0.6,7.2,0.2c6.8-1.2,13.6-2.8,20.4-4.3c0.6-0.1,1.4-0.1,1.7-0.5
			c0.8-0.8,1.4-1.8,2-2.7c-0.9-0.6-1.8-1.4-2.8-1.8c-0.5-0.2-1.2,0-1.8,0.1c-8.4,1.6-16.8,3.1-25.1,4.9c-0.8,0.2-1.2,1.9-1.8,2.9
			c-3.7-3.1-7.3-6.4-11.2-9.4c-1.1-0.9-3.1-0.7-4.6-1c-0.1,1.5-0.2,3-0.3,4.1c-4.1,8.8-8.3,17.6-12.3,26.4c-0.3,0.7,0.4,2.6,0.9,2.7
			c0.9,0.3,2.8,0,3.1-0.7c2.6-4.7,5-9.5,7.3-14.3c1.7-3.7,3.1-7.5,4.8-11.5c7.2,4.6,10.7,10.8,13,17.8c4.3,13,8.5,26,12.6,39.1
			c3.7,12,7.5,24,10.9,36.1c4.8,17.2,6.6,34.9,6.9,52.6c0.3,13.8-0.7,27.6-1,41.4c0,1.3,1.2,2.5,1.9,3.8c1-1,2.6-1.9,2.8-3
			c0.7-4.1,1.3-8.2,1.4-12.3c0.2-10.2,0.1-20.3,0-30.5c0-2.4,0-4.8,0-8.4c3.6,2.8,6.8,4.8,9.2,7.5c2.5,2.8,4,6.4,6.1,9.5
			c0.7,1,2.1,1.6,3.1,2.4c0.5-1.3,1-2.7,1.3-4c0.1-0.4-0.2-0.9-0.4-1.4c-4.2-8.8-10.2-15.7-19.6-18.3c-1.7-10.9-3.2-21.7-5-32.4
			c-1-5.9-2.5-11.7-3.8-17.5c1.1,0.7,2,1.6,3.2,2.2c2.6,1.2,5.5,1.8,7.9,3.3c4.6,3,8.8,6.5,13.3,9.7c4.2,2.9,8.7,5.4,11.1,10.3
			c0.4,0.8,2.2,0.9,3.3,1.4c0.3-1.3,1.2-3,0.7-3.7c-2.3-3.1-4.6-6.2-7.5-8.7c-3.6-3.1-7.6-5.7-11.5-8.4c-4.1-2.8-8.2-5.7-12.6-8
			c-2.6-1.3-6-1.9-7.7,2c-3.5-10.9-7.2-21.7-10.6-32.7C431.3,273.6,427.1,258.2,419.5,244z M397.6,371.2c1,1.2,1.6,2.6,2.4,2.7
			c0.9,0.1,2-0.9,2.8-1.7c0.4-0.4,0.4-1.4,0.6-2.1c2.1-8.1,4-16.4,6.5-24.4c3.2-10.3,10-19.4,10.8-30.6c0.2-2.5,0.9-5.1,1.4-7.6
			c0.8-4.4,2.6-8,6.9-10.2c1.1-0.6,1.5-2.6,2.2-4c-1.5-0.1-3.3-0.6-4.5-0.1c-6.6,2.9-8.8,8.8-9.8,15.3c-1.5,9.3-3.4,18.5-8.1,26.9
			c-1.9,3.5-3.3,7.4-4.5,11.2C402,354.8,399.9,362.9,397.6,371.2z M439.8,261.7c0,0.1,0,0.1,0,0.2c-2.4,0-4.9-0.2-7.3,0.1
			c-1.2,0.2-2.2,1.4-3.3,2.2c1.1,0.9,2.2,2.4,3.4,2.5c4,0.3,8.1,0.2,12.1,0.1c6-0.1,10.6,2.1,14.5,7c6,7.7,13.8,12.8,24.1,12.5
			c1.3,0,2.6-1.6,3.8-2.4c-1.2-0.8-2.4-2.3-3.6-2.3c-9.3-0.1-15.9-4.9-21.3-11.8c-3.6-4.5-8-7.4-14-7.7
			C445.4,262,442.6,261.8,439.8,261.7z M383.1,306.5c1,1.3,1.9,2.4,2.8,3.5c0.9-1.1,2-2,2.7-3.2c1.5-2.5,2.5-5.3,4.1-7.6
			c8.3-12.1,16.8-24.1,25-36.2c0.5-0.8,0.1-2.2,0.1-3.3c-1.1,0-2.6-0.4-3.3,0.1c-1.7,1.5-3.3,3.3-4.6,5.2
			c-7.9,11.5-15.8,22.9-23.6,34.5C384.9,301.5,384.2,303.9,383.1,306.5z M421,390.9c1.3-0.9,2.2-1.3,2.7-1.9c2.5-3.3,5.4-6.4,7.4-10
			c2.8-4.9,4.8-10.2,7.3-15.2c1.3-2.6,3.2-4.9,4.6-7.5c0.5-0.9,0-2.2-0.1-3.3c-1.1,0.1-2.4-0.2-3.3,0.3c-1,0.5-1.9,1.6-2.4,2.7
			c-2.6,4.7-4.8,9.6-7.5,14.3c-2.8,4.9-5.9,9.7-8.9,14.6c-0.6,0.9-1.5,1.9-1.5,2.8C419.3,388.7,420.2,389.7,421,390.9z"/>
		<path class="st0" d="M242.6,114.4c-2.9-5.4-6-10.6-8.5-16.1c-1.8-4-0.3-6.2,4-7.1c11.1-2.5,22.3-4,33.8-4.1
			c12.9-0.1,25.9-1.6,38.8-1.3c13.3,0.3,26.5,2.3,39.8,3.3c7.9,0.6,15.1,2.8,21.4,7.6c6.8,5.2,10.8,12.4,12.3,20.6
			c2,11,3.6,22.2,5.2,33.3c2.9,18.7,3.8,37.4-0.7,56.1c-1.7,7.2-1.6,7.2-8.7,8.6c-14.3,2.8-28.6,3.3-43,0.8c-8-1.4-16-3-23.9-4.9
			c-8.8-2.1-17.4-5-26.2-7.1c-4.8-1.2-9.9-1.4-14.2-2c-2.1-12-4-23.8-6.2-35.5c-2-10.8-3.2-21.9-8.5-31.8c-2-3.6-4.4-7-6.8-10.4
			c-1.5-2.1-3.1-4-5.3-6.8c10.2-4.3,20-8.5,29.8-12.6c0.1,0.1,0.1,0.3,0.2,0.4c-3.4,2.3-7.2,4.2-10.2,7c-3.1,2.8-6.1,6.1-7.8,9.9
			c-2.9,6.3-0.3,11.3,6.2,13.4c8.5,2.7,16.9,2.2,24.9-1.8c4.6-2.3,6.7-6.3,5.8-11.2c-0.9-4.8-2.1-9.6-4.2-14
			c-1.1-2.3-4.4-3.6-6.8-5.5c4-0.3,8.5-0.9,13-0.8c4.3,0.2,7.6,3.2,8.3,7.5c1.6,9.3,2.2,18.7-2.9,27.1c-1.8,3-4.5,6.3-7.6,7.5
			c-6.8,2.9-14.1,4.6-21.2,6.7c-1.9,0.6-3.9,0.5-5.7,1.2c-0.9,0.3-1.7,1.7-1.8,2.6c-0.1,0.6,1.4,1.7,2.3,1.8
			c1.5,0.2,3.2-0.1,4.7-0.5c6.9-1.8,13.8-3.3,20.5-5.5c10.5-3.5,15.5-11.9,16.9-22.1c0.9-6.4,0.4-13.2-0.4-19.7
			c-0.9-7.1-6.9-11.7-14.2-11.8c-11-0.1-21.3,2.6-31.3,6.9c-4.6,2-9.3,3.8-13.8,5.8C248.3,111.2,246,112.6,242.6,114.4z"/>
		<path class="st0" d="M282.3,359c-1.6-1.8-3.2-3.6-4.8-5.4c0-0.2,0-0.5,0.2-0.7c8.9-7.5,11.1-18.1,13.5-28.6c0.3-1.3,0.5-2.6,0.5-4
			c0.2-4.7-0.9-5.8-6-7.1c2-2.1,4.1-4.6,6.6-6.8c2.1-1.9,4.4-3.9,7-5c4-1.7,6.2-0.1,6.9,4.3c1.3,9,1.9,17.9-6.8,25
			c3.6-0.7,6.9-4.2,8-8c1.9-6.3,1.5-12.6,0-18.9c-1-4.2-3.6-5.6-7.8-4.2c-2.9,1-5.6,2.8-8.6,4.4c0.9-1.5,1.5-3.2,2.7-4.6
			c5-6.1,5.3-13.3,4.5-20.6c-0.2-1.5-2.1-3-3.5-4.1c-1-0.7-2.5-0.7-4.2-1.1c2.3-4.8,4.7-9.4,6.9-14.1c0.8-1.6,1.6-3.4,1.8-5.1
			c0.7-6.1-2-9-8.1-8.9c-3.8,0.1-7.5,0.4-12.4,0.7c2.5-2.4,4.2-4.4,6.3-5.9c5.4-3.9,10.8-7.6,16.4-11.1c0.8-0.5,2.6-0.3,3.4,0.3
			c6.2,4.9,6.6,15.2,1.3,21.1c-2.8,3.1-5.1,6.8-8,10.7c4.9-0.3,8.6-0.4,12.3-0.7c2.7-0.2,3.7,1.6,4.5,3.5c0.8,2,0.5,3.5-1,5.6
			c-4.4,6-8.2,12.4-11.9,19.1c6.2-5.9,13.2-5.8,18.7-0.9c6.9,6,2.6,13.1-1.3,19.5c0.3,0.2,0.7,0.5,1,0.7c1.3-1.1,2.6-2.1,3.7-3.2
			c5.7-5.7,10.3-4.6,12.3,3.2c2.6,10.1,1.6,19.9-3.7,29.1c-0.6,1-1.1,2-1.7,3c0.5,0.4,0.9,0.8,1.4,1.2c0.9-1.3,1.5-3.1,2.8-3.8
			c3.2-1.6,6.8,0.2,7.5,4.1c0.7,4.1,0.7,8.2,0.8,12.4c0.1,1.3-0.3,2.6,0.3,4.1c0.3-0.7,0.9-1.3,0.9-2c0-4.7,0.2-9.5-0.4-14.2
			c-0.5-4.5-3.4-6.9-7.4-6.3c0.8-6.8,1.7-13.3,2.1-19.8c0.2-2.7-0.5-5.6-1.2-8.3c-2.1-7.4-5.4-9-12.8-6.2c0.4-5.2,1.6-10.5-3-14.6
			c-4.3-3.8-9.5-3.1-15.5-3.3c4.4-6.7,7.8-13.3,14.5-17.2c3.9-2.2,7.4-0.9,8.2,3.4c1.6,7.7,3.5,15.6,0.2,23.4
			c-0.1,0.3,0.1,0.7,1,1.3c0.7-1.9,2-3.8,2-5.7c-0.2-6.4-0.4-13-1.6-19.3c-1.1-5.9-5.7-7.3-11-4.4c-0.7,0.4-1.4,0.8-2.1,1.3
			c-1.5-2.7-3-5.1-4.5-7.8c7.4-5.9,12.9-13.6,16.5-22.6c1.3-3.1,6.6-3.5,9.3-0.8c4.1,4.1,3.8,11.5-0.6,15.2c-3,2.5-6.1,4.9-9.2,7.2
			c-1.1,0.8-2.5,1.4-3.7,2c0.5,0.5,1,1,1.5,1.6c3.5-2.4,7-4.9,10.6-7.2c2.2-1.3,4.5-2.3,6.8-3.4c2.3-1.1,3.8-0.1,3.8,2.2
			c0.1,4.1-0.2,8.2-0.4,12.3c0,0.8-0.2,1.5-0.3,2.7c3.5-3.7,4-15.9,0.8-18.5c-1.1-0.9-3.3-0.5-5.2-0.8c0.1-3.4,0.5-6.9,3.4-9.9
			c3.3-3.3,7.5-4.6,11.4-2.5c3.9,2.1,5.3,5.4,3.2,10.3c-1.8,4.1-4.6,7.8-7.1,11.9c1.4-0.9,2.9-1.8,4.1-2.6c3.4,1.5,6.8,3,11.2,5
			c-9.3,25.1-12.7,51.1-7.2,77.9c-3.2,0.5-6,0.9-9.5,1.4c0.8-2.8,1.3-5.4,2.3-7.8c1.6-3.9,0.9-7.5-1.1-10.9
			c-2.2-3.6-7.3-4.4-12.3-1.4c1.5,0,3,0,4.4,0c6.4-0.2,9.9,5.2,7.7,11.3c-1.3,3.5-2,7.1-3,10.7c0.3,0.2,0.6,0.5,1,0.7
			c1.4-0.5,2.8-1,4.2-1.6c3.8-1.4,6.2-0.5,7.5,2.8c4.7,11.9,9.6,23.8,14.3,35.7c0.3,0.8,0.6,1.6,0.8,2.4l0.1-0.1
			c-0.6-0.6-1.3-1-1.8-1.7c-2.3-3.4-5.1-5.7-10.1-3.9c0-2.5,0-4.5,0-6.5c-0.1-4-1.2-7.7-4.2-10.7c-4.3-4.3-11.8-3.4-15.1,2.4
			c1-0.5,2-1.1,2.9-1.7c5.9-3.7,11.8-2,13.6,4.7c1.2,4.4,0.7,9.2,0.9,13.8c0,0.7-0.1,1.4-0.1,2.1c0.4,0.1,0.8,0.2,0.8,0.1
			c3.5-4.5,6.7-4.6,9.6,0.4c1.5,2.6,2.2,5.7,2.8,8.6c2.1,10.6-1.2,20.5-4.6,30.8c-2.3-3.5-4.7-6.7-6.6-10.1
			c-0.5-0.9,0.1-2.5,0.2-3.7c0.5-8.1-0.7-15.8-4.2-23.2c-3.3-6.9-12.7-8.4-17.6-5.6c-3.5-6-5.8-7-13.5-5.4c-2,0.4-4,1-6.7,1.7
			c0-3,0-5.6,0-8.3c-0.1-6.3-2-8.2-8.1-8.1c-2.7,0-5.4,0-8,0.5c-1.7,0.3-3.6,1.1-2.4,3.9c4.2-4.7,9.3-2.8,14-2.3
			c1.2,0.1,2.8,3.4,2.9,5.2c0.2,5.3-0.3,10.6-0.6,16.1c0.3-0.3,0.7-0.6,1-0.9c1.3-1.6,2.3-4.3,3.9-4.7c4.1-1,8.4-1.5,12.6-1.3
			c1,0,2.4,3.3,2.7,5.3c0.5,2.8,0.1,5.7,0.1,8.5c0.3,0.1,0.7,0.1,1,0.2c0.3-1,0.5-2.1,0.9-3.1c1-2.3,1.8-6.1,3.4-6.6
			c3.8-1,8.2-0.7,11,3c4.1,5.4,5.8,11.8,6.1,18.5c0.1,2.4,0,4.8,0,7.7c-5.9-4.6-10-13.3-19.1-5.2c-0.3-1.8-0.5-3.3-0.7-4.8
			c-0.7-5.8-2.1-7.6-6.3-8.7c-3.7-1-7.6,0.8-10.3,4.8c-0.6,0.9-1.1,1.8-2.3,3c-0.1-8.7-1.4-16.1-12.8-13.9c1.3,0.2,2.6,0.2,3.8,0.8
			c2.1,1,5.4,2,5.8,3.6c2.1,7.5,2.1,15.3,1.2,23.1c-2.9-0.7-5.5-2.1-7.7-1.6c-2,0.4-3.7,2.8-5,3.9c-3.1-2.1-6.4-4.7-10-6.8
			c-5.1-3-7.6,1.6-11,4.4c-0.5-3.2-0.9-6.3-1.6-9.3c-1.5-6.3-7.7-10.3-13.9-8.7c-1.8,0.5-3.2,2.5-4.8,3.8l0-0.1
			c-1.5-0.8-2.9-2.2-4.4-2.3c-7-0.5-11.9,2.7-15.3,10c-2.4-4.2-4.4-7.8-6.3-11.3c-0.2-0.4-0.4-1-0.2-1.4c1.7-5.4,10.3-10.9,15.9-10
			c1.4,0.2,3,1.4,3.9,2.6c1.9,2.5,3.5,5.4,5.3,8.1c0.1-0.1,0.4-0.3,0.4-0.6c0-2.7-4.8-10.7-6.9-11.4c-5-1.8-10.7-0.4-14.1,3.6
			c-1.6,1.9-3.2,3.9-5,6.1c-2.7-6.1-3.5-12-3-18.2c0-0.6,0-1.4,0.4-1.7c3.4-3.3,6.7-6.7,10.4-9.6c4.8-3.7,9.3-1.2,9.8,4.9
			c0.2,2.4,0.6,4.8,1,7.2c0.2,0.8,0.8,1.6,1.7,2.1c-0.5-4-0.7-8.2-1.7-12.1c-1.4-5.5-6.1-7.2-10.9-4.1c-2.5,1.6-4.5,4-6.8,6.1
			c-1.1,1.1-2.1,2.2-4,4.1c0.6-7.1-0.6-13.3,3.8-18.5c0.7-0.8,1.5-1.7,2.5-2c6.7-2.2,13.6,1.1,16.4,7.7c0.3,0.7,0.6,1.3,1.1,2.3
			c1.4-0.6,2.7-1.2,4-1.8c5.6-2.4,9.6-0.6,11.2,5.3c0.2,0.8,0.4,1.7,0.5,2.5c0.8,6.9,0.7,7.2-6,9c-5.5,1.5-7.1,3-7.7,8
			c3.3-5.8,7.9-7.1,13.1-6.9c2,0.1,4.4-0.3,3.9,3.2c-0.1,0.8,2.2,1.6,2.5,2.7c0.9,3.1,1.4,6.4,1.9,9.6c0.3,1.7,0.2,3.5,0.3,4.5
			c2.3-2.6,4.4-5.4,6.9-7.8c5.9-5.6,13.4-3.6,15.4,4.4c0.9,3.3,0.5,7,0.7,10.5c0,0.9-0.2,1.7-0.3,2.6c0.4,0.1,0.9,0.1,1.3,0.2
			c0.3-2.4,1-4.8,0.8-7.1c-0.6-7.5-1.6-14.9-2.4-22.4c-0.4-3.7-2-6.2-5.5-7.5c-1.8-0.7-2.4-1.6-1.8-3.6c1.2-4.8-0.9-8.9-3.2-12.8
			c-1.5-2.4-4.1-3.9-6.9-2.3c-4.8,2.7-9.1,6.1-11.3,11.5L282.3,359z M357.9,304.8c0.1-0.2,0.2-0.5,0.2-0.7c-1.5-0.6-3-1.2-4.8-2
			c7.8-7.2,6.4-16.4,5.5-25.2c-0.3-2.9-2.5-5.7-4.3-8.3c-0.6-0.9-3-1.6-3.7-1.1c-3.2,2.3-6.2,5-9.2,7.6c0.3,0.4,0.7,0.7,1,1.1
			c1.6-1.4,3.2-2.7,4.7-4.1c4.5-4.6,6.6-4.2,9.1,1.8c0.4,0.9,0.8,1.8,0.9,2.8c0.5,8.5,2.2,17.2-4.8,24.2c-0.9,0.9-1.3,2.2-2,3.5
			C353.2,304.6,355.5,304.7,357.9,304.8z M324,358.6c0.4,0.1,0.8,0.2,1.2,0.2c0.4-1.9,0.9-3.8,1-5.7c0.6-6.8,1.2-13.6,1.7-20.4
			c0.6-7.5-1.4-14.1-7-19.3c-3.5-3.3-8.4-3.1-11.2,0.4c1-0.1,1.7-0.1,2.3-0.4c4.5-1.9,7.5-0.2,10.5,4.2c3.5,5.1,4.4,10.7,3.6,16.8
			C325.2,342.4,324.7,350.5,324,358.6z M322.6,343.7c0.1-4.1-1.2-7.5-4.5-9.5c-5.7-3.5-11.6-3.8-17.5-0.2c-2.5-4.7-5.6-7.2-9.4-6.7
			c10.7,3.3,7.3,12.5,8.4,19.8c0.3-0.1,0.7-0.2,1-0.3c0-3.6,0-7.2,0-10.6c3.6-2.8,7.2-3.5,11.3-2.8
			C317.7,334.4,320.8,338.2,322.6,343.7z M342.5,309.3c0.2,0.1,0.4,0.1,0.6,0.2c0.5-1.2,1.3-2.3,1.3-3.5c-0.1-5.7-0.4-11.5-0.9-17.2
			c-0.1-1.5-1-3-1.9-4.3c-1.8-2.5-4.7-3.1-7-1.6c6.4,1.7,7.5,2.9,7.8,10.1C342.7,298.5,342.5,303.9,342.5,309.3z"/>
		<path class="st0" d="M222.7,635.9c-0.9-6-1.9-11.9-2.8-17.9c-0.1-0.6,0.2-1.3-0.1-1.8c-0.6-1.2-1.4-2.3-2.2-3.4
			c-1,0.7-2.3,1.2-3.1,2.2c-4.6,6.1-9.2,12.3-13.7,18.5c-0.4-0.3-0.9-0.6-1.3-0.8c1.9-3.2,3.7-6.3,5.6-9.4c1.4-2.3,3.3-4.3,4.6-6.6
			c0.5-1,0.7-2.8,0.1-3.5c-0.6-0.7-2.6-0.9-3.5-0.4c-5.5,3-10.7,6.4-16.2,9.3c-6.7,3.6-13.7,7-20.7,10.2c3.2-4.5,6.9-8.5,12-10.9
			c6.6-3,13.2-5.8,19.8-8.7c0.7-0.3,1.5-0.4,2-1c0.8-1,1.4-2.3,2.1-3.4c-1.2-0.5-2.5-1.6-3.6-1.5c-7.5,0.9-15,2.1-22.5,3.3
			c-0.6,0.1-1.1,0.1-2.7,0.3c8.2-3.9,15.4-7.5,22.7-10.6c4.3-1.8,7.5-4.7,9.6-8.7c4.7-8.5,9.4-16.9,13.4-25.6
			c1.6-3.5,1.4-7.8,1.6-11.8c0.8-15.9,4.4-31,12.4-44.8c2.5-4.3,5.7-8.2,7.8-12.7c1.5-3.1,1.8-6.8,2.2-10.3
			c0.7-6.9,0.8-13.9,1.7-20.8c1.2-9.1,5.6-17.2,9.8-25.2c1.2-2.4,1-5.9,4.6-6.8c0.4-0.1,0.7-2.3,0.4-2.5c-1-0.6-2.5-1.3-3.5-1
			c-5.9,1.4-11.8,1.2-17.4-0.6c-11-3.6-20.5-9.8-26.1-20.1c-2.8-5.2-4-11.6-4.7-17.6c-1.5-12.1-2.3-24.3-3.4-36.5
			c-0.7-7.8,1.5-15,3.9-22.2c2.1-6.5,3.8-13.2,5.7-19.7c0.5-1.8,0.9-3.6,1.8-5.2c6.9-11.5,13.5-23.3,21.2-34.3
			c3.7-5.3,9.6-9.2,14.3-13.4c0.7,5.3-4.4,8-7.3,12c4.6-2.4,7.9-5.6,8.9-10.9c1-5.5,2-6.3,7.9-7.4c-0.5,0.9-0.7,1.6-1.2,2.2
			c-7.1,9.1-12.3,19.1-15,30.3c-3.2,13.2-7.2,26.2-9.6,39.5c-1.7,9.1-1.3,18.5-2,27.8c-0.1,1.6-1.3,3.2-2,4.7
			c-1.3,2.9-2.7,5.7-3.8,8.6c-3.3,8.8-6.3,17.7-9.6,26.5c-0.6,1.7-1.8,3.1-2.7,4.7c0.3,0.2,0.6,0.4,0.8,0.7c1-1.3,2.3-2.4,2.9-3.9
			c3.3-8.8,6.5-17.6,9.7-26.5c1.1-3,2.1-6.1,3.1-9.1c0.5,0.1,0.9,0.2,1.4,0.3c0,1.4,0.1,2.7,0,4.1c-1.4,13.4,0.2,26.1,7.6,37.7
			c0.7,1.1,0.4,3.1,0.2,4.7c-1.1,6.1-2.4,12.2-3.6,18.2c-0.1,0.6,0.3,1.2,1.1,1.8c1.3-6.8,2.6-13.5,3.9-20.3c0.5,0,0.9-0.1,1.4-0.1
			c4,5.5,8,11,11.9,16.5c5.7,8.1,11.1,16.4,16.8,24.5c4.9,7.1,11,12.2,20.2,12.2c0.5,0,0.9,0.3,1.5,0.5
			c-4.5,16.5-6.9,33.6-16.5,48.3c-2.7,4.1-5.3,8.2-5.9,13.3c-0.1,1.3-0.8,2.6-1.6,3.7c-7.9,11.5-15.8,22.9-23.7,34.4
			c-1.5,2.1-3.9,4-1.4,7.1c0.4,0.5-0.2,1.8-0.5,2.7c-1.8,5.3-3.3,10.8-5.5,15.9c-1.4,3.3-3.9,6.1-5.9,9.1c-2,3.3-4.4,6.4-5.9,9.9
			c-3.7,8.9-4.9,18.4-5.1,28c0,1.1-0.2,2.2-0.4,3.3c-0.1,0.3-0.3,0.6-0.5,0.9C223.7,635.8,223.2,635.9,222.7,635.9z M212.8,348.5
			c0.1,0,0.2,0.1,0.3,0.1c4.3-4.1,8.4-8.2,12.8-12.2c4.2-3.8,6.2-8.7,7.1-14.1c0.8-4.5,0.5-9.5,6.8-10.7c-3.8-0.8-6.1,0.4-7.1,3.5
			c-0.6,2-0.9,4.1-1.2,6.1c-0.8,5.9-3.2,10.9-7.7,15c-3.2,2.9-6.1,6-9,9.1C214,346.2,213.5,347.4,212.8,348.5z"/>
		<path class="st0" d="M228.3,96.4c2.8,12,10.9,21,18.5,30.2c7.1,8.7,10.9,18.7,12.7,29.6c1.8,10.6,4.1,21.1,5.9,31.7
			c0.8,4.6,0.9,9.2,1.3,13.9c-4.2,1.6-8.2,3.8-12.6,4.8c-9.3,2.3-17.5,6.3-25.6,11.4c-6.9,4.4-15.1,6.7-22.6,10.2
			c-11.3,5.4-22.5,11.2-33.9,16.6c-2.6,1.2-5.8,2.1-8.7,1.9c-5.4-0.3-8.2-4.9-6-9.9c1.3-3.1,3.3-6,5.6-8.5
			c15.7-17.2,34.3-30.5,56-39.1c6.5-2.6,13.3-4.3,19.8-6.8c8-3.1,13.1-10.7,13.2-18.2c0-4.4-2-7.2-5.8-8.9c-9.2-4-18.7-3.5-28.1-1.7
			c-10.8,2-19.9,6.7-28.2,14.5c-7.3,7-16.8,11.6-25.2,17.5c-7.4,5.2-15.8,8.1-23.9,11.6c-2.8,1.2-4.3,0.3-4.2-2.8
			c0.2-3.1,0.7-6.3,1.6-9.3c2.9-9.2,7.2-17.5,13.6-24.9c9.8-11.2,18.5-23.5,28.7-34.3C193.6,111.9,208.7,100.5,228.3,96.4z"/>
		<path class="st0" d="M382.7,636c1.9-3.2,3.8-6.4,5.7-9.6c0.6-1,1.7-1.9,2-3c0.5-1.5,0.4-3.1,0.6-4.7c-1.6,0-3.3-0.6-4.7-0.1
			c-8,3-15.8,6.3-24.1,9.1c3.2-2.6,6.4-5.2,9.6-7.8c4.3-3.6,9.1-6.8,13-10.8c9.5-9.9,10.6-20.9,1.1-30.7c-10.7-11-15.7-24.6-21.5-38
			c-3.2-7.5-4-15.3-3.7-23.3c0-1.2-0.5-2.5-1.3-3.5c-3.3-4.5-7.2-8.7-9.9-13.5c-4.6-8.1-8.8-16.4-12.4-24.9
			c-1.9-4.6-2.4-9.8-3.3-14.9c-0.2-1,0.9-2.6,1.9-3.3c10.9-7.2,21.9-14.3,32.8-21.4c2.5-1.7,5.1-3.4,7.6-5.1c1.7,2.1,3,4.1,4.7,5.8
			c8.2,8,11,18.4,14,29c3.5,12.8,0.1,24.7-4.2,36.5c-1,2.8-0.8,5.2,0.5,7.7c0.7,1.3,1.4,2.6,2.2,3.8c12.6,18.2,18.1,39,17.6,60.6
			c-0.2,11.3,2.8,21.3,5.5,31.7c1.8,7,1.9,14.5,2.7,21.7c0.3,2.8,0.3,5.6-0.1,8.8c-1.6-2-3.2-4-4.7-6.1c-0.8-1.1-1.2-2.5-2.2-3.4
			c-1-0.9-2.5-2.1-3.5-1.8c-1,0.2-1.9,2.1-2.1,3.3c-0.3,2.6-0.1,5.3-0.1,8c-0.4,0-0.7,0-1.1,0.1c0-2.2,0-4.5,0-6.7
			c0-1.6,0.2-3.3-0.2-4.7c-0.4-1.2-1.3-2.8-2.4-3.2c-0.7-0.3-2.3,0.9-3.2,1.7c-5.2,4.6-10.4,9.3-15.5,14
			C383.6,636.7,383.1,636.4,382.7,636z"/>
		<path class="st0" d="M288.2,274.5c0.9,0.4,1.4,0.7,2,0.9c6.7,1.5,6.5,1.5,6.8,8.2c0.2,5.5-1.4,10.2-4.4,14.8
			c-3.7,5.6-6.4,11.9-12.1,15.9c-0.2,0.1-0.2,0.7-0.3,1.6c1.7-0.2,3.2-0.4,4.7-0.6c3.7-0.5,5.9,0.9,5.3,4.4
			c-1.8,11.9-3.7,23.8-13.8,32.2c-0.6,0.5-1.5,0.9-2.2,1c-2.6,0.5-5.2,1-8.2,1.5c-2.1-4.4-3.5-9.9-9.5-11.5
			c-5.8-1.5-10.2,0.9-14,5.5c0-4.8-1.1-9.6,0.3-13.6c1.8-5.1,7.1-7.7,12.4-8.4c9.3-1.3,9.4-1,12,7.9c0.7,2.4,1.2,5,1.4,7.5
			c0.2,2.5,0.1,5.1,0.9,7.8c0.3-1.1,1-2.3,0.8-3.4c-0.9-6.3-1.9-12.5-3.3-18.7c-0.3-1.2-2.8-2.6-4.4-2.8c-6.5-0.9-12.7,0.4-17.8,4.9
			c-0.4,0.4-1,0.6-2.5,1.7c1.2-6.3,2.3-11.6,3.4-16.8c0.1-0.4,0.7-1,1.2-1c5.7-1,11.5-2,17.3-2.9c2.8-0.4,4.4,1,5,3.6
			c1.1,4.4,2.1,8.8,3.2,13.2c0.3,1.2,0.5,2.5,1.6,3.7c0.1-0.6,0.4-1.2,0.3-1.8c-1.1-5.3-2.3-10.5-3.6-15.7c-0.8-3.3-2.9-5-6.4-4.6
			c-5.8,0.7-11.6,1.5-17.7,2.3c1.2-4.6,2.1-9.6,3.7-14.4c2.9-8.9,5.4-18.1,9.6-26.4c3.8-7.4,9.7-13.6,14.8-20.3
			c0.6-0.8,1.8-1.4,2.8-1.5c5.1-0.7,10.2-1.3,15.3-1.6c3.4-0.2,5.4,1.9,5.1,5.2c-0.2,2.2-0.8,4.6-1.7,6.6
			C293.5,264.2,290.9,269.3,288.2,274.5z M274.2,308.2c0.4,0.1,0.8,0.2,1.3,0.3c0.6-2.3,1.2-4.6,1.7-6.9c2.2-9.6-6.5-19.2-16.2-17.9
			c-3.1,0.4-5.4,2.3-7.3,4.5c1.3,0,2.3-0.4,3.1-1c4.7-3.3,9.4-2.5,13.6,0.7c4.4,3.3,6.8,7.9,5.2,13.8
			C275,303.8,274.6,306,274.2,308.2z M267.2,260c-0.1,0.5-0.3,1.1-0.4,1.6c4.8,0,7.5,2.9,9.1,6.8c1.3,3.2,1.8,6.7,2.6,10.1
			c0.4,1.6,0.6,3.3,0.9,4.9c0.4-0.1,0.8-0.1,1.3-0.2c-0.5-3.7-0.3-7.6-1.6-10.9c-1.5-3.8-4-7.3-6.6-10.6
			C271.4,260.5,268.9,260.5,267.2,260z"/>
		<path class="st0" d="M311.6,422.4c0.5-2.3,1-4.6,1.6-6.8c0.7-2.6,1.4-5.4,4.9-5.6c3-0.2,6.5,2.5,6.8,6.1c0.7,7.9,1,15.8,1.4,23.7
			c0.1,1.9,0,3.8,0.6,5.9c0.3-0.5,0.8-1.1,0.8-1.6c-0.3-4,1.2-7.4,3.5-10.6c1.4-2,2.3-4.6,5.4-4.1c3.5,0.6,5.5,2.9,6.5,6.2
			c0.6,2.3,1.3,4.5,2.3,6.7c1-4-1.7-11.1-4.8-13.2c-3.8-2.6-7.1-1.9-9.8,1.9c-0.6,0.9-1.2,1.8-2.1,3.2c-0.3-1.2-0.6-1.7-0.6-2.4
			c-0.7-6.2-2-12.4-1.8-18.5c0.2-6.6,0.8-13.5,4.7-19.3c1.8-2.7,4.4-4.5,8.2-3.7c3.8,0.9,4.8,3.7,5.1,7.1c0.3,2.6,0.6,5.2,1.1,8.8
			c1.5-1.4,2.2-2.1,2.9-2.8c3.3-3.8,5.5-4.3,9.4-1.1c7.1,5.9,12.3,13.2,15,22.1c0.3,0.8-0.4,2.2-1,3c-0.5,0.7-1.6,1.1-2.4,1.6
			c-0.7,0.4-1.5,0.8-2.3,1.2c-1.7-4.6-3-9.2-5-13.5c-3-6.3-11.3-7.6-16.4-2.8c-5.9-6.3-15.2-5.9-17.7-0.1c3.2-0.8,6.9-2.3,10.6-2.4
			c5.1-0.1,5.9,4.4,6.1,9c1.1-0.9,1.5-1.1,1.6-1.4c2-5.9,4.4-7.4,10.4-5.7c1.2,0.3,2.7,1.5,3.2,2.7c1.9,4.5,3.5,9.1,4.9,13.8
			c0.3,1-0.4,3-1.3,3.6c-8.6,5.9-17.2,11.7-26,17.3c-1.8,1.1-4.3,1-6.5,1.5c-0.6,0.1-1.2,0.1-1.7,0.4c-5.3,2.8-8.3,3.3-13.7,2.2
			c-0.5-7-0.8-13.9-1.7-20.8c-1-8.4-5.5-11.7-14-10.4c-1.7,0.3-3.7,2.3-4.6,4c-1.3,2.7-1.8,5.8-2.8,9.2c-1.3-4.1-1.8-7.9-3.6-11.1
			c-1.4-2.5-2-4.7-0.5-7c2.2-3.6,4.6-7,7.2-10.4c1.8-2.3,4.1-2.2,6.9-1c5.7,2.5,9,6.1,8.1,12.7c-0.1,0.7,0.4,1.5,0.6,2.3
			C311,422.4,311.3,422.4,311.6,422.4z"/>
		<path class="st0" d="M268.6,428.4c1.8-2.6,3.3-5,4.9-7.2c3.3-4.5,5.9-4.5,9.7-0.6c6.2,6.5,7,14.8,7.6,23.1c0.2,2.3,0,4.7,0,7.1
			c0.3,0,0.6,0.1,0.9,0.1c0.2-0.5,0.7-1,0.6-1.4c-0.9-6.6,1.7-12.7,3.3-18.8c0.7-2.7,1.2-5.6,5.1-5.7c5.6-0.2,9.1,1.3,10.3,5.1
			c1,3.1,1.7,6.4,1.9,9.7c0.3,5,0.1,10,0.1,15.6c-5.4-0.5-10.7-1.2-16-1.4c-7.5-0.2-13-3.6-17.1-9.6
			C276.1,439,272.2,433.6,268.6,428.4z"/>
		<path class="st0" d="M392.8,221.7c-1.1-0.5-2.2-1-3.9-1.7c3.6-0.9,4.9-0.2,8.8,3.6c-3.9,2.5-8.3,4.6-11.8,7.6
			c-3.4,3-6.1,6.9-9.1,10.5c-3.9-7.1-6.7-8.7-12.9-6.5c2.1,0.2,3.2,0.3,4.3,0.5c5.1,0.6,7.9,6.2,5.7,10.7c-1.8,3.7-3.3,7.6-5,11.8
			c-1.5-0.3-3-0.5-4.5-1c-4.3-1.6-4.8-2.8-2.8-6.9c0.4-0.8,0.7-1.5,1-2.3c2.3-5.9,1.1-10.2-3.3-12.9c-4.8-2.8-10.2-1.7-13.9,2.8
			c-0.5,0.6-0.9,1.2-1.8,2.4c-2.1-6.7-6.1-9.7-12.5-8c-3.2-8.3-3.2-8.3-12.9-13.7c19.9,5.1,40,5,61.1,3.6c-3.7,2.5-6.7,4.4-9.6,6.4
			c0.2,0.3,0.5,0.7,0.7,1c2.9-1.7,5.8-3.3,8.7-5c4.1-2.4,8.1-4.9,13-1.2C392.2,222.6,392.5,222.2,392.8,221.7z M361.1,234.5
			c0.3-0.3,0.6-0.6,1-0.9c-1.3-1.6-2.2-3.7-3.9-4.8c-8.1-5.1-16.1-2.2-24,0.7c-0.1,0,0,0.4,0,0.8
			C343.5,229.2,353.7,222.7,361.1,234.5z"/>
		<path class="st0" d="M454.8,468.7c0.8,7.6-0.7,14.7-2.9,21.7c-0.5,0-0.9,0-1.4,0c-0.7-6.4-1.4-12.9-2.2-20.7
			c-3,3.8-5.4,6.8-7.8,9.9c0.5-12,1-23.8,1.6-36.1c8.2,1.5,17.4,3.4,24.8-4.9c0.2,0.3,0.4,0.6,0.6,0.9c-0.4,14.2-0.8,28.3-1.3,43.4
			C460.1,479.6,459.2,472.9,454.8,468.7z"/>
		<path class="st0" d="M270.6,395.8c3.7-2.2,7.2-3.4,11.7-1.5c5.5,2.4,7,9.3,6.4,15.9c-0.3,3.3-1.7,6.5-2.7,10.2
			c-1-0.6-1.6-0.9-2.1-1.4c-4.3-4.1-7.9-3.8-11.5,1c-1.5,2-2.9,4.2-4.5,6.6c-5.4-7.6-10.6-14.8-15.7-22c2.1-5.5,5.7-9.1,11.7-9.7
			c4.9-0.5,7.2,1.2,6.9,6.1c-0.2,4.9-1.2,9.9-2,14.8c-0.4,2.5-1.4,4.9-1.5,7.5c3-6.6,5.8-13.3,5.1-20.8
			C272.2,400.2,271.3,397.9,270.6,395.8C270.6,395.7,270.6,395.8,270.6,395.8z"/>
		<path class="st0" d="M301.6,258.9c2-2.7,3.4-4.9,5.1-6.9c6.2-6.8,6.3-15.8,0-22.9c-0.6-0.6-1.3-1.1-2-1.6
			c6.6-6.7,13.4-8.4,19.9-3.5c3.8,2.8,5.2,6.9,3.5,11.3c-3,7.6-7.4,14.3-13.5,19.8C311,258.4,308.8,259.1,301.6,258.9z"/>
		<path class="st0" d="M310.4,384.5c-8.8-7.2-14.4-2.1-19.7,3.3c-1.4-4-2.7-7.7-3.9-11.4c-0.2-0.7,0-1.7,0.3-2.4
			c2-4.1,11.8-9.5,17.5-6.4c2.9,1.6,4.5,3.5,4.8,6.7C309.7,377.3,310,380.3,310.4,384.5z"/>
		<path class="st0" d="M282.2,359.2c1-0.7,2-1.3,2.9-2.1c2.7-2.4,5.2-5.1,8-7.4c1.7-1.4,3.8-1.5,5.2,0.4c2.8,3.8,5,7.9,3.6,12.8
			c-0.2,0.9-1.4,1.9-2.3,2.1c-5.7,1.1-10.6,3.5-14.2,8.3c-2.5-0.5-3.8-1.4-3.4-4.3c0.4-3.2,0.2-6.6,0.3-9.9
			C282.3,359,282.2,359.2,282.2,359.2z"/>
		<path class="st0" d="M378.5,381.9c2.5,6.2,6.2,12.3,7,18.7c0.8,6.2-1.6,12.8-1.7,19.5c1.2-4.4,2.3-8.8,3.5-13.4
			c2.4,3,4.5,5.7,7.2,9.2c-6.6,3.1-13.1,6.2-20.5,9.7c1.1-4.2,1.6-7.7,2.9-11c3.8-10.3,4.3-20.7,1.5-31.3
			C378.3,382.8,378.5,382.3,378.5,381.9C378.6,381.9,378.5,381.9,378.5,381.9z"/>
		<path class="st0" d="M260.9,128.6c1.2-3.1,2.2-5.7,3.1-8.1c2.3,0.2,4,0.3,6,0.5c-0.7,3,1.3,3.4,3.8,3.2c4-0.3,9.8-5.1,9.7-8
			c1.3-0.5,2.7-1,3.9-1.4c0.4,0.3,0.6,0.4,0.7,0.6c2.8,6.2,2.6,6.9-3.8,8.5c-5.7,1.4-11.5,2.1-17.3,3.2
			C265.2,127.3,263.4,127.9,260.9,128.6z"/>
		<path class="st0" d="M265.2,130.3c8.2-1.5,16.2-3,24.1-4.5C288.6,131.5,272.8,134.8,265.2,130.3z"/>
		<path class="st0" d="M286.8,111.8c-6.3,2-12.5,3.9-19.1,5.9C274.9,110.2,283.5,107.4,286.8,111.8z"/>
		<path class="st0" d="M281.4,118.6c-3.1,1.6-5.8,3-8.6,4.4c-0.2-0.3-0.3-0.7-0.5-1C274.9,120,276.5,116,281.4,118.6z"/>
		<path class="st0" d="M258.3,346.3c-2.9-0.3-5.9-0.6-8.8-0.9c0-0.4,0.1-0.8,0.1-1.2c2.9,0.2,5.9,0.5,8.8,0.7
			C258.4,345.4,258.4,345.8,258.3,346.3z"/>
		<path class="st0" d="M155.6,536.4c9.7,1.4,16.5,9.5,16.1,19c0,1.1-1.2,2.9-2.1,3.1c-2.9,0.6-6.1,0.5-7.6-2.8
			c-0.6-1.4-0.9-3.2-0.6-4.6C162.5,544.9,161.4,539.8,155.6,536.4z"/>
		<path class="st0" d="M125.1,556.3c-1.6-6.4,2.7-10.4,6.1-14.9c2.3,1.2,3.7,2.8,3.4,5.6C134,551.1,130.1,555.1,125.1,556.3z"/>
		<path class="st0" d="M89.5,440.7c3.7,1.2,5.5,3.4,5.2,6.9c-0.5,6.6-1.6,13.1-5.7,18.6c-1.8,2.4-4.2,3.5-7.1,2.3
			c-2.8-1.2-4.7-3.4-4.3-6.6c0.5-3,1.1-6.2,2.6-8.7C83,448.9,86.4,444.9,89.5,440.7z"/>
		<path class="st0" d="M153.1,459.1c3.9,3.5,6.1,6.4,5.3,10.7c-0.5,2.7-2.3,4.9-4.8,4.4c-1.4-0.2-3.3-3.1-3.2-4.8
			C150.6,466.2,152,463.1,153.1,459.1z"/>
		<path d="M446.5,321.5c1.3,5.8,2.8,11.6,3.8,17.5c1.8,10.7,3.3,21.5,5,32.4c9.4,2.6,15.4,9.5,19.6,18.3c0.2,0.4,0.5,1,0.4,1.4
			c-0.4,1.4-0.9,2.7-1.3,4c-1.1-0.8-2.4-1.3-3.1-2.4c-2.1-3.1-3.6-6.7-6.1-9.5c-2.4-2.7-5.7-4.7-9.2-7.5c0,3.6,0,6,0,8.4
			c0,10.2,0.1,20.3,0,30.5c-0.1,4.1-0.6,8.3-1.4,12.3c-0.2,1.1-1.8,2-2.8,3c-0.7-1.3-1.9-2.6-1.9-3.8c0.3-13.8,1.3-27.6,1-41.4
			c-0.3-17.7-2.1-35.4-6.9-52.6c-3.4-12.1-7.1-24.1-10.9-36.1c-4.1-13.1-8.2-26.1-12.6-39.1c-2.3-6.9-5.8-13.1-13-17.8
			c-1.7,4-3.1,7.8-4.8,11.5c-2.3,4.8-4.7,9.6-7.3,14.3c-0.4,0.7-2.2,1-3.1,0.7c-0.6-0.2-1.2-2-0.9-2.7c4-8.8,8.1-17.6,12.3-26.4
			c0.1-1.1,0.2-2.6,0.3-4.1c1.6,0.3,3.5,0.1,4.6,1c3.9,2.9,7.5,6.2,11.2,9.4c0.1,0.4,0.1,0.8,0.2,1.2c7.6,14.2,11.8,29.7,16.5,44.9
			c3.4,10.9,7,21.8,10.6,32.7L446.5,321.5z"/>
		<path d="M397.6,371.2c2.3-8.3,4.3-16.5,6.7-24.5c1.1-3.9,2.5-7.7,4.5-11.2c4.6-8.4,6.6-17.5,8.1-26.9c1-6.5,3.1-12.5,9.8-15.3
			c1.3-0.5,3,0,4.5,0.1c-0.7,1.4-1.1,3.4-2.2,4c-4.3,2.2-6.1,5.8-6.9,10.2c-0.5,2.5-1.2,5-1.4,7.6c-0.9,11.2-7.6,20.3-10.8,30.6
			c-2.5,8-4.4,16.3-6.5,24.4c-0.2,0.7-0.1,1.6-0.6,2.1c-0.8,0.8-1.9,1.8-2.8,1.7C399.3,373.8,398.6,372.4,397.6,371.2z"/>
		<path d="M439.8,261.7c2.8,0.1,5.6,0.3,8.4,0.4c5.9,0.2,10.4,3.1,14,7.7c5.5,6.9,12,11.7,21.3,11.8c1.2,0,2.4,1.5,3.6,2.3
			c-1.3,0.8-2.5,2.3-3.8,2.4c-10.3,0.4-18-4.8-24.1-12.5c-3.8-4.9-8.5-7.1-14.5-7c-4,0-8.1,0.2-12.1-0.1c-1.2-0.1-2.2-1.6-3.4-2.5
			c1.1-0.8,2.1-2,3.3-2.2c2.4-0.3,4.9-0.1,7.3-0.1C439.8,261.8,439.8,261.7,439.8,261.7z"/>
		<path d="M383.1,306.5c1.2-2.6,1.9-5,3.2-7c7.8-11.6,15.7-23.1,23.6-34.5c1.3-1.9,2.9-3.7,4.6-5.2c0.7-0.6,2.2-0.1,3.3-0.1
			c0,1.1,0.4,2.5-0.1,3.3c-8.3,12.1-16.8,24.1-25,36.2c-1.6,2.4-2.6,5.1-4.1,7.6c-0.7,1.2-1.8,2.1-2.7,3.2
			C384.9,308.9,384.1,307.8,383.1,306.5z"/>
		<path d="M446.6,321.6c1.7-4,5.1-3.4,7.7-2c4.4,2.2,8.5,5.2,12.6,8c3.9,2.7,8,5.3,11.5,8.4c2.9,2.5,5.3,5.6,7.5,8.7
			c0.5,0.7-0.4,2.5-0.7,3.7c-1.1-0.4-2.9-0.6-3.3-1.4c-2.4-4.9-6.9-7.4-11.1-10.3c-4.5-3.1-8.7-6.7-13.3-9.7
			c-2.4-1.5-5.3-2.2-7.9-3.3c-1.2-0.5-2.1-1.4-3.2-2.2C446.5,321.5,446.6,321.6,446.6,321.6z"/>
		<path d="M421,390.9c-0.7-1.2-1.7-2.2-1.7-3.2c0-0.9,0.9-1.9,1.5-2.8c3-4.9,6.1-9.6,8.9-14.6c2.7-4.7,4.9-9.5,7.5-14.3
			c0.6-1,1.4-2.1,2.4-2.7c0.9-0.5,2.2-0.2,3.3-0.3c0,1.1,0.5,2.5,0.1,3.3c-1.3,2.6-3.2,4.9-4.6,7.5c-2.5,5-4.6,10.3-7.3,15.2
			c-2,3.6-4.8,6.7-7.4,10C423.1,389.7,422.3,390,421,390.9z"/>
		<path d="M419.5,244c-0.1-0.4-0.1-0.8-0.2-1.2c0.6-1,1-2.7,1.8-2.9c8.3-1.8,16.7-3.3,25.1-4.9c0.6-0.1,1.3-0.4,1.8-0.1
			c1,0.5,1.9,1.2,2.8,1.8c-0.7,0.9-1.2,1.9-2,2.7c-0.4,0.4-1.1,0.3-1.7,0.5c-6.8,1.5-13.5,3.1-20.4,4.3
			C424.4,244.6,421.9,244.1,419.5,244z"/>
		<path d="M357.9,304.8c-2.4-0.1-4.7-0.2-7.5-0.4c0.8-1.3,1.2-2.7,2-3.5c7-7,5.3-15.8,4.8-24.2c-0.1-0.9-0.5-1.9-0.9-2.8
			c-2.5-6-4.6-6.3-9.1-1.8c-1.5,1.5-3.1,2.8-4.7,4.1c-0.3-0.4-0.7-0.7-1-1.1c3-2.6,6-5.3,9.2-7.6c0.7-0.5,3.1,0.2,3.7,1.1
			c1.8,2.6,4,5.4,4.3,8.3c0.8,8.8,2.3,18-5.5,25.2c1.9,0.8,3.3,1.4,4.8,2C358.1,304.4,358,304.6,357.9,304.8z"/>
		<path d="M324,358.6c0.7-8.1,1.2-16.2,2.2-24.2c0.8-6.1-0.2-11.7-3.6-16.8c-3-4.4-6-6.1-10.5-4.2c-0.6,0.3-1.4,0.2-2.3,0.4
			c2.8-3.5,7.8-3.7,11.2-0.4c5.5,5.2,7.5,11.9,7,19.3c-0.5,6.8-1.1,13.6-1.7,20.4c-0.2,1.9-0.7,3.8-1,5.7
			C324.8,358.7,324.4,358.6,324,358.6z"/>
		<path d="M322.6,343.7c-1.8-5.4-4.9-9.3-10.7-10.3c-4.1-0.7-7.7,0-11.3,2.8c0,3.4,0,7,0,10.6c-0.3,0.1-0.7,0.2-1,0.3
			c-1.1-7.3,2.3-16.5-8.4-19.8c3.8-0.5,6.9,2,9.4,6.7c5.8-3.6,11.8-3.3,17.5,0.2C321.4,336.2,322.7,339.6,322.6,343.7z"/>
		<path d="M342.5,309.3c0-5.4,0.2-10.8,0-16.2c-0.3-7.3-1.4-8.4-7.8-10.1c2.3-1.5,5.2-1,7,1.6c0.9,1.3,1.8,2.8,1.9,4.3
			c0.5,5.7,0.7,11.5,0.9,17.2c0,1.1-0.9,2.3-1.3,3.5C342.9,309.5,342.7,309.4,342.5,309.3z"/>
		<path d="M212.8,348.5c0.7-1.1,1.2-2.2,2-3.1c2.9-3.1,5.9-6.2,9-9.1c4.5-4.1,6.9-9.1,7.7-15c0.3-2.1,0.6-4.1,1.2-6.1
			c1-3.2,3.3-4.3,7.1-3.5c-6.3,1.2-6,6.1-6.8,10.7c-0.9,5.4-2.9,10.3-7.1,14.1c-4.4,4-8.5,8.1-12.8,12.2
			C213,348.6,212.9,348.5,212.8,348.5z"/>
		<path d="M274.2,308.2c0.4-2.2,0.8-4.4,1.4-6.6c1.6-5.9-0.8-10.4-5.2-13.8c-4.1-3.1-8.9-4-13.6-0.7c-0.9,0.6-1.9,1-3.1,1
			c2-2.2,4.3-4.1,7.3-4.5c9.7-1.3,18.5,8.3,16.2,17.9c-0.5,2.3-1.1,4.6-1.7,6.9C275,308.4,274.6,308.3,274.2,308.2z"/>
		<path d="M267.2,260c1.8,0.5,4.2,0.5,5.1,1.7c2.6,3.2,5.1,6.8,6.6,10.6c1.3,3.3,1.1,7.3,1.6,10.9c-0.4,0.1-0.8,0.1-1.3,0.2
			c-0.3-1.6-0.5-3.3-0.9-4.9c-0.8-3.4-1.3-6.9-2.6-10.1c-1.5-3.9-4.3-6.8-9.1-6.8C266.9,261,267,260.5,267.2,260z"/>
		<path d="M361.1,234.5c-7.4-11.7-17.6-5.3-27-4.1c0-0.4-0.1-0.8,0-0.8c7.9-3,15.9-5.8,24-0.7c1.6,1,2.6,3.1,3.9,4.8
			C361.8,233.8,361.4,234.2,361.1,234.5z"/>
	</g>
</g>
<rect x="8.4" y="72" class="st1" width="595.2" height="618.1"/>
</svg>
