<svg class="cycle-js" version="1.1" id="Layer_1" xmlns="http://www.w3.org/2000/svg" xmlns:xlink="http://www.w3.org/1999/xlink" x="0px" y="0px"
	 viewBox="0 0 612 792" style="enable-background:new 0 0 612 792;" xml:space="preserve">
<style type="text/css">
	.st0{fill:#FFFFFF;}
</style>
<g>
	<g>
		<path class="st0" d="M575,530c0,35.7,0,71.3,0,107c-178.3,0-356.7,0-535,0c0-160.3,0-320.7,0-481c150.3,0,300.7,0,451,0
			c-0.4,0.3-0.8,0.9-1.3,1c-1.5,0.2-3-0.2-4.4,0.3c-4.2,1.5-8.4,2.9-12.3,5.2c-4.5,2.6-8.3,6.1-11.9,9.9c0.2,2-2.8,2.4-2.1,4.6
			c-1.2,0.4-1.6,1.2-2.1,2.3c-0.8,2-2.1,3.8-3.1,5.6c-4.4-2.1-9.1-2.2-13.5-2.8c-2.7-0.4-5.3-1-8-1.5c-4.3-0.8-6.9-1-11.3,0.3
			c-3,0.9-5.7,2.1-8.5,3.6c-2.6,1.5-4.8,3.5-7.4,4.9c-1.8,1-2.9,3.3-4.7,4.4c-2.8,1.7-5.1,3.7-6.7,6.7c-0.4,0.7-1.5,1.2-2.4,1.4
			c-5.2,1.1-10.4,2.1-15.3,4.1c-4.6,1.8-9.6,3.5-11.2,9.3c0.9,1.2,1.5,2.9,2.7,3.7c3.2,1.9,6.2,4,10.3,4c25.3-0.1,50.6-0.1,75.9-0.1
			c1.8,0,3.6-0.3,5.1,1c0,0.5-0.2,1.1,0,1.5c3.3,5.1,7.9,8.9,12.7,12.5c1.7,1.3,3.8,2.1,5.7,2.9c1.8,0.8,3.7,1.5,5.6,2.1
			c2.1,0.6,4.4,0.8,6.5,1.2c2.2,0.5,4.4,0.9,6.6,0.8c2-0.1,4-0.9,6.1-0.9c5-0.1,9.4-2.2,13.7-4.1c1.9-0.8,4.1-1.7,5.1-3.9
			c1.1,0.2,1.8-0.2,2.6-1c3.7-4,7.4-7.9,11.4-12.1c8.3,0,17.1,0,26.2,0c-0.2-1.1-0.2-2.1-0.7-2.8c-2-3.3-5.6-3.5-8.8-3.9
			c-2.4-0.4-4.9-0.1-7.6-0.1c0-2.3,0-4.4,0-6.4c-1.5-1.5-2.8-2.8-4-4c-0.5-4.4,0.2-8.7-0.9-13.1c-0.9-3.3-1.8-6.6-3-9.8
			c-2.7-7.2-8.7-13.9-17.8-20c-5.2-3.4-10.6-5.2-16.6-5.8c-0.3,0-0.5-0.6-0.8-1c24.7,0,49.3,0,74,0c0,124.3,0,248.7,0,373
			c-1-0.3-2-0.8-3.1-1c-3.6-0.5-7.3-0.9-10.9-1.3c0.4-2.9,2.3-4.5,4.6-6.8c-4.9,0.4-6.5,4.4-9.2,6c-3.1-0.5-5.7-0.9-8.3-1.3
			c-0.1-4.8-2-8.9-4.2-12.9c-0.5-0.9-2.1-2.4-4.2-1.3c2.4,4.2,3.5,8.7,4.4,13.7c-13-1.8-25.5-3.5-38.1-5.2c0.1-6-1.2-11.4-2-17
			c-0.5-3.5-2-6.5-3.4-9.6c-0.6-1.4-2.1-2.1-3.7-0.8c0.7,0.4,1.8,0.6,1.9,1.1c0.7,2.4,2.2,4.5,2.1,7.1c-0.1,1.9,0.3,3.9-1,5.6
			c0.5,4.4-1.4,8.4-2.3,12.6c-0.8,0-1.6,0-2.7,0c0-2.7-0.1-5.3,0-8c0.2-2.6,0.6-5.2,1.1-8.7c-3.9,5.2-5.5,10.3-6.5,16
			c-9.2-1.9-18.5-1.7-27.6-3.6c0-4.7,0-9.2,0-13.7c0-2.9-1.2-5.5-2.1-8.2c-0.1-0.4-1-0.6-1.5-0.9c0.9,6,1.2,11.5-1.1,18
			c-0.6-5.3-1.2-9.6-1.7-13.9c-2.7,1.4-1.5,4.3-2.4,6.4c-0.9,2.2-0.1,5-0.4,8c-2.5-3-5.2-3.9-8.2-3.3c-0.7,0.1-1.2,1.5-2.3,2.9
			c4.6-1.6,4.8-1.5,6.6,3.6c-1.5,1.2-2.6-0.4-3.9-0.5c-2.5-0.2-5,0.1-7.5-0.1c-2.4-0.2-4.7-0.8-7.1-0.9c-2.7-0.2-5.3,0.1-8-0.1
			c-2.5-0.2-4.9-0.9-7.3-1.3c-0.5-1.6-0.1-3.2-0.6-4.8c-0.9-2.9-1.1-6,0.2-9c2.6-5.9,5.9-11.5,7.9-17.7c1.5-4.6,2.7-9.3,3.3-14.1
			c0.7-4.9-1.5-9.3-2.5-14c-0.8-3.7-1-7.3,0.8-10.8c2.5-5.1,6.2-9.3,10.3-13.3c3.3-3.2,7.2-3.7,10,0.1c2.5,3.3,4.9,6.6,7.5,9.9
			c1.4,1.8,3.2,3.3,4.5,5.2c3.8,5.4,9.6,8.7,13.8,13.6c1.3,1.5,3.4,2.2,5.1,3.3c4.6,2.7,9.4,4,14.8,4.1c4.6,0.1,9.2-0.4,13.4-1.6
			c5.5-1.5,11-2.8,16.3-5.4c3.1-1.5,6.4-3,9.8-4.2c3.4-1.2,6.2-3.5,9.3-5.3c2.5-1.5,4.2-3.2,5-5.9c-0.7-1.6-1.8-3-3.4-3.5
			c-2.1-0.6-4.1-1.6-6.5-1.3c-2.7,0.4-5.6-0.6-8.2,0.6c-2.5,1.2-5.6-0.6-7.9,1.4c-4.7-0.1-9.3,1.3-14.1,1.1
			c-8.2-0.3-14-3.6-19.1-10.6c-2.5-3.4-4.4-7.2-6.8-10.7c-2.4-3.5-4.7-7.1-7.3-10.5c-3-3.8-6.3-7.3-9.6-11c5.2-1.3,10.4-2.6,16-4
			c0,2.3,0,4.5,0,6.8c0.2,0,0.5,0,0.7,0c0.1-2.7,0.2-5.4,0.4-8.7c1.5,3.3,4,5.4,4.3,8.5c0,0,0.8,0,1.7,0c0-2,0-4,0-5.9
			c0.2,0,0.5,0,0.7,0c0.1,3.3,0.2,6.7,0.3,10c2.8-1.2,1.7-4.9,4.8-6.3c0,1.3,0,2.1,0,2.9c0.1,0.8,0.2,1.5,0.4,2.3
			c1.1-4-0.2-7.6-1.5-11.6c0.9-0.4,1.8-1,2.8-1.2c1.1-0.2,2.5,0.3,3.5-0.1c4.9-2.1,10.2-1.8,15.3-2.7c4.2-0.7,8.6-2,13-1.2
			c0.6,0.1,1.5,0.3,2-0.1c2.7-2,5.6-0.5,8.3-0.9c0.2,1.2,0.4,2.1,0.5,2.9c0.2,0,0.5,0,0.7,0c0-2,0-3.9,0-5.9c2.1,1,1.5,3.4,2.6,5.2
			c0.3-1.3,0.5-2.2,0.8-3.6c0.5,1.1,0.7,1.7,1.1,2.6c0.4-1,0.6-1.6,0.8-2.1c3.3-0.4,6.5,0.2,9.7-1c-3.6,0-7.1,0-11,0
			c0-1.5,0-2.8,0-4.7c-0.8,1.4-1.2,2.1-1.6,2.8c-1-0.5-1.6-0.9-2.3-1.2c-0.8-2.9-1.4-3.4-4.1-3.7c0.6,2.6,3.2,4.6,1.8,7.5
			c-15.6,0.8-31,3.3-46.4,6c0.5-2.2,1.1-4.5,1.6-6.8c-1.5,0.3-2.4,0.9-2.9,1.8c-0.6,1.1-0.7,2.4-1.1,3.6c-0.7,2.4-0.9,2.4-3.3,2.6
			c-1.7,0.1-2.8-0.4-3.8-1.7c-0.1-0.1-0.4-0.1-1-0.1c0.4,1,0.7,1.8,1,2.5c-4.6,1.4-9.4,2.2-13.9,3.9c-1.8,0.7-3.5,0.3-5.5-0.5
			c-5.8-2.3-11.7-4.8-18.3-4.2c-1.2,0.1-2.3,0.1-3.5,0c-4.6-0.5-8.8,1.2-12.7,3.1c-5.8,2.7-10.3,7-13.9,12.3c-1.7,2.6-3.6,5.1-6,8.4
			c0-2.4,0.1-4.1,0-5.7c-0.2-1.5-0.9-3.1-0.9-4.6c-0.1-3.2-0.9-6.4-1.3-9.6c-0.5-4.4-1.8-8.7-1.8-13.2c0-0.6-0.4-1.2-0.5-1.8
			c-0.1-0.9-0.6-2.2-0.2-2.6c1.1-1.2,0.7-2.5,0.7-3.8c0-5.9,2.2-10.8,6.6-14.7c4.9,2.2,10,4,15.1,4.8c4.7,0.8,9.6,2,14.5,1.2
			c3.1-0.5,5.8,0.5,8.1,2.1c5,3.5,10.2,6.5,15.9,8.7c5.9,2.3,11.9,3.9,18.2,4.2c3,0.1,6-0.1,9,0.1c4.9,0.3,9.6-0.9,14.1-2.3
			c9.5-3,18.5-7.4,26.2-13.9c2-1.7,4.3-3.3,6.5-4.8c2.2-1.4,4.6-2.6,6.8-4c5.7-3.9,11.6-7.5,16.2-12.8c1.5-1.7,2.9-3.5,4.2-5.2
			c4.5-5.9,7.7-12.2,7.5-19.9c-0.1-1.8,0-3.7,0-5.5c0-0.8-0.1-1.6-0.3-2.4c-1.2-3.7-2.6-7.2-4.6-10.6c-3.1-5.3-7.7-8.8-13.2-11.2
			c-5.1-2.3-10.6-3-16.1-3.2c-5.5-0.2-11-0.5-16.6,0.7c-4,0.9-8.3,0.2-12.5,0.1c-0.6,0-1.2-0.4-1.8-0.6c-6.3-2.1-12.2-5.3-18.5-7.2
			c-10.2-3.1-20.1-7.5-30.7-9.2c-3.5-2-7.5-2.2-11.3-2.8c-4.1-0.7-8.3-1.9-12.6-1.2c-0.8,0.1-1.8,0.2-2.4-0.1
			c-2.3-1.3-4.4-1-6.8-0.1c-1.7,0.6-3.6,0.5-5.4-0.9c-3.5-2.6-7.4-4.6-11.1-6.8c-6.1-3.6-12.9-5.8-19.4-8.8
			c-3.1-1.4-6.4-2.5-9.7-3.2c-4.9-0.9-9.5-3.3-14.7-3.3c-3.7-2.1-7.9-1.6-11.9-2.7c-2.1-0.5-4.3-0.9-6.5-1.1c-2.4-0.3-4.9,0.4-7.1-1
			c-5.4,0.3-10.7-0.9-16.1-0.9c-9,0-18.1-0.9-27.1,0.7c-3,0.5-6.5,1-9.6-0.9c-3.7,0.9-6.8-1.1-10.2-2c-3-0.8-5.1-2.5-6.1-5.6
			c-0.4-1.1-1.2-2.1-2-3.4c7.6,0,14.9,0,22.2,0c7.3,0,14.6,0,22.4,0c-0.7-1.2-1-2-1.5-2.4c-1.3-1.1-2.7-2.2-4.2-3.2
			c-0.5-0.3-1.2-0.3-1.8-0.4c-0.6-0.7-1.1-1.5-1.9-2c-4.3-2.3-8.8-3.4-13.6-3c-1.2-1.2-2.2-2.2-3.3-3.3c-2.6-2.7-6.1-4.2-9.5-4.6
			c-5.2-0.6-10.6-0.6-15.8,1.4c-2.7,1-4.1,0.8-5.4-1.6c-2.1-3.9-5.9-5.6-9.1-8.1c-2.1-1.7-4.3-2.4-6.8-2.8c-0.5-0.1-0.9-0.1-1.4-0.3
			c-3.7-1.1-7.2,0-10.2,3.3c-2.2-0.2-3.2,1.3-4,3c-0.6,1.4-1.5,1.7-2.9,2.1c-2.8,0.7-5.7,1.6-8.2,3c-2.3,1.3-4.2,0.8-6.2-0.1
			c-2.3-1-4.4-2.6-6.8-2.9c-5.9-0.6-11.7,0.2-17.3,2.6c-3.6,1.5-6.9,3.5-10.3,5.2c-1.3,0.6-2.4,0.9-4.2,0.2
			c-5.6-2.3-11.6-2.7-17.6-2c-1.8,0.2-4.6,0.1-5.5,2.9c-0.7,0.2-1.7,0.2-2.2,0.7c-1.6,1.9-3,4-4.6,6.2c-2.7,0.2-5.7,0.1-8.8,0.8
			c-3,0.7-5.6,2.1-8,3.6c-1.8,1.1-3.4,1.5-5.4,1.6c-8,0.4-16-0.5-24.1,0.8c-6.3,1-12.3,2.6-17.4,6.3c-5,3.6-8,8.9-7.4,15.3
			c0.3,3.5,1.6,7,2.3,10.5c0.8,4,1.8,7.9,2.5,11.9c0.7,4,1.6,8.2,1.8,12.2c0.3,5.2,1.2,10.4,1.3,15.6c0.1,6.6,1.9,12.6,7.1,17
			c4.7,4.1,6.8,9.8,9.8,15c0.5,0.8,0.3,2,0.8,2.6c2.5,2.9,5.3,5.7,9.3,6.4c3,0.5,5.9,1,8.9,1.4c2,0.3,3.8-0.8,5.6-0.9
			c3.4-0.1,6.8-0.4,10.1-1.1c3.7-0.8,7.5-1.1,11-2.4c6.2-2.2,12.7-3.8,18.8-6.6c4-1.8,5.6-1.1,9.9,1.7c2.8,1.9,5.9,3.5,8.9,5.1
			c4.6,2.5,9.6,4.2,14.4,6.3c7,3.1,14.4,4.8,21.7,6.7c2.9,0.7,5.7,1.4,8.6,2.1c0,1.9-0.6,3.9,0.1,5.1c1,1.8,0.6,3.4,0.9,5.2
			c0.3,1.9,0.9,3.7,0.9,5.6c0.1,5,0.1,10,0,15c0,1.1-0.3,2.2-0.6,3.2c-1.2,4.8-4.4,8.5-6.5,12.8c-0.2,0.4-0.9,0.6-1.3,0.9
			c-4.6,3.4-9.2,6.8-13.4,9.9c0,2.4,0,4.2,0,6.4c2.8,0.6,4.7,3,7.9,2.8c0.7-0.1,1.4,1,2.1,1.5c-2.1,5-5.2,9.2-6.6,14.7
			c-2.3-0.8-4.8-1.3-7-2.3c-5.6-2.5-11.5-3.6-17.4-5c-3.5-0.8-7-1-10.6-0.9c-2.1-2-4.7-0.6-7.1-1c-1.1,1.6-2.7,1-4.1,0.9
			c-2.2-0.2-4.1,0.5-6.1,1.1c-5.7,1.7-10.8,4.4-14.8,9c-3.4,3.9-5.9,8.2-5.5,13.7c0.1,1.8,0,3.7,0,5.5c0,4,0.7,7.8,2.9,11.3
			c1.5,2.3,2.6,4.8,4,7.6c-8.5,2.7-17.2,4.1-25.6,6.9c-0.2-1-0.5-2-0.7-2.9c-0.1,0-0.3,0.1-0.4,0.1c0,2.9,0,5.8,0,8.7
			c0.2,0,0.4,0,0.5,0c0.2-1.3,0.3-2.6,0.5-3.8c7.2-2.6,24.8-7.1,28-7.1c2.9,2.4,5.5,5,8.4,6.9c4.3,2.9,7.6,6.8,11.1,10.5
			c2,2.2,2.8,5.4,4.4,8.1c1.9,3.3,1,6.1-1,8.8c-1.3,1.7-3.2,2.6-5,3.6c-3.5,1.9-7.5,1.9-11.3,2.9c-4.1,1.1-8.5,1.7-10.8,5.9
			c-0.4,3.4,2.5,4.8,4.6,5.9c1.5,0.8,3.3,1.7,5.1,2.1c3,0.8,6.2,1,9.2,2.1c0.9,0.3,2,0,3,0.1c1.6,0.2,3.3-0.7,4.6,0.9
			c2.9-0.2,5.8,0.6,8.7-0.5c1.2-0.5,2.6-0.2,3.8-0.5c1.3-0.3,2.4-1.8,4-0.5c0,0.9,0.3,2.1-0.1,2.8c-1.9,3.9-1.8,8.2-2.8,12.3
			c-0.8,3.7-1.5,7.4-3.3,10.7c-1.6,2.9-2.2,6.1-3.6,9c-0.5,0.9-0.2,2.2-0.1,3.3c0.1,0.7,0.7,1.4,0.8,2.2c0.5,5.8,3.3,10.4,7,14.6
			c3.5,4,7.9,7,12.3,10.2c-0.5,0.9-1.1,1.5-1.2,2.2c-0.2,1.7,0.3,3.6-1,5.1c-0.1,0.1,0.4,0.9,0.7,1c0.4,0.1,1.1-0.2,1.2-0.5
			c0.5-1,1.1-2.1,1-3.1c-0.4-5.9,1.1-11.8-0.9-17.6c-0.3-0.8,0-1.9,0-3.6c3.1,5.3,4.2,10.1,4,15.3c-0.2,5.4,0,10.9,0,16.7
			c0.6-0.5,0.9-0.6,1-0.8c1-2.7,1.8-5.6,3.1-8.2c1.4-2.8,2.1-5.9,2.7-8.8c0.9-4.3,2.8-8.6,2.1-13.1c-0.4-2.5,2.6-2.9,2.4-5.1
			c0,0,0.7-0.3,0.9-0.1c0.3,0.2,0.6,0.6,0.7,1c0.1,0.5,0.2,1.2,0,1.4c-1.6,1.3-0.3,3.3-1,4.6c-1,1.7-0.9,3.4-0.9,5.1
			c0,6.3,0.1,12.7-0.1,19c-0.1,2.3,1,4.3,1.3,6.5c0,0.2,0.8,0.2,1.7,0.5c-1.6-3.1-0.7-6.1-1-9c3.1,0.2,8.2,1.9,11,3.7
			c-0.7,2.1-1.2,4.2-2,6.2c-1.2,3-1.3,4-0.1,4c2.4,0,0.2-2.8,2-3.3c0.2-3,2.3-5.5,2.2-8.6c-0.1-3.1,1.7-5.9,1-9.1
			c-0.4-1.9-0.5-3.9-0.7-5.9c2.7,4,5.1,8.1,6.7,12.6c1.6,4.3,2.3,8.6,2,13.2c-0.1,1.6,0.9,1.4,1.9,0.7c0.4-3.8-0.4-7.7,0.8-11.5
			c0,3.3,0.7,6.3,2.7,8.9c1.8-2.7,3.5-5.3,5.2-8c0.5,2.1,1,3.9,1.4,5.7c0.3,1.5-0.1,3,0.7,4.7c0.6,1.2-0.5,3.3-0.7,5
			c-0.1,0.4,0.1,0.9,0.2,1.6c3.9-2.8,4.3-7.2,6.2-10.9c2-3.9,3.2-7.9,4-12.6c2.2,4.8,2.7,9.5,3.5,14.1c0.7,4-0.9,7.6-3.1,11.5
			c3.1-0.4,3.5-2.7,4.1-4.4c0.7-2.2,0.8-4.6,1.2-6.9c7.6,1,14.8,1.7,22,2.3c7.2,0.6,14.4,0.5,21.6,0.9c7.4,0.4,14.6-1.7,22.3-1
			c0,3.4,0,6.6,0,10.9c1.5-3.9,2-6.8,2-9.9c0-3.4,0-6.9,1.1-10c0.7-2,0.2-4.2,1.7-7c0.8,10.1,3.7,18.5,6.9,27.6
			c2.4-2.9,2.8-6,3.1-8.7c0.3-2.5,1.1-4.7,1.7-8.2c0.5,3.6,1.7,5.7,1.6,8.2c-0.1,2.1,1.1,4.3,0.9,6.6c-0.1,2.4-0.3,4.9,0.5,7.4
			c0.7-0.9,1.4-2,1.4-3c-0.2-4.5-0.6-9.1-0.9-13.6c0-0.5-1.3-0.6-0.6-1.5c1.6,0,3.3,0,4.9,0c1.6,0,3.1,0.1,4.9,0.2
			c-1.3,3.3-2.5,6.2,0.7,9.3c-0.2-7.7,1.2-14.5,6-21.5c-0.3,8.6,3.1,15.1,5.4,22.2c1.2-1.6,2.7-5.3,2.6-6.8
			c-0.4-5.7,0.6-11.4-0.9-17.1c-1-3.7-0.2-7.9-1.3-11.5c-1.3-4.5-1.1-9.2-2.6-13.7c4.3,3.7,5.6,8.9,6.7,14c0.6,2.6,0.8,5.4,1.4,8
			c0.5,2.6,0,5.3,0.9,7.6c1,2.6,1,5.1,0.8,7.6c-0.2,2.7,0.9,5,1.6,8.2c0.6-2.4,1.4-4,1.4-5.7c0-5.7,2.4-10.6,4.4-15.7
			c2.1-5.3,5.7-9.7,9.5-14.8c-0.3,3.4,0.1,6.5-1,8.9c-1.4,3-0.5,5.8-0.8,8.7c-0.3,2.9-0.1,5.9-0.1,9.3c0.8-0.6,1.2-0.9,1.4-1.2
			c0.6-1.4,1.5-1.8,3-2.2c3.8-1.2,7.7-1.9,11.4-3.7c0.9,4-2,7-2.9,10.5c1.8,1.1,2.6-0.3,3-1.1c0.6-1.2,0.8-2.7,1.1-4
			c0.7-4.1,2.4-8.1,2.4-12.4c1.2,4,3.3,7.6,2.6,11.8c1.8,0.6,2-0.2,2-1.4c0.3-9-0.8-18.1,0.9-27.1c0.4-1.9,0.7-3.6,1.7-5.2
			c0.1,0.1,0.3,0.2,0.3,0.4c0,4.3,0.4,8.7,0,13c-0.4,4.3,1.2,8.3,1.1,12.6c-0.1,2.9,0.4,3.6,2.8,5.7c-0.3-3.1-0.7-6.2-1-9
			c2.5-2.5,4.8-4.5,6.7-6.8c1.9-2.4,3.6-5.1,4.9-7.9c2.5-5.4,4.1-11.2,4.5-17.1c0.5-7.1,0.1-14.2-2-21.2c-1.2-4-2-8.3-4.6-11.6
			c-3.6-4.6-4-10.1-5.4-15.3c-0.6-2.1-0.5-4.3-0.8-6.8c0.5,0,1.2,0.1,1.8,0c3.3-0.7,6.3,1,9.6,1.1c6.5,0.2,13.1,0.4,19.6,1.1
			c1.8,0.2,4.5,0.1,5.3,2.8c0,0.1,0.9,0,1.4-0.1c-1.4-2.9-2.6-5.8-4.1-8.8c2.2,1.3,3.9,2.3,6.3,3.7c-0.5-3-0.9-5.2-1.2-7.4
			c0.3-0.1,0.5-0.1,0.8-0.2c0.9,2.7,1.7,5.3,3,9.1c1.1-4.7,2-8.3,2.9-12c0.4,2.8,0.6,5.7,0.4,8.4c-0.2,2.5-1,4.9-1.5,7.2
			c2-0.3,3.9-0.7,5.7-0.7c1.5,0,3,0.8,4.6,0.9c3.4,0.2,6.7,0,10.1,0.9c2.9,0.8,6,0.7,9.3,1c0,5,0,9.6,0,15.2
			c1.9-4.6-0.4-8.6,1.9-11.9c-0.2-3.8,0.2-7.5,1.8-11.1c0,2.7,0.5,5.4,1.2,8c0.7,2.6,0.9,5.3,1.3,7.9c0.6,0,1.2,0.1,1.2,0
			c3.2-8.4,4.7-17.2,6-26.8c0.9,5,2,9,1.6,13.2c2.4,3.9,0,8.4,1.3,12.5c2-0.4,2-0.4,0.6-4.8c3.8,0.3,7.5,0.3,11,1.1
			c3.7,0.9,7.5,1.3,11.2,1.7c3.6,0.4,7.2,1.4,11,1.4c-4,6.6-5.1,13.4-3.3,19.7c-0.1-4.3,0.2-8.6,1.6-13.1c0.5,0.3,1.3,0.5,1.5,0.9
			c0.8,2.2,1.7,4.4,2,6.7c0.4,2.6,2,4,4.1,6.2c0.4-3.6,0.8-6.5,0.9-9.3c0.1-3-0.2-6,0.1-9c0.2-2.8-2.3-5.4-0.3-8.6
			c1.3,7.4,2.5,14.4,3.8,21.5c2.7-0.8,0.9-3.6,2.4-5.1c1.5-1.5,2-3.9,3.2-5.6c1.2-1.7,2.9-3,4.8-4.9c0.7,3-2.6,5.7,0.1,8.1
			c0.1,2.7-0.7,5.7,3,7.8c-0.8-2.4-1.6-4.2-1.9-6.1c-0.3-2.1-0.1-4.2-0.1-6C565.9,528.9,570.3,530.4,575,530z M81,487
			c1.4,0.9,1.9,2.2,2.1,3.9c0.1,0.7,0.9,1.4,2,3c0-2.6,0-4.2,0-5.7c4.5-1.7,8.6-3.3,12.7-4.9c0.2,0.5,0.4,1.1,1.1,2.6
			c0.2-2.4,0.3-3.6,0.4-5.4c1.3,1.9,2.3,3.2,3.8,5.3c0-2.4,0-3.8,0-5.3c0-0.1,0.4-0.2,0.8-0.4c0.2,1,0.3,1.9,0.4,2.8
			c0.1-2.4,2.6-4.4,1.4-7.2c-0.4,0.9-0.8,1.6-1.1,2.3c-0.9-2-1.7-3.8-4.4-4.1c0.7,1.9,2.1,3.8-1,4.4c-0.5,2.8-2.8,3.9-5,4.5
			c-2.8,0.8-5.6,1.8-8.2,3.1c-0.2,0.1-0.5-0.3-0.8-0.4c0.3-0.4,0.6-0.7,1.5-1.7c-1.3,0.4-2,0.4-2.5,0.8c-0.5,0.4-0.7,1-1.2,1.8
			c-0.7-1.2-1.1-2-1.7-2.7c-0.6-0.8-1.3-1.5-2.1-2.1c-0.5-0.3-1.3-0.3-2.5-0.6c1.3,2.5,2,4.5,3.5,6c-0.4,1.2-1.2,1.6-2.3,2.1
			c-4.9,2.3-9.7,4.7-14.5,7.3c-4.5,2.4-9,5-13.3,7.7c-2.8,1.7-5.5,3.8-8.1,5.8c-0.5,0.4-0.6,1.2-0.9,1.8c12.2-8.9,25.6-15,38.9-21.5
			c0.2,1.5,0.3,2.6,0.5,3.8c0.2,0,0.5,0,0.7,0C81,491.6,81,489.3,81,487z M127,356c-1.1-0.2-2,0.1-2.5,1.1c-1.8,3.6-5,6.5-4.6,10.9
			c-0.5,0-0.7,0.1-0.9,0c-0.4-0.2-0.9-0.4-1.2-0.7c-5.3-4.7-11.1-7.8-18.5-7.4c-2.1,0.1-4.1,0.3-6,1.2c-1.3,0.6-5.5,4.3-6.4,5.2
			c-2.3,2.1-3.7,4.7-4.9,7.5c-0.7,1.6-1.5,2.4-3.2,2.2c-1.5-0.2-2.5,0.6-2.9,2c-0.3,0-0.8-0.1-1,0c-1.8,1.3-3.8,6.5-3,8.4
			c0.3,0.7,1.1,1.4,1.8,1.5c1.1,0.3,2.3,0.1,3.5,0.1c14.1,0,28.3,0,42.4,0c25.9,0,51.9,0,77.6,0c3.5-2.5,4.1-5.9,3.5-9.6
			c-1.8-1.9-3.7-3.6-6.6-3.4c-1.3,0.1-1.7-1.1-2.4-2c-2.5-3.1-4.7-6.7-9.3-7c-2.2-2.2-5.1-0.2-7.4-1.2c-1.5-5.8-6.1-7.2-11.1-7.7
			c-2.9-0.3-5.6,0.9-8.3,1.7c-1.7,0.5-3.4,0.8-5.1-0.4c-5.6-4.1-11.8-6.1-18.8-5.2C129.9,353.3,127.9,353.7,127,356z M433.6,632.2
			c-5.5-7-5.8-10.9-7.1-20.7c-2.2,5.6-5.3,10.3-5.6,16c-2.1,2.9-1,5.7,0.5,8.7c0.5-0.7,1.4-1.6,1.2-1.8c-2.2-3.6,0.3-6.8,0.7-10.1
			c0.2-1.7,1.3-3.4,2.3-5.8c0.4,4.2,1.1,7.5,3.3,10.1c2.1,2.5,2.8,6.4,7,7.8c0-4,0.5-7.7-0.1-11.2c-0.6-3.6-0.7-7.2-1.9-10.7
			c-1.1-3.1-2.4-6.1-3.8-9.6c0.8,0.3,1.5,0.4,1.8,0.7c5.3,6.9,6.8,15,7.2,24.2c0.9-1,1.7-1.4,1.7-1.9c0.2-1.6,0-3.1,1-4.6
			c0.8-1.2-0.6-3.3,1-4.6c1-6.1,4.5-11.1,7.1-16.5c0.5-1,1.3-1.8,2-2.7c0.5-0.8,1-1.6,1.5-2.4c-4.1,11.8-5.2,23.7-4.1,36.7
			c0.9-1,1.6-1.5,1.6-2c0.1-4.5-0.1-9,0.1-13.5c0.1-3,0.4-6.1,1.2-9c1.4-4.4,2.7-8.8,4.5-13.1c2.3-5.2,5.2-10,8.8-14.3
			c0.6-0.7,1.1-1.5,2-2.8c-1.2,0.1-2.1-0.1-2.3,0.2c-11.1,11.8-20.6,24.6-24.9,40.8c-0.5-1.6-0.9-3.3-1.4-4.8
			c-1.4-4.4-3.2-8.5-6.8-11.7c-2.5-2.1-5.2-1.9-8.1-2.4c2.2,2.7,4.8,4.8,5.8,7.5C432.2,614.5,435.2,623.8,433.6,632.2z M118.9,494.1
			c0.5,1.9,1.1,3.9,1.6,5.8c0.5-3.6,0.7-7,0.4-10.4c-0.2-2.6,0.7-5,1.5-7.4c0.2-0.6,0.3-1.3,0.6-2.5c-2.4,2-2.7,4.2-3,6.4
			c-0.3,2.3,0.3,4.7-0.3,7.1c-0.9-1.2-1.5-2.1-2.2-3c-0.3,0-0.7,0.1-1,0.1c2,4.9-1.2,9.2-1.2,13.8
			C116.8,500.8,118.6,497.8,118.9,494.1z"/>
		<path d="M535,380c0,2,0,3.9,0,5.9c-0.2,0-0.5,0-0.7,0c-0.1-0.8-0.3-1.6-0.5-2.9c-2.7,0.4-5.6-1.1-8.3,0.9c-0.4,0.3-1.3,0.2-2,0.1
			c-4.5-0.7-8.8,0.5-13,1.2c-5.1,0.9-10.4,0.6-15.3,2.7c-1,0.4-2.3-0.1-3.5,0.1c-1,0.2-1.9,0.8-2.8,1.2c1.3,4,2.6,7.6,1.5,11.6
			c-0.1-0.8-0.3-1.5-0.4-2.3c-0.1-0.8,0-1.6,0-2.9c-3.2,1.4-2,5.1-4.8,6.3c-0.1-3.3-0.2-6.6-0.3-10c-0.2,0-0.5,0-0.7,0
			c0,1.9,0,3.8,0,5.9c-0.8,0-1.6,0-1.7,0c-0.3-3.2-2.7-5.2-4.3-8.5c-0.1,3.3-0.3,6-0.4,8.7c-0.2,0-0.5,0-0.7,0c0-2.3,0-4.5,0-6.8
			c-5.5,1.4-10.8,2.7-16,4c3.3,3.7,6.6,7.2,9.6,11c2.6,3.3,4.9,7,7.3,10.5c2.4,3.5,4.3,7.3,6.8,10.7c5.2,7,10.9,10.3,19.1,10.6
			c4.8,0.2,9.4-1.2,14.1-1.1c2.4-2,5.4-0.2,7.9-1.4c2.7-1.2,5.5-0.2,8.2-0.6c2.3-0.3,4.4,0.7,6.5,1.3c1.5,0.5,2.6,1.9,3.4,3.5
			c-0.8,2.7-2.5,4.4-5,5.9c-3.1,1.9-5.9,4.2-9.3,5.3c-3.4,1.2-6.6,2.7-9.8,4.2c-5.2,2.5-10.8,3.9-16.3,5.4
			c-4.2,1.2-8.8,1.6-13.4,1.6c-5.4-0.1-10.3-1.4-14.8-4.1c-1.7-1-3.8-1.8-5.1-3.3c-4.2-4.9-10.1-8.2-13.8-13.6
			c-1.3-1.9-3.1-3.4-4.5-5.2c-2.6-3.2-5-6.6-7.5-9.9c-2.9-3.8-6.8-3.3-10-0.1c-4,4-7.7,8.1-10.3,13.3c-1.7,3.5-1.5,7.1-0.8,10.8
			c1,4.6,3.2,9.1,2.5,14c-0.7,4.8-1.8,9.5-3.3,14.1c-2.1,6.2-5.3,11.8-7.9,17.7c-1.3,3-1.1,6.2-0.2,9c0.5,1.7,0.1,3.2,0.6,4.8
			c2.4,0.4,4.8,1.1,7.3,1.3c2.6,0.2,5.3-0.1,8,0.1c2.4,0.2,4.7,0.8,7.1,0.9c2.5,0.2,5-0.1,7.5,0.1c1.3,0.1,2.4,1.7,3.9,0.5
			c-1.8-5.1-2-5.2-6.6-3.6c1.1-1.4,1.6-2.8,2.3-2.9c3-0.6,5.7,0.4,8.2,3.3c0.3-3-0.6-5.9,0.4-8c0.9-2.1-0.2-5,2.4-6.4
			c0.5,4.3,1,8.6,1.7,13.9c2.4-6.5,2-12,1.1-18c0.5,0.3,1.4,0.5,1.5,0.9c0.8,2.7,2.1,5.2,2.1,8.2c0,4.5,0,9,0,13.7
			c9.1,1.9,18.4,1.6,27.6,3.6c1-5.7,2.6-10.8,6.5-16c-0.4,3.5-0.9,6.1-1.1,8.7c-0.2,2.6,0,5.3,0,8c1.1,0,1.9,0,2.7,0
			c0.9-4.2,2.8-8.2,2.3-12.6c1.3-1.7,0.9-3.7,1-5.6c0.1-2.6-1.4-4.8-2.1-7.1c-0.1-0.5-1.2-0.7-1.9-1.1c1.6-1.2,3.1-0.5,3.7,0.8
			c1.4,3.1,2.9,6.1,3.4,9.6c0.8,5.5,2,11,2,17c12.6,1.7,25.1,3.4,38.1,5.2c-0.9-5-2-9.5-4.4-13.7c2.1-1.1,3.7,0.4,4.2,1.3
			c2.2,4,4.1,8.1,4.2,12.9c2.6,0.4,5.2,0.8,8.3,1.3c2.7-1.6,4.3-5.6,9.2-6c-2.3,2.2-4.2,3.9-4.6,6.8c3.7,0.4,7.3,0.8,10.9,1.3
			c1.1,0.1,2.1,0.6,3.1,1c0,0.3,0,0.7,0,1c-4.7,0.4-9.1-1.1-14-1.6c0,1.8-0.2,3.9,0.1,6c0.3,1.9,1.1,3.6,1.9,6.1
			c-3.7-2.1-2.8-5.2-3-7.8c-2.7-2.4,0.5-5.1-0.1-8.1c-1.9,1.9-3.5,3.2-4.8,4.9c-1.3,1.7-1.8,4.1-3.2,5.6c-1.5,1.5,0.3,4.3-2.4,5.1
			c-1.2-7.1-2.5-14.1-3.8-21.5c-2,3.3,0.5,5.9,0.3,8.6c-0.3,3,0.1,6-0.1,9c-0.1,2.8-0.5,5.7-0.9,9.3c-2.2-2.2-3.8-3.6-4.1-6.2
			c-0.3-2.3-1.2-4.5-2-6.7c-0.1-0.4-0.9-0.6-1.5-0.9c-1.4,4.4-1.7,8.7-1.6,13.1c-1.8-6.3-0.6-13.1,3.3-19.7c-3.8,0-7.3-1-11-1.4
			c-3.7-0.4-7.5-0.8-11.2-1.7c-3.5-0.8-7.2-0.8-11-1.1c1.4,4.4,1.4,4.4-0.6,4.8c-1.3-4.1,1.1-8.5-1.3-12.5c0.4-4.2-0.7-8.3-1.6-13.2
			c-1.2,9.7-2.8,18.5-6,26.8c0,0.1-0.6,0-1.2,0c-0.4-2.6-0.6-5.3-1.3-7.9c-0.7-2.6-1.1-5.3-1.2-8c-1.6,3.6-2,7.3-1.8,11.1
			c-2.3,3.3,0,7.4-1.9,11.9c0-5.7,0-10.2,0-15.2c-3.3-0.3-6.4-0.2-9.3-1c-3.4-0.9-6.7-0.8-10.1-0.9c-1.5-0.1-3.1-0.9-4.6-0.9
			c-1.9,0-3.7,0.4-5.7,0.7c0.5-2.3,1.3-4.7,1.5-7.2c0.3-2.8,0.1-5.6-0.4-8.4c-0.9,3.6-1.8,7.3-2.9,12c-1.2-3.8-2.1-6.4-3-9.1
			c-0.3,0.1-0.5,0.1-0.8,0.2c0.4,2.2,0.7,4.4,1.2,7.4c-2.4-1.4-4.1-2.4-6.3-3.7c1.4,3.1,2.7,5.9,4.1,8.8c-0.5,0-1.4,0.2-1.4,0.1
			c-0.8-2.7-3.4-2.6-5.3-2.8c-6.5-0.6-13-0.9-19.6-1.1c-3.2-0.1-6.3-1.8-9.6-1.1c-0.6,0.1-1.2,0-1.8,0c0.3,2.5,0.2,4.7,0.8,6.8
			c1.4,5.2,1.8,10.7,5.4,15.3c2.6,3.3,3.4,7.6,4.6,11.6c2.1,6.9,2.4,14,2,21.2c-0.4,5.9-2,11.7-4.5,17.1c-1.3,2.8-3,5.5-4.9,7.9
			c-1.8,2.3-4.2,4.3-6.7,6.8c0.3,2.8,0.6,5.9,1,9c-2.4-2.1-2.9-2.9-2.8-5.7c0.1-4.2-1.5-8.3-1.1-12.6c0.4-4.3,0-8.6,0-13
			c0-0.1-0.2-0.2-0.3-0.4c-0.9,1.6-1.3,3.3-1.7,5.2c-1.7,9-0.5,18.1-0.9,27.1c0,1.2-0.2,2-2,1.4c0.7-4.1-1.4-7.8-2.6-11.8
			c0,4.3-1.7,8.2-2.4,12.4c-0.2,1.4-0.4,2.8-1.1,4c-0.4,0.8-1.1,2.2-3,1.1c0.8-3.4,3.8-6.4,2.9-10.5c-3.7,1.8-7.6,2.5-11.4,3.7
			c-1.5,0.5-2.4,0.8-3,2.2c-0.1,0.4-0.6,0.6-1.4,1.2c0-3.4-0.2-6.4,0.1-9.3c0.3-2.9-0.7-5.7,0.8-8.7c1.1-2.4,0.7-5.5,1-8.9
			c-3.8,5.1-7.4,9.5-9.5,14.8c-2,5-4.5,10-4.4,15.7c0,1.7-0.8,3.3-1.4,5.7c-0.7-3.2-1.8-5.5-1.6-8.2c0.2-2.5,0.2-5.1-0.8-7.6
			c-0.9-2.3-0.3-5-0.9-7.6c-0.5-2.6-0.8-5.4-1.4-8c-1.1-5.1-2.3-10.3-6.7-14c1.5,4.4,1.3,9.1,2.6,13.7c1.1,3.6,0.3,7.8,1.3,11.5
			c1.5,5.7,0.5,11.4,0.9,17.1c0.1,1.4-1.4,5.2-2.6,6.8c-2.3-7.1-5.7-13.6-5.4-22.2c-4.8,7-6.3,13.8-6,21.5c-3.2-3.1-2-6-0.7-9.3
			c-1.7-0.1-3.3-0.1-4.9-0.2c-1.7,0-3.3,0-4.9,0c-0.7,1,0.5,1,0.6,1.5c0.3,4.5,0.8,9.1,0.9,13.6c0,1-0.7,2-1.4,3
			c-0.8-2.5-0.6-4.9-0.5-7.4c0.1-2.3-1-4.4-0.9-6.6c0.1-2.5-1.1-4.6-1.6-8.2c-0.5,3.5-1.4,5.7-1.7,8.2c-0.3,2.7-0.6,5.8-3.1,8.7
			c-3.2-9.1-6.1-17.6-6.9-27.6c-1.4,2.8-1,5-1.7,7c-1.1,3.1-1.1,6.7-1.1,10c0,3.1-0.4,6-2,9.9c0-4.3,0-7.5,0-10.9
			c-7.7-0.7-14.9,1.4-22.3,1c-7.2-0.4-14.4-0.3-21.6-0.9c-7.2-0.6-14.5-1.3-22-2.3c-0.4,2.3-0.5,4.7-1.2,6.9c-0.6,1.7-1,4-4.1,4.4
			c2.2-3.9,3.8-7.5,3.1-11.5c-0.8-4.6-1.3-9.3-3.5-14.1c-0.8,4.7-2,8.8-4,12.6c-1.9,3.6-2.3,8.1-6.2,10.9c-0.1-0.7-0.3-1.2-0.2-1.6
			c0.3-1.7,1.3-3.8,0.7-5c-0.9-1.7-0.4-3.2-0.7-4.7c-0.4-1.8-0.9-3.6-1.4-5.7c-1.7,2.7-3.5,5.3-5.2,8c-2-2.6-2.7-5.6-2.7-8.9
			c-1.2,3.8-0.4,7.7-0.8,11.5c-0.9,0.6-2,0.8-1.9-0.7c0.2-4.5-0.5-8.9-2-13.2c-1.7-4.5-4-8.6-6.7-12.6c0.2,2,0.3,4,0.7,5.9
			c0.6,3.2-1.1,6-1,9.1c0.1,3.1-2,5.6-2.2,8.6c-1.7,0.5,0.4,3.3-2,3.3c-1.2,0-1.1-1,0.1-4c0.8-2,1.4-4.1,2-6.2
			c-2.8-1.7-8-3.5-11-3.7c0.3,3-0.6,5.9,1,9c-0.8-0.2-1.6-0.3-1.7-0.5c-0.3-2.2-1.4-4.1-1.3-6.5c0.2-6.3,0.1-12.7,0.1-19
			c0-1.8-0.1-3.4,0.9-5.1c0.7-1.3-0.6-3.3,1-4.6c0.2-0.2,0.2-1,0-1.4c-0.1-0.4-0.4-0.8-0.7-1c-0.2-0.1-0.9,0.1-0.9,0.1
			c0.1,2.1-2.8,2.6-2.4,5.1c0.7,4.5-1.2,8.8-2.1,13.1c-0.6,2.9-1.4,6-2.7,8.8c-1.3,2.6-2,5.5-3.1,8.2c-0.1,0.2-0.4,0.3-1,0.8
			c0-5.8-0.1-11.2,0-16.7c0.2-5.2-0.9-10-4-15.3c0,1.7-0.3,2.8,0,3.6c2,5.8,0.5,11.7,0.9,17.6c0.1,1-0.5,2.1-1,3.1
			c-0.1,0.3-0.9,0.5-1.2,0.5c-0.3-0.1-0.8-0.9-0.7-1c1.3-1.5,0.8-3.4,1-5.1c0.1-0.7,0.7-1.3,1.2-2.2c-4.4-3.2-8.8-6.2-12.3-10.2
			c-3.7-4.2-6.5-8.9-7-14.6c-0.1-0.7-0.7-1.4-0.8-2.2c-0.1-1.1-0.4-2.4,0.1-3.3c1.5-2.9,2-6.1,3.6-9c1.8-3.2,2.4-7,3.3-10.7
			c0.9-4.1,0.8-8.4,2.8-12.3c0.4-0.8,0.1-1.9,0.1-2.8c-1.6-1.3-2.7,0.2-4,0.5c-1.2,0.3-2.7,0-3.8,0.5c-2.9,1.1-5.8,0.3-8.7,0.5
			c-1.3-1.6-3.1-0.7-4.6-0.9c-1-0.1-2.1,0.3-3-0.1c-3-1.1-6.1-1.3-9.2-2.1c-1.7-0.4-3.6-1.3-5.1-2.1c-2.1-1.1-4.9-2.5-4.6-5.9
			c2.3-4.2,6.7-4.8,10.8-5.9c3.7-1,7.7-1,11.3-2.9c1.8-1,3.7-1.9,5-3.6c2-2.7,2.9-5.6,1-8.8c-1.5-2.7-2.4-5.9-4.4-8.1
			c-3.4-3.7-6.7-7.7-11.1-10.5c-3-1.9-5.5-4.5-8.4-6.9c-3.2,0-20.8,4.5-28,7.1c-0.2,1.2-0.3,2.5-0.5,3.8c-0.2,0-0.4,0-0.5,0
			c0-2.9,0-5.8,0-8.7c0.1,0,0.3-0.1,0.4-0.1c0.2,0.9,0.4,1.9,0.7,2.9c8.4-2.9,17.2-4.2,25.6-6.9c-1.5-2.8-2.6-5.3-4-7.6
			c-2.2-3.5-3-7.3-2.9-11.3c0-1.8,0.1-3.7,0-5.5c-0.3-5.5,2.1-9.8,5.5-13.7c4-4.6,9.1-7.3,14.8-9c2-0.6,3.9-1.2,6.1-1.1
			c1.4,0.1,3,0.7,4.1-0.9c2.3,0.4,5-1.1,7.1,1c3.6,0,7.1,0.1,10.6,0.9c5.9,1.4,11.8,2.5,17.4,5c2.2,1,4.6,1.5,7,2.3
			c1.4-5.4,4.5-9.6,6.6-14.7c-0.6-0.5-1.4-1.6-2.1-1.5c-3.2,0.3-5.1-2.2-7.9-2.8c0-2.2,0-4,0-6.4c4.2-3.1,8.8-6.5,13.4-9.9
			c0.4-0.3,1.1-0.5,1.3-0.9c2.1-4.3,5.3-8,6.5-12.8c0.3-1.1,0.5-2.2,0.6-3.2c0-5,0.1-10,0-15c-0.1-1.9-0.7-3.7-0.9-5.6
			c-0.2-1.7,0.2-3.4-0.9-5.2c-0.7-1.2-0.1-3.2-0.1-5.1c-2.9-0.7-5.8-1.4-8.6-2.1c-7.3-1.9-14.7-3.6-21.7-6.7
			c-4.8-2.1-9.8-3.8-14.4-6.3c-3-1.6-6-3.3-8.9-5.1c-4.3-2.8-5.9-3.5-9.9-1.7c-6.1,2.7-12.5,4.3-18.8,6.6c-3.5,1.3-7.3,1.6-11,2.4
			c-3.3,0.7-6.7,1-10.1,1.1c-1.8,0.1-3.6,1.2-5.6,0.9c-3-0.4-6-0.9-8.9-1.4c-4-0.7-6.8-3.4-9.3-6.4c-0.5-0.6-0.4-1.9-0.8-2.6
			c-3-5.1-5.1-10.9-9.8-15c-5.2-4.4-7-10.5-7.1-17c-0.1-5.2-1-10.4-1.3-15.6c-0.2-4-1-8.1-1.8-12.2c-0.7-4-1.7-7.9-2.5-11.9
			c-0.7-3.5-2-7-2.3-10.5c-0.6-6.3,2.4-11.7,7.4-15.3c5.1-3.7,11.1-5.3,17.4-6.3c8.1-1.3,16.1-0.4,24.1-0.8c2-0.1,3.5-0.5,5.4-1.6
			c2.4-1.5,5-2.9,8-3.6c3.1-0.7,6.1-0.6,8.8-0.8c1.6-2.2,3-4.3,4.6-6.2c0.4-0.5,1.4-0.5,2.2-0.7c-2.3,2.7-4.1,5.7-5.3,8.5
			c-1.4-0.2-2.5-0.6-3.5-0.5c-4.9,0.8-9.9,1.4-14.2,4.6c1.6,0.5,3.2,1.1,4.8,1.3c2.9,0.3,5.8-0.3,8.6,1c1.8,0.8,4-0.4,6.2,0.9
			c1.7,1,4.5-0.3,6.5,1.2c5.9-0.1,11.5,1.8,17.2,3.1c3.8,0.8,7.6,1.5,11.3,2.7c3.1,1,6.6,2.2,10,1.1c1.9-0.6,3.7-0.9,5.6-0.9
			c22,0,44,0,65.9,0c1,0,2.2-0.4,3,0.1c2.5,1.6,5.1,0.8,7.6,0.9c2.8,0.1,5.5,0,9.4,0c-2.2-0.9-3.3-1.8-4.5-1.8
			c-2.3,0-3.4-1.2-4.1-3.2c-1.8-4.5-4.9-8.2-8.4-11.5c-4.5-4.1-10-5.7-15.8-6.4c-1.6-0.2-3.4,0.8-5.1,0.9c-2.6,0-4.9,1.1-7.2,2.1
			c-5.7,2.6-11,5.7-15.7,9.9c-0.3-1.1-0.5-2.1-0.8-2.9c-1.2-3.4-2.3-6.7-3.5-10c0.7,0.6,1.6,1.1,2,1.9c1.3,2.6,2.3,5.3,3.5,8.1
			c2.1-1.4,4.1-2.8,6.2-4.1c5.1-3.3,10.7-5.8,16.6-6.7c6.2-0.9,12.2,0.6,17.7,4.2c3,1.9,5,4.6,7.5,6.6c13.9,0,27.7,0,41.6,0
			c-1.1-1.4-2-2.6-3-3.8c0.6,0.1,1.4,0.1,1.8,0.4c1.5,1,2.9,2,4.2,3.2c0.5,0.5,0.8,1.2,1.5,2.4c-7.9,0-15.2,0-22.4,0
			c-7.3,0-14.6,0-22.2,0c0.8,1.4,1.6,2.3,2,3.4c1,3,3.1,4.8,6.1,5.6c3.3,0.9,6.5,2.9,10.2,2c3,1.8,6.5,1.4,9.6,0.9
			c9-1.6,18.1-0.7,27.1-0.7c5.3,0,10.7,1.2,16.1,0.9c2.2,1.5,4.7,0.8,7.1,1c2.2,0.3,4.5,0.6,6.5,1.1c3.9,1,8.2,0.5,11.9,2.7
			c5.1,0,9.7,2.3,14.7,3.3c3.3,0.6,6.6,1.8,9.7,3.2c6.4,3,13.2,5.2,19.4,8.8c3.8,2.2,7.7,4.2,11.1,6.8c1.9,1.4,3.7,1.6,5.4,0.9
			c2.4-0.9,4.5-1.2,6.8,0.1c0.6,0.4,1.6,0.2,2.4,0.1c4.3-0.6,8.5,0.5,12.6,1.2c3.8,0.7,7.8,0.8,11.3,2.8c10.6,1.7,20.5,6.1,30.7,9.2
			c6.3,1.9,12.2,5.1,18.5,7.2c0.6,0.2,1.2,0.6,1.8,0.6c4.2,0.1,8.5,0.7,12.5-0.1c5.6-1.2,11.1-0.9,16.6-0.7c5.5,0.2,11,1,16.1,3.2
			c5.5,2.4,10,6,13.2,11.2c2,3.3,3.5,6.9,4.6,10.6c0.2,0.7,0.3,1.6,0.3,2.4c0,1.8,0,3.7,0,5.5c0.2,7.7-2.9,14-7.5,19.9
			c-1.4,1.8-2.8,3.5-4.2,5.2c-4.6,5.3-10.5,8.9-16.2,12.8c-2.2,1.5-4.6,2.6-6.8,4c-2.2,1.5-4.5,3-6.5,4.8
			c-7.7,6.5-16.7,10.9-26.2,13.9c-4.4,1.4-9.2,2.6-14.1,2.3c-3-0.2-6,0.1-9-0.1c-6.3-0.3-12.4-1.9-18.2-4.2
			c-5.7-2.2-10.9-5.2-15.9-8.7c-2.3-1.6-5.1-2.6-8.1-2.1c-4.9,0.8-9.8-0.5-14.5-1.2c-5.1-0.8-10.1-2.7-15.1-4.8
			c-4.4,3.9-6.7,8.7-6.6,14.7c0,1.2,0.5,2.5-0.7,3.8c-0.4,0.4,0,1.7,0.2,2.6c0.1,0.6,0.5,1.2,0.5,1.8c0,4.5,1.3,8.8,1.8,13.2
			c0.4,3.2,1.2,6.3,1.3,9.6c0,1.5,0.7,3,0.9,4.6c0.2,1.6,0,3.2,0,5.7c2.4-3.3,4.3-5.8,6-8.4c3.5-5.4,8.1-9.6,13.9-12.3
			c4-1.9,8.1-3.5,12.7-3.1c1.2,0.1,2.3,0.1,3.5,0c6.5-0.6,12.4,1.9,18.3,4.2c2,0.8,3.7,1.2,5.5,0.5c4.5-1.7,9.3-2.5,13.9-3.9
			c-0.3-0.7-0.6-1.5-1-2.5c0.6,0.1,0.9,0,1,0.1c1,1.2,2.2,1.8,3.8,1.7c2.4-0.2,2.6-0.2,3.3-2.6c0.4-1.2,0.5-2.5,1.1-3.6
			c0.5-0.9,1.4-1.5,2.9-1.8c-0.5,2.3-1.1,4.5-1.6,6.8c15.4-2.8,30.8-5.3,46.4-6c1.4-2.9-1.2-4.9-1.8-7.5c2.8,0.3,3.3,0.8,4.1,3.7
			C535,378.7,535,379.3,535,380z M75.3,238c1.8,0,3.3,0.1,4.8,0c2.2-0.2,4,0.7,5.9,1.4c4.4,1.6,6.6,5.2,9,8.7
			c4.8,6.8,8.6,14.1,13,21.1c6.4,10.1,13.5,19.7,21.4,28.6c6.2,7,13.2,13.2,20.6,18.8c7,5.3,14.3,10.2,22.2,14.1
			c5.8,2.8,11.6,5.7,17.8,7.8c6,2.1,12.1,3.8,18.2,5.4c3,0.8,6.1,1.2,9.2,2c2,0.5,4,0.2,6.1,1c2,0.7,4.3,0.2,6.6,1
			c2.2,0.8,4.9,0.2,7.4,0.2c2.4-0.1,4.5,1.3,7.1,1.1c3.6-0.3,7.3-0.1,11-0.1c3.8,0,7.7,0.1,11.5,0c3.5-0.2,7.1-1.1,10.6-0.9
			c7.3,0.4,14.4-1.5,21.6-1.1c0.3,0,0.8,0.1,1,0c1.8-1.7,4.1-0.7,6.1-1c2-0.3,4-0.7,6.1-1c3.2-0.4,6.6-0.2,9.5-1.2
			c2.3-0.8,4.6-0.2,6.6-1c2.7-1,5.5-1.1,8.2-1.8c2.7-0.7,5.4-1.4,8.2-2c4.7-1.1,9.4-2.4,14.2-3c1.1-0.1,2-0.8,3.1-0.9
			c2.7-0.2,5.5,0.3,8.1-1c0.8-0.4,2.3-0.5,2.9,0c1.8,1.5,3.8,0.7,5.7,0.9c0.8,0.1,1.8-0.3,2.5,0.1c5.5,2.5,11.9,2.3,17,5.9
			c9.4,2.2,17.3,8.1,26.3,11.4c4.2,1.5,7.8,4.4,11.8,6.6c2.4,1.3,5.2,2.1,7.5,3.6c5,3.2,9.9,6.3,15.5,8.6c6.5,2.6,13.2,4.1,20,4.8
			c5.8,0.6,11.5-0.4,17.2-1.8c4.5-1.1,9-2.4,13.2-4.5c4.7-2.4,9.7-4.5,13.5-8.4c2.8-0.3,3.4-4,6.2-4.2c2.1-2.6,5.4-3.2,8-4.9
			c5.5-3.5,10.3-7.9,15.6-11.7c0.7-0.5,1.6-1.1,1.7-1.8c0.4-1.8,1.9-2.6,2.9-3.8c0.7-0.9,1.7-1.6,2.2-2.6c2-4.2,4.7-7.9,5.4-12.8
			c0.7-5.3,0.7-9.9-1.2-14.9c-2-5-4.9-9.2-8.9-12.9c-3-2.8-6.6-4.3-10.2-5.5c-2.6-0.8-5.5-1.7-8.5-1.2c-3.1,0.4-5.9-1.6-9.1-1
			c-1.9,0.4-3.7,0.9-5.6,1c-5.8,0.1-11.7,0.1-17.5,0c-1.2,0-2.4-0.3-3.7-0.7c-4.3-1.4-8.4-3.1-12.5-4.8c-6.7-2.9-13.5-5.2-20.4-7.4
			c-5.2-1.6-10.4-3.2-15.8-4.3c-2.2-0.4-4.5-1.1-6.7-1.8c-2.3-0.7-4.7-0.7-7.1-1.1s-4.7-0.8-7.1-1c-2.5-0.2-5,0-7.5,0
			c-1.8,0-3.7,0-5.5,0c-1.5,0-2.6-0.4-4-1.3c-4.3-2.8-8.8-5.3-13.3-7.7c-4.1-2.2-8.4-3.9-12.7-5.5c-5.9-2.2-11.8-4.7-17.8-6.4
			c-3.7-1-7.6-1.8-11.4-2.8c-4-1-8.1-1.2-12-2.3c-2.4-0.6-5-0.3-7.6-1c-2.6-0.7-5.5,0.2-8-1.1c-7.9,0.7-15.7-1-23.6-1.1
			c-3.6,0-7,1.3-10.6,1.1c-7.4-0.4-14.7,0.5-22.1-0.8c-5.5-0.9-11.3-0.1-17-0.2c-5.7-0.2-11.4-0.9-17.1-0.9c-14.5-0.1-29-0.1-43.5,0
			c-3.5,0-7.1-0.5-10.6,0.8c-2.7,1-13.1,0.2-16-1c-3.5-1.4-7.2-2-10.8-2.9c-3.7-0.9-7.5-1.2-11.1-2.1c-2.4-0.6-5-0.4-7-1.2
			c-2.2-0.8-4.5,0.1-6.1-0.9c-2.1-1.4-4.2-0.5-6.2-0.8c-0.5-0.1-1.1,0.2-1.5,0c-2.1-1.5-4.4-1.1-6.6-0.9c-2.3,0.2-4.4-0.9-6.6-1
			c-3.8-0.2-7.7,0.1-11.5-0.1c-6.5-0.2-12.8,0.6-19.2,2c-4,0.8-10,3.1-12.8,5.2c-4.1,3.1-5.3,7.7-6.2,12.4c-0.3,1.7,0.9,3.6,1.3,5.4
			c1.2,5.3,2.5,10.7,3.5,16c0.6,3,0.2,6.2,1.2,9c0.9,2.5,0.6,4.8,0.9,7.1c0.3,2.5,0.7,5,1,7.6c0.3,3.2,0.2,6.4,0.8,9.6
			c0.7,4,2.2,7.2,5,10c3.6,3.5,6.4,7.4,8.2,12.1c1,2.6,2.5,5,4,7.3c0.7,1.2,1.6,2.6,2.7,3.2c3.4,1.6,6.7,3.5,10.7,3.1
			c3.3-0.3,6.7-0.1,10,0c3.1,0.1,6.1-0.8,9-1.3c3.9-0.7,7.9-1.8,11.8-2.9c4-1.2,8-2.5,11.8-4c2.3-0.9,5.3-0.9,6.8-3.4
			c-3.9-2.9-8.1-5.4-11.4-8.7c-8-8-16.4-15.6-23.2-24.8c-4.5-6.3-9-12.6-13.3-19c-4.5-6.7-8.5-13.8-12.9-20.7
			c-1.8-2.9-4.2-5.2-6.7-7.1c-2.8-2.1-6.4-2.9-10.1-1.9c-1.4,1.5-3.2,2.9-3.3,5.5c-0.1,1.4-0.9,2.3-2.5,2.3c-1.5-1.7,0.4-3,0.6-4.5
			C71.3,241,74,240.2,75.3,238z M410.9,596.5c4.2-3.8,7.1-7.3,9.2-11.6c2.5-5.1,4.8-10.2,4.9-16c2.7-6.2,0.7-12.5-0.4-18.6
			c-1-6-3.4-11.8-6.6-17.2c-1.6-2.8-2.5-6-3.3-9.2c-0.6-2.4,0-5-0.9-7.1c-1.1-2.4-0.2-4.9-1-7.1c-0.9-2.6-0.8-5.1-0.9-7.6
			c0-1-0.2-2-0.3-3.1c-1.2,0.7-2.1,1.4-3.1,1.9c-4.4,2.2-7,1.2-9.7-3.3c-0.9-1.5-1.5-3-2.1-4.7c-1.1-2.8-1.8-5.6-2.2-8.6
			c-0.2-1.8-1.2-3.5-1.7-5.3c-0.5-1.7,0.3-3.4-0.6-5.3c-0.8-1.6-0.5-3.9-0.4-5.8c0.1-2,0.9-4.1,0.9-6.1c0.1-4.7,1.1-9.1,1.9-13.7
			c0.9-5.4,2-10.8,3.2-16.2c0.9-4.3,1.8-8.6,3.4-12.6c0.6-1.5,1-3.3,0.5-4.2c-1.7-2.6,0.2-5.9-1.9-8.3c0.4-5.9-2.2-11.3-2-17.2
			c0-0.5,0-1-0.2-1.4c-1-3.2-1.5-6.4-1.8-9.8c-0.1-1.7-0.2-3.3,0-5c0.2-1.5,0.8-3.1,0.9-4.6c0.1-3.3,1.5-6,3-8.8
			c1.6-2.7,2.9-5.5,6.1-6.9c2.4-1.1,4.5-2.6,6.9-4c-7.3-3.2-14.6-6.5-22.2-9c-5.9-1.9-11.8-3.8-18.1-3.3c-3.7,0.3-7.4,0-11.1,0.8
			c-2.6,0.6-5.2,1.6-8,1.3c-5.9,2.7-12.4,2.7-18.5,4.9c-2.5,0.9-5.7,0.1-8,1.3c-2.7,1.4-5.9-0.3-8.3,1.8c-5.6,0.5-11.1,0.9-16.7,1.9
			c-3.1,0.6-6.4,0.1-9.6,0.9c-3.1,0.8-6.6,0.2-10,0.2c-3.2-0.1-6.3,1.2-9.6,1.1c-10.2-0.3-20.3-0.2-30.5,0c-5.1,0.1-10-1.8-15.1-1.1
			c-2.2-1.4-4.7-0.9-7.1-1c-0.7,0-1.3-0.5-2.3-0.9c0,0.9-0.3,1.9,0.1,2.5c2,3,0.5,6.5,1.8,9.8c1.1,2.7-0.4,6.1,1.2,9
			c0.2,6.6,0.3,13.2-3.8,18.9c-0.7,0.9-0.9,2.2-1.6,3.9c1.5-0.3,2.4-0.4,3.3-0.6c2-0.5,3.9-1.3,5.9-1.5c4.9-0.6,9.7,0.4,14.6,1
			c1.1,2,3.3,1,4.9,1.5c4.4,1.4,8.8,3.1,13.1,4.7c3.1,1.2,6.6,2.4,8.8,5.4c1,1.3,1.4,3.4,0.4,4.4c-1.6,1.6-3,3.3-5.2,4.4
			c-1.9,0.9-3.9,1.8-5.7,3.3c-1.4,1.2-3.6,2.1-5.5,2.3c-6.7,0.8-13.1,0.3-18.6-2.1c-2.2-1-4.4-1.2-6.1-0.6c-3.2,1.1-6.5,2.1-9.8,2.9
			c-0.3,0.1-0.5,1.1-0.7,1.9c4,0,7.5,0,11,0c1.5,0,3.4-0.6,4.4,0.1c1.8,1.3,3.9,0.1,5.1,1c1.9,1.5,3.8,0.5,5.7,0.9
			c0.5,0.1,1.2-0.1,1.4,0.1c1.2,1.5,2.8,0.6,4.2,0.9c1.4,0.3,2.7,0.6,4.1,1c1.8,0.5,2.8-0.9,3.7-2c1.6-2.1,3.1-4.4,4.6-6.6
			c0.1-0.2,0.4-0.2,0.6-0.3c0.4,0.4,0.7,0.7,1.2,1.2c-1.2,1.9-2.2,4-3.6,5.8c-5.2,6.4-9.2,13.4-12.7,20.8c-0.5,1-0.8,2.3-0.5,3.2
			c0.6,2.4,1.6,4.7,2.6,6.9c0.9,2.3,2.6,3.7,4.8,5c4.7,2.8,9.8,3.1,14.9,3.8c2.3,0.3,4.7,0,7,0.1c3.9,0,7.4-1.3,10.8-3
			c3.4-1.7,5.9-6.5,4.7-10.2c-0.9-3-2.5-6.2-5.8-7.8c-1.1-0.6-2.1-1.5-3-2.2c-0.1-5.8-0.1-5.8,1.7-7.5c2.1,2-0.9,4.4,0.7,6.8
			c0.4,0.2,1,0.6,1.7,1c4.5,2.9,7.2,6.5,7,12.4c-0.2,5.2-3.8,7.6-6.8,10.6c-3.3,0.2-6.2,2.5-9.7,2.1c-2.8-0.3-5.7-0.2-8.5,0
			c-3.9,0.2-7.5-1.1-11.2-1.9c-9-1.8-15.3-13.3-12.1-21.7c-8.9-0.8-12.7-8-10.1-17c-2.3-0.5-4.6-1.1-6.9-1.3c-2.6-0.2-5.3-0.2-8,0
			c-3.9,0.4-7-0.9-9.4-4.2c-1.5,3.1-3.1,6.2-4.5,9.2c-1.4,3.1-3.2,6.1-3.8,9.4c-0.7,3.4-2.9,6.1-3.3,9.7c-0.4,3.3-2.2,6.5-2.8,9.8
			c-0.6,3.3-2.7,6.4-1.8,10.5c1.1-0.8,2.1-1.2,2.5-1.9c1.8-2.7,2.8-5.8,4.2-8.8c0.7-1.5,1.4-3.1,2-4.7c0.7-2,1.6-4.1,1.9-6.2
			c0.3-2.3,0.1-4.7,0.1-7c-0.1-1.5,0.2-2.9,1-4.1c1-1.3,2.5-2.4,3.9-1.8c1.1,0.5,2.7,0.4,3.3,2.6c0.9,3.1,0.5,6.1,0.8,9.2
			c0.4,4.8-1.5,8.9-4.2,12.8c-1.2,1.8-2,3.8-3.1,5.8c3.6,0.5,3.5,0.5,5.1-0.8c0.8-0.7,1.8-1.2,2.8-1.8c1-0.7,2.6-1.2,3-2.2
			c0.8-1.7,2.3-2.7,3.2-4.2c0.7-1,1.2-2.3,1.1-3.5c-0.1-2,1.5-2.8,2.5-4c1.2-1.6,2.9-2.8,4.7-3c2.8-0.3,5.6-0.1,8.2-0.1
			c1,0.9,1.9,1.7,2.8,2.6c-0.2,1.8,0,3.7-0.7,5.3c-1.2,2.7-2,5.7-4.5,7.6c-1.2,1-2.5,2.2-4,2.4c-2.8,0.5-3.9,2.5-5.3,4.6
			c2.7,1.1,5.2,2,7.5,3.2c4.7,2.5,9.3,5.1,13.8,7.8c3.5,2.1,4,2.1,5.5-1.5c0.3-0.7,0.4-1.5,0.5-2.3c0.4-2.3,2-3.6,4.3-3.7
			c1.5,0,3,0,4.5,0c2.5,0.1,4.2,1.7,4.2,4.2c0.1,2.5,0,5,0,7.4c-1.2,0.6-2.3,1.6-3,2.8c3.7,1.6,10.1,3.4,14.8,2.3
			c2.9-5.7,2.2-12.1,3.6-18.5c3.2-3.2,3.2-3.2,9.1-3.2c0.8,0.8,1.7,1.7,2.3,2.3c1.4,6.8-1.6,12.9-2.8,20c7.6-1.6,15-2.7,21.8-5.6
			c-0.7-1.6-1.2-2.8-1.8-4.1c-1.4-3.1-2.6-6.2-2.1-9.6c0.1-0.7,0.1-1.3,0-2c-0.4-5.4,3-8.2,7.1-10.5c2.4-1.3,5.4-0.1,5.9,2.3
			c0.2,1.1,0,2.3,0.1,3.5c0.4,5.7,1.8,10.9,6.3,14.4c2.8-1,5.4-2.6,8.1-2.6c4.6-0.1,9-0.7,13.2-1.4c0.9-4.2,1.6-8.5,2.8-12.5
			c0.9-2.8,1.4-5.7,3.5-8.1c1.2-1.3,2.4-2.5,4.2-2.1c1.8,0.4,3.5,1.1,5.2,2c2.7,1.5,3.5,4.1,2.1,7c-0.7,1.5-1.9,2.9-2.4,4.5
			c-1,3.4-3.1,6.7-1.7,10.4c3.8,0,7.5,0.2,11.2,0c3.6-0.2,6.9,1.8,10.6,1.1c0.6-0.1,1.2,0.2,1.8,0.4c4,1.6,6.7,4.7,8.1,9
			c1.1,3.5,2.5,6.9,2,10.7c-0.1,0.5-0.2,1.1,0.1,1.5c1.8,2.4,0.6,4.9,0.8,7.3c-1.2,0-2,0-2.8,0c-0.3-4.8,0.3-9.5-1-14.2
			c-0.6-2.1-1-4.2-2.1-6.2c-2.4-4.3-5.3-6.4-9.8-6.5c-2.9-0.1-5.7-0.1-8.6-0.8c-3.3-0.8-6.9-0.2-10.7-0.2c0.4,3.7,0.9,7.2,1,10.7
			c0.2,3.6,0,7.3,0,10.6c-1.7,2.4-3.9,3.8-6.4,4.5c-2.6,0.8-6.4-1.1-6.5-3.7c-0.2-3.3-0.6-6.8,0.3-9.9c1-3.4,0.6-6.2-0.7-9.2
			c-0.4-1-0.7-2-1.1-3.1c-6.6-0.5-13.2-0.3-19.5,2.4c0.3,4.2,0.6,8.6,0.9,12.9c0,0.1,0.1,0.3,0.3,0.4c1.4,1.2,1.1,3.2,0.6,4.1
			c-0.9,1.6-0.3,3.1,0.3,3.6c2.2,1.8,2,3.9,1.6,6.4c-3.8,2.1-7.3,5-12.4,4c-0.8-1.5-2.6-2.3-3.4-4.3c-1.5-3.8-2.9-7.4-2.9-10.8
			c0-3.3,0.3-6.7-1.7-9.8c-7.2,2.6-14.5,4.9-22.6,5.2c0.5,2.3,0.8,4.3,1.3,6.3c0.1,0.6,0.4,1.2,0.7,1.7c1.1,2.4,1.2,5.1,2.2,7.6
			c0.6,1.5,0.1,3.6-0.4,5.2c-1.2,3.4-7,5.5-10.1,3.8c-1-0.6-2-1.9-2.3-3c-0.6-2.1-0.7-4.4-1.1-6.6c-0.1-0.8-0.2-1.6-0.6-2.3
			c-1.8-3.6-2.6-7.5-2.4-11.5c-1.7-1-3.4-1.7-5.4-1.5c-1.4,0.1-2.7,0-4.2-0.8c-1.8-1-4.2-0.8-6.4-1.1c0,1.2,0.3,2.2,0,2.9
			c-1.1,2.6-1.5,5.4-2.4,8c-1,2.6-1.3,5.4-3.4,7.7c-2.4,2.7-4.7,4.4-7.5,3.4c-1.9-0.7-3.7-1.4-5.7-2c-2.5-0.7-2.9-2.5-2.3-5.2
			c0.7-3.6,3.3-6.3,3.9-9.9c0.7-3.7,2-7.2,4.6-9.9c-0.2-0.5-0.3-0.6-0.4-0.7c-6.4-5.1-13.9-8.2-21-12c-1.8-0.9-2.8-0.5-3.7,1.7
			c-1.1,2.4-2.2,4.9-2.1,7.7c0.1,2.3,0,4.6,0,6.2c-1.9,2-3.4,3.5-5,5.1c-1.5,0-3.1,0-4.8,0c-2.3-0.1-3.8-1.4-4.2-3.7
			c-0.5-2.6-1.8-5.1,0-7.7c-0.2-4.4,1.6-8.4,2.7-12.6c-3.7,0.1-3.6,0.1-4.7,3.3c-0.3,0.9-0.6,1.8-1,2.6c-1.1,2-1.6,4.4-3.5,6.1
			c-1.2,1.1-3.2,1.4-4.4,0.6c-1.9-1.2-2.6-3.2-2.1-5.8c0.1-0.6-0.1-1.2-0.2-1.8c-1,0.9-1.6,1.9-1.7,2.9c-0.2,1.1,0.4,2.7-0.1,3.4
			c-1.7,2-0.8,4.1-0.9,6.2c-0.1,2.3-1.4,4.2-1.1,6.6c0.5,5.3-0.4,10.7,1,16.1c0.5,2.1,0.4,4.4,1.1,6.6c0.7,2.2,1.1,4.5,1.8,6.7
			c1.3,4,3,7.7,5.1,11.4c2.7,4.8,6.4,8.3,10.8,11.5c1.8,1.3,3.6,2.3,5.9,2.8c3.5,0.8,6.9,2.2,11.2,3.6c-1.8,0.6-2.8,1.1-3.9,1.1
			c-1,0-2-0.8-3.1-0.9c-7.2-0.7-12.5-5.1-17.5-9.5c-3.1-2.7-5.4-6.6-7.2-10.4c-4.3-9-7-18.5-7.1-28.6c0-0.8-0.2-1.7-0.4-3.2
			c-1.3,4.5-2.5,8.2-3.4,12c-1.2,5.2-2.1,10.5-3.2,15.7c-0.3,1.2-0.7,2.4-1,3.6c-0.3,1.2-0.4,2.5-0.6,3.7
			c-1.2,5.9-2.7,11.7-3.5,17.6c-0.3,2.5-0.8,5-2.5,7.5c-3.1,4.4-4,9.7-3.4,15.1c1.7,1.8,1.2,4.6,2.5,6.4c2.2,3.3,4.8,6.4,7.4,9.4
			c1,1.2,2.5,2,3.8,2.9c0.6,0.4,1.2,0.6,2.1,1c0.8-5.1-0.4-9.5-1.5-13.9c3.6,0,5.5,1.5,6.7,5.4c1.1,3.6,2.1,7.3,2,11.2
			c-0.1,1.4,0.2,2.5,1.9,3.1c0.4-1.3,0.8-2.7,1.1-4c1-4.2,2.2-8.3,2.1-12.7c0-1.3,0.4-2.9,1.2-3.9c3.5-4.3,7.8-6.8,14.6-6
			c-1.2,0.9-1.7,1.7-2.1,1.7c-3.1-0.4-4.9,1.8-5.6,3.9c-1,3.1-2.2,6.2-2.2,9.6c0,2.9,0.7,5.8-0.9,8.6c-0.4,0.6-0.4,2.1,0,2.4
			c1.7,1.2,0.2,3.2,1.3,4.5c3.9,0.8,7.3,3.7,11.6,2.8c0-2.5,0-4.6,0-6.8c0.1-5.5-1.5-10.4-4.8-14.7c0.5-0.5,0.8-0.8,1.4-1.4
			c6,7.2,10.9,15,14,24.3c0.5-3.4,0.7-6.3,1.5-9c0.5-1.6,0.7-4.2,4.1-4.1c-1.2,5.8-1.6,11.4-1,17.3c3.9-1.3,3.5-4.8,4.4-8.2
			c1.1,1.4,2.1,2.2,2.3,3.1c0.3,1.2,0.5,2.4,1,3.6c1.4,3.2,1.2,3.3,5,2.8c0.1-0.8,0.2-1.6,0.4-2.4c0.9-2.8,2.1-5.5,2.6-8.4
			c0.8-3.8-0.6-7.4-3.4-11c2.7,0.5,3.9,1.6,4.4,3.4c1.5,6.2,4.7,11.9,5,18.4c0.1,1.4,0.9,2.4,2.5,2.4c1.7,0,3.8-0.6,4.9,0.1
			c2.3,1.6,4.5,0.5,6.7,0.8c2.3,0.4,4.7,1,7.1,1c14.3,0.1,28.7,0,43,0c1.3,0,2.5,0,3.5,0c0.5-4,0.7-7.6,1.4-11c0.6-3,1.7-6,3-8.7
			c1.7-3.8,3.2-4.4,6.9-3.6c-0.2,0.2-0.4,0.6-0.7,0.7c-3.5,1.4-4.2,4.2-4.3,7.7c-0.1,5.2,1,10.1,2.3,14.6c1.6-0.3,3.1-0.6,4.9-1
			c-0.3-1.3-0.5-2.5-0.8-3.7c-0.5-2-1-3.9-1.4-5.9c-0.1-0.3,0.4-0.7,0.8-1c0.2-0.1,0.8,0,0.9,0.2c1.5,2.6,3.1,5,4.3,7.7
			c1.3,3,1.1,3.2,3.8,3c2.7-0.2,5.3-0.8,7.7-1.2c2.7-5.7,5.3-11.3,7.9-16.8c0.2,2.7-0.4,5.4-0.3,8c0.1,2.7,0.8,5.3,1.2,7.9
			c1.2,0,2.3,0,3.7,0c0-0.7,0-1.4,0-2c0.3-3.8-0.4-7.4-1-11.1c-0.5-3.3-0.7-6.7-1-10.1c-2.2-1.6-0.5-4.2-1.8-6.3
			c-1.3-2.2-0.9-5.5-1.3-8.8c3,1.3,5.3,2.2,6.4,5.1c1,2.6,2,5.2,3,7.8c1.2,3.4,1.9,6.9,2.5,10.4c0.6,3.6,1.8,7.3,1.2,11.1
			c-0.1,0.6,0,1.2,0,2.6c1-1.1,1.8-1.6,2-2.3c1.4-5.6,3.9-10.8,7.1-15.6c3.6-5.4,7.7-10.5,12.5-14.8c1.2-1.1,2.5-2.2,4.6-1.6
			c-1.2,1.2-2,2.2-3.1,3c-2.7,2.4-3.2,3.2-4.6,6.5c-1.1,2.5-1.3,5.1-1.8,7.8c-0.7,4-1.1,10.1-0.2,14.1c4.8-1.3,9.5-2.6,14.5-4
			c0-2.2-0.4-4.4,0.1-6.4c0.6-2.3-2.2-4-0.3-6.7c1.7,3,3.3,5.6,5,8.6c0.1-0.8,0.2-1.4,0.2-2c-0.3-6.5,0.8-12.8,1.9-19.2
			c0.4-2.4,1.8-3.2,3.8-4.4c0.1,1,0.3,1.6,0.3,2.2C409.4,581.8,411.7,588.7,410.9,596.5z M541.2,439.9c-0.5-0.6-0.8-1.2-1.2-1.3
			c-3.4-0.7-6.9-2.5-10.3-1.4c-2.1,0.7-4.1,0.5-6.1,0.8c-0.8,0.1-1.7,0-2.4,0.3c-3,1.1-6.2,1.4-9.3,1.6c-4,0.4-8,0.2-12,0.1
			c-4.2-0.1-7.9-1.9-11.1-4.6c-5.4-4.5-9-10.3-12.4-16.3c-1.9-3.3-4.1-6.3-6.3-9.4c-2.1-3-4.3-6-6.7-8.7c-2.1-2.4-4.2-5.2-7.5-6
			c-4.1-0.9-7.8-3.5-12.2-3.1c-5.2-2.3-10.5-1-15.5,0.4c-8.6,2.4-14.5,8.3-19.2,15.6c-3.4,5.2-5.7,11.1-6.9,17.1
			c-1,5.1-3.3,9.9-3.2,15.2c-2.4,6.2-2.5,12.9-3.9,19.3c-0.7,3.2-0.2,6.6-0.1,10c0.1,3.2,0,6.3,0.8,9.6c1.4,6.1,3,13.5,6.7,19.8
			c1,0,1.9-0.1,2.9,0c2.5,0.2,4.5-1,5.8-2.8c1.7-2.4,3.5-4.9,4.5-7.6c0.9-2.5,2.2-4.8,3.2-7.2c1.7-4.2,2.9-8.5,4-12.8
			c0.4-1.4-0.4-3.3,0.2-4.4c0.9-1.6-0.3-2.8-0.1-4.2c0.4-2.8-0.7-5.3-1.4-7.9c-0.7-2.4-2-4.8-1.5-7.3c0.4-2.6,1.1-5.3,2.3-7.5
			c3.1-5.6,7.6-10.1,12.3-14.4c2.9-2.7,6.9-2.5,9.9,0.2c2.9,2.6,5.4,5.5,7.5,8.9c1.3,2.1,2.8,4.3,4.6,6.1
			c5.3,5.1,10.1,10.8,16.1,15.3c5.3,4.1,11.1,6.5,17.7,6.7c1.3,0,2.7,0.1,4,0c1.2-0.2,2.4-0.7,3.6-0.9c2.5-0.4,5.2-0.3,7.5-1.2
			c9.3-3.3,18.6-6.4,27.3-11.2C536,445,539,443.2,541.2,439.9z M198.4,433.2c-6.8-2.1-13.2-4.5-19.8-6.1c-5.9-1.5-12-2.6-18.1-2.1
			c-1.8,0.1-3.7,0.1-5.5,0c-2.9-0.1-5.5,1-8.3,1.7c-3.5,0.9-6.1,3.1-9,4.8c-5.4,3.1-7.3,8.4-8.4,13.5c-1.3,5.7,0,11.7,2.5,17.3
			c2.7,6.3,7.2,11,12.8,14.5c3,1.9,4.8,5.2,8.3,6.5c0.4,0.2,1,0.6,1,1c0.3,1.8,1.9,2.6,2.9,3.8c3.7,4.5,6.7,9.1,6.4,15.4
			c-0.2,3.3-1.6,5.6-4.2,7.4c-4.3,3.1-9.4,3.9-14.4,4.9c-3.8,0.8-7.4,2-10.7,4.7c1.6,1,2.9,1.9,4.2,2.8c4.8,2.9,10.3,3.5,15.6,4.4
			c5.2,0.8,10.6,0.3,16,0.1c3.5-0.1,7.2-2.8,7.3-5.6c0.2-3.6,1.3-6.8,2.1-10.2c1.3-4.8,1.9-9.7,3.5-14.5c1-2.8,3-6.2,0.4-9.5
			c-1-6.5-5.1-11.3-8.8-16.3c-3-4.1-6.7-7.6-10.2-11.3c-1.9-2.1-3.9-4.1-6-6c-1.1-1.1-1.4-2.1-0.7-3.4c2.9-0.5,5.4,0.1,7.6,2.2
			c1.2,1.1,3,1.7,4.3,2.7c1.4,1.1,2.6,2.4,3.8,3.8c1.5,1.7,2.7,3.8,4.5,5.1c3.2,2.3,6.8,4,10.2,6c0.8-2.9,1.9-5.5,2.2-8.2
			c0.8-6.1,2.7-11.8,4.6-17.6C195.8,441.2,197,437.4,198.4,433.2z M264.6,403.7c-1.4-0.8-3.1-1.9-5-2.7c-2.9-1.3-6-2.5-8.9-3.8
			c-6.3-2.8-13.1-4-19.8-5.2c-2.5-0.4-5.1,0.2-7.6,0.9c-2.9,0.7-6.7,2.2-9.5,3.7c-3.6,1.9-6.7,4.6-10.2,6.6
			c-1.9,1.1-4.5,2.1-5.6,5.2c3.3-1.3,6-2.2,8.7-3.4c3.4-1.5,6.8-1.5,10.1,0.3c7.1,3.8,14.4,7.1,22.2,9.2c2.9,0.8,8.2,0.4,11.4-0.2
			c4.1-0.8,6.8-3.7,10.3-5.4C262.6,407.9,264.3,406.9,264.6,403.7z M329.3,501.2c-1.2-2-2.7-3.6-3.2-5.4c-0.5-2.2-0.1-4.6-0.1-7
			c0-1.5,0.2-3,0-4.5c-0.7-4-1.5-8-4.3-11.2c-3.1-3.6-4.8-7.7-4.7-12.5c0-0.8,0.3-1.8-0.1-2.5c-0.5-0.9-1.3-1.8-2.2-2.1
			c-1.8-0.6-5.1,1.5-5.7,3.7c-1.3,4.3-2.1,8.8,0.2,13c3.9,7,5.9,15.4,5.6,22.6c-0.1,2.8,1.3,4.8,2.2,7.1c0.7,1.8,4.7,3.3,5.6,2.2
			C324.4,502.6,327.1,503.1,329.3,501.2z M225.4,445.1c-1.6,1.8-4.2,3.2-3.4,6.4c-1.9,3.1-3.4,6.6-6.8,8.4c-3.2,1.7-4.9,4.4-6.1,7.6
			c-2,5.5-2.3,9.6-2.1,15.6c0.1,1.4,0.7,2.5,1.6,2.7c1.3,0.3,3,0.2,4.3-0.3c1.3-0.6,2.6-1,3.4-2.9c0.8-1.8,0.8-3.5,0.7-5.2
			c-0.2-5.6,1.8-10.5,5-14.9c1.6-2.2,3.1-4.5,6.4-4.8c1.3-0.1,2.9-1.4,3.8-2.7c2.1-2.9,3.4-6.2,3.9-9.9c-2-0.5-3.8-0.9-5.6-1.3
			C229.1,445.9,227.1,444.6,225.4,445.1z M359,493.7c0-4.2,0.4-8.1-0.2-11.8c-0.2-1.5-0.7-3-0.8-4.6c-0.2-1.6,0.5-3.1-0.8-4.7
			c-1.2-1.5,0.9-2.8,0.8-4.5c0-1.4-0.1-2.8,0.5-4.3c1.3-3.8,2.6-7.6,4.7-11.1c-2.2-2.7-4.9-3.1-8.3-2.6c-0.9,1.9-2.2,4-2.9,6.1
			c-0.9,2.8-1.1,5.9-2.1,8.6c-1.4,3.8-1.4,7.4,0.5,11c0.4,0.8,0.5,1.8,0.6,2.8c0.5,4.1-0.8,8-0.9,12.1c-0.2,5.1,0.8,6,5.6,5.1
			C356.9,495.7,358,494.4,359,493.7z M239.4,501.9c0.3,0.3,0.8,0.9,1.3,1.1c1.8,0.4,4.1,0.2,5.5,1.2c1.5,1.1,2.6,0.1,3.2-0.3
			c1.1-0.7,2-1.9,2.8-3.2c2.2-3.6,2.8-7.6,3.8-11.4c1.1-4,2.2-7.8,5.2-10.9c1.8-1.9,1.1-6.2-1.1-7.8c-1.1-0.8-5.1-0.8-6,0
			c-0.5,0.4-0.9,1-1,1.6c-0.2,3.8-2.4,6.4-4.6,9.1c-1.4,1.7-2.9,3.5-3.6,6C243.5,492.1,241.3,496.8,239.4,501.9z M282.5,466
			c-1.8,2.2-1.5,4.5-1.5,6.7c0,2.6-1.5,8.6-2.6,11.4c-1.2,3.2-2.1,6.3-0.6,10c1.7,4.1,2.8,8.6,3.1,13.1c0.1,2,0.9,2.6,3.1,2.7
			c0.8,0,1.6,0,1.7,0c3.2-1.1,2.8-3.8,4.1-5.6c-1.5-2.5-0.8-5.6-2.1-8.1c-1.5-2.9-1.7-6-1.9-9.2c-0.2-4.6,1.1-8.8,2.5-12.9
			c0.8-2.5,1-4.9,0.1-7c-1-2.3-3.6-0.8-5.4-1.2C283,466,282.8,466,282.5,466z M193.5,474.3c1.8-0.4,2.9-0.4,3.5-0.9
			c0.8-0.6,1.6-1.6,2-2.6c1.3-3.3,2.5-6.6,3.7-9.9c0.5-1.5,1-2.9,2-4.2c1.7-2.1,3.4-4.6,4.2-7.2c0.9-2.8,1.1-6,1.1-9
			c0-2.1-0.8-4.3-1.2-6.4c-3.5,0.3-3.9,0.4-3.6,3.6c0.7,8.1-2,15.2-5.4,22.2c-1.4,2.9-3.1,5.7-4.5,8.6
			C194.4,470,194.2,471.7,193.5,474.3z M199.1,410.5c2.3,1.9,10.6,4.5,14.4,4.5c3.9,0,7.1-1.8,11-3.4c-1.9-0.8-3.1-1.4-4.4-2
			c-1.4-0.7-2.7-1.4-4.1-2.1c-3.1-1.6-6-1.6-9.2,0C204.4,408.8,201.7,409.5,199.1,410.5z M407.4,354.6c8.5,4.4,16.6,6.3,26.1,5
			c-5.1-2.4-9.8-4.2-14-6.8c-3-1.8-5.3-1.2-8,0.1C410.4,353.5,409.3,353.9,407.4,354.6z M187.1,473.4c-3.5-2.2-6.7-4.4-10.1-6.4
			c-1.1-0.7-2.4-1.9-4-0.5c1.7,2.2,3.4,4.4,5,6.7c1.5,2.2,3,4.3,4.3,6.6c1.3,2.2,2.2,4.6,3.7,7.6c0-2.4-0.6-4.4,0.1-5.7
			C187.7,479,186.6,476.1,187.1,473.4z M244.3,436.9c2.5-4.2,4.7-7.8,7-11.8c-2,0-3.5,0-4.9,0c-1.2,1.2-2.3,2.3-3.5,3.5
			c-2.1,2.1-4.3,3.2-7.1,1.4c-0.1-0.1-0.5,0.3-0.8,0.5C237.3,436.1,238.6,437,244.3,436.9z M544.8,526.2c-1.7-0.3-3.1-0.5-4.7-0.7
			c-0.3,1-1.4,2.7-1,3.9c1.4,3.9,1.8,8.1,4.4,11.6C545.3,538.6,545.3,538.6,544.8,526.2z M173.5,464.6c-3-4.5-6.3-7.9-11.3-9.3
			c3.1,3.4,6.3,6.6,9.7,9.7C172,465.1,172.4,464.8,173.5,464.6z M550.2,535.4c1.8-3.1,3.2-5.5,4.8-8.2c-2.1,0-4,0-6.3,0
			C549.2,529.9,549.7,532.4,550.2,535.4z"/>
		<path d="M459,224c-1.5-1.3-3.3-1-5.1-1c-25.3,0-50.6-0.1-75.9,0.1c-4.1,0-7.2-2.1-10.3-4c-1.2-0.8-1.9-2.5-2.7-3.7
			c1.6-5.8,6.6-7.4,11.2-9.3c4.9-2,10.1-3,15.3-4.1c0.9-0.2,2-0.7,2.4-1.4c1.6-2.9,3.8-5,6.7-6.7c1.8-1.1,2.9-3.4,4.7-4.4
			c2.6-1.4,4.8-3.5,7.4-4.9c2.8-1.5,5.5-2.7,8.5-3.6c4.3-1.2,7-1,11.3-0.3c2.6,0.5,5.3,1.1,8,1.5c4.4,0.6,9.1,0.7,13.5,2.8
			c1-1.8,2.3-3.6,3.1-5.6c0.5-1.2,0.9-2,2.1-2.3c0,2.8-2.4,4.6-3.1,7.5c0.6,0.5,1.4,1.4,2.1,1.4c2.8,0,5.1,1.3,7.6,2.2
			c4.5,1.6,8.7,4,12.6,6.7c1,0.7,2.2,1.6,2.5,5.3c-1.6-3.2-2.4-3.3-5-5.1c-5.9-3.9-12-7.1-19.2-8c-3.1-2.2-6.9-1.7-10.3-2.8
			c-3.4-1.1-7.3-0.8-11-1.2c-0.8-0.1-1.5-0.3-2.3-0.5c-6.1-2-6.8-1.9-13.2,0.2c-2.3,0.7-4.3,1.7-6.3,3.1c-1.8,1.2-3.7,2.4-5.5,3.6
			c-2.4,1.5-4,3.9-6.3,5.3c-2.9,1.9-5.4,3.9-7,7.1c-0.3,0.6-1.2,1.1-1.9,1.3c-1.7,0.5-3.4,0.6-5.1,1.1c-5.3,1.6-10.7,2.9-15.7,5.5
			c-1.4,0.7-2.7,1.7-3.8,2.8c-2,1.9-1.9,4.2,0.4,5.7c3.1,2,6.2,4,10.3,4c59.3-0.1,118.6-0.1,177.8-0.1c1,0,2.1-0.2,3-0.2
			c-1.2-1.4-2.3-2.6-3-3.4c-2.9-0.5-5.3-0.8-7.6-1.4c-2.5-0.7-4.7,2.5-7.3,0.5c0.4-2.4,0.8-4.7,1.2-6.7c-2.2-2.5-4.3-3.9-6.8-5.2
			c-2.3-1.1-4.7-1-6.7-1.9c-2-0.9-3.8-0.5-5.7-0.7c-2-0.3-3.9-1.3-6.1-1.1c-3.2,0.2-6.5,0.7-9.3-1.7c-0.5-0.4-1.6-0.1-2.4-0.2
			c-1.2-0.1-2.5,0.4-3.7-0.8c-0.5-0.5-2.3-0.6-2.8-0.1c-1.8,1.6-3.8,0.6-5.7,0.9c-1.4,0.3-2.8,0-4.3,0.5c-2.6,1-5.5,1.1-9-0.5
			c0.2-1.1,1.1-0.2,1.7,0.4c3-0.5,5.9-1,8.9-1.5c1.1-0.2,2.3,0.1,3.4-0.3c5.1-1.7,10.3-1,15,0.8c2.5,1,4.8,1.5,7.4,1.4
			c5.2-0.2,10.2,0.7,15.2,2c2.1,0.6,4.3,0.8,6.6,1.2c0.4-5.4-0.9-10.2-1.9-15c-1.1-5.6-3.5-10.8-7.4-14.9c-3.7-4-7.4-8-12.4-10.9
			c-4.3-2.5-8.8-4-13.3-5.2c-4.5-1.1-9.6-0.2-14.4-0.3c-1.4,0-2.4,0.8-3.6,1c-9.7,1.7-17.1,7.2-23.5,14.3c-1.1,1.2-1.7,3-3.4,3.7
			c-0.7-2.2,2.4-2.6,2.1-4.6c3.6-3.8,7.4-7.2,11.9-9.9c3.9-2.3,8.1-3.8,12.3-5.2c1.3-0.5,2.9-0.1,4.4-0.3c0.5-0.1,0.9-0.6,1.3-1
			c3.3,0,6.7,0,10,0c0.3,0.3,0.5,0.9,0.8,1c6,0.6,11.4,2.3,16.6,5.8c9.1,6.1,15.1,12.7,17.8,20c1.2,3.2,2.1,6.5,3,9.8
			c1.2,4.4,0.4,8.8,0.9,13.1c1.3,1.3,2.5,2.5,4,4c0,1.9,0,4.1,0,6.4c2.6,0,5.1-0.3,7.6,0.1c3.2,0.5,6.8,0.7,8.8,3.9
			c0.4,0.7,0.4,1.7,0.7,2.8c-9.1,0-17.9,0-26.2,0c-4,4.2-7.7,8.1-11.4,12.1c-0.8,0.8-1.5,1.2-2.6,1c2.5-2.6,5-5.2,7.4-7.9
			c1.3-1.5,2.4-3.1,4-5.1c-2.3,0-4,0-5.6,0c-17.7,0-35.3,0-53,0c-4.3,0-8.7,0-13,0C460.1,223,459,222.6,459,224z"/>
		<path d="M433.6,632.2c1.5-8.4-1.5-17.7-3.8-23.5c-1.1-2.7-3.7-4.8-5.8-7.5c2.9,0.5,5.6,0.3,8.1,2.4c3.7,3.2,5.4,7.3,6.8,11.7
			c0.5,1.6,0.9,3.2,1.4,4.8c4.3-16.2,13.8-29,24.9-40.8c0.3-0.3,1.1-0.1,2.3-0.2c-1,1.3-1.5,2.1-2,2.8c-3.6,4.4-6.5,9.1-8.8,14.3
			c-1.9,4.3-3.2,8.7-4.5,13.1c-0.9,2.8-1.1,6-1.2,9c-0.2,4.5,0,9-0.1,13.5c0,0.5-0.8,1-1.6,2c-1.1-13,0-24.9,4.1-36.7
			c-0.5,0.8-0.9,1.6-1.5,2.4c-0.6,0.9-1.5,1.7-2,2.7c-2.6,5.4-6.1,10.4-7.1,16.5c-1.6,1.3-0.2,3.3-1,4.6c-1,1.6-0.7,3.1-1,4.6
			c-0.1,0.5-0.8,0.9-1.7,1.9c-0.5-9.2-1.9-17.3-7.2-24.2c-0.3-0.4-1-0.4-1.8-0.7c1.4,3.4,2.7,6.5,3.8,9.6c1.2,3.4,1.3,7.1,1.9,10.7
			c0.6,3.5,0.1,7.2,0.1,11.2c-4.2-1.4-4.9-5.3-7-7.8c-2.2-2.6-2.9-5.8-3.3-10.1c-1,2.4-2.1,4.1-2.3,5.8c-0.4,3.3-2.9,6.6-0.7,10.1
			c0.2,0.3-0.7,1.1-1.2,1.8c-1.5-2.9-2.6-5.7-0.5-8.7c0.3-5.7,3.4-10.4,5.6-16C427.8,621.3,428.1,625.2,433.6,632.2z"/>
		<path d="M127,356c0.9-2.3,2.9-2.7,5-3c7-0.8,13.2,1.1,18.8,5.2c1.6,1.2,3.3,0.9,5.1,0.4c2.7-0.8,5.4-2,8.3-1.7
			c5.1,0.5,9.6,1.9,11.1,7.7c2.4,1,5.3-0.9,7.4,1.2c4.6,0.3,6.8,3.9,9.3,7c0.7,0.9,1,2.1,2.4,2c2.9-0.2,4.8,1.5,6.6,3.4
			c0.5,3.7,0,7.1-3.5,9.6c-25.7,0-51.7,0-77.6,0c-14.1,0-28.3,0-42.4,0c-1.2,0-2.4,0.2-3.5-0.1c-0.7-0.2-1.5-0.9-1.8-1.5
			c-0.8-1.9,1.1-7.1,3-8.4c0.2-0.2,0.7,0,1,0c-1.1,2.5-2.1,5-3.4,8c1.4,0,2.2,0,2.9,0c39.6,0,79.2,0,118.8,0c0.8,0,1.7,0.1,2.5,0
			c0.6-0.1,1.4-0.5,1.6-0.9c0.7-1.6,1.5-3.2,1.5-4.8c0-1.7-1.4-2.7-3.1-3.2c-0.9-0.3-1.7-0.9-2.6-0.9c-1.6-0.1-2.3-0.8-3.3-2.1
			c-2.5-3.3-4.9-7.1-9.9-6.9c-2.1-1.7-4.7-0.6-6.8-1.2c-1-3.6-3-6.1-6.7-6.8c-1.4-0.3-3,0.5-4.1-1c-1.2,1.7-3.1,0.7-4.6,1
			c-1.4,0.3-3.1,0.2-4,1.1c-1.9,1.8-3.5,0.3-4.6-0.4c-3.4-2.4-6.9-4-11-5c-3.8-0.9-7.1-1.1-10.5,0.9
			C128.3,355.9,127.6,355.9,127,356z"/>
		<path d="M141,209c0.9-2.7,3.6-2.6,5.5-2.9c6-0.7,12-0.3,17.6,2c1.8,0.7,3,0.4,4.2-0.2c3.5-1.7,6.8-3.7,10.3-5.2
			c5.6-2.4,11.4-3.3,17.3-2.6c2.3,0.3,4.5,1.9,6.8,2.9c2,0.9,3.9,1.4,6.2,0.1c2.5-1.4,5.4-2.3,8.2-3c1.4-0.4,2.3-0.7,2.9-2.1
			c0.7-1.6,1.7-3.2,4-3c-1.2,1.7-2.2,3.4-3.5,4.9c-0.4,0.5-1.3,0.8-2,1.1c-3.9,1.4-8.1,2.3-11.6,4.7c0.2,1.8,2.7,2.3,2.1,4.3
			c-1.3-1.2-2.7-2.3-4-3.5c-3.7-3.5-8-5.4-13.1-5.5c-2-0.1-3.7,0.8-5.6,1c-3.1,0.2-5.7,1.3-8.4,2.6c-3.2,1.6-6.5,2.8-9.5,4.6
			c-1.6,1-2.8,0.9-4.5,0.3c-4.5-1.6-9.1-2.6-13.9-2.6C146.9,207,144.1,208.7,141,209z"/>
		<path d="M224,195c3-3.3,6.5-4.4,10.2-3.3c0.4,0.1,0.9,0.2,1.4,0.3c2.5,0.4,4.7,1.2,6.8,2.8c3.2,2.5,7,4.2,9.1,8.1
			c1.3,2.4,2.6,2.7,5.4,1.6c5.2-2,10.6-2,15.8-1.4c3.4,0.4,6.9,1.8,9.5,4.6c1,1.1,2.1,2.1,3.3,3.3c4.8-0.4,9.3,0.7,13.6,3
			c0.8,0.4,1.3,1.3,1.9,2c-2.3-0.8-4.6-2-7-2.4c-2.8-0.4-5.4-3.5-8.4-0.2c-1.2-1.3-2.2-2.4-3.2-3.5c-3.7-4.2-8.7-5.6-14-5.9
			c-5.1-0.2-10,1.2-14.8,3c-0.8-0.8-1.9-1.4-2.3-2.4c-1.7-3.5-4.8-5.5-7.8-7.6c-2.4-1.7-5.1-3.4-7.8-3.9c-3.4-0.6-7.2-1.1-10.1,1.8
			C225.2,195.2,224.5,195,224,195z"/>
		<path d="M80,487c-1.5-1.5-2.3-3.5-3.5-6c1.3,0.3,2,0.2,2.5,0.6c0.8,0.6,1.5,1.3,2.1,2.1c0.6,0.7,1,1.5,1.7,2.7
			c0.5-0.7,0.7-1.4,1.2-1.8c0.5-0.4,1.2-0.4,2.5-0.8c-0.9,1-1.2,1.3-1.5,1.7c0.3,0.2,0.6,0.5,0.8,0.4c2.7-1.3,5.4-2.2,8.2-3.1
			c2.2-0.7,4.5-1.8,5-4.5c3.2-0.6,1.7-2.5,1-4.4c2.6,0.2,3.4,2.1,4.4,4.1c0.3-0.7,0.7-1.4,1.1-2.3c1.2,2.9-1.3,4.8-1.4,7.2
			c-0.1-0.9-0.3-1.8-0.4-2.8c-0.3,0.2-0.8,0.3-0.8,0.4c0,1.5,0,2.9,0,5.3c-1.5-2.1-2.5-3.5-3.8-5.3c-0.1,1.8-0.2,3.1-0.4,5.4
			c-0.6-1.5-0.9-2.1-1.1-2.6c-4.1,1.6-8.2,3.2-12.7,4.9c0,1.5,0,3.1,0,5.7c-1.1-1.6-1.9-2.2-2-3c-0.2-1.6-0.6-3-2.1-3.9
			C80.7,487,80.3,487,80,487z"/>
		<path d="M521,236c-1,2.2-3.2,3.1-5.1,3.9c-4.4,2-8.7,4.1-13.7,4.1c-2,0-4,0.8-6.1,0.9c-2.2,0.2-4.4-0.3-6.6-0.8
			c-2.1-0.4-4.4-0.6-6.5-1.2c-1.9-0.5-3.8-1.3-5.6-2.1c-2-0.9-4-1.7-5.7-2.9c-4.8-3.6-9.4-7.3-12.7-12.5c-0.2-0.4,0-1,0-1.5
			c2.3,0.6,2.7,3,4,4.5c4.7,5.3,10.5,9.3,17,11.9c3.5,1.4,7.1,2.6,10.9,2.5c2.5,0,5,0.1,7.5,0c6.8-0.3,13.4-1.6,19-5.9
			C518.4,236.4,519.8,236.4,521,236z"/>
		<path d="M76,378c0.4-1.4,1.3-2.2,2.9-2c1.7,0.2,2.5-0.6,3.2-2.2c1.2-2.7,2.6-5.4,4.9-7.5c0.9-0.8,5.1-4.5,6.4-5.2
			c1.9-0.9,3.9-1.1,6-1.2c7.4-0.4,13.2,2.7,18.5,7.4c0.3,0.3,0.8,0.5,1.2,0.7c0.1,0.1,0.3,0,0.9,0c-0.4-4.4,2.7-7.4,4.6-10.9
			c0.5-1,1.5-1.2,2.5-1.1c-3.4,4.1-5.4,9-7,14.3c-1.6-1.1-2.8-1.7-3.8-2.6c-2.9-2.4-7.6-5.4-11.3-6.2c-5-1.1-9.9-0.6-13.8,3.1
			c-3.3,3-6.7,6-8.1,10.6c-0.2,0.7-0.8,1.6-1.4,1.8C79.7,377.4,77.8,377.7,76,378z"/>
		<path d="M80,487c0.3,0,0.7,0,1,0c0,2.3,0,4.6,0,6.9c-0.2,0-0.5,0-0.7,0c-0.1-1.2-0.3-2.3-0.5-3.8c-13.3,6.5-26.7,12.6-38.9,21.5
			c0.3-0.6,0.4-1.5,0.9-1.8c2.6-2,5.3-4,8.1-5.8c4.4-2.7,8.8-5.2,13.3-7.7c4.8-2.6,9.6-5,14.5-7.3C78.8,488.6,79.6,488.2,80,487z"/>
		<path d="M118.9,494.1c-0.2,3.7-2.1,6.7-3.5,9.9c-0.1-4.7,3.2-8.9,1.2-13.8c0.3,0,0.7-0.1,1-0.1c0.7,0.9,1.3,1.8,2.2,3
			c0.6-2.4,0-4.8,0.3-7.1c0.3-2.1,0.6-4.4,3-6.4c-0.3,1.2-0.4,1.9-0.6,2.5c-0.8,2.4-1.7,4.7-1.5,7.4c0.2,3.4,0.1,6.9-0.4,10.4
			C120,497.9,119.4,496,118.9,494.1z"/>
		<path d="M535,380c0-0.7,0-1.3,0-2c0.7,0.4,1.4,0.7,2.3,1.2c0.4-0.7,0.8-1.4,1.6-2.8c0,2,0,3.2,0,4.7c3.9,0,7.5,0,11,0
			c-3.2,1.2-6.4,0.6-9.7,1c-0.2,0.5-0.4,1.1-0.8,2.1c-0.4-0.9-0.6-1.5-1.1-2.6c-0.3,1.4-0.5,2.3-0.8,3.6
			C536.5,383.4,537.1,381,535,380z"/>
		<path class="st0" d="M75.3,238c-1.3,2.2-4,3-4.2,5.6c-0.1,1.5-2.1,2.7-0.6,4.5c1.5,0,2.4-0.9,2.5-2.3c0.1-2.5,1.9-4,3.3-5.5
			c3.8-1,7.4-0.2,10.1,1.9c2.5,1.9,4.8,4.3,6.7,7.1c4.4,6.8,8.4,13.9,12.9,20.7c4.3,6.4,8.7,12.8,13.3,19
			c6.7,9.3,15.1,16.9,23.2,24.8c3.3,3.3,7.5,5.8,11.4,8.7c-1.5,2.5-4.4,2.5-6.8,3.4c-3.9,1.5-7.9,2.8-11.8,4
			c-3.9,1.1-7.8,2.2-11.8,2.9c-3,0.5-5.9,1.4-9,1.3c-3.3-0.1-6.7-0.2-10,0c-4,0.3-7.3-1.6-10.7-3.1c-1.2-0.5-2-2-2.7-3.2
			c-1.4-2.4-3-4.8-4-7.3c-1.8-4.7-4.7-8.6-8.2-12.1c-2.8-2.8-4.3-5.9-5-10c-0.6-3.2-0.5-6.4-0.8-9.6c-0.2-2.5-0.7-5.1-1-7.6
			c-0.3-2.4,0.1-4.7-0.9-7.1c-1-2.8-0.6-6-1.2-9c-1-5.4-2.3-10.7-3.5-16c-0.4-1.8-1.6-3.7-1.3-5.4c0.8-4.6,2.1-9.3,6.2-12.4
			c2.8-2.1,8.9-4.4,12.8-5.2c6.3-1.4,12.7-2.2,19.2-2c3.8,0.1,7.7-0.1,11.5,0.1c2.2,0.1,4.2,1.2,6.6,1c2.2-0.2,4.5-0.6,6.6,0.9
			c0.3,0.2,1,0,1.5,0c2,0.3,4-0.5,6.2,0.8c1.6,1,3.9,0.1,6.1,0.9c2.1,0.8,4.7,0.6,7,1.2c3.7,0.9,7.5,1.2,11.1,2.1
			c3.6,0.9,7.3,1.5,10.8,2.9c2.9,1.1,13.3,1.9,16,1c3.6-1.3,7.1-0.8,10.6-0.8c14.5-0.1,29-0.1,43.5,0c5.7,0.1,11.4,0.8,17.1,0.9
			c5.7,0.2,11.5-0.7,17,0.2c7.4,1.3,14.8,0.4,22.1,0.8c3.6,0.2,7-1.1,10.6-1.1c7.9,0.1,15.7,1.8,23.6,1.1c2.6,1.3,5.5,0.5,8,1.1
			c2.6,0.7,5.2,0.3,7.6,1c4,1.1,8.1,1.3,12,2.3c3.8,0.9,7.6,1.7,11.4,2.8c6.1,1.7,11.9,4.2,17.8,6.4c4.4,1.6,8.6,3.3,12.7,5.5
			c4.5,2.4,9,4.9,13.3,7.7c1.4,0.9,2.5,1.3,4,1.3c1.8,0,3.7,0,5.5,0c2.5,0,5-0.1,7.5,0c2.4,0.2,4.7,0.6,7.1,1s4.8,0.4,7.1,1.1
			c2.2,0.7,4.5,1.4,6.7,1.8c5.4,1,10.6,2.6,15.8,4.3c6.9,2.2,13.8,4.5,20.4,7.4c4.1,1.8,8.2,3.5,12.5,4.8c1.3,0.4,2.5,0.7,3.7,0.7
			c5.8,0.1,11.7,0.1,17.5,0c1.9,0,3.7-0.6,5.6-1c3.1-0.6,6,1.4,9.1,1c3-0.4,5.9,0.4,8.5,1.2c3.6,1.1,7.3,2.7,10.2,5.5
			c3.9,3.7,6.9,7.8,8.9,12.9c1.9,5,2,9.6,1.2,14.9c-0.7,4.9-3.3,8.7-5.4,12.8c-0.5,1-1.5,1.7-2.2,2.6c-1,1.2-2.5,2-2.9,3.8
			c-0.1,0.7-1,1.3-1.7,1.8c-5.3,3.8-10.1,8.2-15.6,11.7c-2.6,1.7-5.9,2.3-8,4.9c-2.8,0.3-3.4,3.9-6.2,4.2c-3.8,3.9-8.8,6-13.5,8.4
			c-4.1,2.1-8.6,3.3-13.2,4.5c-5.7,1.4-11.4,2.4-17.2,1.8c-6.8-0.7-13.5-2.1-20-4.8c-5.6-2.3-10.5-5.3-15.5-8.6
			c-2.3-1.5-5-2.3-7.5-3.6c-4-2.1-7.6-5-11.8-6.6c-9-3.3-16.8-9.2-26.3-11.4c-5.1-3.6-11.5-3.4-17-5.9c-0.7-0.3-1.7,0-2.5-0.1
			c-1.9-0.2-3.9,0.6-5.7-0.9c-0.6-0.5-2.1-0.4-2.9,0c-2.6,1.3-5.4,0.8-8.1,1c-1,0.1-2,0.8-3.1,0.9c-4.8,0.6-9.5,1.9-14.2,3
			c-2.7,0.7-5.5,1.3-8.2,2c-2.7,0.7-5.5,0.8-8.2,1.8c-2,0.7-4.3,0.2-6.6,1c-3,1-6.3,0.8-9.5,1.2c-2,0.3-4.1,0.7-6.1,1
			c-2,0.3-4.3-0.7-6.1,1c-0.2,0.2-0.6,0-1,0c-7.2-0.4-14.3,1.5-21.6,1.1c-3.5-0.2-7,0.7-10.6,0.9c-3.8,0.2-7.7,0-11.5,0
			c-3.7,0-7.4-0.3-11,0.1c-2.5,0.2-4.7-1.2-7.1-1.1c-2.5,0.1-5.2,0.6-7.4-0.2c-2.3-0.8-4.6-0.2-6.6-1c-2.1-0.7-4.1-0.5-6.1-1
			c-3-0.8-6.2-1.2-9.2-2c-6.1-1.6-12.2-3.4-18.2-5.4c-6.1-2.1-11.9-5-17.8-7.8c-7.9-3.9-15.2-8.8-22.2-14.1
			c-7.5-5.7-14.4-11.9-20.6-18.8c-7.9-8.9-15-18.5-21.4-28.6c-4.4-7-8.2-14.3-13-21.1c-2.4-3.4-4.6-7.1-9-8.7
			c-2-0.7-3.7-1.6-5.9-1.4C78.6,238.1,77.1,238,75.3,238z"/>
		<path class="st0" d="M410.9,596.5c0.9-7.8-1.5-14.7-0.9-21.7c0.1-0.6-0.1-1.2-0.3-2.2c-2,1.2-3.4,2-3.8,4.4
			c-1.1,6.4-2.2,12.7-1.9,19.2c0,0.6-0.1,1.2-0.2,2c-1.7-2.9-3.3-5.6-5-8.6c-1.9,2.7,0.9,4.4,0.3,6.7c-0.5,2-0.1,4.3-0.1,6.4
			c-4.9,1.4-9.7,2.7-14.5,4c-0.9-4-0.5-10.1,0.2-14.1c0.5-2.6,0.7-5.2,1.8-7.8c1.4-3.3,1.8-4.1,4.6-6.5c1-0.9,1.9-1.9,3.1-3
			c-2.1-0.6-3.4,0.5-4.6,1.6c-4.9,4.4-9,9.4-12.5,14.8c-3.2,4.8-5.6,10-7.1,15.6c-0.2,0.6-0.9,1.1-2,2.3c0-1.4-0.1-2,0-2.6
			c0.7-3.8-0.6-7.4-1.2-11.1c-0.6-3.5-1.3-7-2.5-10.4c-0.9-2.6-1.9-5.2-3-7.8c-1.2-2.9-3.4-3.8-6.4-5.1c0.4,3.3,0,6.5,1.3,8.8
			c1.2,2.1-0.4,4.7,1.8,6.3c0.3,3.4,0.5,6.7,1,10.1c0.5,3.7,1.3,7.3,1,11.1c-0.1,0.6,0,1.3,0,2c-1.4,0-2.5,0-3.7,0
			c-0.4-2.6-1.1-5.3-1.2-7.9c-0.1-2.6,0.5-5.3,0.3-8c-2.6,5.6-5.2,11.1-7.9,16.8c-2.4,0.4-5,1-7.7,1.2c-2.7,0.2-2.5-0.1-3.8-3
			c-1.2-2.7-2.8-5.2-4.3-7.7c-0.1-0.2-0.7-0.3-0.9-0.2c-0.3,0.2-0.8,0.7-0.8,1c0.4,2,0.9,3.9,1.4,5.9c0.3,1.2,0.5,2.4,0.8,3.7
			c-1.8,0.4-3.3,0.7-4.9,1c-1.3-4.5-2.4-9.4-2.3-14.6c0.1-3.5,0.7-6.3,4.3-7.7c0.3-0.1,0.5-0.5,0.7-0.7c-3.6-0.8-5.1-0.2-6.9,3.6
			c-1.3,2.8-2.3,5.8-3,8.7c-0.7,3.4-0.9,7-1.4,11c-1,0-2.3,0-3.5,0c-14.3,0-28.7,0-43,0c-2.4,0-4.7-0.6-7.1-1
			c-2.2-0.4-4.4,0.7-6.7-0.8c-1.1-0.8-3.2-0.1-4.9-0.1c-1.6,0-2.4-0.9-2.5-2.4c-0.3-6.5-3.5-12.2-5-18.4c-0.5-1.8-1.7-2.9-4.4-3.4
			c2.8,3.7,4.1,7.2,3.4,11c-0.6,2.9-1.8,5.6-2.6,8.4c-0.2,0.8-0.3,1.6-0.4,2.4c-3.8,0.5-3.6,0.4-5-2.8c-0.5-1.2-0.7-2.4-1-3.6
			c-0.2-0.9-1.2-1.6-2.3-3.1c-1,3.4-0.5,6.9-4.4,8.2c-0.5-5.9-0.2-11.5,1-17.3c-3.4-0.1-3.6,2.5-4.1,4.1c-0.8,2.7-1,5.6-1.5,9
			c-3.1-9.3-8-17.1-14-24.3c-0.6,0.6-0.9,0.9-1.4,1.4c3.4,4.3,4.9,9.2,4.8,14.7c0,2.2,0,4.3,0,6.8c-4.3,0.8-7.7-2.1-11.6-2.8
			c-1.1-1.2,0.4-3.3-1.3-4.5c-0.4-0.3-0.4-1.8,0-2.4c1.6-2.8,0.9-5.7,0.9-8.6c0-3.4,1.2-6.6,2.2-9.6c0.7-2.1,2.5-4.3,5.6-3.9
			c0.4,0.1,1-0.7,2.1-1.7c-6.7-0.8-11.1,1.7-14.6,6c-0.8,1-1.3,2.6-1.2,3.9c0.1,4.4-1.1,8.5-2.1,12.7c-0.3,1.3-0.7,2.7-1.1,4
			c-1.6-0.6-1.9-1.7-1.9-3.1c0.1-3.9-0.9-7.5-2-11.2c-1.2-3.9-3.1-5.4-6.7-5.4c1,4.4,2.3,8.8,1.5,13.9c-0.8-0.4-1.5-0.6-2.1-1
			c-1.3-0.9-2.8-1.7-3.8-2.9c-2.6-3-5.2-6.1-7.4-9.4c-1.3-1.9-0.8-4.6-2.5-6.4c-0.6-5.4,0.2-10.7,3.4-15.1c1.7-2.4,2.2-5,2.5-7.5
			c0.8-6,2.3-11.8,3.5-17.6c0.2-1.2,0.4-2.5,0.6-3.7c0.3-1.2,0.7-2.4,1-3.6c1.1-5.2,2-10.5,3.2-15.7c0.9-3.8,2.1-7.5,3.4-12
			c0.2,1.5,0.4,2.4,0.4,3.2c0.1,10.1,2.8,19.6,7.1,28.6c1.8,3.8,4.1,7.7,7.2,10.4c5,4.4,10.3,8.8,17.5,9.5c1.1,0.1,2.1,0.9,3.1,0.9
			c1,0,2-0.6,3.9-1.1c-4.3-1.4-7.7-2.8-11.2-3.6c-2.2-0.5-4-1.5-5.9-2.8c-4.4-3.1-8.1-6.7-10.8-11.5c-2.1-3.7-3.7-7.4-5.1-11.4
			c-0.7-2.2-1.1-4.5-1.8-6.7c-0.7-2.1-0.6-4.5-1.1-6.6c-1.4-5.4-0.4-10.8-1-16.1c-0.2-2.4,1.1-4.3,1.1-6.6c0.1-2-0.8-4.2,0.9-6.2
			c0.6-0.7-0.1-2.3,0.1-3.4c0.2-1,0.7-2,1.7-2.9c0.1,0.6,0.3,1.2,0.2,1.8c-0.5,2.6,0.2,4.6,2.1,5.8c1.2,0.8,3.2,0.5,4.4-0.6
			c1.8-1.6,2.4-4,3.5-6.1c0.4-0.8,0.7-1.7,1-2.6c1.1-3.2,1.1-3.2,4.7-3.3c-1.2,4.2-3,8.2-2.7,12.6c-1.8,2.6-0.5,5.1,0,7.7
			c0.5,2.3,1.9,3.7,4.2,3.7c1.7,0,3.3,0,4.8,0c1.6-1.6,3.1-3.2,5-5.1c0-1.6,0.1-3.9,0-6.2c-0.2-2.8,1-5.2,2.1-7.7
			c1-2.2,2-2.6,3.7-1.7c7.1,3.8,14.7,6.9,21,12c0.1,0.1,0.1,0.3,0.4,0.7c-2.5,2.7-3.9,6.1-4.6,9.9c-0.7,3.5-3.2,6.3-3.9,9.9
			c-0.5,2.6-0.2,4.4,2.3,5.2c1.9,0.6,3.8,1.3,5.7,2c2.8,1,5.1-0.7,7.5-3.4c2.1-2.3,2.4-5.1,3.4-7.7c1-2.6,1.3-5.4,2.4-8
			c0.3-0.7,0-1.6,0-2.9c2.2,0.3,4.6,0.2,6.4,1.1c1.5,0.8,2.8,0.9,4.2,0.8c2.1-0.2,3.7,0.5,5.4,1.5c-0.1,4,0.6,7.9,2.4,11.5
			c0.3,0.7,0.5,1.5,0.6,2.3c0.4,2.2,0.5,4.4,1.1,6.6c0.3,1.1,1.3,2.4,2.3,3c3,1.8,8.9-0.4,10.1-3.8c0.6-1.6,1-3.7,0.4-5.2
			c-1-2.5-1.1-5.2-2.2-7.6c-0.3-0.6-0.5-1.1-0.7-1.7c-0.4-2-0.8-4-1.3-6.3c8.1-0.3,15.4-2.5,22.6-5.2c2,3,1.7,6.4,1.7,9.8
			c0,3.4,1.4,7,2.9,10.8c0.8,2,2.6,2.9,3.4,4.3c5.1,1,8.7-1.9,12.4-4c0.4-2.5,0.6-4.6-1.6-6.4c-0.7-0.6-1.3-2-0.3-3.6
			c0.5-0.9,0.9-2.9-0.6-4.1c-0.1-0.1-0.3-0.2-0.3-0.4c-0.3-4.3-0.6-8.7-0.9-12.9c6.3-2.7,12.8-2.8,19.5-2.4c0.4,1,0.6,2.1,1.1,3.1
			c1.3,3,1.6,5.8,0.7,9.2c-0.9,3.1-0.5,6.6-0.3,9.9c0.2,2.5,3.9,4.5,6.5,3.7c2.5-0.8,4.7-2.1,6.4-4.5c0-3.3,0.1-7,0-10.6
			c-0.2-3.5-0.7-7-1-10.7c3.8,0,7.4-0.6,10.7,0.2c2.9,0.7,5.7,0.8,8.6,0.8c4.4,0.1,7.4,2.1,9.8,6.5c1.1,2,1.5,4,2.1,6.2
			c1.3,4.7,0.7,9.4,1,14.2c0.9,0,1.7,0,2.8,0c-0.2-2.4,0.9-4.9-0.8-7.3c-0.2-0.3-0.1-1-0.1-1.5c0.5-3.8-0.8-7.2-2-10.7
			c-1.4-4.3-4.1-7.4-8.1-9c-0.6-0.2-1.3-0.5-1.8-0.4c-3.6,0.7-7-1.3-10.6-1.1c-3.7,0.2-7.3,0-11.2,0c-1.3-3.8,0.7-7.1,1.7-10.4
			c0.5-1.6,1.7-3,2.4-4.5c1.3-3,0.6-5.6-2.1-7c-1.6-0.9-3.4-1.6-5.2-2c-1.8-0.4-3,0.8-4.2,2.1c-2.1,2.3-2.7,5.3-3.5,8.1
			c-1.3,4-1.9,8.2-2.8,12.5c-4.2,0.7-8.6,1.4-13.2,1.4c-2.6,0.1-5.3,1.6-8.1,2.6c-4.5-3.6-5.9-8.8-6.3-14.4
			c-0.1-1.2,0.2-2.4-0.1-3.5c-0.5-2.4-3.5-3.7-5.9-2.3c-4.1,2.2-7.5,5.1-7.1,10.5c0.1,0.7,0.1,1.3,0,2c-0.5,3.5,0.7,6.6,2.1,9.6
			c0.6,1.3,1.1,2.5,1.8,4.1c-6.9,3-14.3,4-21.8,5.6c1.2-7.1,4.1-13.2,2.8-20c-0.7-0.7-1.5-1.5-2.3-2.3c-5.9,0-5.9,0-9.1,3.2
			c-1.4,6.4-0.7,12.8-3.6,18.5c-4.7,1.1-11-0.7-14.8-2.3c0.7-1.2,1.8-2.2,3-2.8c0-2.4,0-4.9,0-7.4c-0.1-2.5-1.7-4.2-4.2-4.2
			c-1.5,0-3,0-4.5,0c-2.3,0.1-3.8,1.4-4.3,3.7c-0.1,0.8-0.2,1.6-0.5,2.3c-1.5,3.6-2.1,3.6-5.5,1.5c-4.5-2.7-9.1-5.3-13.8-7.8
			c-2.3-1.2-4.8-2.1-7.5-3.2c1.5-2.1,2.5-4.1,5.3-4.6c1.4-0.3,2.7-1.5,4-2.4c2.5-1.9,3.3-4.9,4.5-7.6c0.7-1.5,0.5-3.5,0.7-5.3
			c-1-0.9-1.8-1.7-2.8-2.6c-2.6,0-5.4-0.3-8.2,0.1c-1.9,0.2-3.5,1.4-4.7,3c-1,1.2-2.6,2-2.5,4c0,1.2-0.4,2.5-1.1,3.5
			c-1,1.4-2.5,2.4-3.2,4.2c-0.4,1-2,1.5-3,2.2c-0.9,0.6-1.9,1.1-2.8,1.8c-1.5,1.2-1.5,1.3-5.1,0.8c1-2,1.9-4,3.1-5.8
			c2.6-3.9,4.5-8,4.2-12.8c-0.2-3,0.1-6-0.8-9.2c-0.6-2.2-2.2-2.2-3.3-2.6c-1.4-0.6-2.9,0.5-3.9,1.8c-0.9,1.2-1.1,2.6-1,4.1
			c0.1,2.3,0.3,4.7-0.1,7c-0.3,2.1-1.2,4.1-1.9,6.2c-0.6,1.6-1.3,3.1-2,4.7c-1.3,2.9-2.4,6-4.2,8.8c-0.5,0.7-1.4,1.1-2.5,1.9
			c-1-4.1,1.1-7.2,1.8-10.5c0.6-3.3,2.4-6.5,2.8-9.8c0.4-3.6,2.6-6.3,3.3-9.7c0.7-3.3,2.4-6.3,3.8-9.4c1.4-3.1,3-6.1,4.5-9.2
			c2.4,3.2,5.4,4.5,9.4,4.2c2.6-0.2,5.3-0.2,8,0c2.3,0.2,4.6,0.9,6.9,1.3c-2.6,9,1.2,16.2,10.1,17c-3.3,8.4,3,19.9,12.1,21.7
			c3.7,0.8,7.3,2.1,11.2,1.9c2.8-0.1,5.7-0.3,8.5,0c3.5,0.4,6.4-1.8,9.7-2.1c3-3,6.6-5.4,6.8-10.6c0.2-5.9-2.5-9.5-7-12.4
			c-0.7-0.4-1.3-0.8-1.7-1c-1.6-2.4,1.4-4.8-0.7-6.8c-1.8,1.7-1.8,1.7-1.7,7.5c0.9,0.7,1.9,1.7,3,2.2c3.3,1.7,4.9,4.8,5.8,7.8
			c1.1,3.7-1.4,8.5-4.7,10.2c-3.4,1.7-6.9,3-10.8,3c-2.3,0-4.7,0.3-7-0.1c-5.1-0.7-10.3-1-14.9-3.8c-2.2-1.3-3.9-2.8-4.8-5
			c-1-2.3-1.9-4.6-2.6-6.9c-0.3-1,0.1-2.3,0.5-3.2c3.5-7.4,7.5-14.4,12.7-20.8c1.4-1.8,2.4-3.9,3.6-5.8c-0.4-0.4-0.8-0.8-1.2-1.2
			c-0.2,0.1-0.5,0.1-0.6,0.3c-1.6,2.2-3,4.4-4.6,6.6c-0.9,1.1-1.8,2.5-3.7,2c-1.4-0.4-2.7-0.7-4.1-1c-1.4-0.3-3,0.6-4.2-0.9
			c-0.2-0.3-1,0-1.4-0.1c-1.9-0.4-3.8,0.6-5.7-0.9c-1.2-0.9-3.3,0.3-5.1-1c-1-0.7-2.9-0.1-4.4-0.1c-3.5,0-7,0-11,0
			c0.3-0.8,0.4-1.8,0.7-1.9c3.3-0.8,6.6-1.8,9.8-2.9c1.7-0.6,3.9-0.3,6.1,0.6c5.5,2.4,11.9,2.8,18.6,2.1c1.9-0.2,4.1-1,5.5-2.3
			c1.7-1.5,3.8-2.4,5.7-3.3c2.2-1.1,3.5-2.8,5.2-4.4c1-1,0.6-3.1-0.4-4.4c-2.2-3-5.7-4.2-8.8-5.4c-4.3-1.6-8.7-3.3-13.1-4.7
			c-1.6-0.5-3.8,0.6-4.9-1.5c-4.8-0.5-9.7-1.5-14.6-1c-2,0.2-3.9,1-5.9,1.5c-0.9,0.2-1.8,0.3-3.3,0.6c0.7-1.7,0.9-2.9,1.6-3.9
			c4-5.8,3.9-12.4,3.8-18.9c-1.6-2.9-0.1-6.3-1.2-9c-1.3-3.2,0.2-6.8-1.8-9.8c-0.4-0.6-0.1-1.6-0.1-2.5c0.9,0.4,1.6,0.8,2.3,0.9
			c2.4,0.2,4.9-0.3,7.1,1c5.1-0.8,10,1.1,15.1,1.1c10.2-0.2,20.3-0.2,30.5,0c3.3,0.1,6.3-1.2,9.6-1.1c3.3,0.1,6.8,0.6,10-0.2
			c3.3-0.8,6.5-0.4,9.6-0.9c5.5-1,11.1-1.5,16.7-1.9c2.4-2.1,5.5-0.5,8.3-1.8c2.3-1.1,5.5-0.4,8-1.3c6-2.2,12.6-2.2,18.5-4.9
			c2.8,0.3,5.5-0.7,8-1.3c3.8-0.8,7.4-0.5,11.1-0.8c6.3-0.5,12.3,1.4,18.1,3.3c7.6,2.5,14.9,5.9,22.2,9c-2.3,1.4-4.5,2.9-6.9,4
			c-3.2,1.4-4.6,4.2-6.1,6.9c-1.5,2.7-2.9,5.5-3,8.8c-0.1,1.5-0.8,3-0.9,4.6c-0.2,1.6-0.1,3.3,0,5c0.3,3.3,0.8,6.6,1.8,9.8
			c0.1,0.5,0.2,0.9,0.2,1.4c-0.2,5.8,2.4,11.3,2,17.2c2,2.4,0.2,5.6,1.9,8.3c0.5,0.9,0.1,2.6-0.5,4.2c-1.5,4.1-2.4,8.4-3.4,12.6
			c-1.2,5.4-2.2,10.8-3.2,16.2c-0.8,4.6-1.9,9-1.9,13.7c0,2-0.8,4-0.9,6.1c-0.1,1.9-0.4,4.2,0.4,5.8c0.9,1.9,0.1,3.6,0.6,5.3
			c0.5,1.8,1.5,3.5,1.7,5.3c0.4,3,1.1,5.8,2.2,8.6c0.6,1.6,1.2,3.1,2.1,4.7c2.6,4.5,5.2,5.5,9.7,3.3c1-0.5,1.9-1.1,3.1-1.9
			c0.1,1.1,0.2,2.1,0.3,3.1c0.1,2.6,0,5.1,0.9,7.6c0.8,2.2-0.1,4.7,1,7.1c0.9,2.1,0.3,4.6,0.9,7.1c0.8,3.2,1.6,6.4,3.3,9.2
			c3.2,5.4,5.6,11.2,6.6,17.2c1,6.1,3,12.3,0.4,18.6c-0.1,5.8-2.4,10.9-4.9,16C417.9,589.2,415.1,592.7,410.9,596.5z M364,419.6
			c-0.3-2.2,0.6-4.5-1-6.5c-1.3-1.7-2.6-3.6-3.8-5.4c-1.9-2.7-5-3.8-7.6-5.7c-2.7-1.9-5.9-3-8.9-3.8c-3.4-1-6.9-2.6-10.6-2.2
			c-3.3-2.2-7.4,0.2-10.7-2c-6.2-0.6-12.4,0.7-18.6,1.1c-2.1,0.1-4.5,0.8-6.1,2c-2.5,1.8-5,2.2-7.7,1.8c-3.6-0.5-7.1,0.7-10.5,1.3
			c-3.8,0.7-7.1,2.9-9.4,6.5c-0.9,3.4,1,6.5,3.6,8c2.2,1.3,3.2,3,4.3,4.8c1.8,3.2,4.5,5.4,7.5,7.3c2.8-0.6,4,1.7,4.4,3.5
			c1,5.5,5.6,7.2,9.4,9.5c2.3,1.4,5.2,2,7.9,2.6c4.2,1,8.1,0.7,11.9-1.9c4.2-2.9,6.1-6.9,7-11.5c0.6-2.7,0.8-3,3.3-3.1
			c4.2-0.2,8.4,0.2,12.6-0.9c3.3-0.8,5.3-2.4,6.8-5.3c2.3,0.5,4.8,0.5,6.9,1.4C358.3,422.8,361.1,421.9,364,419.6z M295.1,552
			c1.5,0,3.1,0.4,4.4-0.1c4.2-1.6,8.4-0.8,12.6-0.9c3.4-0.1,6.6-1.8,10.1-1.1c1.3-1.4,3-0.8,4.6-1c1.5-0.2,3.1-0.7,4.6-1
			c3.7-0.7,7.3-1.5,10.9-2.7c5-1.6,9.9-3.4,14.8-5.2c7.2-2.6,13.1-7.1,19.4-11.2c0.4-0.3,0.3-1.2,0.5-2.3c-1,0.4-1.4,0.5-1.8,0.7
			c-2.9,1.9-5.6,4-8.7,5.5c-8.6,4.2-17.1,8.7-26.6,10.6c-3.7,0.8-7.2,2.1-11,2.6c-2.4,0.3-5,0.1-7,1c-2.5,1.1-4.9,0.2-7.1,0.9
			c-2.4,0.7-4.7,1-7.1,1c-4.1-0.1-8.3,0-12.5,0C295.1,550.1,295.1,550.9,295.1,552z"/>
		<path class="st0" d="M541.2,439.9c-2.2,3.4-5.2,5.1-8.4,6.8c-8.7,4.8-18.1,7.9-27.3,11.2c-2.3,0.8-5,0.7-7.5,1.2
			c-1.2,0.2-2.4,0.8-3.6,0.9c-1.3,0.2-2.7,0.1-4,0c-6.7-0.2-12.4-2.6-17.7-6.7c-5.9-4.5-10.8-10.2-16.1-15.3
			c-1.8-1.7-3.2-3.9-4.6-6.1c-2.1-3.3-4.6-6.2-7.5-8.9c-3-2.7-6.9-2.9-9.9-0.2c-4.7,4.3-9.2,8.8-12.3,14.4c-1.3,2.2-1.9,4.9-2.3,7.5
			c-0.4,2.5,0.8,4.9,1.5,7.3c0.7,2.6,1.8,5.1,1.4,7.9c-0.2,1.4,1,2.6,0.1,4.2c-0.6,1.2,0.2,3-0.2,4.4c-1.2,4.3-2.4,8.7-4,12.8
			c-1,2.4-2.3,4.7-3.2,7.2c-1,2.7-2.8,5.2-4.5,7.6c-1.3,1.8-3.3,3-5.8,2.8c-1-0.1-2,0-2.9,0c-3.6-6.4-5.3-13.7-6.7-19.8
			c-0.7-3.3-0.6-6.4-0.8-9.6c-0.2-3.3-0.6-6.8,0.1-10c1.3-6.4,1.5-13.1,3.9-19.3c-0.2-5.3,2.1-10.1,3.2-15.2
			c1.2-6,3.5-11.9,6.9-17.1c4.7-7.2,10.6-13.2,19.2-15.6c5-1.4,10.3-2.7,15.5-0.4c4.4-0.5,8.1,2.2,12.2,3.1c3.3,0.7,5.4,3.6,7.5,6
			c2.4,2.7,4.6,5.7,6.7,8.7c2.2,3.1,4.5,6.1,6.3,9.4c3.4,6,7,11.8,12.4,16.3c3.2,2.7,6.8,4.5,11.1,4.6c4,0.1,8,0.3,12-0.1
			c3.1-0.3,6.3-0.6,9.3-1.6c0.7-0.3,1.6-0.2,2.4-0.3c2-0.3,4-0.1,6.1-0.8c3.3-1.1,6.9,0.7,10.3,1.4
			C540.4,438.7,540.7,439.3,541.2,439.9z"/>
		<path class="st0" d="M198.4,433.2c-1.4,4.2-2.6,8-3.9,11.8c-1.9,5.8-3.8,11.5-4.6,17.6c-0.4,2.7-1.4,5.4-2.2,8.2
			c-3.4-2-7-3.7-10.2-6c-1.8-1.3-3-3.4-4.5-5.1c-1.2-1.3-2.4-2.7-3.8-3.8c-1.3-1.1-3.1-1.6-4.3-2.7c-2.2-2.1-4.7-2.7-7.6-2.2
			c-0.7,1.3-0.4,2.4,0.7,3.4c2.1,1.9,4.1,3.9,6,6c3.5,3.7,7.2,7.2,10.2,11.3c3.7,5,7.8,9.8,8.8,16.3c2.6,3.3,0.5,6.7-0.4,9.5
			c-1.6,4.8-2.3,9.7-3.5,14.5c-0.9,3.3-2,6.6-2.1,10.2c-0.1,2.9-3.9,5.5-7.3,5.6c-5.3,0.2-10.8,0.7-16-0.1
			c-5.3-0.8-10.8-1.5-15.6-4.4c-1.4-0.8-2.7-1.7-4.2-2.8c3.3-2.7,6.9-4,10.7-4.7c5-1,10.1-1.8,14.4-4.9c2.6-1.9,4-4.1,4.2-7.4
			c0.4-6.2-2.7-10.9-6.4-15.4c-1-1.2-2.6-2-2.9-3.8c-0.1-0.4-0.6-0.9-1-1c-3.4-1.3-5.2-4.6-8.3-6.5c-5.6-3.5-10.1-8.2-12.8-14.5
			c-2.5-5.6-3.8-11.6-2.5-17.3c1.2-5.1,3-10.3,8.4-13.5c3-1.7,5.6-3.9,9-4.8c2.7-0.7,5.4-1.8,8.3-1.7c1.8,0.1,3.7,0.1,5.5,0
			c6.2-0.5,12.2,0.6,18.1,2.1C185.2,428.7,191.6,431.1,198.4,433.2z"/>
		<path class="st0" d="M141,209c3.1-0.3,5.9-2,9.1-2c4.8-0.1,9.4,1,13.9,2.6c1.6,0.6,2.8,0.7,4.5-0.3c3-1.8,6.3-3.1,9.5-4.6
			c2.7-1.3,5.3-2.4,8.4-2.6c1.8-0.1,3.6-1,5.6-1c5.1,0.2,9.5,2,13.1,5.5c1.3,1.2,2.7,2.4,4,3.5c1.2,3.3,2.4,6.7,3.5,10
			c0.3,0.9,0.5,1.8,0.8,2.9c4.7-4.2,10-7.4,15.7-9.9c2.3-1,4.5-2.1,7.2-2.1c1.7,0,3.4-1.1,5.1-0.9c5.8,0.7,11.3,2.3,15.8,6.4
			c3.6,3.3,6.6,7,8.4,11.5c0.8,2,1.8,3.2,4.1,3.2c1.1,0,2.3,0.9,4.5,1.8c-3.8,0-6.6,0.1-9.4,0c-2.5-0.1-5.2,0.7-7.6-0.9
			c-0.7-0.5-2-0.1-3-0.1c-22,0-44,0-65.9,0c-1.9,0-3.7,0.3-5.6,0.9c-3.3,1.1-6.9-0.1-10-1.1c-3.7-1.2-7.6-1.8-11.3-2.7
			c-5.7-1.3-11.3-3.2-17.2-3.1c-2-1.5-4.7-0.2-6.5-1.2c-2.2-1.3-4.3-0.1-6.2-0.9c-2.8-1.2-5.7-0.7-8.6-1c-1.6-0.2-3.2-0.9-4.8-1.3
			c4.3-3.2,9.3-3.8,14.2-4.6c1-0.2,2.1,0.3,3.5,0.5C136.9,214.7,138.7,211.7,141,209z"/>
		<path class="st0" d="M224,195c0.5,0,1.2,0.2,1.5,0c3-2.8,6.8-2.3,10.1-1.8c2.8,0.5,5.4,2.2,7.8,3.9c3,2.1,6.1,4.1,7.8,7.6
			c0.5,1,1.6,1.6,2.3,2.4c4.9-1.9,9.7-3.2,14.8-3c5.3,0.2,10.3,1.7,14,5.9c1,1.1,2,2.2,3.2,3.5c3-3.3,5.7-0.2,8.4,0.2
			c2.4,0.3,4.7,1.5,7,2.4c1,1.2,1.9,2.4,3,3.8c-13.9,0-27.7,0-41.6,0c-2.5-1.9-4.5-4.7-7.5-6.6c-5.5-3.5-11.4-5.1-17.7-4.2
			c-6,0.9-11.5,3.5-16.6,6.7c-2.1,1.3-4.1,2.7-6.2,4.1c-1.2-2.8-2.2-5.5-3.5-8.1c-0.4-0.8-1.3-1.3-2-1.9c0.7-2-1.8-2.5-2.1-4.3
			c3.5-2.4,7.6-3.3,11.6-4.7c0.7-0.3,1.6-0.5,2-1.1C221.8,198.4,222.8,196.7,224,195z"/>
		<path class="st0" d="M264.6,403.7c-0.3,3.2-2.1,4.2-4,5.1c-3.5,1.7-6.2,4.6-10.3,5.4c-3.2,0.6-8.5,1-11.4,0.2
			c-7.8-2.1-15.1-5.4-22.2-9.2c-3.3-1.8-6.6-1.8-10.1-0.3c-2.7,1.2-5.4,2.1-8.7,3.4c1.1-3.1,3.7-4.1,5.6-5.2c3.5-2,6.6-4.7,10.2-6.6
			c2.8-1.5,6.6-2.9,9.5-3.7c2.5-0.6,5-1.3,7.6-0.9c6.7,1.2,13.5,2.3,19.8,5.2c2.9,1.3,6,2.5,8.9,3.8
			C261.5,401.9,263.2,403,264.6,403.7z"/>
		<path class="st0" d="M329.3,501.2c-2.2,1.9-4.9,1.4-6.6,3.4c-0.9,1.1-4.9-0.4-5.6-2.2c-0.8-2.3-2.3-4.3-2.2-7.1
			c0.3-7.2-1.7-15.5-5.6-22.6c-2.4-4.2-1.5-8.7-0.2-13c0.7-2.2,4-4.2,5.7-3.7c0.9,0.3,1.7,1.3,2.2,2.1c0.3,0.6,0.1,1.6,0.1,2.5
			c-0.1,4.8,1.6,8.9,4.7,12.5c2.8,3.2,3.6,7.2,4.3,11.2c0.3,1.5,0,3,0,4.5c0,2.3-0.4,4.8,0.1,7C326.6,497.7,328.1,499.3,329.3,501.2
			z"/>
		<path class="st0" d="M225.4,445.1c1.7-0.6,3.8,0.7,5.1-1.1c1.8,0.4,3.6,0.8,5.6,1.3c-0.6,3.7-1.8,7-3.9,9.9
			c-0.9,1.2-2.4,2.5-3.8,2.7c-3.3,0.3-4.8,2.6-6.4,4.8c-3.2,4.4-5.2,9.3-5,14.9c0.1,1.7,0,3.3-0.7,5.2c-0.8,1.9-2.1,2.3-3.4,2.9
			c-1.3,0.5-2.9,0.6-4.3,0.3c-0.9-0.2-1.5-1.4-1.6-2.7c-0.2-6,0.1-10.1,2.1-15.6c1.1-3.1,2.9-5.9,6.1-7.6c3.4-1.8,5-5.3,6.8-8.4
			C221.2,448.3,223.7,446.9,225.4,445.1z"/>
		<path class="st0" d="M359,493.7c-1,0.7-2.1,2-3.3,2.2c-4.8,0.9-5.8,0-5.6-5.1c0.2-4,1.5-8,0.9-12.1c-0.1-0.9-0.2-2-0.6-2.8
			c-1.9-3.6-1.9-7.2-0.5-11c1-2.8,1.2-5.8,2.1-8.6c0.7-2.2,2-4.2,2.9-6.1c3.4-0.5,6.1-0.1,8.3,2.6c-2.1,3.5-3.4,7.3-4.7,11.1
			c-0.5,1.5-0.5,2.9-0.5,4.3c0,1.6-2,3-0.8,4.5c1.3,1.6,0.6,3.1,0.8,4.7c0.2,1.6,0.6,3.1,0.8,4.6C359.4,485.7,359,489.5,359,493.7z"
			/>
		<path class="st0" d="M239.4,501.9c2-5.1,4.2-9.8,5.5-14.6c0.7-2.5,2.1-4.3,3.6-6c2.3-2.8,4.5-5.3,4.6-9.1c0-0.5,0.5-1.2,1-1.6
			c0.9-0.8,5-0.7,6,0c2.2,1.6,2.9,5.9,1.1,7.8c-3,3.1-4.1,6.9-5.2,10.9c-1,3.9-1.6,7.9-3.8,11.4c-0.8,1.3-1.6,2.5-2.8,3.2
			c-0.6,0.4-1.7,1.4-3.2,0.3c-1.4-1-3.6-0.7-5.5-1.2C240.1,502.8,239.7,502.2,239.4,501.9z"/>
		<path class="st0" d="M282.5,466c0.2,0,0.4,0,0.6,0c1.8,0.4,4.4-1.1,5.4,1.2c0.9,2.1,0.7,4.6-0.1,7c-1.4,4.2-2.7,8.4-2.5,12.9
			c0.2,3.2,0.3,6.3,1.9,9.2c1.3,2.5,0.6,5.6,2.1,8.1c-1.3,1.7-0.9,4.5-4.1,5.6c-0.1,0-0.9,0-1.7,0c-2.2-0.1-3-0.7-3.1-2.7
			c-0.3-4.6-1.4-9-3.1-13.1c-1.5-3.7-0.6-6.8,0.6-10c1.1-2.8,2.5-8.8,2.6-11.4C281,470.5,280.7,468.2,282.5,466z"/>
		<path class="st0" d="M193.5,474.3c0.7-2.6,0.9-4.3,1.6-5.9c1.4-2.9,3.1-5.7,4.5-8.6c3.5-7,6.2-14.1,5.4-22.2
			c-0.3-3.2,0.1-3.3,3.6-3.6c0.4,2.1,1.2,4.3,1.2,6.4c0,3-0.2,6.2-1.1,9c-0.8,2.6-2.4,5-4.2,7.2c-1.1,1.3-1.5,2.7-2,4.2
			c-1.2,3.3-2.4,6.7-3.7,9.9c-0.4,1-1.1,2-2,2.6C196.3,473.9,195.3,473.9,193.5,474.3z"/>
		<path class="st0" d="M199.1,410.5c2.6-0.9,5.3-1.7,7.7-2.9c3.2-1.6,6.1-1.6,9.2,0c1.4,0.7,2.7,1.4,4.1,2.1c1.2,0.6,2.5,1.1,4.4,2
			c-3.9,1.5-7.1,3.4-11,3.4C209.7,415,201.5,412.4,199.1,410.5z"/>
		<path class="st0" d="M407.4,354.6c1.9-0.8,3-1.2,4.1-1.7c2.6-1.3,5-1.9,8-0.1c4.2,2.6,9,4.4,14,6.8
			C424,360.9,415.9,359,407.4,354.6z"/>
		<path class="st0" d="M187.1,473.4c-0.5,2.7,0.6,5.5-0.9,8.4c-0.7,1.3-0.1,3.2-0.1,5.7c-1.4-3-2.4-5.4-3.7-7.6
			c-1.3-2.3-2.8-4.5-4.3-6.6c-1.6-2.3-3.3-4.5-5-6.7c1.7-1.3,2.9-0.1,4,0.5C180.3,469,183.5,471.2,187.1,473.4z"/>
		<path class="st0" d="M244.3,436.9c-5.6,0.1-7-0.8-9.3-6.4c0.3-0.2,0.7-0.5,0.8-0.5c2.8,1.8,5.1,0.7,7.1-1.4
			c1.2-1.2,2.3-2.4,3.5-3.5c1.5,0,2.9,0,4.9,0C248.9,429.1,246.8,432.7,244.3,436.9z"/>
		<path class="st0" d="M544.8,526.2c0.5,12.4,0.5,12.4-1.3,14.7c-2.5-3.4-2.9-7.7-4.4-11.6c-0.4-1.2,0.7-2.9,1-3.9
			C541.7,525.7,543.1,525.9,544.8,526.2z"/>
		<path class="st0" d="M173.5,464.6c-1.1,0.3-1.5,0.5-1.7,0.4c-3.3-3.1-6.6-6.3-9.7-9.7C167.2,456.6,170.5,460,173.5,464.6z"/>
		<path class="st0" d="M550.2,535.4c-0.6-3-1-5.4-1.5-8.2c2.3,0,4.2,0,6.3,0C553.4,529.8,552,532.3,550.2,535.4z"/>
		<path class="st0" d="M481.5,202.1c2.7-0.5,5.7-0.6,8.3-1.6c1.5-0.6,2.9-0.3,4.3-0.5c1.9-0.3,3.9,0.7,5.7-0.9
			c0.5-0.5,2.3-0.4,2.8,0.1c1.2,1.2,2.4,0.7,3.7,0.8c0.8,0.1,1.9-0.2,2.4,0.2c2.8,2.4,6.1,2,9.3,1.7c2.2-0.2,4.1,0.8,6.1,1.1
			c1.9,0.3,3.7-0.2,5.7,0.7c2,0.9,4.5,0.7,6.7,1.9c2.5,1.3,4.7,2.7,6.8,5.2c-0.3,1.9-0.7,4.3-1.2,6.7c2.5,2,4.7-1.2,7.3-0.5
			c2.3,0.6,4.7,0.9,7.6,1.4c0.7,0.8,1.8,2,3,3.4c-1,0.1-2,0.2-3,0.2c-59.3,0-118.6,0-177.8,0.1c-4.1,0-7.2-2.1-10.3-4
			c-2.4-1.5-2.4-3.8-0.4-5.7c1.1-1.1,2.4-2.1,3.8-2.8c5-2.6,10.4-3.9,15.7-5.5c1.6-0.5,3.4-0.6,5.1-1.1c0.7-0.2,1.6-0.7,1.9-1.3
			c1.6-3.1,4.1-5.2,7-7.1c2.3-1.5,3.9-3.8,6.3-5.3c1.8-1.2,3.7-2.3,5.5-3.6c2-1.4,4-2.3,6.3-3.1c6.4-2.1,7.1-2.2,13.2-0.2
			c0.7,0.2,1.5,0.4,2.3,0.5c3.7,0.4,7.6,0.1,11,1.2c3.4,1.1,7.2,0.7,10.3,2.8c7.2,0.8,13.3,4,19.2,8
			C478.4,196.7,479.2,196.9,481.5,202.1z"/>
		<path class="st0" d="M480,198c0.4-1.6-0.8-2.5-1.8-3.2c-3.9-2.7-8.1-5.1-12.6-6.7c-2.5-0.9-4.8-2.2-7.6-2.2c-0.7,0-1.5-1-2.1-1.4
			c0.7-2.9,3.1-4.7,3.1-7.5c1.7-0.8,2.3-2.5,3.4-3.7c6.4-7.1,13.8-12.6,23.5-14.3c1.2-0.2,2.2-1.1,3.6-1c4.8,0.2,9.9-0.8,14.4,0.3
			c4.5,1.1,9.1,2.7,13.3,5.2c5,2.9,8.6,6.9,12.4,10.9c3.9,4.1,6.2,9.3,7.4,14.9c1,4.8,2.3,9.6,1.9,15c-2.3-0.4-4.5-0.7-6.6-1.2
			c-5-1.3-10-2.1-15.2-2c-2.5,0.1-4.9-0.5-7.4-1.4c-4.7-1.8-9.9-2.6-15-0.8c-1,0.4-2.3,0.1-3.4,0.3c-2.9,0.4-5.9,1-8.9,1.5
			C481.8,199.8,480.9,198.9,480,198z"/>
		<path class="st0" d="M521,236c-1.2,0.4-2.6,0.4-3.5,1.1c-5.7,4.2-12.2,5.6-19,5.9c-2.5,0.1-5,0-7.5,0c-3.9,0.1-7.5-1.1-10.9-2.5
			c-6.6-2.7-12.3-6.6-17-11.9c-1.3-1.5-1.7-3.9-4-4.5c0-1.4,1.1-1,1.8-1c4.3,0,8.7,0,13,0c17.7,0,35.3,0,53,0c1.6,0,3.3,0,5.6,0
			c-1.6,2-2.7,3.6-4,5.1C526,230.8,523.5,233.4,521,236z"/>
		<path class="st0" d="M76,378c1.8-0.3,3.7-0.6,5.5-1.1c0.6-0.2,1.2-1.1,1.4-1.8c1.4-4.5,4.8-7.5,8.1-10.6c3.9-3.7,8.8-4.2,13.8-3.1
			c3.7,0.9,8.4,3.8,11.3,6.2c1,0.9,2.2,1.6,3.8,2.6c1.6-5.3,3.6-10.2,7-14.3c0.6-0.1,1.3-0.1,1.8-0.4c3.4-2.1,6.7-1.9,10.5-0.9
			c4.1,1,7.6,2.6,11,5c1.1,0.8,2.7,2.2,4.6,0.4c0.9-0.8,2.6-0.8,4-1.1c1.5-0.3,3.3,0.7,4.6-1c1.1,1.5,2.7,0.7,4.1,1
			c3.6,0.7,5.6,3.2,6.7,6.8c2.1,0.6,4.8-0.5,6.8,1.2c5-0.2,7.4,3.6,9.9,6.9c1,1.3,1.7,2.1,3.3,2.1c0.9,0,1.7,0.7,2.6,0.9
			c1.7,0.5,3.1,1.6,3.1,3.2c0,1.6-0.8,3.3-1.5,4.8c-0.2,0.5-1,0.8-1.6,0.9c-0.8,0.2-1.7,0-2.5,0c-39.6,0-79.2,0-118.8,0
			c-0.8,0-1.6,0-2.9,0C73.9,383,74.9,380.5,76,378z"/>
		<path d="M364,419.6c-2.9,2.3-5.8,3.2-9.4,1.7c-2.1-0.9-4.6-1-6.9-1.4c-1.5,2.9-3.6,4.5-6.8,5.3c-4.2,1-8.4,0.7-12.6,0.9
			c-2.5,0.1-2.7,0.4-3.3,3.1c-1,4.7-2.9,8.7-7,11.5c-3.8,2.6-7.7,2.9-11.9,1.9c-2.7-0.6-5.5-1.3-7.9-2.6c-3.9-2.3-8.5-4-9.4-9.5
			c-0.3-1.8-1.5-4.1-4.4-3.5c-3-1.9-5.7-4.1-7.5-7.3c-1-1.8-2.1-3.5-4.3-4.8c-2.6-1.5-4.5-4.6-3.6-8c2.3-3.5,5.6-5.8,9.4-6.5
			c3.4-0.6,6.9-1.8,10.5-1.3c2.7,0.3,5.3,0,7.7-1.8c1.6-1.2,4-1.9,6.1-2c6.2-0.4,12.3-1.7,18.6-1.1c3.3,2.2,7.4-0.2,10.7,2
			c3.8-0.4,7.2,1.2,10.6,2.2c3,0.8,6.2,1.9,8.9,3.8c2.6,1.8,5.7,3,7.6,5.7c1.3,1.8,2.5,3.7,3.8,5.4
			C364.6,415.1,363.8,417.4,364,419.6z M362.1,419c-0.1-5.5-2.9-9.3-6.7-11.9c-9.5-6.4-20.2-9.6-31.7-10.1c-2.2-0.1-4.5,0.4-6.6-0.9
			c-0.8-0.5-2.7-0.6-3.4,0c-1.8,1.6-3.8,0.9-5.7,0.8c-3.6-0.1-6.7,1.6-10.2,2.1c-2.4,2.8-5.6,2-8.7,2c-2.9,0-5.6,1.7-8.6,1
			c-3.2,2.1-8,1.6-9.6,6.1c2.2,4.8,5.9,7.6,10.9,9c2.9,0.8,5.5,2.2,8.6,2c3,2.6,5.7-0.1,8.5-0.6c4-3.9,9.2-3.6,14.1-4.4
			c4.6-0.8,9,0.9,13.6,1c4.7,0.1,9.5,0.1,14,1.2c2.4,0.5,4.8,0.3,7,1.1c3.2,1.1,6.3,2,9.8,1.7C358.8,418.9,360.2,419,362.1,419z
			 M278.8,418.9c2.7,4.2,6.8,5.3,10.5,6.9c0.4,0.2,1.1,0.3,1.3,0.1c2.8-2.1,6.3-2.7,9.5-3.4c3.6-0.8,7.3-2.3,10.8-1.3
			c2.3,0.7,4.6,0.3,6.6,1c2.2,0.8,4.4,0.8,6.6,0.9c0.5,0,1.1-0.1,1.4,0.1c2.9,2,6.2,1,9.1,0.7c2.9-0.3,5.9-0.9,8.6-1.9
			c0.8-0.3,1.3-1.5,2.6-2.9c-2.7,0-4.9,0.7-6.2-0.2c-2-1.3-3.8-0.5-5.7-0.8c-1.9-0.3-3.7-0.9-5.6-1c-6.6-0.1-13.3-0.1-19.9,0
			c-2.3,0-4.2,0.9-6.1,2.1c-2.7,1.7-5.3,3.1-8.8,3C288.7,421.9,284.1,420.5,278.8,418.9z M293.4,434c1.2,1,1.7,1.6,2.3,2
			c1.8,0.9,3.6,1.8,5.4,2.6c1,0.4,2.1,0.6,3,1.1c1.4,0.8,3,0.2,4.6,1.1c2.1,1.3,4.6-0.8,6.9-1c4.2-4,7.8-8.4,7.3-14.9
			c-1.8,0-3.3,0.1-4.8,0c-1.5-0.2-3-0.7-4.7-1.1c-0.7,1.8-1,3.8-2,5.2c-2.4,3.3-5.6,5.2-9.9,5C299,433.9,296.6,434,293.4,434z
			 M293.2,427.4c-0.6,1.8,0.1,3,1.6,3.6c4,1.6,7.7,1.4,11.8-0.8c2.8-1.5,3.1-3.5,3.5-6c-2.2,0-4.1,0-6.1,0c0.4,2.6-1.1,4-2.9,4.7
			c-2.7,1-4-1.5-5.5-2.8C294.7,426.6,293.9,427,293.2,427.4z"/>
		<path d="M295.1,552c0-1.1,0-1.9,0-3c4.2,0,8.4-0.1,12.5,0c2.4,0.1,4.7-0.3,7.1-1c2.3-0.6,4.7,0.2,7.1-0.9c2-0.9,4.7-0.7,7-1
			c3.8-0.5,7.3-1.8,11-2.6c9.5-2,18-6.4,26.6-10.6c3.1-1.5,5.8-3.7,8.7-5.5c0.4-0.2,0.9-0.3,1.8-0.7c-0.2,1.1-0.1,2.1-0.5,2.3
			c-6.3,4.1-12.2,8.6-19.4,11.2c-4.9,1.8-9.9,3.6-14.8,5.2c-3.6,1.2-7.2,2-10.9,2.7c-1.5,0.3-3,0.8-4.6,1c-1.6,0.2-3.3-0.3-4.6,1
			c-3.5-0.7-6.7,1-10.1,1.1c-4.2,0.1-8.5-0.8-12.6,0.9C298.2,552.4,296.6,552,295.1,552z"/>
		<path class="st0" d="M362.1,419c-1.9,0-3.3-0.1-4.6,0c-3.4,0.2-6.6-0.6-9.8-1.7c-2.2-0.8-4.7-0.5-7-1.1c-4.5-1-9.3-1-14-1.2
			c-4.5-0.1-9-1.9-13.6-1c-4.9,0.9-10.2,0.6-14.1,4.4c-2.8,0.5-5.4,3.2-8.5,0.6c-3.1,0.3-5.8-1.2-8.6-2c-5-1.4-8.7-4.2-10.9-9
			c1.6-4.5,6.5-4,9.6-6.1c3,0.7,5.7-1,8.6-1c3,0,6.3,0.8,8.7-2c3.4-0.4,6.6-2.1,10.2-2.1c1.8,0,3.8,0.8,5.7-0.8
			c0.7-0.6,2.5-0.5,3.4,0c2.2,1.3,4.4,0.8,6.6,0.9c11.5,0.5,22.2,3.7,31.7,10.1C359.2,409.7,362,413.5,362.1,419z"/>
		<path class="st0" d="M278.8,418.9c5.3,1.6,9.9,3,14.9,3.2c3.4,0.1,6.1-1.2,8.8-3c1.9-1.2,3.8-2.1,6.1-2.1c6.6,0,13.3-0.1,19.9,0
			c1.9,0,3.7,0.6,5.6,1c1.9,0.3,3.7-0.5,5.7,0.8c1.2,0.8,3.5,0.2,6.2,0.2c-1.2,1.5-1.7,2.6-2.6,2.9c-2.8,1-5.8,1.6-8.6,1.9
			c-2.9,0.3-6.2,1.3-9.1-0.7c-0.3-0.2-1-0.1-1.4-0.1c-2.2,0-4.4-0.1-6.6-0.9c-2-0.7-4.3-0.3-6.6-1c-3.6-1-7.3,0.5-10.8,1.3
			c-3.3,0.7-6.7,1.3-9.5,3.4c-0.3,0.2-0.9,0-1.3-0.1C285.5,424.2,281.5,423.1,278.8,418.9z"/>
		<path class="st0" d="M293.4,434c3.2,0,5.6-0.1,8.1,0c4.2,0.2,7.5-1.7,9.9-5c1-1.4,1.4-3.4,2-5.2c1.7,0.4,3.2,0.9,4.7,1.1
			c1.5,0.2,3,0,4.8,0c0.5,6.5-3.1,10.8-7.3,14.9c-2.4,0.2-4.8,2.3-6.9,1c-1.6-1-3.2-0.4-4.6-1.1c-0.9-0.5-2.1-0.7-3-1.1
			c-1.8-0.8-3.6-1.7-5.4-2.6C295.1,435.6,294.6,435,293.4,434z"/>
		<path class="st0" d="M293.2,427.4c0.7-0.4,1.5-0.8,2.5-1.3c1.5,1.3,2.8,3.8,5.5,2.8c1.8-0.7,3.3-2.1,2.9-4.7c1.9,0,3.8,0,6.1,0
			c-0.5,2.5-0.7,4.4-3.5,6c-4,2.2-7.7,2.4-11.8,0.8C293.2,430.4,292.6,429.2,293.2,427.4z"/>
	</g>
</g>
</svg>
