<svg class="cycle-js" version="1.1" id="Layer_1" xmlns="http://www.w3.org/2000/svg" xmlns:xlink="http://www.w3.org/1999/xlink" x="0px" y="0px" viewBox="0 0 664 811" style="enable-background:new 0 0 664 811;" xml:space="preserve"> <style type="text/css"> .st0{fill:#FFFFFF;} </style> <g> <path class="st0" fill="#FFFFFF" d="M665,111c0,233.7,0,467.3,0,701c-221.3,0-442.7,0-664,0C1,541.7,1,271.3,1,1c186.7,0,373.3,0,560,0 c-0.9,0.3-1.8,0.6-2.8,0.8c-9.9,2.1-20.2,3-29.6,6.4c-41.3,15.2-67.3,55.1-64.7,99c0.6,10.3,3.2,20.5,5,31.4 c-1.4,0.4-3.6,0.9-5.6,1.4c-2.8-4.7-5.3-9-8.3-14c-1.3,4.9-1.9,9.7-8.2,8.3c-1.3-1.6-2.8-3.4-4.7-5.7c-0.9,4.5-1.8,8-2.2,11.6 c-0.4,3.4-2,4.5-5.2,4.6c-9.6,0.4-18.9-6.2-21.8-15.8c-1.4-4.7-2.5-9.5-3.8-14.3c-5.7,16.6-18.9,21.9-34.5,24 c4.6,1.8,9.6,2.1,13.3,4.4c3.9,2.4,6.6,6.7,9.9,10.3c0.6-0.4,1.6-1,2.6-1.6c6.2-4,10.9-3.4,16.2,1.4c3.9,3.4,4.8,7.8,5.3,12.5 c0.2,2.5,0.7,5,1.1,8.4c2.5-3.6,4.1-6.3,6-8.8c4.5-6,11.5-6.7,16.9-1.6c3,2.8,5.4,6.3,8.2,9.4c0.8,0.9,1.9,1.5,3,2.4 c2.4-5.7,4.1-10.9,6.7-15.7c3.2-5.8,11.5-7.4,15.3-3.1c3.2,3.6,5.8,7.8,8.9,11.9c-1.7,0.3-2.8,0.4-4.2,0.7 c4.7,2.8,9.5,4.8,12.9,8.2c3.3,3.3,5.1,8.2,7.7,12.6c7.8-4.5,14.1,0.5,19.1,5.3c6.2,6,1,14.2,1.5,22.4c2.7-2.5,4.6-4.9,7.1-6.4 c2.9-1.7,6.2-3.3,9.4-3.6c6.1-0.5,9,4.1,11.5,8.9c1.9,3.7,3.6,7.6,6,12.4c1.8-2.4,2.8-3.8,3.8-5.2c2.3-3.1,4.3-6.4,6.8-9.2 c5.5-5.9,12.9-5.6,18.2,0.4c2.1,2.5,4.1,5.1,6.7,8.3c1.3-8.1-1.2-16.1,4.9-22.5c6.6-7,13.3-6.1,21.5-0.4 c1.5-13.6,12.5-14.8,21.6-18.8c-4.4-0.7-8.9-1.3-13.8-2.1c20.3-20.9,27.3-31.8,32.5-51.4C662.9,122.7,663.8,116.8,665,111z M516.4,759.5c-7.2,4.7-14.1,9.2-21.8,14.3c1.8-14.2,3.5-27.2,5.4-41.6c-8.3,6.7-15.8,12.8-23.9,19.3c0-3.2,0-5.2,0-7.2 c0-86.2,0-172.3,0-258.5c0-27-7.8-51.4-25.6-71.8c-27.7-31.8-63.6-48-105.2-52c-8.6-0.8-17.2-0.9-26.1-1.3 c-4-19.1-8.5-38.1-11.9-57.2c-1.7-9.5-4.8-17-14.4-20.6c-2.6-1-5.2-2.6-7.2-4.5c-2.1-2-4.2-4.6-5.1-7.3c-1.7-5.1-2.6-10.5-3.9-16.2 c-4.8,2-9.1,3.4-12.9,5.7c-5.5,3.3-8.1-1.1-11.8-3.4c-3.4-2.1-1.9-4.8-1.2-7.5c2.2-9.2,4.4-18.3,7-29 c-13.9,9.1-26.5,17.4-39.2,25.8c-2.1-1.8-4.3-3.1-5.9-5c-3.1-3.5-6.4-3.7-10.7-2.4c-35.7,11.1-71.5,21.9-107.2,33.1 c-19.7,6.2-39,13.4-59.8,15.3c-8.7,0.8-17.3,2.5-26.6,3.9c1.5,4.6,2.8,8.5,4.1,12.4c5.4,16.2,12.5,32.2,15.9,48.8 c8.2,40.1,14.6,80.6,21.8,120.9c1.3,7.1,2.6,14.2,3.9,21.5c17.9-3.1,35-6,52.6-9c10.2,60.1,20.4,119.7,30.6,179.4 c8.8-1.4,16.8-2.6,25-3.9c1.2,6.1,2.2,11.6,3.3,17.4c5.7-0.9,11-1.7,16.4-2.5c0.8,3.2,1.5,5.9,2.3,9.2 c-26.7,4.6-52.9,9.1-79.3,13.6c4.5,26.4,8.9,52.3,13.2,78.2c-0.3,0.2-0.6,0.5-0.9,0.7c-6.8-7.2-13.5-14.4-21.2-22.5 c-5,19.3-9.6,37.1-14.2,55.2c162.5,0,324.5,0,487.1,0c-6-13.4-11.7-26.2-17.5-39c-10.5,6.8-20.4,13.3-31.4,20.6 C518.6,780.5,517.6,770.4,516.4,759.5z M347.8,295.2c0.4,0.2,0.7,0.3,1.1,0.5c3.2-3.5,6.4-7,9.7-10.5c6.5-6.8,16-6.4,21.6,1.1 c3,4,5.1,8.5,7.9,12.7c1,1.6,3,3.8,4.2,3.6c1.7-0.2,3.5-2.2,4.7-3.9c2.5-3.7,4.4-7.9,7-11.4c6.5-8.9,15.7-9.2,23.2-1.1 c3,3.2,6,6.4,8.9,9.6c0.7-5.9,0.4-11.3,0-16.7c-1-14.1,12.1-23.5,24.8-17.6c1.3,0.6,2.7,1.2,4.4,2c0.9-2.2,2-4.1,2.6-6.1 c2-7.2,6.6-11.5,13.7-13.8c4.6-1.5,8.9-3.8,13.3-5.8c-5.8-1.2-11.5-1.6-17.1-1.7c-15.2-0.2-26.4-7-33.8-20.1 c-1-1.7-2.1-3.3-3.9-6.2c-0.6,8.1-1,14.6-1.5,21.1c-1.1,15-12.1,26.6-25.6,27.3c-2.9,0.2-4.5-0.6-5.5-3.5 c-1.8-5.6-4.1-11.1-6.6-17.7c-1.5,3.2-2.9,5.3-3.5,7.6c-0.8,2.8-2.8,3.4-5,3.4c-2.2,0-4.3-0.2-5.1-3.2c-0.6-2.4-2.2-4.5-3.7-7.5 c-2.2,5.9-4,10.7-5.8,15.5c-2.2,6-3.1,6.4-9.5,5c-12.8-2.8-21.3-13.4-22.3-27.8c-0.4-6.2-0.9-12.5-1.4-20.3 c-1.8,2.9-2.8,4.5-3.7,6.2c-7.5,13.3-18.8,20.1-34.2,20.2c-5.6,0-11.1,0.5-16.7,0.8c6.2,3.7,12.6,6.4,18.9,9.2 c7.3,3.2,6.6,11.8,11,17.2c2-0.9,3.8-1.6,5.6-2.5c4.3-2.1,8.8-2.5,12.9,0c6.6,4.1,10.8,9.8,10.4,18 C348.5,284.3,348.1,289.8,347.8,295.2z"/> <path d="M665,111c-1.2,5.8-2.1,11.7-3.6,17.4c-5.2,19.6-12.2,30.5-32.5,51.4c4.9,0.7,9.3,1.4,13.8,2.1c-9.1,4-20.1,5.2-21.6,18.8 c-8.1-5.7-14.8-6.7-21.5,0.4c-6,6.4-3.6,14.4-4.9,22.5c-2.6-3.2-4.5-5.8-6.7-8.3c-5.3-6.1-12.7-6.4-18.2-0.4 c-2.6,2.8-4.6,6.1-6.8,9.2c-1,1.4-2.1,2.8-3.8,5.2c-2.3-4.9-4-8.7-6-12.4c-2.4-4.7-5.4-9.4-11.5-8.9c-3.2,0.3-6.6,1.9-9.4,3.6 c-2.5,1.4-4.4,3.9-7.1,6.4c-0.6-8.2,4.7-16.5-1.5-22.4c-5-4.8-11.3-9.9-19.1-5.3c-2.6-4.5-4.4-9.3-7.7-12.6 c-3.4-3.4-8.3-5.4-12.9-8.2c1.4-0.2,2.6-0.4,4.2-0.7c-3.1-4.1-5.7-8.3-8.9-11.9c-3.8-4.3-12.1-2.7-15.3,3.1 c-2.6,4.8-4.3,10-6.7,15.7c-1.2-0.9-2.2-1.5-3-2.4c-2.8-3.1-5.2-6.5-8.2-9.4c-5.4-5.1-12.4-4.3-16.9,1.6c-1.9,2.5-3.5,5.2-6,8.8 c-0.5-3.5-0.9-6-1.1-8.4c-0.4-4.7-1.4-9.1-5.3-12.5c-5.4-4.8-10.1-5.4-16.2-1.4c-1,0.6-2,1.2-2.6,1.6c-3.3-3.6-6-7.9-9.9-10.3 c-3.7-2.3-8.7-2.6-13.3-4.4c15.6-2.2,28.8-7.5,34.5-24c1.2,4.8,2.3,9.6,3.8,14.3c2.9,9.7,12.2,16.3,21.8,15.8 c3.2-0.1,4.8-1.2,5.2-4.6c0.4-3.6,1.3-7.2,2.2-11.6c1.9,2.3,3.4,4.1,4.7,5.7c6.3,1.4,6.9-3.4,8.2-8.3c3,5.1,5.5,9.3,8.3,14 c2-0.5,4.2-1,5.6-1.4c-1.8-10.8-4.4-21.1-5-31.4c-2.6-43.9,23.3-83.8,64.7-99c9.4-3.5,19.7-4.3,29.6-6.4c0.9-0.2,1.8-0.5,2.8-0.8 c2.3,0,4.7,0,7,0c1.1,0.3,2.1,0.8,3.2,0.9c44.6,3.2,81.2,34.4,91.3,78c1,4.3,1.7,8.7,2.5,13.1C665,99,665,105,665,111z M538.1,115.1c-2.2-4.3-4.3-8.5-6.2-12.1c-4.4,1.9-9.6,4.1-14.1,6c1.6,1.8,3.8,4.2,6.4,7.2c7.9-1.4,12.6,2.5,13.1,13.4 c9-5,12.1-3.8,18,7.5c1.6-1.7,3.2-3.5,4.7-5.2c-1.4,2.6-2.9,5.2-4.2,7.7c-3.2-4-5.3-8.2-8.8-10.6c-5-3.5-7.9,2.7-12.2,4.7 c0.3-2.5,0.7-4.4,0.8-6.4c0.4-6.2-4.8-10.5-10.9-9.4c-1.6,0.3-3.4-0.7-5.5-1.2c-8.2,2.7-12.5,9.3-12.9,17.1 c-5.3,0.6-9.7,0.9-13.9,1.8c-0.9,0.2-2.2,3.1-1.8,4.1c5,10.5,12.1,19.3,23.7,28.4c3.7-4.7,7.4-9.5,11.6-14.9 c0,5.7-0.4,10.5,0.1,15.2c0.3,3,1.3,7.6,3.3,8.5c7.3,3.4,15.1,5.5,22.7,8c1.8-3.3,2.9-5.5,4.1-7.8c2.7,2.3,1.2,6.9,6.7,7.3 c5.2,0.3,4.2-5,7.5-5.8c0.7,1.9,1.3,3.7,2,5.7c9.7-0.5,18.5-3.3,26.9-7.4c1.3-0.6,2.1-2.8,2.5-4.4c0.9-4.1,1.4-8.4,2.2-13.2 c2.6,4.1,4.7,7.5,6.9,11c26.6-17.6,40.8-52,34.6-82.9c-8.6-42.7-44.7-70.1-88.8-67.3c-38,2.4-71.8,35.8-74.8,73.8 c-0.4,5.5,1.1,9.5,5.1,13.2c8.6,8,23.3,10.8,32.5,5.4c-2.9-1.7-5.5-3.2-8.2-4.8c9.3,0.2,17.2-1.6,21.9-9.6 C534.8,103.6,536.5,109.4,538.1,115.1z M528.2,211.7c1.1-0.8,1.6-1.2,2.1-1.6c8.9-7.7,18.2-6.1,24.1,4.1c1.9,3.3,3.4,6.8,4.5,9.2 c5-4.7,9.4-10.9,15.4-14c7.2-3.7,13.5,0.9,18.5,8.1c-1.2-18.8,12.9-28.5,26.7-21.1c2.7-5.8,5.6-11.6,13.1-13 c-11.7-1.4-20.5-6.9-27.3-17.1c-0.6,3.7-0.9,6.2-1.4,8.6c-2.1,12.3-12.4,20.9-24.7,21.3c-4.8,0.2-7-1.3-7.6-6c-0.3-2-1.2-4-2-6.6 c-1.2,1.7-2,2.9-2.5,3.6c-3.2-0.3-5.9-0.5-9-0.8c-0.4-0.8-1-2-1.9-4c-1.3,2.8-2.5,4.8-3.2,7c-1.4,4.5-4.3,5.1-8.4,4.1 c-12.5-2.8-20.7-12.9-20.7-25.8c0-2.4,0-4.8,0-8.4c-8.2,9.5-17.9,12.7-28.9,12.6c2.6,2.5,5.3,4.3,6.9,6.8c1.7,2.5,2.3,5.7,3.4,8.4 C521.3,183.1,528.5,190.7,528.2,211.7z M456.4,171.5c5.3-18.7,13.4-24.3,28.1-15c-2.2-19.1,2.5-25,20.2-24.7 c1.1-5.5,1.8-11.4,8.6-14.1c-5.8-0.7-10.7-0.6-15.2-1.9c-4.5-1.3-8.5-4.1-12.8-6.3c0,3,0,6.1,0,9.2c-0.1,10.8-7.1,19.8-17.5,22.8 c-3.6,1-6.4,0.9-8-3.2c-0.7-1.9-2.1-3.6-3.4-5.5c-2.4,4.1-9,5.2-12.9,2.5c-0.4,1.8-1.1,3.6-1.1,5.3c0,5.1-2.9,6.3-7.4,6.3 c-11.6,0.1-20.9-6.6-24.1-17.8c-0.7-2.4-1.4-4.8-2.3-8.1c-5.4,9.9-13.1,15.4-22.1,17.3c4.1,3.7,8.2,7.4,12.6,11.3 c5.3-3.6,11.3-4.3,17.4,0c5.8,4,7.8,9.9,7.9,17C437.3,154,440,154.4,456.4,171.5z"/> <path class="st0" fill="#FFFFFF" d="M665,93c-0.8-4.4-1.5-8.8-2.5-13.1c-10.1-43.6-46.6-74.9-91.3-78c-1.1-0.1-2.1-0.6-3.2-0.9c32.3,0,64.7,0,97,0 C665,31.7,665,62.3,665,93z"/> <path d="M516.4,759.5c1.2,11,2.3,21,3.5,32.9c11.1-7.2,21-13.7,31.4-20.6c5.8,12.8,11.5,25.6,17.5,39c-162.6,0-324.6,0-487.1,0 c4.7-18.1,9.3-35.9,14.2-55.2c7.6,8.1,14.4,15.3,21.2,22.5c0.3-0.2,0.6-0.5,0.9-0.7c-4.4-25.9-8.8-51.8-13.2-78.2 c26.5-4.5,52.6-9,79.3-13.6c-0.8-3.3-1.5-6-2.3-9.2c-5.4,0.8-10.7,1.6-16.4,2.5c-1.1-5.7-2.1-11.2-3.3-17.4 c-8.2,1.3-16.2,2.5-25,3.9c-10.2-59.7-20.3-119.3-30.6-179.4c-17.5,3-34.7,6-52.6,9c-1.3-7.3-2.6-14.4-3.9-21.5 c-7.1-40.3-13.6-80.8-21.8-120.9c-3.4-16.7-10.5-32.6-15.9-48.8c-1.3-3.9-2.6-7.8-4.1-12.4c9.3-1.4,17.9-3.1,26.6-3.9 c20.8-1.8,40.1-9.1,59.8-15.3c35.7-11.2,71.5-22,107.2-33.1c4.3-1.3,7.6-1.2,10.7,2.4c1.6,1.8,3.8,3.2,5.9,5 c12.7-8.4,25.3-16.7,39.2-25.8c-2.6,10.6-4.8,19.8-7,29c-0.6,2.7-2.2,5.4,1.2,7.5c3.6,2.2,6.3,6.6,11.8,3.4 c3.8-2.3,8.1-3.6,12.9-5.7c1.3,5.7,2.2,11.1,3.9,16.2c0.9,2.7,3,5.2,5.1,7.3c2,1.9,4.6,3.5,7.2,4.5c9.6,3.7,12.7,11.2,14.4,20.6 c3.4,19.1,7.9,38.1,11.9,57.2c8.9,0.4,17.6,0.4,26.1,1.3c41.6,4,77.5,20.2,105.2,52c17.8,20.4,25.6,44.9,25.6,71.8 c0,86.2,0,172.3,0,258.5c0,2,0,4,0,7.2c8.1-6.5,15.6-12.6,23.9-19.3c-1.9,14.4-3.5,27.4-5.4,41.6 C502.3,768.7,509.1,764.2,516.4,759.5z M471.5,798.6c0-17.5,0-34.5,0-51.5c0-51.3,0-102.7,0-154c0-37.3,0.1-74.7-0.4-112 c-0.5-32.1-14.3-58.2-38.6-78.6c-49.3-41.5-122.3-48.5-179-17.8c-5.2,2.8-10.1,6-15.6,9.3c13.1,11.2,25.4,21.7,38.1,32.5 c-10.6,0-20.3,0-30.3,0c-0.5,8.3-1.1,16.7-1.6,25.2c-11.1-1.2-21.4-2.3-32.4-3.5c0.9,2.2,1.2,3.9,2.1,5.2c2.5,3.9,1.4,6.8-1.6,10.1 c-4.9,5.4-9.3,11.4-14.1,16.9c-1.6,1.8-3.8,3.5-6,4.1c-3.4,0.8-4,2.6-3.9,5.6c0.1,31.2,0,62.3,0.2,93.5c0,2.3,0.7,5.4,2.3,6.7 c8.7,7.4,9.2,16.1,5.2,25.8c-0.2,0.5-0.4,0.9-0.5,1.4c-2.4,11-6.6,22-6.8,33.1c-0.8,47.5-0.3,95-0.3,142.5c0,1.8,0.2,3.5,0.2,5.4 c1.7,0.1,2.8,0.2,4,0.2c48.7,0,97.3,0,146,0.1c3.5,0,5.4-1.3,7.1-4.3c7.2-12.8,14.5-25.4,21.9-38.1c0.9-1.5,1.9-2.9,3.3-5.1 c1.6,9.1,3,17.2,4.6,25.9c9.9-8.4,19.2-16.3,29.6-25.1c0,12.4,0,23.5,0,35.5c13-8.3,24.9-15.9,37.3-23.8 c2.5,11.9,4.8,23.2,7.2,34.6C456.6,798.6,463.5,798.6,471.5,798.6z M217.8,257.9c-2.7-2.3-5.5-4.2-7.7-6.6 c-2.9-3.1-5.7-3.6-9.8-2.3c-34.6,10.9-69.2,21.5-103.8,32.3c-17.8,5.5-35,12.7-53.8,14.4c-7.4,0.7-14.7,2.1-22.3,3.3 c1.3,3.9,2.4,7.1,3.5,10.2c4.4,13.2,10.3,26.2,13,39.8c7.5,37.7,13.7,75.6,20.4,113.5c1.3,7.3,2.7,14.6,4.1,22.2 c50.2-8.7,99.8-17.3,149.8-25.9c-2.2-5.5-4.1-10.3-6.3-15.5c12.1,1.3,23.4,2.6,35.2,3.9c0.6-8.5,1.1-16.7,1.7-25.3 c3.9,0,7.2,0,11,0c-0.7-3.9-1.2-7.2-1.9-11.1c-9,2.4-17.5,4.7-26.7,7.1c2.5,4.8,4.7,9,6.9,13.4c-1.5,0.7-2.5,1.2-3.7,1.7 c-2.7-4.8-5.2-9.4-7.8-14c-5.8,1.6-11.2,3.1-16.8,4.6c0.5,3.8,1.1,7.1,1.4,10.3c0.1,0.9-1,1.9-1.5,2.9c-0.8-0.8-2.2-1.4-2.4-2.3 c-0.8-3-1.2-6.1-1.9-9.8c-4.7,1.2-8.9,2.4-13,3.4c1.6,11,1.6,11-2.3,11.5c-0.7-3.3-1.5-6.7-2.3-10.4c-5.5,1.5-10.8,2.9-16.5,4.5 c2.1,5.9,4.1,11.3,6.2,17c-1.3,0.5-2.5,0.9-3.8,1.4c-2.4-6-4.6-11.6-6.9-17.3c-7.6,2.1-14.6,4-22.1,6.1c1.8,4.1,3.3,7.8,5,11.4 c1.3,2.9,0.6,4.2-2.8,4.1c-2.1-4.7-4.3-9.4-6.5-14.4c-6,1.7-11.8,3.4-17.9,5.1c1.2,7.6,2.3,14.6,3.4,21.6c-3.2,2-4.2,0.5-4.7-2.3 c-1-6-2.1-12-3.1-18.2c-5.9,1.7-11.1,3.3-16.5,4.9c1.8,3.6,3.2,6.5,4.8,9.6c-1.1,0.6-2.7,1.6-2.8,1.4c-2.3-3.1-4.5-6.3-6.5-9.3 c-2.9-1.5-7.1,4.5-9.3-2.1c2.5-0.9,4.6-1.7,7.1-2.6c-1.3-2.4-2.4-4.6-3.5-6.8c-1.7-3.4-1.7-3.4,2.2-4.6c1.9,3.4,3.9,6.9,5.9,10.4 c6.1-1.7,11.8-3.4,17.9-5.1c-1.5-9-2.9-17.7-4.3-26.3c3.7-2.4,4.3,0,4.8,2.7c1.2,7.3,2.5,14.6,3.8,22.4c6.1-1.7,11.4-3.2,17-4.8 c-2.2-5.1-4.1-9.7-6-14.2c0.3-0.5,0.6-0.9,0.9-1.4c1.3,0.6,3.1,0.9,3.7,2c2.1,3.9,3.8,8.1,5.8,12.5c7.5-2.1,14.7-4.1,22.3-6.1 c-2.4-6.4-4.4-12.2-6.8-17.9c-1.2-3-0.2-3.9,2.9-4c2.7,6.8,5.3,13.5,8.1,20.7c6-1.6,11.7-3.1,17.2-4.6c-0.5-11.1-0.5-11.1,2.6-11.3 c0.7,3.2,1.4,6.3,2.2,10c4.5-1.2,8.6-2.3,13-3.4c-1.5-9.3-2.9-18.1-4.4-26.7c3.7-2.1,4.3-0.1,4.7,2.6c1.2,7.6,2.6,15.2,4,23 c5.5-1.5,10.3-2.8,15.1-4.1c-2.3-6.9-2.3-6.9,1-8.1c0.9,1.5,1.7,3.2,2.8,4.6c0.7,0.8,2.1,1.8,3,1.6c7.4-1.7,14.6-3.7,22.7-5.8 c-5.6-4.9-10.4-9.1-15.9-13.9c8-4.8,15.1-9.4,22.6-13.4c17.6-9.4,36.6-14.8,56.6-17.5c-0.2-1.4-0.3-2.6-0.5-3.7 c-3.3-15.8-7.5-31.4-9.8-47.4c-1.7-11.9-6.6-20-17.6-24.5c-6.3-2.6-10.2-7-10.6-14.2c-0.1-1.6-0.9-3.1-1.5-5.1 c-12.3,5.3-24.2,10.5-36.8,16c3.5-14.5,6.7-27.9,10.3-42.7C234,247.2,226,252.5,217.8,257.9z M115.3,483.9 c9.8,57.4,19.4,114.2,29.1,171.3c12.8-2.2,24.9-4.2,37-6.4c1.1-0.2,2.3-2.1,2.7-3.4c3.1-11.9,5.7-24,9-35.8c1.5-5.3,0.8-9.2-3-13.1 c-3.5-3.6-6.3-7.5-6.2-13.4c0.4-31.7,0.2-63.3,0.2-95c0-1.8,0-3.6,0-5.9c8.4-0.3,12.7-5.9,17.3-12.9 C172.2,474.3,143.9,479.1,115.3,483.9z M172.6,766.1c2.2-4.1-5.2-55.2-9.7-67.6c-4.9,0.8-9.9,1.7-14.3,2.5 C148.5,726,158.6,746.5,172.6,766.1z M129.5,704.3c3.5,20.6,7,40.7,10.5,60.8c0.2,1,1.3,1.8,2.4,3.3c2-7.3,3.2-13.7,5.6-19.7 c6.5-16.2-0.6-31.3-2.2-47.2C140.1,702.4,135.1,703.3,129.5,704.3z M175.9,758.7c0.8,0.1,1.5,0.3,2.3,0.4 c1.9-5.1,5.7-10.4,5.4-15.4c-1-15.8-3.4-31.5-5.4-47.8c-4.8,0.8-8.5,1.5-12.8,2.2C169,718.7,172.5,738.7,175.9,758.7z M136.4,762.7 c0.3-0.2,0.7-0.3,1-0.5c-3.2-19.1-6.5-38.1-9.8-57.7c-4.4,0.8-8.4,1.5-12.5,2.2c2.4,13.8,4.6,26.7,6.8,39.7 c0.3,1.4,0.6,3.1,1.5,4.1C127.7,754.7,132.1,758.7,136.4,762.7z M180.7,667.3c-0.7-3.5-1.3-6.2-1.8-9c-3,0.5-5.4,0.9-7.9,1.4 c0.7,3.3,1.2,5.9,1.8,8.8C175.5,668.1,177.7,667.8,180.7,667.3z"/> <path d="M347.8,295.2c0.3-5.5,0.7-10.9,1-16.4c0.4-8.2-3.8-13.9-10.4-18c-4.1-2.5-8.6-2.2-12.9,0c-1.8,0.9-3.6,1.6-5.6,2.5 c-4.3-5.4-3.6-13.9-11-17.2c-6.3-2.8-12.7-5.5-18.9-9.2c5.6-0.3,11.1-0.7,16.7-0.8c15.4-0.1,26.7-6.9,34.2-20.2 c0.9-1.7,2-3.3,3.7-6.2c0.6,7.8,1,14.1,1.4,20.3c1,14.5,9.4,25,22.3,27.8c6.4,1.4,7.3,0.9,9.5-5c1.8-4.8,3.6-9.6,5.8-15.5 c1.5,3,3.1,5.1,3.7,7.5c0.8,3,2.9,3.2,5.1,3.2c2.3,0,4.3-0.5,5-3.4c0.6-2.3,2-4.4,3.5-7.6c2.5,6.6,4.8,12.1,6.6,17.7 c1,3,2.5,3.7,5.5,3.5c13.6-0.8,24.5-12.3,25.6-27.3c0.5-6.5,0.9-12.9,1.5-21.1c1.8,2.8,2.9,4.4,3.9,6.2 c7.5,13.1,18.7,19.9,33.8,20.1c5.6,0.1,11.2,0.5,17.1,1.7c-4.4,2-8.7,4.3-13.3,5.8c-7.1,2.3-11.7,6.6-13.7,13.8 c-0.6,2-1.6,3.9-2.6,6.1c-1.7-0.8-3.1-1.4-4.4-2c-12.7-5.8-25.9,3.5-24.8,17.6c0.4,5.4,0.6,10.8,0,16.7c-3-3.2-5.9-6.4-8.9-9.6 c-7.6-8.1-16.7-7.7-23.2,1.1c-2.6,3.6-4.5,7.8-7,11.4c-1.1,1.7-2.9,3.6-4.7,3.9c-1.2,0.2-3.2-2.1-4.2-3.6 c-2.8-4.1-4.9-8.7-7.9-12.7c-5.6-7.5-15.1-7.8-21.6-1.1c-3.3,3.4-6.5,7-9.7,10.5C348.5,295.6,348.2,295.4,347.8,295.2z M322.9,256.8c7.8-3.4,15.8-3.2,22.8,3.5c6.6,6.3,8.7,14.2,7.1,24.1c1.5-1.3,1.9-1.8,2.4-2.2c9.9-9.3,21.5-8.5,29.6,2.4 c2.9,3.8,5.1,8.1,7.7,12.2c3.2-4.8,6-9.9,9.6-14.4c6.7-8.2,18.3-8.8,26.2-1.8c1,0.9,2.1,1.8,3.4,2.9c1.2-24,10.9-32.1,30.6-27.1 c3.8-5.5,7.5-10.8,10.9-15.6c-4.3-1.4-10-2.5-15.1-5.1c-5-2.6-9.3-6.6-14.2-10.3c-0.2,2.2-0.5,4.5-0.7,6.8 c-1.2,16.2-12.6,28.3-28.7,30.4c-7.7,1-8.2,0.8-10.9-6.4c-0.7-1.9-1.4-3.7-2.2-5.6c-0.2-0.4-0.4-0.8-0.7-1.5 c-1.1,1.9-1.9,3.1-2.1,3.5c-4.4,0-8,0-12.1,0c-0.4-0.6-1.2-1.8-2.3-3.4c-1.5,3.9-2.5,7.2-4.1,10.3c-0.7,1.4-2.7,2.9-4.1,3 c-17,1.3-32.5-12.1-34-29.1c-0.2-2.7-0.5-5.5-0.7-8.1c-5,3.7-9.4,7.7-14.5,10.3c-5,2.6-10.8,3.7-14.9,5.1 C315.3,245.8,319,251.1,322.9,256.8z"/> <path class="st0" fill="#FFFFFF" d="M538.1,115.1c-1.6-5.7-3.3-11.5-4.9-17.2c-4.7,7.9-12.6,9.8-21.9,9.6c2.7,1.5,5.3,3.1,8.2,4.8 c-9.2,5.4-24,2.7-32.5-5.4c-3.9-3.7-5.5-7.7-5.1-13.2c3-38,36.7-71.4,74.8-73.8c44.1-2.8,80.3,24.6,88.8,67.3 c6.2,30.9-7.9,65.3-34.6,82.9c-2.1-3.4-4.3-6.9-6.9-11c-0.8,4.9-1.3,9.1-2.2,13.2c-0.4,1.6-1.2,3.8-2.5,4.4 c-8.4,4.1-17.2,6.9-26.9,7.4c-0.7-2-1.3-3.8-2-5.7c-3.3,0.9-2.3,6.2-7.5,5.8c-5.5-0.3-4-5-6.7-7.3c-1.2,2.3-2.4,4.5-4.1,7.8 c-7.6-2.6-15.4-4.7-22.7-8c-2-0.9-3-5.5-3.3-8.5c-0.5-4.7-0.1-9.6-0.1-15.2c-4.2,5.4-7.9,10.1-11.6,14.9 c-11.6-9-18.7-17.9-23.7-28.4c-0.4-0.9,0.9-3.9,1.8-4.1c4.2-0.9,8.6-1.2,13.9-1.8c0.4-7.8,4.7-14.4,12.9-17.1 c2.1,0.5,3.9,1.4,5.5,1.2c6-1.1,11.3,3.3,10.9,9.4c-0.1,2-0.5,3.9-0.8,6.4c4.3-2,7.2-8.1,12.2-4.7c3.5,2.4,5.6,6.7,8.8,10.6 c1.4-2.5,2.8-5.1,4.2-7.7l-0.2,0.2c6.4-5.5,11.3-2.7,15.6,4.1c1.6-15.7,4-18,15.2-14.7c0.8-6.3,6.1-8,11.2-10.2 c-9.1-0.7-17.2-2.8-21.8-13.1c-0.5,3.9-0.9,6.3-1.2,8.7c-0.7,4.9-3,8.7-7.5,11.1c-5.7,3-7.4,2.3-9.4-3.7c-0.4-1.2-0.9-2.3-1.5-3.6 c-3.5,4.7-4.8,4.6-8.2-0.1c-4.8,9.6-4.8,9.6-14,4.4c-0.1-0.1-0.3,0-0.5,0C537.9,114.9,538.1,115.1,538.1,115.1z"/> <path class="st0" fill="#FFFFFF" d="M528.2,211.7c0.2-21-7-28.6-23-24.5c-1.1-2.8-1.7-5.9-3.4-8.4c-1.7-2.5-4.3-4.3-6.9-6.8 c11,0.1,20.8-3.1,28.9-12.6c0,3.6,0,6,0,8.4c0,12.9,8.2,23,20.7,25.8c4.2,0.9,7,0.4,8.4-4.1c0.7-2.2,1.9-4.2,3.2-7 c1,2,1.6,3.2,1.9,4c3.1,0.3,5.8,0.5,9,0.8c0.5-0.7,1.3-1.9,2.5-3.6c0.8,2.6,1.7,4.5,2,6.6c0.6,4.6,2.8,6.1,7.6,6 c12.4-0.5,22.6-9,24.7-21.3c0.4-2.5,0.8-4.9,1.4-8.6c6.8,10.2,15.6,15.6,27.3,17.1c-7.4,1.5-10.4,7.2-13.1,13 c-13.9-7.4-27.9,2.3-26.7,21.1c-5-7.1-11.3-11.7-18.5-8.1c-6,3.1-10.4,9.3-15.4,14c-1.2-2.4-2.7-5.9-4.5-9.2 c-5.8-10.2-15.2-11.8-24.1-4.1C529.8,210.5,529.3,210.9,528.2,211.7z"/> <path class="st0" fill="#FFFFFF" d="M456.4,171.5c-16.4-17.1-19.1-17.5-32.1-4.7c-0.1-7.2-2.2-13-7.9-17c-6.1-4.3-12.1-3.5-17.4,0 c-4.4-4-8.5-7.7-12.6-11.3c9.1-1.9,16.8-7.5,22.1-17.3c0.9,3.2,1.5,5.7,2.3,8.1c3.3,11.2,12.6,17.9,24.1,17.8 c4.5,0,7.4-1.2,7.4-6.3c0-1.8,0.7-3.5,1.1-5.3c4,2.7,10.6,1.6,12.9-2.5c1.2,1.9,2.6,3.6,3.4,5.5c1.6,4.1,4.4,4.2,8,3.2 c10.4-3,17.4-12,17.5-22.8c0-3.1,0-6.2,0-9.2c4.3,2.2,8.3,4.9,12.8,6.3c4.5,1.3,9.4,1.3,15.2,1.9c-6.7,2.7-7.5,8.6-8.6,14.1 c-17.7-0.2-22.4,5.6-20.2,24.7C469.8,147.2,461.6,152.8,456.4,171.5z"/> <path class="st0" fill="#FFFFFF" d="M560.1,131.9c-1.6,1.7-3.2,3.5-4.7,5.2c-5.9-11.3-9.1-12.5-18-7.5c-0.5-10.9-5.2-14.8-13.1-13.4 c-2.7-3-4.8-5.4-6.4-7.2c4.5-1.9,9.8-4.2,14.1-6c1.8,3.6,4,7.8,6.2,12.1c0,0-0.2-0.2-0.2-0.2c5.3,6.9,10.5,6.6,14.1-0.1 c3.1,0.2,5.8,0.4,8,0.6c1.8,1.7,3.8,5.2,5.7,5.1c10.2-0.5,14.4-7.3,15.1-16.9c2.7,2.1,4.8,4.1,7.2,5.5c2.4,1.3,5.1,2,7.4,2.8 c-2.1,2.6-4,5.1-6.1,7.7c-9.3-2.6-13.2,0.4-14.9,11.6c-7.9-4.8-11.2-4.6-14.4,0.8C559.9,132.1,560.1,131.9,560.1,131.9z"/> <path class="st0" fill="#FFFFFF" d="M471.5,798.6c-8,0-14.9,0-22.2,0c-2.4-11.4-4.7-22.8-7.2-34.6c-12.5,7.9-24.3,15.5-37.3,23.8 c0-12,0-23.1,0-35.5c-10.4,8.8-19.6,16.6-29.6,25.1c-1.5-8.7-3-16.7-4.6-25.9c-1.4,2.2-2.4,3.6-3.3,5.1 c-7.3,12.7-14.7,25.4-21.9,38.1c-1.6,2.9-3.6,4.3-7.1,4.3c-48.7-0.1-97.3-0.1-146-0.1c-1.1,0-2.3-0.1-4-0.2 c-0.1-1.9-0.2-3.6-0.2-5.4c0-47.5-0.4-95,0.3-142.5c0.2-11.1,4.4-22.1,6.8-33.1c0.1-0.5,0.3-1,0.5-1.4c3.9-9.7,3.5-18.5-5.2-25.8 c-1.6-1.3-2.3-4.4-2.3-6.7c-0.1-31.2-0.1-62.3-0.2-93.5c0-3.1,0.5-4.8,3.9-5.6c2.2-0.5,4.4-2.3,6-4.1c4.8-5.5,9.2-11.5,14.1-16.9 c3-3.2,4-6.2,1.6-10.1c-0.9-1.4-1.2-3-2.1-5.2c11,1.2,21.3,2.3,32.4,3.5c0.6-8.5,1.1-16.9,1.6-25.2c10,0,19.7,0,30.3,0 c-12.7-10.9-25-21.4-38.1-32.5c5.5-3.3,10.5-6.5,15.6-9.3c56.7-30.7,129.7-23.7,179,17.8c24.3,20.4,38.1,46.5,38.6,78.6 c0.5,37.3,0.4,74.6,0.4,112c0.1,51.3,0,102.7,0,154C471.5,764.1,471.5,781.1,471.5,798.6z M223.3,562.1c13,0,25.7,0,38.3,0 c1.1-9-6.5-5.9-10.7-7.9c0-7.3,0-14.6,0-21.8c3.5-1.3,5.8-0.6,8.2,2c8.1,8.6,16.5,16.9,24.9,25.2c6.1,6,8.1,6.3,15.8,3.7 c-9.1-12.2-18.3-24.5-27.2-36.3c4-4.5,7.7-7.7,10.2-11.7c5.4-8.5,2.3-16.9-7.1-20.5c-1.7-0.7-3.5-1.4-5.3-1.5 c-15.8-0.7-31.5-1.2-47.2-1.8c-0.7,5.6,1.1,8,6,7.5c3.6-0.3,5,1.2,5,4.9c0,9,0.4,18,0.5,27c0.1,7.9,0,15.9,0,23.3 C229.3,556.1,222.3,553.4,223.3,562.1z M390.2,497.9c1.8,0.3,3.3,0.9,4.7,0.8c4.8-0.3,6.1,1.8,6,6.5c-0.3,14.6-0.3,29.3,0,43.9 c0.1,4-0.6,6.3-5.3,6.1c-4.3-0.2-6.9,1.7-5.9,6.7c13.5,0,27.1,0,40.7,0c-0.1-10.2-8.8-4.9-13.3-7.9c0-6.1,0-12.5,0-18.9 c2.1-0.4,3.9-0.6,5.7-1.1c10.8-2.6,20.7-6.8,25.3-18c4.2-10.2-0.4-19.4-11.1-21.8c-5.5-1.3-11.2-1.9-16.8-2.1 c-10.2-0.3-20.5-0.1-30.9-0.1C389.7,494.2,389.9,495.8,390.2,497.9z M360.5,491.8c-13,0-26,0-38.9,0c-0.4,5.3,2.3,7.2,6.8,7 c3.6-0.2,4.5,1.7,4.5,4.9c-0.1,15.1-0.1,30.3,0,45.4c0,3.8-0.8,6.4-5.5,6.1c-4.8-0.3-6.3,2.4-5.4,7c13,0,25.8,0,38.5,0 c0.6-5-1.8-7.2-6.4-7c-3.3,0.1-4.9-1.2-4.8-4.6c0.1-15.6,0.1-31.3,0.1-46.9c0-3.2,0.9-5,4.5-4.8 C358.4,499.1,360.9,496.9,360.5,491.8z"/> <path class="st0" fill="#FFFFFF" d="M217.8,257.9c8.2-5.4,16.3-10.7,25.7-16.8c-3.5,14.7-6.8,28.1-10.3,42.7c12.6-5.5,24.5-10.7,36.8-16 c0.6,2,1.4,3.5,1.5,5.1c0.3,7.2,4.3,11.6,10.6,14.2c11,4.5,16,12.6,17.6,24.5c2.2,15.9,6.4,31.6,9.8,47.4c0.2,1.1,0.3,2.2,0.5,3.7 c-20,2.7-38.9,8.1-56.6,17.5c-7.5,4-14.6,8.6-22.6,13.4c5.5,4.8,10.3,9,15.9,13.9c-8.1,2.1-15.4,4.1-22.7,5.8 c-0.8,0.2-2.3-0.7-3-1.6c-1.1-1.4-1.9-3.1-2.8-4.6c-3.3,1.1-3.3,1.1-1,8.1c-4.8,1.3-9.6,2.6-15.1,4.1c-1.4-7.8-2.8-15.4-4-23 c-0.4-2.7-1.1-4.7-4.7-2.6c1.4,8.6,2.8,17.4,4.4,26.7c-4.4,1.2-8.5,2.2-13,3.4c-0.8-3.7-1.5-6.9-2.2-10c-3.2,0.2-3.2,0.2-2.6,11.3 c-5.6,1.5-11.3,3-17.2,4.6c-2.8-7.2-5.5-14-8.1-20.7c-3.1,0-4.2,0.9-2.9,4c2.3,5.7,4.4,11.5,6.8,17.9c-7.5,2.1-14.8,4.1-22.3,6.1 c-2-4.4-3.7-8.6-5.8-12.5c-0.5-1-2.4-1.3-3.7-2c-0.3,0.5-0.6,0.9-0.9,1.4c1.9,4.6,3.9,9.1,6,14.2c-5.6,1.6-10.9,3.1-17,4.8 c-1.3-7.8-2.6-15.1-3.8-22.4c-0.5-2.7-1.1-5.1-4.8-2.7c1.4,8.6,2.8,17.3,4.3,26.3c-6.1,1.7-11.8,3.4-17.9,5.1c-2-3.5-4-7-5.9-10.4 c-3.9,1.1-4,1.1-2.2,4.6c1.1,2.2,2.2,4.4,3.5,6.8c-2.4,0.9-4.6,1.7-7.1,2.6c2.1,6.6,6.4,0.6,9.3,2.1c2,3,4.2,6.2,6.5,9.3 c0.1,0.1,1.6-0.8,2.8-1.4c-1.5-3.1-3-6.1-4.8-9.6c5.4-1.6,10.6-3.1,16.5-4.9c1.1,6.2,2.2,12.2,3.1,18.2c0.5,2.9,1.5,4.4,4.7,2.3 c-1.1-7-2.2-14-3.4-21.6c6.1-1.7,11.9-3.4,17.9-5.1c2.3,5,4.4,9.7,6.5,14.4c3.4,0.1,4.1-1.2,2.8-4.1c-1.7-3.6-3.2-7.2-5-11.4 c7.4-2,14.4-4,22.1-6.1c2.3,5.7,4.5,11.3,6.9,17.3c1.3-0.5,2.4-0.9,3.8-1.4c-2.1-5.7-4.1-11.1-6.2-17c5.7-1.5,10.9-3,16.5-4.5 c0.8,3.7,1.5,7,2.3,10.4c3.9-0.5,3.9-0.5,2.3-11.5c4.1-1.1,8.4-2.2,13-3.4c0.7,3.7,1.1,6.8,1.9,9.8c0.2,0.9,1.6,1.6,2.4,2.3 c0.5-1,1.6-2,1.5-2.9c-0.2-3.3-0.8-6.6-1.4-10.3c5.6-1.5,11-3,16.8-4.6c2.6,4.7,5.2,9.3,7.8,14c1.2-0.5,2.2-1,3.7-1.7 c-2.3-4.4-4.4-8.6-6.9-13.4c9.1-2.4,17.7-4.7,26.7-7.1c0.7,3.9,1.2,7.3,1.9,11.1c-3.8,0-7.1,0-11,0c-0.6,8.5-1.1,16.7-1.7,25.3 c-11.8-1.3-23.1-2.5-35.2-3.9c2.1,5.3,4,10,6.3,15.5c-50,8.7-99.6,17.2-149.8,25.9c-1.4-7.6-2.8-14.9-4.1-22.2 c-6.7-37.8-12.9-75.8-20.4-113.5c-2.7-13.6-8.6-26.5-13-39.8c-1.1-3.1-2.1-6.3-3.5-10.2c7.7-1.2,15-2.6,22.3-3.3 c18.8-1.7,36.1-8.9,53.8-14.4c34.6-10.7,69.3-21.4,103.8-32.3c4-1.3,6.9-0.8,9.8,2.3C212.3,253.7,215.1,255.6,217.8,257.9z M269.2,324c-20.5-8.9-40.4-17.6-61.5-26.8c0.2,3,0.3,4.8,0.4,7c-13.2,9.2-18,30-13.5,43.4c4.7,13.9,18.3,23.7,32.7,23.3 c15.6-0.5,32.7-13.2,35.9-26.6c1.4-5.7,0.1-10.6-4-14.7c-1.9-2-4.2-3.6-6.3-5.4c0.3-0.4,0.7-0.9,1-1.3c4.3,1.8,8.7,3.6,13.2,5.5 C268,326.8,268.5,325.6,269.2,324z M60.5,367c0.7,2.1,1.2,3.5,1.7,4.9c6.5,16.4,24.3,25,41.3,20c16.7-4.9,27.8-22.4,23.3-39.3 c-4.5-17-14.1-29.8-34.2-31.2c2.9-4.1,5.5-7.9,8.3-11.9c-1.5-1-2.7-1.8-4.1-2.7c-14.8,20.9-29.4,41.4-44.2,62.3 c1.4,1,2.6,1.9,3.8,2.8C57.7,370.4,58.8,369,60.5,367z M128.3,375.3c-1.1,1.9-1.8,3-2.4,4.3c-5.3,11.3-14.1,17.8-26.6,19.1 c-10.9,1.1-20.3-2.5-28.4-9.7c-1.2-1-2.5-1.8-3.7-2.7c4.7,11.6,24.5,17.9,39.7,13.5C118.4,396.5,129.5,384.4,128.3,375.3z M199.9,363.8c5.6,12.6,22.8,18.2,38.5,13.3c12.2-3.8,24.2-15.9,23-24.7c-6.3,12.4-14.8,20.8-28,23.6 C219.7,378.9,209.4,372.7,199.9,363.8z"/> <path class="st0" fill="#FFFFFF" d="M115.3,483.9c28.6-4.9,56.9-9.7,86-14.6c-4.6,7-8.9,12.6-17.3,12.9c0,2.3,0,4.1,0,5.9c0,31.7,0.2,63.3-0.2,95 c-0.1,6,2.7,9.8,6.2,13.4c3.8,3.9,4.5,7.8,3,13.1c-3.3,11.8-5.9,23.9-9,35.8c-0.3,1.3-1.6,3.2-2.7,3.4c-12.1,2.3-24.2,4.3-37,6.4 C134.7,598.1,125.1,541.3,115.3,483.9z"/> <path class="st0" fill="#FFFFFF" d="M172.6,766.1c-14-19.6-24.1-40.2-23.9-65.1c4.4-0.8,9.4-1.6,14.3-2.5C167.4,710.9,174.8,762,172.6,766.1z"/> <path class="st0" fill="#FFFFFF" d="M129.5,704.3c5.6-1,10.6-1.8,16.4-2.8c1.6,16,8.7,31.1,2.2,47.2c-2.4,6-3.6,12.4-5.6,19.7 c-1.1-1.5-2.2-2.4-2.4-3.3C136.5,744.9,133,724.8,129.5,704.3z"/> <path class="st0" fill="#FFFFFF" d="M175.9,758.7c-3.5-20-6.9-40-10.5-60.5c4.3-0.8,8-1.4,12.8-2.2c2,16.3,4.4,32,5.4,47.8 c0.3,5-3.5,10.3-5.4,15.4C177.5,759,176.7,758.8,175.9,758.7z"/> <path class="st0" fill="#FFFFFF" d="M136.4,762.7c-4.3-4.1-8.7-8-12.9-12.2c-0.9-0.9-1.3-2.7-1.5-4.1c-2.3-12.9-4.5-25.9-6.8-39.7 c4.1-0.7,8-1.4,12.5-2.2c3.3,19.6,6.6,38.6,9.8,57.7C137.1,762.4,136.8,762.5,136.4,762.7z"/> <path class="st0" fill="#FFFFFF" d="M180.7,667.3c-3,0.5-5.2,0.8-8,1.2c-0.6-2.9-1.1-5.6-1.8-8.8c2.6-0.5,4.9-0.9,7.9-1.4 C179.5,661.1,180,663.9,180.7,667.3z"/> <path class="st0" fill="#FFFFFF" d="M322.9,256.8c-3.9-5.6-7.5-11-10.9-15.8c4.1-1.3,9.8-2.5,14.9-5.1c5.1-2.6,9.4-6.6,14.5-10.3 c0.2,2.6,0.5,5.3,0.7,8.1c1.4,16.9,17,30.4,34,29.1c1.5-0.1,3.4-1.6,4.1-3c1.6-3.1,2.6-6.4,4.1-10.3c1.1,1.6,1.9,2.8,2.3,3.4 c4.1,0,7.8,0,12.1,0c0.2-0.4,1-1.6,2.1-3.5c0.3,0.7,0.6,1.1,0.7,1.5c0.7,1.9,1.5,3.7,2.2,5.6c2.7,7.1,3.1,7.4,10.9,6.4 c16.1-2.1,27.5-14.2,28.7-30.4c0.2-2.3,0.5-4.5,0.7-6.8c4.9,3.6,9.2,7.7,14.2,10.3c5,2.6,10.8,3.7,15.1,5.1 c-3.4,4.8-7,10.1-10.9,15.6c-19.7-5-29.4,3.1-30.6,27.1c-1.4-1.1-2.4-2-3.4-2.9c-7.9-7-19.6-6.5-26.2,1.8 c-3.6,4.5-6.4,9.6-9.6,14.4c-2.5-4.1-4.8-8.4-7.7-12.2c-8.1-10.9-19.7-11.7-29.6-2.4c-0.4,0.4-0.9,0.8-2.4,2.2 c1.5-9.9-0.6-17.8-7.1-24.1C338.7,253.6,330.7,253.3,322.9,256.8z"/> <path d="M559.9,132.1c3.3-5.4,6.6-5.6,14.4-0.8c1.7-11.2,5.6-14.3,14.9-11.6c2-2.6,4-5.1,6.1-7.7c-2.2-0.8-5-1.5-7.4-2.8 c-2.4-1.3-4.5-3.3-7.2-5.5c-0.6,9.6-4.9,16.4-15.1,16.9c-1.8,0.1-3.9-3.4-5.7-5.1c-2.2-0.2-4.9-0.4-8-0.6c-3.6,6.7-8.8,7-14.1,0.1 c0.2,0,0.4-0.1,0.5,0c9.2,5.2,9.2,5.2,14-4.4c3.5,4.7,4.7,4.8,8.2,0.1c0.5,1.3,1.1,2.5,1.5,3.6c2,5.9,3.7,6.6,9.4,3.7 c4.5-2.3,6.8-6.1,7.5-11.1c0.3-2.4,0.7-4.8,1.2-8.7c4.6,10.4,12.6,12.4,21.8,13.1c-5.1,2.3-10.4,4-11.2,10.2 c-11.2-3.3-13.6-1-15.2,14.7C571.3,129.4,566.4,126.6,559.9,132.1z"/> <path d="M223.3,562.1c-1-8.7,6-6,11.5-8c0-7.4,0.1-15.3,0-23.3c-0.1-9-0.5-18-0.5-27c0-3.7-1.3-5.2-5-4.9c-4.8,0.5-6.7-1.9-6-7.5 c15.7,0.6,31.4,1.1,47.2,1.8c1.8,0.1,3.6,0.9,5.3,1.5c9.3,3.6,12.5,12.1,7.1,20.5c-2.5,4-6.2,7.2-10.2,11.7 c8.8,11.8,18.1,24.1,27.2,36.3c-7.7,2.6-9.7,2.3-15.8-3.7c-8.4-8.3-16.8-16.7-24.9-25.2c-2.4-2.5-4.7-3.3-8.2-2 c0,7.2,0,14.5,0,21.8c4.2,2,11.8-1.1,10.7,7.9C249,562.1,236.3,562.1,223.3,562.1z M245.8,557c0-20.4,0-40.3,0-60.2 c-2.3,0-4.3,0-6.5,0c0,20.2,0,40.2,0,60.2C241.6,557,243.6,557,245.8,557z M250.5,525.1c4.7-1.5,8.5-2.2,11.9-3.9 c4.7-2.4,7-6.6,6.5-11.9c-0.5-5-4.4-7.2-8.6-8.6c-2-0.7-4.2-1.4-6.3-1.3c-1.2,0.1-3.3,1.7-3.3,2.6 C250.4,509.1,250.5,516.2,250.5,525.1z M258.5,528c10.1,9.2,19.3,17.7,26.9,24.7c-5.6-8.1-12.5-18.1-19.5-28.2 C263.8,525.5,261.9,526.4,258.5,528z M269.5,521.5c7.3-3.4,12.4-10.8,11.3-15.7c-1.1-4.9-6.6-8-15.3-8.1 C274.8,504.2,275.2,512.3,269.5,521.5z"/> <path d="M390.2,497.9c-0.3-2-0.5-3.7-0.9-6c10.5,0,20.7-0.2,30.9,0.1c5.6,0.2,11.3,0.8,16.8,2.1c10.7,2.5,15.3,11.7,11.1,21.8 c-4.6,11.2-14.5,15.4-25.3,18c-1.8,0.4-3.6,0.7-5.7,1.1c0,6.5,0,12.8,0,18.9c4.5,3,13.2-2.2,13.3,7.9c-13.6,0-27.2,0-40.7,0 c-1-5,1.6-6.8,5.9-6.7c4.6,0.2,5.3-2.1,5.3-6.1c-0.2-14.6-0.3-29.3,0-43.9c0.1-4.7-1.2-6.7-6-6.5 C393.5,498.8,392.1,498.2,390.2,497.9z M412.1,556.9c0-20.4,0-40.2,0-60c-2.5,0-4.5,0-6.5,0c0,20.3,0,40.1,0,60 C407.9,556.9,409.8,556.9,412.1,556.9z M417.2,499.3c0,10.2,0,20.1,0,29.3c9.5-3.5,18.6-8,15.3-20.7 C430.5,500.5,424,499.8,417.2,499.3z M431.4,498.1c8.3,8,7.4,16.7,3,26.3c8-4.6,12.1-12.2,10.5-18.2 C443.7,501.7,438.7,498.5,431.4,498.1z"/> <path d="M360.5,491.8c0.4,5.1-2.1,7.2-6.6,7c-3.6-0.2-4.5,1.7-4.5,4.8c0,15.6,0,31.3-0.1,46.9c0,3.4,1.5,4.7,4.8,4.6 c4.6-0.1,7,2,6.4,7c-12.8,0-25.5,0-38.5,0c-0.9-4.6,0.6-7.2,5.4-7c4.7,0.3,5.5-2.3,5.5-6.1c0-15.1,0-30.3,0-45.4 c0-3.2-0.9-5-4.5-4.9c-4.5,0.2-7.2-1.8-6.8-7C334.5,491.8,347.5,491.8,360.5,491.8z M344.4,557.2c0-20.3,0-40.2,0-59.9 c-2.5,0-4.5,0-6.6,0c0,20.2,0,39.9,0,59.9C340.1,557.2,342,557.2,344.4,557.2z"/> <path d="M269.2,324c-0.7,1.6-1.2,2.8-1.9,4.4c-4.5-1.9-8.9-3.7-13.2-5.5c-0.3,0.4-0.7,0.9-1,1.3c2.1,1.8,4.3,3.5,6.3,5.4 c4.1,4.1,5.3,9,4,14.7c-3.2,13.4-20.4,26.1-35.9,26.6c-14.4,0.5-28-9.3-32.7-23.3c-4.5-13.4,0.2-34.2,13.5-43.4 c-0.1-2.1-0.2-3.9-0.4-7C228.8,306.4,248.7,315.1,269.2,324z M229.5,312.9c-10.7-9.2-19.4-8-26.5,3.9c-1.2,2-2.2,4.1-3.1,6.3 c-6.2,15.8-0.7,32.5,13.1,39.7c18.8,9.9,40.2-3.8,45.3-18.4c1-3,0.1-7.2-1.4-10.2c-1.5-3.1-4.6-5.3-7.9-8.8 c4,18.6-2.1,31.4-15.6,34.6c-12.7,3-24.8-4.8-27.9-17.8C202.1,327.6,210.3,317.6,229.5,312.9z M234.9,337.5c0-3.8-3.2-6.8-7.1-6.7 c-4.2,0.2-6.3,2.7-6.7,6.6c-0.3,3.8,2.9,7,6.8,7C231.9,344.4,235,341.4,234.9,337.5z"/> <path d="M60.5,367c-1.6,2-2.7,3.4-4,5c-1.3-0.9-2.4-1.8-3.8-2.8c14.8-20.8,29.4-41.4,44.2-62.3c1.4,0.9,2.5,1.7,4.1,2.7 c-2.8,4-5.4,7.8-8.3,11.9c20.1,1.3,29.8,14.1,34.2,31.2c4.5,16.9-6.6,34.4-23.3,39.3c-17,5-34.8-3.7-41.3-20 C61.6,370.5,61.2,369.1,60.5,367z M123,359.4c0-12.4-9.3-26.7-20.5-31.5c-4.3-1.8-8.8-2.4-11.9,1.5c-8.2,10-16.2,20.3-23.8,30.7 c-1.4,1.9-1.5,5.5-0.9,7.9c3.8,13.6,17.9,22.5,31.5,20.5C112.4,386.3,123,374.3,123,359.4z"/> <path d="M128.3,375.3c1.2,9.1-9.9,21.2-21.5,24.5c-15.2,4.4-35-1.9-39.7-13.5c1.3,0.9,2.6,1.7,3.7,2.7c8.2,7.1,17.5,10.8,28.4,9.7 c12.5-1.3,21.3-7.8,26.6-19.1C126.5,378.3,127.2,377.2,128.3,375.3z"/> <path d="M199.9,363.8c9.5,8.9,19.8,15.1,33.5,12.2c13.2-2.8,21.6-11.2,28-23.6c1.3,8.8-10.7,20.9-23,24.7 C222.7,382,205.5,376.4,199.9,363.8z"/> <path class="st0" fill="#FFFFFF" d="M245.8,557c-2.2,0-4.2,0-6.5,0c0-20,0-40,0-60.2c2.2,0,4.1,0,6.5,0C245.8,516.7,245.8,536.5,245.8,557z"/> <path class="st0" fill="#FFFFFF" d="M250.5,525.1c0-8.9-0.1-16,0.2-23.1c0-1,2.1-2.6,3.3-2.6c2.1-0.1,4.3,0.6,6.3,1.3c4.2,1.4,8.1,3.6,8.6,8.6 c0.6,5.3-1.8,9.6-6.5,11.9C259.1,522.9,255.2,523.6,250.5,525.1z"/> <path class="st0" fill="#FFFFFF" d="M258.5,528c3.4-1.6,5.3-2.5,7.4-3.5c7,10.1,13.9,20.1,19.5,28.2C277.8,545.7,268.6,537.2,258.5,528z"/> <path class="st0" fill="#FFFFFF" d="M269.5,521.5c5.7-9.2,5.3-17.2-4-23.9c8.7,0.1,14.3,3.2,15.3,8.1C281.9,510.7,276.8,518,269.5,521.5z"/> <path class="st0" fill="#FFFFFF" d="M412.1,556.9c-2.2,0-4.2,0-6.5,0c0-19.9,0-39.7,0-60c2,0,4,0,6.5,0C412.1,516.7,412.1,536.5,412.1,556.9z"/> <path class="st0" fill="#FFFFFF" d="M417.2,499.3c6.8,0.5,13.3,1.2,15.3,8.6c3.3,12.7-5.8,17.1-15.3,20.7C417.2,519.4,417.2,509.5,417.2,499.3z"/> <path class="st0" fill="#FFFFFF" d="M431.4,498.1c7.3,0.4,12.4,3.6,13.5,8.1c1.6,6-2.5,13.6-10.5,18.2C438.8,514.8,439.6,506.1,431.4,498.1z"/> <path class="st0" fill="#FFFFFF" d="M344.4,557.2c-2.4,0-4.3,0-6.6,0c0-20,0-39.8,0-59.9c2,0,4.1,0,6.6,0C344.4,517,344.4,536.9,344.4,557.2z"/> <path class="st0" fill="#FFFFFF" d="M229.5,312.9c-19.2,4.8-27.3,14.7-23.9,29.3c3.1,13,15.3,20.8,27.9,17.8c13.4-3.2,19.6-16,15.6-34.6 c3.3,3.5,6.4,5.8,7.9,8.8c1.4,3,2.4,7.3,1.4,10.2c-5.1,14.6-26.5,28.3-45.3,18.4c-13.8-7.2-19.3-24-13.1-39.7 c0.8-2.2,1.9-4.3,3.1-6.3C210,304.9,218.8,303.6,229.5,312.9z"/> <path class="st0" fill="#FFFFFF" d="M234.9,337.5c0,3.9-3.1,6.9-7,6.9c-3.9,0-7.1-3.2-6.8-7c0.3-3.9,2.5-6.4,6.7-6.6 C231.7,330.7,234.9,333.7,234.9,337.5z"/> <path class="st0" fill="#FFFFFF" d="M123,359.4c0,14.9-10.6,26.9-25.6,29.2c-13.6,2-27.7-6.9-31.5-20.5c-0.7-2.4-0.5-6,0.9-7.9 c7.6-10.5,15.6-20.7,23.8-30.7c3.2-3.9,7.7-3.4,11.9-1.5C113.7,332.7,123,347,123,359.4z M93.7,352.6c-3.9,0-6.9,3.1-6.8,7 c0.1,4,3,6.7,7.1,6.6c4.2-0.2,6.3-2.6,6.5-6.6C100.6,355.5,97.7,352.5,93.7,352.6z"/> <path d="M93.7,352.6c4,0,6.9,2.9,6.8,7c-0.2,4.1-2.3,6.5-6.5,6.6c-4.1,0.2-7-2.6-7.1-6.6C86.8,355.7,89.8,352.6,93.7,352.6z"/> </g> </svg>