<svg class="cycle-js" version="1.1" id="Layer_1" xmlns="http://www.w3.org/2000/svg" xmlns:xlink="http://www.w3.org/1999/xlink" x="0px" y="0px"
	 viewBox="0 0 612 792" style="enable-background:new 0 0 612 792;" xml:space="preserve">
<style type="text/css">
	.st0{fill:#FFFFFF;}
</style>
<g>
	<g>
		<path class="st0" d="M25,487c0-83.7,0-167.3,0-251c144.7,0,289.3,0,434,0c-3.1,1.3-5.9,2.7-6.9,6.5c-0.2,1-2.4,1.8-3.9,2.3
			c-4.9,1.8-10.2,2.9-14.8,5.4c-3.8,2-5.4,5.7-2.6,10.2c0.8,1.2,0.5,3.1,0.6,4.8c0.5,6.9,1.1,13.5,7.7,17.9
			c8.5,5.6,7.3,8.5,2.6,15.4c-1,1.5-2.4,2.8-3.9,3.8c-3.6,2.4-7.4,4.5-11,6.9c-4.9,3.2-8.4,7.5-8.1,13.5c0.3,4.9-1.8,5.3-5.8,5.2
			c-25.6-0.8-51.3-1-76.8-2.1c-19.4-0.9-37.6,2.8-55.2,10.9c-25.7,11.9-51.6,23.2-75.3,38.9c-1.7,1.1-4.1,1.4-6.1,1.4
			c-12.5,0.1-25-0.2-37.5,0c-11.3,0.2-22.8-0.1-33.3,4.9c-31.4,14.8-61.6,31.5-90.2,51.3c-6.6,4.6-9.5,10.7-8,18.5
			c1.5,7.8,3.3,15.6,5.7,23.2c1.1,3.5,0.2,4.4-2.6,5.9C30.5,482.3,27.9,484.8,25,487z"/>
		<path class="st0" d="M464,236c40.8,0,81.5,0,122.3-0.1c3.2,0,3.8,0.8,3.8,3.8C590,287.2,590,334.6,590,382
			c-2.1-7.2-7.2-11.8-14-13.7c-9.1-2.5-18.4-4.4-27.8-5.4c-10.9-1.2-21.8-2-31.8-7.3c-7.7-4-15.7-7.2-23.4-11.2
			c-2-1.1-3.8-3.5-4.6-5.8c-2.4-6.9-4.1-14-6.4-21c-1.5-4.4-4.1-8-9.2-8.8c-2.4-0.9-4.8-1.8-7.2-2.7c-3.6-0.8-3.8-6.7-8.6-5.7
			c0-0.7,0-1.9,0.1-1.9c1.3-0.3,2.6-0.5,3.9-0.5c7-0.2,9.5-4,8.3-10.8c-1.6-8.7-1-17.4,2.3-25.8c0.6-1.4,0.9-3.9,0.1-4.7
			c-3.6-3.8-5-8.7-7.5-13C462.3,240.7,461.6,238.7,464,236z"/>
		<path class="st0" d="M590,420c0,44.5,0,89,0.1,133.5c0,3-0.6,3.6-3.6,3.6C543.7,557,500.8,557,458,557c4.6-1.7,5-5,2.7-8.7
			c-3.5-5.8-7.6-11.4-10.9-17.3c-1.6-2.9-2.9-6.5-2.9-9.7c0.1-6,1.2-11.9,2.2-17.8c0.2-1.2,1.7-2.9,2.8-3.2
			c8.3-2.4,16.7-4.5,25.1-6.5c1-0.2,3.3,1,3.5,1.9c2.9,11,8.3,21.4,6.3,33.4c-0.9,5.7,2,8.3,8,8c5.3-0.3,10.6-0.9,15.9-1.4
			c5-0.5,9.9-0.9,14.8-1.7c1.2-0.2,2.2-1.7,3.3-2.6c-1-1.2-1.8-2.6-3-3.6c-0.8-0.7-2.2-0.8-3.3-1.1c-5.3-1.2-10.7-2.5-16-3.6
			c-4.9-1.1-7.3-4-7.6-9.1c-0.4-6.8-0.8-13.6-1.8-20.4c-0.5-3.9,0.6-5.6,4.5-6.5c12-2.8,23.9-5.9,35.7-9.1c1.9-0.5,3.6-2,5.4-3.1
			c0.5,0.7,1.3,1.9,2.1,3.1c0.9,1.3,1.8,2.6,2.7,3.8c0.6,0.8,1,1.8,1.8,2.2c7.8,4.1,21.1,0.6,25.7-6.9c7.5-12.2,12.4-25.3,13-39.9
			C588.5,431.5,589.4,425.8,590,420z"/>
		<path class="st0" d="M457,557c-142.5,0-285,0-427.5,0.1c-3.7,0-4.6-0.8-4.6-4.6c0.2-21.2,0.1-42.3,0.1-63.5c0.6,0.8,1,1.7,1.7,2.5
			c13,14,28.3,24,46.9,29c2.2,0.6,4.4,1.4,6.5,2.3c8.3,3.7,16.2,9.1,24.9,11.1c24.7,5.8,49.6,10.9,74.7,15.1
			c13.5,2.2,27.6,3.7,41.2,2.5c20.3-1.8,40.4-6,60.5-9.5c3.5-0.6,4.9-0.5,5.9,3.3c1.6,6.2,4.1,7.6,10.6,7.2c2.5-0.2,5-0.1,7.5-0.2
			c11.5-0.3,23-0.1,34.3-1.2c14.8-1.4,25.9-8.7,32-22.8c4.2-9.7,7.6-19.6,8.1-30.3c0.2,2.5,0.2,5,0,7.4c-0.2,2.7-0.7,5.3-0.9,7.9
			c-0.5,5.5-0.4,5.5,4.8,4.2c15.3-3.9,30.6-7.8,45.9-11.6c1.3-0.3,4,0.4,4,0.8c0.4,7.7,4.7,15.5-0.1,23.3c-1.7,2.8-1.3,5.3,1.1,7.7
			c1.3,1.3,2.7,2.6,3.5,4.2C442.3,549.5,448.8,554.2,457,557z"/>
		<path d="M457,557c-8.2-2.8-14.7-7.5-18.9-15.2c-0.8-1.6-2.2-2.9-3.5-4.2c-2.3-2.3-2.8-4.9-1.1-7.7c4.8-7.7,0.5-15.5,0.1-23.3
			c0-0.4-2.7-1.1-4-0.8c-15.3,3.8-30.6,7.7-45.9,11.6c-5.2,1.3-5.3,1.2-4.8-4.2c0.2-2.6,0.7-5.3,0.9-7.9c0.2-2.4,0.3-4.9,0-7.4
			c-0.5,10.7-3.9,20.6-8.1,30.3c-6.1,14.2-17.2,21.4-32,22.8c-11.4,1.1-22.9,0.8-34.3,1.2c-2.5,0.1-5,0-7.5,0.2
			c-6.5,0.4-9-0.9-10.6-7.2c-1-3.8-2.5-3.9-5.9-3.3c-20.1,3.5-40.2,7.8-60.5,9.5c-13.6,1.2-27.7-0.2-41.2-2.5
			c-25-4.2-50-9.3-74.7-15.1c-8.7-2-16.6-7.4-24.9-11.1c-2.1-0.9-4.3-1.7-6.5-2.3c-18.6-4.9-33.9-15-46.9-29
			c-0.7-0.7-1.1-1.6-1.7-2.5c0-0.7,0-1.3,0-2c2.9-2.2,5.5-4.7,8.7-6.4c2.9-1.5,3.7-2.4,2.6-5.9c-2.4-7.6-4.2-15.4-5.7-23.2
			c-1.5-7.7,1.4-13.9,8-18.5c28.5-19.8,58.8-36.5,90.2-51.3c10.5-5,22-4.7,33.3-4.9c12.5-0.2,25,0.1,37.5,0c2.1,0,4.5-0.3,6.1-1.4
			c23.7-15.6,49.6-27,75.3-38.9c17.6-8.1,35.7-11.8,55.2-10.9c25.6,1.2,51.2,1.4,76.8,2.1c4,0.1,6.1-0.3,5.8-5.2
			c-0.4-6,3.2-10.3,8.1-13.5c3.6-2.4,7.4-4.5,11-6.9c1.5-1,2.9-2.3,3.9-3.8c4.7-6.9,5.9-9.8-2.6-15.4c-6.7-4.4-7.3-11-7.7-17.9
			c-0.1-1.6,0.2-3.5-0.6-4.8c-2.8-4.5-1.2-8.2,2.6-10.2c4.6-2.5,9.9-3.6,14.8-5.4c1.4-0.5,3.6-1.3,3.9-2.3c0.9-3.9,3.8-5.2,6.9-6.5
			c1.7,0,3.3,0,5,0c-2.4,2.7-1.7,4.7,0.2,7.9c2.5,4.3,3.9,9.2,7.5,13c0.8,0.8,0.5,3.3-0.1,4.7c-3.3,8.4-3.9,17.1-2.3,25.8
			c1.2,6.8-1.3,10.6-8.3,10.8c-1.3,0-2.6,0.2-3.9,0.5c-0.2,0-0.1,1.2-0.1,1.9c4.8-1,5,4.9,8.6,5.7c-2.2,0-5.3-1.5-4.6,3.1
			c0.4,2.6-1.4,3-3.6,2.3c-1.2-0.4-2.3-0.8-3.5-1.2c-0.2,0.7-0.5,1-0.4,1.3c3.4,11.1,6.9,22.2,10.4,33.2c0.2,0.7,1.6,1.6,2.4,1.6
			c2.1-0.1,8.7-8.7,8.5-10.9c-0.2-3.1-0.6-6.3-1-9.4c-0.2-2.1-0.6-4.2-0.8-6.2c0.7-0.1,1.4-0.2,2-0.3c0.7,5.6,1.4,11.2,2.1,16.8
			c0.3,2.4,0.5,5,1.4,7.1c2.2,5.1,1.9,8.4-2.8,11.7c-3,2.1-6.5,3.3-9.6,5.1c-0.8,0.5-1.3,1.6-1.9,2.5c0.8,0.4,1.7,1.2,2.5,1.2
			c4.1-0.3,8.3-0.6,12.4-1.4c8.9-1.8,10.9-4.5,9.1-13.6c-1.7-8.6-4.2-17.1-6.3-25.6c-1.5-5.9-3.9-11.2-9.2-14.7
			c5.1,0.8,7.8,4.4,9.2,8.8c2.3,6.9,4,14.1,6.4,21c0.8,2.2,2.6,4.7,4.6,5.8c7.7,4,15.7,7.2,23.4,11.2c10,5.3,20.9,6.1,31.8,7.3
			c9.4,1,18.7,2.9,27.8,5.4c6.8,1.8,12,6.4,14,13.7c0,12.7,0,25.3,0,38c-0.6,5.8-1.5,11.5-1.7,17.3c-0.6,14.5-5.5,27.7-13,39.9
			c-4.6,7.5-17.9,11-25.7,6.9c-0.8-0.4-1.2-1.5-1.8-2.2c6.5,1.4,13,2.4,19.5-0.2c-6.6-0.9-10.8-5.1-13-10.6
			c-8-20.5-7.1-40.4,6.1-58.7c6.1-8.4,10.7-8.5,18.5-1.5c0.1,0.1,0.5,0,1.2-0.1c-0.9-1.8-1.5-3.4-2.4-5c-3.8-6.3-9-7.5-14.5-2.7
			c-2.9,2.5-5.9,5.8-7.3,9.3c-8.1,21.1-15.9,42.4-10.7,65.7c-0.8-1.2-1.7-2.4-2.1-3.1c-1.8,1.1-3.5,2.6-5.4,3.1
			c-11.9,3.2-23.8,6.3-35.7,9.1c-3.8,0.9-5,2.6-4.5,6.5c0.9,6.8,1.4,13.6,1.8,20.4c0.3,5,2.6,8,7.6,9.1c5.4,1.1,10.7,2.4,16,3.6
			c1.1,0.3,2.4,0.4,3.3,1.1c1.2,0.9,2,2.3,3,3.6c-1.1,0.9-2.1,2.4-3.3,2.6c-4.9,0.8-9.9,1.2-14.8,1.7c-5.3,0.5-10.6,1.1-15.9,1.4
			c-6,0.3-8.9-2.3-8-8c2-12-3.4-22.4-6.3-33.4c-0.2-0.9-2.5-2.2-3.5-1.9c-8.4,1.9-16.8,4.1-25.1,6.5c-1.2,0.3-2.6,2-2.8,3.2
			c-1,5.9-2.1,11.8-2.2,17.8c-0.1,3.2,1.3,6.8,2.9,9.7c3.3,6,7.3,11.5,10.9,17.3c2.3,3.7,1.9,7-2.7,8.7C457.7,557,457.3,557,457,557
			z M455,297c2,0,4,0.1,6-0.1c5.6-0.4,8.2-4.9,5.8-9.9c-0.3-0.6-1.1-0.8-1.7-1.3c-0.3,0.5-1,1.3-0.8,1.6c2.7,3.9-0.8,3.6-2.8,4.1
			c-3.9,0.9-7.7,0.8-11.1-1.4c-0.6-0.4-0.7-1.7-1-2.6c0.9,0,1.9-0.2,2.7,0c3.2,0.6,6.4,1.3,9.5,1.9c0.1-0.5,0.2-1,0.3-1.5
			c-1.5-0.5-3.1-1-6-1.9c1.9-0.4,2.3-0.5,2.8-0.6c1.2-0.2,2.4-0.4,3.6-0.6c-0.5-1.1-1.1-2.1-1.6-3.2c-1.1-2-2.3-4-3.3-6.1
			c-0.2-0.5,0.2-1.7,0.6-1.8c2.8-0.8,5.6-1.3,9-2.1c-2.5-0.6-4.1-1-5.8-1.4c2.7-1.5,6.8-1.4,5.2-5.8c-1.4-3.8-3.9-7.2-8.9-6.2
			c-3.2,0.7-6.4,1.9-9.6,2.4c-5.3,0.9-7.6,3.3-5.9,8.9c0.7,2.4-0.1,5.2-0.3,7.8c-1.9-0.5-3.8-1.1-7.2-2
			C442,283.1,448.5,290.1,455,297c-2.5-1.1-5.1-2.4-7.8-3.6c-3.3,4.4,1.2,5.9,3.8,7.3C454.8,302.8,453.5,298.1,455,297z M438,362
			c4.5,0.5,9.1,1.6,13.5,1.1c4-0.4,7.9-2.5,11.7-4c1.4-0.6,3.5-1.9,3.4-2.8c-0.2-2-1-4.7-2.4-5.6c-1.5-0.9-4.1-0.4-6.2,0
			c-12.1,2.6-12.2,2.8-17.4-8.5c-2.6-5.6-4.7-11.5-7-17.2c0.4-0.2,0.8-0.3,1.2-0.5c2.5,6.1,4.8,12.2,7.5,18.2
			c3.5,8,3.7,7.9,12.1,6.3c0.8-0.2,1.6-0.3,2.5-0.3c4.4-0.2,5.8-2.2,4.4-6.4c-3.3-9.9-6.3-19.9-9.7-29.8c-0.3-0.9-2.2-1.9-3.2-1.8
			c-6.7,1-6.7,1.1-6.6-5.9c0-0.5-0.2-1-0.3-1.7c-2.8,1.7-5.4,3.4-8.1,4.8c-12.1,6.4-14.3,11.1-11.6,24.6c0.2,0.8,0.2,1.7,0.2,2.5
			c-1.7-3.6-4-5.8-8.6-5.9c-29.3-0.5-58.6-1.5-87.9-1.8c-8.7-0.1-17.6-0.1-26.7,4.3c1.5,0.2,2.1,0.2,2.7,0.3
			c29.3,1.3,58.5,2.6,87.8,3.8c8.3,0.4,11,3.1,7.6,10.5c-6.3,14.1-13.6,27.7-20.9,41.3c-1.9,3.7-5.4,6.4-10.1,6.4
			c-4.7,0-9.3-0.2-14-0.3c-10.1-0.1-19.9-2.2-30.3,0.7c-19.8,5.5-40.3,8.5-60.2,13.8c-28.9,7.7-57.7,16.2-83.8,31.7
			c-0.5,0.3-1.4,0.2-2.1,0.3c-0.1-0.5-0.3-1-0.4-1.6c45.6-24.8,95.7-35.9,146-46.7c-7.3-0.8-14.5-1.2-21.8-1.9
			c-20.7-1.9-41.5-3.5-62.1-5.8c-11.5-1.2-22.9-4-34.5-5c-11.4-1-22.9-1.2-34.4-1c-10.3,0.2-21,0.1-30.7,2.8
			c-11.1,3.1-21.7,8.3-31.8,14c-21.9,12.3-43.3,25.5-64.8,38.4c-6.9,4.1-9.8,10.3-8.1,18.2c1.3,6.2,2.7,12.3,4.2,18.5
			c0.7,2.7,3,5.9,2.2,7.9c-0.8,2.2-4.5,3.2-7,4.7c-5.6,3.3-6.1,5.8-1.3,10.4c12.9,12.4,27.6,21.9,45.3,26.1c2,0.5,4,1.5,5.9,2.5
			c4.4,2.3,8.5,5.5,13.2,6.9c14.2,4.2,28.4,8.7,42.8,11.4c21.6,4,43.3,7.7,65.1,9.3c26.7,2,52.9-4.4,79-9.6c3-0.6,3.9-2.2,4.3-5.1
			c1.8-13.8,3.4-27.7,6-41.5c3.2-17.1,8.2-33.7,18.6-48c2.9-4,7.2-7,10.8-10.5c-12.8,13.5-20.7,29.7-24.5,47.7
			c-3.9,18.8-6.6,37.9-9.4,57c-0.9,5.7,3.4,11.2,8.2,11.2c14.1-0.1,28.3-0.1,42.3-1.1c9.6-0.7,18.7-3.9,24.7-12.2
			c7.1-9.9,12.4-20.8,13-33c0.8-16.3,0.7-32.6-0.1-48.9c-0.8-16.5-14.4-28.7-30.8-28.4c-4.7,0.1-9.4,1.5-14.2,2.3
			c0.9-0.7,1.7-1.6,2.7-2c16.3-6.6,33.6-0.5,40.6,15.7c3.7,8.5,6.3,18.1,6.9,27.3c0.9,13.7-0.2,27.6-0.6,41.3
			c-0.1,3.3,0.4,4.6,4.1,3.6c14.9-4,29.9-7.8,44.9-11.5c2.5-0.6,3.9-1.4,3.2-4.4c-0.8-3.3-2.8-2-4.7-1.5c-12,2.9-23.9,5.9-35.9,8.8
			c-2.5,0.6-5,1-7.5,1.4c-0.1-0.5-0.3-0.9-0.4-1.4c1.8-0.6,3.5-1.3,5.3-1.7c12.6-3.1,25.2-6.1,37.8-9.3c2.1-0.5,5.5-0.3,4.6-3.8
			c-0.9-3.8-3.9-1.1-5.7-0.7c-10.7,2.5-21.3,5.2-31.9,8.1c-3.3,0.9-4.3-0.2-4.2-3.2c0-1.3,0-2.7,0-4c0-17.5,0-35,0-52.5
			c0-6-0.1-6-5.8-4.7c-3,0.7-5.9,1.3-8.9,1.9c-0.1-0.4-0.2-0.8-0.3-1.2c3.6-1,7.2-2.2,10.9-2.8c3.3-0.6,4.1-1.9,3.2-5.1
			c-2.1-7-4-14-6-21.1c-0.3-1.2-0.7-2.5-1-3.7c0.5-0.2,0.9-0.3,1.4-0.5c0.6,1.4,1.5,2.8,1.9,4.3c2,6.7,4.1,13.3,5.7,20.1
			c0.7,3.2,1.8,4.3,5,3.5c10.6-2.7,21.3-5.3,32-7.8c2.6-0.6,3.3-1.7,3-4.5c-0.6-6.8-1.1-13.6-0.8-20.4c0.2-3.7-0.7-3.6-3.8-3.2
			c-13.1,2-26.3,4-39.5,5.6c-6.9,0.8-8.5-1.1-5.7-7.1c7.1-15,14.8-29.8,22.5-44.5c1.3-2.4,4.2-3.8,6.4-5.7c-0.1,0.3-0.1,0.7-0.3,0.9
			c-11.7,14.7-19.4,31.6-26.6,48.8c-2.3,5.4-1.1,6.8,4.5,6.1c13.1-1.7,26.3-3.7,39.3-5.8c1.5-0.2,3.6-1.6,3.9-2.8
			C434.3,380.8,436.1,371.4,438,362z M473.8,372.1c-7.1,0.2-14.1,0.7-21.2,0.5c-3.2-0.1-6.4-1.5-9.7-2.1c-1.1-0.2-2.7,0.1-3.4,0.8
			c-0.6,0.6-0.8,2.7-0.3,3.2c0.7,0.7,2.3,0.6,3.4,0.6c1.1,0,2.3-0.4,3.4-0.6c-0.5,1.3-1.4,2.2-2.1,2.2c-7.6-0.6-8,5.1-8.9,10.2
			c-0.7,4.3-2.1,8.6-1.8,12.8c0.8,12.1,2.1,24.2,3.4,36.2c1.5,13.5,4.3,26.8,0.6,40.6c-3.4,12.5-1.4,25.5,0.1,38.2
			c0.2,1.6,3.4,2.9,5.2,4.4c0.8-1.3,2.2-2.6,2.4-4.1c1.3-7.9,2.2-15.8,3.5-23.7c3.2-19.5,7.5-38.9,7.7-58.8
			c0.1-10.6,0.7-21.3,1.4-31.9c0.1-1.9,1.5-3.7,2.4-5.5c1,1.5,2.5,2.9,2.9,4.6c4.2,14.7,8.4,29.4,12.1,44.3
			c1.6,6.5,2.2,13.4,3.1,20.1c0.9,7,1.1,14.2,2.6,21.1c1.9,9.1,5,17.9,7.2,27c0.8,3.6,2.2,5.4,5.9,5c4.2-0.4,3.2-3.7,3-6.1
			c-1-13.6-2.1-27.2-3.1-40.8c-0.8-10.3-0.7-20.7-2.4-30.8c-3.1-18.7-7.1-37.2-10.8-55.8c-0.6-3.1-2.2-6-3.4-9.2
			c0.1-0.1,1.2-0.6,2.3-1.1c-0.7-0.7-1.5-1.3-2.2-2c0.6-1.6,1.3-3.2,1.7-4.8c0-0.1-1.5-1-2.3-1c-3.5,0.1-7,0.3-10.4,0.9
			c-1,0.2-2.7,1.8-2.5,2.5c0.2,1.2,1.5,2.9,2.5,3.1C468.5,372.3,471.2,372.1,473.8,372.1z M511,469L511,469
			c-4.1,1.2-8.1,2.8-12.3,3.8c-2.8,0.7-2.9,2.6-2.2,4.5c0.2,0.6,2.4,1.1,3.5,0.8c10.5-2.4,21-5,31.5-7.6c1.1-0.3,2.2-0.2,3.3-0.3
			c-1.1,1.7-2.4,2.3-3.7,2.6c-6,1.5-12,2.9-17.9,4.3c-4.5,1.1-9.1,2-13.5,3.5c-1.2,0.4-1.7,2.6-2.6,3.9c0.9,0.5,2,1.5,2.7,1.3
			c12.1-2.9,24.2-5.8,36.2-9c1.5-0.4,3.4-2.6,3.7-4.2c2-11.8,3.2-23.7,5.4-35.5c2.2-11.8,5.6-23.4,13.7-32.8
			c8-9.2,17.5-7.9,22.2,3.2c2.7,6.4,4.1,13.3,6.1,19.9c0.8-13.4,0.8-26.8,0.8-40.3c0-7.6-3.2-13.5-10.4-16
			c-7.3-2.6-14.9-5.5-22.5-5.9c-17.3-1.1-34-3.7-49.2-12.5c-3.7-2.2-7.8-3.8-11.7-5.6c-1.1-0.5-2.3-0.8-3.4-1.2
			c-0.4,0.4-0.8,0.8-1.2,1.2c1.3,1.8,2.3,3.9,4,5.2c3.2,2.4,6.8,4.1,10.1,6.4c4.7,3.3,4.7,5.8-0.1,9.1c-2.4,1.7-5.1,3-7.7,4.5
			c0.3-0.5,0.6-1.2,1-1.6c9.7-7.8,9.6-8.8-1.6-15.1c-0.3-0.2-0.6-0.3-0.9-0.5c-2.4-1.5-3.8-0.9-3.9,1.9c-0.1,3.9-2.3,5.8-5.8,6.4
			c-2.9,0.5-3.8,2.2-3.4,4.9c0.2,1.5,0.3,3,0.2,4.5c-0.1,3.4,1.5,4.7,4.8,4c-1.5,1.8-4.7,2.2-3.9,6c1.7,7.1,2.8,14.3,4.2,21.5
			c0.5,2.7,1.5,3.3,4.4,2.5c18.1-5,36.3-9.6,54.3-14.6c11.3-3.1,22.4-6.7,33.6-10c-4,2.4-8.3,4.4-12.7,5.7
			c-24.5,6.8-49,13.4-73.5,20.1c-2.7,0.7-5.1,1.2-4.3,5.1c2.3,10.8,4.4,21.6,6.5,32.4c0.3,0.1,0.6,0.1,0.9,0.2
			c3.4-13.1,6.8-26.2,10.2-39.3c0.8,1.2,1.1,2.3,0.8,3.3C503,424,499.1,438,496,452.3c-1.2,5.3-0.5,11.1-0.5,16.6
			c0,2.5,1.5,2.7,3.8,2.1C503.1,470.2,507.1,469.7,511,469z M205.6,378c3,0.8,4.9,1.4,6.8,1.7c9.2,1.1,18.5,2.2,27.8,3.1
			c20.2,1.9,40.4,3.8,60.6,5.4c20.6,1.5,41.2,2.5,61.8,3.9c5.1,0.3,8.5-1.6,11.4-5.6c9.2-12.6,16-26.4,21.4-41
			c0.3-0.9,0.5-1.9,0.6-2.9c0.4-2.7-0.6-4.1-3.4-4.3c-4.1-0.3-8.3-0.8-12.4-1c-22.6-1-45.2-2.1-67.8-2.8c-7.7-0.2-16.5-1.7-23.1,1.3
			c-25.8,11.5-50.9,24.6-76.1,37.2C210.7,374,208.7,375.8,205.6,378z M393.2,465C393.2,465,393.2,465,393.2,465
			c0,9.6,0.1,19.3,0,28.9c-0.1,3.5,1,4.3,4.4,3.3c8.9-2.5,17.9-5,27-6.9c6.1-1.2,10-3.3,9.6-10.4c-0.1-2.9,1.4-5.8,2-8.7
			c0.6-3.1,1.6-6.3,1.3-9.3c-1.2-11.6-3-23.1-4.2-34.6c-0.4-3.5-1.9-3.9-4.8-3.1c-10.6,2.7-21.2,5.4-31.9,7.9c-3,0.7-3.5,2.3-3.4,5
			C393.3,446.4,393.2,455.7,393.2,465z M581.8,433.5c-0.6-4.3-1-10.3-2.4-16c-1.1-4.4-3.4-10.1-8.5-9.8c-3.4,0.2-7.6,4-9.8,7.3
			c-10.9,16.7-11.9,34.9-5.9,53.5c1.7,5.2,4.4,11.1,10.7,11.1c6.3,0,8.7-5.9,10.9-11C581.3,457.9,581.4,446.5,581.8,433.5z
			 M475.7,466.1c0.2,0,0.4,0,0.6-0.1c-0.6-5.1-0.6-10.3-1.8-15.2c-2.5-10.6-5.6-21.2-8.7-31.7c-0.4-1.3-1.9-2.9-3.1-3.1
			c-2.6-0.4-3.5,1.3-3.7,4c-2,20-4.1,39.9-6.3,59.9c-0.3,3.1,0.7,3,2.9,2.4c3.8-1.1,7.7-2,11.6-3c7.9-2.1,7.9-2.1,8.3-10.3
			C475.5,468.1,475.6,467.1,475.7,466.1z M470.2,258.9c-0.3-0.8-0.3-2.1-0.8-2.3c-6.3-3.2-4.4-11.5-9.8-15.3
			c-0.9-0.6-1.3-1.8-1.9-2.8c-1,1.1-2.5,2.1-2.7,3.3c-0.8,3.5-3.1,3.9-6.2,4.5c-4.3,0.9-8.8,2-12.6,4.2c-2,1.2-2.6,4.8-3.8,7.3
			c2.4,1.1,4.9,3.2,7.2,3c4.5-0.4,8.9-2.3,13.5-3.2c4.9-1,9.9-1.9,13.9,2.5c0.5,0.5,1.6,1,2,0.8
			C469.6,260.6,469.8,259.6,470.2,258.9z M460.2,553c-1.1-2.8-1.6-4.6-2.6-6.1c-4-6.5-7.9-13.1-12.4-19.2c-1.2-1.5-4.9-2.3-7-1.7
			c-2.8,0.8-4,7.4-2.3,9.6c2.2,2.9,4,6.3,6.6,8.7c4,3.6,8.5,6.6,13,9.5C456.5,554.3,458.4,553.3,460.2,553z M489.1,528.8
			c-0.1,5,2,7.3,6.8,7c8.4-0.7,16.9-1.5,25.3-2.4c1.6-0.2,3-1.5,4.5-2.3c-1.4-0.9-2.8-2.2-4.4-2.6c-7.1-2.2-14.2-4.1-21.3-6.3
			C494.7,520.5,489.2,523.9,489.1,528.8z M480.4,489.6c-2.2-1.6-3.5-3.3-4.4-3.1c-7.9,1.7-15.8,3.6-23.6,5.9
			c-1.1,0.3-1.5,3.1-2.2,4.8c1.2,0.2,2.5,0.9,3.6,0.6c7.2-1.7,14.5-3.5,21.6-5.5C476.8,491.9,478,490.9,480.4,489.6z M452.9,489.8
			c7.8-2,15.2-3.8,22.6-5.8c0.7-0.2,1.3-2,1.2-3c-0.1-0.7-1.6-1.8-2.3-1.7c-7.1,1.7-14.2,3.4-21.2,5.5c-0.9,0.3-1.3,2.4-1.7,3.8
			C451.4,488.9,452.5,489.5,452.9,489.8z M458.7,372.2c0.7-0.9,2-1.9,2.2-3c0.8-3.6-2.3-5.3-6.9-4.6c-3.5,0.6-7.1,0.5-10.6,0.8
			c-1,0.1-2,0.2-3,0.3c0.7,0.9,1.2,2.5,2,2.7C447.4,369.7,452.6,370.7,458.7,372.2z M479.5,348.4c-2.2-2.6-3.6-4.3-5-6
			c-1.5,1.8-4.2,3.6-4.3,5.5c-0.1,2.2,2,4.5,3.2,6.7C475.2,352.8,477,351,479.5,348.4z M440.1,273.7c-0.3-3.1-0.4-6-0.9-8.9
			c-0.2-1-1.7-1.9-2.7-2.3c-0.5-0.2-1.9,0.5-2.3,1.1C431.8,267.7,434.6,272.8,440.1,273.7z M460.8,399.6c-0.5,0-1,0-1.6,0
			c0,4.1-0.1,8.2,0.1,12.2c0.1,1,1.4,1.9,2.1,2.8c0.8-1.2,2.3-2.5,2.1-3.6C462.9,407.1,461.7,403.4,460.8,399.6z M442.7,306.6
			c0.8,1.3,1.4,2.2,2,3.1c1.6-1.1,3.3-2.2,4.9-3.3c-1.3-1.7-2.5-3.3-3.8-5C444.8,303,443.9,304.6,442.7,306.6z M459.1,303.1
			c-0.7-0.2-1.4-0.4-2.1-0.6c-0.8,1.9-1.7,3.7-2.3,5.6c-0.1,0.2,2.1,1,3.3,1.6C458.4,307.5,458.8,305.3,459.1,303.1z M584.1,435.7
			c-0.1,0-0.2,0-0.3-0.1c-0.3,5.6-0.5,11.1-0.8,16.7c0.4,0,0.7,0,1.1,0C584.1,446.8,584.1,441.2,584.1,435.7z"/>
		<path class="st0" d="M472.8,308.9c5.3,3.5,7.8,8.8,9.2,14.7c2.1,8.5,4.6,17,6.3,25.6c1.8,9.1-0.2,11.8-9.1,13.6
			c-4,0.8-8.2,1.1-12.4,1.4c-0.8,0.1-1.6-0.8-2.5-1.2c0.6-0.8,1-2,1.9-2.5c3.2-1.8,6.7-3.1,9.6-5.1c4.6-3.3,5-6.6,2.8-11.7
			c-1-2.2-1.1-4.7-1.4-7.1c-0.8-5.6-1.4-11.2-2.1-16.8c-0.7,0.1-1.4,0.2-2,0.3c0.3,2.1,0.6,4.2,0.8,6.2c0.4,3.1,0.7,6.3,1,9.4
			c0.2,2.2-6.5,10.7-8.5,10.9c-0.8,0.1-2.2-0.8-2.4-1.6c-3.6-11.1-7-22.2-10.4-33.2c-0.1-0.2,0.2-0.6,0.4-1.3
			c1.2,0.4,2.3,0.8,3.5,1.2c2.2,0.8,4,0.3,3.6-2.3c-0.7-4.6,2.4-3.1,4.6-3.1C468,307.2,470.4,308,472.8,308.9z"/>
		<path class="st0" d="M545.1,478c-5.2-23.3,2.6-44.6,10.7-65.7c1.3-3.5,4.3-6.8,7.3-9.3c5.5-4.8,10.7-3.6,14.5,2.7
			c0.9,1.5,1.6,3.2,2.4,5c-0.7,0-1.1,0.2-1.2,0.1c-7.7-7-12.4-6.9-18.5,1.5c-13.2,18.3-14.1,38.2-6.1,58.7c2.2,5.6,6.4,9.7,13,10.6
			c-6.5,2.6-12.9,1.6-19.5,0.2C546.9,480.6,546,479.3,545.1,478z"/>
		<path class="st0" d="M411.3,342.9c-2.2,1.9-5.1,3.4-6.4,5.7c-7.8,14.7-15.4,29.4-22.5,44.5c-2.9,6.1-1.2,8,5.7,7.1
			c13.2-1.6,26.3-3.5,39.5-5.6c3-0.5,3.9-0.5,3.8,3.2c-0.3,6.8,0.2,13.6,0.8,20.4c0.3,2.8-0.5,3.9-3,4.5c-10.7,2.6-21.3,5.2-32,7.8
			c-3.2,0.8-4.3-0.3-5-3.5c-1.6-6.8-3.7-13.4-5.7-20.1c-0.4-1.5-1.3-2.9-1.9-4.3c-0.5,0.2-0.9,0.3-1.4,0.5c0.3,1.2,0.7,2.5,1,3.7
			c2,7,3.9,14.1,6,21.1c1,3.2,0.2,4.5-3.2,5.1c-3.7,0.6-7.3,1.8-10.9,2.8c0.1,0.4,0.2,0.8,0.3,1.2c3-0.6,5.9-1.2,8.9-1.9
			c5.7-1.3,5.8-1.3,5.8,4.7c0,17.5,0,35,0,52.5c0,1.3,0,2.7,0,4c-0.1,3,0.9,4.1,4.2,3.2c10.6-2.9,21.2-5.6,31.9-8.1
			c1.8-0.4,4.7-3,5.7,0.7c0.9,3.5-2.5,3.2-4.6,3.8c-12.6,3.1-25.2,6.2-37.8,9.3c-1.8,0.4-3.5,1.1-5.3,1.7c0.1,0.5,0.3,0.9,0.4,1.4
			c2.5-0.5,5-0.8,7.5-1.4c12-2.9,23.9-5.9,35.9-8.8c1.8-0.4,3.9-1.8,4.7,1.5c0.7,2.9-0.8,3.8-3.2,4.4c-15,3.8-30,7.6-44.9,11.5
			c-3.6,1-4.2-0.3-4.1-3.6c0.5-13.8,1.6-27.6,0.6-41.3c-0.6-9.2-3.2-18.8-6.9-27.3c-7-16.2-24.3-22.3-40.6-15.7
			c-1,0.4-1.8,1.3-2.7,2c-3.1,1.8-6.2,3.7-9.4,5.5c-3.6,3.5-7.9,6.5-10.8,10.5c-10.4,14.3-15.4,31-18.6,48
			c-2.6,13.7-4.2,27.6-6,41.5c-0.4,2.9-1.3,4.5-4.3,5.1c-26.1,5.2-52.3,11.5-79,9.6c-21.8-1.6-43.6-5.4-65.1-9.3
			c-14.5-2.7-28.7-7.1-42.8-11.4c-4.7-1.4-8.7-4.6-13.2-6.9c-1.9-1-3.8-2-5.9-2.5c-17.7-4.2-32.4-13.7-45.3-26.1
			c-4.8-4.6-4.3-7,1.3-10.4c2.5-1.5,6.1-2.5,7-4.7c0.8-2-1.6-5.2-2.2-7.9c-1.5-6.1-3-12.3-4.2-18.5c-1.6-8,1.2-14.1,8.1-18.2
			c21.6-12.9,43-26.1,64.8-38.4c10.1-5.7,20.7-10.9,31.8-14c9.8-2.7,20.4-2.6,30.7-2.8c11.5-0.3,23,0,34.4,1
			c11.5,1.1,22.9,3.8,34.5,5c20.7,2.2,41.4,3.9,62.1,5.8c7.3,0.7,14.5,1.1,21.8,1.9c-50.3,10.8-100.4,22-146,46.7
			c0.1,0.5,0.3,1,0.4,1.6c0.7-0.1,1.5,0.1,2.1-0.3c26.1-15.5,54.8-23.9,83.8-31.7c19.9-5.3,40.4-8.3,60.2-13.8
			c10.4-2.9,20.2-0.8,30.3-0.7c4.7,0,9.3,0.3,14,0.3c4.7,0,8.2-2.8,10.1-6.4c7.3-13.6,14.6-27.3,20.9-41.3
			c3.3-7.4,0.7-10.2-7.6-10.5c-29.3-1.3-58.5-2.5-87.8-3.8c-0.6,0-1.2-0.1-2.7-0.3c9.1-4.4,18-4.4,26.7-4.3
			c29.3,0.3,58.6,1.3,87.9,1.8c4.6,0.1,6.8,2.3,8.6,5.9c0.3,1,0.6,1.9,0.9,2.9C419.1,339.6,415.2,341.2,411.3,342.9z M69.9,498.9
			C69.9,498.9,70,499,69.9,498.9c-4.5-2.2-9-4.5-13.7-6.6c-9.7-4.3-11.3-3.2-11.4,7.6c0,1.3,1.1,3.3,2.2,3.7
			c10.1,3.9,20.2,7.6,30.4,11.3c2.3,0.8,3.2-0.1,2.2-2.4c-1.5-3.5-2.8-7.2-4.8-10.4C74,500.6,71.7,500,69.9,498.9z M55.4,447.5
			c6.8,6.4,15.4,9.3,24.2,11.6c21,5.6,42.5,5.6,63.9,5.9c36.2,0.6,72.2-1.6,108.1-6.1c17.5-2.2,34.9-4.7,51.6-10.8
			c1.7-0.6,3.3-1.6,5.5-2.6c-1.3-0.5-1.6-0.8-1.8-0.8c-2.2,0.7-4.4,1.4-6.6,2.1c-24.2,7.9-49.4,11-74.6,12.6
			c-31.9,2.1-63.8,3-95.8,3.1C104.3,462.6,78.6,461.4,55.4,447.5z M77.9,494.7c0.1,0.6,0.2,1.1,0.3,1.7c3.1-0.4,6.1-1.1,9.2-1.2
			c25.1-0.7,50.3-1.5,75.4-1.9c2.2,0,5.3,1.3,6.7,3.1c8,9.8,15.6,20,23.2,30.1c0.8,1.1,1.1,2.6,1.7,3.9c-1.4,0.2-2.8,0.7-4.2,0.6
			c-18.7-1.8-37.5-3.2-56.1-5.6c-8.3-1.1-16.6-3.7-24.4-6.7c-8.5-3.3-13.5-10-14.5-19.3c-0.1-0.8-0.7-1.5-1.1-2.2
			c-0.9,1.8-0.9,3.4-0.6,4.9c2.8,12.5,11.4,19.4,23.3,22c11.2,2.5,22.6,4.3,33.9,5.7c13.2,1.6,26.5,2.6,39.8,3.6
			c2.1,0.2,4.3-1,6.4-1.6c-0.8-2.1-1.1-4.5-2.4-6.2c-6.4-8.8-13.5-17-19.3-26.1c-4.5-7-10.2-9-18-8.7c-22.5,0.9-44.9,1.4-67.4,2.2
			C85.8,493,81.8,494.1,77.9,494.7z M66.4,470.9c0,0.7,0,1.5,0,2.2c16.5,1.6,32.9,4,49.5,4.8c30.1,1.4,60.3,0.7,90.2-3.7
			c30.4-4.5,60.6-10.1,90.9-15.3c1.2-0.2,2.4-0.8,3.6-1.3c-0.1-0.4-0.2-0.8-0.3-1.2C223,472.9,145.5,484,66.4,470.9z M175.5,451.2
			c0.7,0.5,0.9,0.9,1.2,0.9c5.6-0.3,11.3-0.8,16.9-0.8c27-0.1,51.1-9.5,73.8-23.2c2.4-1.4,3.9-4.1,5.9-6.2c-2.5-1.7-4.8-3.8-7.5-4.9
			c-12.8-4.8-24.6-0.7-35.9,5.1c-17,8.8-33.9,17.8-50.8,26.7C177.9,449.4,176.8,450.3,175.5,451.2z M296,468.7
			c-0.5-0.5-1-0.9-1.6-1.4c-0.3,0.8-0.6,1.6-0.9,2.3c-3.9,8.9-9.1,17.6-11.5,26.9c-2.5,9.9-2.3,20.4-3.2,30.6
			c-0.2,2.5-0.2,4.4-3.6,4.7c-29.2,3.3-58.2,8.8-87.7,8.9c-0.5,0-1,0.3-1.5,0.5c0.1,0.5,0.1,0.9,0.2,1.4c3.9,0,7.7,0.4,11.6-0.1
			c24.9-2.7,49.9-5.6,74.8-8.5c8.4-1,8.5-1,8.5-9.2c0-19,3.1-37.1,13.7-53.3C295.3,470.8,295.6,469.7,296,468.7z M249.3,509.3
			c6.5-1.3,14.2-0.4,18.8-6.4c7.5-9.6,14.3-19.6,21.3-29.5c0.5-0.7,0.5-1.8,0.7-2.7c-0.9-0.1-1.9-0.4-2.7-0.1
			c-7.5,2.1-15.1,4-22.4,6.8c-3,1.1-5.9,3.9-7.6,6.8c-4.1,6.8-7.4,14.1-11,21.2C244.7,508.7,246,509.6,249.3,509.3z M277.9,510.9
			c0.1-3-0.7-3.5-4.6-2.9c-6.7,1-13.4,2.1-20.2,3c-6,0.8-10.6,3-12.7,9.3c-1,3-2.9,5.6-4.3,8.4c-0.5,1.1-0.6,2.5-0.9,3.7
			c1.2,0.1,2.5,0.6,3.7,0.4c8.2-1.4,16.3-2.9,24.4-4.6C273,526.1,277.4,520.8,277.9,510.9z M314.9,436.7
			c19.8-19.6,44.1-17.8,68.7-14.5C361.5,414.8,325.1,418.3,314.9,436.7z M129.1,449.7c-9.9-1-21.3-1.8-32.5-3.5
			c-11.3-1.8-21.9-6.2-31.2-13.3C73.4,445,111.2,453,129.1,449.7z"/>
		<path class="st0" d="M205.6,378c3.1-2.2,5.1-4,7.4-5.2c25.3-12.6,50.4-25.6,76.1-37.2c6.6-3,15.4-1.5,23.1-1.3
			c22.6,0.7,45.2,1.8,67.8,2.8c4.2,0.2,8.3,0.7,12.4,1c2.8,0.2,3.8,1.7,3.4,4.3c-0.2,1-0.3,2-0.6,2.9c-5.4,14.6-12.2,28.4-21.4,41
			c-2.9,3.9-6.3,5.9-11.4,5.6c-20.6-1.4-41.2-2.4-61.8-3.9c-20.2-1.5-40.4-3.5-60.6-5.4c-9.3-0.9-18.5-2-27.8-3.1
			C210.5,379.5,208.6,378.8,205.6,378z"/>
		<path class="st0" d="M495.7,372.5c2.6-1.5,5.3-2.8,7.7-4.5c4.8-3.4,4.8-5.8,0.1-9.1c-3.3-2.3-6.9-4-10.1-6.4
			c-1.7-1.3-2.7-3.4-4-5.2c0.4-0.4,0.8-0.8,1.2-1.2c1.1,0.4,2.3,0.7,3.4,1.2c3.9,1.8,7.9,3.5,11.7,5.6c15.2,8.9,31.9,11.4,49.2,12.5
			c7.6,0.5,15.2,3.4,22.5,5.9c7.2,2.5,10.4,8.5,10.4,16c0,13.5,0,26.9-0.8,40.3c-2-6.7-3.4-13.6-6.1-19.9
			c-4.7-11.2-14.2-12.4-22.2-3.2c-8.1,9.3-11.5,21-13.7,32.8c-2.2,11.7-3.4,23.7-5.4,35.5c-0.3,1.6-2.1,3.8-3.7,4.2
			c-12,3.2-24.1,6.2-36.2,9c-0.8,0.2-1.8-0.9-2.7-1.3c0.8-1.4,1.4-3.5,2.6-3.9c4.4-1.5,9-2.4,13.5-3.5c6-1.4,12-2.8,17.9-4.3
			c1.4-0.3,2.6-1,3.7-2.6c-1.1,0.1-2.3,0-3.3,0.3c-10.5,2.5-21,5.1-31.5,7.6c-1.1,0.3-3.3-0.2-3.5-0.8c-0.7-1.9-0.6-3.8,2.2-4.5
			c4.1-1,8.2-2.6,12.2-3.9c3,0.6,4.3-0.7,4.3-3.7c-0.1-5.5,0.1-11,0-16.5c-0.1-3,0.9-4.3,4.2-4.8c7.6-1.1,15.2-2.8,22.7-4.2
			c-0.1-0.5-0.2-0.9-0.3-1.4c-9,1.8-18,3.4-26.9,5.5c-0.9,0.2-1.9,2.5-1.9,3.8c-0.2,5.1,0.2,10.3-0.1,15.5c-0.1,2-1.2,3.9-1.9,5.8
			c-3.9,0.7-7.9,1.1-11.7,2.1c-2.3,0.6-3.8,0.3-3.8-2.1c0-5.6-0.7-11.3,0.5-16.6c3.1-14.3,7-28.4,10.6-42.5c0.2-1,0-2.1-0.8-3.3
			c-3.4,13.1-6.8,26.2-10.2,39.3c-0.3-0.1-0.6-0.1-0.9-0.2c-2.2-10.8-4.3-21.6-6.5-32.4c-0.8-3.8,1.6-4.3,4.3-5.1
			c24.5-6.6,49-13.3,73.5-20.1c4.5-1.2,8.7-3.3,12.7-5.7c-11.2,3.3-22.3,6.9-33.6,10c-18.1,5-36.3,9.6-54.3,14.6
			c-2.9,0.8-3.9,0.1-4.4-2.5c-1.3-7.2-2.5-14.4-4.2-21.5c-0.9-3.8,2.4-4.2,3.9-6C489.3,375.5,492.5,374,495.7,372.5z M535.1,374.5
			c-0.1-0.5-0.3-1.5-0.6-2.4c-2.2-5.3-13.6-7.9-17.9-4.1c-0.6,0.5-0.9,2.2-0.6,2.9c2.4,5.4,5,10.8,7.8,16.1c0.4,0.8,2.2,1.6,3,1.3
			C530,387.4,535.2,378.7,535.1,374.5z"/>
		<path class="st0" d="M476.9,371.2c0.7,0.7,1.5,1.3,2.2,2c-1.1,0.5-2.1,1.1-2.3,1.1c1.2,3.2,2.8,6.1,3.4,9.2
			c3.8,18.6,7.8,37.1,10.8,55.8c1.7,10.1,1.6,20.5,2.4,30.8c1,13.6,2.2,27.2,3.1,40.8c0.2,2.4,1.2,5.7-3,6.1c-3.7,0.4-5.1-1.5-5.9-5
			c-2.1-9.1-5.2-17.9-7.2-27c-1.5-6.9-1.6-14.1-2.6-21.1c-0.9-6.7-1.5-13.5-3.1-20.1c-3.7-14.8-7.9-29.5-12.1-44.3
			c-0.5-1.7-1.9-3.1-2.9-4.6c-0.8,1.8-2.2,3.6-2.4,5.5c-0.7,10.6-1.3,21.3-1.4,31.9c-0.2,19.9-4.5,39.3-7.7,58.8
			c-1.3,7.9-2.2,15.8-3.5,23.7c-0.2,1.4-1.6,2.7-2.4,4.1c-1.8-1.5-5-2.7-5.2-4.4c-1.5-12.7-3.5-25.7-0.1-38.2
			c3.7-13.8,0.9-27.1-0.6-40.6c-1.3-12-2.7-24.1-3.4-36.2c-0.3-4.2,1.1-8.5,1.8-12.8c0.9-5.1,1.2-10.8,8.9-10.2
			c0.8,0.1,1.6-0.8,2.1-2.2c-1.1,0.2-2.3,0.6-3.4,0.6c-1.2,0-2.7,0.1-3.4-0.6c-0.5-0.5-0.3-2.5,0.3-3.2c0.7-0.7,2.3-1,3.4-0.8
			c3.3,0.6,6.5,2,9.7,2.1c7,0.2,14.1-0.3,21.2-0.5C474.8,371.8,475.9,371.5,476.9,371.2z"/>
		<path class="st0" d="M393.2,465c0-9.3,0.1-18.6,0-27.9c0-2.6,0.4-4.3,3.4-5c10.7-2.4,21.3-5.1,31.9-7.9c2.9-0.7,4.4-0.4,4.8,3.1
			c1.3,11.6,3.1,23.1,4.2,34.6c0.3,3-0.7,6.2-1.3,9.3c-0.6,2.9-2.2,5.8-2,8.7c0.3,7.1-3.5,9.2-9.6,10.4c-9.1,1.8-18.1,4.4-27,6.9
			c-3.4,0.9-4.5,0.2-4.4-3.3C393.4,484.3,393.3,474.6,393.2,465C393.2,465,393.2,465,393.2,465z"/>
		<path class="st0" d="M322.3,434.9c3.1-1.8,6.2-3.7,9.4-5.5c4.7-0.8,9.4-2.2,14.2-2.3c16.4-0.3,30,11.9,30.8,28.4
			c0.7,16.3,0.9,32.6,0.1,48.9c-0.6,12.1-6,23.1-13,33c-6,8.4-15.2,11.5-24.7,12.2c-14.1,1-28.2,1-42.3,1.1c-4.8,0-9-5.5-8.2-11.2
			c2.8-19,5.5-38.1,9.4-57C301.6,464.6,309.5,448.4,322.3,434.9z M312,529L312,529c3.9,9.4,17.8,16.3,28.9,13.7
			c17.1-3.9,26.4-16,31.2-31.9c4.7-15.4,3.8-31.2,1.4-47c-1.7-11.7-8.2-20.1-17.6-26.7c-7.5-5.2-15.3-5.6-23.6-1.6
			c-11.8,5.8-19.1,15.3-23.6,27.2c-5.6,14.8-6.4,30.2-4.5,45.7C305.1,515.9,306.3,523.4,312,529z"/>
		<path class="st0" d="M411.3,342.9c3.9-1.6,7.7-3.2,11.6-4.9c1,2.3,2,4.6,3,6.9c2,7.2,4.6,13.9,12.1,17.2L438,362
			c-1.9,9.4-3.6,18.8-5.8,28.2c-0.3,1.2-2.4,2.5-3.9,2.8c-13.1,2.1-26.2,4-39.3,5.8c-5.6,0.8-6.8-0.7-4.5-6.1
			c7.1-17.2,14.9-34.1,26.6-48.8C411.2,343.6,411.2,343.2,411.3,342.9z"/>
		<path class="st0" d="M426,344.9c-1-2.3-2-4.6-3-6.9c-0.3-1-0.6-1.9-0.9-2.9c-0.1-0.8-0.1-1.7-0.2-2.5
			c-2.7-13.6-0.5-18.2,11.6-24.6c2.7-1.5,5.4-3.2,8.1-4.8c0.1,0.7,0.3,1.2,0.3,1.7c-0.2,7-0.2,6.9,6.6,5.9c1-0.1,2.9,0.9,3.2,1.8
			c3.4,9.9,6.4,19.9,9.7,29.8c1.4,4.3,0,6.3-4.4,6.4c-0.8,0-1.7,0.1-2.5,0.3c-8.4,1.6-8.5,1.7-12.1-6.3c-2.7-6-5-12.1-7.5-18.2
			c-0.4,0.2-0.8,0.3-1.2,0.5c2.3,5.7,4.4,11.6,7,17.2c5.2,11.3,5.3,11.2,17.4,8.5c2-0.4,4.7-0.9,6.2,0c1.5,0.9,2.3,3.6,2.4,5.6
			c0.1,0.8-2.1,2.2-3.4,2.8c-3.8,1.6-7.7,3.6-11.7,4c-4.4,0.5-9-0.7-13.5-1.1c0,0,0.1,0.1,0.1,0.1C434,356.3,430,350.6,426,344.9z"
			/>
		<path class="st0" d="M581.8,433.5c-0.4,13-0.5,24.3-5,35c-2.1,5.1-4.6,11-10.9,11c-6.3,0-9-5.8-10.7-11.1c-6-18.6-5-36.8,5.9-53.5
			c2.2-3.3,6.3-7.1,9.8-7.3c5.1-0.3,7.4,5.4,8.5,9.8C580.8,423.2,581.2,429.2,581.8,433.5z"/>
		<path class="st0" d="M475.7,466.1c-0.1,1-0.2,2-0.3,3c-0.4,8.2-0.4,8.2-8.3,10.3c-3.9,1-7.7,1.9-11.6,3c-2.3,0.6-3.3,0.6-2.9-2.4
			c2.2-19.9,4.3-39.9,6.3-59.9c0.3-2.7,1.2-4.3,3.7-4c1.2,0.2,2.8,1.8,3.1,3.1c3.1,10.5,6.1,21,8.7,31.7c1.2,4.9,1.2,10.1,1.8,15.2
			C476.1,466.1,475.9,466.1,475.7,466.1z"/>
		<path class="st0" d="M455,297c-6.5-6.9-13.1-13.9-20.5-21.8c3.4,1,5.3,1.5,7.2,2c0.1-2.6,0.9-5.4,0.3-7.8c-1.6-5.7,0.7-8,5.9-8.9
			c3.2-0.6,6.4-1.8,9.6-2.4c5-1,7.5,2.4,8.9,6.2c1.6,4.4-2.5,4.3-5.2,5.8c1.7,0.4,3.3,0.8,5.8,1.4c-3.5,0.8-6.3,1.3-9,2.1
			c-0.4,0.1-0.8,1.4-0.6,1.8c1,2.1,2.2,4.1,3.3,6.1c0.6,1,1.1,2.1,1.6,3.2c-1.2,0.2-2.4,0.4-3.6,0.6c-0.4,0.1-0.9,0.2-2.8,0.6
			c2.9,0.9,4.4,1.4,6,1.9c-0.1,0.5-0.2,1-0.3,1.5c-3.2-0.6-6.3-1.3-9.5-1.9c-0.9-0.2-1.8,0-2.7,0c0.3,0.9,0.3,2.1,1,2.6
			c3.4,2.3,7.3,2.4,11.1,1.4c2-0.5,5.5-0.2,2.8-4.1c-0.2-0.2,0.5-1,0.8-1.6c0.6,0.4,1.4,0.7,1.7,1.3c2.5,4.9-0.2,9.5-5.8,9.9
			C459,297,457,296.9,455,297L455,297z M455.1,276c-2.5-3.7-5.1-5.2-8.4-3.3c-0.8,0.5-1.5,2.8-1.1,3.6
			C449.3,283,451.3,274.3,455.1,276z"/>
		<path class="st0" d="M470.2,258.9c-0.4,0.8-0.6,1.8-1.2,2.1c-0.4,0.2-1.5-0.3-2-0.8c-4-4.4-9-3.6-13.9-2.5
			c-4.5,0.9-8.9,2.8-13.5,3.2c-2.3,0.2-4.8-1.9-7.2-3c1.2-2.5,1.8-6.2,3.8-7.3c3.7-2.2,8.2-3.4,12.6-4.2c3-0.6,5.4-1,6.2-4.5
			c0.3-1.2,1.8-2.2,2.7-3.3c0.6,0.9,1,2.2,1.9,2.8c5.4,3.8,3.5,12.1,9.8,15.3C469.9,256.8,469.9,258,470.2,258.9z"/>
		<path class="st0" d="M460.2,553c-1.8,0.3-3.7,1.3-4.6,0.7c-4.5-2.9-9-6-13-9.5c-2.7-2.4-4.5-5.7-6.6-8.7c-1.7-2.3-0.5-8.8,2.3-9.6
			c2.1-0.6,5.9,0.2,7,1.7c4.5,6.1,8.4,12.7,12.4,19.2C458.6,548.4,459.1,550.2,460.2,553z"/>
		<path class="st0" d="M489.1,528.8c0.1-4.9,5.6-8.3,10.8-6.7c7.1,2.2,14.3,4.1,21.3,6.3c1.6,0.5,2.9,1.7,4.4,2.6
			c-1.5,0.8-2.9,2.1-4.5,2.3c-8.4,1-16.8,1.8-25.3,2.4C491,536.1,489,533.8,489.1,528.8z"/>
		<path class="st0" d="M495.7,372.5c-3.2,1.5-6.3,3-9.5,4.4c-3.3,0.8-4.9-0.5-4.8-4c0-1.5,0-3-0.2-4.5c-0.4-2.7,0.4-4.4,3.4-4.9
			c3.5-0.6,5.7-2.5,5.8-6.4c0.1-2.9,1.5-3.4,3.9-1.9c0.3,0.2,0.6,0.3,0.9,0.5c11.3,6.3,11.4,7.3,1.6,15.1
			C496.2,371.3,496,372,495.7,372.5z"/>
		<path class="st0" d="M480.4,489.6c-2.4,1.3-3.6,2.3-4.9,2.7c-7.2,1.9-14.4,3.8-21.6,5.5c-1.1,0.3-2.4-0.4-3.6-0.6
			c0.7-1.6,1.1-4.4,2.2-4.8c7.8-2.3,15.7-4.2,23.6-5.9C476.9,486.3,478.2,488,480.4,489.6z"/>
		<path class="st0" d="M452.9,489.8c-0.4-0.3-1.5-0.9-1.4-1.2c0.4-1.4,0.8-3.5,1.7-3.8c7-2.1,14.1-3.8,21.2-5.5
			c0.6-0.2,2.2,1,2.3,1.7c0.1,1-0.5,2.8-1.2,3C468.1,486.1,460.6,487.8,452.9,489.8z"/>
		<path class="st0" d="M458.7,372.2c-6.1-1.4-11.2-2.5-16.3-3.9c-0.9-0.2-1.4-1.8-2-2.7c1-0.1,2-0.2,3-0.3c3.5-0.2,7.1-0.2,10.6-0.8
			c4.7-0.8,7.7,1,6.9,4.6C460.6,370.3,459.4,371.2,458.7,372.2z"/>
		<path class="st0" d="M476.9,371.2c-1,0.3-2,0.6-3,0.9c-2.7,0-5.4,0.2-7.9-0.3c-1.1-0.2-2.3-1.9-2.5-3.1c-0.1-0.7,1.5-2.3,2.5-2.5
			c3.4-0.6,6.9-0.7,10.4-0.9c0.8,0,2.3,0.9,2.3,1C478.1,368,477.5,369.6,476.9,371.2z"/>
		<path class="st0" d="M479.5,348.4c-2.5,2.5-4.4,4.4-6.2,6.2c-1.2-2.2-3.3-4.6-3.2-6.7c0.1-1.9,2.8-3.7,4.3-5.5
			C475.9,344.1,477.4,345.8,479.5,348.4z"/>
		<path class="st0" d="M440.1,273.7c-5.4-1-8.2-6-6-10.1c0.4-0.6,1.7-1.3,2.3-1.1c1.1,0.4,2.5,1.4,2.7,2.3
			C439.7,267.7,439.8,270.7,440.1,273.7z"/>
		<path class="st0" d="M460.8,399.6c1,3.8,2.2,7.6,2.8,11.4c0.2,1-1.4,2.4-2.1,3.6c-0.7-0.9-2.1-1.8-2.1-2.8
			c-0.2-4.1-0.1-8.1-0.1-12.2C459.7,399.6,460.2,399.6,460.8,399.6z"/>
		<path class="st0" d="M455,297c-1.5,1.1-0.2,5.8-4,3.7c-2.6-1.4-7.1-2.9-3.8-7.3C449.9,294.6,452.5,295.8,455,297L455,297z"/>
		<path class="st0" d="M442.7,306.6c1.2-1.9,2.1-3.6,3.1-5.2c1.3,1.7,2.5,3.3,3.8,5c-1.6,1.1-3.3,2.2-4.9,3.3
			C444.1,308.8,443.5,307.8,442.7,306.6z"/>
		<path class="st0" d="M459.1,303.1c-0.3,2.2-0.7,4.4-1,6.6c-1.2-0.5-3.3-1.4-3.3-1.6c0.5-1.9,1.5-3.8,2.3-5.6
			C457.7,302.7,458.4,302.9,459.1,303.1z"/>
		<path class="st0" d="M584.1,435.7c0,5.5,0,11.1,0,16.6c-0.4,0-0.7,0-1.1,0c0.3-5.6,0.5-11.1,0.8-16.7
			C583.9,435.7,584,435.7,584.1,435.7z"/>
		<path d="M55.4,447.5c23.1,13.8,48.9,15.1,74.5,15c31.9-0.1,63.9-1.1,95.8-3.1c25.2-1.6,50.3-4.7,74.6-12.6
			c2.2-0.7,4.4-1.4,6.6-2.1c0.2-0.1,0.6,0.2,1.8,0.8c-2.2,1.1-3.8,2-5.5,2.6c-16.7,6.1-34.1,8.7-51.6,10.8
			c-35.9,4.5-71.9,6.7-108.1,6.1c-21.4-0.4-43-0.4-63.9-5.9C70.8,456.8,62.2,454,55.4,447.5z"/>
		<path d="M77.9,494.7c4-0.6,7.9-1.7,11.9-1.8c22.5-0.8,45-1.2,67.4-2.2c7.8-0.3,13.5,1.6,18,8.7c5.8,9.1,13,17.3,19.3,26.1
			c1.3,1.7,1.6,4.1,2.4,6.2c-2.1,0.6-4.3,1.7-6.4,1.6c-13.3-1-26.6-2-39.8-3.6c-11.4-1.4-22.7-3.2-33.9-5.7
			c-11.9-2.6-20.5-9.5-23.3-22c-0.3-1.5-0.4-3.1,0.6-4.9c0.4,0.7,1,1.5,1.1,2.2c0.9,9.4,6,16.1,14.5,19.3c7.8,3,16.1,5.6,24.4,6.7
			c18.6,2.4,37.4,3.9,56.1,5.6c1.4,0.1,2.8-0.4,4.2-0.6c-0.6-1.3-0.9-2.8-1.7-3.9c-7.6-10.1-15.2-20.2-23.2-30.1
			c-1.4-1.7-4.4-3.1-6.7-3.1c-25.1,0.4-50.3,1.2-75.4,1.9c-3.1,0.1-6.1,0.8-9.2,1.2C78.1,495.9,78,495.3,77.9,494.7z"/>
		<path d="M66.4,470.9c79,13.1,156.6,2,233.8-14.5c0.1,0.4,0.2,0.8,0.3,1.2c-1.2,0.4-2.4,1.1-3.6,1.3c-30.3,5.2-60.5,10.8-90.9,15.3
			c-29.9,4.4-60,5.1-90.2,3.7c-16.5-0.8-33-3.1-49.5-4.8C66.4,472.3,66.4,471.6,66.4,470.9z"/>
		<path d="M175.5,451.2c1.3-0.9,2.4-1.8,3.6-2.4c16.9-8.9,33.8-18,50.8-26.7c11.3-5.8,23.1-9.9,35.9-5.1c2.7,1,5,3.2,7.5,4.9
			c-1.9,2.1-3.5,4.8-5.9,6.2c-22.7,13.7-46.8,23.1-73.8,23.2c-5.6,0-11.3,0.6-16.9,0.8C176.5,452.1,176.2,451.8,175.5,451.2z
			 M182.4,448.9c0.2,0.4,0.3,0.8,0.5,1.2c5.3-0.4,10.6-1,15.9-1.1c25.6-0.7,48.2-10.5,69.6-23.6c1.1-0.7,2.2-2.1,2.3-3.3
			c0.1-0.7-1.7-2-2.8-2.3c-9.2-2.7-18.5-4.5-27.7,0c-11.8,5.7-23.7,11.4-35.4,17.3C197.2,440.8,189.8,445,182.4,448.9z"/>
		<path d="M296,468.7c-0.4,1-0.7,2.1-1.3,3C284.1,488,281,506.1,281,525c0,8.2-0.1,8.2-8.5,9.2c-24.9,2.8-49.9,5.7-74.8,8.5
			c-3.8,0.4-7.7,0.1-11.6,0.1c-0.1-0.5-0.1-0.9-0.2-1.4c0.5-0.2,1-0.5,1.5-0.5c29.5-0.1,58.5-5.6,87.7-8.9c3.4-0.4,3.4-2.3,3.6-4.7
			c0.9-10.3,0.7-20.8,3.2-30.6c2.4-9.3,7.5-18,11.5-26.9c0.3-0.8,0.6-1.6,0.9-2.3C294.9,467.8,295.5,468.2,296,468.7z"/>
		<path d="M249.3,509.3c-3.2,0.3-4.6-0.6-2.8-3.9c3.7-7.1,7-14.4,11-21.2c1.7-2.8,4.6-5.6,7.6-6.8c7.3-2.8,14.9-4.6,22.4-6.8
			c0.8-0.2,1.8,0.1,2.7,0.1c-0.2,0.9-0.2,2-0.7,2.7c-7,9.9-13.8,20-21.3,29.5C263.4,508.9,255.8,508,249.3,509.3z M286.2,474.1
			c-0.2-0.3-0.5-0.6-0.7-1c-6.5,1.9-13,3.8-19.3,5.9c-1.8,0.6-3.9,1.8-4.8,3.4c-4.6,7.8-8.8,15.8-13.7,24.7
			c7.7-0.4,14.4-0.3,18.7-5.7C273.4,492.7,279.7,483.3,286.2,474.1z"/>
		<path d="M277.9,510.9c-0.4,9.9-4.8,15.2-14.6,17.2c-8.1,1.7-16.3,3.1-24.4,4.6c-1.2,0.2-2.5-0.2-3.7-0.4c0.3-1.2,0.4-2.6,0.9-3.7
			c1.4-2.8,3.3-5.4,4.3-8.4c2.1-6.3,6.7-8.5,12.7-9.3c6.7-0.9,13.4-2,20.2-3C277.2,507.4,278,508,277.9,510.9z M237.6,530.8
			c9.5-1.8,17.6-3.3,25.7-4.9c7.9-1.6,10.4-4.6,11.8-12.5c0.5-3.1-0.6-3.5-3-3.1c-7,1-14.1,1.9-21.1,3.2c-2.2,0.4-4.9,1.7-6.1,3.5
			C242.2,520.9,240.4,525.4,237.6,530.8z"/>
		<path d="M69.9,498.9c1.7,1,4.1,1.6,5.1,3.2c2,3.2,3.3,6.9,4.8,10.4c1,2.4,0.1,3.3-2.2,2.4c-10.2-3.7-20.3-7.4-30.4-11.3
			c-1.1-0.4-2.2-2.4-2.2-3.7c0.1-10.9,1.6-11.9,11.4-7.6C60.9,494.4,65.4,496.8,69.9,498.9c-5.5-1.9-11-4-16.6-5.8
			c-1.5-0.5-3.3,0-4.9,0c0.8,3.1-3.8,7.4,0.7,9.3c8.8,3.9,18.1,6.8,27.2,10.2c0.4-0.4,0.9-0.7,1.3-1.1
			C75,507.3,72.5,503.1,69.9,498.9z"/>
		<path d="M314.9,436.7c10.2-18.4,46.7-21.9,68.7-14.5C358.9,418.9,334.6,417.1,314.9,436.7z"/>
		<path d="M129.1,449.7c-17.9,3.3-55.7-4.7-63.7-16.8c9.3,7,19.9,11.4,31.2,13.3C107.9,448,119.3,448.7,129.1,449.7z"/>
		<path d="M535.1,374.5c0.1,4.2-5.1,12.9-8.4,14c-0.8,0.3-2.6-0.5-3-1.3c-2.8-5.3-5.3-10.7-7.8-16.1c-0.3-0.8,0-2.4,0.6-2.9
			c4.4-3.8,15.7-1.2,17.9,4.1C534.9,373,535,374,535.1,374.5z M523.5,368.3c-4.3-0.1-5.8,0.9-4.8,3.3c1.9,4.6,4.2,9,6.5,13.4
			c0.2,0.4,1.8,0.8,1.8,0.7c2-3.8,4.6-7.6,5.5-11.7C533.2,370.8,528.5,368.3,523.5,368.3z"/>
		<path d="M511,469c0.7-1.9,1.8-3.9,1.9-5.8c0.2-5.1-0.1-10.3,0.1-15.5c0.1-1.4,1-3.6,1.9-3.8c8.9-2,17.9-3.7,26.9-5.5
			c0.1,0.5,0.2,0.9,0.3,1.4c-7.6,1.4-15.1,3.1-22.7,4.2c-3.3,0.5-4.3,1.7-4.2,4.8c0.1,5.5,0,11,0,16.5
			C515.2,468.3,514,469.5,511,469L511,469z"/>
		<path d="M312,529c-5.7-5.6-6.9-13.1-7.8-20.4c-1.9-15.5-1.1-30.9,4.5-45.7c4.5-11.9,11.8-21.4,23.6-27.2c8.3-4.1,16-3.7,23.6,1.6
			c9.4,6.5,15.9,15,17.6,26.7c2.4,15.8,3.3,31.5-1.4,47c-4.9,15.9-14.2,27.9-31.2,31.9C329.8,545.3,315.9,538.4,312,529
			c1,0.9,2.2,1.8,3.2,2.8c10.8,11.5,25.7,12.7,38.2,3c9-7,14.6-16.3,17.4-27.3c3.9-15.1,3-30.4,0.4-45.6c-1.8-10-7.6-17.6-15.8-23.3
			c-6.1-4.2-12.6-4.9-19.5-2.1c-9.7,3.9-16.8,10.7-21.6,19.9c-6.5,12.4-8,25.9-8.7,39.6C305.1,507.6,307.4,518.5,312,529z"/>
		<path d="M426,344.9c4,5.7,8,11.5,12.1,17.2C430.6,358.7,427.9,352,426,344.9z"/>
		<path d="M455.1,276c-3.8-1.6-5.8,7.1-9.5,0.3c-0.4-0.8,0.3-3.2,1.1-3.6C450,270.7,452.6,272.2,455.1,276z"/>
		<path class="st0" d="M182.4,448.9c7.4-4,14.8-8.1,22.3-11.8c11.7-5.9,23.6-11.6,35.4-17.3c9.2-4.5,18.5-2.7,27.7,0
			c1.1,0.3,2.9,1.6,2.8,2.3c-0.1,1.2-1.2,2.7-2.3,3.3c-21.4,13.1-43.9,22.9-69.6,23.6c-5.3,0.1-10.6,0.7-15.9,1.1
			C182.7,449.7,182.6,449.3,182.4,448.9z"/>
		<path class="st0" d="M286.2,474.1c-6.6,9.1-12.8,18.5-19.8,27.4c-4.3,5.4-11,5.3-18.7,5.7c4.9-8.9,9.1-16.9,13.7-24.7
			c0.9-1.5,3-2.8,4.8-3.4c6.4-2.1,12.9-4,19.3-5.9C285.8,473.5,286,473.8,286.2,474.1z"/>
		<path class="st0" d="M237.6,530.8c2.8-5.5,4.6-10,7.3-13.9c1.2-1.8,3.9-3,6.1-3.5c7-1.4,14.1-2.2,21.1-3.2c2.5-0.4,3.6,0,3,3.1
			c-1.4,7.9-3.9,10.9-11.8,12.5C255.2,527.5,247.1,529,237.6,530.8z"/>
		<path class="st0" d="M69.9,498.9c2.6,4.2,5.1,8.4,7.7,12.6c-0.4,0.4-0.9,0.7-1.3,1.1c-9.1-3.3-18.4-6.3-27.2-10.2
			c-4.5-2,0.1-6.2-0.7-9.3c1.6,0,3.4-0.5,4.9,0C58.9,494.9,64.4,497,69.9,498.9C70,499,69.9,498.9,69.9,498.9z"/>
		<path class="st0" d="M523.5,368.3c5,0.1,9.7,2.6,9,5.8c-0.9,4.1-3.5,7.8-5.5,11.7c0,0.1-1.6-0.2-1.8-0.7
			c-2.3-4.4-4.5-8.8-6.5-13.4C517.6,369.2,519.1,368.2,523.5,368.3z"/>
		<path class="st0" d="M312,529c-4.6-10.5-6.9-21.4-6.4-32.9c0.6-13.7,2.2-27.2,8.7-39.6c4.8-9.2,11.8-16,21.6-19.9
			c6.9-2.7,13.4-2.1,19.5,2.1c8.3,5.7,14.1,13.3,15.8,23.3c2.7,15.2,3.6,30.4-0.4,45.6c-2.8,10.9-8.4,20.2-17.4,27.3
			c-12.5,9.7-27.3,8.5-38.2-3C314.2,530.8,313.1,529.9,312,529L312,529z"/>
	</g>
</g>
</svg>
