<svg class="cycle-js" version="1.1" id="Layer_1" xmlns="http://www.w3.org/2000/svg" xmlns:xlink="http://www.w3.org/1999/xlink" x="0px" y="0px" viewBox="0 0 459 594" style="enable-background:new 0 0 459 594;" xml:space="preserve"> <style type="text/css"> .st0{fill:#FFFFFF;} .st1{fill:none;} </style> <g> <g> <path class="st0" fill="#FFFFFF" d="M0.8,285c0-24,0-48,0-72c7.2-0.1,14.5-0.2,21.7-0.3c27.3-0.5,54.7-1,82-1.5c3.9-0.1,7.8,0,11.7,0 c0-0.4,0.1-0.7,0.1-1.1c-1.2-0.6-2.3-1.4-3.5-1.9C94.4,200.7,76,193,57.5,185.5c-12.4-5.1-25.3-7.1-38.8-6.4 c-5.9,0.3-12-1.9-17.9-2.9c0-58.5,0-117,0-175.5c153,0,306,0,459,0c0,63,0,126,0,189c-4.9,2.9-10.1,3.1-15.6,2 c-6.5-1.4-8.7,0-10.3,6.4c-0.1,0.5-0.2,1-0.3,1.5c-1.3,5.1-4.5,7.2-9.7,6.4c-2.2-0.3-4.4-1-6.6-1.3c-12.4-1.4-24.8-2.8-37.2-4.1 c-12.8-1.3-25.5-5.5-38.5-1.3c-0.1,0-0.4-0.2-0.7-0.4c0-1.4-0.2-2.9,0-4.4c2.4-13.1,4.3-26.4,7.7-39.3c2.7-10.3,4.9-20.3,2.7-30.9 c-4.3-21.2-23.3-34.8-43.3-31c-10,1.9-13.1,6.3-11,16.3c0.1,0.5,0.2,1,0.2,1.5c0.3,3.6-1.3,5.8-5,6c-3.1,0.1-6.3,0.1-9.3-0.5 c-18.3-3.1-36.5-2.8-54.7,1.6c-12.3,3-17.8,0.4-22.6-11.1c-4.8-11.4-18.8-17.9-30.7-17.5c-16.5,0.6-29.1,14.5-32.5,26.9 c-3.1,11.2-1.1,22,3.3,32.5c2.5,6,4.6,12.1,7.1,18.1c3.7,9,3.3,17.2-2.3,25.6c-4.8,7.2-8.1,15.2-8.5,24.1 c-0.7,14.4-3.8,28.2-9.4,41.4c-3.5,8.2-1.8,15.4,3.6,22c1.1,1.4,2.4,2.8,4.2,4.8c-3.9,0-7,0-10.1,0C87,285.1,43.9,285,0.8,285z"/> <path d="M0.8,285c43.1,0,86.2,0.1,129.4,0.1c3.1,0,6.1,0,10.1,0c-1.8-2.1-3-3.4-4.2-4.8c-5.4-6.6-7.1-13.8-3.6-22 c5.6-13.2,8.7-27,9.4-41.4c0.4-8.9,3.7-16.9,8.5-24.1c5.6-8.3,6.1-16.6,2.3-25.6c-2.5-6-4.6-12.1-7.1-18.1 c-4.4-10.5-6.3-21.3-3.3-32.5c3.4-12.5,15.9-26.4,32.5-26.9c11.9-0.4,25.9,6.2,30.7,17.5c4.8,11.5,10.4,14,22.6,11.1 c18.1-4.4,36.3-4.7,54.7-1.6c3.1,0.5,6.2,0.6,9.3,0.5c3.7-0.2,5.3-2.4,5-6c0-0.5-0.1-1-0.2-1.5c-2-10,1-14.4,11-16.3 c20.1-3.8,39,9.8,43.3,31c2.2,10.6,0,20.6-2.7,30.9c-3.4,12.9-5.2,26.1-7.7,39.3c-0.3,1.4,0,3,0,4.4c0.3,0.2,0.6,0.5,0.7,0.4 c13-4.2,25.7-0.1,38.5,1.3c12.4,1.3,24.8,2.7,37.2,4.1c2.2,0.3,4.4,0.9,6.6,1.3c5.2,0.8,8.4-1.4,9.7-6.4c0.1-0.5,0.2-1,0.3-1.5 c1.6-6.4,3.8-7.8,10.3-6.4c5.5,1.2,10.7,0.9,15.6-2c0,7.3,0,14.5,0,21.8c-31,0.4-61.9,0.8-92.9,1.2c-7.6,0.1-15.2,0.2-22.8,0.2 c-2.1,0-3.2,0.4-3.1,2.9c0.7,10.1-1.3,19.8-4.3,29.4c-4,13-7.3,26.1-11,39.4c1.4,0.2,1.9,0.4,2.5,0.4c43.8,0,87.7,0,131.5-0.1 c0,6.8,0,13.5,0,20.3c-23.2,0-46.4,0-69.8,0c-0.1,1.5-0.2,2.6-0.2,3.7c0,37.6,0,75.2,0,112.8c0,0.5,0,1,0,1.5 c0.4,4.8,1.9,6.2,6.6,6.2c11.5,0,23,0,34.5,0c9.6,0,19.2,0.1,28.8,0.2c0,55,0,110,0,165c-153,0-306,0-459,0c0-55,0-110,0-165 c16.2,0,32.3,0,48.5,0c0-42,0-83,0-124.5c-16.3,0-32.4,0-48.5,0C0.8,298.5,0.8,291.8,0.8,285z M360.1,436c-0.5-3.5-1-6.2-1.3-9 c-0.1-0.9,0.2-1.9,0.4-2.9c0.8,0.8,2.1,1.4,2.3,2.3c0.6,2.8,0.6,5.7,1,8.5c0.1,0.9,0.5,2.4,1.2,2.6c5.6,2.1,11.3,2.6,17.2,1.5 c-0.2-0.8-0.1-1.2-0.3-1.5c-2.2-3.4-4.5-6.8-6.7-10.3c-0.5-0.7-0.6-1.7-0.9-2.5c1,0.1,2.1,0.1,2.9,0.5c0.8,0.4,1.5,1.3,2,2.2 c2.2,3.4,4.3,6.9,6.5,10.4c4.8-2.3,6-4.9,3.8-9.8c-1.5-3.3-3.3-6.5-5.2-9.5c-12-18.5-21.5-38.2-28.2-59.3c-3-9.5-6.6-18.9-11-27.8 c-5.3-10.7-13.5-19.3-22.2-26.2c-5.6,5.7-10.5,11.5-16.2,16.4c-7.3,6.1-15.2,11.4-23,16.8c-9.9,6.9-20.9,10.8-33.1,10 c-9.8-0.6-19.7-1.6-29.4-3c-17-2.3-33.5-6.7-49.1-14.2c-9.3-4.5-15.9-11.1-17.9-21.6c-0.5-2.5-1.6-4.9-2.5-7.6 c-2.7,0.7-5,1.2-7.3,1.8c-13.4,3.9-23,11.7-28,25.3c-2.3,6.5-6.3,12.4-9.7,18.5c-1.3,2.3-3.2,4.2-4.8,6.2 c-5.6,7.5-11.9,14.5-16.7,22.6c-6,10.2-12.8,19.2-22.1,26.6c-4.3,3.4-4.1,6.8,0.1,10c2.2-1.5,4.3-3.1,6.6-4.3 c1-0.5,2.4-0.1,3.6-0.1c-0.7,0.8-1.3,1.8-2.1,2.5c-1.8,1.4-3.8,2.6-6.4,4.5c6,3.2,11.2,6,15.6,8.4c2.6-3.7,4.7-6.9,7-9.8 c0.4-0.5,1.9-0.3,2.9-0.4c-0.3,0.8-0.5,1.8-1,2.5c-1.4,2.3-3.2,4.4-4.3,6.8c-0.3,0.7,0.7,2.9,1.5,3.2c4.1,1.4,8.3,2.7,12.6,3.4 c5.2,0.8,8.8-1.1,6.7-7.7c-3.2-10.2-1-15.2,8.2-21.1c5.2-3.3,9.1-7.7,11.6-13.4c2-4.6,4-9.2,6.5-13.5c8.7-14.7,16.1-29.9,18-47.2 c0.1-0.8,0.7-1.6,1.1-2.3c0.4,0.1,0.7,0.1,1.1,0.2c0.2,1.4,0.6,2.7,0.5,4.1c-0.9,9.8-1.6,19.7-3,29.4 c-3.4,23.3-9.8,45.9-17.6,68.1c-3,8.7-3.9,17.5-2.4,26.6c1.1,6.8,2.5,13.5,3.3,20.3c1.2,10.2,2.5,20.3,2.8,30.5 c0.3,9.3-4.2,14.8-13,17.9c-1.5,0.5-2.9,1.2-4.8,2.1c2.6,4.6,6.9,6.6,10.8,8.8c1.2,0.7,3.6,0.8,4.6,0c3.5-2.6,6.5-5.7,9.8-8.5 c0.8-0.7,1.9-1,2.9-1.5c-0.2,1.1,0,2.6-0.7,3.2c-3.3,3.5-6.8,6.9-10.4,10.4c5.3,2.6,10.8,5.2,16.3,7.9c2.9-6.2,5.5-11.9,8.1-17.6 c0.7,0.3,1.3,0.5,2,0.8c-1.1,6.3-5.3,11.7-7.2,18.2c5.4,2.3,10.8,4.5,16.3,6.9c1.4-4,2.5-7.5,3.9-11c0.4-1,1.7-1.7,2.6-2.5 c0,1.1,0.4,2.3,0.1,3.3c-1.1,3.7-2.4,7.3-3.8,11.6c5.2,1.4,10.1,2.9,15.1,3.9c6.1,1.2,9.3-0.5,11.3-6.4c1.2-3.4,2.2-7,2.2-10.6 c0-9.1-0.7-18.1-1.2-27.2c0-0.5-0.8-1.2-1.4-1.5c-6-2.6-9.6-7.6-12.2-13.2c-15.9-34.4-20.8-69.6-7.9-106.2 c3.9-11.1,9.5-21,20-27.1c17.8-10.3,36.1-10.5,53.9-0.6c18.1,10.2,27.6,26.3,28.3,47.2c0.6,15.3-3.6,29.7-9.7,43.5 c-4.4,9.9-9.5,19.5-13.9,29.4c-3.2,7.3-5.8,14.9-13.6,18.9c3.8,4.2,3.7,6.2-0.3,10c-2.2,2.1-4.5,4-6.5,6.2 c-3.4,3.7-4.5,7.9-2.8,12.8c0.6,1.7,1.3,2.5,3.4,2.6c7.9,0.3,15.4-1.1,22.5-4.5c1-0.5,2.3-0.4,3.4-0.6c0.1,0.5,0.2,1,0.3,1.5 c-7.7,5.5-16.8,6.5-26.4,6.9c3.4,3.9,7,7.4,10.8,10.8c0.8,0.7,2.4,0.6,3.6,0.5c7.2-0.5,13.2-3.4,18.1-8.7c0.8-0.9,2.2-1.2,3.3-1.8 c-0.4,1.3-0.5,2.8-1.3,3.7c-4.1,4.8-9.3,7.9-15.6,9.1c-1,0.2-2,0.5-3.5,0.9c6.8,5,13.7,8.4,21.4,9.9c1.2,0.2,3.1-0.4,3.8-1.4 c3.3-4.2,6.4-8.6,9.6-12.9c0.6-0.8,1.5-1.3,2.3-1.9c0.1,1.1,0.5,2.4,0.1,3.3c-0.9,2.2-2.2,4.2-3.5,6.2c-1.7,2.5-3.7,4.8-5.7,7.4 c18,1.2,33.3-10.5,35.1-27.6c2-18.7,2.9-37.6,4-56.4c1.4-22.9,2.1-45.9,3.9-68.8c0.9-11.4,3.4-22.7,5.6-33.9 c0.6-3.3,1.8-7.5,6-7.8c3.9-0.3,5.6,3.3,7.2,6.3c6.8,13.2,9.6,27.1,6.3,41.7C346.4,426.4,352.1,432.8,360.1,436z M141.9,238.4 c-2.2,6.7-3.8,13.1-6.4,18.9c-4,8.8-2.4,16.3,4.1,22.9c8.4,8.7,13.7,18.9,16.5,30.6c1.4,5.9,4.5,10.6,9.5,13.9 c4,2.6,8.2,4.8,12.5,6.7c21.8,9.4,44.9,12.4,68.2,14.2c11.1,0.9,21.6-1.2,30.8-7.3c10.1-6.7,19.8-13.9,29.4-21.3 c8.7-6.7,13.4-16,15.8-26.8c3.6-15.9,7.7-31.8,12.2-47.5c3-10.2,4.1-20.4,3.6-31c-0.4-7.8,0.2-15.7,0.6-23.5c0.2-4.2,1-8.3,1.7-13 c-1.7,0.7-3,1.2-4.2,1.8c-31.7,14.8-63.3,29.6-95,44.3c-10.7,5-21.6,9.8-32.4,14.7c-8.3,3.8-13.5,10.9-18.6,17.3 c7,0.5,14,0.6,20.8,1.4c13,1.6,26,3.4,39.2,2.1c8.3-0.8,13.2,2.8,15.2,10.9c2.5,10.2-1.3,18.8-6.2,27.4 c-10.8,18.8-32.3,29.6-52,25.9c-14.4-2.7-23.7-13.1-25.4-27.5c-0.8-6.3-2.4-12.5-3.7-18.7c-0.9-4.3-1.8-8.5-2.7-12.9 C158.9,263.1,148.1,254.5,141.9,238.4z M143.9,213c0.5,0.3,1,0.5,1.4,0.8c0.5-0.7,1-1.3,1.5-2c7.1-9.6,16.4-14.9,28.5-14.3 c12.5,0.6,24.4,3.7,35.2,10.3c8.2,5.1,17,6.5,25.8,3.1c8.1-3.2,16-7.1,23.3-11.8c25-15.8,51.6-27.7,80.6-34.1 c1.3-0.3,2.7-1.9,3.2-3.3c1.6-4.3,2.8-8.8,4.1-13.2c3.2-10.8,2.8-21.5-1.8-31.8c-6.9-15.7-22.3-23.9-38.3-20.6 c-7.5,1.6-9.8,5.1-8.2,12.5c0.2,0.7,0.3,1.5,0.4,2.2c0.6,5.3-2.3,8.8-7.6,9c-3.1,0.1-6.3-0.1-9.3-0.5c-12.6-1.8-25.3-3.4-38-1.4 c-6.8,1.1-13.5,2.7-20.3,3.6c-10.6,1.5-16.5-2.1-21.1-12c-1.5-3.1-3.2-6.4-5.6-8.8c-11.4-11.3-30.4-11.3-42.1-0.4 c-11.8,10.9-14.8,24.4-10.4,39.3c2.8,9.5,6.9,18.7,10.5,28c3.5,9,2.6,17.3-2.6,25.7C149.3,199.6,146.9,206.5,143.9,213z M230.8,501.6c13.3,0.5,16.6-1.6,21.5-12.3c2.8-6.1,5.4-12.3,8.5-18.3c8.3-16.4,15.7-33.1,17.3-51.8c2.5-29.1-16.7-53.9-45.3-58.3 c-21.4-3.3-41.4,7.3-49.4,26.8c-5.3,12.8-8.6,26.3-9.5,40.3c-1.2,19.4,3.1,38,9.2,56.2c2.5,7.6,5.6,15,11,21.1 c4.9,5.5,8.6,6.2,14.8,2.4C216.1,503.2,224,501.3,230.8,501.6z M198,256c-3.1,0.5-6.9,1-10.6,1.9c-8,2-9.4,5.3-7.5,13.1 c2.1,8.3,3.3,16.8,5.3,25.2c0.9,3.7,2,7.7,4.3,10.5c7.7,9.7,18.2,13.9,30.5,12.2c21-2.9,34-15.8,42-34.7 c2.2-5.1,2.4-10.4,1.1-15.8c-1.6-6.7-5.3-9.1-12.1-9c-9,0.1-17.9,0-26.9-0.6C215.6,258.3,207.2,257,198,256z M60.9,400.3 c7.2-5.9,12.9-12,17.4-19.3c5.3-8.6,10.7-17.3,17.2-24.9c7.9-9.3,14.3-19.1,18.5-30.5c2.9-7.8,7.8-13.9,14.9-18.3 c0.7-0.4,1.3-0.9,2.4-1.8c-23.9,0-47.1,0-70.4,0C60.9,337,60.9,368.2,60.9,400.3z M376.9,404.4c0.4-0.1,0.8-0.3,1.2-0.4 c0-32.8,0-65.7,0-98.5c-17.2,0-34.1,0-51.5,0c0.9,1,1.5,1.7,2.1,2.2c10.5,9.6,18.3,21.1,23.3,34.4c3.8,10,6.6,20.5,10.5,30.4 C366.9,383.3,372.1,393.8,376.9,404.4z M147.5,348.8c-0.1,0-0.3,0-0.4,0c-3.1,6.1-6.2,12.3-9.3,18.4c-3.2,6.3-6.9,12.5-9.7,19 c-3.4,7.9-8.4,13.9-15.8,18.4c-5.6,3.3-7.2,8.1-5.8,14.4c0.8,3.3,1.3,6.7,2,10.5c5.4,0,11.2,0.1,17-0.1c0.8,0,2-1.3,2.4-2.2 c6.7-19.5,12.8-39.1,16.4-59.4C145.5,361.5,146.5,355.2,147.5,348.8z M324.3,429.2c7.8,0,15.1,0,21.8,0c0-4.8-0.7-9.5,0.1-13.8 c2.3-13.1-0.1-25.3-5.6-37.1c-1.2-2.5-3.1-4.6-4.7-6.8c-0.6,0.1-1.3,0.2-1.9,0.2C326.3,390,326.5,409.7,324.3,429.2z M60.9,429.2 c7.9,0,15.4,0,23,0c-7.8-4-15.3-7.9-23-12C60.9,421.4,60.9,425.2,60.9,429.2z"/> <path class="st0" fill="#FFFFFF" d="M459.8,285c-43.8,0-87.7,0.1-131.5,0.1c-0.6,0-1.2-0.2-2.5-0.4c3.7-13.3,7-26.5,11-39.4 c3-9.6,5-19.3,4.3-29.4c-0.2-2.5,0.9-2.9,3.1-2.9c7.6,0,15.2-0.1,22.8-0.2c31-0.4,61.9-0.8,92.9-1.2 C459.8,236,459.8,260.5,459.8,285z"/> <path class="st0" fill="#FFFFFF" d="M459.8,429.8c-9.6-0.1-19.2-0.2-28.8-0.2c-11.5,0-23,0-34.5,0c-4.7,0-6.2-1.5-6.6-6.2c0-0.5,0-1,0-1.5 c0-37.6,0-75.2,0-112.8c0-1.1,0.1-2.2,0.2-3.7c23.4,0,46.6,0,69.8,0C459.8,346.8,459.8,388.3,459.8,429.8z"/> <path class="st0" fill="#FFFFFF" d="M0.8,305.3c16.1,0,32.2,0,48.5,0c0,41.5,0,82.5,0,124.5c-16.1,0-32.3,0-48.5,0C0.8,388.3,0.8,346.8,0.8,305.3 z"/> <path d="M0.7,176.3c6,1,12,3.2,17.9,2.9c13.5-0.8,26.4,1.3,38.8,6.4c18.5,7.5,36.9,15.2,55.4,22.8c1.2,0.5,2.3,1.2,3.5,1.9 c0,0.4-0.1,0.7-0.1,1.1c-3.9,0-7.8-0.1-11.7,0c-27.3,0.5-54.7,1-82,1.5c-7.2,0.1-14.5,0.2-21.7,0.3C0.8,200.8,0.8,188.5,0.7,176.3 z"/> <path class="st0" fill="#FFFFFF" d="M360.1,436c-8-3.1-13.8-9.6-11.7-18.7c3.4-14.5,0.6-28.5-6.3-41.7c-1.5-3-3.3-6.6-7.2-6.3 c-4.2,0.3-5.3,4.5-6,7.8c-2.2,11.3-4.7,22.5-5.6,33.9c-1.8,22.9-2.5,45.9-3.9,68.8c-1.1,18.8-2,37.7-4,56.4 c-1.8,17.1-17.1,28.8-35.1,27.6c2-2.6,4-4.9,5.7-7.4c1.3-1.9,2.6-4,3.5-6.2c0.4-0.9-0.1-2.2-0.1-3.3c-0.8,0.6-1.7,1.1-2.3,1.9 c-3.2,4.3-6.2,8.7-9.6,12.9c-0.7,0.9-2.7,1.6-3.8,1.4c-7.7-1.6-14.6-4.9-21.4-9.9c1.5-0.4,2.5-0.7,3.5-0.9 c6.2-1.2,11.4-4.3,15.6-9.1c0.8-0.9,0.9-2.5,1.3-3.7c-1.1,0.6-2.5,0.9-3.3,1.8c-4.9,5.3-10.9,8.2-18.1,8.7 c-1.2,0.1-2.8,0.2-3.6-0.5c-3.8-3.3-7.4-6.9-10.8-10.8c9.6-0.4,18.7-1.4,26.4-6.9c-0.1-0.5-0.2-1-0.3-1.5 c-1.1,0.2-2.4,0.1-3.4,0.6c-7.1,3.4-14.6,4.8-22.5,4.5c-2.1-0.1-2.8-0.9-3.4-2.6c-1.7-4.9-0.5-9.1,2.8-12.8c2-2.2,4.3-4.1,6.5-6.2 c4-3.8,4.1-5.7,0.3-10c7.8-4,10.4-11.6,13.6-18.9c4.4-9.9,9.5-19.5,13.9-29.4c6.1-13.8,10.3-28.2,9.7-43.5 c-0.8-20.9-10.2-37-28.3-47.2c-17.8-10-36.1-9.7-53.9,0.6c-10.5,6.1-16.1,16-20,27.1c-12.9,36.6-8.1,71.8,7.9,106.2 c2.6,5.6,6.2,10.6,12.2,13.2c0.6,0.3,1.4,0.9,1.4,1.5c0.5,9.1,1.1,18.1,1.2,27.2c0,3.5-1,7.2-2.2,10.6c-2.1,5.8-5.3,7.6-11.3,6.4 c-5-1-9.8-2.5-15.1-3.9c1.4-4.3,2.7-7.9,3.8-11.6c0.3-1,0-2.2-0.1-3.3c-0.9,0.8-2.1,1.5-2.6,2.5c-1.4,3.5-2.5,7-3.9,11 c-5.5-2.3-10.9-4.6-16.3-6.9c1.9-6.5,6.1-11.9,7.2-18.2c-0.7-0.3-1.3-0.5-2-0.8c-2.6,5.7-5.2,11.4-8.1,17.6 c-5.5-2.7-11-5.3-16.3-7.9c3.6-3.6,7.1-6.9,10.4-10.4c0.6-0.7,0.5-2.1,0.7-3.2c-1,0.5-2.1,0.8-2.9,1.5c-3.3,2.8-6.3,6-9.8,8.5 c-1,0.8-3.4,0.7-4.6,0c-3.9-2.2-8.2-4.2-10.8-8.8c1.9-0.8,3.3-1.5,4.8-2.1c8.8-3.1,13.3-8.6,13-17.9c-0.4-10.2-1.6-20.4-2.8-30.5 c-0.8-6.8-2.2-13.6-3.3-20.3c-1.5-9.1-0.7-17.9,2.4-26.6c7.8-22.2,14.2-44.8,17.6-68.1c1.4-9.7,2.1-19.6,3-29.4 c0.1-1.3-0.3-2.7-0.5-4.1c-0.4-0.1-0.7-0.1-1.1-0.2c-0.4,0.8-1,1.5-1.1,2.3c-1.8,17.3-9.3,32.5-18,47.2c-2.5,4.3-4.5,8.9-6.5,13.5 c-2.5,5.7-6.4,10.1-11.6,13.4c-9.2,5.9-11.4,10.8-8.2,21.1c2.1,6.6-1.5,8.5-6.7,7.7c-4.3-0.7-8.5-2-12.6-3.4 c-0.8-0.3-1.9-2.5-1.5-3.2c1.1-2.4,2.9-4.5,4.3-6.8c0.5-0.8,0.7-1.7,1-2.5c-1,0.1-2.4-0.2-2.9,0.4c-2.3,3-4.4,6.1-7,9.8 c-4.4-2.4-9.6-5.1-15.6-8.4c2.7-1.8,4.6-3.1,6.4-4.5c0.8-0.6,1.4-1.6,2.1-2.5c-1.2,0-2.6-0.4-3.6,0.1c-2.3,1.2-4.4,2.8-6.6,4.3 c-4.2-3.1-4.4-6.5-0.1-10c9.3-7.3,16.1-16.4,22.1-26.6c4.7-8,11-15.1,16.7-22.6c1.6-2.1,3.5-4,4.8-6.2c3.4-6.1,7.4-12,9.7-18.5 c4.9-13.6,14.5-21.4,28-25.3c2.3-0.7,4.6-1.2,7.3-1.8c0.9,2.7,2,5.1,2.5,7.6c2,10.5,8.6,17.2,17.9,21.6 c15.6,7.5,32,11.9,49.1,14.2c9.8,1.3,19.6,2.4,29.4,3c12.2,0.7,23.2-3.2,33.1-10c7.8-5.4,15.7-10.8,23-16.8 c5.8-4.8,10.7-10.7,16.2-16.4c8.7,6.8,16.9,15.4,22.2,26.2c4.4,8.9,8,18.3,11,27.8c6.7,21.1,16.2,40.8,28.2,59.3 c2,3,3.8,6.2,5.2,9.5c2.2,4.9,1,7.5-3.8,9.8c-2.2-3.5-4.3-7-6.5-10.4c-0.5-0.8-1.2-1.7-2-2.2c-0.8-0.4-1.9-0.4-2.9-0.5 c0.3,0.9,0.4,1.8,0.9,2.5c2.2,3.5,4.5,6.9,6.7,10.3c0.2,0.3,0.2,0.7,0.3,1.5c-6,1.1-11.7,0.6-17.2-1.5c-0.6-0.2-1-1.7-1.2-2.6 c-0.4-2.8-0.5-5.7-1-8.5c-0.2-0.9-1.5-1.5-2.3-2.3c-0.1,1-0.5,2-0.4,2.9C359.2,429.7,359.6,432.5,360.1,436z"/> <path class="st0" fill="#FFFFFF" d="M141.9,238.4c6.2,16,17,24.7,33.8,23.5c0.9,4.4,1.8,8.7,2.7,12.9c1.3,6.2,2.9,12.4,3.7,18.7 c1.8,14.4,11.1,24.7,25.4,27.5c19.7,3.8,41.2-7,52-25.9c4.9-8.5,8.6-17.2,6.2-27.4c-2-8.1-6.9-11.7-15.2-10.9 c-13.2,1.3-26.2-0.5-39.2-2.1c-6.9-0.8-13.9-1-20.8-1.4c5.1-6.4,10.3-13.4,18.6-17.3c10.8-5,21.6-9.7,32.4-14.7 c31.7-14.7,63.3-29.5,95-44.3c1.2-0.6,2.5-1.1,4.2-1.8c-0.6,4.7-1.4,8.8-1.7,13c-0.4,7.8-1,15.7-0.6,23.5 c0.5,10.6-0.6,20.8-3.6,31c-4.5,15.7-8.7,31.5-12.2,47.5c-2.4,10.8-7.1,20.1-15.8,26.8c-9.6,7.4-19.3,14.6-29.4,21.3 c-9.2,6.1-19.7,8.1-30.8,7.3c-23.4-1.8-46.5-4.8-68.2-14.2c-4.3-1.9-8.5-4.1-12.5-6.7c-5-3.2-8.1-8-9.5-13.9 c-2.8-11.7-8.1-21.9-16.5-30.6c-6.5-6.7-8.1-14.1-4.1-22.9C138.2,251.5,139.7,245.2,141.9,238.4z M280.7,230.9c0-0.1,0-0.2,0-0.2 c-3.3,0.4-6.7,0.6-10,1.1c-5,0.7-8.6,3.3-9.9,8.4c-1.3,5.3,0,10,4.2,13.5c7.9,6.7,22.9,4,27.9-5.1c2.3-4.3,3.7-8.9,1-13.6 c-2.6-4.5-7.3-4.2-11.7-4.2C281.7,230.8,281.2,230.8,280.7,230.9z M294.3,222.6c-0.1-0.5-0.2-0.9-0.3-1.4 c-3.1-0.7-6.2-1.7-9.4-2.2c-7.5-1.1-14.6,0.4-21.1,4.4c-0.6,0.4-0.9,1.5-1.3,2.2c0.7,0.1,1.7,0.6,2.1,0.4c8.8-5.5,18-5.9,27.6-2.5 C292.6,223.7,293.5,222.9,294.3,222.6z"/> <path class="st0" fill="#FFFFFF" d="M143.9,213c3-6.5,5.4-13.4,9.1-19.4c5.2-8.4,6.1-16.7,2.6-25.7c-3.6-9.3-7.6-18.5-10.5-28 c-4.4-15-1.4-28.4,10.4-39.3c11.8-10.9,30.7-10.9,42.1,0.4c2.4,2.4,4.1,5.6,5.6,8.8c4.6,9.8,10.5,13.4,21.1,12 c6.8-0.9,13.5-2.6,20.3-3.6c12.8-2,25.4-0.4,38,1.4c3.1,0.4,6.2,0.6,9.3,0.5c5.3-0.2,8.1-3.8,7.6-9c-0.1-0.7-0.2-1.5-0.4-2.2 c-1.6-7.5,0.7-11,8.2-12.5c16-3.3,31.4,4.9,38.3,20.6c4.6,10.4,5,21,1.8,31.8c-1.3,4.4-2.5,8.9-4.1,13.2c-0.5,1.3-1.9,3-3.2,3.3 c-29,6.4-55.6,18.3-80.6,34.1c-7.3,4.6-15.2,8.6-23.3,11.8c-8.8,3.5-17.6,2-25.8-3.1c-10.7-6.6-22.7-9.7-35.2-10.3 c-12.1-0.6-21.4,4.7-28.5,14.3c-0.5,0.7-1,1.4-1.5,2C144.9,213.5,144.4,213.3,143.9,213z M168.2,102.6c-1.3,0.1-2.8,0.1-4.3,0.3 c-7.7,1-10.3,4.3-7.9,11.7c2.4,7.3,5.7,14.4,8.7,21.4c1.3,3,4,3.7,6.9,3.1c2.4-0.5,5-1.2,7-2.5c5.4-3.5,10.8-7.2,15.9-11.2 c5.8-4.5,5.9-7.4,0.8-12.9c-1.3-1.5-2.9-2.8-4.5-3.9C184.1,104.3,176.4,103.1,168.2,102.6z M317.6,138.3c4.7-0.5,9.3-0.9,13.8-1.6 c5.6-0.8,7.2-2.7,7.5-8.5c0.6-10.3-4.7-17.6-12.4-23.4c-6.3-4.8-11.1-3.6-14.2,3.7c-2.9,6.9-5.2,14-7.4,21.1 c-1.2,3.7,0.4,6.4,4.3,7.4C311.9,137.7,314.8,137.9,317.6,138.3z"/> <path class="st0" fill="#FFFFFF" d="M230.8,501.6c-6.8-0.4-14.7,1.6-21.9,6c-6.2,3.8-9.9,3.1-14.8-2.4c-5.4-6.1-8.5-13.5-11-21.1 c-6.1-18.2-10.4-36.8-9.2-56.2c0.9-14,4.2-27.4,9.5-40.3c8.1-19.5,28.1-30.1,49.4-26.8c28.6,4.4,47.8,29.2,45.3,58.3 c-1.6,18.7-9,35.4-17.3,51.8c-3,6-5.6,12.2-8.5,18.3C247.4,500,244.1,502.1,230.8,501.6z"/> <path class="st0" fill="#FFFFFF" d="M198,256c9.2,1,17.7,2.3,26.1,2.9c8.9,0.6,17.9,0.7,26.9,0.6c6.8-0.1,10.5,2.4,12.1,9 c1.3,5.4,1.1,10.6-1.1,15.8c-8,18.8-21,31.8-42,34.7c-12.3,1.7-22.7-2.5-30.5-12.2c-2.3-2.8-3.4-6.9-4.3-10.5 c-2-8.3-3.2-16.9-5.3-25.2c-2-7.9-0.5-11.1,7.5-13.1C191,256.9,194.9,256.5,198,256z M200,291.1c-5.3,0-10.4,3.9-10.6,8 c-0.1,4.1,4.8,7.9,10.1,7.8c4.7,0,7.5-3.1,7.5-8.3C207.1,293.7,204.6,291.1,200,291.1z M230.7,292.8c-5,0-9.1,3.7-9.1,8.4 c0,4.1,3.5,7.3,8.2,7.4c4.6,0.1,8.3-3.5,8.4-8.2C238.3,296.1,235,292.9,230.7,292.8z"/> <path class="st0" fill="#FFFFFF" d="M60.9,400.3c0-32.1,0-63.3,0-94.8c23.3,0,46.5,0,70.4,0c-1.1,0.8-1.8,1.3-2.4,1.8c-7,4.4-12,10.5-14.9,18.3 c-4.2,11.4-10.7,21.2-18.5,30.5c-6.5,7.7-11.9,16.3-17.2,24.9C73.8,388.4,68.1,394.4,60.9,400.3z"/> <path class="st0" fill="#FFFFFF" d="M376.9,404.4c-4.8-10.6-10-21.1-14.3-31.9c-4-9.9-6.8-20.4-10.5-30.4c-5-13.3-12.8-24.8-23.3-34.4 c-0.6-0.6-1.2-1.2-2.1-2.2c17.4,0,34.3,0,51.5,0c0,32.8,0,65.6,0,98.5C377.7,404.1,377.3,404.3,376.9,404.4z"/> <path class="st0" fill="#FFFFFF" d="M147.5,348.8c-1,6.3-2,12.6-3.2,18.9c-3.6,20.3-9.7,39.9-16.4,59.4c-0.3,0.9-1.5,2.2-2.4,2.2 c-5.8,0.2-11.7,0.1-17,0.1c-0.7-3.8-1.2-7.2-2-10.5c-1.4-6.3,0.2-11.1,5.8-14.4c7.3-4.4,12.4-10.4,15.8-18.4 c2.8-6.5,6.4-12.7,9.7-19c3.1-6.1,6.2-12.3,9.3-18.4C147.3,348.8,147.4,348.8,147.5,348.8z"/> <path class="st0" fill="#FFFFFF" d="M324.3,429.2c2.2-19.5,2-39.2,9.7-57.5c0.6-0.1,1.3-0.2,1.9-0.2c1.6,2.3,3.6,4.4,4.7,6.8 c5.6,11.8,7.9,24,5.6,37.1c-0.8,4.4-0.1,9-0.1,13.8C339.4,429.2,332.1,429.2,324.3,429.2z"/> <path class="st0" fill="#FFFFFF" d="M60.9,429.2c0-4.1,0-7.9,0-12c7.7,4,15.3,7.9,23,12C76.3,429.2,68.8,429.2,60.9,429.2z"/> <path d="M280.7,230.9c0.5,0,1-0.1,1.5-0.1c4.4,0,9-0.3,11.7,4.2c2.7,4.6,1.4,9.3-1,13.6c-5,9.1-20,11.9-27.9,5.1 c-4.2-3.6-5.5-8.2-4.2-13.5c1.2-5.1,4.9-7.7,9.9-8.4c3.3-0.5,6.7-0.7,10-1.1C280.7,230.7,280.7,230.8,280.7,230.9z M281.2,233.3 c0,0.1,0,0.1,0,0.2c-1.6,0-3.2-0.1-4.9,0c-1.7,0.1-3.5,0.4-5.2,0.7c-4.9,1-7.4,3.3-8.1,7.6c-0.7,4.4,1.6,8.8,5.5,11 c6.2,3.3,15.4,2,20.1-3.2c3.1-3.5,5-7.7,3.2-12.4c-1.7-4.6-6.1-3.9-10-3.9C281.7,233.3,281.5,233.3,281.2,233.3z"/> <path d="M294.3,222.6c-0.8,0.3-1.7,1.1-2.3,0.9c-9.6-3.4-18.8-2.9-27.6,2.5c-0.5,0.3-1.4-0.2-2.1-0.4c0.4-0.8,0.7-1.8,1.3-2.2 c6.5-4,13.6-5.5,21.1-4.4c3.2,0.5,6.3,1.4,9.4,2.2C294.2,221.7,294.2,222.1,294.3,222.6z"/> <path d="M168.2,102.6c8.1,0.5,15.9,1.6,22.7,6.2c1.6,1.1,3.2,2.4,4.5,3.9c5.1,5.6,5,8.4-0.8,12.9c-5.1,4-10.4,7.7-15.9,11.2 c-2,1.3-4.6,2-7,2.5c-2.9,0.6-5.6-0.2-6.9-3.1c-3.1-7.1-6.4-14.1-8.7-21.4c-2.4-7.4,0.2-10.7,7.9-11.7 C165.5,102.8,167,102.7,168.2,102.6z"/> <path d="M317.6,138.3c-2.8-0.4-5.7-0.5-8.4-1.3c-3.9-1-5.5-3.6-4.3-7.4c2.3-7.1,4.5-14.3,7.4-21.1c3.1-7.3,7.9-8.5,14.2-3.7 c7.7,5.8,13,13.1,12.4,23.4c-0.3,5.8-1.9,7.6-7.5,8.5C326.9,137.3,322.3,137.7,317.6,138.3z"/> <path d="M200,291.1c4.6,0,7.1,2.7,7.1,7.6c0,5.2-2.8,8.2-7.5,8.3c-5.3,0-10.3-3.8-10.1-7.8C189.5,294.9,194.6,291.1,200,291.1z"/> <path d="M230.7,292.8c4.4,0,7.6,3.3,7.5,7.5c-0.1,4.7-3.7,8.3-8.4,8.2c-4.7-0.1-8.2-3.2-8.2-7.4 C221.6,296.5,225.6,292.8,230.7,292.8z"/> <path class="st0" fill="#FFFFFF" d="M281.2,233.3c0.2,0,0.5,0,0.7,0c3.8,0.1,8.2-0.7,10,3.9c1.8,4.7-0.1,8.9-3.2,12.4c-4.6,5.2-13.9,6.5-20.1,3.2 c-4-2.1-6.2-6.5-5.5-11c0.6-4.3,3.1-6.6,8.1-7.6c1.7-0.3,3.4-0.6,5.2-0.7c1.6-0.1,3.2,0,4.9,0 C281.2,233.5,281.2,233.4,281.2,233.3z M278.6,234c-2.8,0.7-4.6,1.1-6.4,1.7c-3.1,0.9-4.8,3.1-5.1,6.2c-0.3,3.3,1.1,5.7,4,7.4 c4.7,2.7,10.8,2.3,15.1-1.1c3.7-2.9,4.1-6.9,0.5-9.8C284.2,236.4,281,235.3,278.6,234z"/> <path d="M278.6,234c2.4,1.3,5.6,2.4,8.1,4.4c3.6,3,3.2,7-0.5,9.8c-4.3,3.4-10.5,3.8-15.1,1.1c-2.9-1.7-4.3-4.1-4-7.4 c0.3-3.2,2.1-5.3,5.1-6.2C274,235.2,275.8,234.8,278.6,234z"/> </g> </g> <rect class="st1" width="459" height="594"/> </svg>