<?xml version="1.0" encoding="utf-8"?>
<!-- Generator: Adobe Illustrator 22.1.0, SVG Export Plug-In . SVG Version: 6.00 Build 0)  -->
<svg version="1.1" id="Layer_1" xmlns="http://www.w3.org/2000/svg" xmlns:xlink="http://www.w3.org/1999/xlink" x="0px" y="0px"
	 viewBox="0 0 612 792" style="enable-background:new 0 0 612 792;" xml:space="preserve">
<style type="text/css">
	.st0{fill:#FFFFFF;}
</style>
<g>
	<g>
		<path class="st0" d="M1,1c204,0,408,0,612,0c0,264,0,528,0,792c-204,0-408,0-612,0C1,529,1,265,1,1z M589.3,396.5
			c0-120.7,0-241.3,0-362c0-1.8,0-3.7,0-5.5c-0.2-5.3-2.6-8.4-7.8-9.4c-2.6-0.5-5.3-0.6-7.9-0.6c-42.3,0-84.7,0-127,0
			c-136,0-272,0-408,0C26.3,19,23,22,23,33.1c0,242,0,484,0,725.9c0,11.1,3.2,14.2,14.4,14.2c179.3,0,358.6,0,538,0
			c11.4,0,14-2.7,14-14.2C589.3,638.2,589.3,517.3,589.3,396.5z"/>
		<path d="M589.3,396.5c0,120.8,0,241.6,0,362.5c0,11.5-2.6,14.2-14,14.2c-179.3,0-358.6,0-538,0c-11.2,0-14.4-3.1-14.4-14.2
			c0-242,0-484,0-725.9C23,22,26.3,19,38.6,19c136,0,272,0,408,0c42.3,0,84.7,0,127,0c2.6,0,5.4,0.1,7.9,0.6c5.2,1,7.7,4.1,7.8,9.4
			c0.1,1.8,0,3.7,0,5.5C589.3,155.2,589.3,275.9,589.3,396.5z M27.2,396c0,120.8,0,241.6,0,362.5c0,9.8,0.7,10.5,10.6,10.5
			c179.2,0,358.3,0,537.5,0c9.8,0,10.6-0.8,10.6-10.5c0-241.5,0-483,0-724.4c0-9.8-1-10.8-10.9-10.8c-179,0-358,0-537,0
			c-10,0-10.7,0.8-10.7,10.9C27.2,154.7,27.2,275.4,27.2,396z"/>
		<path class="st0" d="M27.2,396c0-120.7,0-241.3,0-362c0-10.1,0.8-10.9,10.7-10.9c179,0,358,0,537,0c9.9,0,10.9,1,10.9,10.8
			c0,241.5,0,483,0,724.4c0,9.7-0.9,10.5-10.6,10.5c-179.2,0-358.3,0-537.5,0c-9.8,0-10.6-0.8-10.6-10.5
			C27.2,637.7,27.2,516.8,27.2,396z M215,522c0.7-5.3,1.3-10.7,2-16c-1.1,1.8-1.9,3.7-2.4,5.7C213.7,515.2,211.9,518.7,215,522
			c0.2,0.6,0.3,1.2,0.4,1.8c0.4,0.1,0.8,0.1,1.2,0.2c1.6-5.7,3.1-11.4,4.7-17.1c-0.3-0.1-0.7-0.2-1-0.3
			C218.5,511.8,216.7,516.9,215,522z M380,684c-3.4,3.6-6.9,7.2-10.2,10.8c-4.6,5-9.2,10.1-13.9,15.1c0.3,0.3,0.6,0.5,0.9,0.8
			C365.1,702.3,374.1,694.6,380,684c5.1-5.8,10.1-11.7,15.2-17.5c-0.6-0.4-1.1-0.8-1.7-1.3C389,671.4,384.5,677.7,380,684z
			 M406.7,670.7c-7.5,7.6-15,15.1-22.6,22.7c0.5,0.5,1,0.9,1.5,1.4c7.2-7.8,14.5-15.6,21.7-23.5c3.6-5,7.3-10.1,10.9-15.1
			c11.6-13.8,15.3-29.9,9.7-45.1c0.2,2.4,0.3,3.7,0.5,5c1.1,8.7,0.9,17.3-3,25.3c-2.4,4.9-5.1,9.6-7.7,14.4
			C414.1,660.8,410.4,665.7,406.7,670.7z M152,539c-3.1-6-6.1-12-9.4-18.5c-1.3,2.3-2,3.5-2.6,4.6c-3.7-7.9-7.5-15.9-10.6-22.6
			c-2.6,12.9,13.7,41.6,25.2,44.7c3.6-8.7,7.3-17.5,10.9-26.3c-0.6-0.2-1.2-0.5-1.7-0.7c-2.6,5.4-5.2,10.8-7.9,16.1
			c-0.4-0.1-0.8-0.2-1.2-0.3c0.8-10,1.5-19.9,2.3-29.9c-0.6,0-1.1-0.1-1.7-0.1c-0.8,9.2-1.5,18.4-2.4,27.5
			C152.7,535.4,152.3,537.2,152,539z M392,200c-0.8,1.7-1.8,3.3-2.4,5.1c-1.7,6-4.8,11.7-10.6,13.3c-10.9,3.1-20.9,7.1-29.9,14.1
			c-4.1,3.2-9.3,4.9-14.1,7.3c-5.6,2.8-11.2,5.9-16.9,8.4c-5.5,2.4-11.1,5.5-16.9,6.2c-8.8,1.1-17.9,0.3-26.8,0.7
			c-5.3,0.3-10.6,1.1-15.7,2.5c-9.8,2.7-19.4,6-29.1,8.8c-7.8,2.3-15.7,4.3-23.5,6.5c-15.6-0.4-31.3-1-46.9-1.1
			c-5.2-0.1-10.1-0.3-14.9-3c-3.1-1.8-6.7-3.1-10.2-3.9c-14.1-3.2-28.4-5.4-41.5-12c-12.5-6.2-25.8-3-38.8-2.6
			c-4.8,0.2-9.7,0.5-14.5,0.8c8.6,0.4,17.3,0.7,25.9,0.3c7-0.3,13.8-1,20.6,1.9c8.1,3.4,16.3,6.6,24.8,9.2c7,2.1,14.4,2.9,21.4,4.7
			c4.9,1.2,9.5,3.2,14.3,4.8c-0.1,0.6-0.1,1.2-0.2,1.8c-14,1.3-28.2,1.9-41.3,7.5c21.9-5.8,44.3-6.8,66.6-7
			c16.6-0.1,33.2,1.9,49.8,2.9c6.6,0.4,13.4-0.1,18.8,5c0.6,0.6,1.9,0.7,2.8,0.8c7.2,1.3,14.3,2.6,21.5,3.8c4.7,0.8,9.4,1.3,14,1.9
			c0.1-0.6,0.2-1.1,0.2-1.7c-11.4-2.1-22.8-4.3-34.2-6.4c-1.1-0.2-2.6-0.1-3.3-0.7c-5.8-5.2-12.9-4.5-19.8-5
			c-5.1-0.4-10.1-1.3-15.2-2c6.3-1,12.8-1.8,19-3.1c16.1-3.3,31-11.2,47.7-12.2c7.5-0.5,14.9-1,22.4-1.4c1.8-0.1,3.7,0.5,5.6,0.8
			c-5.4,6.2-10.7,11.7-15.3,17.7c-2.2,2.9-3.1,6.8-4.1,10.3c-1.1,4.1-0.6,8.9-2.5,12.6c-3.6,6.9-8.6,13-12.5,19.7
			c-2.7,4.7-5.4,9.7-6.5,14.9c-3.7,18.6-12.2,35.1-20.3,51.8c-2.7,5.7-4.9,11.6-7,17.6c-0.6,1.9-0.6,4.6,0.4,6.2
			c2.6,4.4,5.4,9,9.1,12.3c3.7,3.3,8.8,4.9,13.1,7.7c5.4,3.5,10.5,7.6,16,11c2.4,1.5,3,2.9,2.8,5.6c-0.9,13.3-1,26.5,2.2,39.7
			c1.5,6.3,4.4,10.6,10.3,13c9.2,3.7,18.5,7.3,27.8,11c1.1,0.4,2.2,0.6,3.4,0.9c8.2,2.2,16.5,4,24.6,6.6
			c17.5,5.6,35.2,9.9,53.6,10.7c3.8,0.2,6.1-1.5,7.2-4.9c3.1-9.6,4.7-19.3,2.5-29.5c-0.5-2.1,1.4-4.6,2.1-7c0.9-3,1.7-6,2.6-9
			c1.8,0,3.7,0.3,5.5,0c3.6-0.7,5.6-6.5,2.7-8.6c-5.1-3.7-11.3-4.5-17.5-4.2c4.1,2,8.6,3,12.8,4.4c1.3,0.4,2.1,2,3.2,3.1
			c-1.1,1-2.1,2.1-3.2,3c-1.1,0.8-2.3,1.4-3.5,2.1c-2.9-0.5-5.8-1-8.8-1.5c-0.1,0.3-0.1,0.6-0.2,0.9c1.8,1,3.6,2,5.3,2.9
			c0.2,5.9-4.7,3.4-7.4,4.6c0.7,1.3,1.2,2.4,1.7,3.5c-15.3,2.1-25.2-5.3-33.5-16.6c1.5,2.8,3,5.6,4.9,9c-1.5-1-2.6-1.4-3.2-2.3
			c-6.1-8.6-15.1-12-24.9-14.4c-10.2-2.5-20.4-5.1-30.1-8.9c-13.3-5.2-26.3-11.3-39.1-17.6c-8.9-4.4-17.4-9.7-25.7-15.2
			c-5.6-3.7-10.3-8.7-11.1-16.2c1.2,1.7,2.4,3.4,3.6,5.1c0.2-1.6,0-3-0.7-4c-2.7-3.6-2.4-7.1-0.5-11.1c4-8.8,7.5-17.8,11.3-26.6
			c3.3-7.8,6.8-15.4,10.2-22.9c1.4,5.2-1.8,11.5,3.1,17.7c0.5-2.1,1-3,1-3.9c-0.3-3.5-0.7-7-1.2-10.4c-1.3-8.8-2.4-17.6,2.9-25.6
			c7-10.8,13.8-21.9,21.2-32.4c4.1-5.8,9.4-10.7,14.2-16.1c1.3-1.5,3.3-3.1-0.7-4.2c5.8-4.1,11.3-8.3,17.1-11.9
			c1.4-0.9,5.4-0.4,5.9,0.5c3.2,6.9,6.9,13.9,8.4,21.2c4,18.5,3.7,37.4,1,56.1c-0.3,2.3-1.4,4.7-2.6,6.7c-3,4.9-6.2,9.6-9.4,14.4
			c-2.9,4.2-5.2,9-8.9,12.4c-4.2,3.9-9.5,6.5-14.4,9.5c-6.8,4.2-11.4,11.8-2.6,19.3c1.4,1.2,2.9,2.2,4.4,3.2
			c9.5,6.5,19,12.9,28.4,19.4c2.6,1.8,4.9,4,7.4,5.9c7.9,6.1,17.5,7.9,26.5,11.2c12.9,4.9,26,4.8,39.3,3.7c10-0.8,19.7,0.6,29.6,3.2
			c-3,2.9-8.5-1.9-9.7,3.6c-2.9-0.8-5.8-1.6-8.7-2.4c-0.3,0.8-0.5,1.5-0.8,2.3c6.2,2.7,12.4,5.7,18.7,8.1c3.8,1.4,7.1,4.9,6.2,7.7
			c-1.6,4.7-4.5,4.8-8.5,2.8c-3.6-1.7-7.6-2.7-11.4-4c-0.3,1.9-0.2,2.8,0.2,3c5.4,2.2,10.7,4.5,16.2,6.1c1.2,0.4,4-1.4,4.6-2.9
			c1.7-3.7,3.2-7.6,0.5-11.8c-0.8-1.3-0.8-4.2,0.1-5.1c1.9-1.9,4.6-2.9,8.4-5c-0.3,12,8.3,18.5,13.4,26.7c-0.8,0.6-1.6,1.2-2.4,1.8
			c-0.9-1.9-1.8-3.9-2.7-5.8c-0.6,0.4-1.2,0.9-1.8,1.3c0.6,1.5,1,3.1,1.7,4.4c1.7,3.2,4,6.1,5.3,9.5c2.7,6.6,5.2,13.3,7.4,20.1
			c11,33.4,16.6,67.3,7.1,102.1c-3.3,12.1-6.9,24.6-12.7,35.6c-5,9.5-12.9,17.7-20.5,25.5c-10,10.2-21.1,19.3-34.2,25.5
			c-6.6,3.1-13.6,5.8-19.4,10c-8.7,6.2-18.4,9.2-28.4,11.6c-10.7,2.6-21.6,2.9-32.7,2.9c-12.2,0-23.2-3.5-34.7-7.9
			c5.7-1.6,10.8-3,15.9-4.5c-2.5-0.6-4.8-0.1-7,0.4c-10.2,2.3-20.3,3.2-30.6,0.2c-3.7-1.1-7.6-1-11.7-1.5
			c10.1,3.1,19.7,5.9,29.3,8.9c7.6,2.3,15.1,5.1,22.8,7c19.3,4.7,38.7,2.2,57.3-3c31.4-8.9,57.2-27.6,80.6-50
			c15.4-14.8,22.9-33.8,28.8-53.5c6.6-22.1,8.5-44.7,4.5-67.7c-3-16.9-5.6-33.8-13.3-49.5c-2.3-4.6-3.5-9.6-5.3-14.5
			c6.8-2.1,6.5-7.6,6.2-12c-0.6-9.1-2-18.2-3.4-27.2c-1.3-8.1-1.5-8,6.4-10.8c0.9-0.3,1.8-0.8,2.6-1.4c5.5-3.7,10.9-7.3,16.5-11.1
			c4.6,6.4,11.4,4.9,18.8,5.8c-2.4,3.1-3.6,6.3-6,7.7c-6,3.7-11.3,1.3-14.2-2.5c-5.5,0-9.3,0-13.8,0c1,4.3,3.5,4.8,6.3,4.7
			c3.4-0.1,5.7,0.5,6.1,4.7c0.4,3.6,3,4.7,6.6,4c10.3-1.8,15-8.6,16.5-18.6c0.3-1.8,0.6-3.7,1.5-5.1c3.4-4.7,3.2-9.6,1.5-14.3
			c11.4-6.9,22.8-13.8,34.1-20.7c-0.3-0.5-0.5-1.1-0.8-1.6c-3.6,0.9-7.5,1.2-10.8,2.8c-11.5,5.5-22.9,11.4-34.2,17.3
			c-2.4,1.2-4,1.2-6.2-0.5c-2.3-1.7-5.2-2.4-7.9-3.5c-0.2,0.5-0.4,0.9-0.6,1.4c2.3,1.4,4.8,2.8,7,4.4c2.2,1.6,2.1,3.8-0.6,4.4
			c-3.4,0.8-7.1,1.4-10.5,0.8c-4.4-0.8-6.3,0.1-5.6,4.4c1.4-0.4,2.7-0.8,4.1-1.2c0.1,0.4,0.3,0.7,0.4,1.1c-4.4,2.7-8.9,5.3-13.6,8.2
			c-1.1-4.5-2-8.1-2.8-11.7c-0.4,0.1-0.9,0.2-1.3,0.3c0.2,2.6,0.8,5.2,0.5,7.7c-0.2,2-1.6,3.8-2.5,5.7c-1.3-1.6-3.6-3.2-3.8-4.9
			c-0.5-5.8-0.2-11.7-0.2-18.3c-5.1,8.3-4.8,16.4-2.2,25c-1.3-1.1-2.9-2.5-2.9-3.8c-0.1-5.7-0.3-11.6,0.7-17.2
			c1.7-9.5,4.8-18.7,6.3-28.1c1.4-9,1.6-18.2,2.2-26.2c0,11.7,0,24.4,0,35.5c3.1,3,5.8,5.1,7.8,7.6c2.3,3,4.6,4.1,8.7,4
			c7.4-0.3,14.8,0.9,22.2,1.4c0.7,0,1.4-0.2,2.3-0.4c-4.1-4.5-6.9-5.8-17.8-4.7c-7.2,0.7-12.6-0.1-17-6.6c-1.7-2.5-3.5-4-2-7.2
			c0.5-1,0.2-2.3,0.2-3.4c-0.2-7.5-0.4-15-0.5-22.4c-0.1-5.2,0.7-10.5-0.4-15.4c-3.9-18.2-8.1-36.3-12.8-54.3
			c-3.4-13.2-10.6-24.4-20.6-34c1.1-0.3,2.3-0.7,3.6-0.8c9.2-0.8,14-6.9,17.4-14.5c6.3-13.9,12.4-27.9,18.9-41.7
			c0.6-1.3,3.2-2.5,4.9-2.5c15,0.7,26.4-5.4,34.9-17.5c0.8-1.2,1-3.6,0.4-4.9c-0.4-0.8-3-1.1-4.4-0.7c-4,1.1-7.8,2.8-11.8,4.1
			c-4.6,1.6-8.8,0.7-12.8-1.9c-3.8-2.4-1.4-5.6-1.4-8.5c0.1-2.6-0.3-5.3-0.4-7.9c-0.1-1.6-0.1-3.3,0.1-4.9
			c1.1-9.9,2.5-19.7,3.3-29.7c0.2-2.2-1.4-5.5-3.2-6.7c-3.4-2.2-7.4-3.7-11.4-4.5c-6.7-1.4-13.5-1.9-20.2-2.9
			c-12.4-1.7-24.7-3.5-37.1-5c-6.9-0.8-9.6,1.6-11.2,8.3c-1,4.2-2.7,8.2-4.1,12.2c-2.8,7.6-5.7,15.2-8.3,22.8
			c-1.5,4.6-3.3,5.5-7.5,3.1c-1.6-0.9-2.9-2.2-4.3-3.4c-3.5-2.8-6.7-6.1-10.5-8.4c-5.6-3.3-9.6-0.6-9.2,5.8
			c0.2,4.1,1.3,7.7,5.1,10.3c3.7,2.5,7.1,5.5,10.6,8.3c4,3.1,7.2,6.3,4.5,12.1c-2.2,4.7-1,9.8,1.1,13.9
			C384.5,191.9,388.7,195.7,392,200L392,200z M311.5,508.1c-1.7,1.4-2.2,1.6-2.4,2c-0.4,0.7-0.6,1.5-0.8,2.4
			c-3.2,12.1-3.1,24.3-2.1,36.7c0.6,7.4,2.3,15.5,0,22.1c-3.6,10.6-11,19.7-20.8,25.5c-11.4,6.8-23.3,12.9-35.5,18.1
			c-16.5,7-32.5,14.5-45.4,27.3c-1.3,1.3-2.8,2.4-4.2,3.6c0.4,0.6,0.8,1.1,1.1,1.7c3.3-1.9,6.7-3.6,9.9-5.6
			c9.8-6,19.3-12.3,29.3-17.8c5.6-3.1,12.1-4.7,18-7.2c5.6-2.4,11.1-4.7,16.3-8c10.7-6.8,21.1-13.8,28.5-24.4
			c1.2-1.8,2.5-3.5,3.3-4.6c4.1,10.3,8,20.4,11.9,30.4c0.7-0.3,1.4-0.5,2.1-0.8c-1.1-3.1-1.8-6.5-3.4-9.4
			c-4.4-8.1-6.4-16.6-6.4-25.8c0-8.1-0.3-16.3-1.1-24.4c-1.1-11.5-1.6-22.9,0.9-34.3C311.5,513.6,311.3,511.4,311.5,508.1z
			 M147.8,673.9c7.8-3.6,14.8-7,21.9-10.1c3.9-1.7,7.7-4.6,13.1-2.6c-1.1-1.1-2.2-2.2-3.4-3.3c2-1.8,4.2-3.6,6.2-5.5
			c1.8-1.7,3.1-3.9,5.2-5.1c4.9-3,10.4-5.3,15.2-8.5c4.4-2.9,8.3-6.7,12.4-10c-0.2-0.2-0.3-0.4-0.5-0.5c-15,8.4-30,16.7-45.1,25.1
			c0.2,0.4,0.4,0.8,0.6,1.2c1.7-0.5,3.4-1.1,5.1-1.6c-9.4,7.2-19.3,13.4-30.7,16.5c-4.2,1.1-4.9,3.5-2.4,6.4c2.6,3.1,5.6,6.1,9,8.2
			c8.7,5.4,17.9,10.1,26.7,15.3c11.1,6.5,22.5,12.2,35.2,15.1c24.4,5.6,49.2,5.5,74,4.7c0.6,0,1.3-0.4,1.9-0.7
			c-2.6-1.3-5-1.5-7.4-1.7c-13.5-0.7-26.9-1.1-40.4-2c-21.5-1.6-42.1-6.3-60.5-18.3c-4-2.6-7.8-5.4-12-7.7c-3.8-2.1-8-3.5-12-5.4
			C155.1,680.9,149.7,679.3,147.8,673.9z M149,447.8c-0.4-0.2-0.9-0.4-1.3-0.6c2.3-5.2,4.6-10.5,6.9-15.7c-0.2-0.1-0.4-0.2-0.6-0.3
			c-0.7,0.8-1.5,1.6-2.2,2.5c-0.5-0.9-0.8-1.6-1.3-2.4c-0.8,1.2-1.3,1.9-1.9,2.7c0-18.4,0.8-36.5,1.8-54.6c0.1-1.4,1.9-3.5,3.2-3.8
			c3.2-0.8,6.6-1,9.9-1.2c9.5-0.5,15.5-4.6,16.5-14c1-10.5,0.3-21.2,0.1-31.8c0-1.8-1.2-3.9-2.5-5.2c-1-1.1-3-1.2-5.1-2
			c2.3,3.2,5.1,5.3,5.1,7.5c0.3,10.7,0.4,21.6-0.4,32.3c-0.4,5.5-4.9,9.2-9.4,9.6c-5.3,0.5-10.6,1-15.9,1c-3.5-0.1-4.2,1.3-4.3,4.3
			c-0.6,23.8-1.3,47.6-1.9,71.4c0,1.6,0.7,3.2,1.1,4.7c0.6,0.1,1.1,0.2,1.7,0.4c2.2-3.3,4.4-6.5,6.6-9.8c-0.4-0.3-0.8-0.6-1.3-0.9
			C152.2,443.8,150.6,445.8,149,447.8z M127.2,124.3c-3.5,0.4-6.2,0.8-9,1c-17.1,1.3-23.7-1.5-33.1-17.9c-1.4-2.4-2.6-5.1-3.4-7.8
			c-2.4-7.8-2.8-15.6,2.9-22.2c16.1-18.2,46.3-19.9,61.2-7.2c0.3,0.3,0.9,0.3,1.4,0.5c0.2-0.4,0.4-0.7,0.6-1.1
			c-2.9-1.9-5.6-4.1-8.6-5.6c-16.7-8.6-39.6-4.4-53.8,8.7c-8.3,7.7-9.5,16.6-6.6,26.4c1.7,5.8,4.9,11.3,8.1,16.5
			C95.8,129.8,115,130.5,127.2,124.3z M124.4,367.3c-8.2,2-9.5,1.1-9.3-7.3c0.1-2.7,0.2-5.3,0.1-8c-0.2-4.6-0.1-9.4-0.9-13.9
			c-0.9-4.6-5.3-5.7-8.6-2.4c-1.4,1.4-2.2,3.3-3.3,4.9c1.3,0.2,1.8-0.3,2.4-0.5c2-0.9,4-1.7,6-2.5c0.6,2.2,1.5,4.3,1.6,6.5
			c0.2,7.3,0,14.6,0.4,21.9c0.1,1.6,2,3.7,3.6,4.3c2.2,0.9,4.9,0.7,7.4,0.7c2.6,0,3.5-1.3,3.7-4.1c0.6-9.4,1.6-18.9,2.5-28.3
			c0.7-6.6,1.4-13.2,2.2-19.9c-0.7-0.1-1.4-0.2-2.2-0.2C128.1,334.8,126.3,351,124.4,367.3z M137.7,301.6c8.9-0.9,9.6-1,10.5,8.3
			c0.9,9.2,0.1,18.5,0.1,27.8c0,4.2,0,8.3,0,12.6c16.3-2.1,19.3-5.1,18.8-19c-1.1,2.2-1.9,4.6-2.5,7c-1.8,7.2-5.7,9.5-13.7,7.6
			c0.3-3.9,0.7-7.8,1-11.8c0.7-10,1.4-19.9-1.8-29.7C147.8,297.8,142.5,296.6,137.7,301.6z M539.4,254.8c0-0.1,0-0.2,0-0.4
			c-5.2,1.1-10.6,1.6-15.4,3.5c-9.8,3.7-21,3.7-29.4,11.1c-0.6,0.6-2.3,0.4-3.3,0c-3.4-1.3-6.5-3.5-9.9-4c-10-1.5-19.2,1.5-27.8,6.8
			c4-0.5,7.8-1.8,11.7-2.7c5.9-1.3,11.9-3.7,17.8-0.2c9.5,5.6,19.4,3.3,29.2,2.5c0-0.5,0.1-1,0.1-1.5c-4.6,0-9.3,0-13.9,0
			c-0.1-0.6-0.2-1.2-0.3-1.7C511.8,263.6,525.6,259.2,539.4,254.8z M582.1,257.8c-0.2-0.6-0.3-1.2-0.5-1.9
			c-9.5,2.3-19.8,1.6-28.2,8.2c-1.4,1.1-3.2,2.1-4.9,2.4c-8.5,1.5-16.9,3.1-25.5,4.1c-8.5,1-16.3,3.1-22.2,9.7
			c13.8-6.5,14.1-6.1,30.9-7.4c7.6-0.6,15.6-2.8,22.3-6.2c6.4-3.2,12.6-5.6,19.6-6.6C576.6,259.7,579.3,258.6,582.1,257.8z
			 M129.9,611c-0.2,0.5-0.4,0.9-0.6,1.4c14.3,10.4,29.3,18.5,47.9,13.6c9.6-2.5,19.3-3.4,29.1-1.9c1.4,0.2,2.9,0.2,4.3,0.2
			c-1.2-1.5-2.6-2.4-4.1-2.4c-9.4,0.2-19.1-0.5-28.3,1.3c-14.1,2.8-26.6,1-38.5-6.8C136.6,614.4,133.2,612.8,129.9,611z
			 M116.8,133.5c10.7,2.3,30.5-10.2,37.4-23.5c5.6-10.9,4.9-26.6-1.6-32.6c0.1,0.6,0.2,1.1,0.4,1.5c9.1,18.5-1.6,40.3-18.4,47.1
			C128.6,128.4,122.7,131,116.8,133.5z M328.7,699.5c19-3.7,62.3-43.8,63.7-58.7C374.9,664.2,357.8,688.3,328.7,699.5z M200.4,432
			c-0.6,0.2-1.2,0.4-1.8,0.7c3.1,9.9,6.2,19.9,9.6,30.6c0-12.6,0-24.1,0-35.6c-0.7,0-1.3,0-2-0.1c-0.4,4.5-0.9,9.1-1.3,13.6
			c-0.3,0-0.6,0-0.9,0C202.8,438.2,201.6,435.1,200.4,432z M167.6,696.8c-11.1-0.9-21-5.3-30.3-11.1c-9.3-5.9-18.3-12.3-27.4-18.4
			C126.2,682.9,143.6,696.3,167.6,696.8z M99.2,359c-0.6,0-1.3,0-1.9,0c0,6.2-0.3,12.4,0.1,18.6c0.2,3.4,0.8,7,2.3,10
			c3.3,6.5,9.9,7.1,16.3,7.7c2.3,0.2,4.7-0.2,7.1-0.3c0-0.6,0-1.2,0-1.8c-3.1-0.4-6.1-0.8-9.2-1.3c-10.6-1.9-14.6-6.5-14.6-17.2
			C99.2,369.4,99.2,364.2,99.2,359z M214.6,440.4c-0.5,0-1,0-1.5,0c0-9.5,0-19,0-28.4c-3.7,8.8-2.9,35.1,0.6,45
			c1.3-7.4,2.5-14.6,3.7-21.8c-0.4-0.1-0.7-0.1-1.1-0.2C215.8,436.8,215.2,438.6,214.6,440.4z M111.2,633.6
			c-11.7-13.2-26.3-21.1-41.5-28C83.3,614.8,97,624,111.2,633.6z M119.2,622.9c2.8,13,25.9,28.2,34.6,23.8
			C139.5,643.3,126.7,637.3,119.2,622.9z M116.1,656c-16.2-5.5-31.4-10.6-47.6-16.1C83.7,648.4,99,653.4,116.1,656z M333.4,315.4
			c-3.7,10.5-12.9,14.1-19.9,19.9C321.3,335.5,335.1,322.2,333.4,315.4z M107.9,676c-5.1-7-20.6-16.1-30.4-18.2
			C87.6,663.9,97.2,669.6,107.9,676z M127.3,396.4c-4.1,4.7-5.4,23.5-2.8,28.3C125.5,415,126.4,405.7,127.3,396.4z M552.9,498.7
			c-0.4-0.2-0.8-0.4-1.2-0.7c-2.1,3.7-4.2,7.4-6.7,11.9c0.3-3.2,0.6-5.6,0.8-7.9c-0.4,0-0.8-0.1-1.3-0.1c-0.7,6.3-1.3,12.6-2,19
			c0.2,0,0.5,0,0.7,0C546.4,513.5,549.7,506.1,552.9,498.7z M228.2,435.2c-1.2-0.2-2.2-0.3-3.2-0.5c-4.6,13.6-4.8,15.9-1,17.9
			C225.4,446.9,226.8,441.3,228.2,435.2z M436.1,583.8c0.7,14.1,1.4,29.9,2,43.1C440.2,614.4,439.2,592.5,436.1,583.8z M173.8,607
			c-0.2,0.5-0.4,1.1-0.5,1.6c12,4.2,24,8.4,36,12.6c0.2-0.5,0.4-1,0.5-1.5C197.8,615.4,185.8,611.2,173.8,607z M548.9,248
			c0.3,0.6,0.5,1.2,0.8,1.9c10.3-4.2,20.6-8.3,30.8-12.5c-0.2-0.5-0.4-1-0.6-1.5C569.6,239.9,559.2,244,548.9,248z M131.2,452.3
			c-2.3-6.3-4.6-12.6-7.1-19.6C120.4,442.3,126.8,447,131.2,452.3z M290.9,431.5c0.3-0.5,0.6-1.1,0.9-1.6c-8.8-4-17.6-7.9-26.4-11.9
			c-0.2,0.5-0.4,0.9-0.7,1.4C273.5,423.5,282.2,427.5,290.9,431.5z M229.8,525.4c0.5,0.3,1,0.5,1.6,0.8c3.1-7.7,6.3-15.5,9.4-23.2
			c-0.6-0.2-1.1-0.5-1.7-0.7C235.9,510,232.8,517.7,229.8,525.4z M63.4,412.4c-1.3-6.3-2.7-12.6-4-19
			C56.5,400.7,59.6,406.6,63.4,412.4z M59.8,414c-3.8-7.1-7.6-14.1-10.9-20.2C47.7,402,53.7,408.1,59.8,414z M489.8,486.7
			c-0.4-0.3-0.7-0.5-1.1-0.8c-3.5,4.2-6.9,8.4-11,13.2c6.1-1,3,4.1,5.1,6.1C481.4,497.5,485.9,492.2,489.8,486.7z M193.6,658.4
			c2.2-2.2,3.9-3.7,5.2-5.5c0.2-0.2-2.2-2.7-2.3-2.7c-2,1.4-3.8,2.9-5.5,4.7C190.9,655,192.3,656.6,193.6,658.4z M64,420
			c0.4,0.1,0.8,0.3,1.2,0.4c4.2-6.8,3.6-14.6,4.1-22.2C67.5,405.4,65.7,412.7,64,420z M86,525.1c0.4-0.2,0.8-0.4,1.2-0.7
			c-3.4-6-6.9-12.1-10.3-18.1C78.2,513.5,80.8,520,86,525.1z M242.9,435.3c-0.6-0.2-1.2-0.4-1.8-0.6c-2.2,6.6-4.4,13.3-6.6,19.9
			c0.5,0.2,1,0.4,1.5,0.5C238.3,448.5,240.6,441.9,242.9,435.3z M239.4,654.2c-0.1-0.4-0.3-0.8-0.4-1.1c-1.7,0.9-3.8,1.5-4.9,2.9
			c-0.6,0.8-0.1,3.4,0.8,4.4c2.8,3.1,6.4,2.2,9.9,0.8c-1.1-0.6-2.4-0.8-3.5-1.1c-1.6-0.6-3.1-1.3-4.7-2
			C237.5,656.8,238.4,655.5,239.4,654.2z M285.1,618.7c-5.4-2.5-8.5-1.8-10.2,1.7c-1.8,3.7-0.3,7.9,3.8,10.1
			C275,620.7,276.1,618.3,285.1,618.7z M143.3,612.9c-0.1,0.8-0.1,1.6-0.2,2.4c6,0.5,11.9,1,17.9,1.5c0-0.5,0.1-1,0.1-1.5
			C155.1,614.5,149.2,613.7,143.3,612.9z M174.7,423c1.1,8.9,4.9,15.1,11.3,21.3C182,436.8,178.6,430.4,174.7,423z M128.3,525.5
			c0.1-0.2,0.3-0.4,0.4-0.6c-4.8-5-9.6-10.1-14.4-15.1c-0.2,0.2-0.4,0.3-0.5,0.5C118.6,515.4,123.5,520.5,128.3,525.5z M473.2,539.1
			c-2.4,4.4-1.4,8.4,3.2,11.1c0.3-3,0.5-5.6,0.8-8.1c-0.2,0-0.5-0.1-0.7-0.1c-0.5,0.9-0.9,1.8-1.7,3.2
			C474.2,542.8,473.7,541.1,473.2,539.1z M113.6,437.2c-2,11.7,3.2,20.6,10.1,18.3C114.3,453.1,114.9,445,113.6,437.2z M234.8,502.5
			c-0.5-0.3-1-0.6-1.5-0.8c-3.2,5.9-6.4,11.7-9.6,17.6c0.5,0.3,1,0.6,1.6,0.9C228.4,514.2,231.6,508.3,234.8,502.5z M347.9,456.4
			c-2.5-2.3-7.3-6.7-12.1-11.2c0.5-0.5,1.1-1.1,1.6-1.6C340.5,449.8,344.7,454.9,347.9,456.4z M240,632.3c0.1-0.6,0.3-1.2,0.4-1.8
			c-2.1-0.2-4.3-0.7-6.3-0.4c-5.3,0.8-8.6,3.3-9.7,7C229.4,634.7,233.6,629.7,240,632.3z M202.2,524.9c0.4-0.1,0.9-0.2,1.3-0.3
			c-1.6-6.7-3.1-13.3-4.7-20c-0.5,0.1-1,0.2-1.5,0.4C199,511.6,200.6,518.2,202.2,524.9z M171.6,434.1c0.2-0.1,0.4-0.2,0.5-0.2
			c0-8.5,0-17.1,0-25.6c-0.2,0-0.4,0-0.5,0C171.6,416.9,171.6,425.5,171.6,434.1z M130.9,654.8c5.2,4.3,12.3,5.6,15.7,3.7
			C141.3,657.3,136.1,656.1,130.9,654.8z M156.7,548.8c5-3.3,7.5-8.1,8-15.1C161.7,539.4,159.2,544.1,156.7,548.8z M354.6,655.5
			c-0.4-0.3-0.8-0.7-1.2-1c-4.6,5.1-9.3,10.1-13.9,15.2c0.3,0.3,0.7,0.6,1,1C345.2,665.6,349.9,660.6,354.6,655.5z M76.8,581.2
			c-0.2,0.4-0.3,0.8-0.5,1.2c6.7,2.5,13.3,5,20,7.6c0.2-0.4,0.3-0.9,0.5-1.3C90.2,586.2,83.5,583.7,76.8,581.2z M259.1,636.1
			c-1.5-5.8-3.8-7.1-7.7-5.7c-3,1.1-3.5,2.3-2.1,5.2C252.5,630.8,255.2,630.7,259.1,636.1z M192.5,96.8c0.3,0,0.6,0,0.9-0.1
			c-0.5-8.3-1-16.6-1.6-24.9c-0.3,0-0.7,0.1-1,0.1C191.4,80.2,191.9,88.5,192.5,96.8z M564.2,393.2c0.5,0.1,1.1,0.2,1.6,0.2
			c0.9-5.6,1.8-11.2,2.8-16.8c-0.6-0.1-1.1-0.2-1.7-0.3C566,382,565.1,387.6,564.2,393.2z M62.9,531.4c1.6,6.7,5.5,10.9,10.2,11.2
			C69.9,539,66.4,535.2,62.9,531.4z M130.5,544.8c-0.3,0.4-0.7,0.9-1,1.3c5.1,3.2,10.1,6.3,15.2,9.5c0.3-0.4,0.5-0.8,0.8-1.2
			C140.4,551.1,135.4,548,130.5,544.8z M497,428.1c0,0.5,0,0.9,0.1,1.4c5.3,2.2,7.5,2,10.6-1.9C503.7,427.8,500.3,427.9,497,428.1z
			 M208.4,671.9c-1.1-1.3-3.4-3.3-3.1-3.8c1.3-2.3,3.3-4.2,4.8-6c-4.7,0.1-7.5,2.1-7.2,5.9C203.1,672.1,205.8,672.2,208.4,671.9z
			 M62.8,448c0.4-0.1,0.8-0.3,1.2-0.4c-2-6-4.1-11.9-6.1-17.9c-0.4,0.1-0.8,0.3-1.2,0.4C58.8,436.1,60.8,442,62.8,448z M231.2,446.5
			c-0.3,0-0.7,0-1-0.1c-0.9,5.9-1.7,11.8-2.6,17.6c0.6,0.1,1.1,0.1,1.7,0.2C229.9,458.4,230.6,452.4,231.2,446.5z M294.3,636.8
			c0.5-0.3,1-0.6,1.6-0.8c-0.9-1.5-1.8-3.1-2.8-4.9c1.7-0.6,2.9-1,4-1.4c-0.2-0.5-0.4-1-0.6-1.5c-1.9,0.7-3.8,1.4-5.7,2.1
			C291.9,632.4,293.1,634.6,294.3,636.8z M173,639.1c0.3,0.6,0.6,1.2,0.9,1.7c2.4-1.4,4.6-3,7.1-4.2c2.4-1.2,5-2.1,7.4-3.1
			c-0.2-0.5-0.5-0.9-0.7-1.4C182.8,634.4,177.9,636.7,173,639.1z M224.4,504.5c0.4,0.2,0.9,0.4,1.3,0.6c2.3-4.9,4.5-9.8,6.8-14.6
			c-0.4-0.2-0.8-0.4-1.3-0.6C228.9,494.7,226.7,499.6,224.4,504.5z M59.8,537.5c-0.3,0.4-0.6,0.7-0.9,1.1c4.1,3.4,8.1,6.8,12.2,10.2
			c0.3-0.4,0.6-0.7,0.9-1.1C67.8,544.3,63.8,540.9,59.8,537.5z M464.2,522.8c4.4-1.3,5.3-5.1,2.5-9.4
			C465.9,516.4,465.1,519.5,464.2,522.8z M313.7,552.7c-0.6,0.1-1.3,0.3-1.9,0.4c0.7,3.4,1.5,6.8,2.2,10.3c0.7-0.1,1.3-0.3,2-0.4
			C315.2,559.6,314.4,556.2,313.7,552.7z M533.2,502.4c-0.4,0.2-0.8,0.4-1.3,0.6c1.9,4.8,3.8,9.7,5.7,14.5c0.4-0.2,0.8-0.3,1.3-0.5
			C537,512.1,535.1,507.3,533.2,502.4z M186.4,432.5c0.7-0.2,1.5-0.4,2.2-0.6c-1-3.2-1.9-6.4-2.9-9.5c-0.5,0.1-1,0.3-1.5,0.4
			C185,426.1,185.7,429.3,186.4,432.5z M278.2,647.7c-7.7-1.8-8.6-3-7.1-8.8c-3.2,2.1-2.5,4.6-1.2,6.8
			C271.6,648.6,274,649.8,278.2,647.7z"/>
		<path d="M410.1,476.1c-0.9,3-1.7,6-2.6,9c-0.7,2.4-2.6,4.9-2.1,7c2.3,10.2,0.6,19.8-2.5,29.5c-1.1,3.4-3.4,5-7.2,4.9
			c-18.4-0.7-36.1-5-53.6-10.7c-8.1-2.6-16.4-4.4-24.6-6.6c-1.1-0.3-2.3-0.5-3.4-0.9c-9.3-3.6-18.5-7.3-27.8-11
			c-5.9-2.4-8.8-6.7-10.3-13c-3.2-13.2-3.1-26.4-2.2-39.7c0.2-2.7-0.4-4.1-2.8-5.6c-5.5-3.4-10.6-7.5-16-11
			c-4.3-2.7-9.4-4.4-13.1-7.7c-3.7-3.3-6.5-7.9-9.1-12.3c-1-1.6-1-4.4-0.4-6.2c2-6,4.2-11.9,7-17.6c8.1-16.8,16.7-33.3,20.3-51.8
			c1-5.2,3.8-10.3,6.5-14.9c3.9-6.7,9-12.8,12.5-19.7c1.9-3.6,1.4-8.4,2.5-12.6c0.9-3.6,1.9-7.5,4.1-10.3
			c4.6-6.1,9.9-11.6,15.3-17.7c-1.9-0.3-3.7-0.9-5.6-0.8c-7.5,0.3-14.9,0.9-22.4,1.4c-16.7,1-31.6,8.9-47.7,12.2
			c-6.3,1.3-12.7,2.1-19,3.1l0.1,0c7.8-2.1,15.7-4.2,23.5-6.5c9.7-2.9,19.3-6.2,29.1-8.8c5.1-1.4,10.4-2.2,15.7-2.5
			c8.9-0.5,18,0.4,26.8-0.7c5.8-0.7,11.4-3.8,16.9-6.2c5.8-2.5,11.3-5.6,16.9-8.4c4.7-2.4,10-4.1,14.1-7.3c9-7,19-11,29.9-14.1
			c5.8-1.6,8.9-7.4,10.6-13.3c0.5-1.8,1.6-3.4,2.4-5.1c0.7,5,1.7,10.5-2.5,14.1c-5.7,5-5.9,11-5.3,16.2c1.7,1.2,2.9,1.6,3.4,2.4
			c2.7,4.6,5.2,9.3,8,13.8c4.3,7,8.7,14.1,13.4,20.9c1.6,2.4,3.8,4.8,6.3,6.1c3.7,2,4.8,6.7,1,10.8c-0.4-2.9-0.7-5.2-1-7.7
			c-6.3-0.2-9.3-4.4-11.7-9.4c-1.9-3.9-4-7.7-6.1-11.4c-0.8-1.4-2.1-2.6-3.1-3.8c-0.4,0.2-0.8,0.4-1.1,0.6c7,22.1,19.3,43.4,11.6,68
			c-0.6-1.5-0.9-3-1-4.6c-0.7-8.6-0.1-17.6-2.4-25.7c-4.3-15.2-10.2-29.9-15.6-44.7c-2.5-7-6.7-13.5-5.1-21.5
			c0.1-0.4-0.4-0.9-1.1-2.3c-6.8,2.4-13.6,4.8-20.5,7.2c0.1,0.5,0.2,0.9,0.3,1.4c2.4,0.6,4.8,1.3,6.5,1.7c-4.7,1.2-9.8,2-14.5,3.8
			c-5.2,2-10.1,4.9-15.1,7.5c-10.7,5.7-21.4,11.4-32.1,17.2c-1.7,0.9-3.2,2.4-4.7,3.7c-1.4,1.2-2.6,2.5-4.2,4.1
			c7.9-5.1,15.1-10.2,22.8-14.5c5.7-3.3,9.5-1.1,12.2,4.8c5.6,12.5,9.6,25.3,10,39.1c0.4,0,0.9,0,1.3,0c0.7-7.9,1.3-15.9,2-23.8
			c0.4,0,0.8,0.1,1.2,0.1c0,5.1,0.5,10.2-0.1,15.2c-0.8,6.7-3,13.2-3.6,19.9c-1.4,16.1-2.3,32.1-7.8,47.6
			c-2.9,8.1-8.8,13.2-14.3,18.8c-1,1-3.2,1.4-4.7,1.2c-7.4-1.3-11.8,4.4-17.3,7.3c-1.4,0.8-1.7,3.7-2.4,5.6c1.7,0.6,3.4,1.4,5.2,1.8
			c7,1.5,14,2.9,21,4.3c-0.1,0.6-0.3,1.2-0.4,1.8c-7.5-1.7-14.9-3.4-22.4-5.1c-0.1,0.5-0.3,1-0.4,1.5c2.1,1.7,3.9,3.7,6.2,4.9
			c12.4,6.9,24.8,13.7,34.9,23.9c2.7,2.8,5.9,3.1,9.3,0.6c5.3-3.7,10.8-7.2,16.9-11.3c-2.3,9.7-11,11.1-18.2,15.4
			c7.6,2.4,14.7,4.1,21.4,6.9c12,5,24.2,3.3,36.4,2.1c1.1-0.1,2.9-1.8,3-3c1.2-11.4,3.1-22.8,2.9-34.2c-0.5-24.3-2.1-48.5-3.2-72.8
			c-0.1-1.8,0.4-3.6,0.6-5.4c0.6,0,1.1,0,1.7,0c3.6,14.5,2.6,29.5,3.9,44.2c0.6,0.1,1.1,0.2,1.7,0.3c1.5-3.6,3-7.2,4.9-11.7
			c2.1,6.2-0.9,10-3.5,13.9c-1,1.5-2.2,3.3-2.2,5.1c-0.9,18.1-1.5,36.2-2.3,54.3c-0.4,9.3,2.4,11.9,12,11c3.3-0.3,6.6-0.7,9.9-0.8
			c3.4,0,4.4,1.5,2.6,5.2c6.6-3.2,13.2-6.4,19.8-9.6c-5.9-10.6-6.6-20.3-3-28.9c2.2-5.4,4.5-11,5.1-16.6c1.6-14.5,2.3-29.1,3.4-43.8
			c-1.5,1.8-3,3.4-4.3,5c-1.2-3.3-2.2-6-3.2-8.6c-0.3,0.1-0.7,0.3-1,0.4c0.5,14.6,1.1,29.2,1.6,43.8c-0.4-0.3-2-0.8-2.1-1.5
			c-0.8-10.9-1.5-21.9-2.2-32.8c-1.5,13-3.8,26.1-4.2,39.3c-0.3,13.1,1.3,26.3,2.1,39.5c-0.5,0.1-1,0.2-1.5,0.3
			c-0.8-1.9-2.2-3.7-2.4-5.7c-0.9-11.9-2-23.8-2.3-35.8c-0.4-15.9,0.1-31.9-0.2-47.8c-0.2-11.1-1.2-22.3-1.6-33.4
			c-0.2-5.8,0.1-11.7-0.1-17.5c-0.3-5.9-2.7-10.8-8.2-15c-2.2,3.5-4.2,6.6-6.2,9.8c-2-2.9-3.7-5.4-5.4-7.8c0.5,0.2,0.9,0.3,1.4,0.5
			c2.9-8.1,5.9-16.3,8.9-24.5c-19.3-5.2-28.9-13.8-30.1-27.8c1.6,2.4,2.5,3.7,3.2,5c2.3,4,2.5,10.3,9.9,8.3c0.5-0.1,1.6,0.8,1.9,1.4
			c3,6.1,9,6.9,14.6,8.2c9.7,2.4,18.1-1.8,22.3-11.2c6.4-14.2,12.9-28.4,19.3-42.7c0.1-0.2-0.1-0.6-0.5-2.1
			c-11.2,2.4-22.2,0.4-32.6-4.2c-10.3-4.5-20.3-9.6-31.2-14.9c-2,1.6-4.9,4-7.9,6.4c0.3,0.4,0.7,0.7,1,1.1c-2.8-0.9-5.7-1.8-7.4-2.4
			c-0.4,2.7-0.7,5.3-1.2,9.1c-4.4-5.3-4.6-7.7-1.9-13c1-2,2.2-4.1-2.2-4c0.9,10.5-4.4,22.8,10.2,28.6c-0.1,0.4-0.2,0.9-0.3,1.3
			c-2.1,0.1-4.1,0.3-6.2,0.4c-3.4-4.2-7.5-8.1-9.9-12.8c-2.1-4.1-3.3-9.2-1.1-13.9c2.7-5.8-0.5-9-4.5-12.1
			c-3.5-2.8-6.9-5.8-10.6-8.3c-3.7-2.6-4.8-6.2-5.1-10.3c-0.4-6.4,3.6-9.2,9.2-5.8c3.8,2.3,7,5.5,10.5,8.4c1.4,1.1,2.8,2.5,4.3,3.4
			c4.3,2.4,6,1.5,7.5-3.1c2.6-7.7,5.6-15.2,8.3-22.8c1.5-4,3.1-8.1,4.1-12.2c1.7-6.7,4.3-9.2,11.2-8.3c12.4,1.5,24.7,3.3,37.1,5
			c6.8,0.9,13.6,1.5,20.2,2.9c4,0.8,8,2.4,11.4,4.5c1.8,1.2,3.4,4.5,3.2,6.7c-0.7,9.9-2.1,19.8-3.3,29.7c-0.2,1.6-0.2,3.3-0.1,4.9
			c0.1,2.7,0.5,5.3,0.4,7.9c-0.1,2.9-2.5,6.1,1.4,8.5c4,2.6,8.2,3.5,12.8,1.9c3.9-1.4,7.8-3,11.8-4.1c1.4-0.4,4-0.1,4.4,0.7
			c0.6,1.3,0.5,3.7-0.4,4.9c-8.4,12.1-19.9,18.1-34.9,17.5c-1.6-0.1-4.2,1.1-4.9,2.5c-6.5,13.8-12.6,27.8-18.9,41.7
			c-3.5,7.6-8.2,13.7-17.4,14.5c-1.2,0.1-2.5,0.6-3.6,0.8c10,9.6,17.2,20.9,20.6,34c4.7,18,8.9,36.1,12.8,54.3
			c1.1,4.9,0.3,10.3,0.4,15.4c0.2,7.5,0.4,15,0.5,22.4c0,1.2,0.3,2.5-0.2,3.4c-1.5,3.1,0.3,4.7,2,7.2c4.4,6.4,9.8,7.3,17,6.6
			c10.9-1.1,13.7,0.2,17.8,4.7c-1,0.2-1.7,0.4-2.3,0.4c-7.4-0.5-14.9-1.7-22.2-1.4c-4.1,0.2-6.4-1-8.7-4c-2-2.6-4.7-4.6-7.8-7.6
			c0-11.1,0-23.8,0-35.5c-0.6,8-0.8,17.2-2.2,26.2c-1.5,9.5-4.6,18.7-6.3,28.1c-1,5.6-0.7,11.4-0.7,17.2c0,1.4,1.5,2.7,2.9,3.8
			c-2.7-8.6-3-16.7,2.2-25c0,6.6-0.3,12.5,0.2,18.3c0.1,1.7,2.5,3.3,3.8,4.9c0.9-1.9,2.3-3.7,2.5-5.7c0.3-2.5-0.3-5.1-0.5-7.7
			c0.4-0.1,0.9-0.2,1.3-0.3c0.9,3.6,1.7,7.1,2.8,11.7c4.7-2.8,9.2-5.5,13.6-8.2c-0.1-0.4-0.3-0.7-0.4-1.1c-1.4,0.4-2.7,0.8-4.1,1.2
			c-0.6-4.3,1.2-5.2,5.6-4.4c3.4,0.6,7.1,0,10.5-0.8c2.6-0.6,2.8-2.8,0.6-4.4c-2.2-1.6-4.7-2.9-7-4.4c0.2-0.5,0.4-0.9,0.6-1.4
			c2.7,1.1,5.6,1.8,7.9,3.5c2.3,1.7,3.9,1.7,6.2,0.5c11.3-5.9,22.7-11.8,34.2-17.3c3.3-1.6,7.2-1.9,10.8-2.8
			c0.3,0.5,0.5,1.1,0.8,1.6c-11.4,6.9-22.7,13.8-34.1,20.7c1.7,4.7,1.8,9.6-1.5,14.3c-1,1.4-1.3,3.4-1.5,5.1
			c-1.6,10-6.2,16.7-16.5,18.6c-3.7,0.7-6.2-0.4-6.6-4c-0.5-4.1-2.7-4.8-6.1-4.7c-2.7,0.1-5.2-0.4-6.3-4.7c4.4,0,8.3,0,13.8,0
			c2.9,3.8,8.2,6.2,14.2,2.5c2.3-1.4,3.6-4.6,6-7.7c-7.4-0.9-14.3,0.7-18.8-5.8c-5.6,3.8-11,7.5-16.5,11.1c-0.8,0.5-1.7,1-2.6,1.4
			c-7.8,2.8-7.6,2.8-6.4,10.8c1.4,9,2.8,18.1,3.4,27.2c0.3,4.5,0.6,10-6.2,12c1.8,4.9,3.1,10,5.3,14.5c7.7,15.6,10.3,32.6,13.3,49.5
			c4,23,2.1,45.6-4.5,67.7c-5.9,19.7-13.4,38.7-28.8,53.5c-23.4,22.4-49.2,41.1-80.6,50c-18.5,5.2-37.9,7.7-57.3,3
			c-7.7-1.9-15.2-4.7-22.8-7c-9.6-2.9-19.2-5.8-29.3-8.9c4.1,0.5,8.1,0.4,11.7,1.5c10.3,3,20.4,2.2,30.6-0.2c2.2-0.5,4.5-1,7-0.4
			c-5.1,1.4-10.2,2.9-15.9,4.5c11.5,4.4,22.5,7.8,34.7,7.9c11.1,0,22-0.3,32.7-2.9c10-2.4,19.7-5.4,28.4-11.6
			c5.9-4.2,12.8-6.9,19.4-10c13.1-6.3,24.2-15.3,34.2-25.5c7.7-7.8,15.5-16,20.5-25.5c5.8-11,9.4-23.5,12.7-35.6
			c9.5-34.7,3.9-68.6-7.1-102.1c-2.2-6.8-4.7-13.5-7.4-20.1c-1.4-3.3-3.6-6.3-5.3-9.5c-0.7-1.4-1.1-3-1.7-4.4
			c0.6-0.4,1.2-0.9,1.8-1.3c0.9,1.9,1.8,3.9,2.7,5.8c0.8-0.6,1.6-1.2,2.4-1.8c-5.1-8.3-13.8-14.7-13.4-26.7c-3.8,2.1-6.5,3.1-8.4,5
			c-0.9,0.9-0.9,3.8-0.1,5.1c2.6,4.2,1.1,8.1-0.5,11.8c-0.6,1.4-3.4,3.2-4.6,2.9c-5.5-1.6-10.8-3.9-16.2-6.1c-0.4-0.2-0.6-1.1-0.2-3
			c3.8,1.3,7.8,2.3,11.4,4c4.1,1.9,6.9,1.9,8.5-2.8c1-2.8-2.4-6.2-6.2-7.7c-6.4-2.4-12.5-5.4-18.7-8.1c0.3-0.8,0.5-1.5,0.8-2.3
			c2.9,0.8,5.8,1.6,8.7,2.4c1.2-5.5,6.7-0.7,9.7-3.6c-9.9-2.6-19.6-4-29.6-3.2c-13.3,1.1-26.4,1.2-39.3-3.7
			c-9-3.4-18.6-5.2-26.5-11.2c-2.5-1.9-4.8-4.1-7.4-5.9c-9.4-6.5-18.9-12.9-28.4-19.4c-1.5-1-3-2.1-4.4-3.2
			c-8.8-7.5-4.3-15.1,2.6-19.3c4.9-3,10.2-5.7,14.4-9.5c3.7-3.4,6-8.2,8.9-12.4c3.2-4.7,6.5-9.5,9.4-14.4c1.2-2,2.3-4.4,2.6-6.7
			c2.7-18.7,3-37.6-1-56.1c-1.6-7.4-5.2-14.3-8.4-21.2c-0.4-0.9-4.5-1.4-5.9-0.5c-5.8,3.6-11.3,7.8-17.1,11.9c4,1.1,2,2.8,0.7,4.2
			c-4.7,5.3-10.1,10.3-14.2,16.1c-7.5,10.5-14.2,21.6-21.2,32.4c-5.2,8.1-4.1,16.8-2.9,25.6c0.5,3.5,0.9,6.9,1.2,10.4
			c0.1,0.9-0.4,1.8-1,3.9c-4.9-6.2-1.7-12.5-3.1-17.7c-3.3,7.5-6.8,15.2-10.2,22.9c-3.8,8.9-7.3,17.9-11.3,26.6
			c-1.8,4-2.2,7.5,0.5,11.1c0.7,1,1,2.3,0.7,4c-1.2-1.7-2.4-3.4-3.6-5.1c0.9,7.4,5.5,12.4,11.1,16.2c8.3,5.5,16.8,10.8,25.7,15.2
			c12.8,6.4,25.8,12.4,39.1,17.6c9.7,3.8,20,6.4,30.1,8.9c9.8,2.4,18.7,5.9,24.9,14.4c0.6,0.8,1.7,1.2,3.2,2.3
			c-1.9-3.5-3.4-6.2-4.9-9c8.3,11.2,18.2,18.7,33.5,16.6c-0.6-1.1-1.1-2.2-1.7-3.5c2.6-1.2,7.5,1.3,7.4-4.6
			c-1.6-0.9-3.5-1.9-5.3-2.9c0.1-0.3,0.1-0.6,0.2-0.9c2.9,0.5,5.8,1,8.8,1.5L410.1,476.1z M383,162c0.7,0.6,1.4,1.6,2.2,1.9
			c3.5,1.1,6.8,2,8.1,6.3c0.5,1.7,3.3,4.2,4.4,4c2.6-0.6,4.8-2.6,7.1-4.3c0.4-0.3,0.1-1.9-0.4-2.6C400.1,161.2,390.1,158.8,383,162
			c1.4-2.1,2.7-4.2,4.3-6.6c-5-4.2-10.7-9-16.4-13.7c-0.6-0.5-1.2-1.3-2-1.5c-1.2-0.3-2.6-0.6-3.7-0.3c-0.5,0.2-0.8,2.2-0.5,3.1
			c1.5,3,2.8,6.3,5,8.5C373.9,155.3,378.6,158.5,383,162z M475,158c-2.2,2-5.7,3.2-4.9,7.1c0.2,1.2,0.9,3.3,1.4,3.3
			c1.6,0,4.6-0.8,4.6-1.3C476.1,164.1,475.4,161,475,158c1.8-1-0.3-6.6,5.5-3.1c1.1-9.7,2.4-18.7,3-27.8c0.6-8.6-0.9-10.1-9.5-12.1
			c-1.1-0.3-2.3-0.4-3.4-0.6c-6.6-1-13.1-1.9-19.7-2.8c-12.2-1.8-24.3-3.7-36.5-5.4c-2.7-0.4-4.5,0.5-5.5,3.6
			c-2.1,6.4-4.9,12.7-7.4,18.9c-1.2,3-2.5,5.9-3.4,8.2c2.9,1.7,4.9,3.8,7.1,3.9c2.2,0.1,4.5-1.7,6.7-2.6c0.8,7.4,2.4,8.5,8.2,5.1
			c1.2,4.7,5.3,5.1,8.9,6.7c5.5,2.4,5.9-3.3,9.3-5.6c0.1,2.6,0.2,4.1,0.3,5.8c6.2,1.4,12.2,3.3,16.2-0.4c3.4,2,5.5,3.7,7.9,4.4
			c1.2,0.3,2.9-1.5,4.9-2.6c0.7,0.6,2,1.6,3.3,2.8C472.4,155.4,473.7,156.7,475,158z M382,488c-3-1.8-6-3.6-9.3-5.6
			c-1.9,4.3-1,6.3,3,6.2C377.8,488.6,379.9,488.2,382,488c-2.4,4.7-6.8,3.7-10.5,2.8c-4-1-3.1-4.8-2.5-7.6c0.9-3.8-1-6-3.8-7.2
			c-7.1-3.2-14.2-6.4-21.7-8.8c-14.2-4.5-29-7.1-42.1-15.1c-7.1-4.3-15.5-6.5-25-10.4c1.4,14.3,2.7,27.1,3.8,39.9
			c0.5,6.5,3.9,10.4,9.8,12.4c12.4,4.3,24.8,8.7,37.2,12.8c4.9,1.6,10,2.6,15,3.8c17.1,4,34.2,8.1,51.4,11.7c1.7,0.4,5.1-1.4,5.7-3
			c3-7.5,4.4-15.3,3.4-23.4c-0.3-2.6-0.1-5-3.9-5c-4.1,0-3.9,2.7-3.9,5.4c-0.1,4.9-0.3,9.8-0.5,14.7c-0.5,0-0.9-0.1-1.4-0.1
			c0.1-1.2,0.3-2.5,0.3-3.8c0.2-4.5,0.4-9,0.7-13.4c0.2-3.5-2.4-4.4-4.8-4.3c-1.2,0.1-2.6,2.1-3.4,3.6c-1.8,3.3-2.8,7.1-5.1,9.9
			c-1.3,1.6-4.6,1.6-7,2.3c-0.3-0.7-0.7-1.3-1-2c8-0.2,9.6-5.9,11.4-11.6C384.8,489.6,384.6,488.3,382,488z M510.2,174.4
			c-10.4,4.2-20.6,4.8-30.1-1.8c-1.2,3.1-1.9,5.2-2.7,7.3c-0.9-7.2-2.4-8.3-9.8-8.8c-2.8-0.2-5.5-1.4-8.2-1.7
			c-2.2-0.3-4.5-0.1-7.4-0.1c-3-4.8-9-4.8-14.5-6.1c-6.7-1.5-13.4-3.2-19.9-5.2c-5.3-1.7-10.3-4.3-15.7-5.9c-3.6-1-7.5-0.9-11.3-1.2
			c1.8,2.8,4,4.5,6.2,6.1c7.1,5.1,14.3,10.2,21.5,15.4c0.9,0.7,1.8,1.5,2.9,1.9c10.6,3.9,21.1,8.6,32,11.1
			c9.6,2.2,19.8,1.8,29.7,2.6C494.5,188.9,503.5,184.1,510.2,174.4z M460.1,332c0.5-0.1,0.9-0.2,1.4-0.2c0-1.4,0.3-2.9,0-4.2
			c-3.5-15.7-7.1-31.4-10.7-47.1c-0.3-1.4-1.3-2.7-2.1-3.9c-2.1-3.6-4.1-7.2-6.4-10.7c-2.3-3.4-4.9-6.7-7.7-10.6
			c-1.5,3.5-2,5.8-3.3,7.6c-2.5,3.7-1.2,5.4,2,8c4.2,3.2,9.2,7,11,11.6c3.8,9.7,2.8,20.2,0.5,30.4c0-6.1,0-12.2,0-18.2
			c0.5,12-1.4,23.9,1.5,36.1c2.2,9.4,0.3,19.9,0.2,29.9c0,1.5,0,3,0,4.3c2.1-9.3,4.2-18.6,6.2-28c0.7-0.2,1.4-0.5,2.1-0.7
			c0.8,1.7,1.7,3.5,2.5,5.2c0.5-0.4,1-0.7,1.6-1.1c-2.7-10-5.4-20.1-8.4-31.2C457,316.1,458.5,324.1,460.1,332z M463.9,437.4
			c-4.1,2.4-7.9,4.4-11.5,6.7c-0.9,0.6-1.7,2.6-1.5,3.6c1.1,4,1.9,8.4,4.3,11.6c4.4,5.7,9.1,11.2,9.8,18.8c0,0.1,0.3,0.1,1.6,0.5
			C465.8,464.7,464.9,451.4,463.9,437.4z M495.2,418c3.2,6.2,12.8,5.7,18.7,1c2.7-2.2,2.3-6.3,0.1-8.7
			C507.5,413,501.5,415.4,495.2,418z M428.8,451.4c4-0.4,8.5-0.7,12.8-3.4c12.9-8.1,26.1-15.9,39.2-23.8c3.1-1.9,6.2-3.8,9.3-5.7
			c-0.2-0.3-0.4-0.5-0.5-0.8C469.2,428.9,448.9,440.2,428.8,451.4z M456.9,157.3c-2.5,7.4-0.8,9.3,8.3,9.4
			C467.9,159.2,466.2,157.2,456.9,157.3z M446,162.1c0.6-0.3,1.2-0.7,1.8-1c0-1.9,0.6-5.2-0.1-5.4c-2.1-0.9-4.7-0.9-7-0.6
			c-0.8,0.1-1.5,1.8-2.2,2.8C440.9,159.3,443.4,160.7,446,162.1z M432.7,157.9c0.6-6.6-5-4.6-7.6-6.7
			C424,156.3,424.9,157.1,432.7,157.9z M505.7,437.1c-3.5,0.5-5.7,1.2-7.8,0.9c-2.2-0.3-4.2-1.6-6.2-2.5
			C492.1,442.3,496.5,443.1,505.7,437.1z M405.9,151.2c1.2-4.4,1.4-7-2.3-7.4c-1-0.1-2.2,1.9-3.4,3
			C401.9,148.1,403.6,149.4,405.9,151.2z M327.2,362c-0.6-0.4-1.1-0.8-1.7-1.2c-3.5,4.4-7.1,8.9-10.6,13.3c0.4,0.3,0.8,0.6,1.1,0.9
			C319.8,370.6,323.5,366.3,327.2,362z M292.9,272.4c-3.5,4.1-10.2,6.4-8,13.9C287.6,281.7,290.2,277.1,292.9,272.4z M412,146.8
			c-0.6,0.8-1.2,1.5-1.8,2.3c2.5,1.7,5,3.3,7.6,5c0.4-0.6,0.9-1.1,1.3-1.7C416.7,150.5,414.3,148.6,412,146.8z"/>
		<path d="M311.5,508.1c-0.2,3.4,0,5.5-0.4,7.5c-2.5,11.4-2,22.8-0.9,34.3c0.8,8.1,1,16.2,1.1,24.4c0,9.2,2,17.7,6.4,25.8
			c1.6,2.9,2.3,6.2,3.4,9.4c-0.7,0.3-1.4,0.5-2.1,0.8c-3.9-10-7.9-20.1-11.9-30.4c-0.8,1.1-2.1,2.9-3.3,4.6
			c-7.4,10.6-17.9,17.5-28.5,24.4c-5.2,3.3-10.8,5.7-16.3,8c-6,2.5-12.4,4.1-18,7.2c-10,5.5-19.5,11.9-29.3,17.8
			c-3.2,2-6.6,3.8-9.9,5.6c-0.4-0.6-0.8-1.1-1.1-1.7c1.4-1.2,2.9-2.3,4.2-3.6c12.9-12.8,28.9-20.3,45.4-27.3
			c12.2-5.2,24.1-11.3,35.5-18.1c9.7-5.8,17.2-14.9,20.8-25.5c2.2-6.6,0.6-14.7,0-22.1c-1-12.4-1.1-24.6,2.1-36.7
			c0.2-0.8,0.4-1.6,0.8-2.4C309.3,509.7,309.8,509.5,311.5,508.1z"/>
		<path d="M147.8,673.9c1.9,5.4,7.3,7,12.2,9.3c4,1.9,8.2,3.3,12,5.4c4.1,2.3,8,5.1,12,7.7c18.4,12,39,16.7,60.5,18.3
			c13.4,1,26.9,1.4,40.4,2c2.4,0.1,4.9,0.4,7.4,1.7c-0.6,0.2-1.3,0.7-1.9,0.7c-24.8,0.8-49.6,1-74-4.7c-12.7-2.9-24.1-8.6-35.2-15.1
			c-8.9-5.2-18-9.9-26.7-15.3c-3.4-2.1-6.4-5.1-9-8.2c-2.5-2.9-1.8-5.3,2.4-6.4c11.4-3.1,21.3-9.3,30.7-16.5
			c-1.7,0.5-3.4,1.1-5.1,1.6c-0.2-0.4-0.4-0.8-0.6-1.2c15-8.4,30-16.7,45.1-25.1c0.2,0.2,0.3,0.4,0.5,0.5c-4.1,3.4-8,7.1-12.4,10
			c-4.8,3.2-10.2,5.5-15.2,8.5c-2,1.2-3.4,3.5-5.2,5.1c-2,1.9-4.2,3.7-6.2,5.5c1.1,1.1,2.3,2.2,3.4,3.3c-5.3-2-9.2,0.9-13.1,2.6
			C162.6,666.9,155.6,670.3,147.8,673.9z"/>
		<path d="M205.9,273c5.1,0.7,10.1,1.6,15.2,2c6.9,0.5,14.1-0.2,19.8,5c0.7,0.7,2.2,0.5,3.3,0.7c11.4,2.1,22.8,4.3,34.2,6.4
			c-0.1,0.6-0.2,1.1-0.2,1.7c-4.7-0.6-9.4-1.2-14-1.9c-7.2-1.2-14.4-2.5-21.5-3.8c-1-0.2-2.2-0.2-2.8-0.8c-5.4-5.1-12.1-4.6-18.8-5
			c-16.6-0.9-33.2-3-49.8-2.9c-22.4,0.2-44.8,1.1-66.6,7c13.2-5.6,27.3-6.2,41.3-7.5c0.1-0.6,0.1-1.2,0.2-1.8
			c-4.8-1.6-9.4-3.6-14.3-4.8c-7.1-1.8-14.5-2.6-21.4-4.7c-8.4-2.5-16.7-5.7-24.8-9.2c-6.8-2.9-13.6-2.2-20.6-1.9
			c-8.6,0.3-17.2,0.1-25.9-0.3c4.8-0.3,9.7-0.6,14.5-0.8c13-0.5,26.3-3.7,38.8,2.6c13.2,6.6,27.4,8.8,41.5,12
			c3.5,0.8,7.1,2.1,10.2,3.9c4.7,2.7,9.6,3,14.9,3C174.8,272,190.4,272.6,205.9,273C206,273,205.9,273,205.9,273z"/>
		<path d="M149,447.8c1.6-2,3.1-4,4.7-6c0.4,0.3,0.8,0.6,1.3,0.9c-2.2,3.3-4.4,6.5-6.6,9.8c-0.6-0.1-1.1-0.2-1.7-0.4
			c-0.4-1.6-1.1-3.2-1.1-4.7c0.6-23.8,1.3-47.6,1.9-71.4c0.1-3.1,0.8-4.4,4.3-4.3c5.3,0.1,10.6-0.5,15.9-1c4.5-0.4,9-4.1,9.4-9.6
			c0.8-10.7,0.7-21.5,0.4-32.3c-0.1-2.2-2.8-4.3-5.1-7.5c2.1,0.8,4.1,0.9,5.1,2c1.3,1.4,2.5,3.4,2.5,5.2c0.3,10.6,1,21.3-0.1,31.8
			c-0.9,9.4-7,13.5-16.5,14c-3.3,0.2-6.7,0.3-9.9,1.2c-1.4,0.4-3.2,2.4-3.2,3.8c-1,18.1-1.8,36.2-1.8,54.6c0.5-0.7,1-1.5,1.9-2.7
			c0.4,0.8,0.8,1.5,1.3,2.4c0.8-0.9,1.5-1.7,2.2-2.5c0.2,0.1,0.4,0.2,0.6,0.3c-2.3,5.2-4.6,10.5-6.9,15.7
			C148.1,447.4,148.6,447.6,149,447.8z"/>
		<path d="M127.2,124.3c-12.2,6.1-31.4,5.5-40.2-8.7c-3.2-5.2-6.4-10.7-8.1-16.5c-2.9-9.8-1.7-18.7,6.6-26.4
			c14.2-13.2,37.2-17.3,53.8-8.7c3,1.6,5.7,3.7,8.6,5.6c-0.2,0.4-0.4,0.7-0.6,1.1c-0.5-0.1-1-0.2-1.4-0.5
			c-14.9-12.7-45.2-11.1-61.2,7.2c-5.8,6.6-5.3,14.4-2.9,22.2c0.8,2.7,2,5.3,3.4,7.8c9.4,16.5,16,19.2,33.1,17.9
			C121,125.1,123.7,124.7,127.2,124.3z"/>
		<path d="M152,539c0.3-1.8,0.6-3.5,0.8-5.3c0.8-9.2,1.6-18.4,2.4-27.5c0.6,0,1.1,0.1,1.7,0.1c-0.8,10-1.5,19.9-2.3,29.9
			c0.4,0.1,0.8,0.2,1.2,0.3c2.6-5.4,5.2-10.8,7.9-16.1c0.6,0.2,1.2,0.5,1.7,0.7c-3.6,8.8-7.3,17.5-10.9,26.3
			c-11.5-3.1-27.7-31.8-25.2-44.7c3.2,6.7,6.9,14.7,10.6,22.6c1.9,3.4,3.5,7.1,5.9,10.1C147.3,537,150,537.8,152,539z"/>
		<path d="M124.4,367.3c1.8-16.3,3.6-32.5,5.4-48.7c0.7,0.1,1.4,0.2,2.2,0.2c-0.7,6.6-1.5,13.2-2.2,19.9c-0.9,9.4-1.9,18.8-2.5,28.3
			c-0.2,2.8-1.1,4.1-3.7,4.1c-2.5,0-5.2,0.2-7.4-0.7c-1.6-0.6-3.5-2.8-3.6-4.3c-0.4-7.3-0.1-14.6-0.4-21.9c-0.1-2.2-1-4.4-1.6-6.5
			c-2,0.8-4,1.6-6,2.5c-0.6,0.3-1.1,0.7-2.4,0.5c1.1-1.7,2-3.5,3.3-4.9c3.3-3.3,7.8-2.2,8.6,2.4c0.9,4.5,0.7,9.2,0.9,13.9
			c0.1,2.7,0,5.3-0.1,8C114.9,368.4,116.3,369.3,124.4,367.3z"/>
		<path d="M137.7,301.6c4.8-5,10.1-3.8,12.3,2.8c3.2,9.7,2.5,19.7,1.8,29.7c-0.3,4-0.7,7.9-1,11.8c8,1.9,11.9-0.4,13.7-7.6
			c0.6-2.4,1.4-4.8,2.5-7c0.5,13.9-2.5,16.9-18.8,19c0-4.3,0-8.4,0-12.6c0-9.3,0.8-18.6-0.1-27.8
			C147.3,300.6,146.6,300.7,137.7,301.6z"/>
		<path d="M539.4,254.8c-13.8,4.4-27.6,8.9-41.3,13.3c0.1,0.6,0.2,1.2,0.3,1.7c4.6,0,9.3,0,13.9,0c0,0.5-0.1,1-0.1,1.5
			c-9.8,0.8-19.7,3.1-29.2-2.5c-5.9-3.5-11.9-1.1-17.8,0.2c-3.9,0.9-7.7,2.2-11.7,2.7c8.5-5.3,17.7-8.3,27.8-6.8
			c3.4,0.5,6.6,2.8,9.9,4c1,0.4,2.7,0.6,3.3,0c8.4-7.4,19.6-7.4,29.4-11.1c4.9-1.9,10.3-2.4,15.4-3.5
			C539.3,254.5,539.3,254.7,539.4,254.8z"/>
		<path d="M582.1,257.8c-2.8,0.8-5.5,1.8-8.3,2.2c-7,1-13.3,3.4-19.6,6.6c-6.8,3.4-14.7,5.6-22.3,6.2c-16.9,1.4-17.1,0.9-30.9,7.4
			c5.9-6.6,13.7-8.7,22.2-9.7c8.5-1,17-2.6,25.5-4.1c1.7-0.3,3.5-1.3,4.9-2.4c8.4-6.6,18.7-6,28.2-8.2
			C581.8,256.6,581.9,257.2,582.1,257.8z"/>
		<path d="M129.9,611c3.3,1.8,6.7,3.3,9.8,5.4c11.9,7.8,24.5,9.6,38.5,6.8c9.2-1.8,18.8-1,28.3-1.3c1.4,0,2.9,0.9,4.1,2.4
			c-1.4-0.1-2.9,0-4.3-0.2c-9.8-1.5-19.5-0.7-29.1,1.9c-18.6,4.9-33.6-3.2-47.9-13.6C129.5,611.9,129.7,611.5,129.9,611z"/>
		<path d="M116.8,133.5c5.9-2.5,11.8-5.1,17.7-7.5c16.7-6.7,27.4-28.6,18.4-47.1c-0.2-0.4-0.2-0.9-0.4-1.5
			c6.5,5.9,7.2,21.7,1.6,32.6C147.3,123.3,127.5,135.7,116.8,133.5z"/>
		<path d="M328.7,699.5c29.1-11.1,46.2-35.3,63.7-58.7C391,655.6,347.8,695.8,328.7,699.5z"/>
		<path d="M200.4,432c1.2,3.1,2.4,6.1,3.6,9.2c0.3,0,0.6,0,0.9,0c0.4-4.5,0.9-9.1,1.3-13.6c0.7,0,1.3,0,2,0.1c0,11.5,0,23,0,35.6
			c-3.4-10.7-6.5-20.7-9.6-30.6C199.2,432.5,199.8,432.3,200.4,432z"/>
		<path d="M167.6,696.8c-24-0.5-41.4-13.9-57.7-29.6c9.1,6.2,18.1,12.6,27.4,18.4C146.6,691.5,156.5,695.9,167.6,696.8z"/>
		<path d="M99.2,359c0,5.2,0,10.4,0,15.6c0.1,10.7,4,15.3,14.6,17.2c3,0.5,6.1,0.9,9.2,1.3c0,0.6,0,1.2,0,1.8
			c-2.4,0.1-4.7,0.6-7.1,0.3c-6.3-0.6-12.9-1.2-16.3-7.7c-1.5-3-2.1-6.6-2.3-10c-0.4-6.2-0.1-12.4-0.1-18.6
			C98,359,98.6,359,99.2,359z"/>
		<path d="M214.6,440.4c0.6-1.8,1.1-3.6,1.7-5.5c0.4,0.1,0.7,0.1,1.1,0.2c-1.2,7.2-2.5,14.5-3.7,21.8c-3.5-9.9-4.3-36.3-0.6-45
			c0,9.5,0,19,0,28.4C213.7,440.4,214.2,440.4,214.6,440.4z"/>
		<path d="M111.2,633.6c-14.3-9.6-27.9-18.8-41.5-28C84.9,612.6,99.5,620.4,111.2,633.6z"/>
		<path d="M119.2,622.9c7.4,14.4,20.3,20.4,34.6,23.8C145.1,651.1,122.1,635.8,119.2,622.9z"/>
		<path d="M152,539c-2.1-1.2-4.8-1.9-6.1-3.7c-2.4-3-4-6.7-5.9-10.1c0.7-1.1,1.3-2.3,2.6-4.6C145.9,526.9,149,532.9,152,539z"/>
		<path d="M116.1,656c-17.1-2.6-32.3-7.5-47.6-16.1C84.7,645.3,99.9,650.5,116.1,656z"/>
		<path d="M409.9,475.9c1.2-0.7,2.4-1.3,3.5-2.1c1.2-0.9,2.2-2,3.2-3c-1-1.1-1.9-2.7-3.2-3.1c-4.3-1.5-8.7-2.5-12.8-4.4
			c6.3-0.2,12.4,0.5,17.5,4.2c2.9,2.1,1,7.9-2.7,8.6c-1.8,0.3-3.6,0-5.5,0C410.1,476.1,409.9,475.9,409.9,475.9z"/>
		<path d="M417.8,655.8c2.6-4.8,5.4-9.5,7.7-14.4c3.9-8.1,4.1-16.7,3-25.3c-0.2-1.3-0.3-2.6-0.5-5c5.6,15.2,1.9,31.3-9.7,45.1
			C418.1,656.1,417.9,656,417.8,655.8z"/>
		<path d="M333.4,315.4c1.8,6.8-12,20.1-19.9,19.9C320.4,329.5,329.7,326,333.4,315.4z"/>
		<path d="M107.9,676c-10.7-6.4-20.2-12.1-30.4-18.2C87.3,659.8,102.8,669,107.9,676z"/>
		<path d="M127.3,396.4c-0.9,9.3-1.8,18.6-2.8,28.3C121.9,419.9,123.2,401.1,127.3,396.4z"/>
		<path d="M552.9,498.7c-3.2,7.4-6.5,14.8-9.7,22.2c-0.2,0-0.5,0-0.7,0c0.7-6.3,1.3-12.6,2-19c0.4,0,0.8,0.1,1.3,0.1
			c-0.2,2.3-0.5,4.7-0.8,7.9c2.5-4.5,4.6-8.2,6.7-11.9C552.1,498.2,552.5,498.4,552.9,498.7z"/>
		<path d="M228.2,435.2c-1.5,6.1-2.8,11.7-4.1,17.4c-3.9-2-3.7-4.3,1-17.9C226,434.9,227,435.1,228.2,435.2z"/>
		<path d="M436.1,583.8c3.1,8.7,4.1,30.6,2,43.1C437.5,613.8,436.7,597.9,436.1,583.8z"/>
		<path d="M173.8,607c12,4.2,24,8.4,36,12.6c-0.2,0.5-0.4,1-0.5,1.5c-12-4.2-24-8.4-36-12.6C173.5,608,173.7,607.5,173.8,607z"/>
		<path d="M548.9,248c10.3-4.1,20.6-8.1,31-12.2c0.2,0.5,0.4,1,0.6,1.5c-10.3,4.2-20.6,8.3-30.8,12.5
			C549.4,249.3,549.2,248.6,548.9,248z"/>
		<path d="M131.2,452.3c-4.4-5.3-10.9-10-7.1-19.6C126.7,439.7,128.9,446,131.2,452.3z"/>
		<path d="M407.3,671.3c-7.2,7.8-14.5,15.6-21.7,23.4c-0.5-0.5-1-0.9-1.5-1.4c7.5-7.6,15-15.1,22.6-22.7
			C406.9,670.9,407.1,671.1,407.3,671.3z"/>
		<path d="M380,684c-5.9,10.6-14.9,18.3-23.3,26.6c-0.3-0.3-0.6-0.5-0.9-0.8c4.6-5,9.2-10.1,13.9-15.1
			C373.1,691.1,376.6,687.6,380,684L380,684z"/>
		<path d="M290.9,431.5c-8.7-4-17.4-8.1-26.1-12.1c0.2-0.5,0.4-0.9,0.7-1.4c8.8,4,17.6,7.9,26.4,11.9
			C291.5,430.4,291.2,431,290.9,431.5z"/>
		<path d="M229.8,525.4c3.1-7.7,6.2-15.4,9.3-23.1c0.6,0.2,1.1,0.5,1.7,0.7c-3.1,7.7-6.3,15.5-9.4,23.2
			C230.8,526,230.3,525.7,229.8,525.4z"/>
		<path d="M63.4,412.4c-3.8-5.8-6.9-11.8-4-19C60.7,399.8,62,406.1,63.4,412.4z"/>
		<path d="M59.8,414c-6-5.9-12.1-12-10.9-20.2C52.2,399.9,56,406.9,59.8,414z"/>
		<path d="M489.8,486.7c-4,5.5-8.4,10.9-6.9,18.5c-2.1-2,1-7-5.1-6.1c4-4.9,7.5-9,11-13.2C489.1,486.1,489.5,486.4,489.8,486.7z"/>
		<path d="M193.6,658.4c-1.3-1.8-2.7-3.4-2.5-3.5c1.7-1.7,3.5-3.3,5.5-4.7c0.1-0.1,2.4,2.4,2.3,2.7
			C197.5,654.7,195.8,656.2,193.6,658.4z"/>
		<path d="M64,420c1.8-7.3,3.5-14.6,5.3-21.9c-0.5,7.6,0.1,15.5-4.1,22.2C64.8,420.3,64.4,420.1,64,420z"/>
		<path d="M86,525.1c-5.3-5.1-7.8-11.6-9.1-18.8c3.4,6,6.9,12.1,10.3,18.1C86.8,524.6,86.4,524.9,86,525.1z"/>
		<path d="M242.9,435.3c-2.3,6.6-4.6,13.2-6.9,19.8c-0.5-0.2-1-0.4-1.5-0.5c2.2-6.6,4.4-13.3,6.6-19.9
			C241.7,434.8,242.3,435.1,242.9,435.3z"/>
		<path d="M239.4,654.2c-1,1.3-1.9,2.6-2.9,3.9c1.6,0.7,3.1,1.4,4.7,2c1.1,0.4,2.4,0.5,3.5,1.1c-3.5,1.4-7,2.3-9.9-0.8
			c-0.9-1-1.4-3.6-0.8-4.4c1.1-1.4,3.2-2,4.9-2.9C239.1,653.4,239.2,653.8,239.4,654.2z"/>
		<path d="M285.1,618.7c-9-0.4-10.1,2-6.5,11.8c-4-2.2-5.6-6.4-3.8-10.1C276.6,616.9,279.7,616.2,285.1,618.7z"/>
		<path d="M143.3,612.9c5.9,0.8,11.8,1.6,17.8,2.4c0,0.5-0.1,1-0.1,1.5c-6-0.5-11.9-1-17.9-1.5C143.2,614.5,143.2,613.7,143.3,612.9
			z"/>
		<path d="M174.7,423c3.9,7.4,7.4,13.8,11.3,21.3C179.6,438.1,175.8,431.9,174.7,423z"/>
		<path d="M128.3,525.5c-4.8-5.1-9.7-10.1-14.5-15.2c0.2-0.2,0.4-0.3,0.5-0.5c4.8,5,9.6,10.1,14.4,15.1
			C128.6,525.1,128.5,525.3,128.3,525.5z"/>
		<path d="M473.2,539.1c0.5,2,1,3.7,1.6,6c0.7-1.4,1.2-2.3,1.7-3.2c0.2,0,0.5,0.1,0.7,0.1c-0.2,2.6-0.5,5.2-0.8,8.1
			C471.8,547.5,470.8,543.5,473.2,539.1z"/>
		<path d="M113.6,437.2c1.3,7.8,0.7,15.9,10.1,18.3C116.8,457.9,111.6,448.9,113.6,437.2z"/>
		<path d="M234.8,502.5c-3.2,5.9-6.4,11.7-9.5,17.6c-0.5-0.3-1-0.6-1.6-0.9c3.2-5.9,6.4-11.7,9.6-17.6
			C233.8,501.9,234.3,502.2,234.8,502.5z"/>
		<path d="M347.9,456.4c-3.2-1.5-7.4-6.6-10.6-12.8c-0.5,0.5-1.1,1.1-1.6,1.6C340.6,449.7,345.4,454.2,347.9,456.4z"/>
		<path d="M380,684c4.5-6.3,9-12.5,13.5-18.8c0.6,0.4,1.1,0.8,1.7,1.3C390.1,672.3,385.1,678.2,380,684C380,684,380,684,380,684z"/>
		<path d="M240,632.3c-6.4-2.6-10.5,2.3-15.6,4.9c1.1-3.7,4.4-6.2,9.7-7c2-0.3,4.2,0.2,6.3,0.4C240.3,631.2,240.1,631.7,240,632.3z"
			/>
		<path d="M202.2,524.9c-1.6-6.6-3.2-13.3-4.9-19.9c0.5-0.1,1-0.2,1.5-0.4c1.6,6.7,3.1,13.3,4.7,20
			C203.1,524.7,202.6,524.8,202.2,524.9z"/>
		<path d="M171.6,434.1c0-8.6,0-17.2,0-25.8c0.2,0,0.4,0,0.5,0c0,8.5,0,17.1,0,25.6C172,434,171.8,434.1,171.6,434.1z"/>
		<path d="M130.9,654.8c5.2,1.2,10.4,2.5,15.7,3.7C143.1,660.4,136,659.1,130.9,654.8z"/>
		<path d="M156.7,548.8c2.5-4.7,5-9.4,8-15.1C164.2,540.7,161.7,545.5,156.7,548.8z"/>
		<path d="M354.6,655.5c-4.7,5.1-9.4,10.1-14.1,15.2c-0.3-0.3-0.7-0.6-1-1c4.6-5.1,9.3-10.1,13.9-15.2
			C353.8,654.9,354.2,655.2,354.6,655.5z"/>
		<path d="M76.8,581.2c6.7,2.5,13.4,5,20.1,7.5c-0.2,0.4-0.3,0.9-0.5,1.3c-6.7-2.5-13.3-5-20-7.6C76.5,582,76.6,581.6,76.8,581.2z"
			/>
		<path d="M259.1,636.1c-3.9-5.4-6.6-5.2-9.8-0.5c-1.3-2.9-0.8-4.1,2.1-5.2C255.4,628.9,257.6,630.3,259.1,636.1z"/>
		<path d="M192.5,96.8c-0.6-8.3-1.1-16.6-1.7-24.9c0.3,0,0.7-0.1,1-0.1c0.5,8.3,1,16.6,1.6,24.9C193.1,96.8,192.8,96.8,192.5,96.8z"
			/>
		<path d="M564.2,393.2c0.9-5.6,1.8-11.2,2.7-16.8c0.6,0.1,1.1,0.2,1.7,0.3c-0.9,5.6-1.8,11.2-2.8,16.8
			C565.2,393.4,564.7,393.3,564.2,393.2z"/>
		<path d="M62.9,531.4c3.5,3.8,6.9,7.6,10.2,11.2C68.5,542.2,64.6,538.1,62.9,531.4z"/>
		<path d="M215,522c1.8-5.1,3.6-10.2,5.3-15.4c0.3,0.1,0.7,0.2,1,0.3c-1.6,5.7-3.1,11.4-4.7,17.1c-0.4-0.1-0.8-0.1-1.2-0.2
			C215.3,523.2,215.1,522.6,215,522C215,522,215,522,215,522z"/>
		<path d="M130.5,544.8c5,3.2,10,6.4,14.9,9.6c-0.3,0.4-0.5,0.8-0.8,1.2c-5.1-3.2-10.1-6.3-15.2-9.5
			C129.8,545.6,130.1,545.2,130.5,544.8z"/>
		<path d="M497,428.1c3.3-0.2,6.7-0.3,10.6-0.5c-3.1,3.9-5.3,4.1-10.6,1.9C497.1,429,497,428.6,497,428.1z"/>
		<path d="M208.4,671.9c-2.6,0.3-5.3,0.2-5.5-3.8c-0.2-3.8,2.6-5.8,7.2-5.9c-1.5,1.7-3.5,3.6-4.8,6
			C205,668.6,207.3,670.6,208.4,671.9z"/>
		<path d="M62.8,448c-2-6-4.1-11.9-6.1-17.9c0.4-0.1,0.8-0.3,1.2-0.4c2,6,4.1,11.9,6.1,17.9C63.6,447.7,63.2,447.9,62.8,448z"/>
		<path d="M231.2,446.5c-0.6,5.9-1.3,11.9-1.9,17.8c-0.6-0.1-1.1-0.1-1.7-0.2c0.9-5.9,1.7-11.8,2.6-17.6
			C230.5,446.5,230.9,446.5,231.2,446.5z"/>
		<path d="M294.3,636.8c-1.2-2.2-2.4-4.4-3.5-6.6c1.9-0.7,3.8-1.4,5.7-2.1c0.2,0.5,0.4,1,0.6,1.5c-1.2,0.4-2.4,0.8-4,1.4
			c1,1.8,1.9,3.3,2.8,4.9C295.3,636.2,294.8,636.5,294.3,636.8z"/>
		<path d="M173,639.1c4.9-2.3,9.8-4.7,14.7-7c0.2,0.5,0.5,0.9,0.7,1.4c-2.5,1-5,1.9-7.4,3.1c-2.4,1.2-4.7,2.8-7.1,4.2
			C173.6,640.2,173.3,639.7,173,639.1z"/>
		<path d="M224.4,504.5c2.3-4.9,4.5-9.7,6.8-14.6c0.4,0.2,0.8,0.4,1.3,0.6c-2.3,4.9-4.5,9.8-6.8,14.6
			C225.3,504.9,224.8,504.7,224.4,504.5z"/>
		<path d="M59.8,537.5c4,3.4,8.1,6.8,12.1,10.3c-0.3,0.4-0.6,0.7-0.9,1.1c-4.1-3.4-8.1-6.8-12.2-10.2
			C59.1,538.2,59.4,537.8,59.8,537.5z"/>
		<path d="M464.2,522.8c0.9-3.4,1.7-6.4,2.5-9.4C469.5,517.7,468.6,521.5,464.2,522.8z"/>
		<path d="M418.2,656.2c-3.6,5-7.3,10.1-10.9,15.1c-0.2-0.2-0.4-0.4-0.6-0.6c3.7-5,7.4-9.9,11.1-14.9
			C417.9,656,418.1,656.1,418.2,656.2z"/>
		<path d="M313.7,552.7c0.8,3.4,1.5,6.8,2.3,10.2c-0.7,0.1-1.3,0.3-2,0.4c-0.7-3.4-1.5-6.8-2.2-10.3
			C312.4,553,313.1,552.9,313.7,552.7z"/>
		<path d="M215,522c-3.1-3.3-1.3-6.8-0.4-10.2c0.5-2,1.3-3.9,2.4-5.7C216.3,511.4,215.6,516.7,215,522C215,522,215,522,215,522z"/>
		<path d="M533.2,502.4c1.9,4.9,3.8,9.7,5.7,14.6c-0.4,0.2-0.8,0.3-1.3,0.5c-1.9-4.8-3.8-9.7-5.7-14.5
			C532.4,502.8,532.8,502.6,533.2,502.4z"/>
		<path d="M186.4,432.5c-0.7-3.2-1.4-6.5-2.1-9.7c0.5-0.1,1-0.3,1.5-0.4c1,3.2,1.9,6.4,2.9,9.5C187.8,432.2,187.1,432.3,186.4,432.5
			z"/>
		<path d="M278.2,647.7c-4.1,2.1-6.6,0.9-8.3-2c-1.4-2.3-2-4.8,1.2-6.8C269.5,644.7,270.5,645.9,278.2,647.7z"/>
		<path class="st0" d="M392,200c2.1-0.1,4.1-0.3,6.2-0.4c0.1-0.4,0.2-0.9,0.3-1.3c-14.6-5.8-9.3-18.1-10.2-28.6c4.5-0.1,3.2,2,2.2,4
			c-2.6,5.3-2.5,7.7,1.9,13c0.5-3.7,0.8-6.3,1.2-9.1c1.7,0.5,4.5,1.5,7.4,2.4c-0.3-0.4-0.7-0.7-1-1.1c2.9-2.4,5.8-4.7,7.9-6.4
			c10.9,5.2,20.9,10.4,31.2,14.9c10.4,4.5,21.4,6.6,32.6,4.2c0.4,1.5,0.6,1.9,0.5,2.1c-6.4,14.2-12.8,28.4-19.3,42.7
			c-4.2,9.4-12.6,13.5-22.3,11.2c-5.7-1.4-11.6-2.2-14.6-8.2c-0.3-0.7-1.4-1.6-1.9-1.4c-7.4,2-7.6-4.3-9.9-8.3
			c-0.8-1.3-1.7-2.6-3.2-5c1.3,14,10.8,22.6,30.1,27.8c-3,8.3-5.9,16.4-8.9,24.5c-0.5-0.2-0.9-0.3-1.4-0.5c1.7,2.5,3.4,4.9,5.4,7.8
			c2.1-3.2,4-6.3,6.2-9.8c5.5,4.2,7.9,9.1,8.2,15c0.3,5.8-0.1,11.7,0.1,17.5c0.4,11.1,1.4,22.3,1.6,33.4c0.3,15.9-0.2,31.9,0.2,47.8
			c0.3,11.9,1.3,23.9,2.3,35.8c0.2,1.9,1.5,3.8,2.4,5.7c0.5-0.1,1-0.2,1.5-0.3c-0.8-13.2-2.5-26.4-2.1-39.5
			c0.3-13.2,2.7-26.3,4.2-39.3c0.7,10.9,1.3,21.9,2.2,32.8c0.1,0.7,1.7,1.3,2.1,1.5c-0.5-14.6-1.1-29.2-1.6-43.8
			c0.3-0.1,0.7-0.3,1-0.4c1,2.7,2,5.3,3.2,8.6c1.4-1.6,2.8-3.2,4.3-5c-1.1,14.7-1.8,29.3-3.4,43.8c-0.6,5.7-2.9,11.3-5.1,16.6
			c-3.6,8.6-2.9,18.4,3,28.9c-6.6,3.2-13.2,6.4-19.8,9.6c1.8-3.7,0.7-5.2-2.6-5.2c-3.3,0-6.6,0.4-9.9,0.8c-9.6,1-12.4-1.7-12-11
			c0.8-18.1,1.5-36.2,2.3-54.3c0.1-1.7,1.2-3.5,2.2-5.1c2.6-3.9,5.6-7.7,3.5-13.9c-1.9,4.5-3.4,8.1-4.9,11.7
			c-0.6-0.1-1.1-0.2-1.7-0.3c-1.3-14.7-0.3-29.8-3.9-44.2c-0.6,0-1.1,0-1.7,0c-0.2,1.8-0.7,3.6-0.6,5.4c1.1,24.3,2.7,48.5,3.2,72.8
			c0.2,11.4-1.7,22.8-2.9,34.2c-0.1,1.1-1.9,2.9-3,3c-12.2,1.2-24.4,2.8-36.4-2.1c-6.7-2.8-13.8-4.5-21.4-6.9
			c7.2-4.3,15.9-5.7,18.2-15.4c-6.2,4.1-11.7,7.5-16.9,11.3c-3.4,2.4-6.6,2.1-9.3-0.6c-10.1-10.2-22.6-16.9-34.9-23.9
			c-2.3-1.3-4.2-3.3-6.2-4.9c0.1-0.5,0.3-1,0.4-1.5c7.5,1.7,14.9,3.4,22.4,5.1c0.1-0.6,0.3-1.2,0.4-1.8c-7-1.4-14-2.8-21-4.3
			c-1.8-0.4-3.5-1.2-5.2-1.8c0.8-1.9,1-4.9,2.4-5.6c5.5-2.9,9.9-8.6,17.3-7.3c1.5,0.3,3.7-0.2,4.7-1.2c5.6-5.6,11.4-10.7,14.3-18.8
			c5.5-15.5,6.4-31.5,7.8-47.6c0.6-6.7,2.8-13.2,3.6-19.9c0.6-5,0.1-10.2,0.1-15.2c-0.4,0-0.8-0.1-1.2-0.1c-0.7,7.9-1.3,15.9-2,23.8
			c-0.4,0-0.9,0-1.3,0c-0.4-13.8-4.4-26.7-10-39.1c-2.7-6-6.5-8.1-12.2-4.8c-7.6,4.3-14.8,9.4-22.8,14.5c1.6-1.6,2.9-2.9,4.2-4.1
			c1.5-1.3,2.9-2.8,4.7-3.7c10.7-5.8,21.4-11.5,32.1-17.2c5-2.6,9.9-5.5,15.1-7.5c4.7-1.8,9.9-2.7,14.5-3.8
			c-1.7-0.4-4.1-1.1-6.5-1.7c-0.1-0.5-0.2-0.9-0.3-1.4c6.8-2.4,13.7-4.8,20.5-7.2c0.7,1.4,1.1,1.9,1.1,2.3
			c-1.6,7.9,2.5,14.5,5.1,21.5c5.4,14.8,11.3,29.5,15.6,44.7c2.3,8.2,1.7,17.1,2.4,25.7c0.1,1.5,0.4,3.1,1,4.6
			c7.7-24.6-4.5-45.9-11.6-68c0.4-0.2,0.8-0.4,1.1-0.6c1.1,1.3,2.3,2.4,3.1,3.8c2.2,3.7,4.3,7.5,6.1,11.4c2.4,5.1,5.4,9.2,11.7,9.4
			c0.3,2.5,0.6,4.8,1,7.7c3.8-4.1,2.7-8.9-1-10.8c-2.5-1.3-4.7-3.7-6.3-6.1c-4.7-6.8-9-13.8-13.4-20.9c-2.8-4.5-5.2-9.3-8-13.8
			c-0.5-0.8-1.7-1.2-3.4-2.4c-0.6-5.2-0.4-11.2,5.3-16.2C393.6,210.5,392.7,205.1,392,200C392,200,392,200,392,200z M395.8,399.1
			c1.7,0,4.6,0.4,4.9-0.2c1.2-2.7,2.4-5.9,2.1-8.7c-0.8-7.6-1.5-15,0.1-22.7c1.4-6.6,1.5-13.5,2.1-20.3c0-0.4-0.2-0.9-0.4-1.4
			c-0.6,0.7-1.2,1.4-1.8,2.1c-1-3.9-1.9-7.3-2.8-10.8c-0.6,0.1-1.1,0.2-1.7,0.4c-1.1,5.4-0.2,10.9,2.4,15.4
			c2.7,4.6,0.4,8.1-0.3,12.1c-0.3-3.2-0.5-6.4-0.8-9.6c-0.5,0-0.9,0-1.4,0.1c-0.1,1.4-0.5,2.9-0.4,4.3c0.5,9.8,1.1,19.5,1.6,29.3
			c0.2,3.4,1.5,7.1-2.7,9.3c-1.1-0.6-2.6-2.1-3.3-1.8c-8.2,3.8-16.7,2-25.1,1.4c-6.8-0.5-7.7-1.9-7-8.9c0.5-4.7,0.6-9.6-0.2-14.3
			c-2-11.9-4.6-23.7-7.1-35.5c-0.6-2.7-1.6-5.2-2.4-7.9c-1.5,0.8-2,1.2-1.9,1.6c2.1,12.6,3.4,25.4,6.6,37.7
			c1.8,6.9,2.1,13.3,0.9,20.1c-1.3,6.9,1.8,10.4,8.8,10.5c5.1,0.1,10.3,0.4,15.4,0C386.4,400.9,391.1,399.9,395.8,399.1z
			 M401.7,327.7c-3.1,2.6-5.8,5.3-9,7.4c-4.7,3.1-7.1,1.8-7.4-3.7c-0.1-1.5-0.2-3,0-4.5c1-8.6-0.8-16.7-3.7-24.9
			c-1.8-5.2-1.5-11.1-2.2-16.7c-0.5-4.1-0.5-8.2-1.4-12.2c-1.1-5-5.1-5.2-9.1-4.4c-4.6,0.9-9.9,0.8-11.6,6.8c-0.1,0.5-0.1,1,0,1.5
			c1.7,4.6,3.3,9.4,5.3,13.9c2.2,5,5.3,9.6,7.3,14.6c3.5,8.6,2.2,9.9-6.9,8.9c-4-0.4-8.2-0.1-12.2-0.1c0,0.5,0,1,0,1.5
			c1.5,0.1,3.1,0.3,4.6,0.4c4.1,0.3,8.3,0.7,12.4,0.9c2.7,0.1,3.9,1.2,3.7,4c-0.3,8.3-0.6,16.6-0.7,24.9c0,3.5,0.1,7,0.7,10.4
			c1,6.1,6.7,8.1,11,3.7c1.9-1.9,3-5.1,3.4-7.9c0.6-3.9,0.1-7.9,0.1-11.7C397.4,338.2,402.9,333.5,401.7,327.7z M371,337.4
			c-12.6-2.3-17.5-12.9-23.9-21.9C347.9,326.5,362,342.4,371,337.4z M403.2,247.9c0.2-0.2,0.3-0.4,0.5-0.7
			c-3.4-7.7-6.6-15.4-10.2-23.1c-0.6-1.3-2.3-2.1-4.1-3.8c1.6,7.2,2.9,13.3,4.4,20.4c1.1-1.9,1.5-2.6,1.8-3.1
			C398.2,241.2,400.7,244.5,403.2,247.9z M436.9,209.8c-0.2,0.4-0.3,0.7-0.5,1.1c0.9,1,1.6,2,2.6,2.8c1.6,1.2,3.8,3.5,4.9,3.1
			c2-0.8,4.7-3.1,4.8-5c0.4-4.8-0.4-9.8-0.6-14.7c-0.8,0.1-1.5,0.1-2.3,0.2c0.2,3.1,0.6,6.3,0.5,9.4c-0.1,1.8-0.7,3.9-1.9,5.3
			c-0.4,0.5-3-0.8-4.6-1.3C438.8,210.5,437.8,210.2,436.9,209.8z M447.3,227.6c0.1-0.8,0.1-1.6,0.2-2.5c-8.4,0.6-16.3-3.8-24.8-2.8
			c-0.1,0.8-0.2,1.6-0.3,2.4C430.7,225.6,439,226.6,447.3,227.6z M367.8,365.3c2.5-8.3,0.5-19.8-3.7-24.2
			C365.4,349.4,366.6,357.4,367.8,365.3z M424.6,436.6c4.9-3.8,5.7-12.2,1.7-17.8C425.7,425,425.1,430.6,424.6,436.6z M431.4,227.6
			c-0.2,0.6-0.3,1.2-0.5,1.7c4.1,3.7,8.7,4.5,12.7,1.1C439.1,229.4,435.2,228.5,431.4,227.6z M423.5,415.6c0.3,0,0.7,0,1,0
			c0-5.9,0-11.9,0-17.8c-0.3,0-0.7,0-1,0C423.5,403.7,423.5,409.7,423.5,415.6z M427.9,353.9c-0.8,0.1-1.6,0.2-2.4,0.4
			c0.5,3.5,0.3,7.2,1.7,10.3c0.7,1.6,4.1,2,6.3,3c0.5-0.6,1-1.1,1.6-1.7C427.4,364.7,428.4,358.9,427.9,353.9z"/>
		<path class="st0" d="M382,488c2.6,0.2,2.8,1.6,2.1,3.8c-1.8,5.7-3.5,11.4-11.4,11.6c0.3,0.7,0.7,1.3,1,2c2.4-0.7,5.7-0.7,7-2.3
			c2.3-2.8,3.3-6.6,5.1-9.9c0.8-1.4,2.2-3.5,3.4-3.6c2.5-0.2,5,0.8,4.8,4.3c-0.2,4.5-0.4,9-0.7,13.4c-0.1,1.3-0.2,2.5-0.3,3.8
			c0.5,0,0.9,0.1,1.4,0.1c0.2-4.9,0.4-9.8,0.5-14.7c0.1-2.7-0.2-5.4,3.9-5.4c3.8,0,3.6,2.4,3.9,5c1,8.1-0.4,16-3.4,23.4
			c-0.6,1.6-4,3.3-5.7,3c-17.2-3.7-34.3-7.7-51.4-11.7c-5-1.2-10.1-2.2-15-3.8c-12.5-4.1-24.8-8.5-37.2-12.8
			c-5.9-2-9.3-5.9-9.8-12.4c-1.1-12.8-2.4-25.6-3.8-39.9c9.6,3.9,17.9,6.1,25,10.4c13.1,7.9,27.9,10.6,42.1,15.1
			c7.4,2.3,14.6,5.6,21.7,8.8c2.7,1.2,4.7,3.4,3.8,7.2c-0.6,2.7-1.5,6.6,2.5,7.6C375.2,491.8,379.6,492.7,382,488L382,488z
			 M354.4,506.2c4.6,0.6,9.1,1.2,13.7,1.8c1.4,0,2.7,0,4.1,0c0.2-0.7,0.3-1.4,0.5-2.1c-4-1.4-8-3.3-12.1-4
			c-9.7-1.5-19.4-2.6-25.7-11.6c-0.1-0.1-0.6,0.1-0.9,0.1C333.6,496.1,343.7,503.8,354.4,506.2z M324.5,505c0.2-0.6,0.5-1.1,0.7-1.7
			c-9.4-5.7-19.5-10.1-30.1-13.2c-0.3,0.7-0.6,1.4-0.9,2C304.4,496.5,314.4,500.7,324.5,505z M286.3,456c-0.6,0.1-1.3,0.1-1.9,0.2
			c0.6,8.4,1.2,16.8,1.8,25.2c0.6,0,1.2-0.1,1.8-0.1C287.5,472.9,286.9,464.5,286.3,456z"/>
		<path class="st0" d="M475,158c-1.3-1.3-2.6-2.5-4-3.8c-1.3-1.1-2.6-2.2-3.3-2.8c-2,1.2-3.8,2.9-4.9,2.6c-2.4-0.6-4.5-2.4-7.9-4.4
			c-4,3.7-10,1.8-16.2,0.4c-0.1-1.7-0.2-3.3-0.3-5.8c-3.3,2.3-3.8,8.1-9.3,5.6c-3.6-1.6-7.7-2-8.9-6.7c-5.8,3.4-7.3,2.4-8.2-5.1
			c-2.2,1-4.5,2.7-6.7,2.6c-2.1-0.1-4.1-2.2-7.1-3.9c1-2.3,2.2-5.2,3.4-8.2c2.5-6.3,5.3-12.5,7.4-18.9c1-3.1,2.8-4,5.5-3.6
			c12.2,1.7,24.3,3.6,36.5,5.4c6.6,1,13.1,1.9,19.7,2.8c1.1,0.2,2.3,0.3,3.4,0.6c8.5,2,10,3.5,9.5,12.1c-0.6,9.1-1.9,18.1-3,27.8
			C474.7,151.4,476.8,157,475,158L475,158z"/>
		<path class="st0" d="M510.2,174.4c-6.7,9.7-15.7,14.4-27.3,13.6c-9.9-0.7-20.1-0.4-29.7-2.6c-10.9-2.5-21.4-7.3-32-11.1
			c-1.1-0.4-2-1.2-2.9-1.9c-7.2-5.1-14.3-10.2-21.5-15.4c-2.2-1.6-4.4-3.3-6.2-6.1c3.8,0.4,7.7,0.2,11.3,1.2
			c5.4,1.5,10.4,4.2,15.7,5.9c6.5,2,13.2,3.7,19.9,5.2c5.5,1.3,11.5,1.2,14.5,6.1c2.9,0,5.2-0.2,7.4,0.1c2.8,0.4,5.5,1.6,8.2,1.7
			c7.5,0.4,8.9,1.6,9.8,8.8c0.8-2.1,1.5-4.2,2.7-7.3C489.6,179.2,499.8,178.7,510.2,174.4z M419.2,166.2c-0.3,0.5-0.5,0.9-0.8,1.4
			c3.9,2.1,7.8,4.2,11.8,6.3c0.2-0.5,0.5-0.9,0.7-1.4C427.1,170.5,423.1,168.4,419.2,166.2z"/>
		<path class="st0" d="M460.1,332c-1.5-7.9-3.1-15.9-9.4-22.9c3,11.1,5.7,21.1,8.4,31.2c-0.5,0.4-1,0.7-1.6,1.1
			c-0.8-1.7-1.7-3.5-2.5-5.2c-0.7,0.2-1.4,0.5-2.1,0.7c-2.1,9.4-4.2,18.7-6.2,28c0-1.3,0-2.8,0-4.3c0.1-10,2-20.4-0.2-29.9
			c-2.9-12.2-1-24.1-1.5-36.1c0,6.1,0,12.2,0,18.2c2.3-10.2,3.3-20.7-0.5-30.4c-1.8-4.6-6.8-8.4-11-11.6c-3.3-2.5-4.6-4.3-2-8
			c1.3-1.8,1.8-4.1,3.3-7.6c2.9,3.9,5.4,7.1,7.7,10.6c2.3,3.5,4.3,7.1,6.4,10.7c0.8,1.3,1.7,2.5,2.1,3.9
			c3.7,15.7,7.2,31.4,10.7,47.1c0.3,1.3,0,2.8,0,4.2C461,331.8,460.6,331.9,460.1,332z"/>
		<path class="st0" d="M463.9,437.4c1,14,1.9,27.3,2.8,41.1c-1.3-0.4-1.6-0.4-1.6-0.5c-0.7-7.6-5.3-13-9.8-18.8
			c-2.4-3.1-3.2-7.6-4.3-11.6c-0.3-1,0.5-3,1.5-3.6C456,441.8,459.8,439.7,463.9,437.4z"/>
		<path class="st0" d="M383,162c-4.4-3.5-9.1-6.7-13.1-10.6c-2.3-2.2-3.6-5.5-5-8.5c-0.4-0.8,0-2.9,0.5-3.1c1.1-0.4,2.5-0.1,3.7,0.3
			c0.7,0.2,1.3,0.9,2,1.5c5.7,4.8,11.3,9.5,16.4,13.7C385.7,157.8,384.4,159.9,383,162L383,162z"/>
		<path class="st0" d="M383,162c7.1-3.2,17.1-0.8,21.4,5.2c0.5,0.7,0.7,2.3,0.4,2.6c-2.2,1.7-4.5,3.7-7.1,4.3
			c-1.2,0.3-3.9-2.3-4.4-4c-1.3-4.3-4.6-5.2-8.1-6.3C384.4,163.6,383.7,162.6,383,162C383,162,383,162,383,162z"/>
		<path class="st0" d="M495.2,418c6.3-2.6,12.4-5.1,18.8-7.7c2.2,2.4,2.6,6.5-0.1,8.7C508,423.8,498.4,424.3,495.2,418z"/>
		<path class="st0" d="M428.8,451.4c20.1-11.1,40.4-22.4,60.8-33.7c0.2,0.3,0.4,0.5,0.5,0.8c-3.1,1.9-6.2,3.8-9.3,5.7
			c-13.1,7.9-26.3,15.6-39.2,23.8C437.3,450.7,432.8,451,428.8,451.4z"/>
		<path class="st0" d="M456.9,157.3c9.2-0.2,11,1.9,8.3,9.4C456.1,166.7,454.4,164.8,456.9,157.3z"/>
		<path class="st0" d="M475,158c0.4,3,1.1,6.1,1.1,9.1c0,0.5-3,1.3-4.6,1.3c-0.5,0-1.2-2.1-1.4-3.3C469.4,161.1,472.8,159.9,475,158
			C475,158,475,158,475,158z"/>
		<path class="st0" d="M446,162.1c-2.5-1.4-5-2.8-7.6-4.2c0.7-1,1.4-2.7,2.2-2.8c2.3-0.2,4.9-0.2,7,0.6c0.7,0.3,0.1,3.5,0.1,5.4
			C447.2,161.5,446.6,161.8,446,162.1z"/>
		<path class="st0" d="M432.7,157.9c-7.8-0.9-8.7-1.6-7.6-6.7C427.7,153.3,433.3,151.3,432.7,157.9z"/>
		<path class="st0" d="M505.7,437.1c-9.2,6-13.6,5.2-14-1.6c2.1,0.9,4.1,2.2,6.2,2.5C500,438.3,502.2,437.6,505.7,437.1z"/>
		<path class="st0" d="M405.9,151.2c-2.3-1.8-4-3.1-5.6-4.4c1.1-1.1,2.3-3.1,3.4-3C407.3,144.2,407.1,146.9,405.9,151.2z"/>
		<path class="st0" d="M327.2,362c-3.7,4.3-7.4,8.7-11.1,13c-0.4-0.3-0.8-0.6-1.1-0.9c3.5-4.4,7.1-8.9,10.6-13.3
			C326.1,361.1,326.7,361.5,327.2,362z"/>
		<path class="st0" d="M382,488c-2.1,0.2-4.2,0.6-6.4,0.6c-4,0-4.9-1.9-3-6.2C376,484.4,379,486.2,382,488C382,488,382,488,382,488z
			"/>
		<path class="st0" d="M292.9,272.4c-2.7,4.7-5.3,9.3-8,13.9C282.7,278.8,289.4,276.6,292.9,272.4z"/>
		<path class="st0" d="M412,146.8c2.4,1.8,4.7,3.7,7.1,5.5c-0.4,0.6-0.9,1.1-1.3,1.7c-2.5-1.7-5-3.3-7.6-5
			C410.8,148.3,411.4,147.6,412,146.8z"/>
		<path d="M401.7,327.7c1.2,5.8-4.4,10.5-15.5,12.8c0,3.8,0.4,7.9-0.1,11.7c-0.4,2.8-1.5,6-3.4,7.9c-4.3,4.4-10,2.4-11-3.7
			c-0.6-3.4-0.7-6.9-0.7-10.4c0.1-8.3,0.4-16.6,0.7-24.9c0.1-2.8-1-3.9-3.7-4c-4.1-0.2-8.3-0.6-12.4-0.9c-1.5-0.1-3.1-0.3-4.6-0.4
			c0-0.5,0-1,0-1.5c4.1,0,8.2-0.4,12.2,0.1c9.1,1,10.3-0.3,6.9-8.9c-2-5-5.1-9.7-7.3-14.6c-2-4.5-3.6-9.2-5.3-13.9
			c-0.2-0.4-0.2-1,0-1.5c1.7-6,7-5.9,11.6-6.8c4-0.8,8.1-0.5,9.1,4.4c0.9,4,0.9,8.2,1.4,12.2c0.6,5.6,0.4,11.5,2.2,16.7
			c2.8,8.2,4.7,16.2,3.7,24.9c-0.2,1.5-0.1,3,0,4.5c0.3,5.5,2.7,6.8,7.4,3.7C395.9,333,398.6,330.3,401.7,327.7z M375.2,332.6
			c0,0,0.1,0,0.1,0c0,7.1-0.1,14.3,0.1,21.4c0.1,1.4,1.7,2.7,2.6,4.1c1.3-1.2,3.2-2.1,3.6-3.6c0.7-2.3,0.4-4.9,0.4-7.4
			c-0.1-8.3,0.1-16.6-0.4-24.9c-0.3-4.9-1.6-9.8-2.3-14.6c-1.2-7.6-2.4-15.3-3.4-23c-0.4-3.1-0.5-6.3-1-9.4c-0.2-1-1.3-2.6-1.9-2.6
			c-3.4,0.3-7,0.5-10,1.9c-0.9,0.4-0.8,4.3-0.3,6.5c0.6,2.5,1.9,4.9,3.1,7.3c5.9,10.9,11,21.9,9.4,34.9
			C374.9,326.2,375.2,329.4,375.2,332.6z"/>
		<path d="M395.8,399.1c-4.7,0.7-9.4,1.8-14.2,2.1c-5.1,0.3-10.2,0.1-15.4,0c-7-0.1-10.1-3.6-8.8-10.5c1.2-6.8,0.9-13.1-0.9-20.1
			c-3.2-12.3-4.5-25.1-6.6-37.7c-0.1-0.4,0.4-0.8,1.9-1.6c0.8,2.6,1.8,5.2,2.4,7.9c2.5,11.8,5.1,23.6,7.1,35.5
			c0.8,4.6,0.7,9.6,0.2,14.3c-0.7,7,0.1,8.3,7,8.9c8.4,0.7,16.9,2.4,25.1-1.4c0.7-0.3,2.2,1.1,3.3,1.8
			C396.5,398.5,396.2,398.8,395.8,399.1z"/>
		<path d="M395.8,399.1c0.3-0.3,0.7-0.6,1-0.9c4.2-2.1,2.8-5.9,2.7-9.3c-0.5-9.8-1.1-19.5-1.6-29.3c-0.1-1.4,0.3-2.9,0.4-4.3
			c0.5,0,0.9,0,1.4-0.1c0.3,3.2,0.5,6.4,0.8,9.6c0.7-4,2.9-7.5,0.3-12.1c-2.6-4.5-3.6-10-2.4-15.4c0.6-0.1,1.1-0.2,1.7-0.4
			c0.9,3.5,1.8,7,2.8,10.8c0.7-0.8,1.2-1.4,1.8-2.1c0.2,0.5,0.4,1,0.4,1.4c-0.6,6.8-0.6,13.7-2.1,20.3c-1.7,7.7-0.9,15.1-0.1,22.7
			c0.3,2.8-0.9,6-2.1,8.7C400.4,399.6,397.5,399.1,395.8,399.1z"/>
		<path d="M371,337.4c-9,4.9-23.1-10.9-23.9-21.9C353.6,324.5,358.4,335.1,371,337.4z"/>
		<path d="M403.2,247.9c-2.5-3.4-5-6.7-7.5-10.2c-0.3,0.5-0.7,1.1-1.8,3.1c-1.5-7.1-2.9-13.2-4.4-20.4c1.8,1.7,3.5,2.5,4.1,3.8
			c3.5,7.6,6.8,15.4,10.2,23.1C403.5,247.5,403.4,247.7,403.2,247.9z"/>
		<path d="M436.9,209.8c1,0.3,2,0.7,2.9,1c1.6,0.5,4.1,1.8,4.6,1.3c1.1-1.3,1.8-3.4,1.9-5.3c0.1-3.1-0.3-6.3-0.5-9.4
			c0.8-0.1,1.5-0.1,2.3-0.2c0.3,4.9,1.1,9.9,0.6,14.7c-0.2,1.9-2.8,4.2-4.8,5c-1,0.4-3.3-1.9-4.9-3.1c-1-0.8-1.7-1.9-2.6-2.8
			C436.5,210.5,436.7,210.2,436.9,209.8z"/>
		<path d="M447.3,227.6c-8.3-1-16.6-2-24.9-3c0.1-0.8,0.2-1.6,0.3-2.4c8.5-1,16.3,3.4,24.8,2.8C447.4,225.9,447.4,226.7,447.3,227.6
			z"/>
		<path d="M367.8,365.3c-1.2-8-2.5-15.9-3.7-24.2C368.3,345.5,370.3,357,367.8,365.3z"/>
		<path d="M424.6,436.6c0.6-6,1.1-11.7,1.7-17.8C430.2,424.4,429.4,432.8,424.6,436.6z"/>
		<path d="M431.4,227.6c3.8,0.9,7.6,1.8,12.2,2.8c-4,3.4-8.5,2.6-12.7-1.1C431.1,228.8,431.3,228.2,431.4,227.6z"/>
		<path d="M423.5,415.6c0-5.9,0-11.9,0-17.8c0.3,0,0.7,0,1,0c0,5.9,0,11.9,0,17.8C424.2,415.6,423.9,415.6,423.5,415.6z"/>
		<path d="M427.9,353.9c0.5,5-0.5,10.8,7.2,12c-0.5,0.6-1,1.1-1.6,1.7c-2.2-1-5.6-1.4-6.3-3c-1.4-3.1-1.2-6.8-1.7-10.3
			C426.4,354.2,427.2,354,427.9,353.9z"/>
		<path d="M354.4,506.2c-10.7-2.3-20.7-10.1-20.4-15.8c0.3-0.1,0.8-0.2,0.9-0.1c6.2,9.1,15.9,10.1,25.7,11.6c4.1,0.6,8.1,2.6,12.1,4
			c-0.2,0.7-0.3,1.4-0.5,2.1c-1.4,0-2.7,0-4.1,0c-5.3-1.6-10.7-3.2-16-4.9c-0.1,0.3-0.2,0.6-0.3,0.9
			C352.6,504.7,353.5,505.4,354.4,506.2z"/>
		<path d="M324.5,505c-10.1-4.3-20.2-8.6-30.2-12.8c0.3-0.7,0.6-1.4,0.9-2c10.6,3.1,20.7,7.5,30.1,13.2
			C325,503.9,324.8,504.5,324.5,505z"/>
		<path d="M286.3,456c0.6,8.4,1.2,16.8,1.7,25.2c-0.6,0-1.2,0.1-1.8,0.1c-0.6-8.4-1.2-16.8-1.8-25.2
			C285,456.2,285.7,456.1,286.3,456z"/>
		<path class="st0" d="M354.4,506.2c-0.9-0.7-1.7-1.5-2.6-2.2c0.1-0.3,0.2-0.6,0.3-0.9c5.3,1.6,10.7,3.2,16,4.9
			C363.5,507.4,358.9,506.8,354.4,506.2z"/>
		<path d="M419.2,166.2c3.9,2.1,7.8,4.3,11.7,6.4c-0.2,0.5-0.5,0.9-0.7,1.4c-3.9-2.1-7.8-4.2-11.8-6.3
			C418.7,167.2,419,166.7,419.2,166.2z"/>
		<path class="st0" d="M375.2,332.6c0-3.2-0.3-6.4,0.1-9.5c1.6-12.9-3.6-24-9.4-34.9c-1.2-2.3-2.6-4.7-3.1-7.3
			c-0.5-2.1-0.6-6.1,0.3-6.5c3-1.3,6.6-1.6,10-1.9c0.6-0.1,1.7,1.6,1.9,2.6c0.5,3.1,0.6,6.2,1,9.4c1.1,7.7,2.3,15.3,3.4,23
			c0.8,4.9,2.1,9.7,2.3,14.6c0.5,8.3,0.3,16.6,0.4,24.9c0,2.5,0.3,5.1-0.4,7.4c-0.4,1.4-2.4,2.4-3.6,3.6c-0.9-1.4-2.5-2.7-2.6-4.1
			c-0.3-7.1-0.1-14.3-0.1-21.4C375.3,332.6,375.2,332.6,375.2,332.6z"/>
	</g>
</g>
</svg>
