<svg class="cycle-js" id="Layer_1" data-name="Layer 1" xmlns="http://www.w3.org/2000/svg" viewBox="0 0 612 797"><defs><style>.cls-1{fill:#fff;}</style></defs><title>14</title><path class="cls-1" fill="#FFFFFF" d="M.37,791.82V621.25l2.56-1.81c4.89-3.53,9.74-7.13,14.69-10.58,5.29-3.7,10.57-7.45,16.06-10.84,6.48-4,13.16-7.72,19.82-11.44,4.62-2.59,9.33-5,14-7.46,5.72-3,11.41-6.07,17.2-8.93,6.18-3.06,12.45-5.94,18.69-8.85,5.25-2.45,10.47-4.94,15.79-7.23,5.53-2.38,11.13-4.61,16.76-6.77,7.24-2.77,14.5-5.5,21.82-8.05q10.72-3.72,21.61-7c5.81-1.74,4.42-1.87,9,1.56a7.1,7.1,0,0,1,.94.88c3,3.24,6.19,6.35,9,9.76a130.07,130.07,0,0,1,8.23,11.14c3,4.51,5.75,9.18,8.49,13.85,1.8,3.08,3.37,6.3,5.1,9.42,1.9,3.43,3.16,7.21,5.6,10.37a13.67,13.67,0,0,1,1.46,3c1.1,2.48,2.14,5,3.26,7.44a26.1,26.1,0,0,0,2,3.56,1.87,1.87,0,0,0,1.45.82c.43-.1.75-.84,1.05-1.33.11-.19,0-.49,0-.73.32-1.37.61-2.74,1-4.09a36.14,36.14,0,0,0,1.28-4,102.57,102.57,0,0,1,3.08-13.3c1.37-4.66,2.47-9.4,3.75-14.08,1.82-6.65,3.72-13.28,5.53-19.93,1.59-5.82,3.1-11.66,4.66-17.48,1.95-7.26,3.92-14.51,5.85-21.77a3.89,3.89,0,0,1,2.52-2.94c1.91-.68,3.79-1.45,5.69-2.19q11.34-4.41,22.69-8.84c7.57-2.95,15.15-5.87,22.7-8.88q10.69-4.29,21.34-8.74c6.24-2.6,12.44-5.31,18.67-7.95,1.47-.62,2.85-.87,4.27.44,1.76,1.62,3.73,3,5.62,4.5,8.77,6.87,17.6,13.68,26.3,20.64,6.48,5.19,12.78,10.61,19.22,15.84a6.11,6.11,0,0,1,2.45,5.27q-.1,6.1.1,12.2c.25,6.84.61,13.67,1,20.5.09,1.73.34,3.44.53,5.15s.39,3.43.57,5.14c.43,4,.78,8.1,1.29,12.13.44,3.42,1,6.83,1.62,10.22,1.25,7.23,2.4,14.47,3.87,21.65,1.39,6.82,3.06,13.58,4.75,20.33.84,3.34,1.91,6.63,3.06,9.88a6.23,6.23,0,0,0,2.33,3.44,26.85,26.85,0,0,0,11.26,3.82,224,224,0,0,0,29.52,1.68c16.1,0,32.17-.18,48.05-3.41A86.19,86.19,0,0,0,535,632.49a6,6,0,0,0,1.57-1c1.32-1.1,1.25-2.13-.19-3.11a4.32,4.32,0,0,0-1.33-.6c-1.85-.46-3.72-.87-5.57-1.32a77.16,77.16,0,0,1-9.13-2.3c-5.36-2-10.62-4.3-15.82-6.67q-6.9-3.13-13.58-6.73c-5.63-3-11.17-6.24-16.72-9.42-6.79-3.89-13.53-7.89-19.27-13.28a117,117,0,0,1-9.15-9.35,64,64,0,0,1-10-17,123.94,123.94,0,0,1-7.06-23.89c-.73-3.68-1.39-7.38-2.1-11.06-.37-1.94-1.1-3.87-1.07-5.8.06-5.3-1.06-10.58-.19-15.88a2.77,2.77,0,0,0-1.18-2.73c-2.32-1.92-4.54-3.94-6.85-5.88-2.87-2.41-5.76-4.81-8.7-7.14-6-4.74-12-9.43-18-14.14-5.77-4.53-11.55-9-17.31-13.57-1.55-1.22-1.49-1.67.35-2.49,5.22-2.31,10.45-4.63,15.7-6.89,6.95-3,13.92-5.92,20.88-8.9s13.79-5.94,20.69-8.9q10-4.28,20-8.5c6.06-2.57,12.08-5.24,18.2-7.65,5.9-2.32,11.88-4.41,17.87-6.48,5.12-1.78,10.25-3.55,15.45-5,6.63-1.89,13.33-3.54,20-5.23a191.87,191.87,0,0,1,29.18-4.65c10.52-1,21.07-.86,31.61-.7,6,.08,12,.44,17.92.75,3.69.19,7.37.52,11.06.78V715.23c-.62,0-1.24,0-1.85-.1-7.1-.82-14.18-1.77-21.3-2.45-12.88-1.24-25.77-2.45-38.67-3.42-14.38-1.08-28.78-2.16-43.18-2.71-15.46-.58-30.94-.62-46.42-.76-9.43-.09-18.86,0-28.29.17-11.78.16-23.55.29-35.32.66-11,.35-22,.91-33.06,1.55-12.5.73-25,1.54-37.46,2.51-9.27.73-18.53,1.7-27.78,2.7-13.79,1.5-27.57,3-41.34,4.7-8.87,1.07-17.71,2.39-26.55,3.65q-10.89,1.54-21.77,3.19-6.85,1-13.7,2.16c-9.66,1.62-19.32,3.23-29,4.95-5.15.92-10.26,2.08-15.38,3.15-4.7,1-9.41,1.94-14.1,3s-9.09,2.2-13.63,3.34c-3.52.88-7.07,1.71-10.54,2.76Q102.37,747.5,91.75,751c-4.45,1.44-8.86,3-13.23,4.66s-8.93,3.52-13.35,5.39c-6.8,2.87-13.6,5.75-20.32,8.79-5.49,2.49-10.89,5.19-16.3,7.85-5.19,2.56-10.34,5.19-15.51,7.79ZM68.54,675.61l-.45.24c-.21,3.52,3,5.87,3.33,9.25a4.26,4.26,0,0,1-1.24-1,18.72,18.72,0,0,0-10.91-6.34c-.75-.13-1.94-.86-2.13.45-.17,1.11,1.13.85,1.83,1a17.16,17.16,0,0,1,10.81,7.15c1,1.44,1,1.47,2.52.49l1.63,1a9.14,9.14,0,0,0-.29-2.37c-1.31-2.9-2.69-5.77-4.09-8.62A6.82,6.82,0,0,0,68.54,675.61ZM532,564.55a6.23,6.23,0,0,1-1.34.45c-1.48.08-2.17.93-2.8,2.23-1.32,2.71-1,5.51-.8,8.31,0,.28.36.55.55.82l.4,0a10.19,10.19,0,0,0,.32-1.61c.06-1.23,0-2.46.06-3.68a5.56,5.56,0,0,1,.55-1.5l.52,0a14.12,14.12,0,0,1,.46,1.66c.16.91.23,1.83.35,2.74a2.31,2.31,0,0,0,1.9,2.14C531.13,572.2,530.65,568.49,532,564.55Zm35.25,110.83a1.78,1.78,0,0,0-2.38.49c-1.67,1.63-3.39,3.22-4.91,5a25.79,25.79,0,0,0-4.89,8c-.37,1-.75,2.06.38,3.22.25-.6.43-1,.61-1.43.5-1.19.91-2.41,1.51-3.55a35.25,35.25,0,0,1,8.29-10A14.16,14.16,0,0,0,567.26,675.38ZM237.93,699.61a13,13,0,0,1-1.6-.64c-.84-.5-1.61-1.13-2.47-1.59-.29-.16-.76,0-1.15,0,.06.34,0,.82.18,1,.79.67,1.73,1.18,2.49,1.88,1,1,1.92,2,2.84,3.05a5.22,5.22,0,0,1,.58,1.07c.37-.07.61-.11.84-.17,1.87-.49,2-.79,1.15-2.54-.61-1.33-1-2.75-1.58-4.12-.33-.8-.74-1.58-1.12-2.37l-.58.16Zm300.82-18.27c-.49,1.71-.5,1.72.21,2.56s1.7,2,2.56,2.92c2.62,3,5.14,6,6.23,9.9.07.23.38.39.65.64a2.86,2.86,0,0,0-.12-3.55c-1.75-2.73-3.62-5.39-5.57-8C541.58,684.32,540.23,683,538.75,681.34Zm12.41,13.53c1-1.09,1-1.11.81-2.09-.32-1.3-.77-2.57-1.18-3.86a50.08,50.08,0,0,1-1.7-10.33,5.78,5.78,0,0,0-.68-1.62l-.6.19C547,683.36,549.28,689,551.16,694.87ZM541.1,489l-.46.25a13.28,13.28,0,0,0,.36,1.71c1.23,3.42,2.46,6.83,3.75,10.22a8.94,8.94,0,0,0,1.11,1.69c.46-.53.72-1,.6-1.3q-2.13-6-4.4-11.89C541.94,489.35,541.43,489.2,541.1,489Zm-5.1,84.5a66,66,0,0,1,1.1-8.23,66.15,66.15,0,0,1,3-7.69C536.86,558.8,533.73,569.62,536,573.48Zm13.32-72.28c.2-.21.33-.29.35-.39a3,3,0,0,0,.13-.72c.08-3.44-.16-6.91,1.07-10.24.16-.43-.12-1-.24-1.82C548.34,490.76,547.68,498.47,549.32,501.2Zm-51.25-62.1-.32.29,4.18,8.7c1.3-1,.74-2.09.34-2.9a46.28,46.28,0,0,0-2.9-4.87A7.59,7.59,0,0,0,498.07,439.1Zm41.22,55.3-.4.27a1.71,1.71,0,0,0-.09.69c.58,2,1.18,4,1.82,5.95a1.23,1.23,0,0,0,.57.68c.29.14.76.26,1,.11a1,1,0,0,0,.16-1c-.63-1.9-1.29-3.8-2-5.66C540.12,495.06,539.63,494.76,539.29,494.4ZM243.15,703.45c.42-1.83.88-3.28,1.06-4.76s1.52-2.68,1.26-4.54C242.64,696.87,241.65,700.63,243.15,703.45ZM78,674.66c-3.1,2.59-4.18,8.69-1.9,10.7a34.1,34.1,0,0,1,.07-5.66A30.21,30.21,0,0,1,78,674.66ZM330.37,564.27c-1.39,2-1.28,4.92.19,6A14,14,0,0,0,330.37,564.27Zm-5.75,7.59c.85.29,1.19-.39,1-1.16-.37-1.4-1-2.74-1.48-4.1l-.48.15C324,568.38,324.26,570,324.62,571.86ZM509.37,443.47c1.27-.47,2.19-2.54,1.87-4C509.68,440.61,509.48,441,509.37,443.47ZM505,445a5.8,5.8,0,0,0,0-4.39C504.06,442.11,504.7,443.57,505,445Z" transform="translate(-0.37 -0.37)"/><path class="cls-1" fill="#FFFFFF" d="M.37,322.65V.37h612V145a7.43,7.43,0,0,1-1-.75c-2.23-2.2-4.43-4.44-6.66-6.64-3.06-3-6.15-6-9.19-9.07-3.6-3.61-7.15-7.28-10.73-10.92l-5.27-5.37c.7-.52,1.22-.87,1.69-1.26a54.09,54.09,0,0,0,10.36-11.21,43,43,0,0,0,7.33-17.17,78.4,78.4,0,0,0,.91-13.44A28.81,28.81,0,0,0,595,53.68a42.21,42.21,0,0,0-6-7.46A43.09,43.09,0,0,0,579.3,39,57.62,57.62,0,0,0,566.6,34a64.18,64.18,0,0,0-15.77-1.67c-5.23-.07-10.48.2-15.71.33a15.35,15.35,0,0,0-2.14.21c-.76.12-1.57.4-1.54,1.3s.95,1.15,1.73,1.37a11.65,11.65,0,0,0,4.28.36c2.08-.18,4.17-.3,6.26-.4,1.59-.07,3.18-.16,4.77-.1a37.54,37.54,0,0,1,4.22.46,79.23,79.23,0,0,1,8.73,1.53,86.82,86.82,0,0,1,9.17,3.36,43.68,43.68,0,0,1,16.17,11c5.78,6.32,8.88,13.67,8.71,22.32A49.91,49.91,0,0,1,594,85.29c-2.57,10.49-8.54,18.56-17.41,24.55a52.08,52.08,0,0,1-18.89,7.62A100,100,0,0,1,539,119.23c-2.13,0-4.41.86-6.38-1.44-.9,2.51-1.7,4.62-2.42,6.76a35.75,35.75,0,0,1-9.7,15,79.76,79.76,0,0,1-26.33,16,38,38,0,0,1-18.95,1.7,39.56,39.56,0,0,1-15.75-6.11c-5.31-3.35-10.61-6.71-15.79-10.25a12.36,12.36,0,0,0-7.26-2.22c-3.08,0-6.18,0-9.23-.32a69.12,69.12,0,0,1-7-1.54,67,67,0,0,1-16.4-5.57,25.94,25.94,0,0,1-8.83-6.89c-3.71-4.75-6.48-10-6.6-16.32-.13-6.7.08-13.35,3.33-19.41A41.29,41.29,0,0,1,397,80.55a44.36,44.36,0,0,1,15.17-11.17A53,53,0,0,1,427,65a88.12,88.12,0,0,1,21.59.14A29.8,29.8,0,0,1,463.33,71c.71.54,1.42,1.59,2.34.72s0-1.72-.42-2.5c-1.9-3.53-5.11-5.37-8.73-6.68a45.46,45.46,0,0,0-10.82-2.29c-1.59-.17-1.74-.61-.8-2,1.69-2.43,3.33-4.88,5.11-7.25,3.17-4.23,6.17-8.63,9.7-12.56A84.57,84.57,0,0,1,486.32,19a41.84,41.84,0,0,1,24.23-4.13,20.32,20.32,0,0,1,11.29,5.43c2.88,2.64,4.63,6,6.31,9.47.55,1.13,1,2.38,2.48,2.61.41-.92.78-1.73,1.12-2.57a1.06,1.06,0,0,0,0-.61c-.36-1.36-.69-2.73-1.1-4.08A20.22,20.22,0,0,0,516.92,11c-7.93-2.58-15.86-1.54-23.64.87a74.39,74.39,0,0,0-7.21,2.84,2.35,2.35,0,0,1-3-.6c-1.41-1.47-2.86-2.88-4.33-4.29S475.62,6.87,474,5.43c-.62-.56-1.78-1.07-2-.21a5.46,5.46,0,0,1-2.57,3c-.34.24-.46.86-.58,1.33-1.2,4.78-2.41,9.56-3.55,14.35-.8,3.35-2,6.33-4.76,8.71A42.6,42.6,0,0,0,454,39.88c-4.45,6-8.7,12.22-13,18.37A3.32,3.32,0,0,1,438.11,60c-.74,0-1.48,0-2.22,0a53.66,53.66,0,0,0-19.37,3.4A52.68,52.68,0,0,0,390.81,83,35.79,35.79,0,0,0,384,104.41a21.31,21.31,0,0,1-.07,2.4c-.64,8.08,2.38,14.84,7.65,20.7a33.91,33.91,0,0,0,11.8,8.1l3.52,1.58c-8.13,11.63-16.28,22.93-24.38,34.26s-16,22.76-24.62,34.28c-1.07-2-1.85-3.67-2.78-5.23-3.5-5.87-7-11.75-10.59-17.54-2.28-3.66-4.83-7.14-7.18-10.76-3.11-4.8-6.14-9.65-9.21-14.48q-6.41-10-12.83-20.08-5.19-8.08-10.45-16.12c-3.28-5-6.63-9.94-9.93-14.92s-6.64-10.08-10-15.09q-3.79-5.69-7.67-11.3c-1.58-2.28-3.18-4.55-4.89-6.73-1.23-1.57-3.06-2-5.16-2.38.23,2.62-1.11,4.46-2,6.46-.48,1.07-.95,2.14-1.41,3.22q-3.24,7.56-6.46,15.12c-2.23,5.26-4.52,10.5-6.66,15.81-1.59,3.93-3,7.94-4.43,11.93q-4.09,11.28-8.14,22.57l-6.26,17.37q-3,8.14-5.94,16.29a19.86,19.86,0,0,1-1.22,2.28c-.42-.4-.66-.54-.76-.74A77,77,0,0,0,217,170.74a2,2,0,0,1,0-2.44A27.6,27.6,0,0,0,220.43,158a50.45,50.45,0,0,0,.22-14.36,43.49,43.49,0,0,0-3.79-12.7,32.28,32.28,0,0,0-10.54-13.09,40.67,40.67,0,0,0-12.51-5.84,63.46,63.46,0,0,0-16.42-2.39,54.83,54.83,0,0,0-10.49.52,30.78,30.78,0,0,0-16.43,8.63c-.4.38-.86.69-1.34,1.08-.18-.39-.27-.5-.27-.61,0-3.9-1.35-5.36-5.25-5.52-8.73-.35-16,3.26-22.17,9-4.73,4.33-7.89,9.87-10.68,15.58a75.79,75.79,0,0,0-5.43,14.48c-1,4-1.93,7.91-1.46,12,.15,1.34-.54,1.9-1.61,2.32-1.26.49-2.55.94-3.75,1.54a21.88,21.88,0,0,0-12.1,15.48c-1.55,7.33-1.69,14.67,1.64,21.73s7.82,12.46,15.2,15.3a24.74,24.74,0,0,0,17.71,0A88.15,88.15,0,0,0,131,216.69a40.63,40.63,0,0,0,13.31-10.07,8.37,8.37,0,0,0,2.31-4.73,15.37,15.37,0,0,0-1.77,1.1c-1.26,1.09-2.44,2.26-3.71,3.32a72.55,72.55,0,0,1-16.42,9.84,27.71,27.71,0,0,1-14.54,2.67,18.25,18.25,0,0,1-7.7-2.44,28.24,28.24,0,0,1-12.08-14.92c-2.27-6.18-2-12.46-.18-18.71,1.93-6.68,6.56-10.45,13.1-12.21a25.51,25.51,0,0,1,11.53-.12c.91.17,1.92.38,2.37-.77a1.8,1.8,0,0,0-1.35-2.42,45,45,0,0,0-6.1-1.28c-1.56-.22-1.79-.31-1.84-1.86a41.75,41.75,0,0,1,2.53-14.87,122.56,122.56,0,0,1,4.86-11.75,40.89,40.89,0,0,1,7.47-11.15,25.35,25.35,0,0,1,10.56-6.54,23.17,23.17,0,0,1,9.78-1.45,4.7,4.7,0,0,1,1.73.52c1.1.6,2.13,1.31,3.37,2.08-3.27,4.75-6.83,9.56-7.12,15.81a7.66,7.66,0,0,0,1.54-1.79,53.44,53.44,0,0,1,8.15-11.81,30,30,0,0,1,5.56-4.77,27.37,27.37,0,0,1,15-4c9.12.1,18.09.94,26.48,5a29.21,29.21,0,0,1,10,7.46,37.08,37.08,0,0,1,7.85,16.54,47.87,47.87,0,0,1-.44,20.9,12.7,12.7,0,0,1-.72,2.29,1.31,1.31,0,0,1-1,.62c-.2,0-.54-.42-.67-.72a7.14,7.14,0,0,1-.31-1.25,2.11,2.11,0,0,0-1.74-1.7c-.34,1.17-.73,2.26-1,3.38-.32,1.57-.46,3.17-.77,4.75a30.38,30.38,0,0,1-1.1,4.66,31.86,31.86,0,0,1-8.69,12.45,47.31,47.31,0,0,1-19.68,10.9,67.52,67.52,0,0,1-28.38,1.8,4.81,4.81,0,0,0-1.64-.1c-.55.12-1.41.41-1.48.76a2.72,2.72,0,0,0,.58,1.79,2.2,2.2,0,0,0,1.22.77c2.37.65,4.72,1.62,7.13,1.77,4.16.26,8.36,0,12.55,0h1.59a8.11,8.11,0,0,1-.47,1.2c-1.68,2.72-3.44,5.39-5.07,8.14q-5.91,10-11.72,20.08c-3.33,5.75-6.65,11.51-9.9,17.3-2.2,3.91-4.36,7.85-6.39,11.85-3.68,7.24-7.22,14.56-10.88,21.82q-6.53,12.93-13.14,25.82c-.35.68-.8,1.31-1.43,2.33a7.92,7.92,0,0,1-.74-1.6c-.52-3-1-6.08-1.48-9.12-.32-2-.63-4-1-6-.89-4.91-1.89-9.79-2.69-14.72-1.2-7.48-2.16-15-3.42-22.47-1-5.87-1.82-11.83-4.67-17.21-.24-.46-.61-1.23-.88-1.21a2.07,2.07,0,0,0-1.46.86,13.85,13.85,0,0,0-1.39,3c-.85,2.64-1.54,5.33-2.42,7.95-2,5.84-4,11.66-6,17.48-.35,1-.88,2-1.45,3.2-.88-.86-1.59-1.44-2.18-2.13-2.48-2.9-3.38-3.55-5.89.6-2.1,3.46-4,7.08-5.83,10.68-3.37,6.49-6.53,13.1-10,19.52-5.21,9.57-10.62,19-16,28.51A20.62,20.62,0,0,1,43.43,334c-3.35-4.35-6.43-8.55-9.73-12.57s-6.88-8-10.42-12-6.54-8.15-10.76-11.72c-1.14.94-2.68,1.61-3.16,2.74-2.73,6.31-5.21,12.74-7.78,19.13C1.18,320.62.77,321.63.37,322.65ZM157.81,41.5a13.4,13.4,0,0,0-8.5,3.49A14.85,14.85,0,0,0,145,52.56a30.36,30.36,0,0,0-.42,6.41,1.44,1.44,0,0,0,1.29,1.57c1,.1,1.46-.59,1.73-1.36s.31-1.57.52-2.34c.64-2.37,1.18-4.78,2-7.06a4.3,4.3,0,0,1,4.09-3c1.11,0,2.22-.07,3.32,0,2.73.11,5.07,1.48,7.5,2.51a4,4,0,0,0,5.7-3c.21-1.09.33-2.2.58-3.28A5.11,5.11,0,0,1,175.6,39a12,12,0,0,1,8.77,1.21c1.3.8,2.55,1.71,3.88,2.45s2.63.44,3.59-1a2.4,2.4,0,0,0-.64-3.53A17,17,0,0,0,180,33.86c-6,.1-10,2.8-12.65,8.29-.76,1.62-.84,1.66-2.63,1.13C162.46,42.6,160.12,42.09,157.81,41.5Zm-86.9,6.93c-3.41.23-6.78.39-10,1.73a13.52,13.52,0,0,0-8.43,9.58,19,19,0,0,0-.23,4.41c0,1.52-.2,1.79-1.74,2-.66.11-1.34.16-2,.26a11.4,11.4,0,0,0-7,3.76c-3.05,3.37-4.19,7.6-5.24,11.86-.19.76,0,1.65.87,1.75A2,2,0,0,0,38.71,83a35.84,35.84,0,0,0,2.52-5.54c1.46-4.4,4.33-6.72,9-6.64,1,0,2,0,3,0,2.86,0,5.18-2.81,4.19-5.54a14.92,14.92,0,0,1-.53-5.82c.15-2.62,1.89-4.19,4.31-5,3.7-1.19,7.51-1.17,11.34-1a4,4,0,0,1,1.4.36c2.13,1,3.07.76,4.44-1s.8-3.42-1.4-3.77C75,48.66,72.93,48.61,70.91,48.43Zm-40,123,0,.19c.8,0,1.6.11,2.4.12,2.94,0,4.6-2.58,3.6-5.36a11.6,11.6,0,0,1-.65-4.13c0-2.12,1.22-3.05,3.36-3a6.88,6.88,0,0,1,4.5,1.89,2.58,2.58,0,0,0,4.18-1c.69-1.65.43-2.24-1.11-3.6-3.63-3.21-10-2.36-12.5.48a11.74,11.74,0,0,0-3.13,7.29c-.18,2.34-.19,2.26-2.55,2.74a15.46,15.46,0,0,0-4.52,1.41,12.23,12.23,0,0,0-6.42,11.25c.13,1.66.8,2.71,1.72,2.74s1.69-1,2-2.56c.23-1.33.44-2.67.77-4a4.64,4.64,0,0,1,3.29-3.67A50.31,50.31,0,0,1,30.94,171.42Z" transform="translate(-0.37 -0.37)"/><path class="cls-1" fill="#FFFFFF" d="M612.37,720.41v77H.37v-1.48c3-1.55,6-3.13,9-4.64q8.91-4.47,17.86-8.88c5.84-2.89,11.66-5.84,17.58-8.58q9.12-4.21,18.42-8.06Q73.06,761.67,83,758c5.42-2,10.92-3.81,16.43-5.57,4.87-1.55,9.76-3,14.7-4.36,6.36-1.71,12.76-3.29,19.17-4.79,8-1.86,16-3.74,24-5.33,8.76-1.73,17.57-3.21,26.39-4.67,10.21-1.7,20.43-3.36,30.67-4.87,13.41-2,26.83-3.89,40.27-5.65,11.55-1.51,23.12-2.85,34.7-4.13q12.87-1.41,25.77-2.48c12-1,24-2,36-2.75,10.09-.67,20.19-1.16,30.29-1.57,13.05-.54,26.11-1.15,39.17-1.3q29.13-.33,58.26,0c13.12.15,26.24.78,39.36,1.37,7.82.34,15.62.95,23.42,1.57q18.44,1.46,36.85,3.12c6.69.6,13.36,1.38,20,2.13C603.08,719.2,607.72,719.83,612.37,720.41ZM312.49,769.34a6.79,6.79,0,0,0-.37,1.93,8.21,8.21,0,0,0,.84,3c1.45,2.35,3.07,4.59,4.65,6.86.81,1.16,1.69,2.28,2.54,3.42l-.33.31a7.63,7.63,0,0,1-1.06-.56c-2.69-2-5.35-4.13-8.05-6.16q-5.54-4.15-11.1-8.25a2.75,2.75,0,0,0-2.64-.72,8.11,8.11,0,0,0,1.22,1.66c2.18,1.68,4.42,3.28,6.64,4.92,5.73,4.22,11.67,8.2,16.53,13.5a5.19,5.19,0,0,0,.49.55c.65.51,1.11.29,1.27-.51s.37-1.4.67-2.51c-1.06-1.45-2.39-3.21-3.69-5-1.73-2.38-3.54-4.71-5.12-7.18A45.63,45.63,0,0,1,312.49,769.34ZM180,745.29l-.17-.38c-.29,0-.61-.15-.86-.06a9.43,9.43,0,0,0-5,3.54,15.2,15.2,0,0,0-.56,15.8,6.88,6.88,0,0,0,5.1,3.59c-1.65-2.41-4.39-4-4.93-7.21a17.32,17.32,0,0,1,.34-8.93C175,748.72,177.46,746.92,180,745.29Zm149.17,40.3a50,50,0,0,1,3.33-4.69,34.89,34.89,0,0,1,11.64-8.58,15.14,15.14,0,0,0,1.83-1.2C339,771.4,329.06,780.93,329.2,785.59ZM181,768.9l.67,0a14.29,14.29,0,0,0,.17-2.25c-.14-2.26-.42-4.52-.55-6.78-.09-1.48,0-3,0-4.93-.62,1-1.3,1.69-1.4,2.42A29.86,29.86,0,0,0,181,768.9Zm9.47-14.5a5.82,5.82,0,0,0-4.61,4.19c-.77,2.57-1.42,5.2,0,7.83a2.28,2.28,0,0,0,.69-1.25,21.27,21.27,0,0,0,.24-2.76A10.5,10.5,0,0,1,190.51,754.4Z" transform="translate(-0.37 -0.37)"/><path d="M.37,322.65c.4-1,.81-2,1.21-3,2.57-6.39,5.05-12.82,7.78-19.13.48-1.13,2-1.8,3.16-2.74,4.22,3.57,7.29,7.84,10.76,11.72s7.07,7.89,10.42,12,6.38,8.22,9.73,12.57a20.62,20.62,0,0,0,1.28-1.79c5.34-9.49,10.75-18.94,16-28.51,3.5-6.42,6.66-13,10-19.52,1.87-3.6,3.73-7.22,5.83-10.68,2.51-4.15,3.41-3.5,5.89-.6.59.69,1.3,1.27,2.18,2.13.57-1.24,1.1-2.19,1.45-3.2,2-5.82,4-11.64,6-17.48.88-2.62,1.57-5.31,2.42-7.95a13.85,13.85,0,0,1,1.39-3,2.07,2.07,0,0,1,1.46-.86c.27,0,.64.75.88,1.21,2.85,5.38,3.68,11.34,4.67,17.21,1.26,7.47,2.22,15,3.42,22.47.8,4.93,1.8,9.81,2.69,14.72.36,2,.67,4,1,6,.49,3,1,6.08,1.48,9.12a7.92,7.92,0,0,0,.74,1.6c.63-1,1.08-1.65,1.43-2.33q6.59-12.9,13.14-25.82c3.66-7.26,7.2-14.58,10.88-21.82,2-4,4.19-7.94,6.39-11.85,3.25-5.79,6.57-11.55,9.9-17.3q5.82-10.07,11.72-20.08c1.63-2.75,3.39-5.42,5.07-8.14a8.11,8.11,0,0,0,.47-1.2H169.6c-4.19,0-8.39.28-12.55,0-2.41-.15-4.76-1.12-7.13-1.77a2.2,2.2,0,0,1-1.22-.77,2.72,2.72,0,0,1-.58-1.79c.07-.35.93-.64,1.48-.76a4.81,4.81,0,0,1,1.64.1,67.52,67.52,0,0,0,28.38-1.8,47.31,47.31,0,0,0,19.68-10.9A31.86,31.86,0,0,0,208,176.23a30.38,30.38,0,0,0,1.1-4.66c.31-1.58.45-3.18.77-4.75.23-1.12.62-2.21,1-3.38a2.11,2.11,0,0,1,1.74,1.7,7.14,7.14,0,0,0,.31,1.25c.13.3.47.75.67.72a1.31,1.31,0,0,0,1-.62,12.7,12.7,0,0,0,.72-2.29,47.87,47.87,0,0,0,.44-20.9,37.08,37.08,0,0,0-7.85-16.54,29.21,29.21,0,0,0-10-7.46c-8.39-4-17.36-4.87-26.48-5a27.37,27.37,0,0,0-15,4,30,30,0,0,0-5.56,4.77A53.44,53.44,0,0,0,142.69,135a7.66,7.66,0,0,1-1.54,1.79c.29-6.25,3.85-11.06,7.12-15.81-1.24-.77-2.27-1.48-3.37-2.08a4.7,4.7,0,0,0-1.73-.52,23.17,23.17,0,0,0-9.78,1.45,25.35,25.35,0,0,0-10.56,6.54,40.89,40.89,0,0,0-7.47,11.15,122.56,122.56,0,0,0-4.86,11.75A41.75,41.75,0,0,0,108,164.09c0,1.55.28,1.64,1.84,1.86a45,45,0,0,1,6.1,1.28,1.8,1.8,0,0,1,1.35,2.42c-.45,1.15-1.46.94-2.37.77a25.51,25.51,0,0,0-11.53.12c-6.54,1.76-11.17,5.53-13.1,12.21-1.8,6.25-2.09,12.53.18,18.71a28.24,28.24,0,0,0,12.08,14.92,18.25,18.25,0,0,0,7.7,2.44,27.71,27.71,0,0,0,14.54-2.67,72.55,72.55,0,0,0,16.42-9.84c1.27-1.06,2.45-2.23,3.71-3.32a15.37,15.37,0,0,1,1.77-1.1,8.37,8.37,0,0,1-2.31,4.73A40.63,40.63,0,0,1,131,216.69,88.15,88.15,0,0,1,121,221.21a24.74,24.74,0,0,1-17.71,0c-7.38-2.84-11.93-8.37-15.2-15.3s-3.19-14.4-1.64-21.73a21.88,21.88,0,0,1,12.1-15.48c1.2-.6,2.49-1,3.75-1.54,1.07-.42,1.76-1,1.61-2.32-.47-4.11.43-8.05,1.46-12a75.79,75.79,0,0,1,5.43-14.48c2.79-5.71,5.95-11.25,10.68-15.58,6.22-5.7,13.44-9.31,22.17-9,3.9.16,5.23,1.62,5.25,5.52,0,.11.09.22.27.61.48-.39.94-.7,1.34-1.08a30.78,30.78,0,0,1,16.43-8.63,54.83,54.83,0,0,1,10.49-.52,63.46,63.46,0,0,1,16.42,2.39,40.67,40.67,0,0,1,12.51,5.84A32.28,32.28,0,0,1,216.86,131a43.49,43.49,0,0,1,3.79,12.7,50.45,50.45,0,0,1-.22,14.36A27.6,27.6,0,0,1,217,168.3a2,2,0,0,0,0,2.44,77,77,0,0,1,6.93,10.67c.1.2.34.34.76.74a19.86,19.86,0,0,0,1.22-2.28q3-8.15,5.94-16.29l6.26-17.37q4.07-11.28,8.14-22.57c1.44-4,2.84-8,4.43-11.93,2.14-5.31,4.43-10.55,6.66-15.81q3.23-7.58,6.46-15.12c.46-1.08.93-2.15,1.41-3.22.88-2,2.22-3.84,2-6.46,2.1.37,3.93.81,5.16,2.38,1.71,2.18,3.31,4.45,4.89,6.73q3.88,5.61,7.67,11.3c3.35,5,6.65,10.07,10,15.09s6.65,9.93,9.93,14.92q5.26,8,10.45,16.12,6.44,10,12.83,20.08c3.07,4.83,6.1,9.68,9.21,14.48,2.35,3.62,4.9,7.1,7.18,10.76,3.61,5.79,7.09,11.67,10.59,17.54.93,1.56,1.71,3.21,2.78,5.23,8.58-11.52,16.52-23,24.62-34.28s16.25-22.63,24.38-34.26l-3.52-1.58a33.91,33.91,0,0,1-11.8-8.1c-5.27-5.86-8.29-12.62-7.65-20.7a21.31,21.31,0,0,0,.07-2.4A35.79,35.79,0,0,1,390.81,83a52.68,52.68,0,0,1,25.71-19.6A53.66,53.66,0,0,1,435.89,60c.74,0,1.48,0,2.22,0A3.32,3.32,0,0,0,441,58.25c4.29-6.15,8.54-12.34,13-18.37a42.6,42.6,0,0,1,6.56-7.24c2.8-2.38,4-5.36,4.76-8.71,1.14-4.79,2.35-9.57,3.55-14.35.12-.47.24-1.09.58-1.33a5.46,5.46,0,0,0,2.57-3c.25-.86,1.41-.35,2,.21q2.42,2.16,4.75,4.39c1.47,1.41,2.92,2.82,4.33,4.29a2.35,2.35,0,0,0,3,.6,74.39,74.39,0,0,1,7.21-2.84C501.06,9.46,509,8.42,516.92,11a20.22,20.22,0,0,1,13.71,14.09c.41,1.35.74,2.72,1.1,4.08a1.06,1.06,0,0,1,0,.61c-.34.84-.71,1.65-1.12,2.57-1.49-.23-1.93-1.48-2.48-2.61-1.68-3.44-3.43-6.83-6.31-9.47a20.32,20.32,0,0,0-11.29-5.43A41.84,41.84,0,0,0,486.32,19,84.57,84.57,0,0,0,459.71,38.5c-3.53,3.93-6.53,8.33-9.7,12.56-1.78,2.37-3.42,4.82-5.11,7.25-.94,1.36-.79,1.8.8,2a45.46,45.46,0,0,1,10.82,2.29c3.62,1.31,6.83,3.15,8.73,6.68.41.78,1.22,1.73.42,2.5s-1.63-.18-2.34-.72a29.8,29.8,0,0,0-14.74-5.91A88.12,88.12,0,0,0,427,65a53,53,0,0,0-14.82,4.4A44.36,44.36,0,0,0,397,80.55a41.29,41.29,0,0,0-5.39,8.11c-3.25,6.06-3.46,12.71-3.33,19.41.12,6.32,2.89,11.57,6.6,16.32a25.94,25.94,0,0,0,8.83,6.89,67,67,0,0,0,16.4,5.57,69.12,69.12,0,0,0,7,1.54c3,.32,6.15.3,9.23.32a12.36,12.36,0,0,1,7.26,2.22c5.18,3.54,10.48,6.9,15.79,10.25a39.56,39.56,0,0,0,15.75,6.11,38,38,0,0,0,18.95-1.7,79.76,79.76,0,0,0,26.33-16,35.75,35.75,0,0,0,9.7-15c.72-2.14,1.52-4.25,2.42-6.76,2,2.3,4.25,1.47,6.38,1.44a100,100,0,0,0,18.75-1.77,52.08,52.08,0,0,0,18.89-7.62c8.87-6,14.84-14.06,17.41-24.55a49.91,49.91,0,0,0,1.46-11.15c.17-8.65-2.93-16-8.71-22.32a43.68,43.68,0,0,0-16.17-11,86.82,86.82,0,0,0-9.17-3.36,79.23,79.23,0,0,0-8.73-1.53,37.54,37.54,0,0,0-4.22-.46c-1.59-.06-3.18,0-4.77.1-2.09.1-4.18.22-6.26.4a11.65,11.65,0,0,1-4.28-.36c-.78-.22-1.7-.39-1.73-1.37s.78-1.18,1.54-1.3a15.35,15.35,0,0,1,2.14-.21c5.23-.13,10.48-.4,15.71-.33A64.18,64.18,0,0,1,566.6,34,57.62,57.62,0,0,1,579.3,39,43.09,43.09,0,0,1,589,46.22a42.21,42.21,0,0,1,6,7.46,28.81,28.81,0,0,1,4.75,15.53,78.4,78.4,0,0,1-.91,13.44,43,43,0,0,1-7.33,17.17A54.09,54.09,0,0,1,581.19,111c-.47.39-1,.74-1.69,1.26l5.27,5.37c3.58,3.64,7.13,7.31,10.73,10.92,3,3,6.13,6,9.19,9.07,2.23,2.2,4.43,4.44,6.66,6.64a7.43,7.43,0,0,0,1,.75v7a10.18,10.18,0,0,1-1.16-.89q-9.93-9.66-19.83-19.33-7.3-7.18-14.58-14.4c-1.95-1.94-2.23-2-4.61-.69a51.34,51.34,0,0,1-11.68,4.51,63.24,63.24,0,0,1-24.77,1.37,1.28,1.28,0,0,0-1.6.85c-.24.63-.42,1.28-.63,1.93a33.85,33.85,0,0,1-1.55,4.72,39.56,39.56,0,0,1-8,11,85.15,85.15,0,0,1-28.73,18.37,39.47,39.47,0,0,1-19.51,2.89,42.07,42.07,0,0,1-14.83-4.26,74,74,0,0,1-15-11c-1.87-1.71-4.64-2.88-4.26-6.05-.27-.14-.38-.26-.49-.25-4.05.27-8.1.56-12.15.81a1.65,1.65,0,0,0-1.65,1.19c-.95,2.46-2,4.9-2.95,7.36-2.23,5.66-4.41,11.35-6.66,17-1.78,4.46-3.63,8.88-5.43,13.33a159.83,159.83,0,0,1-8.47,18c-.61,1.1-1.19,2.41-2.86,2.88a7.05,7.05,0,0,1,0-1.62,32.44,32.44,0,0,1,1.07-3.34c2.07-5.4,4.14-10.8,6.27-16.18s4.33-10.7,6.47-16.06a7.05,7.05,0,0,0,.24-1.47l-.36-.12a5.67,5.67,0,0,0-.5.68c-1.08,1.93-2.17,3.85-3.21,5.81-2.4,4.5-4.75,9-7.17,13.53-2.33,4.32-4.79,8.58-7.08,12.94-2.94,5.6-5.75,11.28-8.64,16.91q-5.44,10.59-10.92,21.15c-1.87,3.61-3.72,7.23-5.65,10.8-3,5.46-6,10.9-9,16.33-1,1.85-2.15,3.64-3.23,5.46l-.57-.21a11.38,11.38,0,0,1,.24-1.67,19.55,19.55,0,0,1,1-2.39c3.47-7.33,7-14.66,10.44-22,.56-1.2,1-2.45,1.52-3.68-8.38,12-15.75,30.49-16.92,33.82.69,0,1.26,0,1.83,0,7.82-.51,15,1.2,20.94,6.52a26.25,26.25,0,0,1,4,3.86c1.37,1.89,2.85,2.83,5.15,2a3.31,3.31,0,0,1,.55-.08A76.3,76.3,0,0,0,405,277.56c3.11-1.33,6.23-2.63,9.38-3.86a31,31,0,0,0,8.3-4.2c4.06-3.18,7.86-2.62,11.76,1a3.93,3.93,0,0,0,1.57.92,32.21,32.21,0,0,1,9.45,4.54,3.37,3.37,0,0,0,1.89.63c3.32-.22,6.34,1,9.28,2.14a89.06,89.06,0,0,0,17.72,5.1c3.52.6,3.19.5,4-2.55A4.92,4.92,0,0,1,481,278a38,38,0,0,1,8.42-2.67c3.58-.9,7.14-1.87,10.69-2.87,1.3-.37,2.55-.92,3.83-1.36a1.88,1.88,0,0,1,2.64.92,34.07,34.07,0,0,0,2.07,3.49,3.25,3.25,0,0,1,.32,3.11c-.53,1.63-.09,2.05,1.55,1.81.55-.08,1.1-.2,1.64-.32,7.45-1.68,14.87-3.51,22.35-5,9.36-1.88,18.77-3.55,28.17-5.22,4.55-.8,9.13-1.47,13.71-2,5.2-.64,10.41-1.23,15.64-1.58,6.76-.44,13.54-.62,20.31-.91v4.07c-3.09.1-6.17.22-9.25.3A274.22,274.22,0,0,0,570,272.75c-9.75,1.45-19.47,3.12-29.16,4.93-7.08,1.33-14.09,3-21.13,4.6-2.82.63-5.64,1.3-8.45,2-.76.19-1.77.35-1.45,1.48s1.31.56,2,.44c1-.18,2-.46,3.08-.62a5.68,5.68,0,0,1,1.84,0,1.75,1.75,0,0,1,1,.63c.68.86,1.27,1.79,1.89,2.7,2.62,3.84,3.27,8.24,3.2,12.7a9.22,9.22,0,0,0,1.52,5.54c.45.67.92,1.32,1.3,2a41.12,41.12,0,0,1,2.27,4.43c1.11,2.79.43,4.63-2.08,6.2a9.69,9.69,0,0,1-1.27.76c-7.12,3.05-14.23,6.13-21.41,9.06-1.53.63-3.16,1.38-5,.92a31,31,0,0,0-4-.53c-1.16-.11-2.34-.14-3.5-.25a2.38,2.38,0,0,1-2.15-1.21c-.13-.26-.37-.58-.62-.64-1.94-.49-2.24-2.09-2.61-3.67-.19-.8-.42-1.58-.67-2.49a10.76,10.76,0,0,1-1.23.6,45.4,45.4,0,0,1-4.92,1.46,2.31,2.31,0,0,1-1.85-.82,2.35,2.35,0,0,0-2.42-.84,9.08,9.08,0,0,1-3.61-.25,18.26,18.26,0,0,1-7.06-4.26,10.74,10.74,0,0,0-5.47-3.23,42.27,42.27,0,0,1-4.8-1.36c-4.7-1.63-9.46-3.16-14.05-5.09-1.8-.75-3.35-1.11-5.09-.38-2.51,1.06-5.15,1.1-7.81,1.19a15.39,15.39,0,0,0-4.55.63c-3.94,1.39-7.8,3-11.7,4.54-3,1.16-5.92,2.47-9,3.43-5.28,1.67-10.67,3-15.95,4.68-3.33,1-7.12,1.35-9.19,4.83,0,.05-.1.08-.15.12a35.2,35.2,0,0,1-11.69,4.9,36,36,0,0,1-12.83,1c-1.37-.17-1.68.18-1.73,1.5a116.59,116.59,0,0,1-2.15,19.27c-1.42,6.8-2.84,13.62-4.62,20.34-1.29,4.86-3.05,9.61-4.82,14.34-2.06,5.52-3.64,11.15-3.72,17.06-.07,4.73.26,9.47.44,14.21a2.65,2.65,0,0,0,2.22,2.6c1.06.3,2.1.7,3.17,1,6.82,1.92,13.64,3.85,20.47,5.73a162.88,162.88,0,0,1,29,10.5c2.49,1.22,5,2.45,7.48,3.64a4.78,4.78,0,0,0,4.11.3c4.92-2.1,9.85-4.18,14.76-6.31,8.19-3.55,16.35-7.17,24.56-10.67q10.35-4.42,20.78-8.64c7.6-3.06,15.18-6.16,22.88-8.93,6.6-2.38,13.36-4.31,20-6.45A258.39,258.39,0,0,1,529.47,396a217.77,217.77,0,0,1,24.51-3.5,273,273,0,0,1,28.46-.72c6.23.05,12.45.21,18.67.43,3.76.13,7.5.47,11.26.72v4.81c-3.69-.26-7.37-.59-11.06-.78-6-.31-11.95-.67-17.92-.75-10.54-.16-21.09-.29-31.61.7a191.87,191.87,0,0,0-29.18,4.65c-6.69,1.69-13.39,3.34-20,5.23-5.2,1.49-10.33,3.26-15.45,5-6,2.07-12,4.16-17.87,6.48-6.12,2.41-12.14,5.08-18.2,7.65q-10,4.25-20,8.5c-6.9,3-13.79,5.95-20.69,8.9s-13.93,5.91-20.88,8.9c-5.25,2.26-10.48,4.58-15.7,6.89-1.84.82-1.9,1.27-.35,2.49,5.76,4.54,11.54,9,17.31,13.57,6,4.71,12,9.4,18,14.14,2.94,2.33,5.83,4.73,8.7,7.14,2.31,1.94,4.53,4,6.85,5.88a2.77,2.77,0,0,1,1.18,2.73c-.87,5.3.25,10.58.19,15.88,0,1.93.7,3.86,1.07,5.8.71,3.68,1.37,7.38,2.1,11.06a123.94,123.94,0,0,0,7.06,23.89,64,64,0,0,0,10,17,117,117,0,0,0,9.15,9.35c5.74,5.39,12.48,9.39,19.27,13.28,5.55,3.18,11.09,6.39,16.72,9.42q6.67,3.59,13.58,6.73c5.2,2.37,10.46,4.66,15.82,6.67a77.16,77.16,0,0,0,9.13,2.3c1.85.45,3.72.86,5.57,1.32a4.32,4.32,0,0,1,1.33.6c1.44,1,1.51,2,.19,3.11a6,6,0,0,1-1.57,1,86.19,86.19,0,0,1-15.53,4.72c-15.88,3.23-31.95,3.4-48.05,3.41a224,224,0,0,1-29.52-1.68,26.85,26.85,0,0,1-11.26-3.82,6.23,6.23,0,0,1-2.33-3.44c-1.15-3.25-2.22-6.54-3.06-9.88-1.69-6.75-3.36-13.51-4.75-20.33-1.47-7.18-2.62-14.42-3.87-21.65-.59-3.39-1.18-6.8-1.62-10.22-.51-4-.86-8.08-1.29-12.13-.18-1.71-.38-3.42-.57-5.14s-.44-3.42-.53-5.15c-.36-6.83-.72-13.66-1-20.5q-.21-6.09-.1-12.2a6.11,6.11,0,0,0-2.45-5.27c-6.44-5.23-12.74-10.65-19.22-15.84-8.7-7-17.53-13.77-26.3-20.64-1.89-1.49-3.86-2.88-5.62-4.5-1.42-1.31-2.8-1.06-4.27-.44-6.23,2.64-12.43,5.35-18.67,7.95q-10.64,4.44-21.34,8.74c-7.55,3-15.13,5.93-22.7,8.88s-15.13,5.9-22.69,8.84c-1.9.74-3.78,1.51-5.69,2.19a3.89,3.89,0,0,0-2.52,2.94c-1.93,7.26-3.9,14.51-5.85,21.77-1.56,5.82-3.07,11.66-4.66,17.48-1.81,6.65-3.71,13.28-5.53,19.93-1.28,4.68-2.38,9.42-3.75,14.08a102.57,102.57,0,0,0-3.08,13.3,36.14,36.14,0,0,1-1.28,4c-.39,1.35-.68,2.72-1,4.09-.06.24.06.54,0,.73-.3.49-.62,1.23-1.05,1.33a1.87,1.87,0,0,1-1.45-.82,26.1,26.1,0,0,1-2-3.56c-1.12-2.46-2.16-5-3.26-7.44a13.67,13.67,0,0,0-1.46-3c-2.44-3.16-3.7-6.94-5.6-10.37-1.73-3.12-3.3-6.34-5.1-9.42-2.74-4.67-5.5-9.34-8.49-13.85a130.07,130.07,0,0,0-8.23-11.14c-2.81-3.41-6-6.52-9-9.76a7.1,7.1,0,0,0-.94-.88c-4.57-3.43-3.18-3.3-9-1.56q-10.87,3.26-21.61,7c-7.32,2.55-14.58,5.28-21.82,8.05-5.63,2.16-11.23,4.39-16.76,6.77-5.32,2.29-10.54,4.78-15.79,7.23-6.24,2.91-12.51,5.79-18.69,8.85-5.79,2.86-11.48,5.93-17.2,8.93-4.68,2.46-9.39,4.87-14,7.46C46.84,590.3,40.16,594,33.68,598c-5.49,3.39-10.77,7.14-16.06,10.84-5,3.45-9.8,7-14.69,10.58L.37,621.25v-3.7l5.4-3.86c5.11-3.65,10.24-7.27,15.32-11a236.36,236.36,0,0,1,22.85-14.26c5.68-3.21,11.44-6.29,17.18-9.39s11.24-6.16,17-9c7.2-3.61,14.51-7,21.79-10.5,6.27-3,12.52-6,18.88-8.83,5.46-2.39,11.05-4.47,16.61-6.63,5.39-2.1,10.78-4.22,16.24-6.15,7-2.46,14-4.73,21-7.09l6.9-2.3a10.76,10.76,0,0,0-1.8-1.46,35.22,35.22,0,0,0-13-3.16,47.12,47.12,0,0,0-15.53,1.81c-5.6,1.66-11.22,3.26-16.81,5s-11,3.46-16.56,5.16a10.05,10.05,0,0,1-2.33,0c.85-1.48,1.26-2.81,2.15-3.6a55.06,55.06,0,0,1,7.28-5.66c3.44-2.14,7.12-3.89,10.68-5.83a14.72,14.72,0,0,0,1.38-1,12.27,12.27,0,0,0-1.82-.4c-4-.23-8-.5-12-.63-3.73-.13-5.62-1.6-6.21-5.27a29.9,29.9,0,0,1-.27-4.24A124.91,124.91,0,0,1,116.05,489a60.6,60.6,0,0,1,4.73-17,13.16,13.16,0,0,0,.56-2.44,6.06,6.06,0,0,1-5.83-.39c-2.1-1.27-4.15-2.63-6.2-4-.87-.56-1.71-1.73-2.5-1.68s-1.78,1.11-2.5,1.89c-2.56,2.78-6.07,2.11-8.23.13a52.28,52.28,0,0,1-3.94-3.63q-7.35-8.18-14.54-16.49a9.8,9.8,0,0,1-1.45-2.54,1.25,1.25,0,0,1,.19-1.15c.26-.2.8-.11,1.21-.05a1.42,1.42,0,0,1,.61.38c3.44,3,7,5.83,10.26,9,3.5,3.45,6.55,7.36,10.43,10.44,2.63,2.1,2.81,2.08,4.75-.74,1.23-1.77,2.27-3.67,3.52-5.42,1.37-1.93,1.33-1.83-.32-3.39-2-1.89-3.86-3.95-5.7-6a2.46,2.46,0,0,1-.39-3.08q2-3.13,4-6.2c1.14-1.7,1.14-1.72-.15-3.34a19.36,19.36,0,0,1-4.27-9.26,18.66,18.66,0,0,1,.93-8.93,8.5,8.5,0,0,0,.14-1.71,16.73,16.73,0,0,0-1.91,1.38c-2.07,2-4.09,4.05-6.15,6.07-.79.78-1.72,1.43-2.44,2.26-2.88,3.35-5.73,6.75-8.57,10.14-1.85,2.23-3.65,4.49-5.51,6.71-.23.28-.69.36-1,.54-.1-.43-.4-1-.26-1.27a35.11,35.11,0,0,1,2.88-5.55c2.39-3.35,5-6.52,7.54-9.78.53-.69,1.44-1.25,1-2.5-.49-.12-1-.31-1.54-.39-6.28-.93-12.53-2.07-18.84-2.72a120.72,120.72,0,0,0-28,.24c-5.24.68-10.42,1.94-15.58,3.11-3.65.83-7.27,1.86-10.85,3-3.94,1.21-7.82,2.59-11.72,3.9V424.4c1.4-.49,2.8-.95,4.18-1.47a9,9,0,0,0,3.91-2.65A67.39,67.39,0,0,1,25,405.73c4.2-2.56,8.42-5.08,12.58-7.7a4.24,4.24,0,0,0,1.42-1.8c.59-1.28,1-2.65,1.53-4,1.63-4.1,3.42-8.16,4.9-12.32,1.7-4.75,3.08-9.61,4.71-14.39,1.9-5.53,3.89-11,5.91-16.52,1.34-3.64,2.82-7.23,4.2-10.85,2.24-5.87,4.42-11.75,6.67-17.6s4.61-11.8,6.92-17.7C75.42,298.93,77,295,78.5,291q2-5.16,4.09-10.3c.28-.72.56-1.52-.2-2-1.11-.7-1.38-1.84-1.82-2.91l-.94-2.24c-.78,1.67-1.35,2.93-2,4.17-2.25,4.59-4.48,9.18-6.79,13.74-3.5,6.91-6.89,13.9-10.65,20.67q-9,16.22-18.44,32.18c-5.21,8.84-10.75,17.5-16,26.33C21.47,378,17.35,385.52,13.14,393c-2.76,4.87-5.5,9.76-8.28,14.62A10.83,10.83,0,0,1,3.78,409l-.45-.16a11.06,11.06,0,0,1,.33-2,47.49,47.49,0,0,1,1.93-5c3.36-6.92,6.8-13.8,10.18-20.71.58-1.18,1.42-2.29,1.38-3.7-2.49,3.22-4.78,6.54-7.11,9.83-3.2,4.52-6.44,9-9.67,13.51v-5.18c1.34-1.84,2.71-3.66,4-5.53,3-4.41,6-8.87,9.07-13.24S19.75,368,23,363.62a6.89,6.89,0,0,1,3.55-2.52,3.94,3.94,0,0,0,1.92-1.55c1.73-2.75,3.34-5.58,5-8.37,2.24-3.75,4.46-7.51,6.75-11.23a2,2,0,0,0-.19-2.81c-.75-.8-1.41-1.71-2.09-2.58-2.7-3.51-5.34-7.07-8.13-10.51s-5.59-6.39-8.25-9.7a64.73,64.73,0,0,1-8.19-12.71c-.2-.42-.72-.69-1.1-1a6.29,6.29,0,0,0-.87,1.28c-.33.86-.5,1.78-.8,2.65-1.43,4-2.92,8-4.31,12C4.59,321.35,3,326.2,1.39,331c-.31.91-.68,1.81-1,2.71ZM309,138.32a6.64,6.64,0,0,0-.89.6,5,5,0,0,1-6.85-.37c-.57-.65-1.19-1.25-1.76-1.9a57.44,57.44,0,0,0-9.31-8.66,4,4,0,0,0-3.64-.88c-3.66,1-6.66-.32-9.33-2.66-2.17-1.9-4.19-4-6.38-5.87a3.21,3.21,0,0,0-2.26-.81c-1.09.2-1,1.36-1.09,2.29a9.4,9.4,0,0,1-.26,2.2,3.64,3.64,0,0,1-2.86,2.6c-1.4.27-1.86-1-2.48-1.84-.91-1.31-1.79-2.65-2.66-4-1.17-1.81-2.25-3.69-3.49-5.44-.78-1.1-1.47-.92-1.94.35-2.31,6.16-4.67,12.3-6.89,18.48-2.42,6.72-4.7,13.48-7.07,20.21-1.09,3.07-2.26,6.11-3.36,9.18q-2.39,6.6-4.73,13.2c-1.55,4.35-3.09,8.69-4.6,13.05q-1.93,5.58-3.79,11.18c-1.47,4.44-2.94,8.88-4.34,13.35-1.17,3.75-2.21,7.54-3.39,11.3q-2.28,7.31-4.68,14.57c-2.17,6.61-4.33,13.22-6.61,19.79a9,9,0,0,1-2.73,4.56,17.57,17.57,0,0,1,.19-2.49c2.1-8.17,4.24-16.33,6.32-24.5.2-.78.69-1.67,0-2.57-3.31,9.53-6.35,19-9.9,28.28s-7.5,18.47-11.5,27.6-8,18.14-12.76,26.86a2.51,2.51,0,0,1-.14-1.62c.75-2.53,1.41-5.11,2.38-7.57,2.39-6.06,4.94-12.07,7.4-18.1a4.66,4.66,0,0,0,.16-1.25,9.57,9.57,0,0,0-1.89,2.62q-4.12,8.48-8.18,17c-2,4.16-3.89,8.37-5.94,12.5-2,4-4,7.89-6.15,11.77-2,3.62-4,7.19-6.18,10.71-1.12,1.83-2.54,3.48-3.79,5.24-.35.5-.59,1.09-1.08,2,1.1-.06,1.75-.05,2.39-.14L181.11,345c2.24-.32,2.2-.34,2.72-2.51.87-3.72,1.78-7.42,3.81-10.74,3.13-5.11,7-9.36,12.7-11.66,2-.83,4.26-1.22,6.31-2.05A29.68,29.68,0,0,1,221.5,316a52.69,52.69,0,0,1,9.14,2.13,3.26,3.26,0,0,0,3.53-.52q6.11-5.24,12.32-10.33a2.85,2.85,0,0,0,1.1-2.89,69.7,69.7,0,0,1-.68-7.35c-.12-6.9-.1-13.81-.14-20.71,0-.62-.05-1.23-.1-1.85a2,2,0,0,0-2-2c-2.57-.18-4.48-1.59-6.28-3.23a111.85,111.85,0,0,1-14.34-16.1c-4-5.36-7.09-11.11-8-17.84-.86-6.33-.24-12.36,3.27-17.9A64.64,64.64,0,0,1,235.14,200c2-1.48,3.63-2.66,3.2-5.48-.18-1.2.69-1.66,2-1.54.85.08,1.71.14,2.56.17,1.37.06,2,.58,2,1.86-.05,1.78-.51,3.46-2.15,4.46a2.84,2.84,0,0,1-1.86.51,3.6,3.6,0,0,0-3.49,1.16,83.79,83.79,0,0,0-12.88,14.7,22.62,22.62,0,0,0-3.34,6.54,25.91,25.91,0,0,0,2.35,19.7c4.49,8.48,10.85,15.51,17.67,22.15a9.83,9.83,0,0,0,1.84,1.11,16.25,16.25,0,0,0,0-2.35,110,110,0,0,1-1.94-18q-.08-8.69.17-17.37a15.31,15.31,0,0,1,3-8.78c1.72-2.35,4.06-3.74,7-3.38a12.29,12.29,0,0,1,9.95,6.79l1.27,2.43c.54-.43,1-.64,1.25-1a45.87,45.87,0,0,1,7.26-9c.3-.3.6-1,.45-1.27s-.81-.59-1.27-.81a2.44,2.44,0,0,0-.73-.08c-1.62-.19-2.3-1-2.37-2.7s.7-3,2.11-3.24a12,12,0,0,1,2.93-.19c2,.14,2.46.83,2,2.78-.11.41-.36.79-.44,1.21a8.45,8.45,0,0,0,0,1.48,16,16,0,0,0,2.16-1,19.54,19.54,0,0,1,6.14-2.89c3.91-1,6.38,0,6.93,4.39,0,.36.07.73.1,1.1a21.74,21.74,0,0,1-1.62,8.85,67.7,67.7,0,0,1-5.36,12.14,2.87,2.87,0,0,0-.31,2.11c1,2.93.68,5.81.14,8.75a2.8,2.8,0,0,0,.47,2,34.08,34.08,0,0,0,3.06,2.94,1.57,1.57,0,0,0,2.44-.08c.39-.38.76-.81,1.16-1.18,2.2-2.07,4.34-4.2,6.63-6.16a16.64,16.64,0,0,1,7.2-3.61c4.74-1.06,6.83,1.08,6.1,6a19.6,19.6,0,0,1-2.78,7.2c-2.41,4-5,7.92-7.46,11.87-.88,1.38-.87,1.77.1,3.14l6.23,8.71c1,1.45,1.51,1.43,2.54,0q6.49-9.09,13-18.16c3.67-5.1,7.38-10.16,11-15.25q6.57-9.15,13.1-18.32c2.82-4,5.5-8,8.5-11.83,1.8-2.3,1.84-3.95.13-6.46-5.69-8.33-11-16.92-16.51-25.38-4.37-6.71-8.83-13.35-13.17-20.08s-8.55-13.54-12.85-20.3A21.92,21.92,0,0,0,309,138.32Zm-73.23,183a31.61,31.61,0,0,1,2.71,2.13,24.51,24.51,0,0,1,5.54,9,38.07,38.07,0,0,1,1.9,10.87,33,33,0,0,1-4.31,19.7,28,28,0,0,1-9.09,9.27c-2.29,1.5-2.35,1.58-.71,3.85,2.56,3.53,5.23,7,7.86,10.46,2.38,3.15,4.79,6.26,7.14,9.42q5.67,7.63,11.28,15.32a56,56,0,0,1,6.24,11.9,43.1,43.1,0,0,1,3.19,11.9,99.82,99.82,0,0,1-.34,23.62c-.49,3.62-.23,3.39,2.65,4a11.45,11.45,0,0,0,1.62.36,69.45,69.45,0,0,0,16.24-.43c7.89-1.32,15.74-2.95,23.61-4.44a51.1,51.1,0,0,0,17.28-6.71,13.86,13.86,0,0,0,5.57-5.48c.75-1.48,1.61-2.89,2.44-4.32a2.32,2.32,0,0,0,0-2.46,20.35,20.35,0,0,1-1.38-2.61c-2.11-5.71-4.44-11.38-4.41-17.63,0-.37-.13-.74-.13-1.1,0-5.11-.29-10.24,0-15.33.4-6.26,2.68-12.13,4.88-17.93a158.45,158.45,0,0,0,6.37-22.55c.61-2.83,1.13-5.68,1.59-8.54.52-3.28,1.07-6.57,1.35-9.88.41-4.79.35-9.63.94-14.39a45.85,45.85,0,0,0-.14-10.48c-.5-4.69-.75-9.44-2.18-14-1.07-3.45-1.49-7.1-2.34-10.63-1.33-5.59-.89-4.52-5.76-6.94-7.36-3.65-15.21-4.8-23.29-5a14.88,14.88,0,0,0-2.12.28c.13.35.14.51.22.56.31.19.64.36,1,.53,3.41,1.71,5.64,4.32,6.16,8.19.21,1.58.34,3.18.41,4.78.22,5-.71,9.95-1.52,14.88a41.43,41.43,0,0,0-.3,12.33,3.24,3.24,0,0,0,1.42,2.45c.35.24.74.44,1.08.7a5.47,5.47,0,0,1,1.17,7.57c-1.24,1.88-5.17,2.89-7.12,1.2-1-.84-2-1.69-3-2.45-3.8-2.76-7.78-3.53-12.06-1a13,13,0,0,1-3.36,1.51,8.85,8.85,0,0,1-3.79.21c-2.21-.46-3-2.15-2.1-4.22,1.29-2.83,3-5.58,5.71-7.08,2.22-1.21,3-2.63,3.59-5.06.9-3.89.52-7.17-2.05-10.2-.24-.28-.42-.6-.64-.9-1.92-2.55-4.37-3.95-7.65-3.52a33.5,33.5,0,0,0-3.43.67c-1.44.35-2.84.88-4.28,1.16a8.21,8.21,0,0,1-5.27-.25,11.79,11.79,0,0,1-5.94-6.31c-.78-1.86-1-2-2.79-.83-2.31,1.52-4.68,3-6.83,4.71-7.16,5.73-14.23,11.56-21.32,17.37A15.29,15.29,0,0,0,235.77,321.31ZM231.94,594.2l.67,0c.58-1.64,1.18-3.27,1.71-4.92.23-.7.28-1.45.46-2.17,1.2-4.77,2.39-9.55,3.62-14.31.74-2.86,1.52-5.71,2.32-8.55,1.16-4.15,2.38-8.28,3.53-12.44,1.26-4.56,2.47-9.14,3.7-13.71,1.56-5.77,3.06-11.54,4.68-17.29.9-3.19,2-6.31,3-9.49.55-1.87,1.45-3.66,1-5.75a5,5,0,0,1,.52-2.3c.47-1.33,1.08-2.6,1.52-3.94.55-1.7.95-3.44,1.46-5.15,1.21-4.07,2.48-8.12,3.66-12.2,1.3-4.5,2.52-9,3.8-13.52.49-1.72.46-1.95-1-2.87a3.71,3.71,0,0,1-2.11-3.42c0-.8-.15-1.6-.16-2.4-.12-5.48-.3-11-.3-16.45a46.43,46.43,0,0,0-4.31-18.78c-1-2.3-1.48-2.54-4-2.21l-26,3.48a11.12,11.12,0,0,0-1.27.19c-1.45.32-1.62.59-1.38,2a30,30,0,0,1-1.88,16.46,31.49,31.49,0,0,1-11,14.26c-5.61,4-11.61,5-18,2.16-4.2-1.89-6.85-5.38-8.54-9.56a2.83,2.83,0,0,0-2.72-2.05,22.87,22.87,0,0,1-8.92-2.83c-2.42-1.23-4.84-2.43-7.29-3.6-1.6-.77-1.62-.73-2.64.74-.14.2-.3.39-.43.6q-5.78,9.21-11.55,18.43a2.53,2.53,0,0,1-2.77,1.41,12.08,12.08,0,0,1-3.52-1.41,34.31,34.31,0,0,1-3.4-2.65c-1.74,1.37-2,2.15-1.14,3.09a28.08,28.08,0,0,1,5.16,7.62c1.22,2.54,2.61,5,2.69,8a5.7,5.7,0,0,0,1,2.53,82.63,82.63,0,0,0,8.7,11.94c1.18,1.32,2.21,2.94,1.92,4.84-.44,2.8-1.06,5.57-2.85,7.91a7,7,0,0,0-.66,1.34l.31.26a9.7,9.7,0,0,0,1.29-.53c1.23-.69,2.42-1.45,3.66-2.11a149.18,149.18,0,0,1,18.2-8.53c2.78-1,5.53-2.16,8.56-2.12a2.93,2.93,0,0,0,2.32-.77c1.08-1,1.69-.81,2.41.54.57,1.08,1.19,2.15,1.76,3.24,1.58,3.06,3.21,6.09,4.71,9.19,1.88,3.88,3.63,7.83,5.49,11.72.66,1.37,1.05,1.47,2.51,1,3.76-1.2,7.51-2.39,11.25-3.62,3.34-1.1,6.66-2.22,10-3.42,4.58-1.65,9.07-3.53,13.7-5a5.65,5.65,0,0,0,4.13-4.42c1-3.92,2.17-7.83,3.34-11.72q2.5-8.31,5.11-16.58c.8-2.59,1.65-5.16,2.52-7.73.33-1,.76-2,2-2.08.87.92.55,1.89.31,2.84-.93,3.77-1.8,7.55-2.81,11.3q-2.28,8.37-4.73,16.7c-.79,2.7-1.88,5.32-2.63,8-1.14,4.08-2,8.22-3.14,12.31-1.59,5.88-3.26,11.74-4.89,17.6-1.14,4.09-2.29,8.18-3.41,12.28q-1.39,5.07-2.72,10.16c-1.23,4.7-2.54,9.39-3.63,14.13-.77,3.4-2.17,6.69-2,10.28a2.62,2.62,0,0,1-1.4,2.52,5.6,5.6,0,0,1-1.15-.9,62.8,62.8,0,0,1-3.91-5.58c-3.31-5.74-5.15-12.12-7.63-18.22-2.33-5.76-4.53-11.58-6.86-17.34-1.33-3.31-2.93-6.52-4.14-9.87s-3.44-6.36-4-10a13.56,13.56,0,0,0-1.54-3.34c-.56-1.17-1.19-2.3-1.68-3.5-2.28-5.52-4.51-11.07-6.77-16.6-.54-1.32-1-1.44-2.25-.88-3,1.31-6,2.56-9,3.9-4.88,2.19-9.8,4.29-14.58,6.69-3.74,1.87-7.3,4.1-10.91,6.22a180,180,0,0,1-17.57,8.94c-4.88,2.2-9.7,4.52-14.51,6.87a25,25,0,0,0-3.23,2.25l.22.43c1.17-.33,2.35-.6,3.5-1,5.53-1.89,11-3.92,16.57-5.7a87.75,87.75,0,0,1,17.1-3.9,40.66,40.66,0,0,1,18.73,2.29,49.19,49.19,0,0,1,13.3,7.86c7.81,6.13,13.58,14.08,19.16,22.12,3.37,4.85,6.35,10,9.33,15.08a43.73,43.73,0,0,1,4.36,8.94,43.38,43.38,0,0,0,3.2,7.61,30.6,30.6,0,0,1,3,6.49A10.21,10.21,0,0,0,231.94,594.2ZM213.58,173.34l-.49.09-.39,1a55.09,55.09,0,0,1-2.73,6.46,46.4,46.4,0,0,1-13.33,14.6,53.26,53.26,0,0,1-16,8.2c-1.76.53-3.54,1-5.32,1.53-.95.26-1.26.83-1.47,1.82a16.14,16.14,0,0,1-1.63,4.46c-2.07,3.7-4.34,7.28-6.47,11q-5.08,8.79-10.07,17.62c-4.58,8.15-9.23,16.27-13.61,24.53-3.78,7.11-7.22,14.41-10.84,21.61-3.35,6.65-6.69,13.31-10.12,19.93-3.19,6.17-6.58,12.24-9.71,18.45-3.87,7.67-8.63,14.87-12.08,22.79-2.56,5.91-5.72,11.56-8.59,17.34a4.06,4.06,0,0,0-.1,1.24c1-.29,1.72-.46,2.45-.75,1.37-.55,2.68-1.25,4.07-1.72,6.35-2.14,12.71-4.28,19.09-6.32A206.3,206.3,0,0,1,142.83,351c2.24-.4,3.86-1.08,5.1-3.23,2.69-4.68,5.91-9.07,8.65-13.73,2.39-4.09,4.5-8.34,6.59-12.6,2.33-4.75,4.48-9.59,6.75-14.37,2.19-4.61,4.47-9.18,6.64-13.8a100.66,100.66,0,0,1,8.61-14.85,52.5,52.5,0,0,1,3.68-4.11,9.88,9.88,0,0,0,1.93-2.59c2.31-5.91,4.52-11.85,6.7-17.8,2-5.37,3.82-10.79,5.86-16.14a51.11,51.11,0,0,1,3.15-6.44,2.84,2.84,0,0,1,1.84-1.29,2.2,2.2,0,0,0,2-1.83c1.13-3.77,2.21-7.55,3.34-11.32,1.08-3.59,2.17-7.19,3.32-10.76,1.65-5.09,3.32-10.18,5.05-15.24a4.15,4.15,0,0,0-.53-3.83c-1.1-1.78-2-3.65-3.09-5.46C216.84,178.82,215.2,176.08,213.58,173.34ZM12.82,419.59l.2.35a17.45,17.45,0,0,0,1.92-.31c1.53-.44,3-1,4.59-1.39,8.18-2,16.34-4.11,24.81-4.81a145.47,145.47,0,0,1,26.4.23c6.37.63,12.69,1.78,19,2.84a4.43,4.43,0,0,0,4.15-1.32c2.15-2,4.33-4,6.57-5.94,2.56-2.2,5.75-3.44,8.35-5.66s5.77-3.14,9.13-3.69a32.13,32.13,0,0,1,11.2.22,60.15,60.15,0,0,1,9,2.77c9.84,3.57,19.71,7.09,29.46,10.9,6.76,2.64,13.56,5.24,19.77,9.09a19.39,19.39,0,0,0,2.38,1.08c.78-1,1.5-1.89,2.24-2.77a4.75,4.75,0,0,0,1.12-3.23,47.42,47.42,0,0,1,.25-5.72c.89-7.84,1.8-15.67,2.83-23.49.53-4,1.31-8,2-12,.25-1.44.08-1.81-1.33-2.67a52.54,52.54,0,0,1-5.27-3.39,21.51,21.51,0,0,1-8.19-14.2c-.28-2-.21-4-.34-6.08-.09-1.39-.42-1.68-1.69-1.52-4.89.64-9.79,1.17-14.65,2-10.88,1.81-21.74,3.74-32.59,5.68A186,186,0,0,0,109.31,363c-6.31,2.06-12.52,4.46-18.69,6.94a158.92,158.92,0,0,0-27.79,14.88c-5.1,3.35-10,7-15,10.4-4.48,3-9,6.09-13.62,8.84C27.05,408.29,20,412.58,14,418.26A16.16,16.16,0,0,0,12.82,419.59ZM525.37,631.5l0-.44-2.44-.7c-3.07-.92-6.22-1.64-9.18-2.81a188,188,0,0,1-21.1-9.84c-7.66-4.2-15.37-8.34-23-12.64a110.17,110.17,0,0,1-19.07-13.29A62,62,0,0,1,439.26,579c-2.29-3.56-4.32-7.3-6.27-11.06-3.37-6.5-5.26-13.53-7.07-20.57-.95-3.7-1.72-7.45-2.37-11.21s-1.11-7.67-1.58-11.52c-.37-3-.67-6-.94-9a31.9,31.9,0,0,1-.12-4.37c.18-3-.08-5.82-2.68-7.84s-5.44-4.21-8.19-6.28c-3.19-2.4-6.47-4.71-9.62-7.18-6.5-5.08-12.93-10.24-19.4-15.36-3.91-3.1-7.84-6.17-11.75-9.27-2.74-2.17-5.41-4.43-8.19-6.55-3.57-2.73-7.26-5.29-10.82-8-2.87-2.21-5.6-4.61-8.42-6.9-1.64-1.33-1.85-1.26-2.87.53a21.86,21.86,0,0,1-1.53,2.3c-.65.86-.63,1.57.32,2.16.68.43,1.36.84,2.05,1.25,2.59,1.54,5.24,3,7.77,4.63,4,2.57,7.88,5.25,11.81,7.91a8.4,8.4,0,0,1,1.08,1,35.12,35.12,0,0,0,3.19,3c1.46,1.11,3.17,1.89,4.64,3q8,6.06,16,12.24,5.68,4.41,11.27,9c3.57,2.91,7.52,5.4,10.32,9.2a5.88,5.88,0,0,0,1.21,1.12c2.19,1.69,4.33,3.46,6.62,5,1.69,1.13,2.11,2.48,2.17,4.47.34,10.9.87,21.79,1.38,32.69.49,10.66,2,21.22,3.42,31.78.38,2.81.78,5.61,1.31,8.39q1.85,9.72,3.85,19.39c.73,3.56,1.46,7.13,2.42,10.63C430,620,432,626.45,433.81,632.9c.46,1.6.75,1.86,2.46,2,5.35.31,10.71.72,16.07.86,6.59.17,13.18.19,19.78.14,14.79-.13,29.59-.14,44.27-2.45C519.42,632.93,522.5,632.67,525.37,631.5ZM374.6,231.07c.21-.35.47-.7.66-1.08,1.44-2.86,2.86-5.72,4.3-8.58q3.36-6.67,6.73-13.35c2.24-4.44,4.43-8.91,6.77-13.3,3.47-6.51,7-13,10.57-19.45,4.2-7.66,8.38-15.32,12.67-22.93a18,18,0,0,1,3.82-5.14,10,10,0,0,0,2.85-3.92c.68-1.52.3-2.09-1.31-2.4-3-.59-6-1.19-9-1.87-2.05-.47-2.31-.46-3.56,1.28-2.3,3.19-4.56,6.41-6.84,9.61l-14.35,20.13c-5.82,8.15-11.61,16.33-17.44,24.47-5.08,7.1-10.22,14.17-15.31,21.27q-9.42,13.11-18.82,26.25c-3.73,5.19-7.49,10.36-11.23,15.55l-9.38,13c-1.29,1.8-2.58,3.61-3.85,5.42-.78,1.13-.51,1.7.82,1.79.25,0,.5,0,.74,0,5.56-.07,11.1,0,16.44,1.87a2.41,2.41,0,0,0,2.65-.79A22.85,22.85,0,0,1,336,276a35.2,35.2,0,0,1,12.92-4.76,2.88,2.88,0,0,0,2.38-1.75c1-2.14,2.08-4.2,3-6.34a202.6,202.6,0,0,1,10.27-20.66c2-3.46,4.11-6.87,6.27-10.23C372,230.54,372.74,230.39,374.6,231.07ZM97.33,249,97,249c-.16.5-.33,1-.48,1.5-.8,2.79-1.49,5.61-2.41,8.35-1.78,5.3-3.62,10.59-5.57,15.84-2.22,6-4.58,12-6.89,17.92-1.54,4-3.12,7.9-4.66,11.86-1.16,3-2.26,6-3.41,9-2.15,5.57-4.32,11.13-6.46,16.7q-2.92,7.58-5.81,15.17c-1.62,4.26-3.21,8.52-4.8,12.79s-3.1,8.44-4.69,12.64c-1.5,4-3.05,7.93-4.58,11.9-1.18,3.1-2.37,6.2-3.53,9.31a10.83,10.83,0,0,0-.36,1.8,6,6,0,0,0,2.38-1c4.47-3.07,8.91-6.17,13.37-9.23a157.66,157.66,0,0,1,22.59-13.25,8.18,8.18,0,0,0,3.28-2.57,61.82,61.82,0,0,0,4.32-7.5c2-4.14,3.76-8.43,5.85-12.54,3.59-7.08,7.37-14.07,11-21.11,1.16-2.22,2.46-4.38,1.9-7.13-1-5-1.85-9.93-2.79-14.9-.9-4.78-1.94-9.54-2.7-14.34-.94-6-1.72-11.95-2.46-17.94-.87-7-1.62-14.09-2.43-21.13C97.58,250.4,97.44,249.7,97.33,249Zm180,24.92c-1-1.61-.93-2.21.5-3.27a8.49,8.49,0,0,1,4.65-1.58,1.1,1.1,0,0,1,1.24,1.09,3.26,3.26,0,0,1-1.19,3.12,42.9,42.9,0,0,0-9.45,11.48A14.73,14.73,0,0,0,271.62,295a7.65,7.65,0,0,0,8.24,6.07c1.21-.14,2.39-.54,3.61-.74a62.57,62.57,0,0,1,6.37-.9,7.12,7.12,0,0,1,4.65,1.52,20.4,20.4,0,0,1,5.39,6.23,10.08,10.08,0,0,1,.71,9.55,30.39,30.39,0,0,0-1.53,4.35,4.91,4.91,0,0,1-3,3.7c-1.81.79-2.83,2.33-3.86,3.86a1.4,1.4,0,0,0,0,1.32,1.53,1.53,0,0,0,1.31.23,16.44,16.44,0,0,0,2.37-1,25.2,25.2,0,0,1,3.49-1.65c5.28-1.53,10-.26,14.08,3.28a6.69,6.69,0,0,0,1.44,1.14c.43.2,1.35.24,1.44.06a2.25,2.25,0,0,0,.1-1.67c-.25-.59-.87-1-1.27-1.56-1.89-2.56-3.56-5.3-3.48-8.57a82.54,82.54,0,0,1,1-10.28,69.52,69.52,0,0,0,1.1-14.53c-.24-4.15-2.15-7.07-6.19-8.52a23.82,23.82,0,0,0-8.36-1.26c-4.13,0-8.26.15-12.38.07-2.95-.06-3.93-1.75-2.73-4.49a25.35,25.35,0,0,1,2-3.73q5.44-8.34,11-16.64c2.66-4,5.53-7.87,7.34-12.35a12.9,12.9,0,0,0,.84-3.93c.1-1.48-.76-2.11-2.24-1.93a6,6,0,0,0-1.41.41,23.4,23.4,0,0,0-8.71,6.05c-2.64,2.66-5.24,5.38-8,7.93a11.38,11.38,0,0,1-5.27,3.28c-.74.16-1.41.13-1.76-.58s.3-1.21.87-1.59a29.92,29.92,0,0,0,2.89-2c1.13-.94,1.14-1.54.09-2.61-1.42-1.45-2.89-2.86-4.41-4.21A52.06,52.06,0,0,0,265.58,241c-2.18-1.05-4.5-1.68-6.62,0A10,10,0,0,0,256.8,244a48.36,48.36,0,0,0-5,16.7,121.34,121.34,0,0,0-.85,13.07c-.25,9.37-.35,18.74-.49,28.1a10.12,10.12,0,0,0,.29,1.75,4.32,4.32,0,0,0,.76-.34c4.79-3.45,9.56-6.93,14.38-10.34a3.84,3.84,0,0,0,1.73-2.67,16,16,0,0,1,1-3.74,32.19,32.19,0,0,1,5.65-9Zm-60.92,98.64c4.43,1,9-1.26,13.35-3.14,7.11-3.07,10.26-9.4,11.43-16.77.43-2.74.64-5.51,1-8.26a12.54,12.54,0,0,0-1.77-8.86c-1.41-2.16-2.67-4.44-4.26-6.47s-3-4.08-5.82-4.57a7.41,7.41,0,0,1-1.76-1,19.79,19.79,0,0,0-3.08-1.56A31.67,31.67,0,0,0,214,320.82a27.41,27.41,0,0,0-6.33,1.13A38.69,38.69,0,0,0,195,329a14.89,14.89,0,0,0-4,4.24,29.44,29.44,0,0,0-3.83,15.4,38.35,38.35,0,0,0,1.22,7.27c1.69,6.8,6.26,11.11,12.42,14C205.5,372.07,210.54,372.67,216.43,372.56ZM334.48,281c.48.3.87.58,1.28.82a44.83,44.83,0,0,1,4,2.33c1.7,1.23,3.25,2.59,3.66,4.88a30.42,30.42,0,0,0,1.44,5.31,28.05,28.05,0,0,1,2.1,8.94,31.37,31.37,0,0,0,.69,4.91c.3,1.51.9,3,1.1,4.48.48,3.69,1.7,7.33.95,11.15a14.26,14.26,0,0,0,.08,3.32,1.47,1.47,0,0,0,1.66,1.55,56.3,56.3,0,0,0,13.21-1.22,25.63,25.63,0,0,0,5.21-1.84,39.89,39.89,0,0,0,3.36-2.23,15.18,15.18,0,0,0,5.15-4.39,60.5,60.5,0,0,0,3.2-5.38c3.08-5.65,2.86-11.7,2-17.81,0-.06-.05-.11-.06-.17-.88-4-2.94-7.43-4.75-11a11.6,11.6,0,0,0-2.77-3.39A26.13,26.13,0,0,0,361,275a47.35,47.35,0,0,0-22.83,3.32C336.87,278.93,335.27,279.33,334.48,281Zm18,183a15.55,15.55,0,0,0-1.19-1.11c-5.19-3.95-10.39-7.87-15.57-11.83a1.6,1.6,0,0,0-2.41.21c-1,1-2,2-3.11,2.88a41.62,41.62,0,0,1-17.77,8.2c-7.58,1.65-15.22,3-22.84,4.43a61.92,61.92,0,0,1-16,.7c-3.12-.24-3-.28-3.72,2.71-2.31,9.38-4.74,18.73-7.12,28.09-.14.56-.18,1.14-.32,2a18.21,18.21,0,0,0,2.21-.51c4-1.52,7.9-3.09,11.86-4.62,6-2.31,11.95-4.58,17.91-6.91,4.81-1.88,9.59-3.84,14.39-5.74,3.71-1.47,7.46-2.87,11.16-4.37,5.53-2.24,11-4.54,16.53-6.84q7.33-3.06,14.62-6.19A8,8,0,0,0,352.44,464Zm-217.51-7.77c-.66-.39-1.2-.76-1.78-1.05-1.68-.84-1.87-1.49-.62-2.9a1.31,1.31,0,0,0,.06-1.95c-.6-.77-1.19-1.68-2.36-1.44-.34.07-.84.53-.85.83-.1,1.7-.08,3.4-.07,5.1,0,.14.22.28.33.43a5.27,5.27,0,0,1,.09,6.33,19.08,19.08,0,0,0-3,5.26,113,113,0,0,0-4.25,10.8c-3,10.43-4,21.16-3.86,32a7.66,7.66,0,0,0,.74,3.2,3.49,3.49,0,0,0,1.9,1.81,55.48,55.48,0,0,0,9.27,1.52,30.46,30.46,0,0,0,13.31-2.6c6.12-2.61,11.44-6.25,15.15-11.92,1.11-1.68,1.09-2.19-.24-3.74-.28-.32-.63-.59-.91-.92-2-2.37-4.28-4.61-6.08-7.15-4-5.63-7.75-11.39-11.52-17.15a25.29,25.29,0,0,1-3.43-6.27,6.39,6.39,0,0,0-3.29-4.11,2.44,2.44,0,0,1-.74-4A25.11,25.11,0,0,1,134.93,456.22Zm87.77-35c0-.94,0-1.59,0-2.25,0-1.72-.21-3.46-.09-5.17.37-5.16.87-10.31,1.29-15.47q.79-9.68,1.54-19.35a9.21,9.21,0,0,0,0-1.66,1.12,1.12,0,0,0-1.38-1.12c-.49.06-1,.19-1.46.26-2.5.33-5,.8-7.49.93A40.17,40.17,0,0,1,201.91,376c-1-.28-1.58.09-1.65,1.13s-.08,2.1-.19,3.14q-1.51,14.53-3.07,29.05c-.25,2.39-.55,4.78-.83,7.16-.09.76,0,1.41,1,1.42,2.52,0,5,.15,7.55,0A36.43,36.43,0,0,1,218,419.35C219.47,419.82,220.87,420.45,222.7,421.18Zm24,89.37c-.87.21-1.41.28-1.91.46-5.68,2-11.35,4.06-17,6-5.05,1.76-10.12,3.45-15.19,5.16-2.11.71-2.3,1.19-1.44,3.24,3,7.08,6,14.15,8.88,21.28,3,7.43,5.76,14.93,8.63,22.4.32.82.71,1.62,1.11,2.53.44-.31.76-.42.81-.6q8-29.35,16-58.73A11.24,11.24,0,0,0,246.67,510.55ZM204.15,422.5a43.71,43.71,0,0,0-5.51.44c-1.46.3-3.21.73-4.15,1.74a30.12,30.12,0,0,0-3.74,5.84c-.26.47-.05,1.2-.06,1.82,0,1.16,0,2.33,0,3.49,0,3.08-.38,6.21.09,9.21a14.45,14.45,0,0,0,8.84,11.5,12.8,12.8,0,0,0,11.24-.22,20.76,20.76,0,0,0,8.41-8.28,25.39,25.39,0,0,0,3.35-17,4.49,4.49,0,0,0-3.06-4,19.26,19.26,0,0,1-2-1C213.33,423.9,209.08,421.94,204.15,422.5Zm65-345.79a19.1,19.1,0,0,0-1.07,1.94c-2.23,5.47-4.43,11-6.66,16.43-1.4,3.41-2.87,6.8-4.25,10.23-.44,1.1-1,2.16.17,3.37,1.87,1.95,3.55,4.08,5.26,6.17,1.29,1.59,1.47,1.6,2.92.11a5.48,5.48,0,0,1,6.19-1.6c2.32.8,3.94,2.44,5.66,4,1.37,1.24,2.64,2.61,4.1,3.71,1.7,1.28,3.65,2.27,5.84,1.74a7.07,7.07,0,0,1,6.53,1.72c2.94,2.51,5.73,5.19,8.59,7.8.41.37.84.73,1.49,1.28.43-1.68.45-2.9-.33-4.07-.91-1.39-1.79-2.8-2.7-4.19q-7.11-10.8-14.24-21.6-4.87-7.39-9.68-14.84c-2.27-3.52-4.45-7.1-6.68-10.64C270,77.85,269.66,77.44,269.13,76.71ZM142.21,413.34l-.53.27a29.14,29.14,0,0,1,.15,3.22,14.45,14.45,0,0,1-3.72,9.22c-1.32,1.4-1.05,2.68.63,3.55.6.31,1.25.52,1.86.8,2.45,1.15,4.93,2.24,7.33,3.49,1.54.81,1.62,2,.48,3.32-.47.56-.88,1.17-1.31,1.77-2.15,3-4.3,6-6.46,8.94-.29.4-.65.74-1,1.12-.66.79-.57,1.42.37,1.93a17.13,17.13,0,0,1,2.38,1.41q3.87,3,7.67,6.05c1.65,1.34,2.39,1.31,3.36-.34,3.53-6,7.12-11.93,10.54-18,1.87-3.31,3.5-6.77,5.14-10.2.74-1.53.3-2.42-1.25-3.1-.34-.14-.72-.19-1-.36-1.74-.88-3.48-1.77-5.2-2.7-1.07-.58-2.06-1.33-3.15-1.88-3.67-1.87-7.39-3.65-11.05-5.53C145.65,415.42,144,414.35,142.21,413.34Zm-25.66,21.4c1.86-.38,3.75-.69,5.59-1.15a15.5,15.5,0,0,0,8.12-4.45,25.14,25.14,0,0,1,3.51-3.25c2.32-1.72,3.14-4.2,3.52-6.83.44-3-1.34-5-3.52-6.7a37.35,37.35,0,0,0-15.41-7.2c-2.56-.51-5-.59-7.33.77s-4.41,3-5.23,5.7A48.81,48.81,0,0,0,104,419a12.63,12.63,0,0,0,.26,5.65,15.76,15.76,0,0,0,4.61,6.79C111.08,433.28,113.43,434.82,116.55,434.74ZM393.1,446.66l0-.65c-1-.49-2.07-1-3.1-1.47a166.83,166.83,0,0,0-28.71-10.62c-4.69-1.3-9.36-2.64-14-4-3-.83-5.93-1.68-8.9-2.47-1.63-.44-2.06,0-1.6,1.64.17.6.38,1.18.51,1.78a10.58,10.58,0,0,0,4,6.26c3.85,3,7.83,5.74,11.72,8.65,4.53,3.4,9,6.81,13.49,10.32a3.3,3.3,0,0,0,3.57.67c1.94-.78,3.85-1.64,5.77-2.47,3.44-1.49,6.88-3,10.31-4.49C388.44,448.81,390.76,447.72,393.1,446.66Zm52.76-158.82c.07-2.88-.29-4-2.21-6a23.51,23.51,0,0,0-3-2.46,39.32,39.32,0,0,0-14.28-6.27c-2.36-.57-2.91-.38-4.35,1.65a35.7,35.7,0,0,0-6.35,17.49,9.07,9.07,0,0,0,3.35,8.4,18.68,18.68,0,0,0,5.08,2.92c2.22.79,4.56,1.59,7,1a13.77,13.77,0,0,0,6.41-3.07c1-1,2.3-1.65,3.37-2.56a10.33,10.33,0,0,0,2.39-2.51A16.45,16.45,0,0,0,445.86,287.84ZM416.2,277.3l-.43-.37L411.28,279a89,89,0,0,1-14.61,5.67c-3,.76-6,1.41-9,2-1.17.23-1.42.81-1.13,1.82.12.41.32.81.41,1.23a71.66,71.66,0,0,1,1.52,7.75A28.12,28.12,0,0,1,387,310.22c-.38,1-.06,1.34,1,1.26a6.1,6.1,0,0,0,.72-.14c5.47-1.23,10.94-2.45,16.4-3.7,2.46-.56,4.91-1.14,7.35-1.78a22.76,22.76,0,0,0,2.59-1c-.41-.57-.61-.87-.83-1.15a13.36,13.36,0,0,1-2.77-8.42,34,34,0,0,1,3.13-14.13C415.2,279.87,415.68,278.58,416.2,277.3ZM255.91,417.88c-8.49-12.43-17.39-23.85-26.64-35.13a6.88,6.88,0,0,0-.56,2.33c-.31,4.92-.5,9.84-.9,14.75-.54,6.81-1.25,13.6-1.86,20.41-.12,1.41.14,1.62,1.54,1.54.37,0,.74-.07,1.11-.11,7.51-1,15-1.94,22.52-2.93C252.56,418.55,254,418.23,255.91,417.88Zm184.64-113.2c.85.33,1.33.57,1.85.73,2.18.64,4.37,1.28,6.56,1.89,2.67.75,5.34,1.5,8,2.19,1.61.41,2,.09,2.12-1.53,0-.37,0-.74.06-1.11a15.31,15.31,0,0,1,3.43-8.78c1.69-2.1,3.48-4.12,5.29-6.12a10.45,10.45,0,0,1,1.79-1.26c.71-.52,1.4-1.05,2.37-1.77a11.52,11.52,0,0,0-1.7-.66,111,111,0,0,1-18-5.32c-1.41-.5-1.71-.27-1.79,1.24-.14,2.88-.08,5.81-1.36,8.5-.92,1.93-2.08,3.76-2.87,5.75a9.89,9.89,0,0,1-4.26,4.91A12.37,12.37,0,0,0,440.55,304.68Zm78-4.76a30.43,30.43,0,0,0-2.84-9.7c-.39-.88-1.08-.93-1.85-.65a26.54,26.54,0,0,1-3.09,1.19c-3.59.81-7.22,1.48-10.81,2.26-2.88.63-5.75,1.31-8.6,2.06-1.33.35-1.61,1-1.14,2.21,1.38,3.68,2.79,7.36,4.25,11,.65,1.64.92,1.75,2.67,1.43s3.25-.69,4.87-1.05A65.85,65.85,0,0,0,516.73,303,3,3,0,0,0,518.52,299.92ZM260.76,235.79a8.85,8.85,0,0,0,1.35.26A12.32,12.32,0,0,1,269,237.8c1.36.84,2.77,1.59,4.16,2.38,1.6.9,1.76.85,2.76-.73a67.16,67.16,0,0,0,6.44-13.23c1-2.71,1.92-5.45,2.62-8.24a11.93,11.93,0,0,0,.14-4.38c-.25-2.06-1-2.59-3-2.12A13.51,13.51,0,0,0,278,213a29.91,29.91,0,0,0-8.4,7.68c-2.61,3.71-4.92,7.62-7.28,11.5A27,27,0,0,0,260.76,235.79ZM169,438.85c4.55,1.78,8.72,3.43,12.9,5a21.15,21.15,0,0,0,3,1c1.17.27,1.57-.06,1.7-1.26.07-.67,0-1.36.08-2,.28-2.82.38-5.67.91-8.44.82-4.23-1-7.47-5.12-8.79-3.57-1.15-7.09-2.47-10.6-3.77-6.41-2.37-12.8-4.79-19.2-7.18a6.38,6.38,0,0,0-1.25-.17,53,53,0,0,0,7.41,4.72c4.27,2.18,8.63,4.18,12.94,6.27a7.16,7.16,0,0,1,1.87,1.16,1.68,1.68,0,0,1,.46,1.43c-1.23,3.13-2.56,6.23-3.87,9.34C169.79,437,169.38,437.89,169,438.85Zm-65.41,4.31,1.8,1.5c1.79,1.5,3.55,3,5.38,4.48,1.15.9,1.23,1.88.91,3.25a19.49,19.49,0,0,1-2.54,6.44c-.7,1.07-.41,1.68.81,2.36,2.1,1.16,4.2,2.31,6.33,3.43.76.4,1.57.69,2.36,1a1.78,1.78,0,0,0,2.49-.89c1.1-2,2.26-3.94,3.25-6,1.19-2.46.84-3.76-1.06-5.73-1.45-1.51-2.83-3.08-4.18-4.67-3.49-4.12-3.34-3.32-.91-8.29.81-1.65.72-1.9-1.09-1.93a19.47,19.47,0,0,1-7-1.24,1.69,1.69,0,0,0-2.15.53C106.46,439.27,105.07,441.13,103.54,443.16ZM247.25,259.05l.48.06c.21-.78.47-1.55.62-2.34A39.32,39.32,0,0,1,251.51,246c2.56-5,5.3-10,7.91-15,.38-.73.9-1.76.65-2.37a11.24,11.24,0,0,0-2.43-3.8,25.71,25.71,0,0,0-4.47-3.23,11.7,11.7,0,0,0-3.19-1.37,2.56,2.56,0,0,0-3.39,2,21.54,21.54,0,0,0-.87,4.69c-.15,4.49-.32,9-.13,13.48.24,5.71.83,11.41,1.29,17.12A9.57,9.57,0,0,0,247.25,259.05Zm271.9,47.05a4.81,4.81,0,0,0-1,.31c-2.92,1.42-5.82,2.9-8.75,4.3-1.49.71-3.1,1.18-4.55,2-2.31,1.25-4.53,2.68-6.79,4-1.2.71-1.38,1.08-.82,2.39.74,1.76,1.55,3.48,2.37,5.2a4.77,4.77,0,0,0,.89,1.17,1.76,1.76,0,0,0,2.43.44c1.65-.92,3.43-1.64,5.17-2.41,4.66-2.05,9.32-4.11,14-6.14a1.46,1.46,0,0,0,.88-2.21C521.72,312.22,520.5,309.29,519.15,306.1ZM136.93,446.63c2.8-2.54,4.52-5.62,6.51-8.49.62-.89,0-1.59-.94-2-2.87-1.11-5.72-2.25-8.58-3.38a2.61,2.61,0,0,0-2.42.34c-2.67,1.49-5.44,2.82-8.14,4.27a3.32,3.32,0,0,0-1.22,1.22c-.61,1.13-1,2.37-1.67,3.48a1.44,1.44,0,0,0,.45,2.19c.93.71,1.82,1.48,2.67,2.27,1.55,1.46,1.62,1.47,2.87-.27,2.28-3.15,5.81-3.6,8.83-1.13C135.8,445.6,136.28,446.05,136.93,446.63Zm335.62-140c.37.53.64,1,1,1.37a11.59,11.59,0,0,1,1.13,1.21c1.75,2.95,3.53,5.9,5.14,8.93.92,1.73,1.14,1.92,2.91.9q3-1.71,5.89-3.44c2.22-1.3,2.41-1.83,1.72-4.34-.88-3.2-1.72-6.41-2.56-9.62-.38-1.43-.85-1.63-2.26-1-1.84.86-3.68,1.72-5.52,2.56C477.57,304.35,475.17,305.44,472.55,306.64Zm-3.9-.06a13.83,13.83,0,0,1,2.08-2.62,34.18,34.18,0,0,1,4.7-2.88c3.9-2,4-2.13,2.58-6.28a2,2,0,0,0-.26-.68c-.29-.3-.65-.77-1-.75-1.82.07-3.82-.42-5.38.73a20.53,20.53,0,0,0-6.57,7.07c-2.22,4.36-1.54,8.78,2.15,12a35.78,35.78,0,0,0,4.51,3.17,6.79,6.79,0,0,0,2,.42c-.4-1.08-.61-1.76-.9-2.4-.71-1.63-1.81-3.18-2.08-4.88C470.34,308.26,470.19,307.32,468.65,306.58Zm12.51-22.51c0,1.9.45,2.36,2.09,2.13a28.46,28.46,0,0,0,2.9-.54q7.88-2,15.72-4.06a17.17,17.17,0,0,0,2.63-.85c1.75-.77,2.05-1.57,1.36-3.31-.18-.46-.37-.91-.57-1.36-.73-1.7-.77-1.65-2.39-.9a29,29,0,0,1-5.29,2.14c-4.66,1.14-9.36,2.12-14.07,3a2.27,2.27,0,0,0-2.15,2.1C481.31,283.07,481.22,283.68,481.16,284.07ZM469,24.64c.36-.05.78,0,1-.15,3.17-2.16,6.32-4.36,9.68-6.68L472,8.41C471,13.84,470,19.17,469,24.64ZM302.59,278c-1.2-1-2.07-1.73-2.84-2.51-1.28-1.3-2.5-2.68-3.76-4s-1.41-1.28-2.41.26c-1.24,1.9-2.45,3.81-3.65,5.73-.7,1.13-1.35,2.28-2.16,3.66a5.84,5.84,0,0,0,1.64.23c4-.84,8-1.72,12-2.62A5.72,5.72,0,0,0,302.59,278ZM483.19,297c2.5-.14,3.43-.77,4.37-2.71a4.39,4.39,0,0,1,1-1.3,16.16,16.16,0,0,1,7-3.46c2.9-.78,5.89-1.21,8.83-1.86.44-.09,1.1-.58,1.11-.9,0-.85-.72-.82-1.36-.73a7.94,7.94,0,0,0-1.07.26c-1.35.42-2.68.92-4.05,1.26-3.28.82-6.58,1.54-9.85,2.35-1.79.45-3.56,1-5.33,1.51a1.37,1.37,0,0,0-1.16,1.61C482.9,294.27,483,295.55,483.19,297Zm-84.27,17,0-.41a7.06,7.06,0,0,0-1.77-.07q-5.85,1.28-11.68,2.66a2.3,2.3,0,0,0-1.86,2.28Zm92.74,12.53a12.11,12.11,0,0,0,1.87-.18,1.42,1.42,0,0,0,.89-.74,2.42,2.42,0,0,0-2.61-2.93l-.9.15c-2.05.38-2.33.94-1.56,2.86C489.84,326.86,490.89,326.28,491.66,326.47ZM141.4,463.41c-1.42.38-1.88.9-1.39,1.63a26,26,0,0,0,2.2,2.51l.48-.27Zm-2.26-5.7-2.79,2.22c1.29.56,2.39.68,3.28-.16C140.25,459.18,140.05,458.42,139.14,457.71ZM279.19,240.16l-.54-.25a11,11,0,0,0-1.47,2.19c-.12.31.4,1.16.81,1.34.65.28.95-.33,1-.95C279.07,241.71,279.13,240.93,279.19,240.16Zm-7.69-31.27c-.83-.51-1.71-.85-2.4.1-.4.55-.12,1.19.61,1.44S271.06,210.31,271.5,208.89Zm-30.22-14.28c-.4.73-.81,1.15-.74,1.45s.57.77.88,1.15c.31-.37.85-.72.87-1.09S241.81,195.35,241.28,194.61ZM491.94,317.42l-2.44,1.52C491.55,319.65,491.9,319.47,491.94,317.42Z" transform="translate(-0.37 -0.37)"/><path class="cls-1" fill="#FFFFFF" d="M612.37,265.3c-6.77.29-13.55.47-20.31.91-5.23.35-10.44.94-15.64,1.58-4.58.56-9.16,1.23-13.71,2-9.4,1.67-18.81,3.34-28.17,5.22-7.48,1.51-14.9,3.34-22.35,5-.54.12-1.09.24-1.64.32-1.64.24-2.08-.18-1.55-1.81a3.25,3.25,0,0,0-.32-3.11,34.07,34.07,0,0,1-2.07-3.49,1.88,1.88,0,0,0-2.64-.92c-1.28.44-2.53,1-3.83,1.36-3.55,1-7.11,2-10.69,2.87A38,38,0,0,0,481,278a4.92,4.92,0,0,0-2.68,3.3c-.84,3.05-.51,3.15-4,2.55a89.06,89.06,0,0,1-17.72-5.1c-2.94-1.16-6-2.36-9.28-2.14a3.37,3.37,0,0,1-1.89-.63,32.21,32.21,0,0,0-9.45-4.54,3.93,3.93,0,0,1-1.57-.92c-3.9-3.59-7.7-4.15-11.76-1a31,31,0,0,1-8.3,4.2c-3.15,1.23-6.27,2.53-9.38,3.86a76.3,76.3,0,0,1-17.61,4.79,3.31,3.31,0,0,0-.55.08c-2.3.85-3.78-.09-5.15-2a26.25,26.25,0,0,0-4-3.86c-6-5.32-13.12-7-20.94-6.52-.57,0-1.14,0-1.83,0,1.17-3.33,8.54-21.8,16.92-33.82-.51,1.23-1,2.48-1.52,3.68-3.47,7.33-7,14.66-10.44,22a19.55,19.55,0,0,0-1,2.39,11.38,11.38,0,0,0-.24,1.67l.57.21c1.08-1.82,2.2-3.61,3.23-5.46,3-5.43,6-10.87,9-16.33,1.93-3.57,3.78-7.19,5.65-10.8q5.48-10.56,10.92-21.15c2.89-5.63,5.7-11.31,8.64-16.91,2.29-4.36,4.75-8.62,7.08-12.94,2.42-4.5,4.77-9,7.17-13.53,1-2,2.13-3.88,3.21-5.81a5.67,5.67,0,0,1,.5-.68l.36.12a7.05,7.05,0,0,1-.24,1.47c-2.14,5.36-4.34,10.7-6.47,16.06s-4.2,10.78-6.27,16.18a32.44,32.44,0,0,0-1.07,3.34,7.05,7.05,0,0,0,0,1.62c1.67-.47,2.25-1.78,2.86-2.88a159.83,159.83,0,0,0,8.47-18c1.8-4.45,3.65-8.87,5.43-13.33,2.25-5.65,4.43-11.34,6.66-17,1-2.46,2-4.9,2.95-7.36A1.65,1.65,0,0,1,429,141.6c4-.25,8.1-.54,12.15-.81.11,0,.22.11.49.25-.38,3.17,2.39,4.34,4.26,6.05a74,74,0,0,0,15,11,42.07,42.07,0,0,0,14.83,4.26,39.47,39.47,0,0,0,19.51-2.89,85.15,85.15,0,0,0,28.73-18.37,39.56,39.56,0,0,0,8-11,33.85,33.85,0,0,0,1.55-4.72c.21-.65.39-1.3.63-1.93a1.28,1.28,0,0,1,1.6-.85,63.24,63.24,0,0,0,24.77-1.37,51.34,51.34,0,0,0,11.68-4.51c2.38-1.29,2.66-1.25,4.61.69q7.28,7.22,14.58,14.4,9.9,9.69,19.83,19.33a10.18,10.18,0,0,0,1.16.89Z" transform="translate(-0.37 -0.37)"/><path class="cls-1" fill="#FFFFFF" d="M612.37,393c-3.76-.25-7.5-.59-11.26-.72-6.22-.22-12.44-.38-18.67-.43a273,273,0,0,0-28.46.72,217.77,217.77,0,0,0-24.51,3.5,258.39,258.39,0,0,0-25.26,6.34c-6.68,2.14-13.44,4.07-20,6.45-7.7,2.77-15.28,5.87-22.88,8.93q-10.44,4.2-20.78,8.64c-8.21,3.5-16.37,7.12-24.56,10.67-4.91,2.13-9.84,4.21-14.76,6.31a4.78,4.78,0,0,1-4.11-.3c-2.51-1.19-5-2.42-7.48-3.64a162.88,162.88,0,0,0-29-10.5c-6.83-1.88-13.65-3.81-20.47-5.73-1.07-.3-2.11-.7-3.17-1a2.65,2.65,0,0,1-2.22-2.6c-.18-4.74-.51-9.48-.44-14.21.08-5.91,1.66-11.54,3.72-17.06,1.77-4.73,3.53-9.48,4.82-14.34,1.78-6.72,3.2-13.54,4.62-20.34a116.59,116.59,0,0,0,2.15-19.27c.05-1.32.36-1.67,1.73-1.5a36,36,0,0,0,12.83-1,35.2,35.2,0,0,0,11.69-4.9c.05,0,.12-.07.15-.12,2.07-3.48,5.86-3.78,9.19-4.83,5.28-1.65,10.67-3,15.95-4.68,3-1,6-2.27,9-3.43,3.9-1.53,7.76-3.15,11.7-4.54a15.39,15.39,0,0,1,4.55-.63c2.66-.09,5.3-.13,7.81-1.19,1.74-.73,3.29-.37,5.09.38,4.59,1.93,9.35,3.46,14.05,5.09a42.27,42.27,0,0,0,4.8,1.36,10.74,10.74,0,0,1,5.47,3.23,18.26,18.26,0,0,0,7.06,4.26,9.08,9.08,0,0,0,3.61.25,2.35,2.35,0,0,1,2.42.84,2.31,2.31,0,0,0,1.85.82,45.4,45.4,0,0,0,4.92-1.46,10.76,10.76,0,0,0,1.23-.6c.25.91.48,1.69.67,2.49.37,1.58.67,3.18,2.61,3.67.25.06.49.38.62.64a2.38,2.38,0,0,0,2.15,1.21c1.16.11,2.34.14,3.5.25a31,31,0,0,1,4,.53c1.84.46,3.47-.29,5-.92,7.18-2.93,14.29-6,21.41-9.06a9.69,9.69,0,0,0,1.27-.76c2.51-1.57,3.19-3.41,2.08-6.2a41.12,41.12,0,0,0-2.27-4.43c-.38-.7-.85-1.35-1.3-2a9.22,9.22,0,0,1-1.52-5.54c.07-4.46-.58-8.86-3.2-12.7-.62-.91-1.21-1.84-1.89-2.7a1.75,1.75,0,0,0-1-.63,5.68,5.68,0,0,0-1.84,0c-1,.16-2,.44-3.08.62-.72.12-1.69.73-2-.44s.69-1.29,1.45-1.48c2.81-.68,5.63-1.35,8.45-2,7-1.56,14-3.27,21.13-4.6,9.69-1.81,19.41-3.48,29.16-4.93a274.22,274.22,0,0,1,33.11-3.08c3.08-.08,6.16-.2,9.25-.3Z" transform="translate(-0.37 -0.37)"/><path class="cls-1" fill="#FFFFFF" d="M.37,428.47c3.9-1.31,7.78-2.69,11.72-3.9,3.58-1.1,7.2-2.13,10.85-3,5.16-1.17,10.34-2.43,15.58-3.11a120.72,120.72,0,0,1,28-.24c6.31.65,12.56,1.79,18.84,2.72.53.08,1,.27,1.54.39.39,1.25-.52,1.81-1,2.5-2.51,3.26-5.15,6.43-7.54,9.78a35.11,35.11,0,0,0-2.88,5.55c-.14.31.16.84.26,1.27.35-.18.81-.26,1-.54,1.86-2.22,3.66-4.48,5.51-6.71,2.84-3.39,5.69-6.79,8.57-10.14.72-.83,1.65-1.48,2.44-2.26,2.06-2,4.08-4.07,6.15-6.07a16.73,16.73,0,0,1,1.91-1.38,8.5,8.5,0,0,1-.14,1.71,18.66,18.66,0,0,0-.93,8.93,19.36,19.36,0,0,0,4.27,9.26c1.29,1.62,1.29,1.64.15,3.34q-2,3.06-4,6.2a2.46,2.46,0,0,0,.39,3.08c1.84,2.06,3.7,4.12,5.7,6,1.65,1.56,1.69,1.46.32,3.39-1.25,1.75-2.29,3.65-3.52,5.42-1.94,2.82-2.12,2.84-4.75.74-3.88-3.08-6.93-7-10.43-10.44-3.24-3.18-6.82-6-10.26-9a1.42,1.42,0,0,0-.61-.38c-.41-.06-1-.15-1.21.05a1.25,1.25,0,0,0-.19,1.15,9.8,9.8,0,0,0,1.45,2.54q7.22,8.29,14.54,16.49a52.28,52.28,0,0,0,3.94,3.63c2.16,2,5.67,2.65,8.23-.13.72-.78,1.62-1.83,2.5-1.89s1.63,1.12,2.5,1.68c2,1.35,4.1,2.71,6.2,4a6.06,6.06,0,0,0,5.83.39,13.16,13.16,0,0,1-.56,2.44,60.6,60.6,0,0,0-4.73,17,124.91,124.91,0,0,0-1.41,20.27,29.9,29.9,0,0,0,.27,4.24c.59,3.67,2.48,5.14,6.21,5.27,4,.13,8,.4,12,.63a12.27,12.27,0,0,1,1.82.4,14.72,14.72,0,0,1-1.38,1c-3.56,1.94-7.24,3.69-10.68,5.83a55.06,55.06,0,0,0-7.28,5.66c-.89.79-1.3,2.12-2.15,3.6a10.05,10.05,0,0,0,2.33,0c5.53-1.7,11-3.48,16.56-5.16s11.21-3.3,16.81-5a47.12,47.12,0,0,1,15.53-1.81,35.22,35.22,0,0,1,13,3.16,10.76,10.76,0,0,1,1.8,1.46l-6.9,2.3c-7,2.36-14,4.63-21,7.09-5.46,1.93-10.85,4.05-16.24,6.15-5.56,2.16-11.15,4.24-16.61,6.63-6.36,2.79-12.61,5.85-18.88,8.83C92.59,563,85.28,566.43,78.08,570c-5.72,2.87-11.33,6-17,9s-11.5,6.18-17.18,9.39a236.36,236.36,0,0,0-22.85,14.26c-5.08,3.7-10.21,7.32-15.32,11l-5.4,3.86Zm52.7,78c.62-1.93-1.07-3.72-3.51-3.67Zm.5-5.67c.41,1.56.75,2.82,1.08,4.08C55.67,503.11,55.35,501.9,53.57,500.83Z" transform="translate(-0.37 -0.37)"/><path d="M612.37,720.41c-4.65-.58-9.29-1.21-13.94-1.74-6.68-.75-13.35-1.53-20-2.13q-18.42-1.66-36.85-3.12c-7.8-.62-15.6-1.23-23.42-1.57-13.12-.59-26.24-1.22-39.36-1.37q-29.13-.35-58.26,0c-13.06.15-26.12.76-39.17,1.3-10.1.41-20.2.9-30.29,1.57-12,.79-24,1.75-36,2.75q-12.9,1.08-25.77,2.48c-11.58,1.28-23.15,2.62-34.7,4.13-13.44,1.76-26.86,3.67-40.27,5.65-10.24,1.51-20.46,3.17-30.67,4.87-8.82,1.46-17.63,2.94-26.39,4.67-8,1.59-16,3.47-24,5.33-6.41,1.5-12.81,3.08-19.17,4.79-4.94,1.32-9.83,2.81-14.7,4.36C93.92,754.15,88.42,756,83,758q-9.94,3.69-19.74,7.77-9.28,3.84-18.42,8.06c-5.92,2.74-11.74,5.69-17.58,8.58s-11.92,5.9-17.86,8.88c-3,1.51-6,3.09-9,4.64v-4.07L13,785.43c5.17-2.6,10.32-5.23,15.51-7.79,5.41-2.66,10.81-5.36,16.3-7.85,6.72-3,13.52-5.92,20.32-8.79,4.42-1.87,8.86-3.69,13.35-5.39s8.78-3.22,13.23-4.66q10.62-3.45,21.31-6.66c3.47-1,7-1.88,10.54-2.76,4.54-1.14,9.07-2.3,13.63-3.34s9.4-2,14.1-3c5.12-1.07,10.23-2.23,15.38-3.15,9.65-1.72,19.31-3.33,29-4.95q6.84-1.14,13.7-2.16,10.88-1.63,21.77-3.19c8.84-1.26,17.68-2.58,26.55-3.65,13.77-1.67,27.55-3.2,41.34-4.7,9.25-1,18.51-2,27.78-2.7,12.48-1,25-1.78,37.46-2.51,11-.64,22-1.2,33.06-1.55,11.77-.37,23.54-.5,35.32-.66,9.43-.13,18.86-.26,28.29-.17,15.48.14,31,.18,46.42.76,14.4.55,28.8,1.63,43.18,2.71,12.9,1,25.79,2.18,38.67,3.42,7.12.68,14.2,1.63,21.3,2.45.61.07,1.23.07,1.85.1Z" transform="translate(-0.37 -0.37)"/><path class="cls-1" fill="#FFFFFF" d="M.37,400.72c3.23-4.5,6.47-9,9.67-13.51,2.33-3.29,4.62-6.61,7.11-9.83,0,1.41-.8,2.52-1.38,3.7C12.39,388,9,394.87,5.59,401.79a47.49,47.49,0,0,0-1.93,5,11.06,11.06,0,0,0-.33,2l.45.16a10.83,10.83,0,0,0,1.08-1.37c2.78-4.86,5.52-9.75,8.28-14.62,4.21-7.44,8.33-14.94,12.68-22.3,5.22-8.83,10.76-17.49,16-26.33q9.41-16,18.44-32.18c3.76-6.77,7.15-13.76,10.65-20.67,2.31-4.56,4.54-9.15,6.79-13.74.61-1.24,1.18-2.5,2-4.17l.94,2.24c.44,1.07.71,2.21,1.82,2.91.76.49.48,1.29.2,2q-2.06,5.14-4.09,10.3c-1.55,4-3.08,7.9-4.62,11.85-2.31,5.9-4.65,11.79-6.92,17.7s-4.43,11.73-6.67,17.6c-1.38,3.62-2.86,7.21-4.2,10.85-2,5.49-4,11-5.91,16.52-1.63,4.78-3,9.64-4.71,14.39-1.48,4.16-3.27,8.22-4.9,12.32-.53,1.32-.94,2.69-1.53,4a4.24,4.24,0,0,1-1.42,1.8c-4.16,2.62-8.38,5.14-12.58,7.7A67.39,67.39,0,0,0,8.46,420.28a9,9,0,0,1-3.91,2.65c-1.38.52-2.78,1-4.18,1.47Z" transform="translate(-0.37 -0.37)"/><path class="cls-1" fill="#FFFFFF" d="M.37,333.75c.34-.9.71-1.8,1-2.71,1.63-4.84,3.2-9.69,4.87-14.51,1.39-4,2.88-8,4.31-12,.3-.87.47-1.79.8-2.65a6.29,6.29,0,0,1,.87-1.28c.38.33.9.6,1.1,1a64.73,64.73,0,0,0,8.19,12.71c2.66,3.31,5.58,6.41,8.25,9.7s5.43,7,8.13,10.51c.68.87,1.34,1.78,2.09,2.58a2,2,0,0,1,.19,2.81c-2.29,3.72-4.51,7.48-6.75,11.23-1.67,2.79-3.28,5.62-5,8.37a3.94,3.94,0,0,1-1.92,1.55A6.89,6.89,0,0,0,23,363.62c-3.21,4.35-6.41,8.72-9.52,13.15s-6,8.83-9.07,13.24c-1.29,1.87-2.66,3.69-4,5.53Z" transform="translate(-0.37 -0.37)"/><path d="M68.54,675.61a6.82,6.82,0,0,1,1,1.22c1.4,2.85,2.78,5.72,4.09,8.62a9.14,9.14,0,0,1,.29,2.37l-1.63-1c-1.5,1-1.55.95-2.52-.49A17.16,17.16,0,0,0,59,679.22c-.7-.16-2,.1-1.83-1,.19-1.31,1.38-.58,2.13-.45a18.72,18.72,0,0,1,10.91,6.34,4.26,4.26,0,0,0,1.24,1c-.34-3.38-3.54-5.73-3.33-9.25Z" transform="translate(-0.37 -0.37)"/><path d="M532,564.55c-1.36,3.94-.88,7.65.17,11.58a2.31,2.31,0,0,1-1.9-2.14c-.12-.91-.19-1.83-.35-2.74a14.12,14.12,0,0,0-.46-1.66l-.52,0a5.56,5.56,0,0,0-.55,1.5c-.09,1.22,0,2.45-.06,3.68a10.19,10.19,0,0,1-.32,1.61l-.4,0c-.19-.27-.53-.54-.55-.82-.16-2.8-.52-5.6.8-8.31.63-1.3,1.32-2.15,2.8-2.23A6.23,6.23,0,0,0,532,564.55Z" transform="translate(-0.37 -0.37)"/><path d="M567.26,675.38a14.16,14.16,0,0,1-1.39,1.65,35.25,35.25,0,0,0-8.29,10c-.6,1.14-1,2.36-1.51,3.55-.18.41-.36.83-.61,1.43-1.13-1.16-.75-2.22-.38-3.22a25.79,25.79,0,0,1,4.89-8c1.52-1.76,3.24-3.35,4.91-5A1.78,1.78,0,0,1,567.26,675.38Z" transform="translate(-0.37 -0.37)"/><path d="M237.93,699.61l-.42-4.23.58-.16c.38.79.79,1.57,1.12,2.37.55,1.37,1,2.79,1.58,4.12.81,1.75.72,2-1.15,2.54-.23.06-.47.1-.84.17a5.22,5.22,0,0,0-.58-1.07c-.92-1.05-1.83-2.1-2.84-3.05-.76-.7-1.7-1.21-2.49-1.88-.19-.17-.12-.65-.18-1,.39,0,.86-.21,1.15,0,.86.46,1.63,1.09,2.47,1.59A13,13,0,0,0,237.93,699.61Z" transform="translate(-0.37 -0.37)"/><path d="M538.75,681.34c1.48,1.65,2.83,3,4,4.48,1.95,2.6,3.82,5.26,5.57,8a2.86,2.86,0,0,1,.12,3.55c-.27-.25-.58-.41-.65-.64-1.09-3.92-3.61-6.94-6.23-9.9-.86-1-1.72-1.94-2.56-2.92S538.26,683.05,538.75,681.34Z" transform="translate(-0.37 -0.37)"/><path d="M551.16,694.87c-1.88-5.89-4.16-11.51-3.35-17.71l.6-.19a5.78,5.78,0,0,1,.68,1.62,50.08,50.08,0,0,0,1.7,10.33c.41,1.29.86,2.56,1.18,3.86C552.2,693.76,552.11,693.78,551.16,694.87Z" transform="translate(-0.37 -0.37)"/><path d="M541.1,489c.33.22.84.37,1,.68q2.27,5.91,4.4,11.89c.12.32-.14.77-.6,1.3a8.94,8.94,0,0,1-1.11-1.69c-1.29-3.39-2.52-6.8-3.75-10.22a13.28,13.28,0,0,1-.36-1.71Z" transform="translate(-0.37 -0.37)"/><path d="M536,573.48c-2.27-3.86.86-14.68,4.09-15.92a66.15,66.15,0,0,0-3,7.69A66,66,0,0,0,536,573.48Z" transform="translate(-0.37 -0.37)"/><path d="M549.32,501.2c-1.64-2.73-1-10.44,1.31-13.17.12.79.4,1.39.24,1.82-1.23,3.33-1,6.8-1.07,10.24a3,3,0,0,1-.13.72C549.65,500.91,549.52,501,549.32,501.2Z" transform="translate(-0.37 -0.37)"/><path d="M498.07,439.1a7.59,7.59,0,0,1,1.3,1.22,46.28,46.28,0,0,1,2.9,4.87c.4.81,1,1.92-.34,2.9l-4.18-8.7Z" transform="translate(-0.37 -0.37)"/><path d="M539.29,494.4c.34.36.83.66,1,1.09.74,1.86,1.4,3.76,2,5.66a1,1,0,0,1-.16,1c-.21.15-.68,0-1-.11a1.23,1.23,0,0,1-.57-.68c-.64-2-1.24-4-1.82-5.95a1.71,1.71,0,0,1,.09-.69Z" transform="translate(-0.37 -0.37)"/><path d="M243.15,703.45c-1.5-2.82-.51-6.58,2.32-9.3.26,1.86-1.09,3.05-1.26,4.54S243.57,701.62,243.15,703.45Z" transform="translate(-0.37 -0.37)"/><path d="M78,674.66a30.21,30.21,0,0,0-1.83,5,34.1,34.1,0,0,0-.07,5.66C73.86,683.35,74.94,677.25,78,674.66Z" transform="translate(-0.37 -0.37)"/><path d="M330.37,564.27a14,14,0,0,1,.19,6C329.09,569.19,329,566.29,330.37,564.27Z" transform="translate(-0.37 -0.37)"/><path d="M324.62,571.86c-.36-1.85-.67-3.48-1-5.11l.48-.15c.51,1.36,1.11,2.7,1.48,4.1C325.81,571.47,325.47,572.15,324.62,571.86Z" transform="translate(-0.37 -0.37)"/><path d="M509.37,443.47c.11-2.46.31-2.86,1.87-4C511.56,440.93,510.64,443,509.37,443.47Z" transform="translate(-0.37 -0.37)"/><path d="M505,445c-.33-1.45-1-2.91,0-4.39A5.8,5.8,0,0,1,505,445Z" transform="translate(-0.37 -0.37)"/><path d="M157.81,41.5c2.31.59,4.65,1.1,6.94,1.78,1.79.53,1.87.49,2.63-1.13C170,36.66,174,34,180,33.86a17,17,0,0,1,11.17,4.23,2.4,2.4,0,0,1,.64,3.53c-1,1.48-2.12,1.87-3.59,1s-2.58-1.65-3.88-2.45A12,12,0,0,0,175.6,39a5.11,5.11,0,0,0-4.3,4.06c-.25,1.08-.37,2.19-.58,3.28a4,4,0,0,1-5.7,3c-2.43-1-4.77-2.4-7.5-2.51-1.1,0-2.21,0-3.32,0a4.3,4.3,0,0,0-4.09,3c-.86,2.28-1.4,4.69-2,7.06-.21.77-.25,1.59-.52,2.34s-.74,1.46-1.73,1.36A1.44,1.44,0,0,1,144.53,59a30.36,30.36,0,0,1,.42-6.41A14.85,14.85,0,0,1,149.31,45,13.4,13.4,0,0,1,157.81,41.5Z" transform="translate(-0.37 -0.37)"/><path d="M70.91,48.43c2,.18,4.06.23,6.06.55,2.2.35,2.75,2,1.4,3.77s-2.31,2-4.44,1a4,4,0,0,0-1.4-.36c-3.83-.17-7.64-.19-11.34,1-2.42.78-4.16,2.35-4.31,5a14.92,14.92,0,0,0,.53,5.82c1,2.73-1.33,5.52-4.19,5.54-1,0-2,0-3,0-4.7-.08-7.57,2.24-9,6.64A35.84,35.84,0,0,1,38.71,83a2,2,0,0,1-1.59.86c-.89-.1-1.06-1-.87-1.75,1-4.26,2.19-8.49,5.24-11.86a11.4,11.4,0,0,1,7-3.76c.67-.1,1.35-.15,2-.26,1.54-.24,1.72-.51,1.74-2a19,19,0,0,1,.23-4.41,13.52,13.52,0,0,1,8.43-9.58C64.13,48.82,67.5,48.66,70.91,48.43Z" transform="translate(-0.37 -0.37)"/><path d="M30.94,171.42a50.31,50.31,0,0,0-5.06.82,4.64,4.64,0,0,0-3.29,3.67c-.33,1.32-.54,2.66-.77,4-.28,1.57-1,2.59-2,2.56s-1.59-1.08-1.72-2.74a12.23,12.23,0,0,1,6.42-11.25,15.46,15.46,0,0,1,4.52-1.41c2.36-.48,2.37-.4,2.55-2.74A11.74,11.74,0,0,1,34.75,157c2.54-2.84,8.87-3.69,12.5-.48,1.54,1.36,1.8,1.95,1.11,3.6a2.58,2.58,0,0,1-4.18,1,6.88,6.88,0,0,0-4.5-1.89c-2.14-.09-3.32.84-3.36,3a11.6,11.6,0,0,0,.65,4.13c1,2.78-.66,5.39-3.6,5.36-.8,0-1.6-.08-2.4-.12Z" transform="translate(-0.37 -0.37)"/><path d="M312.49,769.34a45.63,45.63,0,0,0,2.49,5.25c1.58,2.47,3.39,4.8,5.12,7.18,1.3,1.78,2.63,3.54,3.69,5-.3,1.11-.53,1.8-.67,2.51s-.62,1-1.27.51a5.19,5.19,0,0,1-.49-.55c-4.86-5.3-10.8-9.28-16.53-13.5-2.22-1.64-4.46-3.24-6.64-4.92a8.11,8.11,0,0,1-1.22-1.66,2.75,2.75,0,0,1,2.64.72q5.58,4.1,11.1,8.25c2.7,2,5.36,4.12,8.05,6.16a7.63,7.63,0,0,0,1.06.56l.33-.31c-.85-1.14-1.73-2.26-2.54-3.42-1.58-2.27-3.2-4.51-4.65-6.86a8.21,8.21,0,0,1-.84-3A6.79,6.79,0,0,1,312.49,769.34Z" transform="translate(-0.37 -0.37)"/><path d="M180,745.29c-2.57,1.63-5.05,3.43-6.12,6.35a17.32,17.32,0,0,0-.34,8.93c.54,3.16,3.28,4.8,4.93,7.21a6.88,6.88,0,0,1-5.1-3.59,15.2,15.2,0,0,1,.56-15.8,9.43,9.43,0,0,1,5-3.54c.25-.09.57,0,.86.06Z" transform="translate(-0.37 -0.37)"/><path d="M329.2,785.59c-.14-4.66,9.77-14.19,16.8-14.47a15.14,15.14,0,0,1-1.83,1.2,34.89,34.89,0,0,0-11.64,8.58A50,50,0,0,0,329.2,785.59Z" transform="translate(-0.37 -0.37)"/><path d="M181,768.9a29.86,29.86,0,0,1-1.13-11.51c.1-.73.78-1.39,1.4-2.42,0,2-.07,3.45,0,4.93.13,2.26.41,4.52.55,6.78a14.29,14.29,0,0,1-.17,2.25Z" transform="translate(-0.37 -0.37)"/><path d="M190.51,754.4a10.5,10.5,0,0,0-3.71,8,21.27,21.27,0,0,1-.24,2.76,2.28,2.28,0,0,1-.69,1.25c-1.39-2.63-.74-5.26,0-7.83A5.82,5.82,0,0,1,190.51,754.4Z" transform="translate(-0.37 -0.37)"/><path class="cls-1" fill="#FFFFFF" d="M309,138.32a21.92,21.92,0,0,1,1.67,2.06c4.3,6.76,8.52,13.56,12.85,20.3s8.8,13.37,13.17,20.08c5.5,8.46,10.82,17.05,16.51,25.38,1.71,2.51,1.67,4.16-.13,6.46-3,3.82-5.68,7.88-8.5,11.83q-6.54,9.16-13.1,18.32c-3.66,5.09-7.37,10.15-11,15.25q-6.53,9.06-13,18.16c-1,1.45-1.5,1.47-2.54,0l-6.23-8.71c-1-1.37-1-1.76-.1-3.14,2.49-3.95,5.05-7.87,7.46-11.87a19.6,19.6,0,0,0,2.78-7.2c.73-4.94-1.36-7.08-6.1-6a16.64,16.64,0,0,0-7.2,3.61c-2.29,2-4.43,4.09-6.63,6.16-.4.37-.77.8-1.16,1.18a1.57,1.57,0,0,1-2.44.08,34.08,34.08,0,0,1-3.06-2.94,2.8,2.8,0,0,1-.47-2c.54-2.94.87-5.82-.14-8.75a2.87,2.87,0,0,1,.31-2.11,67.7,67.7,0,0,0,5.36-12.14,21.74,21.74,0,0,0,1.62-8.85c0-.37-.06-.74-.1-1.1-.55-4.35-3-5.4-6.93-4.39a19.54,19.54,0,0,0-6.14,2.89,16,16,0,0,1-2.16,1,8.45,8.45,0,0,1,0-1.48c.08-.42.33-.8.44-1.21.49-2,0-2.64-2-2.78a12,12,0,0,0-2.93.19c-1.41.25-2.17,1.51-2.11,3.24s.75,2.51,2.37,2.7a2.44,2.44,0,0,1,.73.08c.46.22,1.07.42,1.27.81s-.15,1-.45,1.27a45.87,45.87,0,0,0-7.26,9c-.22.37-.71.58-1.25,1l-1.27-2.43a12.29,12.29,0,0,0-9.95-6.79c-2.91-.36-5.25,1-7,3.38a15.31,15.31,0,0,0-3,8.78q-.24,8.68-.17,17.37A110,110,0,0,0,243,263a16.25,16.25,0,0,1,0,2.35,9.83,9.83,0,0,1-1.84-1.11c-6.82-6.64-13.18-13.67-17.67-22.15a25.91,25.91,0,0,1-2.35-19.7,22.62,22.62,0,0,1,3.34-6.54,83.79,83.79,0,0,1,12.88-14.7,3.6,3.6,0,0,1,3.49-1.16,2.84,2.84,0,0,0,1.86-.51c1.64-1,2.1-2.68,2.15-4.46,0-1.28-.63-1.8-2-1.86-.85,0-1.71-.09-2.56-.17-1.27-.12-2.14.34-2,1.54.43,2.82-1.23,4-3.2,5.48a64.64,64.64,0,0,0-15.82,17.38c-3.51,5.54-4.13,11.57-3.27,17.9.91,6.73,4,12.48,8,17.84a111.85,111.85,0,0,0,14.34,16.1c1.8,1.64,3.71,3.05,6.28,3.23a2,2,0,0,1,2,2c.05.62.09,1.23.1,1.85,0,6.9,0,13.81.14,20.71a69.7,69.7,0,0,0,.68,7.35,2.85,2.85,0,0,1-1.1,2.89q-6.23,5.08-12.32,10.33a3.26,3.26,0,0,1-3.53.52A52.69,52.69,0,0,0,221.5,316a29.68,29.68,0,0,0-14.85,2.05c-2.05.83-4.27,1.22-6.31,2.05-5.66,2.3-9.57,6.55-12.7,11.66-2,3.32-2.94,7-3.81,10.74-.52,2.17-.48,2.19-2.72,2.51l-28.18,4.07c-.64.09-1.29.08-2.39.14.49-.91.73-1.5,1.08-2,1.25-1.76,2.67-3.41,3.79-5.24,2.15-3.52,4.2-7.09,6.18-10.71,2.12-3.88,4.18-7.81,6.15-11.77,2-4.13,3.95-8.34,5.94-12.5q4.06-8.49,8.18-17a9.57,9.57,0,0,1,1.89-2.62,4.66,4.66,0,0,1-.16,1.25c-2.46,6-5,12-7.4,18.1-1,2.46-1.63,5-2.38,7.57A2.51,2.51,0,0,0,174,316c4.79-8.72,8.79-17.79,12.76-26.86s7.94-18.29,11.5-27.6,6.59-18.75,9.9-28.28c.7.9.21,1.79,0,2.57-2.08,8.17-4.22,16.33-6.32,24.5a17.57,17.57,0,0,0-.19,2.49,9,9,0,0,0,2.73-4.56c2.28-6.57,4.44-13.18,6.61-19.79q2.38-7.28,4.68-14.57c1.18-3.76,2.22-7.55,3.39-11.3,1.4-4.47,2.87-8.91,4.34-13.35q1.84-5.61,3.79-11.18c1.51-4.36,3-8.7,4.6-13.05s3.14-8.8,4.73-13.2c1.1-3.07,2.27-6.11,3.36-9.18,2.37-6.73,4.65-13.49,7.07-20.21,2.22-6.18,4.58-12.32,6.89-18.48.47-1.27,1.16-1.45,1.94-.35,1.24,1.75,2.32,3.63,3.49,5.44.87,1.34,1.75,2.68,2.66,4,.62.89,1.08,2.11,2.48,1.84a3.64,3.64,0,0,0,2.86-2.6,9.4,9.4,0,0,0,.26-2.2c.05-.93,0-2.09,1.09-2.29a3.21,3.21,0,0,1,2.26.81c2.19,1.89,4.21,4,6.38,5.87,2.67,2.34,5.67,3.71,9.33,2.66a4,4,0,0,1,3.64.88,57.44,57.44,0,0,1,9.31,8.66c.57.65,1.19,1.25,1.76,1.9a5,5,0,0,0,6.85.37A6.64,6.64,0,0,1,309,138.32Z" transform="translate(-0.37 -0.37)"/><path class="cls-1" fill="#FFFFFF" d="M235.77,321.31a15.29,15.29,0,0,1,1.48-1.82c7.09-5.81,14.16-11.64,21.32-17.37,2.15-1.73,4.52-3.19,6.83-4.71,1.77-1.16,2-1,2.79.83a11.79,11.79,0,0,0,5.94,6.31,8.21,8.21,0,0,0,5.27.25c1.44-.28,2.84-.81,4.28-1.16a33.5,33.5,0,0,1,3.43-.67c3.28-.43,5.73,1,7.65,3.52.22.3.4.62.64.9,2.57,3,3,6.31,2.05,10.2-.56,2.43-1.37,3.85-3.59,5.06-2.74,1.5-4.42,4.25-5.71,7.08-.94,2.07-.11,3.76,2.1,4.22a8.85,8.85,0,0,0,3.79-.21,13,13,0,0,0,3.36-1.51c4.28-2.51,8.26-1.74,12.06,1,1,.76,2,1.61,3,2.45,2,1.69,5.88.68,7.12-1.2a5.47,5.47,0,0,0-1.17-7.57c-.34-.26-.73-.46-1.08-.7a3.24,3.24,0,0,1-1.42-2.45,41.43,41.43,0,0,1,.3-12.33c.81-4.93,1.74-9.85,1.52-14.88-.07-1.6-.2-3.2-.41-4.78-.52-3.87-2.75-6.48-6.16-8.19-.33-.17-.66-.34-1-.53-.08-.05-.09-.21-.22-.56a14.88,14.88,0,0,1,2.12-.28c8.08.21,15.93,1.36,23.29,5,4.87,2.42,4.43,1.35,5.76,6.94.85,3.53,1.27,7.18,2.34,10.63,1.43,4.6,1.68,9.35,2.18,14a45.85,45.85,0,0,1,.14,10.48c-.59,4.76-.53,9.6-.94,14.39-.28,3.31-.83,6.6-1.35,9.88-.46,2.86-1,5.71-1.59,8.54a158.45,158.45,0,0,1-6.37,22.55c-2.2,5.8-4.48,11.67-4.88,17.93-.32,5.09-.05,10.22,0,15.33,0,.36.13.73.13,1.1,0,6.25,2.3,11.92,4.41,17.63a20.35,20.35,0,0,0,1.38,2.61,2.32,2.32,0,0,1,0,2.46c-.83,1.43-1.69,2.84-2.44,4.32a13.86,13.86,0,0,1-5.57,5.48,51.1,51.1,0,0,1-17.28,6.71c-7.87,1.49-15.72,3.12-23.61,4.44a69.45,69.45,0,0,1-16.24.43,11.45,11.45,0,0,1-1.62-.36c-2.88-.59-3.14-.36-2.65-4a99.82,99.82,0,0,0,.34-23.62,43.1,43.1,0,0,0-3.19-11.9,56,56,0,0,0-6.24-11.9q-5.59-7.69-11.28-15.32c-2.35-3.16-4.76-6.27-7.14-9.42-2.63-3.48-5.3-6.93-7.86-10.46-1.64-2.27-1.58-2.35.71-3.85a28,28,0,0,0,9.09-9.27,33,33,0,0,0,4.31-19.7,38.07,38.07,0,0,0-1.9-10.87,24.51,24.51,0,0,0-5.54-9A31.61,31.61,0,0,0,235.77,321.31Z" transform="translate(-0.37 -0.37)"/><path class="cls-1" fill="#FFFFFF" d="M231.94,594.2a10.21,10.21,0,0,1-1.79-2.68,30.6,30.6,0,0,0-3-6.49,43.38,43.38,0,0,1-3.2-7.61,43.73,43.73,0,0,0-4.36-8.94c-3-5.1-6-10.23-9.33-15.08-5.58-8-11.35-16-19.16-22.12a49.19,49.19,0,0,0-13.3-7.86,40.66,40.66,0,0,0-18.73-2.29A87.75,87.75,0,0,0,142,525c-5.56,1.78-11,3.81-16.57,5.7-1.15.39-2.33.66-3.5,1l-.22-.43a25,25,0,0,1,3.23-2.25c4.81-2.35,9.63-4.67,14.51-6.87A180,180,0,0,0,157,513.23c3.61-2.12,7.17-4.35,10.91-6.22,4.78-2.4,9.7-4.5,14.58-6.69,3-1.34,6-2.59,9-3.9,1.29-.56,1.71-.44,2.25.88,2.26,5.53,4.49,11.08,6.77,16.6.49,1.2,1.12,2.33,1.68,3.5a13.56,13.56,0,0,1,1.54,3.34c.59,3.67,2.8,6.64,4,10s2.81,6.56,4.14,9.87c2.33,5.76,4.53,11.58,6.86,17.34,2.48,6.1,4.32,12.48,7.63,18.22a62.8,62.8,0,0,0,3.91,5.58,5.6,5.6,0,0,0,1.15.9,2.62,2.62,0,0,0,1.4-2.52c-.17-3.59,1.23-6.88,2-10.28,1.09-4.74,2.4-9.43,3.63-14.13q1.34-5.09,2.72-10.16c1.12-4.1,2.27-8.19,3.41-12.28,1.63-5.86,3.3-11.72,4.89-17.6,1.1-4.09,2-8.23,3.14-12.31.75-2.72,1.84-5.34,2.63-8q2.44-8.33,4.73-16.7c1-3.75,1.88-7.53,2.81-11.3.24-.95.56-1.92-.31-2.84-1.25.12-1.68,1.09-2,2.08-.87,2.57-1.72,5.14-2.52,7.73q-2.6,8.28-5.11,16.58c-1.17,3.89-2.3,7.8-3.34,11.72a5.65,5.65,0,0,1-4.13,4.42c-4.63,1.47-9.12,3.35-13.7,5-3.3,1.2-6.62,2.32-10,3.42-3.74,1.23-7.49,2.42-11.25,3.62-1.46.46-1.85.36-2.51-1-1.86-3.89-3.61-7.84-5.49-11.72-1.5-3.1-3.13-6.13-4.71-9.19-.57-1.09-1.19-2.16-1.76-3.24-.72-1.35-1.33-1.55-2.41-.54a2.93,2.93,0,0,1-2.32.77c-3,0-5.78,1.1-8.56,2.12a149.18,149.18,0,0,0-18.2,8.53c-1.24.66-2.43,1.42-3.66,2.11a9.7,9.7,0,0,1-1.29.53l-.31-.26a7,7,0,0,1,.66-1.34c1.79-2.34,2.41-5.11,2.85-7.91.29-1.9-.74-3.52-1.92-4.84a82.63,82.63,0,0,1-8.7-11.94,5.7,5.7,0,0,1-1-2.53c-.08-3-1.47-5.44-2.69-8a28.08,28.08,0,0,0-5.16-7.62c-.91-.94-.6-1.72,1.14-3.09a34.31,34.31,0,0,0,3.4,2.65,12.08,12.08,0,0,0,3.52,1.41,2.53,2.53,0,0,0,2.77-1.41q5.76-9.22,11.55-18.43c.13-.21.29-.4.43-.6,1-1.47,1-1.51,2.64-.74,2.45,1.17,4.87,2.37,7.29,3.6a22.87,22.87,0,0,0,8.92,2.83,2.83,2.83,0,0,1,2.72,2.05c1.69,4.18,4.34,7.67,8.54,9.56,6.35,2.84,12.35,1.84,18-2.16a31.49,31.49,0,0,0,11-14.26A30,30,0,0,0,227,428c-.24-1.43-.07-1.7,1.38-2a11.12,11.12,0,0,1,1.27-.19l26-3.48c2.51-.33,3-.09,4,2.21A46.43,46.43,0,0,1,264,443.28c0,5.48.18,11,.3,16.45,0,.8.18,1.6.16,2.4a3.71,3.71,0,0,0,2.11,3.42c1.49.92,1.52,1.15,1,2.87-1.28,4.51-2.5,9-3.8,13.52-1.18,4.08-2.45,8.13-3.66,12.2-.51,1.71-.91,3.45-1.46,5.15-.44,1.34-1.05,2.61-1.52,3.94a5,5,0,0,0-.52,2.3c.41,2.09-.49,3.88-1,5.75-.94,3.18-2.07,6.3-3,9.49-1.62,5.75-3.12,11.52-4.68,17.29-1.23,4.57-2.44,9.15-3.7,13.71-1.15,4.16-2.37,8.29-3.53,12.44-.8,2.84-1.58,5.69-2.32,8.55-1.23,4.76-2.42,9.54-3.62,14.31-.18.72-.23,1.47-.46,2.17-.53,1.65-1.13,3.28-1.71,4.92Z" transform="translate(-0.37 -0.37)"/><path class="cls-1" fill="#FFFFFF" d="M213.58,173.34c1.62,2.74,3.26,5.48,4.86,8.23,1.05,1.81,2,3.68,3.09,5.46a4.15,4.15,0,0,1,.53,3.83c-1.73,5.06-3.4,10.15-5.05,15.24-1.15,3.57-2.24,7.17-3.32,10.76-1.13,3.77-2.21,7.55-3.34,11.32a2.2,2.2,0,0,1-2,1.83,2.84,2.84,0,0,0-1.84,1.29,51.11,51.11,0,0,0-3.15,6.44c-2,5.35-3.88,10.77-5.86,16.14-2.18,5.95-4.39,11.89-6.7,17.8a9.88,9.88,0,0,1-1.93,2.59,52.5,52.5,0,0,0-3.68,4.11,100.66,100.66,0,0,0-8.61,14.85c-2.17,4.62-4.45,9.19-6.64,13.8-2.27,4.78-4.42,9.62-6.75,14.37-2.09,4.26-4.2,8.51-6.59,12.6-2.74,4.66-6,9.05-8.65,13.73-1.24,2.15-2.86,2.83-5.1,3.23a206.3,206.3,0,0,0-26.62,6.19c-6.38,2-12.74,4.18-19.09,6.32-1.39.47-2.7,1.17-4.07,1.72-.73.29-1.5.46-2.45.75a4.06,4.06,0,0,1,.1-1.24c2.87-5.78,6-11.43,8.59-17.34,3.45-7.92,8.21-15.12,12.08-22.79,3.13-6.21,6.52-12.28,9.71-18.45,3.43-6.62,6.77-13.28,10.12-19.93,3.62-7.2,7.06-14.5,10.84-21.61,4.38-8.26,9-16.38,13.61-24.53q5-8.85,10.07-17.62c2.13-3.67,4.4-7.25,6.47-11a16.14,16.14,0,0,0,1.63-4.46c.21-1,.52-1.56,1.47-1.82,1.78-.49,3.56-1,5.32-1.53a53.26,53.26,0,0,0,16-8.2A46.4,46.4,0,0,0,210,180.87a55.09,55.09,0,0,0,2.73-6.46l.39-1Z" transform="translate(-0.37 -0.37)"/><path class="cls-1" fill="#FFFFFF" d="M12.82,419.59A16.16,16.16,0,0,1,14,418.26c6.08-5.68,13.1-10,20.22-14.17,4.66-2.75,9.14-5.81,13.62-8.84,5.05-3.41,9.94-7.05,15-10.4A158.92,158.92,0,0,1,90.62,370c6.17-2.48,12.38-4.88,18.69-6.94a186,186,0,0,1,24.82-6.51c10.85-1.94,21.71-3.87,32.59-5.68,4.86-.81,9.76-1.34,14.65-2,1.27-.16,1.6.13,1.69,1.52.13,2,.06,4.08.34,6.08a21.51,21.51,0,0,0,8.19,14.2,52.54,52.54,0,0,0,5.27,3.39c1.41.86,1.58,1.23,1.33,2.67-.69,4-1.47,8-2,12-1,7.82-1.94,15.65-2.83,23.49a47.42,47.42,0,0,0-.25,5.72,4.75,4.75,0,0,1-1.12,3.23c-.74.88-1.46,1.79-2.24,2.77a19.39,19.39,0,0,1-2.38-1.08c-6.21-3.85-13-6.45-19.77-9.09-9.75-3.81-19.62-7.33-29.46-10.9a60.15,60.15,0,0,0-9-2.77,32.13,32.13,0,0,0-11.2-.22c-3.36.55-6.59,1.51-9.13,3.69s-5.79,3.46-8.35,5.66c-2.24,1.92-4.42,3.92-6.57,5.94a4.43,4.43,0,0,1-4.15,1.32c-6.32-1.06-12.64-2.21-19-2.84a145.47,145.47,0,0,0-26.4-.23c-8.47.7-16.63,2.78-24.81,4.81-1.55.39-3.06.95-4.59,1.39a17.45,17.45,0,0,1-1.92.31Z" transform="translate(-0.37 -0.37)"/><path class="cls-1" fill="#FFFFFF" d="M525.37,631.5c-2.87,1.17-6,1.43-9,1.91-14.68,2.31-29.48,2.32-44.27,2.45-6.6,0-13.19,0-19.78-.14-5.36-.14-10.72-.55-16.07-.86-1.71-.1-2-.36-2.46-2C432,626.45,430,620,428.26,613.53c-1-3.5-1.69-7.07-2.42-10.63q-2-9.67-3.85-19.39c-.53-2.78-.93-5.58-1.31-8.39-1.42-10.56-2.93-21.12-3.42-31.78-.51-10.9-1-21.79-1.38-32.69-.06-2-.48-3.34-2.17-4.47-2.29-1.54-4.43-3.31-6.62-5a5.88,5.88,0,0,1-1.21-1.12c-2.8-3.8-6.75-6.29-10.32-9.2q-5.58-4.55-11.27-9-7.95-6.18-16-12.24c-1.47-1.1-3.18-1.88-4.64-3a35.12,35.12,0,0,1-3.19-3,8.4,8.4,0,0,0-1.08-1c-3.93-2.66-7.83-5.34-11.81-7.91-2.53-1.64-5.18-3.09-7.77-4.63-.69-.41-1.37-.82-2.05-1.25-.95-.59-1-1.3-.32-2.16a21.86,21.86,0,0,0,1.53-2.3c1-1.79,1.23-1.86,2.87-.53,2.82,2.29,5.55,4.69,8.42,6.9,3.56,2.75,7.25,5.31,10.82,8,2.78,2.12,5.45,4.38,8.19,6.55,3.91,3.1,7.84,6.17,11.75,9.27,6.47,5.12,12.9,10.28,19.4,15.36,3.15,2.47,6.43,4.78,9.62,7.18,2.75,2.07,5.47,4.17,8.19,6.28s2.86,4.84,2.68,7.84a31.9,31.9,0,0,0,.12,4.37c.27,3,.57,6,.94,9,.47,3.85.91,7.71,1.58,11.52s1.42,7.51,2.37,11.21c1.81,7,3.7,14.07,7.07,20.57,1.95,3.76,4,7.5,6.27,11.06a62,62,0,0,0,11.37,12.78,110.17,110.17,0,0,0,19.07,13.29c7.61,4.3,15.32,8.44,23,12.64a188,188,0,0,0,21.1,9.84c3,1.17,6.11,1.89,9.18,2.81l2.44.7Z" transform="translate(-0.37 -0.37)"/><path class="cls-1" fill="#FFFFFF" d="M374.6,231.07c-1.86-.68-2.62-.53-3.73,1.19-2.16,3.36-4.27,6.77-6.27,10.23a202.6,202.6,0,0,0-10.27,20.66c-.93,2.14-2.05,4.2-3,6.34a2.88,2.88,0,0,1-2.38,1.75A35.2,35.2,0,0,0,336,276a22.85,22.85,0,0,0-3.53,2.91,2.41,2.41,0,0,1-2.65.79c-5.34-1.84-10.88-1.94-16.44-1.87-.24,0-.49,0-.74,0-1.33-.09-1.6-.66-.82-1.79,1.27-1.81,2.56-3.62,3.85-5.42l9.38-13c3.74-5.19,7.5-10.36,11.23-15.55q9.42-13.12,18.82-26.25c5.09-7.1,10.23-14.17,15.31-21.27,5.83-8.14,11.62-16.32,17.44-24.47l14.35-20.13c2.28-3.2,4.54-6.42,6.84-9.61,1.25-1.74,1.51-1.75,3.56-1.28,3,.68,6,1.28,9,1.87,1.61.31,2,.88,1.31,2.4a10,10,0,0,1-2.85,3.92,18,18,0,0,0-3.82,5.14c-4.29,7.61-8.47,15.27-12.67,22.93-3.55,6.47-7.1,12.94-10.57,19.45-2.34,4.39-4.53,8.86-6.77,13.3s-4.49,8.9-6.73,13.35c-1.44,2.86-2.86,5.72-4.3,8.58C375.07,230.37,374.81,230.72,374.6,231.07Z" transform="translate(-0.37 -0.37)"/><path class="cls-1" fill="#FFFFFF" d="M97.33,249c.11.7.25,1.4.33,2.1.81,7,1.56,14.09,2.43,21.13.74,6,1.52,12,2.46,17.94.76,4.8,1.8,9.56,2.7,14.34.94,5,1.78,9.95,2.79,14.9.56,2.75-.74,4.91-1.9,7.13-3.68,7-7.46,14-11,21.11-2.09,4.11-3.81,8.4-5.85,12.54a61.82,61.82,0,0,1-4.32,7.5,8.18,8.18,0,0,1-3.28,2.57,157.66,157.66,0,0,0-22.59,13.25c-4.46,3.06-8.9,6.16-13.37,9.23a6,6,0,0,1-2.38,1,10.83,10.83,0,0,1,.36-1.8c1.16-3.11,2.35-6.21,3.53-9.31,1.53-4,3.08-7.92,4.58-11.9,1.59-4.2,3.12-8.43,4.69-12.64s3.18-8.53,4.8-12.79q2.88-7.59,5.81-15.17c2.14-5.57,4.31-11.13,6.46-16.7,1.15-3,2.25-6,3.41-9,1.54-4,3.12-7.9,4.66-11.86,2.31-6,4.67-11.92,6.89-17.92,2-5.25,3.79-10.54,5.57-15.84.92-2.74,1.61-5.56,2.41-8.35.15-.5.32-1,.48-1.5Z" transform="translate(-0.37 -0.37)"/><path class="cls-1" fill="#FFFFFF" d="M277.35,273.92l-3.12,3.56a32.19,32.19,0,0,0-5.65,9,16,16,0,0,0-1,3.74,3.84,3.84,0,0,1-1.73,2.67c-4.82,3.41-9.59,6.89-14.38,10.34a4.32,4.32,0,0,1-.76.34,10.12,10.12,0,0,1-.29-1.75c.14-9.36.24-18.73.49-28.1a121.34,121.34,0,0,1,.85-13.07,48.36,48.36,0,0,1,5-16.7,10,10,0,0,1,2.16-2.94c2.12-1.71,4.44-1.08,6.62,0a52.06,52.06,0,0,1,11.76,8.26c1.52,1.35,3,2.76,4.41,4.21,1.05,1.07,1,1.67-.09,2.61a29.92,29.92,0,0,1-2.89,2c-.57.38-1.26.77-.87,1.59s1,.74,1.76.58a11.38,11.38,0,0,0,5.27-3.28c2.74-2.55,5.34-5.27,8-7.93a23.4,23.4,0,0,1,8.71-6.05,6,6,0,0,1,1.41-.41c1.48-.18,2.34.45,2.24,1.93a12.9,12.9,0,0,1-.84,3.93c-1.81,4.48-4.68,8.35-7.34,12.35q-5.52,8.3-11,16.64a25.35,25.35,0,0,0-2,3.73c-1.2,2.74-.22,4.43,2.73,4.49,4.12.08,8.25,0,12.38-.07a23.82,23.82,0,0,1,8.36,1.26c4,1.45,5.95,4.37,6.19,8.52a69.52,69.52,0,0,1-1.1,14.53,82.54,82.54,0,0,0-1,10.28c-.08,3.27,1.59,6,3.48,8.57.4.54,1,1,1.27,1.56a2.25,2.25,0,0,1-.1,1.67c-.09.18-1,.14-1.44-.06a6.69,6.69,0,0,1-1.44-1.14c-4.12-3.54-8.8-4.81-14.08-3.28a25.2,25.2,0,0,0-3.49,1.65,16.44,16.44,0,0,1-2.37,1,1.53,1.53,0,0,1-1.31-.23,1.4,1.4,0,0,1,0-1.32c1-1.53,2.05-3.07,3.86-3.86a4.91,4.91,0,0,0,3-3.7,30.39,30.39,0,0,1,1.53-4.35,10.08,10.08,0,0,0-.71-9.55,20.4,20.4,0,0,0-5.39-6.23,7.12,7.12,0,0,0-4.65-1.52,62.57,62.57,0,0,0-6.37.9c-1.22.2-2.4.6-3.61.74a7.65,7.65,0,0,1-8.24-6.07,14.73,14.73,0,0,1,1.48-10.19,42.9,42.9,0,0,1,9.45-11.48,3.26,3.26,0,0,0,1.19-3.12,1.1,1.1,0,0,0-1.24-1.09,8.49,8.49,0,0,0-4.65,1.58C276.42,271.71,276.36,272.31,277.35,273.92Z" transform="translate(-0.37 -0.37)"/><path class="cls-1" fill="#FFFFFF" d="M216.43,372.56c-5.89.11-10.93-.49-15.68-2.7-6.16-2.87-10.73-7.18-12.42-14a38.35,38.35,0,0,1-1.22-7.27,29.44,29.44,0,0,1,3.83-15.4,14.89,14.89,0,0,1,4-4.24,38.69,38.69,0,0,1,12.68-7,27.41,27.41,0,0,1,6.33-1.13,31.67,31.67,0,0,1,11.54,1.12,19.79,19.79,0,0,1,3.08,1.56,7.41,7.41,0,0,0,1.76,1c2.78.49,4.29,2.61,5.82,4.57s2.85,4.31,4.26,6.47a12.54,12.54,0,0,1,1.77,8.86c-.36,2.75-.57,5.52-1,8.26-1.17,7.37-4.32,13.7-11.43,16.77C225.41,371.3,220.86,373.58,216.43,372.56Z" transform="translate(-0.37 -0.37)"/><path class="cls-1" fill="#FFFFFF" d="M334.48,281c.79-1.69,2.39-2.09,3.73-2.66A47.35,47.35,0,0,1,361,275,26.13,26.13,0,0,1,376,281.29a11.6,11.6,0,0,1,2.77,3.39c1.81,3.56,3.87,7,4.75,11,0,.06.06.11.06.17.84,6.11,1.06,12.16-2,17.81a60.5,60.5,0,0,1-3.2,5.38,15.18,15.18,0,0,1-5.15,4.39,39.89,39.89,0,0,1-3.36,2.23,25.63,25.63,0,0,1-5.21,1.84,56.3,56.3,0,0,1-13.21,1.22,1.47,1.47,0,0,1-1.66-1.55,14.26,14.26,0,0,1-.08-3.32c.75-3.82-.47-7.46-.95-11.15-.2-1.52-.8-3-1.1-4.48a31.37,31.37,0,0,1-.69-4.91,28.05,28.05,0,0,0-2.1-8.94,30.42,30.42,0,0,1-1.44-5.31c-.41-2.29-2-3.65-3.66-4.88a44.83,44.83,0,0,0-4-2.33C335.35,281.6,335,281.32,334.48,281Z" transform="translate(-0.37 -0.37)"/><path class="cls-1" fill="#FFFFFF" d="M352.44,464a8,8,0,0,1-1.4,1.14q-7.29,3.12-14.62,6.19c-5.5,2.3-11,4.6-16.53,6.84-3.7,1.5-7.45,2.9-11.16,4.37-4.8,1.9-9.58,3.86-14.39,5.74-6,2.33-11.94,4.6-17.91,6.91-4,1.53-7.9,3.1-11.86,4.62a18.21,18.21,0,0,1-2.21.51c.14-.9.18-1.48.32-2,2.38-9.36,4.81-18.71,7.12-28.09.74-3,.6-2.95,3.72-2.71a61.92,61.92,0,0,0,16-.7c7.62-1.41,15.26-2.78,22.84-4.43a41.62,41.62,0,0,0,17.77-8.2c1.09-.89,2.1-1.89,3.11-2.88a1.6,1.6,0,0,1,2.41-.21c5.18,4,10.38,7.88,15.57,11.83A15.55,15.55,0,0,1,352.44,464Z" transform="translate(-0.37 -0.37)"/><path class="cls-1" fill="#FFFFFF" d="M134.93,456.22a25.11,25.11,0,0,0-2.13,2,2.44,2.44,0,0,0,.74,4,6.39,6.39,0,0,1,3.29,4.11,25.29,25.29,0,0,0,3.43,6.27c3.77,5.76,7.55,11.52,11.52,17.15,1.8,2.54,4,4.78,6.08,7.15.28.33.63.6.91.92,1.33,1.55,1.35,2.06.24,3.74-3.71,5.67-9,9.31-15.15,11.92a30.46,30.46,0,0,1-13.31,2.6,55.48,55.48,0,0,1-9.27-1.52,3.49,3.49,0,0,1-1.9-1.81,7.66,7.66,0,0,1-.74-3.2c-.09-10.82.81-21.55,3.86-32a113,113,0,0,1,4.25-10.8,19.08,19.08,0,0,1,3-5.26,5.27,5.27,0,0,0-.09-6.33c-.11-.15-.33-.29-.33-.43,0-1.7,0-3.4.07-5.1,0-.3.51-.76.85-.83,1.17-.24,1.76.67,2.36,1.44a1.31,1.31,0,0,1-.06,1.95c-1.25,1.41-1.06,2.06.62,2.9C133.73,455.46,134.27,455.83,134.93,456.22Z" transform="translate(-0.37 -0.37)"/><path class="cls-1" fill="#FFFFFF" d="M222.7,421.18c-1.83-.73-3.23-1.36-4.68-1.83a36.43,36.43,0,0,0-13.34-1.42c-2.51.12-5,0-7.55,0-1,0-1-.66-1-1.42.28-2.38.58-4.77.83-7.16q1.56-14.52,3.07-29.05c.11-1,.11-2.09.19-3.14s.68-1.41,1.65-1.13a40.17,40.17,0,0,0,13.18,1.35c2.5-.13,5-.6,7.49-.93.49-.07,1-.2,1.46-.26a1.12,1.12,0,0,1,1.38,1.12,9.21,9.21,0,0,1,0,1.66q-.75,9.68-1.54,19.35c-.42,5.16-.92,10.31-1.29,15.47-.12,1.71.06,3.45.09,5.17C222.71,419.59,222.7,420.24,222.7,421.18Z" transform="translate(-0.37 -0.37)"/><path class="cls-1" fill="#FFFFFF" d="M246.67,510.55a11.24,11.24,0,0,1-.14,1.78q-8,29.37-16,58.73c-.05.18-.37.29-.81.6-.4-.91-.79-1.71-1.11-2.53-2.87-7.47-5.65-15-8.63-22.4-2.85-7.13-5.9-14.2-8.88-21.28-.86-2.05-.67-2.53,1.44-3.24,5.07-1.71,10.14-3.4,15.19-5.16,5.69-2,11.36-4,17-6C245.26,510.83,245.8,510.76,246.67,510.55Z" transform="translate(-0.37 -0.37)"/><path class="cls-1" fill="#FFFFFF" d="M204.15,422.5c4.93-.56,9.18,1.4,13.41,3.48a19.26,19.26,0,0,0,2,1,4.49,4.49,0,0,1,3.06,4,25.39,25.39,0,0,1-3.35,17,20.76,20.76,0,0,1-8.41,8.28,12.8,12.8,0,0,1-11.24.22,14.45,14.45,0,0,1-8.84-11.5c-.47-3-.09-6.13-.09-9.21,0-1.16,0-2.33,0-3.49,0-.62-.2-1.35.06-1.82a30.12,30.12,0,0,1,3.74-5.84c.94-1,2.69-1.44,4.15-1.74A43.71,43.71,0,0,1,204.15,422.5Z" transform="translate(-0.37 -0.37)"/><path class="cls-1" fill="#FFFFFF" d="M269.13,76.71c.53.73.87,1.14,1.14,1.58,2.23,3.54,4.41,7.12,6.68,10.64q4.79,7.45,9.68,14.84,7.11,10.82,14.24,21.6c.91,1.39,1.79,2.8,2.7,4.19.78,1.17.76,2.39.33,4.07-.65-.55-1.08-.91-1.49-1.28-2.86-2.61-5.65-5.29-8.59-7.8a7.07,7.07,0,0,0-6.53-1.72c-2.19.53-4.14-.46-5.84-1.74-1.46-1.1-2.73-2.47-4.1-3.71-1.72-1.58-3.34-3.22-5.66-4a5.48,5.48,0,0,0-6.19,1.6c-1.45,1.49-1.63,1.48-2.92-.11-1.71-2.09-3.39-4.22-5.26-6.17-1.17-1.21-.61-2.27-.17-3.37,1.38-3.43,2.85-6.82,4.25-10.23,2.23-5.47,4.43-11,6.66-16.43A19.1,19.1,0,0,1,269.13,76.71Z" transform="translate(-0.37 -0.37)"/><path class="cls-1" fill="#FFFFFF" d="M142.21,413.34c1.74,1,3.44,2.08,5.23,3,3.66,1.88,7.38,3.66,11.05,5.53,1.09.55,2.08,1.3,3.15,1.88,1.72.93,3.46,1.82,5.2,2.7.32.17.7.22,1,.36,1.55.68,2,1.57,1.25,3.1-1.64,3.43-3.27,6.89-5.14,10.2-3.42,6.05-7,12-10.54,18-1,1.65-1.71,1.68-3.36.34q-3.79-3.07-7.67-6.05A17.13,17.13,0,0,0,140,451c-.94-.51-1-1.14-.37-1.93.32-.38.68-.72,1-1.12,2.16-3,4.31-6,6.46-8.94.43-.6.84-1.21,1.31-1.77,1.14-1.33,1.06-2.51-.48-3.32-2.4-1.25-4.88-2.34-7.33-3.49-.61-.28-1.26-.49-1.86-.8-1.68-.87-2-2.15-.63-3.55a14.45,14.45,0,0,0,3.72-9.22,29.14,29.14,0,0,0-.15-3.22Z" transform="translate(-0.37 -0.37)"/><path class="cls-1" fill="#FFFFFF" d="M116.55,434.74c-3.12.08-5.47-1.46-7.66-3.35a15.76,15.76,0,0,1-4.61-6.79A12.63,12.63,0,0,1,104,419a48.81,48.81,0,0,1,1.78-7.32c.82-2.69,2.91-4.33,5.23-5.7s4.77-1.28,7.33-.77a37.35,37.35,0,0,1,15.41,7.2c2.18,1.67,4,3.7,3.52,6.7-.38,2.63-1.2,5.11-3.52,6.83a25.14,25.14,0,0,0-3.51,3.25,15.5,15.5,0,0,1-8.12,4.45C120.3,434.05,118.41,434.36,116.55,434.74Z" transform="translate(-0.37 -0.37)"/><path class="cls-1" fill="#FFFFFF" d="M393.1,446.66c-2.34,1.06-4.66,2.15-7,3.19-3.43,1.52-6.87,3-10.31,4.49-1.92.83-3.83,1.69-5.77,2.47a3.3,3.3,0,0,1-3.57-.67c-4.45-3.51-9-6.92-13.49-10.32-3.89-2.91-7.87-5.69-11.72-8.65a10.58,10.58,0,0,1-4-6.26c-.13-.6-.34-1.18-.51-1.78-.46-1.61,0-2.08,1.6-1.64,3,.79,5.93,1.64,8.9,2.47,4.68,1.32,9.35,2.66,14,4A166.83,166.83,0,0,1,390,444.54c1,.5,2.07,1,3.1,1.47Z" transform="translate(-0.37 -0.37)"/><path class="cls-1" fill="#FFFFFF" d="M445.86,287.84a16.45,16.45,0,0,1-2.52,8.57,10.33,10.33,0,0,1-2.39,2.51c-1.07.91-2.35,1.6-3.37,2.56a13.77,13.77,0,0,1-6.41,3.07c-2.48.59-4.82-.21-7-1a18.68,18.68,0,0,1-5.08-2.92,9.07,9.07,0,0,1-3.35-8.4,35.7,35.7,0,0,1,6.35-17.49c1.44-2,2-2.22,4.35-1.65a39.32,39.32,0,0,1,14.28,6.27,23.51,23.51,0,0,1,3,2.46C445.57,283.79,445.93,285,445.86,287.84Z" transform="translate(-0.37 -0.37)"/><path class="cls-1" fill="#FFFFFF" d="M416.2,277.3c-.52,1.28-1,2.57-1.57,3.83a34,34,0,0,0-3.13,14.13,13.36,13.36,0,0,0,2.77,8.42c.22.28.42.58.83,1.15a22.76,22.76,0,0,1-2.59,1c-2.44.64-4.89,1.22-7.35,1.78-5.46,1.25-10.93,2.47-16.4,3.7a6.1,6.1,0,0,1-.72.14c-1.09.08-1.41-.27-1-1.26a28.12,28.12,0,0,0,1.45-12.75,71.66,71.66,0,0,0-1.52-7.75c-.09-.42-.29-.82-.41-1.23-.29-1,0-1.59,1.13-1.82,3-.6,6-1.25,9-2A89,89,0,0,0,411.28,279l4.49-2.06Z" transform="translate(-0.37 -0.37)"/><path class="cls-1" fill="#FFFFFF" d="M255.91,417.88c-1.93.35-3.35.67-4.79.86-7.5,1-15,1.95-22.52,2.93-.37,0-.74.1-1.11.11-1.4.08-1.66-.13-1.54-1.54.61-6.81,1.32-13.6,1.86-20.41.4-4.91.59-9.83.9-14.75a6.88,6.88,0,0,1,.56-2.33C238.52,394,247.42,405.45,255.91,417.88Z" transform="translate(-0.37 -0.37)"/><path class="cls-1" fill="#FFFFFF" d="M440.55,304.68a12.37,12.37,0,0,1,1.48-1.34,9.89,9.89,0,0,0,4.26-4.91c.79-2,1.95-3.82,2.87-5.75,1.28-2.69,1.22-5.62,1.36-8.5.08-1.51.38-1.74,1.79-1.24a111,111,0,0,0,18,5.32,11.52,11.52,0,0,1,1.7.66c-1,.72-1.66,1.25-2.37,1.77a10.45,10.45,0,0,0-1.79,1.26c-1.81,2-3.6,4-5.29,6.12a15.31,15.31,0,0,0-3.43,8.78c0,.37,0,.74-.06,1.11-.13,1.62-.51,1.94-2.12,1.53-2.68-.69-5.35-1.44-8-2.19-2.19-.61-4.38-1.25-6.56-1.89C441.88,305.25,441.4,305,440.55,304.68Z" transform="translate(-0.37 -0.37)"/><path class="cls-1" fill="#FFFFFF" d="M518.52,299.92a3,3,0,0,1-1.79,3.09A65.85,65.85,0,0,1,502,308.68c-1.62.36-3.24.74-4.87,1.05s-2,.21-2.67-1.43c-1.46-3.65-2.87-7.33-4.25-11-.47-1.25-.19-1.86,1.14-2.21,2.85-.75,5.72-1.43,8.6-2.06,3.59-.78,7.22-1.45,10.81-2.26a26.54,26.54,0,0,0,3.09-1.19c.77-.28,1.46-.23,1.85.65A30.43,30.43,0,0,1,518.52,299.92Z" transform="translate(-0.37 -0.37)"/><path class="cls-1" fill="#FFFFFF" d="M260.76,235.79a27,27,0,0,1,1.53-3.57c2.36-3.88,4.67-7.79,7.28-11.5A29.91,29.91,0,0,1,278,213a13.51,13.51,0,0,1,4.11-1.56c2-.47,2.77.06,3,2.12A11.93,11.93,0,0,1,285,218c-.7,2.79-1.65,5.53-2.62,8.24a67.16,67.16,0,0,1-6.44,13.23c-1,1.58-1.16,1.63-2.76.73-1.39-.79-2.8-1.54-4.16-2.38a12.32,12.32,0,0,0-6.87-1.75A8.85,8.85,0,0,1,260.76,235.79Z" transform="translate(-0.37 -0.37)"/><path class="cls-1" fill="#FFFFFF" d="M169,438.85c.43-1,.84-1.83,1.21-2.71,1.31-3.11,2.64-6.21,3.87-9.34a1.68,1.68,0,0,0-.46-1.43,7.16,7.16,0,0,0-1.87-1.16c-4.31-2.09-8.67-4.09-12.94-6.27a53,53,0,0,1-7.41-4.72,6.38,6.38,0,0,1,1.25.17c6.4,2.39,12.79,4.81,19.2,7.18,3.51,1.3,7,2.62,10.6,3.77,4.1,1.32,5.94,4.56,5.12,8.79-.53,2.77-.63,5.62-.91,8.44-.07.67,0,1.36-.08,2-.13,1.2-.53,1.53-1.7,1.26a21.15,21.15,0,0,1-3-1C177.67,442.28,173.5,440.63,169,438.85Z" transform="translate(-0.37 -0.37)"/><path class="cls-1" fill="#FFFFFF" d="M103.54,443.16c1.53-2,2.92-3.89,4.35-5.72a1.69,1.69,0,0,1,2.15-.53,19.47,19.47,0,0,0,7,1.24c1.81,0,1.9.28,1.09,1.93-2.43,5-2.58,4.17.91,8.29,1.35,1.59,2.73,3.16,4.18,4.67,1.9,2,2.25,3.27,1.06,5.73-1,2.05-2.15,4-3.25,6a1.78,1.78,0,0,1-2.49.89c-.79-.34-1.6-.63-2.36-1-2.13-1.12-4.23-2.27-6.33-3.43-1.22-.68-1.51-1.29-.81-2.36a19.49,19.49,0,0,0,2.54-6.44c.32-1.37.24-2.35-.91-3.25-1.83-1.45-3.59-3-5.38-4.48Z" transform="translate(-0.37 -0.37)"/><path class="cls-1" fill="#FFFFFF" d="M247.25,259.05a9.57,9.57,0,0,1-.37-1.54c-.46-5.71-1-11.41-1.29-17.12-.19-4.49,0-9,.13-13.48a21.54,21.54,0,0,1,.87-4.69,2.56,2.56,0,0,1,3.39-2,11.7,11.7,0,0,1,3.19,1.37,25.71,25.71,0,0,1,4.47,3.23,11.24,11.24,0,0,1,2.43,3.8c.25.61-.27,1.64-.65,2.37-2.61,5-5.35,10-7.91,15a39.32,39.32,0,0,0-3.16,10.76c-.15.79-.41,1.56-.62,2.34Z" transform="translate(-0.37 -0.37)"/><path class="cls-1" fill="#FFFFFF" d="M519.15,306.1c1.35,3.19,2.57,6.12,3.81,9a1.46,1.46,0,0,1-.88,2.21c-4.67,2-9.33,4.09-14,6.14-1.74.77-3.52,1.49-5.17,2.41a1.76,1.76,0,0,1-2.43-.44,4.77,4.77,0,0,1-.89-1.17c-.82-1.72-1.63-3.44-2.37-5.2-.56-1.31-.38-1.68.82-2.39,2.26-1.35,4.48-2.78,6.79-4,1.45-.78,3.06-1.25,4.55-2,2.93-1.4,5.83-2.88,8.75-4.3A4.81,4.81,0,0,1,519.15,306.1Z" transform="translate(-0.37 -0.37)"/><path class="cls-1" fill="#FFFFFF" d="M136.93,446.63c-.65-.58-1.13-1-1.64-1.46-3-2.47-6.55-2-8.83,1.13-1.25,1.74-1.32,1.73-2.87.27-.85-.79-1.74-1.56-2.67-2.27a1.44,1.44,0,0,1-.45-2.19c.64-1.11,1.06-2.35,1.67-3.48a3.32,3.32,0,0,1,1.22-1.22c2.7-1.45,5.47-2.78,8.14-4.27a2.61,2.61,0,0,1,2.42-.34c2.86,1.13,5.71,2.27,8.58,3.38,1,.37,1.56,1.07.94,2C141.45,441,139.73,444.09,136.93,446.63Z" transform="translate(-0.37 -0.37)"/><path class="cls-1" fill="#FFFFFF" d="M472.55,306.64c2.62-1.2,5-2.29,7.41-3.4,1.84-.84,3.68-1.7,5.52-2.56,1.41-.66,1.88-.46,2.26,1,.84,3.21,1.68,6.42,2.56,9.62.69,2.51.5,3-1.72,4.34q-2.94,1.72-5.89,3.44c-1.77,1-2,.83-2.91-.9-1.61-3-3.39-6-5.14-8.93a11.59,11.59,0,0,0-1.13-1.21C473.19,307.62,472.92,307.17,472.55,306.64Z" transform="translate(-0.37 -0.37)"/><path class="cls-1" fill="#FFFFFF" d="M468.65,306.58c1.54.74,1.69,1.68,1.89,2.93.27,1.7,1.37,3.25,2.08,4.88.29.64.5,1.32.9,2.4a6.79,6.79,0,0,1-2-.42A35.78,35.78,0,0,1,467,313.2c-3.69-3.25-4.37-7.67-2.15-12a20.53,20.53,0,0,1,6.57-7.07c1.56-1.15,3.56-.66,5.38-.73.32,0,.68.45,1,.75a2,2,0,0,1,.26.68c1.4,4.15,1.32,4.27-2.58,6.28a34.18,34.18,0,0,0-4.7,2.88A13.83,13.83,0,0,0,468.65,306.58Z" transform="translate(-0.37 -0.37)"/><path class="cls-1" fill="#FFFFFF" d="M481.16,284.07c.06-.39.15-1,.23-1.61a2.27,2.27,0,0,1,2.15-2.1c4.71-.92,9.41-1.9,14.07-3a29,29,0,0,0,5.29-2.14c1.62-.75,1.66-.8,2.39.9.2.45.39.9.57,1.36.69,1.74.39,2.54-1.36,3.31a17.17,17.17,0,0,1-2.63.85q-7.86,2.06-15.72,4.06a28.46,28.46,0,0,1-2.9.54C481.61,286.43,481.12,286,481.16,284.07Z" transform="translate(-0.37 -0.37)"/><path class="cls-1" fill="#FFFFFF" d="M469,24.64c1-5.47,2-10.8,3-16.23l7.75,9.4c-3.36,2.32-6.51,4.52-9.68,6.68C469.82,24.66,469.4,24.59,469,24.64Z" transform="translate(-0.37 -0.37)"/><path class="cls-1" fill="#FFFFFF" d="M302.59,278a5.72,5.72,0,0,1-1.15.73c-4,.9-8,1.78-12,2.62a5.84,5.84,0,0,1-1.64-.23c.81-1.38,1.46-2.53,2.16-3.66,1.2-1.92,2.41-3.83,3.65-5.73,1-1.54,1.19-1.56,2.41-.26s2.48,2.72,3.76,4C300.52,276.3,301.39,277,302.59,278Z" transform="translate(-0.37 -0.37)"/><path class="cls-1" fill="#FFFFFF" d="M483.19,297c-.17-1.42-.29-2.7-.47-4a1.37,1.37,0,0,1,1.16-1.61c1.77-.52,3.54-1.06,5.33-1.51,3.27-.81,6.57-1.53,9.85-2.35,1.37-.34,2.7-.84,4.05-1.26a7.94,7.94,0,0,1,1.07-.26c.64-.09,1.38-.12,1.36.73,0,.32-.67.81-1.11.9-2.94.65-5.93,1.08-8.83,1.86a16.16,16.16,0,0,0-7,3.46,4.39,4.39,0,0,0-1,1.3C486.62,296.2,485.69,296.83,483.19,297Z" transform="translate(-0.37 -0.37)"/><path class="cls-1" fill="#FFFFFF" d="M398.92,313.94l-15.29,4.46a2.3,2.3,0,0,1,1.86-2.28q5.83-1.38,11.68-2.66a7.06,7.06,0,0,1,1.77.07Z" transform="translate(-0.37 -0.37)"/><path class="cls-1" fill="#FFFFFF" d="M491.66,326.47c-.77-.19-1.82.39-2.31-.84-.77-1.92-.49-2.48,1.56-2.86l.9-.15a2.42,2.42,0,0,1,2.61,2.93,1.42,1.42,0,0,1-.89.74A12.11,12.11,0,0,1,491.66,326.47Z" transform="translate(-0.37 -0.37)"/><path class="cls-1" fill="#FFFFFF" d="M141.4,463.41l1.29,3.87-.48.27A26,26,0,0,1,140,465C139.52,464.31,140,463.79,141.4,463.41Z" transform="translate(-0.37 -0.37)"/><path class="cls-1" fill="#FFFFFF" d="M139.14,457.71c.91.71,1.11,1.47.49,2.06-.89.84-2,.72-3.28.16Z" transform="translate(-0.37 -0.37)"/><path class="cls-1" fill="#FFFFFF" d="M279.19,240.16c-.06.77-.12,1.55-.19,2.33-.06.62-.36,1.23-1,.95-.41-.18-.93-1-.81-1.34a11,11,0,0,1,1.47-2.19Z" transform="translate(-0.37 -0.37)"/><path class="cls-1" fill="#FFFFFF" d="M271.5,208.89c-.44,1.42-.93,1.84-1.79,1.54s-1-.89-.61-1.44C269.79,208,270.67,208.38,271.5,208.89Z" transform="translate(-0.37 -0.37)"/><path class="cls-1" fill="#FFFFFF" d="M241.28,194.61c.53.74,1,1.14,1,1.51s-.56.72-.87,1.09c-.31-.38-.77-.72-.88-1.15S240.88,195.34,241.28,194.61Z" transform="translate(-0.37 -0.37)"/><path class="cls-1" fill="#FFFFFF" d="M491.94,317.42c0,2.05-.39,2.23-2.44,1.52Z" transform="translate(-0.37 -0.37)"/><path d="M53.07,506.5l-3.51-3.67C52,502.78,53.69,504.57,53.07,506.5Z" transform="translate(-0.37 -0.37)"/><path d="M53.57,500.83c1.78,1.07,2.1,2.28,1.08,4.08C54.32,503.65,54,502.39,53.57,500.83Z" transform="translate(-0.37 -0.37)"/></svg>
