<?xml version="1.0" encoding="UTF-8"?>
<svg width="300px" height="300px" viewBox="0 0 300 300" version="1.1" xmlns="http://www.w3.org/2000/svg" xmlns:xlink="http://www.w3.org/1999/xlink">
    <!-- Generator: Sketch 51 (57462) - http://www.bohemiancoding.com/sketch -->
    <title>eraser</title>
    <desc>Created with Sketch.</desc>
    <defs></defs>
    <g id="eraser" stroke="none" stroke-width="1" fill="none" fill-rule="evenodd">
        <g id="Group-5-Copy" transform="translate(150.188307, 144.134902) rotate(181.000000) translate(-150.188307, -144.134902) translate(2.688307, 2.634902)" stroke="#1E2734" stroke-width="5">
            <path d="M0,165.297854 C29.6081324,205.384045 16.6494794,175.209473 52.3746337,228.40142 C64.1363855,245.913744 72.6275691,265.507538 84.7694793,282.759716 C84.770171,282.760698 95.702732,274.341949 118.032044,257.145394 C142.27472,238.475294 169.403708,223.778304 193.857342,205.384045 C210.16951,193.113875 223.777679,177.507129 240.135693,165.297854 C255.172491,154.074707 272.991828,146.847099 287.771245,135.288701 C318.64756,111.141556 240.973344,-21.2315055 203.936233,2.93324427 C180.062834,18.5093707 168.031663,26.7256603 162.7752,30.7560793 C144.376481,44.8633861 123.155515,56.2034097 104.816015,70.3872497 C73.9050515,94.2939081 47.1312372,123.095633 18.2888483,149.449825 L0,165.297854 Z" id="Path-34"></path>
            <path d="M149.850078,33.5477629 C183.687193,75.0830883 217.524307,116.618414 251.361422,158.153739" id="Path-35" transform="translate(200.605750, 95.850751) rotate(5.000000) translate(-200.605750, -95.850751) "></path>
            <path d="M43.5048614,206.079115 C133.907377,133.231459 84.8172712,175.518705 188.521066,76.6806008" id="Path-37"></path>
            <path d="M24.1693675,196.49404 C130.401359,99.7600622 82.4718634,146.48967 169.185572,57.5104506" id="Path-36"></path>
        </g>
    </g>
</svg>