<?xml version="1.0" encoding="UTF-8"?>
<svg width="1400px" height="119px" viewBox="0 0 1400 119" version="1.1" xmlns="http://www.w3.org/2000/svg" xmlns:xlink="http://www.w3.org/1999/xlink">
    <!-- Generator: Sketch 51 (57462) - http://www.bohemiancoding.com/sketch -->
    <title>heading copy</title>
    <desc>Created with Sketch.</desc>
    <defs></defs>
    <g id="heading-copy" stroke="none" stroke-width="1" fill="none" fill-rule="evenodd">
        <g id="heading" transform="translate(-35.000000, 6.000000)" stroke="#1E2734">
            <g id="border" transform="translate(35.000000, 0.000000)">
                <path d="M0,13 C103.483684,12.7141694 206.977065,13.5168037 310.451051,12.1425081 C328.44024,11.9035837 346.277411,8.66240637 364.260632,8.16205212 C552.643499,2.92060151 904.667086,0.349348534 929.947387,0.349348534 C955.227687,0.349348534 949.603385,-0.0380321596 963.805696,2.58306189 C968.264935,3.40603256 982.053805,5.86840384 1038.65992,7.34690554 C1186.08918,11.1976272 1288.90592,9.6495246 1424.26365,2.58306189 C1425.20226,2.53406065 1424.75455,0.86102063 1425,-1.13686838e-13" id="Path-11-Copy"></path>
                <path d="M0,100.614622 C17.5171239,100.614622 29.4476444,100.512313 37.4317225,100.342517 C84.7795225,99.3355775 40.3443106,96.3562997 105.174665,97.4638018 C114.157902,97.6172632 127.992165,97.7905522 142.378277,98.0247334 C166.209652,98.4126672 191.047156,98.5734619 215.345943,98.0247334 C302.659678,96.0529666 263.395091,92.2904241 355.513078,94.8786999 C369.468093,95.2707995 383.015575,97.6268176 396.958627,98.1174241 C418.270421,98.8673106 439.83007,97.2872028 461.038999,98.5917827 C483.640211,99.9820032 504.990736,105.381694 527.704378,106.159711 C719.899277,112.74302 661.780925,106.366705 814.672074,102.272151 C843.634873,101.496503 888.375154,102.431942 901.67568,101.830507 C928.564548,100.614622 950.454313,98.1174241 978.349944,97.1687069 C1032.30892,95.3335879 1014.54869,99.4451242 1066.2081,100.740027 C1124.10066,102.191172 1182.08636,103.242612 1240.0444,102.88282 C1257.7846,102.772692 1275.1249,100.037401 1292.8127,99.3333088 C1329.81374,97.860422 1366.93757,97.3486361 1404,96.3562997" id="Path-12-Copy" stroke-linecap="round"></path>
            </g>
            <g id="little-lines" transform="translate(0.000000, 5.000000)">
                <path d="M0,67 C27.9185608,49.8609472 38.227735,35.2047654 63,8" id="Path-14-Copy" stroke-linecap="round"></path>
                <path d="M22,89 C57.6024854,49.3048167 30.0144823,78.8483704 112,8" id="Path-15-Copy" stroke-linecap="round"></path>
                <path d="M23,97 C60.0258065,66.9591342 95.3019287,40.4312309 131,8" id="Path-16-Copy" stroke-linecap="round"></path>
                <path d="M50,96 C84.1366248,63.461705 124.470069,40.4999246 158,7" id="Path-17-Copy" stroke-linecap="round"></path>
                <path d="M69.915542,95.4810102 C101.907203,68.7074715 143.854259,33.9505084 175.84592,7.17696972 L69.915542,95.4810102 Z" id="Path-18-Copy" stroke-linecap="round"></path>
                <path d="M86,96 C129.04794,71.5083114 154.803368,45.8755815 193,7" id="Path-14-Copy-2" stroke-linecap="round"></path>
                <path d="M136,93 C173.975984,51.3445607 144.548781,82.3470554 232,8" id="Path-15-Copy-2" stroke-linecap="round"></path>
                <path d="M145,95 C182.025806,64.9591342 217.301929,38.4312309 253,6" id="Path-16-Copy-2" stroke-linecap="round"></path>
                <path d="M168,96 C202.136625,63.461705 242.470069,40.4999246 276,7" id="Path-17-Copy-2" stroke-linecap="round"></path>
                <path d="M188.254801,94.1362459 C220.246462,67.3627072 262.193518,32.6057441 294.18518,5.83220541 L188.254801,94.1362459 Z" id="Path-18-Copy-2" stroke-linecap="round"></path>
                <path d="M120,93 C152.093158,51.8363459 131.967339,77.7116676 216,8" id="Path-13-Copy" stroke-linecap="round"></path>
                <path d="M369.797983,90.0665853 C398.890683,48.1795197 376.110928,79.6146415 447.098827,0.453148173 L369.797983,90.0665853 Z" id="Path-15-Copy-3" stroke-linecap="round"></path>
                <path d="M388.624683,91.1796567 C410.098893,65.3515112 442.663092,29.225265 462.967259,1.79791248 L388.624683,91.1796567 Z" id="Path-16-Copy-3" stroke-linecap="round"></path>
                <path d="M410.140912,91.6663948 C433.24554,54.958022 460.761873,38.5953891 478.960288,1.79791248 L410.140912,91.6663948 Z" id="Path-17-Copy-3" stroke-linecap="round"></path>
                <path d="M427.622848,93.6917084 C447.056755,65.8525375 472.602958,29.6370834 492.036865,1.79791248 L427.622848,93.6917084 Z" id="Path-18-Copy-3" stroke-linecap="round"></path>
                <path d="M353.660811,91.2744063 C378.158678,50.0238964 362.806097,75.9447401 433.272251,0.453148173 L353.660811,91.2744063 Z" id="Path-13-Copy-2" stroke-linecap="round"></path>
                <path d="M34,22 C39,17 44,12 49,7" id="Path-19-Copy"></path>
                <path d="M314,91 C369.526992,33.0598203 343.65089,61.8366509 392,5" id="Path-25-Copy"></path>
                <path d="M327,91 C405.50232,10.3175567 386.970976,46.007406 408,2" id="Path-26-Copy"></path>
                <path d="M35,60 C52.6970284,32.8961804 38.6621364,52.9009897 85,7" id="Path-13-Copy-3" stroke-linecap="round"></path>
                <path d="M207.081502,92.3606972 C280.263089,33.2034902 246.584567,61.7833911 308.586255,7.17696972" id="Path-20-Copy"></path>
                <path d="M231.287259,93.7054615 C298.785267,39.2895507 269.320761,68.2740378 321.160589,8.52173403" id="Path-21-Copy"></path>
                <path d="M250.113959,93.052778 C278.789132,64.4275086 307.464305,35.8022392 336.139478,7.17696972" id="Path-22-Copy"></path>
                <path d="M270.285424,92.7743698 C343.125906,21.934437 317.051578,52.1204593 353.907702,7.17696972" id="Path-23-Copy"></path>
                <path d="M290.456889,91.165643 C356.491813,26.6996257 331.198275,56.9101044 370.823628,4.4874411" id="Path-24-Copy"></path>
            </g>
        </g>
    </g>
</svg>