<?xml version="1.0" encoding="utf-8"?>
<!-- Generator: Adobe Illustrator 21.0.0, SVG Export Plug-In . SVG Version: 6.00 Build 0)  -->
<svg version="1.1" id="Layer_1" xmlns="http://www.w3.org/2000/svg" xmlns:xlink="http://www.w3.org/1999/xlink" x="0px" y="0px"
	 viewBox="0 0 1400 67.9" style="enable-background:new 0 0 1400 67.9;" xml:space="preserve">
<style type="text/css">
	.st0{fill:none;stroke:#1E2734;}
	.st1{fill:none;stroke:#1E2734;stroke-linecap:round;}
</style>
<title>heading copy</title>
<desc>Created with Sketch.</desc>
<g id="heading-copy">
	<g id="heading" transform="translate(-35.000000, 6.000000)">
		<g id="border" transform="translate(35.000000, 0.000000)">
			<path id="Path-11-Copy" class="st0" d="M0,1.8c103.5-0.2,207,0.3,310.5-0.5c18-0.1,35.8-2.1,53.8-2.4
				c188.4-3.1,540.4-4.7,565.7-4.7s19.7-0.2,33.9,1.3c4.5,0.5,18.2,2,74.9,2.8c147.4,2.3,250.2,1.4,385.6-2.8c0.9,0,0.5-1,0.7-1.5"
				/>
			<path id="Path-12-Copy" class="st1" d="M0,54c17.5,0,29.4-0.1,37.4-0.2c47.3-0.6,2.9-2.4,67.7-1.7c9,0.1,22.8,0.2,37.2,0.3
				c23.8,0.2,48.7,0.3,73,0c87.3-1.2,48-3.4,140.2-1.9c14,0.2,27.5,1.6,41.4,1.9c21.3,0.4,42.9-0.5,64.1,0.3c22.6,0.8,44,4,66.7,4.5
				c192.2,3.9,134.1,0.1,287-2.3c29-0.5,73.7,0.1,87-0.3c26.9-0.7,48.8-2.2,76.7-2.8c54-1.1,36.2,1.4,87.9,2.1
				c57.9,0.9,115.9,1.5,173.8,1.3c17.7-0.1,35.1-1.7,52.8-2.1c37-0.9,74.1-1.2,111.2-1.8"/>
		</g>
		<g id="little-lines" transform="translate(0.000000, 5.000000)">
			<path id="Path-14-Copy" class="st1" d="M0,31.9C27.9,21.7,38.2,13,63-3.2"/>
			<path id="Path-15-Copy" class="st1" d="M22,45.1c35.6-23.7,8-6.1,90-48.3"/>
			<path id="Path-16-Copy" class="st1" d="M23,49.8C60,31.9,95.3,16.1,131-3.2"/>
			<path id="Path-17-Copy" class="st1" d="M50,49.2c34.1-19.4,74.5-33.1,108-53.1"/>
			<path id="Path-18-Copy" class="st1" d="M69.9,48.9c32-16,73.9-36.7,105.9-52.7L69.9,48.9z"/>
			<path id="Path-14-Copy-2" class="st1" d="M86,49.2c43-14.6,68.8-29.9,107-53.1"/>
			<path id="Path-15-Copy-2" class="st1" d="M136,47.4c38-24.8,8.5-6.4,96-50.7"/>
			<path id="Path-16-Copy-2" class="st1" d="M145,48.6c37-17.9,72.3-33.7,108-53.1"/>
			<path id="Path-17-Copy-2" class="st1" d="M168,49.2c34.1-19.4,74.5-33.1,108-53.1"/>
			<path id="Path-18-Copy-2" class="st1" d="M188.3,48.1c32-16,73.9-36.7,105.9-52.7L188.3,48.1z"/>
			<path id="Path-13-Copy" class="st1" d="M120,47.4c32.1-24.5,12-9.1,96-50.7"/>
			<path id="Path-15-Copy-3" class="st1" d="M369.8,45.7c29.1-25,6.3-6.2,77.3-53.4L369.8,45.7z"/>
			<path id="Path-16-Copy-3" class="st1" d="M388.6,46.4C410.1,31,442.7,9.4,463-6.9L388.6,46.4z"/>
			<path id="Path-17-Copy-3" class="st1" d="M410.1,46.6C433.2,24.8,460.8,15,479-6.9L410.1,46.6z"/>
			<path id="Path-18-Copy-3" class="st1" d="M427.6,47.9c19.4-16.6,45-38.2,64.4-54.8L427.6,47.9z"/>
			<path id="Path-13-Copy-2" class="st1" d="M353.7,46.4c24.5-24.6,9.1-9.1,79.6-54.2L353.7,46.4z"/>
			<path id="Path-19-Copy" class="st0" d="M34,5.1c5-3,10-6,15-8.9"/>
			<path id="Path-25-Copy" class="st0" d="M314,46.2c55.5-34.6,29.7-17.4,78-51.3"/>
			<path id="Path-26-Copy" class="st0" d="M327,46.2c78.5-48.1,60-26.8,81-53.1"/>
			<path id="Path-13-Copy-3" class="st1" d="M35,27.8c17.7-16.2,3.7-4.2,50-31.6"/>
			<path id="Path-20-Copy" class="st0" d="M207.1,47.1c73.2-35.3,39.5-18.2,101.5-50.8"/>
			<path id="Path-21-Copy" class="st0" d="M231.3,47.9c67.5-32.4,38-15.2,89.9-50.8"/>
			<path id="Path-22-Copy" class="st0" d="M250.1,47.5c28.7-17.1,57.4-34.1,86-51.2"/>
			<path id="Path-23-Copy" class="st0" d="M270.3,47.3c72.8-42.2,46.8-24.2,83.6-51"/>
			<path id="Path-24-Copy" class="st0" d="M290.5,46.3c66-38.4,40.7-20.4,80.4-51.7"/>
		</g>
	</g>
</g>
</svg>
