<?xml version="1.0" encoding="utf-8"?>
<!-- Generator: Adobe Illustrator 21.0.0, SVG Export Plug-In . SVG Version: 6.00 Build 0)  -->
<svg version="1.1" id="Layer_1" xmlns="http://www.w3.org/2000/svg" xmlns:xlink="http://www.w3.org/1999/xlink" x="0px" y="0px"
	 viewBox="0 0 10.2 10" style="enable-background:new 0 0 10.2 10;" xml:space="preserve">
<style type="text/css">
	.st0{fill:#FFFFFF;stroke:#000000;stroke-width:0.6;stroke-miterlimit:10;}
	.st1{fill:#FFFFFF;stroke:#000000;stroke-width:0.5;stroke-miterlimit:10;}
	.st2{stroke:#000000;stroke-width:0.5;stroke-miterlimit:10;}
</style>
<path class="st0" d="M3.4,7C3.2,6.8,3,6.5,2.8,6.3C1.2,6.6,1.3,6.8,1,7.3c0,0.1-0.3,2.1-0.3,2.1c0,0.1,2-0.1,2.4-0.3
	C3.3,9.1,4,8.8,4,7.6C3.8,7.4,3.6,7.2,3.4,7z"/>
<g>
	<path class="st1" d="M4.2,5.1C4,5.2,3.5,5.7,3.4,5.9c0.2,0.2,0.3,0.4,0.5,0.5C4.1,6.6,4.3,6.8,4.5,7c0.1-0.1,0.6-0.7,0.8-0.8
		C5.1,6,4.3,5.2,4.2,5.1z"/>
	<path class="st2" d="M4.8,5.5C5,5.7,5.2,5.9,5.4,6.1c0.3-0.3,0.6-0.6,0.9-1C8.1,3.3,10,0.8,9.7,0.6C9.5,0.4,6.9,2.3,5.1,4.1
		C4.8,4.4,4.5,4.7,4.3,5C4.4,5.1,4.6,5.3,4.8,5.5z"/>
</g>
</svg>
