<?xml version="1.0" encoding="utf-8"?>
<!-- Generator: Adobe Illustrator 22.1.0, SVG Export Plug-In . SVG Version: 6.00 Build 0)  -->
<svg height="32" weight="32" version="1.1" id="Layer_1" xmlns="http://www.w3.org/2000/svg" xmlns:xlink="http://www.w3.org/1999/xlink" x="0px" y="0px"
	 viewBox="0 0 34.1 33.5" style="enable-background:new 0 0 34.1 33.5;" xml:space="preserve">
<style type="text/css">
	.st0{fill:#FFFFFF;stroke:#000000;stroke-miterlimit:10;}
	.st1{fill:#FFFFFF;stroke:#000000;stroke-width:0.9;stroke-miterlimit:10;}
	.st2{stroke:#000000;stroke-width:0.9;stroke-miterlimit:10;}
</style>
<path class="st0" d="M10.4,10.1c0.7-0.7,1.5-1.4,2.2-2c-0.8-5.5-1.5-5.3-3.4-6.3C9,1.7,1.9,0.7,1.9,0.7c-0.2,0.2,0.5,7,0.9,8.4
	c0.2,0.8,1.3,3,5.5,3.2C8.9,11.6,9.6,10.9,10.4,10.1z"/>
<g>
	<path class="st1" d="M17,12.9c-0.6-0.6-2.4-2.4-2.9-2.9c-0.6,0.6-1.3,1.2-1.9,1.8c-0.7,0.7-1.4,1.4-2,2.1c0.5,0.5,2.3,2.2,2.9,2.8
		C13.8,16,16.4,13.4,17,12.9z"/>
	<path class="st2" d="M15.4,15.2c-0.7,0.7-1.3,1.4-1.9,2c1,1,2.1,2,3.4,3.3c6.2,6.2,14.9,12.8,15.7,12c0.8-0.8-6-9.9-12.2-16.1
		c-1.2-1.2-2.2-2.2-3-3.1C16.7,13.9,16.1,14.6,15.4,15.2z"/>
</g>
</svg>
