<?xml version="1.0" encoding="utf-8"?>
<!-- Generator: Adobe Illustrator 21.0.0, SVG Export Plug-In . SVG Version: 6.00 Build 0)  -->
<svg version="1.1" id="Layer_1" xmlns="http://www.w3.org/2000/svg" xmlns:xlink="http://www.w3.org/1999/xlink" x="0px" y="0px"
	 viewBox="0 0 34.1 33.5" style="enable-background:new 0 0 34.1 33.5;" xml:space="preserve">
<style type="text/css">
	.st0{fill:#FFFFFF;stroke:#000000;stroke-miterlimit:10;}
	.st1{fill:#FFFFFF;stroke:#000000;stroke-width:0.9;stroke-miterlimit:10;}
	.st2{stroke:#000000;stroke-width:0.9;stroke-miterlimit:10;}
</style>
<path class="st0" d="M23.8,9.8c0.7,0.7,1.4,1.5,2,2.2c5.5-0.8,5.3-1.5,6.3-3.4c0.1-0.2,1.1-7.3,1.1-7.3c-0.2-0.2-7,0.5-8.4,0.9
	c-0.8,0.2-3,1.3-3.2,5.5C22.3,8.3,23,9,23.8,9.8z"/>
<g>
	<path class="st1" d="M21,16.4c0.6-0.6,2.4-2.4,2.9-2.9c-0.6-0.6-1.2-1.3-1.8-1.9c-0.7-0.7-1.4-1.4-2.1-2c-0.5,0.5-2.2,2.3-2.8,2.9
		C17.9,13.2,20.5,15.8,21,16.4z"/>
	<path class="st2" d="M18.7,14.8c-0.7-0.7-1.4-1.3-2-1.9c-1,1-2,2.1-3.3,3.4C7.2,22.5,0.6,31.2,1.4,32s9.9-6,16.1-12.2
		c1.2-1.2,2.2-2.2,3.1-3C20,16.1,19.3,15.5,18.7,14.8z"/>
</g>
</svg>
